M48
; DRILL file {KiCad 6.0.11+dfsg-1} date Mon 09 Jun 2025 10:15:36 PM EDT
; FORMAT={-:-/ absolute / inch / decimal}
; #@! TF.CreationDate,2025-06-09T22:15:36-04:00
; #@! TF.GenerationSoftware,Kicad,Pcbnew,6.0.11+dfsg-1
; #@! TF.FileFunction,Plated,1,2,PTH
FMAT,2
INCH
; #@! TA.AperFunction,Plated,PTH,ViaDrill
T1C0.0236
; #@! TA.AperFunction,Plated,PTH,ComponentDrill
T2C0.0378
; #@! TA.AperFunction,Plated,PTH,ComponentDrill
T3C0.0523
%
G90
G05
T1
X5.44Y-4.0
X5.44Y-4.26
X6.11Y-4.74
X6.22Y-4.8
X6.4Y-4.68
X6.49Y-4.17
X6.5Y-4.07
X6.52Y-4.49
X6.57Y-3.87
X6.59Y-5.02
X6.6Y-4.58
X6.66Y-4.19
X6.71Y-3.94
X6.76Y-4.53
X6.79Y-4.67
T2
X5.4Y-4.85
X5.4269Y-4.18
X5.5024Y-4.85
X5.5292Y-4.18
X5.6047Y-4.85
X5.7Y-4.85
X6.4803Y-4.68
X6.5826Y-4.68
T3
X5.39Y-4.3793
X5.39Y-4.6607
T0
M30
