%TF.GenerationSoftware,KiCad,Pcbnew,6.0.11+dfsg-1*%
%TF.CreationDate,2025-03-25T22:52:09-04:00*%
%TF.ProjectId,esp_with_imu,6573705f-7769-4746-985f-696d752e6b69,rev?*%
%TF.SameCoordinates,Original*%
%TF.FileFunction,Copper,L2,Bot*%
%TF.FilePolarity,Positive*%
%FSLAX46Y46*%
G04 Gerber Fmt 4.6, Leading zero omitted, Abs format (unit mm)*
G04 Created by KiCad (PCBNEW 6.0.11+dfsg-1) date 2025-03-25 22:52:09*
%MOMM*%
%LPD*%
G01*
G04 APERTURE LIST*
%TA.AperFunction,ComponentPad*%
%ADD10R,1.493000X1.493000*%
%TD*%
%TA.AperFunction,ComponentPad*%
%ADD11C,1.524000*%
%TD*%
%TA.AperFunction,ComponentPad*%
%ADD12C,2.000000*%
%TD*%
%TA.AperFunction,ComponentPad*%
%ADD13C,1.493000*%
%TD*%
%TA.AperFunction,ViaPad*%
%ADD14C,0.800000*%
%TD*%
%TA.AperFunction,Conductor*%
%ADD15C,0.250000*%
%TD*%
G04 APERTURE END LIST*
D10*
%TO.P,U4,1*%
%TO.N,+5V*%
X173736000Y-102068000D03*
D11*
%TO.P,U4,2*%
%TO.N,GND*%
X173736000Y-99528000D03*
%TO.P,U4,3*%
%TO.N,+3V3*%
X173736000Y-96988000D03*
%TD*%
D12*
%TO.P,SW2,1,1*%
%TO.N,IO9_BOOT*%
X163358000Y-97080000D03*
X163358000Y-103580000D03*
%TO.P,SW2,2,2*%
%TO.N,GND*%
X167858000Y-97080000D03*
X167858000Y-103580000D03*
%TD*%
D10*
%TO.P,U2,1,io0*%
%TO.N,IO0*%
X153377000Y-76535000D03*
D13*
%TO.P,U2,2,io1*%
%TO.N,IO1*%
X153377000Y-79135000D03*
%TO.P,U2,3,io2*%
%TO.N,IO2*%
X153377000Y-81735000D03*
%TO.P,U2,4,io3*%
%TO.N,IO3*%
X153377000Y-84155000D03*
%TO.P,U2,5,io4*%
%TO.N,IO4*%
X153377000Y-86695000D03*
D11*
%TO.P,U2,6,io5*%
%TO.N,IO5*%
X153377000Y-89235000D03*
%TO.P,U2,7,io6*%
%TO.N,IO6*%
X153377000Y-91775000D03*
%TO.P,U2,8,io7*%
%TO.N,IO7*%
X153377000Y-94315000D03*
%TO.P,U2,9,reset*%
%TO.N,RESET*%
X173697000Y-76535000D03*
%TO.P,U2,10,io19_d+*%
%TO.N,unconnected-(U2-Pad10)*%
X173697000Y-79075000D03*
%TO.P,U2,11,io18_d-*%
%TO.N,unconnected-(U2-Pad11)*%
X173697000Y-81615000D03*
D13*
%TO.P,U2,12,io10*%
%TO.N,IO10*%
X173697000Y-84155000D03*
%TO.P,U2,13,boot*%
%TO.N,IO9_BOOT*%
X173697000Y-86695000D03*
%TO.P,U2,14,io8*%
%TO.N,IO8*%
X173697000Y-89115000D03*
%TO.P,U2,15,gnd*%
%TO.N,GND*%
X173697000Y-91715000D03*
D10*
%TO.P,U2,16,+3V3*%
%TO.N,+3V3*%
X173697000Y-94315000D03*
%TD*%
%TO.P,U1,1*%
%TO.N,+5V*%
X173712000Y-69990000D03*
D13*
%TO.P,U1,2*%
%TO.N,GND*%
X173712000Y-67390000D03*
%TO.P,U1,3*%
%TO.N,UART_RX*%
X173712000Y-64790000D03*
%TO.P,U1,4*%
%TO.N,UART_TX*%
X173712000Y-62370000D03*
%TD*%
D12*
%TO.P,SW1,1,1*%
%TO.N,RESET*%
X153706000Y-97080000D03*
X153706000Y-103580000D03*
%TO.P,SW1,2,2*%
%TO.N,GND*%
X158206000Y-103580000D03*
X158206000Y-97080000D03*
%TD*%
D14*
%TO.N,RESET*%
X162480319Y-80946319D03*
X157988000Y-72136000D03*
X170688000Y-79502000D03*
%TO.N,+3V3*%
X166624000Y-80772000D03*
X170180000Y-91948000D03*
X158750000Y-73660000D03*
X164084000Y-78232000D03*
X166878000Y-88633000D03*
X165100000Y-79502000D03*
%TO.N,IO0*%
X157734000Y-76454000D03*
%TO.N,IO1*%
X159004000Y-76454000D03*
%TO.N,IO10*%
X164846000Y-77470000D03*
X165862000Y-78486000D03*
X162560000Y-79756000D03*
X169164000Y-80010000D03*
X160528000Y-77724000D03*
X161544000Y-76708000D03*
%TO.N,IO8*%
X170688000Y-90932000D03*
X161290000Y-86106000D03*
X166370000Y-74676000D03*
X170688000Y-72644000D03*
X171052500Y-80518000D03*
%TO.N,IO9_BOOT*%
X167640000Y-76962000D03*
X168450181Y-78788181D03*
%TO.N,GND*%
X171704000Y-71882000D03*
X166878000Y-72644000D03*
X172466000Y-98044000D03*
X168656000Y-83566000D03*
X167894000Y-74168000D03*
X170180000Y-67056000D03*
X155956000Y-101346000D03*
X154940000Y-73660000D03*
X163068000Y-91948000D03*
X154178000Y-66040000D03*
X170180000Y-88900000D03*
X165608000Y-99314000D03*
X166878000Y-90170000D03*
X170434000Y-86614000D03*
X172466000Y-95504000D03*
X173228000Y-73660000D03*
X158750000Y-67564000D03*
X164084000Y-86614000D03*
X160020000Y-89154000D03*
X155956000Y-99314000D03*
X164084000Y-71628000D03*
X162052000Y-71628000D03*
X162052000Y-69596000D03*
X155194000Y-94742000D03*
X154940000Y-77724000D03*
X165608000Y-101600000D03*
X167132000Y-67564000D03*
X164084000Y-69596000D03*
X158496000Y-79502000D03*
X169164000Y-93472000D03*
X166370000Y-84328000D03*
%TD*%
D15*
%TO.N,RESET*%
X157988000Y-72644000D02*
X157988000Y-72136000D01*
X159258000Y-78232000D02*
X159258000Y-77470000D01*
X163830000Y-82296000D02*
X162480319Y-80946319D01*
X167894000Y-82296000D02*
X163830000Y-82296000D01*
X161972319Y-80946319D02*
X159258000Y-78232000D01*
X157988000Y-74168000D02*
X159766000Y-75946000D01*
X159766000Y-76962000D02*
X159766000Y-75946000D01*
X157988000Y-74168000D02*
X157988000Y-72644000D01*
X159258000Y-77470000D02*
X159766000Y-76962000D01*
X170688000Y-79502000D02*
X167894000Y-82296000D01*
X162480319Y-80946319D02*
X161972319Y-80946319D01*
%TO.N,+3V3*%
X166370000Y-80772000D02*
X165100000Y-79502000D01*
X166624000Y-80772000D02*
X166370000Y-80772000D01*
X159766000Y-73660000D02*
X158750000Y-73660000D01*
X164084000Y-78232000D02*
X162145932Y-78232000D01*
X160782000Y-74676000D02*
X159766000Y-73660000D01*
X166878000Y-88646000D02*
X170180000Y-91948000D01*
X166878000Y-88633000D02*
X166878000Y-88646000D01*
X160782000Y-76868068D02*
X160782000Y-74676000D01*
X162145932Y-78232000D02*
X160782000Y-76868068D01*
%TO.N,IO0*%
X157653000Y-76535000D02*
X157734000Y-76454000D01*
X153377000Y-76535000D02*
X157653000Y-76535000D01*
%TO.N,IO1*%
X153377000Y-79135000D02*
X156323000Y-79135000D01*
X156323000Y-79135000D02*
X159004000Y-76454000D01*
%TO.N,IO10*%
X169164000Y-80010000D02*
X167386000Y-80010000D01*
X164084000Y-76708000D02*
X161544000Y-76708000D01*
X162560000Y-79756000D02*
X160528000Y-77724000D01*
X164846000Y-77470000D02*
X164084000Y-76708000D01*
X167386000Y-80010000D02*
X165862000Y-78486000D01*
%TO.N,IO8*%
X163576000Y-87630000D02*
X162560000Y-88646000D01*
X167386000Y-87630000D02*
X163576000Y-87630000D01*
X170688000Y-72644000D02*
X168402000Y-72644000D01*
X161290000Y-87884000D02*
X161290000Y-86106000D01*
X162560000Y-88646000D02*
X162052000Y-88646000D01*
X171052500Y-83963500D02*
X171052500Y-80518000D01*
X170688000Y-90932000D02*
X167386000Y-87630000D01*
X168402000Y-72644000D02*
X166370000Y-74676000D01*
X162052000Y-88646000D02*
X161290000Y-87884000D01*
X167386000Y-87630000D02*
X171052500Y-83963500D01*
%TO.N,IO9_BOOT*%
X168450181Y-78788181D02*
X168450181Y-77772181D01*
X168450181Y-77772181D02*
X167640000Y-76962000D01*
%TO.N,+5V*%
X171704000Y-100036000D02*
X171704000Y-73152000D01*
X173712000Y-71144000D02*
X173712000Y-69990000D01*
X173736000Y-102068000D02*
X171704000Y-100036000D01*
X171704000Y-73152000D02*
X173712000Y-71144000D01*
%TD*%
%TA.AperFunction,Conductor*%
%TO.N,GND*%
G36*
X172987338Y-65298002D02*
G01*
X173012852Y-65319689D01*
X173123959Y-65443086D01*
X173272593Y-65551075D01*
X173278621Y-65553759D01*
X173278623Y-65553760D01*
X173434401Y-65623117D01*
X173440432Y-65625802D01*
X173530286Y-65644901D01*
X173613682Y-65662628D01*
X173613686Y-65662628D01*
X173620139Y-65664000D01*
X173803861Y-65664000D01*
X173810314Y-65662628D01*
X173810318Y-65662628D01*
X173893714Y-65644901D01*
X173983568Y-65625802D01*
X173989599Y-65623117D01*
X174145377Y-65553760D01*
X174145379Y-65553759D01*
X174151407Y-65551075D01*
X174300041Y-65443086D01*
X174411148Y-65319690D01*
X174471593Y-65282450D01*
X174504783Y-65278000D01*
X175133000Y-65278000D01*
X175201121Y-65298002D01*
X175247614Y-65351658D01*
X175259000Y-65404000D01*
X175259000Y-99478476D01*
X175244132Y-99529111D01*
X175256530Y-99552698D01*
X175259000Y-99577524D01*
X175259000Y-105283000D01*
X175238998Y-105351121D01*
X175185342Y-105397614D01*
X175133000Y-105409000D01*
X152019000Y-105409000D01*
X151950879Y-105388998D01*
X151904386Y-105335342D01*
X151893000Y-105283000D01*
X151893000Y-104812670D01*
X157338160Y-104812670D01*
X157343887Y-104820320D01*
X157515042Y-104925205D01*
X157523837Y-104929687D01*
X157733988Y-105016734D01*
X157743373Y-105019783D01*
X157964554Y-105072885D01*
X157974301Y-105074428D01*
X158201070Y-105092275D01*
X158210930Y-105092275D01*
X158437699Y-105074428D01*
X158447446Y-105072885D01*
X158668627Y-105019783D01*
X158678012Y-105016734D01*
X158888163Y-104929687D01*
X158896958Y-104925205D01*
X159064445Y-104822568D01*
X159073400Y-104812670D01*
X166990160Y-104812670D01*
X166995887Y-104820320D01*
X167167042Y-104925205D01*
X167175837Y-104929687D01*
X167385988Y-105016734D01*
X167395373Y-105019783D01*
X167616554Y-105072885D01*
X167626301Y-105074428D01*
X167853070Y-105092275D01*
X167862930Y-105092275D01*
X168089699Y-105074428D01*
X168099446Y-105072885D01*
X168320627Y-105019783D01*
X168330012Y-105016734D01*
X168540163Y-104929687D01*
X168548958Y-104925205D01*
X168716445Y-104822568D01*
X168725907Y-104812110D01*
X168722124Y-104803334D01*
X167870812Y-103952022D01*
X167856868Y-103944408D01*
X167855035Y-103944539D01*
X167848420Y-103948790D01*
X166996920Y-104800290D01*
X166990160Y-104812670D01*
X159073400Y-104812670D01*
X159073907Y-104812110D01*
X159070124Y-104803334D01*
X158218812Y-103952022D01*
X158204868Y-103944408D01*
X158203035Y-103944539D01*
X158196420Y-103948790D01*
X157344920Y-104800290D01*
X157338160Y-104812670D01*
X151893000Y-104812670D01*
X151893000Y-103550359D01*
X152574058Y-103550359D01*
X152587611Y-103757135D01*
X152638619Y-103957980D01*
X152725373Y-104146165D01*
X152728704Y-104150878D01*
X152728705Y-104150880D01*
X152807353Y-104262163D01*
X152844970Y-104315390D01*
X152849106Y-104319419D01*
X152981003Y-104447907D01*
X152993402Y-104459986D01*
X152998198Y-104463191D01*
X152998201Y-104463193D01*
X153067493Y-104509492D01*
X153165699Y-104575111D01*
X153171002Y-104577389D01*
X153171005Y-104577391D01*
X153350784Y-104654630D01*
X153356091Y-104656910D01*
X153558201Y-104702643D01*
X153563972Y-104702870D01*
X153563974Y-104702870D01*
X153633210Y-104705590D01*
X153765262Y-104710778D01*
X153853561Y-104697975D01*
X153964616Y-104681874D01*
X153964621Y-104681873D01*
X153970337Y-104681044D01*
X153975809Y-104679186D01*
X153975811Y-104679186D01*
X154161096Y-104616290D01*
X154161098Y-104616289D01*
X154166560Y-104614435D01*
X154347359Y-104513183D01*
X154506678Y-104380678D01*
X154597932Y-104270958D01*
X154635492Y-104225797D01*
X154639183Y-104221359D01*
X154740435Y-104040560D01*
X154773075Y-103944408D01*
X154805186Y-103849811D01*
X154805186Y-103849809D01*
X154807044Y-103844337D01*
X154807873Y-103838621D01*
X154807874Y-103838616D01*
X154836245Y-103642936D01*
X154836778Y-103639262D01*
X154838201Y-103584930D01*
X156693725Y-103584930D01*
X156711572Y-103811699D01*
X156713115Y-103821446D01*
X156766217Y-104042627D01*
X156769266Y-104052012D01*
X156856313Y-104262163D01*
X156860795Y-104270958D01*
X156963432Y-104438445D01*
X156973890Y-104447907D01*
X156982666Y-104444124D01*
X157833978Y-103592812D01*
X157840356Y-103581132D01*
X158570408Y-103581132D01*
X158570539Y-103582965D01*
X158574790Y-103589580D01*
X159426290Y-104441080D01*
X159438670Y-104447840D01*
X159446320Y-104442113D01*
X159551205Y-104270958D01*
X159555687Y-104262163D01*
X159642734Y-104052012D01*
X159645783Y-104042627D01*
X159698885Y-103821446D01*
X159700428Y-103811699D01*
X159718275Y-103584930D01*
X159718275Y-103575070D01*
X159716330Y-103550359D01*
X162226058Y-103550359D01*
X162239611Y-103757135D01*
X162290619Y-103957980D01*
X162377373Y-104146165D01*
X162380704Y-104150878D01*
X162380705Y-104150880D01*
X162459353Y-104262163D01*
X162496970Y-104315390D01*
X162501106Y-104319419D01*
X162633003Y-104447907D01*
X162645402Y-104459986D01*
X162650198Y-104463191D01*
X162650201Y-104463193D01*
X162719493Y-104509492D01*
X162817699Y-104575111D01*
X162823002Y-104577389D01*
X162823005Y-104577391D01*
X163002784Y-104654630D01*
X163008091Y-104656910D01*
X163210201Y-104702643D01*
X163215972Y-104702870D01*
X163215974Y-104702870D01*
X163285210Y-104705590D01*
X163417262Y-104710778D01*
X163505561Y-104697975D01*
X163616616Y-104681874D01*
X163616621Y-104681873D01*
X163622337Y-104681044D01*
X163627809Y-104679186D01*
X163627811Y-104679186D01*
X163813096Y-104616290D01*
X163813098Y-104616289D01*
X163818560Y-104614435D01*
X163999359Y-104513183D01*
X164158678Y-104380678D01*
X164249932Y-104270958D01*
X164287492Y-104225797D01*
X164291183Y-104221359D01*
X164392435Y-104040560D01*
X164425075Y-103944408D01*
X164457186Y-103849811D01*
X164457186Y-103849809D01*
X164459044Y-103844337D01*
X164459873Y-103838621D01*
X164459874Y-103838616D01*
X164488245Y-103642936D01*
X164488778Y-103639262D01*
X164490201Y-103584930D01*
X166345725Y-103584930D01*
X166363572Y-103811699D01*
X166365115Y-103821446D01*
X166418217Y-104042627D01*
X166421266Y-104052012D01*
X166508313Y-104262163D01*
X166512795Y-104270958D01*
X166615432Y-104438445D01*
X166625890Y-104447907D01*
X166634666Y-104444124D01*
X167485978Y-103592812D01*
X167492356Y-103581132D01*
X168222408Y-103581132D01*
X168222539Y-103582965D01*
X168226790Y-103589580D01*
X169078290Y-104441080D01*
X169090670Y-104447840D01*
X169098320Y-104442113D01*
X169203205Y-104270958D01*
X169207687Y-104262163D01*
X169294734Y-104052012D01*
X169297783Y-104042627D01*
X169350885Y-103821446D01*
X169352428Y-103811699D01*
X169370275Y-103584930D01*
X169370275Y-103575070D01*
X169352428Y-103348301D01*
X169350885Y-103338554D01*
X169297783Y-103117373D01*
X169294734Y-103107988D01*
X169207687Y-102897837D01*
X169203205Y-102889042D01*
X169100568Y-102721555D01*
X169090110Y-102712093D01*
X169081334Y-102715876D01*
X168230022Y-103567188D01*
X168222408Y-103581132D01*
X167492356Y-103581132D01*
X167493592Y-103578868D01*
X167493461Y-103577035D01*
X167489210Y-103570420D01*
X166637710Y-102718920D01*
X166625330Y-102712160D01*
X166617680Y-102717887D01*
X166512795Y-102889042D01*
X166508313Y-102897837D01*
X166421266Y-103107988D01*
X166418217Y-103117373D01*
X166365115Y-103338554D01*
X166363572Y-103348301D01*
X166345725Y-103575070D01*
X166345725Y-103584930D01*
X164490201Y-103584930D01*
X164490330Y-103580000D01*
X164471369Y-103373649D01*
X164464788Y-103350312D01*
X164416689Y-103179768D01*
X164416688Y-103179766D01*
X164415121Y-103174209D01*
X164404265Y-103152194D01*
X164326025Y-102993540D01*
X164323470Y-102988359D01*
X164301362Y-102958752D01*
X164202938Y-102826947D01*
X164202937Y-102826946D01*
X164199485Y-102822323D01*
X164090475Y-102721555D01*
X164051559Y-102685581D01*
X164051556Y-102685579D01*
X164047319Y-102681662D01*
X164001145Y-102652529D01*
X163876951Y-102574168D01*
X163876946Y-102574166D01*
X163872067Y-102571087D01*
X163679599Y-102494300D01*
X163476361Y-102453873D01*
X163470587Y-102453797D01*
X163470583Y-102453797D01*
X163365399Y-102452421D01*
X163269158Y-102451161D01*
X163263461Y-102452140D01*
X163263460Y-102452140D01*
X163070628Y-102485274D01*
X163070627Y-102485274D01*
X163064931Y-102486253D01*
X162870519Y-102557976D01*
X162692433Y-102663926D01*
X162536637Y-102800555D01*
X162408348Y-102963289D01*
X162311863Y-103146676D01*
X162291825Y-103211210D01*
X162252284Y-103338554D01*
X162250414Y-103344575D01*
X162226058Y-103550359D01*
X159716330Y-103550359D01*
X159700428Y-103348301D01*
X159698885Y-103338554D01*
X159645783Y-103117373D01*
X159642734Y-103107988D01*
X159555687Y-102897837D01*
X159551205Y-102889042D01*
X159448568Y-102721555D01*
X159438110Y-102712093D01*
X159429334Y-102715876D01*
X158578022Y-103567188D01*
X158570408Y-103581132D01*
X157840356Y-103581132D01*
X157841592Y-103578868D01*
X157841461Y-103577035D01*
X157837210Y-103570420D01*
X156985710Y-102718920D01*
X156973330Y-102712160D01*
X156965680Y-102717887D01*
X156860795Y-102889042D01*
X156856313Y-102897837D01*
X156769266Y-103107988D01*
X156766217Y-103117373D01*
X156713115Y-103338554D01*
X156711572Y-103348301D01*
X156693725Y-103575070D01*
X156693725Y-103584930D01*
X154838201Y-103584930D01*
X154838330Y-103580000D01*
X154819369Y-103373649D01*
X154812788Y-103350312D01*
X154764689Y-103179768D01*
X154764688Y-103179766D01*
X154763121Y-103174209D01*
X154752265Y-103152194D01*
X154674025Y-102993540D01*
X154671470Y-102988359D01*
X154649362Y-102958752D01*
X154550938Y-102826947D01*
X154550937Y-102826946D01*
X154547485Y-102822323D01*
X154438475Y-102721555D01*
X154399559Y-102685581D01*
X154399556Y-102685579D01*
X154395319Y-102681662D01*
X154349145Y-102652529D01*
X154224951Y-102574168D01*
X154224946Y-102574166D01*
X154220067Y-102571087D01*
X154027599Y-102494300D01*
X153824361Y-102453873D01*
X153818587Y-102453797D01*
X153818583Y-102453797D01*
X153713399Y-102452421D01*
X153617158Y-102451161D01*
X153611461Y-102452140D01*
X153611460Y-102452140D01*
X153418628Y-102485274D01*
X153418627Y-102485274D01*
X153412931Y-102486253D01*
X153218519Y-102557976D01*
X153040433Y-102663926D01*
X152884637Y-102800555D01*
X152756348Y-102963289D01*
X152659863Y-103146676D01*
X152639825Y-103211210D01*
X152600284Y-103338554D01*
X152598414Y-103344575D01*
X152574058Y-103550359D01*
X151893000Y-103550359D01*
X151893000Y-102347890D01*
X157338093Y-102347890D01*
X157341876Y-102356666D01*
X158193188Y-103207978D01*
X158207132Y-103215592D01*
X158208965Y-103215461D01*
X158215580Y-103211210D01*
X159067080Y-102359710D01*
X159073534Y-102347890D01*
X166990093Y-102347890D01*
X166993876Y-102356666D01*
X167845188Y-103207978D01*
X167859132Y-103215592D01*
X167860965Y-103215461D01*
X167867580Y-103211210D01*
X168719080Y-102359710D01*
X168725840Y-102347330D01*
X168720113Y-102339680D01*
X168548958Y-102234795D01*
X168540163Y-102230313D01*
X168330012Y-102143266D01*
X168320627Y-102140217D01*
X168099446Y-102087115D01*
X168089699Y-102085572D01*
X167862930Y-102067725D01*
X167853070Y-102067725D01*
X167626301Y-102085572D01*
X167616554Y-102087115D01*
X167395373Y-102140217D01*
X167385988Y-102143266D01*
X167175837Y-102230313D01*
X167167042Y-102234795D01*
X166999555Y-102337432D01*
X166990093Y-102347890D01*
X159073534Y-102347890D01*
X159073840Y-102347330D01*
X159068113Y-102339680D01*
X158896958Y-102234795D01*
X158888163Y-102230313D01*
X158678012Y-102143266D01*
X158668627Y-102140217D01*
X158447446Y-102087115D01*
X158437699Y-102085572D01*
X158210930Y-102067725D01*
X158201070Y-102067725D01*
X157974301Y-102085572D01*
X157964554Y-102087115D01*
X157743373Y-102140217D01*
X157733988Y-102143266D01*
X157523837Y-102230313D01*
X157515042Y-102234795D01*
X157347555Y-102337432D01*
X157338093Y-102347890D01*
X151893000Y-102347890D01*
X151893000Y-98312670D01*
X157338160Y-98312670D01*
X157343887Y-98320320D01*
X157515042Y-98425205D01*
X157523837Y-98429687D01*
X157733988Y-98516734D01*
X157743373Y-98519783D01*
X157964554Y-98572885D01*
X157974301Y-98574428D01*
X158201070Y-98592275D01*
X158210930Y-98592275D01*
X158437699Y-98574428D01*
X158447446Y-98572885D01*
X158668627Y-98519783D01*
X158678012Y-98516734D01*
X158888163Y-98429687D01*
X158896958Y-98425205D01*
X159064445Y-98322568D01*
X159073400Y-98312670D01*
X166990160Y-98312670D01*
X166995887Y-98320320D01*
X167167042Y-98425205D01*
X167175837Y-98429687D01*
X167385988Y-98516734D01*
X167395373Y-98519783D01*
X167616554Y-98572885D01*
X167626301Y-98574428D01*
X167853070Y-98592275D01*
X167862930Y-98592275D01*
X168089699Y-98574428D01*
X168099446Y-98572885D01*
X168320627Y-98519783D01*
X168330012Y-98516734D01*
X168540163Y-98429687D01*
X168548958Y-98425205D01*
X168716445Y-98322568D01*
X168725907Y-98312110D01*
X168722124Y-98303334D01*
X167870812Y-97452022D01*
X167856868Y-97444408D01*
X167855035Y-97444539D01*
X167848420Y-97448790D01*
X166996920Y-98300290D01*
X166990160Y-98312670D01*
X159073400Y-98312670D01*
X159073907Y-98312110D01*
X159070124Y-98303334D01*
X158218812Y-97452022D01*
X158204868Y-97444408D01*
X158203035Y-97444539D01*
X158196420Y-97448790D01*
X157344920Y-98300290D01*
X157338160Y-98312670D01*
X151893000Y-98312670D01*
X151893000Y-97050359D01*
X152574058Y-97050359D01*
X152587611Y-97257135D01*
X152638619Y-97457980D01*
X152725373Y-97646165D01*
X152728704Y-97650878D01*
X152728705Y-97650880D01*
X152807353Y-97762163D01*
X152844970Y-97815390D01*
X152849106Y-97819419D01*
X152981003Y-97947907D01*
X152993402Y-97959986D01*
X152998198Y-97963191D01*
X152998201Y-97963193D01*
X153067493Y-98009492D01*
X153165699Y-98075111D01*
X153171002Y-98077389D01*
X153171005Y-98077391D01*
X153350784Y-98154630D01*
X153356091Y-98156910D01*
X153558201Y-98202643D01*
X153563972Y-98202870D01*
X153563974Y-98202870D01*
X153633210Y-98205590D01*
X153765262Y-98210778D01*
X153853561Y-98197975D01*
X153964616Y-98181874D01*
X153964621Y-98181873D01*
X153970337Y-98181044D01*
X153975809Y-98179186D01*
X153975811Y-98179186D01*
X154161096Y-98116290D01*
X154161098Y-98116289D01*
X154166560Y-98114435D01*
X154347359Y-98013183D01*
X154506678Y-97880678D01*
X154602672Y-97765258D01*
X154635492Y-97725797D01*
X154639183Y-97721359D01*
X154740435Y-97540560D01*
X154773075Y-97444408D01*
X154805186Y-97349811D01*
X154805186Y-97349809D01*
X154807044Y-97344337D01*
X154807873Y-97338621D01*
X154807874Y-97338616D01*
X154836245Y-97142936D01*
X154836778Y-97139262D01*
X154838201Y-97084930D01*
X156693725Y-97084930D01*
X156711572Y-97311699D01*
X156713115Y-97321446D01*
X156766217Y-97542627D01*
X156769266Y-97552012D01*
X156856313Y-97762163D01*
X156860795Y-97770958D01*
X156963432Y-97938445D01*
X156973890Y-97947907D01*
X156982666Y-97944124D01*
X157833978Y-97092812D01*
X157840356Y-97081132D01*
X158570408Y-97081132D01*
X158570539Y-97082965D01*
X158574790Y-97089580D01*
X159426290Y-97941080D01*
X159438670Y-97947840D01*
X159446320Y-97942113D01*
X159551205Y-97770958D01*
X159555687Y-97762163D01*
X159642734Y-97552012D01*
X159645783Y-97542627D01*
X159698885Y-97321446D01*
X159700428Y-97311699D01*
X159718275Y-97084930D01*
X159718275Y-97075070D01*
X159716330Y-97050359D01*
X162226058Y-97050359D01*
X162239611Y-97257135D01*
X162290619Y-97457980D01*
X162377373Y-97646165D01*
X162380704Y-97650878D01*
X162380705Y-97650880D01*
X162459353Y-97762163D01*
X162496970Y-97815390D01*
X162501106Y-97819419D01*
X162633003Y-97947907D01*
X162645402Y-97959986D01*
X162650198Y-97963191D01*
X162650201Y-97963193D01*
X162719493Y-98009492D01*
X162817699Y-98075111D01*
X162823002Y-98077389D01*
X162823005Y-98077391D01*
X163002784Y-98154630D01*
X163008091Y-98156910D01*
X163210201Y-98202643D01*
X163215972Y-98202870D01*
X163215974Y-98202870D01*
X163285210Y-98205590D01*
X163417262Y-98210778D01*
X163505561Y-98197975D01*
X163616616Y-98181874D01*
X163616621Y-98181873D01*
X163622337Y-98181044D01*
X163627809Y-98179186D01*
X163627811Y-98179186D01*
X163813096Y-98116290D01*
X163813098Y-98116289D01*
X163818560Y-98114435D01*
X163999359Y-98013183D01*
X164158678Y-97880678D01*
X164254672Y-97765258D01*
X164287492Y-97725797D01*
X164291183Y-97721359D01*
X164392435Y-97540560D01*
X164425075Y-97444408D01*
X164457186Y-97349811D01*
X164457186Y-97349809D01*
X164459044Y-97344337D01*
X164459873Y-97338621D01*
X164459874Y-97338616D01*
X164488245Y-97142936D01*
X164488778Y-97139262D01*
X164490201Y-97084930D01*
X166345725Y-97084930D01*
X166363572Y-97311699D01*
X166365115Y-97321446D01*
X166418217Y-97542627D01*
X166421266Y-97552012D01*
X166508313Y-97762163D01*
X166512795Y-97770958D01*
X166615432Y-97938445D01*
X166625890Y-97947907D01*
X166634666Y-97944124D01*
X167485978Y-97092812D01*
X167492356Y-97081132D01*
X168222408Y-97081132D01*
X168222539Y-97082965D01*
X168226790Y-97089580D01*
X169078290Y-97941080D01*
X169090670Y-97947840D01*
X169098320Y-97942113D01*
X169203205Y-97770958D01*
X169207687Y-97762163D01*
X169294734Y-97552012D01*
X169297783Y-97542627D01*
X169350885Y-97321446D01*
X169352428Y-97311699D01*
X169370275Y-97084930D01*
X169370275Y-97075070D01*
X169352428Y-96848301D01*
X169350885Y-96838554D01*
X169297783Y-96617373D01*
X169294734Y-96607988D01*
X169207687Y-96397837D01*
X169203205Y-96389042D01*
X169100568Y-96221555D01*
X169090110Y-96212093D01*
X169081334Y-96215876D01*
X168230022Y-97067188D01*
X168222408Y-97081132D01*
X167492356Y-97081132D01*
X167493592Y-97078868D01*
X167493461Y-97077035D01*
X167489210Y-97070420D01*
X166637710Y-96218920D01*
X166625330Y-96212160D01*
X166617680Y-96217887D01*
X166512795Y-96389042D01*
X166508313Y-96397837D01*
X166421266Y-96607988D01*
X166418217Y-96617373D01*
X166365115Y-96838554D01*
X166363572Y-96848301D01*
X166345725Y-97075070D01*
X166345725Y-97084930D01*
X164490201Y-97084930D01*
X164490330Y-97080000D01*
X164471369Y-96873649D01*
X164464788Y-96850312D01*
X164416689Y-96679768D01*
X164416688Y-96679766D01*
X164415121Y-96674209D01*
X164404265Y-96652194D01*
X164326025Y-96493540D01*
X164323470Y-96488359D01*
X164301362Y-96458752D01*
X164202938Y-96326947D01*
X164202937Y-96326946D01*
X164199485Y-96322323D01*
X164090475Y-96221555D01*
X164051559Y-96185581D01*
X164051556Y-96185579D01*
X164047319Y-96181662D01*
X163977128Y-96137375D01*
X163876951Y-96074168D01*
X163876946Y-96074166D01*
X163872067Y-96071087D01*
X163679599Y-95994300D01*
X163476361Y-95953873D01*
X163470587Y-95953797D01*
X163470583Y-95953797D01*
X163365399Y-95952421D01*
X163269158Y-95951161D01*
X163263461Y-95952140D01*
X163263460Y-95952140D01*
X163070628Y-95985274D01*
X163070627Y-95985274D01*
X163064931Y-95986253D01*
X162870519Y-96057976D01*
X162692433Y-96163926D01*
X162536637Y-96300555D01*
X162408348Y-96463289D01*
X162311863Y-96646676D01*
X162291825Y-96711210D01*
X162252284Y-96838554D01*
X162250414Y-96844575D01*
X162226058Y-97050359D01*
X159716330Y-97050359D01*
X159700428Y-96848301D01*
X159698885Y-96838554D01*
X159645783Y-96617373D01*
X159642734Y-96607988D01*
X159555687Y-96397837D01*
X159551205Y-96389042D01*
X159448568Y-96221555D01*
X159438110Y-96212093D01*
X159429334Y-96215876D01*
X158578022Y-97067188D01*
X158570408Y-97081132D01*
X157840356Y-97081132D01*
X157841592Y-97078868D01*
X157841461Y-97077035D01*
X157837210Y-97070420D01*
X156985710Y-96218920D01*
X156973330Y-96212160D01*
X156965680Y-96217887D01*
X156860795Y-96389042D01*
X156856313Y-96397837D01*
X156769266Y-96607988D01*
X156766217Y-96617373D01*
X156713115Y-96838554D01*
X156711572Y-96848301D01*
X156693725Y-97075070D01*
X156693725Y-97084930D01*
X154838201Y-97084930D01*
X154838330Y-97080000D01*
X154819369Y-96873649D01*
X154812788Y-96850312D01*
X154764689Y-96679768D01*
X154764688Y-96679766D01*
X154763121Y-96674209D01*
X154752265Y-96652194D01*
X154674025Y-96493540D01*
X154671470Y-96488359D01*
X154649362Y-96458752D01*
X154550938Y-96326947D01*
X154550937Y-96326946D01*
X154547485Y-96322323D01*
X154438475Y-96221555D01*
X154399559Y-96185581D01*
X154399556Y-96185579D01*
X154395319Y-96181662D01*
X154325128Y-96137375D01*
X154224951Y-96074168D01*
X154224946Y-96074166D01*
X154220067Y-96071087D01*
X154027599Y-95994300D01*
X153824361Y-95953873D01*
X153818587Y-95953797D01*
X153818583Y-95953797D01*
X153713399Y-95952421D01*
X153617158Y-95951161D01*
X153611461Y-95952140D01*
X153611460Y-95952140D01*
X153418628Y-95985274D01*
X153418627Y-95985274D01*
X153412931Y-95986253D01*
X153218519Y-96057976D01*
X153040433Y-96163926D01*
X152884637Y-96300555D01*
X152756348Y-96463289D01*
X152659863Y-96646676D01*
X152639825Y-96711210D01*
X152600284Y-96838554D01*
X152598414Y-96844575D01*
X152574058Y-97050359D01*
X151893000Y-97050359D01*
X151893000Y-95847890D01*
X157338093Y-95847890D01*
X157341876Y-95856666D01*
X158193188Y-96707978D01*
X158207132Y-96715592D01*
X158208965Y-96715461D01*
X158215580Y-96711210D01*
X159067080Y-95859710D01*
X159073534Y-95847890D01*
X166990093Y-95847890D01*
X166993876Y-95856666D01*
X167845188Y-96707978D01*
X167859132Y-96715592D01*
X167860965Y-96715461D01*
X167867580Y-96711210D01*
X168719080Y-95859710D01*
X168725840Y-95847330D01*
X168720113Y-95839680D01*
X168548958Y-95734795D01*
X168540163Y-95730313D01*
X168330012Y-95643266D01*
X168320627Y-95640217D01*
X168099446Y-95587115D01*
X168089699Y-95585572D01*
X167862930Y-95567725D01*
X167853070Y-95567725D01*
X167626301Y-95585572D01*
X167616554Y-95587115D01*
X167395373Y-95640217D01*
X167385988Y-95643266D01*
X167175837Y-95730313D01*
X167167042Y-95734795D01*
X166999555Y-95837432D01*
X166990093Y-95847890D01*
X159073534Y-95847890D01*
X159073840Y-95847330D01*
X159068113Y-95839680D01*
X158896958Y-95734795D01*
X158888163Y-95730313D01*
X158678012Y-95643266D01*
X158668627Y-95640217D01*
X158447446Y-95587115D01*
X158437699Y-95585572D01*
X158210930Y-95567725D01*
X158201070Y-95567725D01*
X157974301Y-95585572D01*
X157964554Y-95587115D01*
X157743373Y-95640217D01*
X157733988Y-95643266D01*
X157523837Y-95730313D01*
X157515042Y-95734795D01*
X157347555Y-95837432D01*
X157338093Y-95847890D01*
X151893000Y-95847890D01*
X151893000Y-94315000D01*
X152482600Y-94315000D01*
X152502145Y-94500956D01*
X152559925Y-94678785D01*
X152653415Y-94840715D01*
X152778530Y-94979669D01*
X152929800Y-95089573D01*
X152935828Y-95092257D01*
X152935830Y-95092258D01*
X153094584Y-95162940D01*
X153100615Y-95165625D01*
X153175782Y-95181602D01*
X153277053Y-95203128D01*
X153277057Y-95203128D01*
X153283510Y-95204500D01*
X153470490Y-95204500D01*
X153476943Y-95203128D01*
X153476947Y-95203128D01*
X153578218Y-95181602D01*
X153653385Y-95165625D01*
X153659416Y-95162940D01*
X153818170Y-95092258D01*
X153818172Y-95092257D01*
X153824200Y-95089573D01*
X153975470Y-94979669D01*
X154100585Y-94840715D01*
X154194075Y-94678785D01*
X154251855Y-94500956D01*
X154271400Y-94315000D01*
X154251855Y-94129044D01*
X154194075Y-93951215D01*
X154100585Y-93789285D01*
X153975470Y-93650331D01*
X153824200Y-93540427D01*
X153818172Y-93537743D01*
X153818170Y-93537742D01*
X153659416Y-93467060D01*
X153659414Y-93467060D01*
X153653385Y-93464375D01*
X153543413Y-93441000D01*
X153476947Y-93426872D01*
X153476943Y-93426872D01*
X153470490Y-93425500D01*
X153283510Y-93425500D01*
X153277057Y-93426872D01*
X153277053Y-93426872D01*
X153210587Y-93441000D01*
X153100615Y-93464375D01*
X153094586Y-93467060D01*
X153094584Y-93467060D01*
X152935830Y-93537742D01*
X152935828Y-93537743D01*
X152929800Y-93540427D01*
X152778530Y-93650331D01*
X152653415Y-93789285D01*
X152559925Y-93951215D01*
X152502145Y-94129044D01*
X152482600Y-94315000D01*
X151893000Y-94315000D01*
X151893000Y-91775000D01*
X152482600Y-91775000D01*
X152502145Y-91960956D01*
X152559925Y-92138785D01*
X152653415Y-92300715D01*
X152657833Y-92305622D01*
X152657834Y-92305623D01*
X152753555Y-92411931D01*
X152778530Y-92439669D01*
X152929800Y-92549573D01*
X152935828Y-92552257D01*
X152935830Y-92552258D01*
X153094584Y-92622940D01*
X153100615Y-92625625D01*
X153192062Y-92645062D01*
X153277053Y-92663128D01*
X153277057Y-92663128D01*
X153283510Y-92664500D01*
X153470490Y-92664500D01*
X153476943Y-92663128D01*
X153476947Y-92663128D01*
X153561938Y-92645062D01*
X153653385Y-92625625D01*
X153659416Y-92622940D01*
X153818170Y-92552258D01*
X153818172Y-92552257D01*
X153824200Y-92549573D01*
X153975470Y-92439669D01*
X154000446Y-92411931D01*
X154096166Y-92305623D01*
X154096167Y-92305622D01*
X154100585Y-92300715D01*
X154194075Y-92138785D01*
X154251855Y-91960956D01*
X154271400Y-91775000D01*
X154262424Y-91689604D01*
X154252545Y-91595608D01*
X154252545Y-91595607D01*
X154251855Y-91589044D01*
X154194075Y-91411215D01*
X154183427Y-91392771D01*
X154103888Y-91255006D01*
X154100585Y-91249285D01*
X153975470Y-91110331D01*
X153947948Y-91090335D01*
X153829542Y-91004308D01*
X153829541Y-91004307D01*
X153824200Y-91000427D01*
X153818172Y-90997743D01*
X153818170Y-90997742D01*
X153659416Y-90927060D01*
X153659414Y-90927060D01*
X153653385Y-90924375D01*
X153561937Y-90904937D01*
X153476947Y-90886872D01*
X153476943Y-90886872D01*
X153470490Y-90885500D01*
X153283510Y-90885500D01*
X153277057Y-90886872D01*
X153277053Y-90886872D01*
X153192063Y-90904937D01*
X153100615Y-90924375D01*
X153094586Y-90927060D01*
X153094584Y-90927060D01*
X152935830Y-90997742D01*
X152935828Y-90997743D01*
X152929800Y-91000427D01*
X152924459Y-91004307D01*
X152924458Y-91004308D01*
X152806052Y-91090335D01*
X152778530Y-91110331D01*
X152653415Y-91249285D01*
X152650112Y-91255006D01*
X152570574Y-91392771D01*
X152559925Y-91411215D01*
X152502145Y-91589044D01*
X152501455Y-91595607D01*
X152501455Y-91595608D01*
X152491576Y-91689604D01*
X152482600Y-91775000D01*
X151893000Y-91775000D01*
X151893000Y-89235000D01*
X152482600Y-89235000D01*
X152502145Y-89420956D01*
X152559925Y-89598785D01*
X152653415Y-89760715D01*
X152778530Y-89899669D01*
X152783869Y-89903548D01*
X152901484Y-89989000D01*
X152929800Y-90009573D01*
X152935828Y-90012257D01*
X152935830Y-90012258D01*
X153094584Y-90082940D01*
X153100615Y-90085625D01*
X153192062Y-90105062D01*
X153277053Y-90123128D01*
X153277057Y-90123128D01*
X153283510Y-90124500D01*
X153470490Y-90124500D01*
X153476943Y-90123128D01*
X153476947Y-90123128D01*
X153561938Y-90105062D01*
X153653385Y-90085625D01*
X153659416Y-90082940D01*
X153818170Y-90012258D01*
X153818172Y-90012257D01*
X153824200Y-90009573D01*
X153852517Y-89989000D01*
X153970131Y-89903548D01*
X153975470Y-89899669D01*
X154100585Y-89760715D01*
X154194075Y-89598785D01*
X154251855Y-89420956D01*
X154271400Y-89235000D01*
X154261954Y-89145128D01*
X154252545Y-89055608D01*
X154252545Y-89055607D01*
X154251855Y-89049044D01*
X154194075Y-88871215D01*
X154173130Y-88834936D01*
X154103888Y-88715006D01*
X154100585Y-88709285D01*
X154024525Y-88624812D01*
X153979885Y-88575234D01*
X153979883Y-88575233D01*
X153975470Y-88570331D01*
X153824200Y-88460427D01*
X153818172Y-88457743D01*
X153818170Y-88457742D01*
X153659416Y-88387060D01*
X153659414Y-88387060D01*
X153653385Y-88384375D01*
X153561938Y-88364938D01*
X153476947Y-88346872D01*
X153476943Y-88346872D01*
X153470490Y-88345500D01*
X153283510Y-88345500D01*
X153277057Y-88346872D01*
X153277053Y-88346872D01*
X153192063Y-88364937D01*
X153100615Y-88384375D01*
X153094586Y-88387060D01*
X153094584Y-88387060D01*
X152935830Y-88457742D01*
X152935828Y-88457743D01*
X152929800Y-88460427D01*
X152778530Y-88570331D01*
X152774117Y-88575233D01*
X152774115Y-88575234D01*
X152729475Y-88624812D01*
X152653415Y-88709285D01*
X152650112Y-88715006D01*
X152580871Y-88834936D01*
X152559925Y-88871215D01*
X152502145Y-89049044D01*
X152501455Y-89055607D01*
X152501455Y-89055608D01*
X152492046Y-89145128D01*
X152482600Y-89235000D01*
X151893000Y-89235000D01*
X151893000Y-86695000D01*
X152498186Y-86695000D01*
X152517390Y-86877716D01*
X152574163Y-87052446D01*
X152577466Y-87058167D01*
X152577467Y-87058169D01*
X152662723Y-87205836D01*
X152662726Y-87205841D01*
X152666025Y-87211554D01*
X152788959Y-87348086D01*
X152794301Y-87351967D01*
X152794303Y-87351969D01*
X152932251Y-87452194D01*
X152937593Y-87456075D01*
X152943621Y-87458759D01*
X152943623Y-87458760D01*
X152986437Y-87477822D01*
X153105432Y-87530802D01*
X153195286Y-87549901D01*
X153278682Y-87567628D01*
X153278686Y-87567628D01*
X153285139Y-87569000D01*
X153468861Y-87569000D01*
X153475314Y-87567628D01*
X153475318Y-87567628D01*
X153558714Y-87549901D01*
X153648568Y-87530802D01*
X153767563Y-87477822D01*
X153810377Y-87458760D01*
X153810379Y-87458759D01*
X153816407Y-87456075D01*
X153821749Y-87452194D01*
X153959697Y-87351969D01*
X153959699Y-87351967D01*
X153965041Y-87348086D01*
X154087975Y-87211554D01*
X154091274Y-87205841D01*
X154091277Y-87205836D01*
X154176533Y-87058169D01*
X154176534Y-87058167D01*
X154179837Y-87052446D01*
X154236610Y-86877716D01*
X154255814Y-86695000D01*
X154236610Y-86512284D01*
X154179837Y-86337554D01*
X154125653Y-86243705D01*
X154091277Y-86184164D01*
X154091274Y-86184159D01*
X154087975Y-86178446D01*
X153965041Y-86041914D01*
X153863714Y-85968295D01*
X153821749Y-85937806D01*
X153821748Y-85937805D01*
X153816407Y-85933925D01*
X153810379Y-85931241D01*
X153810377Y-85931240D01*
X153654599Y-85861883D01*
X153654597Y-85861883D01*
X153648568Y-85859198D01*
X153558126Y-85839974D01*
X153475318Y-85822372D01*
X153475314Y-85822372D01*
X153468861Y-85821000D01*
X153285139Y-85821000D01*
X153278686Y-85822372D01*
X153278682Y-85822372D01*
X153195874Y-85839974D01*
X153105432Y-85859198D01*
X153099403Y-85861883D01*
X153099401Y-85861883D01*
X152943623Y-85931240D01*
X152943621Y-85931241D01*
X152937593Y-85933925D01*
X152932252Y-85937805D01*
X152932251Y-85937806D01*
X152890287Y-85968295D01*
X152788959Y-86041914D01*
X152666025Y-86178446D01*
X152662726Y-86184159D01*
X152662723Y-86184164D01*
X152628347Y-86243705D01*
X152574163Y-86337554D01*
X152517390Y-86512284D01*
X152498186Y-86695000D01*
X151893000Y-86695000D01*
X151893000Y-84155000D01*
X152498186Y-84155000D01*
X152517390Y-84337716D01*
X152574163Y-84512446D01*
X152577466Y-84518167D01*
X152577467Y-84518169D01*
X152662723Y-84665836D01*
X152662726Y-84665841D01*
X152666025Y-84671554D01*
X152788959Y-84808086D01*
X152937593Y-84916075D01*
X152943621Y-84918759D01*
X152943623Y-84918760D01*
X153099401Y-84988117D01*
X153105432Y-84990802D01*
X153195285Y-85009901D01*
X153278682Y-85027628D01*
X153278686Y-85027628D01*
X153285139Y-85029000D01*
X153468861Y-85029000D01*
X153475314Y-85027628D01*
X153475318Y-85027628D01*
X153558715Y-85009901D01*
X153648568Y-84990802D01*
X153654599Y-84988117D01*
X153810377Y-84918760D01*
X153810379Y-84918759D01*
X153816407Y-84916075D01*
X153965041Y-84808086D01*
X154087975Y-84671554D01*
X154091274Y-84665841D01*
X154091277Y-84665836D01*
X154176533Y-84518169D01*
X154176534Y-84518167D01*
X154179837Y-84512446D01*
X154236610Y-84337716D01*
X154255814Y-84155000D01*
X154236610Y-83972284D01*
X154179837Y-83797554D01*
X154176533Y-83791831D01*
X154091277Y-83644164D01*
X154091274Y-83644159D01*
X154087975Y-83638446D01*
X153965041Y-83501914D01*
X153816407Y-83393925D01*
X153810379Y-83391241D01*
X153810377Y-83391240D01*
X153654599Y-83321883D01*
X153654597Y-83321883D01*
X153648568Y-83319198D01*
X153558714Y-83300099D01*
X153475318Y-83282372D01*
X153475314Y-83282372D01*
X153468861Y-83281000D01*
X153285139Y-83281000D01*
X153278686Y-83282372D01*
X153278682Y-83282372D01*
X153195286Y-83300099D01*
X153105432Y-83319198D01*
X153099403Y-83321883D01*
X153099401Y-83321883D01*
X152943623Y-83391240D01*
X152943621Y-83391241D01*
X152937593Y-83393925D01*
X152788959Y-83501914D01*
X152666025Y-83638446D01*
X152662726Y-83644159D01*
X152662723Y-83644164D01*
X152577467Y-83791831D01*
X152574163Y-83797554D01*
X152517390Y-83972284D01*
X152498186Y-84155000D01*
X151893000Y-84155000D01*
X151893000Y-81735000D01*
X152498186Y-81735000D01*
X152517390Y-81917716D01*
X152574163Y-82092446D01*
X152577466Y-82098167D01*
X152577467Y-82098169D01*
X152662723Y-82245836D01*
X152662726Y-82245841D01*
X152666025Y-82251554D01*
X152670443Y-82256461D01*
X152670444Y-82256462D01*
X152784537Y-82383175D01*
X152788959Y-82388086D01*
X152794301Y-82391967D01*
X152794303Y-82391969D01*
X152898574Y-82467726D01*
X152937593Y-82496075D01*
X152943621Y-82498759D01*
X152943623Y-82498760D01*
X153066454Y-82553448D01*
X153105432Y-82570802D01*
X153195286Y-82589901D01*
X153278682Y-82607628D01*
X153278686Y-82607628D01*
X153285139Y-82609000D01*
X153468861Y-82609000D01*
X153475314Y-82607628D01*
X153475318Y-82607628D01*
X153558714Y-82589901D01*
X153648568Y-82570802D01*
X153687546Y-82553448D01*
X153810377Y-82498760D01*
X153810379Y-82498759D01*
X153816407Y-82496075D01*
X153855426Y-82467726D01*
X153959697Y-82391969D01*
X153959699Y-82391967D01*
X153965041Y-82388086D01*
X153969463Y-82383175D01*
X154083556Y-82256462D01*
X154083557Y-82256461D01*
X154087975Y-82251554D01*
X154091274Y-82245841D01*
X154091277Y-82245836D01*
X154176533Y-82098169D01*
X154176534Y-82098167D01*
X154179837Y-82092446D01*
X154236610Y-81917716D01*
X154255814Y-81735000D01*
X154236610Y-81552284D01*
X154179837Y-81377554D01*
X154148073Y-81322537D01*
X154091277Y-81224164D01*
X154091274Y-81224159D01*
X154087975Y-81218446D01*
X154050906Y-81177276D01*
X153969463Y-81086825D01*
X153969462Y-81086824D01*
X153965041Y-81081914D01*
X153904635Y-81038026D01*
X153821749Y-80977806D01*
X153821748Y-80977805D01*
X153816407Y-80973925D01*
X153810379Y-80971241D01*
X153810377Y-80971240D01*
X153654599Y-80901883D01*
X153654597Y-80901883D01*
X153648568Y-80899198D01*
X153558714Y-80880099D01*
X153475318Y-80862372D01*
X153475314Y-80862372D01*
X153468861Y-80861000D01*
X153285139Y-80861000D01*
X153278686Y-80862372D01*
X153278682Y-80862372D01*
X153195286Y-80880099D01*
X153105432Y-80899198D01*
X153099403Y-80901883D01*
X153099401Y-80901883D01*
X152943623Y-80971240D01*
X152943621Y-80971241D01*
X152937593Y-80973925D01*
X152932252Y-80977805D01*
X152932251Y-80977806D01*
X152849366Y-81038026D01*
X152788959Y-81081914D01*
X152784538Y-81086824D01*
X152784537Y-81086825D01*
X152703095Y-81177276D01*
X152666025Y-81218446D01*
X152662726Y-81224159D01*
X152662723Y-81224164D01*
X152605927Y-81322537D01*
X152574163Y-81377554D01*
X152517390Y-81552284D01*
X152498186Y-81735000D01*
X151893000Y-81735000D01*
X151893000Y-79135000D01*
X152498186Y-79135000D01*
X152498876Y-79141565D01*
X152515027Y-79295229D01*
X152517390Y-79317716D01*
X152574163Y-79492446D01*
X152577466Y-79498167D01*
X152577467Y-79498169D01*
X152662723Y-79645836D01*
X152662726Y-79645841D01*
X152666025Y-79651554D01*
X152670443Y-79656461D01*
X152670444Y-79656462D01*
X152761419Y-79757500D01*
X152788959Y-79788086D01*
X152794301Y-79791967D01*
X152794303Y-79791969D01*
X152922801Y-79885328D01*
X152937593Y-79896075D01*
X152943621Y-79898759D01*
X152943623Y-79898760D01*
X153097773Y-79967392D01*
X153105432Y-79970802D01*
X153195286Y-79989901D01*
X153278682Y-80007628D01*
X153278686Y-80007628D01*
X153285139Y-80009000D01*
X153468861Y-80009000D01*
X153475314Y-80007628D01*
X153475318Y-80007628D01*
X153558714Y-79989901D01*
X153648568Y-79970802D01*
X153656227Y-79967392D01*
X153810377Y-79898760D01*
X153810379Y-79898759D01*
X153816407Y-79896075D01*
X153831199Y-79885328D01*
X153959697Y-79791969D01*
X153959699Y-79791967D01*
X153965041Y-79788086D01*
X153992581Y-79757500D01*
X154083556Y-79656462D01*
X154083557Y-79656461D01*
X154087975Y-79651554D01*
X154091274Y-79645841D01*
X154091277Y-79645836D01*
X154176533Y-79498169D01*
X154176534Y-79498167D01*
X154179837Y-79492446D01*
X154185648Y-79474563D01*
X154225719Y-79415959D01*
X154291116Y-79388321D01*
X154305480Y-79387500D01*
X156285714Y-79387500D01*
X156310296Y-79389921D01*
X156323000Y-79392448D01*
X156335170Y-79390027D01*
X156343747Y-79388321D01*
X156353766Y-79386328D01*
X156409347Y-79375272D01*
X156409349Y-79375271D01*
X156414437Y-79374259D01*
X156421521Y-79372850D01*
X156505043Y-79317043D01*
X156511935Y-79306728D01*
X156511937Y-79306726D01*
X156512241Y-79306271D01*
X156527911Y-79287178D01*
X158805454Y-77009635D01*
X158867766Y-76975609D01*
X158910995Y-76973808D01*
X158995812Y-76984974D01*
X159004000Y-76986052D01*
X159074595Y-76976758D01*
X159144743Y-76987697D01*
X159197842Y-77034825D01*
X159217032Y-77103179D01*
X159196221Y-77171057D01*
X159180136Y-77190775D01*
X159105822Y-77265089D01*
X159086729Y-77280759D01*
X159086274Y-77281063D01*
X159086272Y-77281065D01*
X159075957Y-77287957D01*
X159020150Y-77371479D01*
X159018515Y-77379700D01*
X159000552Y-77470000D01*
X159002973Y-77482170D01*
X159003079Y-77482703D01*
X159005500Y-77507286D01*
X159005500Y-78194714D01*
X159003079Y-78219296D01*
X159000552Y-78232000D01*
X159002973Y-78244170D01*
X159002973Y-78244174D01*
X159014163Y-78300424D01*
X159014164Y-78300427D01*
X159020150Y-78330521D01*
X159075957Y-78414043D01*
X159086272Y-78420935D01*
X159086274Y-78420937D01*
X159086729Y-78421241D01*
X159105822Y-78436911D01*
X161767408Y-81098497D01*
X161783078Y-81117590D01*
X161783382Y-81118045D01*
X161783384Y-81118047D01*
X161790276Y-81128362D01*
X161873798Y-81184169D01*
X161885968Y-81186590D01*
X161885971Y-81186591D01*
X161887171Y-81186830D01*
X161887171Y-81186829D01*
X161972319Y-81203767D01*
X161971486Y-81207957D01*
X162017092Y-81221348D01*
X162048934Y-81250642D01*
X162073581Y-81282763D01*
X162104101Y-81322537D01*
X162214293Y-81407090D01*
X162252136Y-81422765D01*
X162334984Y-81457082D01*
X162334987Y-81457083D01*
X162342614Y-81460242D01*
X162350802Y-81461320D01*
X162411466Y-81469306D01*
X162480319Y-81478371D01*
X162488507Y-81477293D01*
X162573324Y-81466127D01*
X162643473Y-81477067D01*
X162678865Y-81501954D01*
X163625089Y-82448178D01*
X163640759Y-82467271D01*
X163641063Y-82467726D01*
X163641065Y-82467728D01*
X163647957Y-82478043D01*
X163658273Y-82484936D01*
X163685500Y-82503128D01*
X163731479Y-82533850D01*
X163743650Y-82536271D01*
X163817297Y-82550921D01*
X163830000Y-82553448D01*
X163842704Y-82550921D01*
X163867286Y-82548500D01*
X167856714Y-82548500D01*
X167881296Y-82550921D01*
X167894000Y-82553448D01*
X167977214Y-82536895D01*
X167992521Y-82533850D01*
X168045038Y-82498760D01*
X168065727Y-82484936D01*
X168076043Y-82478043D01*
X168082935Y-82467728D01*
X168082937Y-82467726D01*
X168083241Y-82467271D01*
X168098911Y-82448178D01*
X170353556Y-80193533D01*
X170415868Y-80159507D01*
X170486683Y-80164572D01*
X170543519Y-80207119D01*
X170568330Y-80273639D01*
X170559059Y-80330847D01*
X170541738Y-80372662D01*
X170541737Y-80372667D01*
X170538577Y-80380295D01*
X170520448Y-80518000D01*
X170538577Y-80655705D01*
X170541736Y-80663332D01*
X170541737Y-80663335D01*
X170551922Y-80687923D01*
X170591729Y-80784026D01*
X170676282Y-80894218D01*
X170682828Y-80899241D01*
X170750704Y-80951324D01*
X170792571Y-81008662D01*
X170800000Y-81051287D01*
X170800000Y-83806721D01*
X170779998Y-83874842D01*
X170763095Y-83895816D01*
X167318316Y-87340595D01*
X167256004Y-87374621D01*
X167229221Y-87377500D01*
X163613286Y-87377500D01*
X163588703Y-87375079D01*
X163576000Y-87372552D01*
X163492786Y-87389105D01*
X163477479Y-87392150D01*
X163393957Y-87447957D01*
X163387065Y-87458272D01*
X163387063Y-87458274D01*
X163386759Y-87458729D01*
X163371089Y-87477822D01*
X162492316Y-88356595D01*
X162430004Y-88390621D01*
X162403221Y-88393500D01*
X162208779Y-88393500D01*
X162140658Y-88373498D01*
X162119684Y-88356595D01*
X161579405Y-87816316D01*
X161545379Y-87754004D01*
X161542500Y-87727221D01*
X161542500Y-86639287D01*
X161562502Y-86571166D01*
X161591796Y-86539324D01*
X161659672Y-86487241D01*
X161666218Y-86482218D01*
X161750771Y-86372026D01*
X161803923Y-86243705D01*
X161822052Y-86106000D01*
X161803923Y-85968295D01*
X161788575Y-85931240D01*
X161759846Y-85861883D01*
X161750771Y-85839974D01*
X161666218Y-85729782D01*
X161556026Y-85645229D01*
X161491865Y-85618653D01*
X161435335Y-85595237D01*
X161435332Y-85595236D01*
X161427705Y-85592077D01*
X161290000Y-85573948D01*
X161152295Y-85592077D01*
X161144668Y-85595236D01*
X161144665Y-85595237D01*
X161088135Y-85618653D01*
X161023974Y-85645229D01*
X160913782Y-85729782D01*
X160829229Y-85839974D01*
X160820154Y-85861883D01*
X160791426Y-85931240D01*
X160776077Y-85968295D01*
X160757948Y-86106000D01*
X160776077Y-86243705D01*
X160829229Y-86372026D01*
X160913782Y-86482218D01*
X160920328Y-86487241D01*
X160988204Y-86539324D01*
X161030071Y-86596662D01*
X161037500Y-86639287D01*
X161037500Y-87846714D01*
X161035079Y-87871296D01*
X161032552Y-87884000D01*
X161049105Y-87967214D01*
X161052150Y-87982521D01*
X161107957Y-88066043D01*
X161118272Y-88072935D01*
X161118274Y-88072937D01*
X161118729Y-88073241D01*
X161137822Y-88088911D01*
X161847089Y-88798178D01*
X161862759Y-88817271D01*
X161863063Y-88817726D01*
X161863065Y-88817728D01*
X161869957Y-88828043D01*
X161953479Y-88883850D01*
X161968786Y-88886895D01*
X162052000Y-88903448D01*
X162064704Y-88900921D01*
X162089286Y-88898500D01*
X162522714Y-88898500D01*
X162547296Y-88900921D01*
X162560000Y-88903448D01*
X162643214Y-88886895D01*
X162658521Y-88883850D01*
X162742043Y-88828043D01*
X162748935Y-88817728D01*
X162748937Y-88817726D01*
X162749241Y-88817271D01*
X162764911Y-88798178D01*
X163643684Y-87919405D01*
X163705996Y-87885379D01*
X163732779Y-87882500D01*
X166677997Y-87882500D01*
X166746118Y-87902502D01*
X166792611Y-87956158D01*
X166802715Y-88026432D01*
X166773221Y-88091012D01*
X166726215Y-88124909D01*
X166611974Y-88172229D01*
X166605423Y-88177256D01*
X166520562Y-88242372D01*
X166501782Y-88256782D01*
X166417229Y-88366974D01*
X166408909Y-88387060D01*
X166375870Y-88466825D01*
X166364077Y-88495295D01*
X166345948Y-88633000D01*
X166364077Y-88770705D01*
X166367236Y-88778332D01*
X166367237Y-88778335D01*
X166387827Y-88828043D01*
X166417229Y-88899026D01*
X166501782Y-89009218D01*
X166611974Y-89093771D01*
X166663226Y-89115000D01*
X166732665Y-89143763D01*
X166732668Y-89143764D01*
X166740295Y-89146923D01*
X166878000Y-89165052D01*
X166959518Y-89154320D01*
X167029665Y-89165259D01*
X167065058Y-89190147D01*
X169624365Y-91749454D01*
X169658391Y-91811766D01*
X169660192Y-91854995D01*
X169647948Y-91948000D01*
X169666077Y-92085705D01*
X169719229Y-92214026D01*
X169803782Y-92324218D01*
X169913974Y-92408771D01*
X169976732Y-92434766D01*
X170034665Y-92458763D01*
X170034668Y-92458764D01*
X170042295Y-92461923D01*
X170180000Y-92480052D01*
X170188188Y-92478974D01*
X170309517Y-92463001D01*
X170317705Y-92461923D01*
X170325332Y-92458764D01*
X170325335Y-92458763D01*
X170383268Y-92434766D01*
X170446026Y-92408771D01*
X170556218Y-92324218D01*
X170640771Y-92214026D01*
X170693923Y-92085705D01*
X170712052Y-91948000D01*
X170693923Y-91810295D01*
X170688321Y-91796769D01*
X170667347Y-91746134D01*
X170640771Y-91681974D01*
X170635744Y-91675423D01*
X170635742Y-91675419D01*
X170626084Y-91662832D01*
X170600485Y-91596611D01*
X170614751Y-91527063D01*
X170664353Y-91476268D01*
X170709602Y-91461208D01*
X170825705Y-91445923D01*
X170833332Y-91442764D01*
X170833335Y-91442763D01*
X170891205Y-91418792D01*
X170954026Y-91392771D01*
X171064218Y-91308218D01*
X171148771Y-91198026D01*
X171201923Y-91069705D01*
X171203001Y-91061517D01*
X171203793Y-91058561D01*
X171240744Y-90997938D01*
X171304605Y-90966916D01*
X171375099Y-90975344D01*
X171429846Y-91020546D01*
X171451500Y-91091171D01*
X171451500Y-99998714D01*
X171449079Y-100023296D01*
X171446552Y-100036000D01*
X171463105Y-100119214D01*
X171466150Y-100134521D01*
X171473044Y-100144838D01*
X171473044Y-100144839D01*
X171515064Y-100207727D01*
X171521957Y-100218043D01*
X171532272Y-100224935D01*
X171532274Y-100224937D01*
X171532729Y-100225241D01*
X171551822Y-100240911D01*
X172825095Y-101514184D01*
X172859121Y-101576496D01*
X172862000Y-101603279D01*
X172862000Y-102827058D01*
X172869398Y-102864248D01*
X172897578Y-102906422D01*
X172939752Y-102934602D01*
X172951922Y-102937023D01*
X172970877Y-102940794D01*
X172970882Y-102940794D01*
X172976942Y-102942000D01*
X174495058Y-102942000D01*
X174501118Y-102940794D01*
X174501123Y-102940794D01*
X174520078Y-102937023D01*
X174532248Y-102934602D01*
X174574422Y-102906422D01*
X174602602Y-102864248D01*
X174610000Y-102827058D01*
X174610000Y-101308942D01*
X174602602Y-101271752D01*
X174574422Y-101229578D01*
X174532248Y-101201398D01*
X174520078Y-101198977D01*
X174501123Y-101195206D01*
X174501118Y-101195206D01*
X174495058Y-101194000D01*
X173271279Y-101194000D01*
X173203158Y-101173998D01*
X173182184Y-101157095D01*
X172611866Y-100586777D01*
X173041777Y-100586777D01*
X173051074Y-100598793D01*
X173094069Y-100628898D01*
X173103555Y-100634376D01*
X173294993Y-100723645D01*
X173305285Y-100727391D01*
X173509309Y-100782059D01*
X173520104Y-100783962D01*
X173730525Y-100802372D01*
X173741475Y-100802372D01*
X173951896Y-100783962D01*
X173962691Y-100782059D01*
X174166715Y-100727391D01*
X174177007Y-100723645D01*
X174368445Y-100634376D01*
X174377931Y-100628898D01*
X174421764Y-100598207D01*
X174430139Y-100587729D01*
X174423071Y-100574281D01*
X173748812Y-99900022D01*
X173734868Y-99892408D01*
X173733035Y-99892539D01*
X173726420Y-99896790D01*
X173048207Y-100575003D01*
X173041777Y-100586777D01*
X172611866Y-100586777D01*
X171993405Y-99968316D01*
X171959379Y-99906004D01*
X171956500Y-99879221D01*
X171956500Y-99533475D01*
X172461628Y-99533475D01*
X172480038Y-99743896D01*
X172481941Y-99754691D01*
X172536609Y-99958715D01*
X172540355Y-99969007D01*
X172629623Y-100160441D01*
X172635103Y-100169932D01*
X172665794Y-100213765D01*
X172676271Y-100222140D01*
X172689718Y-100215072D01*
X173363978Y-99540812D01*
X173370356Y-99529132D01*
X174100408Y-99529132D01*
X174100539Y-99530965D01*
X174104790Y-99537580D01*
X174783003Y-100215793D01*
X174794777Y-100222223D01*
X174806793Y-100212926D01*
X174836897Y-100169932D01*
X174842377Y-100160441D01*
X174931645Y-99969007D01*
X174935391Y-99958715D01*
X174990059Y-99754691D01*
X174991962Y-99743896D01*
X175007479Y-99566542D01*
X175022012Y-99529391D01*
X175012104Y-99513974D01*
X175007479Y-99489458D01*
X174991962Y-99312104D01*
X174990059Y-99301309D01*
X174935391Y-99097285D01*
X174931645Y-99086993D01*
X174842377Y-98895559D01*
X174836897Y-98886068D01*
X174806206Y-98842235D01*
X174795729Y-98833860D01*
X174782282Y-98840928D01*
X174108022Y-99515188D01*
X174100408Y-99529132D01*
X173370356Y-99529132D01*
X173371592Y-99526868D01*
X173371461Y-99525035D01*
X173367210Y-99518420D01*
X172688997Y-98840207D01*
X172677223Y-98833777D01*
X172665207Y-98843074D01*
X172635103Y-98886068D01*
X172629623Y-98895559D01*
X172540355Y-99086993D01*
X172536609Y-99097285D01*
X172481941Y-99301309D01*
X172480038Y-99312104D01*
X172461628Y-99522525D01*
X172461628Y-99533475D01*
X171956500Y-99533475D01*
X171956500Y-98468271D01*
X173041860Y-98468271D01*
X173048928Y-98481718D01*
X173723188Y-99155978D01*
X173737132Y-99163592D01*
X173738965Y-99163461D01*
X173745580Y-99159210D01*
X174423793Y-98480997D01*
X174430223Y-98469223D01*
X174420926Y-98457207D01*
X174377931Y-98427102D01*
X174368445Y-98421624D01*
X174177007Y-98332355D01*
X174166715Y-98328609D01*
X173962691Y-98273941D01*
X173951896Y-98272038D01*
X173741475Y-98253628D01*
X173730525Y-98253628D01*
X173520104Y-98272038D01*
X173509309Y-98273941D01*
X173305285Y-98328609D01*
X173294993Y-98332355D01*
X173103559Y-98421623D01*
X173094068Y-98427103D01*
X173050235Y-98457794D01*
X173041860Y-98468271D01*
X171956500Y-98468271D01*
X171956500Y-96988000D01*
X172841600Y-96988000D01*
X172842290Y-96994565D01*
X172850752Y-97075070D01*
X172861145Y-97173956D01*
X172918925Y-97351785D01*
X173012415Y-97513715D01*
X173016833Y-97518622D01*
X173016834Y-97518623D01*
X173131674Y-97646165D01*
X173137530Y-97652669D01*
X173288800Y-97762573D01*
X173294828Y-97765257D01*
X173294830Y-97765258D01*
X173453584Y-97835940D01*
X173459615Y-97838625D01*
X173551063Y-97858063D01*
X173636053Y-97876128D01*
X173636057Y-97876128D01*
X173642510Y-97877500D01*
X173829490Y-97877500D01*
X173835943Y-97876128D01*
X173835947Y-97876128D01*
X173920937Y-97858063D01*
X174012385Y-97838625D01*
X174018416Y-97835940D01*
X174177170Y-97765258D01*
X174177172Y-97765257D01*
X174183200Y-97762573D01*
X174334470Y-97652669D01*
X174340327Y-97646165D01*
X174455166Y-97518623D01*
X174455167Y-97518622D01*
X174459585Y-97513715D01*
X174553075Y-97351785D01*
X174610855Y-97173956D01*
X174621249Y-97075070D01*
X174629710Y-96994565D01*
X174630400Y-96988000D01*
X174610855Y-96802044D01*
X174553075Y-96624215D01*
X174543707Y-96607988D01*
X174462888Y-96468006D01*
X174459585Y-96462285D01*
X174334470Y-96323331D01*
X174194387Y-96221555D01*
X174188542Y-96217308D01*
X174188541Y-96217307D01*
X174183200Y-96213427D01*
X174177172Y-96210743D01*
X174177170Y-96210742D01*
X174018416Y-96140060D01*
X174018414Y-96140060D01*
X174012385Y-96137375D01*
X173920937Y-96117937D01*
X173835947Y-96099872D01*
X173835943Y-96099872D01*
X173829490Y-96098500D01*
X173642510Y-96098500D01*
X173636057Y-96099872D01*
X173636053Y-96099872D01*
X173551063Y-96117937D01*
X173459615Y-96137375D01*
X173453586Y-96140060D01*
X173453584Y-96140060D01*
X173294830Y-96210742D01*
X173294828Y-96210743D01*
X173288800Y-96213427D01*
X173283459Y-96217307D01*
X173283458Y-96217308D01*
X173277613Y-96221555D01*
X173137530Y-96323331D01*
X173012415Y-96462285D01*
X173009112Y-96468006D01*
X172928294Y-96607988D01*
X172918925Y-96624215D01*
X172861145Y-96802044D01*
X172841600Y-96988000D01*
X171956500Y-96988000D01*
X171956500Y-95074058D01*
X172823000Y-95074058D01*
X172830398Y-95111248D01*
X172858578Y-95153422D01*
X172868894Y-95160315D01*
X172872823Y-95162940D01*
X172900752Y-95181602D01*
X172912922Y-95184023D01*
X172931877Y-95187794D01*
X172931882Y-95187794D01*
X172937942Y-95189000D01*
X174456058Y-95189000D01*
X174462118Y-95187794D01*
X174462123Y-95187794D01*
X174481078Y-95184023D01*
X174493248Y-95181602D01*
X174521178Y-95162940D01*
X174525106Y-95160315D01*
X174535422Y-95153422D01*
X174563602Y-95111248D01*
X174571000Y-95074058D01*
X174571000Y-93555942D01*
X174563602Y-93518752D01*
X174535422Y-93476578D01*
X174525106Y-93469685D01*
X174503566Y-93455292D01*
X174503565Y-93455291D01*
X174493248Y-93448398D01*
X174481078Y-93445977D01*
X174462123Y-93442206D01*
X174462118Y-93442206D01*
X174456058Y-93441000D01*
X172937942Y-93441000D01*
X172931882Y-93442206D01*
X172931877Y-93442206D01*
X172912922Y-93445977D01*
X172900752Y-93448398D01*
X172890435Y-93455291D01*
X172890434Y-93455292D01*
X172868894Y-93469685D01*
X172858578Y-93476578D01*
X172830398Y-93518752D01*
X172823000Y-93555942D01*
X172823000Y-95074058D01*
X171956500Y-95074058D01*
X171956500Y-92762648D01*
X173013906Y-92762648D01*
X173023202Y-92774664D01*
X173062849Y-92802424D01*
X173072335Y-92807902D01*
X173261312Y-92896022D01*
X173271608Y-92899770D01*
X173473016Y-92953738D01*
X173483803Y-92955640D01*
X173691525Y-92973813D01*
X173702475Y-92973813D01*
X173910197Y-92955640D01*
X173920984Y-92953738D01*
X174122392Y-92899770D01*
X174132688Y-92896022D01*
X174321665Y-92807902D01*
X174331151Y-92802424D01*
X174371636Y-92774077D01*
X174380011Y-92763600D01*
X174372942Y-92750152D01*
X173709812Y-92087022D01*
X173695868Y-92079408D01*
X173694035Y-92079539D01*
X173687420Y-92083790D01*
X173020336Y-92750874D01*
X173013906Y-92762648D01*
X171956500Y-92762648D01*
X171956500Y-91720475D01*
X172438187Y-91720475D01*
X172456360Y-91928197D01*
X172458262Y-91938984D01*
X172512230Y-92140392D01*
X172515978Y-92150688D01*
X172604098Y-92339665D01*
X172609576Y-92349151D01*
X172637923Y-92389636D01*
X172648400Y-92398011D01*
X172661848Y-92390942D01*
X173324978Y-91727812D01*
X173331356Y-91716132D01*
X174061408Y-91716132D01*
X174061539Y-91717965D01*
X174065790Y-91724580D01*
X174732874Y-92391664D01*
X174744648Y-92398094D01*
X174756664Y-92388798D01*
X174784424Y-92349151D01*
X174789902Y-92339665D01*
X174878022Y-92150688D01*
X174881770Y-92140392D01*
X174935738Y-91938984D01*
X174937640Y-91928197D01*
X174955813Y-91720475D01*
X174955813Y-91709525D01*
X174937640Y-91501803D01*
X174935738Y-91491016D01*
X174881770Y-91289608D01*
X174878022Y-91279312D01*
X174789902Y-91090335D01*
X174784424Y-91080849D01*
X174756077Y-91040364D01*
X174745600Y-91031989D01*
X174732152Y-91039058D01*
X174069022Y-91702188D01*
X174061408Y-91716132D01*
X173331356Y-91716132D01*
X173332592Y-91713868D01*
X173332461Y-91712035D01*
X173328210Y-91705420D01*
X172661126Y-91038336D01*
X172649352Y-91031906D01*
X172637336Y-91041202D01*
X172609576Y-91080849D01*
X172604098Y-91090335D01*
X172515978Y-91279312D01*
X172512230Y-91289608D01*
X172458262Y-91491016D01*
X172456360Y-91501803D01*
X172438187Y-91709525D01*
X172438187Y-91720475D01*
X171956500Y-91720475D01*
X171956500Y-90666400D01*
X173013989Y-90666400D01*
X173021058Y-90679848D01*
X173684188Y-91342978D01*
X173698132Y-91350592D01*
X173699965Y-91350461D01*
X173706580Y-91346210D01*
X174373664Y-90679126D01*
X174380094Y-90667352D01*
X174370798Y-90655336D01*
X174331151Y-90627576D01*
X174321665Y-90622098D01*
X174132688Y-90533978D01*
X174122392Y-90530230D01*
X173920984Y-90476262D01*
X173910197Y-90474360D01*
X173702475Y-90456187D01*
X173691525Y-90456187D01*
X173483803Y-90474360D01*
X173473016Y-90476262D01*
X173271608Y-90530230D01*
X173261312Y-90533978D01*
X173072335Y-90622098D01*
X173062849Y-90627576D01*
X173022364Y-90655923D01*
X173013989Y-90666400D01*
X171956500Y-90666400D01*
X171956500Y-89115000D01*
X172818186Y-89115000D01*
X172818876Y-89121565D01*
X172821655Y-89148001D01*
X172837390Y-89297716D01*
X172894163Y-89472446D01*
X172897466Y-89478167D01*
X172897467Y-89478169D01*
X172982723Y-89625836D01*
X172982726Y-89625841D01*
X172986025Y-89631554D01*
X173108959Y-89768086D01*
X173257593Y-89876075D01*
X173263621Y-89878759D01*
X173263623Y-89878760D01*
X173319298Y-89903548D01*
X173425432Y-89950802D01*
X173515286Y-89969901D01*
X173598682Y-89987628D01*
X173598686Y-89987628D01*
X173605139Y-89989000D01*
X173788861Y-89989000D01*
X173795314Y-89987628D01*
X173795318Y-89987628D01*
X173878715Y-89969901D01*
X173968568Y-89950802D01*
X174074702Y-89903548D01*
X174130377Y-89878760D01*
X174130379Y-89878759D01*
X174136407Y-89876075D01*
X174285041Y-89768086D01*
X174407975Y-89631554D01*
X174411274Y-89625841D01*
X174411277Y-89625836D01*
X174496533Y-89478169D01*
X174496534Y-89478167D01*
X174499837Y-89472446D01*
X174556610Y-89297716D01*
X174572346Y-89148001D01*
X174575124Y-89121565D01*
X174575814Y-89115000D01*
X174556610Y-88932284D01*
X174499837Y-88757554D01*
X174469135Y-88704377D01*
X174411277Y-88604164D01*
X174411274Y-88604159D01*
X174407975Y-88598446D01*
X174379168Y-88566452D01*
X174289463Y-88466825D01*
X174289462Y-88466824D01*
X174285041Y-88461914D01*
X174190878Y-88393500D01*
X174141749Y-88357806D01*
X174141748Y-88357805D01*
X174136407Y-88353925D01*
X174130379Y-88351241D01*
X174130377Y-88351240D01*
X173974599Y-88281883D01*
X173974597Y-88281883D01*
X173968568Y-88279198D01*
X173878714Y-88260099D01*
X173795318Y-88242372D01*
X173795314Y-88242372D01*
X173788861Y-88241000D01*
X173605139Y-88241000D01*
X173598686Y-88242372D01*
X173598682Y-88242372D01*
X173515286Y-88260099D01*
X173425432Y-88279198D01*
X173419403Y-88281883D01*
X173419401Y-88281883D01*
X173263623Y-88351240D01*
X173263621Y-88351241D01*
X173257593Y-88353925D01*
X173252252Y-88357805D01*
X173252251Y-88357806D01*
X173203123Y-88393500D01*
X173108959Y-88461914D01*
X173104538Y-88466824D01*
X173104537Y-88466825D01*
X173014833Y-88566452D01*
X172986025Y-88598446D01*
X172982726Y-88604159D01*
X172982723Y-88604164D01*
X172924865Y-88704377D01*
X172894163Y-88757554D01*
X172837390Y-88932284D01*
X172818186Y-89115000D01*
X171956500Y-89115000D01*
X171956500Y-86695000D01*
X172818186Y-86695000D01*
X172837390Y-86877716D01*
X172894163Y-87052446D01*
X172897466Y-87058167D01*
X172897467Y-87058169D01*
X172982723Y-87205836D01*
X172982726Y-87205841D01*
X172986025Y-87211554D01*
X173108959Y-87348086D01*
X173114301Y-87351967D01*
X173114303Y-87351969D01*
X173252251Y-87452194D01*
X173257593Y-87456075D01*
X173263621Y-87458759D01*
X173263623Y-87458760D01*
X173306437Y-87477822D01*
X173425432Y-87530802D01*
X173515286Y-87549901D01*
X173598682Y-87567628D01*
X173598686Y-87567628D01*
X173605139Y-87569000D01*
X173788861Y-87569000D01*
X173795314Y-87567628D01*
X173795318Y-87567628D01*
X173878714Y-87549901D01*
X173968568Y-87530802D01*
X174087563Y-87477822D01*
X174130377Y-87458760D01*
X174130379Y-87458759D01*
X174136407Y-87456075D01*
X174141749Y-87452194D01*
X174279697Y-87351969D01*
X174279699Y-87351967D01*
X174285041Y-87348086D01*
X174407975Y-87211554D01*
X174411274Y-87205841D01*
X174411277Y-87205836D01*
X174496533Y-87058169D01*
X174496534Y-87058167D01*
X174499837Y-87052446D01*
X174556610Y-86877716D01*
X174575814Y-86695000D01*
X174556610Y-86512284D01*
X174499837Y-86337554D01*
X174445653Y-86243705D01*
X174411277Y-86184164D01*
X174411274Y-86184159D01*
X174407975Y-86178446D01*
X174285041Y-86041914D01*
X174183714Y-85968295D01*
X174141749Y-85937806D01*
X174141748Y-85937805D01*
X174136407Y-85933925D01*
X174130379Y-85931241D01*
X174130377Y-85931240D01*
X173974599Y-85861883D01*
X173974597Y-85861883D01*
X173968568Y-85859198D01*
X173878126Y-85839974D01*
X173795318Y-85822372D01*
X173795314Y-85822372D01*
X173788861Y-85821000D01*
X173605139Y-85821000D01*
X173598686Y-85822372D01*
X173598682Y-85822372D01*
X173515874Y-85839974D01*
X173425432Y-85859198D01*
X173419403Y-85861883D01*
X173419401Y-85861883D01*
X173263623Y-85931240D01*
X173263621Y-85931241D01*
X173257593Y-85933925D01*
X173252252Y-85937805D01*
X173252251Y-85937806D01*
X173210287Y-85968295D01*
X173108959Y-86041914D01*
X172986025Y-86178446D01*
X172982726Y-86184159D01*
X172982723Y-86184164D01*
X172948347Y-86243705D01*
X172894163Y-86337554D01*
X172837390Y-86512284D01*
X172818186Y-86695000D01*
X171956500Y-86695000D01*
X171956500Y-84155000D01*
X172818186Y-84155000D01*
X172837390Y-84337716D01*
X172894163Y-84512446D01*
X172897466Y-84518167D01*
X172897467Y-84518169D01*
X172982723Y-84665836D01*
X172982726Y-84665841D01*
X172986025Y-84671554D01*
X173108959Y-84808086D01*
X173257593Y-84916075D01*
X173263621Y-84918759D01*
X173263623Y-84918760D01*
X173419401Y-84988117D01*
X173425432Y-84990802D01*
X173515285Y-85009901D01*
X173598682Y-85027628D01*
X173598686Y-85027628D01*
X173605139Y-85029000D01*
X173788861Y-85029000D01*
X173795314Y-85027628D01*
X173795318Y-85027628D01*
X173878715Y-85009901D01*
X173968568Y-84990802D01*
X173974599Y-84988117D01*
X174130377Y-84918760D01*
X174130379Y-84918759D01*
X174136407Y-84916075D01*
X174285041Y-84808086D01*
X174407975Y-84671554D01*
X174411274Y-84665841D01*
X174411277Y-84665836D01*
X174496533Y-84518169D01*
X174496534Y-84518167D01*
X174499837Y-84512446D01*
X174556610Y-84337716D01*
X174575814Y-84155000D01*
X174556610Y-83972284D01*
X174499837Y-83797554D01*
X174496533Y-83791831D01*
X174411277Y-83644164D01*
X174411274Y-83644159D01*
X174407975Y-83638446D01*
X174285041Y-83501914D01*
X174136407Y-83393925D01*
X174130379Y-83391241D01*
X174130377Y-83391240D01*
X173974599Y-83321883D01*
X173974597Y-83321883D01*
X173968568Y-83319198D01*
X173878714Y-83300099D01*
X173795318Y-83282372D01*
X173795314Y-83282372D01*
X173788861Y-83281000D01*
X173605139Y-83281000D01*
X173598686Y-83282372D01*
X173598682Y-83282372D01*
X173515286Y-83300099D01*
X173425432Y-83319198D01*
X173419403Y-83321883D01*
X173419401Y-83321883D01*
X173263623Y-83391240D01*
X173263621Y-83391241D01*
X173257593Y-83393925D01*
X173108959Y-83501914D01*
X172986025Y-83638446D01*
X172982726Y-83644159D01*
X172982723Y-83644164D01*
X172897467Y-83791831D01*
X172894163Y-83797554D01*
X172837390Y-83972284D01*
X172818186Y-84155000D01*
X171956500Y-84155000D01*
X171956500Y-81615000D01*
X172802600Y-81615000D01*
X172822145Y-81800956D01*
X172879925Y-81978785D01*
X172973415Y-82140715D01*
X172977833Y-82145622D01*
X172977834Y-82145623D01*
X173068067Y-82245836D01*
X173098530Y-82279669D01*
X173249800Y-82389573D01*
X173255828Y-82392257D01*
X173255830Y-82392258D01*
X173401146Y-82456957D01*
X173420615Y-82465625D01*
X173511467Y-82484936D01*
X173597053Y-82503128D01*
X173597057Y-82503128D01*
X173603510Y-82504500D01*
X173790490Y-82504500D01*
X173796943Y-82503128D01*
X173796947Y-82503128D01*
X173882533Y-82484936D01*
X173973385Y-82465625D01*
X173992854Y-82456957D01*
X174138170Y-82392258D01*
X174138172Y-82392257D01*
X174144200Y-82389573D01*
X174295470Y-82279669D01*
X174325934Y-82245836D01*
X174416166Y-82145623D01*
X174416167Y-82145622D01*
X174420585Y-82140715D01*
X174514075Y-81978785D01*
X174571855Y-81800956D01*
X174591400Y-81615000D01*
X174576926Y-81477293D01*
X174572545Y-81435608D01*
X174572545Y-81435607D01*
X174571855Y-81429044D01*
X174565749Y-81410250D01*
X174530892Y-81302974D01*
X174514075Y-81251215D01*
X174503427Y-81232771D01*
X174423888Y-81095006D01*
X174420585Y-81089285D01*
X174415848Y-81084024D01*
X174299885Y-80955234D01*
X174299883Y-80955233D01*
X174295470Y-80950331D01*
X174225151Y-80899241D01*
X174149542Y-80844308D01*
X174149541Y-80844307D01*
X174144200Y-80840427D01*
X174138172Y-80837743D01*
X174138170Y-80837742D01*
X173979416Y-80767060D01*
X173979414Y-80767060D01*
X173973385Y-80764375D01*
X173881937Y-80744937D01*
X173796947Y-80726872D01*
X173796943Y-80726872D01*
X173790490Y-80725500D01*
X173603510Y-80725500D01*
X173597057Y-80726872D01*
X173597053Y-80726872D01*
X173512063Y-80744937D01*
X173420615Y-80764375D01*
X173414586Y-80767060D01*
X173414584Y-80767060D01*
X173255830Y-80837742D01*
X173255828Y-80837743D01*
X173249800Y-80840427D01*
X173244459Y-80844307D01*
X173244458Y-80844308D01*
X173168849Y-80899241D01*
X173098530Y-80950331D01*
X173094117Y-80955233D01*
X173094115Y-80955234D01*
X172978152Y-81084024D01*
X172973415Y-81089285D01*
X172970112Y-81095006D01*
X172890574Y-81232771D01*
X172879925Y-81251215D01*
X172863108Y-81302974D01*
X172828252Y-81410250D01*
X172822145Y-81429044D01*
X172821455Y-81435607D01*
X172821455Y-81435608D01*
X172817074Y-81477293D01*
X172802600Y-81615000D01*
X171956500Y-81615000D01*
X171956500Y-79075000D01*
X172802600Y-79075000D01*
X172803290Y-79081565D01*
X172818369Y-79225026D01*
X172822145Y-79260956D01*
X172824185Y-79267234D01*
X172824185Y-79267235D01*
X172838455Y-79311153D01*
X172879925Y-79438785D01*
X172883228Y-79444507D01*
X172883229Y-79444508D01*
X172902536Y-79477948D01*
X172973415Y-79600715D01*
X172977833Y-79605622D01*
X172977834Y-79605623D01*
X173081356Y-79720595D01*
X173098530Y-79739669D01*
X173103869Y-79743548D01*
X173189735Y-79805933D01*
X173249800Y-79849573D01*
X173255828Y-79852257D01*
X173255830Y-79852258D01*
X173370993Y-79903532D01*
X173420615Y-79925625D01*
X173512062Y-79945062D01*
X173597053Y-79963128D01*
X173597057Y-79963128D01*
X173603510Y-79964500D01*
X173790490Y-79964500D01*
X173796943Y-79963128D01*
X173796947Y-79963128D01*
X173881938Y-79945062D01*
X173973385Y-79925625D01*
X174023007Y-79903532D01*
X174138170Y-79852258D01*
X174138172Y-79852257D01*
X174144200Y-79849573D01*
X174204266Y-79805933D01*
X174290131Y-79743548D01*
X174295470Y-79739669D01*
X174312645Y-79720595D01*
X174416166Y-79605623D01*
X174416167Y-79605622D01*
X174420585Y-79600715D01*
X174491464Y-79477948D01*
X174510771Y-79444508D01*
X174510772Y-79444507D01*
X174514075Y-79438785D01*
X174555545Y-79311153D01*
X174569815Y-79267235D01*
X174569815Y-79267234D01*
X174571855Y-79260956D01*
X174575632Y-79225026D01*
X174590710Y-79081565D01*
X174591400Y-79075000D01*
X174587893Y-79041635D01*
X174572545Y-78895608D01*
X174572545Y-78895607D01*
X174571855Y-78889044D01*
X174514075Y-78711215D01*
X174503427Y-78692771D01*
X174423888Y-78555006D01*
X174420585Y-78549285D01*
X174396157Y-78522155D01*
X174299885Y-78415234D01*
X174299883Y-78415233D01*
X174295470Y-78410331D01*
X174271557Y-78392957D01*
X174149542Y-78304308D01*
X174149541Y-78304307D01*
X174144200Y-78300427D01*
X174138172Y-78297743D01*
X174138170Y-78297742D01*
X173979416Y-78227060D01*
X173979414Y-78227060D01*
X173973385Y-78224375D01*
X173881937Y-78204937D01*
X173796947Y-78186872D01*
X173796943Y-78186872D01*
X173790490Y-78185500D01*
X173603510Y-78185500D01*
X173597057Y-78186872D01*
X173597053Y-78186872D01*
X173512063Y-78204937D01*
X173420615Y-78224375D01*
X173414586Y-78227060D01*
X173414584Y-78227060D01*
X173255830Y-78297742D01*
X173255828Y-78297743D01*
X173249800Y-78300427D01*
X173244459Y-78304307D01*
X173244458Y-78304308D01*
X173122443Y-78392957D01*
X173098530Y-78410331D01*
X173094117Y-78415233D01*
X173094115Y-78415234D01*
X172997843Y-78522155D01*
X172973415Y-78549285D01*
X172970112Y-78555006D01*
X172890574Y-78692771D01*
X172879925Y-78711215D01*
X172822145Y-78889044D01*
X172821455Y-78895607D01*
X172821455Y-78895608D01*
X172806107Y-79041635D01*
X172802600Y-79075000D01*
X171956500Y-79075000D01*
X171956500Y-76535000D01*
X172802600Y-76535000D01*
X172803290Y-76541565D01*
X172807410Y-76580759D01*
X172822145Y-76720956D01*
X172879925Y-76898785D01*
X172883228Y-76904507D01*
X172883229Y-76904508D01*
X172925028Y-76976906D01*
X172973415Y-77060715D01*
X172977833Y-77065622D01*
X172977834Y-77065623D01*
X173090522Y-77190775D01*
X173098530Y-77199669D01*
X173103869Y-77203548D01*
X173205551Y-77277424D01*
X173249800Y-77309573D01*
X173255828Y-77312257D01*
X173255830Y-77312258D01*
X173414584Y-77382940D01*
X173420615Y-77385625D01*
X173495782Y-77401602D01*
X173597053Y-77423128D01*
X173597057Y-77423128D01*
X173603510Y-77424500D01*
X173790490Y-77424500D01*
X173796943Y-77423128D01*
X173796947Y-77423128D01*
X173898218Y-77401602D01*
X173973385Y-77385625D01*
X173979416Y-77382940D01*
X174138170Y-77312258D01*
X174138172Y-77312257D01*
X174144200Y-77309573D01*
X174188450Y-77277424D01*
X174290131Y-77203548D01*
X174295470Y-77199669D01*
X174303479Y-77190775D01*
X174416166Y-77065623D01*
X174416167Y-77065622D01*
X174420585Y-77060715D01*
X174468972Y-76976906D01*
X174510771Y-76904508D01*
X174510772Y-76904507D01*
X174514075Y-76898785D01*
X174571855Y-76720956D01*
X174586591Y-76580759D01*
X174590710Y-76541565D01*
X174591400Y-76535000D01*
X174588379Y-76506256D01*
X174572545Y-76355608D01*
X174572545Y-76355607D01*
X174571855Y-76349044D01*
X174514075Y-76171215D01*
X174420585Y-76009285D01*
X174416166Y-76004377D01*
X174299885Y-75875234D01*
X174299883Y-75875233D01*
X174295470Y-75870331D01*
X174165555Y-75775942D01*
X174149542Y-75764308D01*
X174149541Y-75764307D01*
X174144200Y-75760427D01*
X174138172Y-75757743D01*
X174138170Y-75757742D01*
X173979416Y-75687060D01*
X173979414Y-75687060D01*
X173973385Y-75684375D01*
X173863413Y-75661000D01*
X173796947Y-75646872D01*
X173796943Y-75646872D01*
X173790490Y-75645500D01*
X173603510Y-75645500D01*
X173597057Y-75646872D01*
X173597053Y-75646872D01*
X173530587Y-75661000D01*
X173420615Y-75684375D01*
X173414586Y-75687060D01*
X173414584Y-75687060D01*
X173255830Y-75757742D01*
X173255828Y-75757743D01*
X173249800Y-75760427D01*
X173244459Y-75764307D01*
X173244458Y-75764308D01*
X173228445Y-75775942D01*
X173098530Y-75870331D01*
X173094117Y-75875233D01*
X173094115Y-75875234D01*
X172977834Y-76004377D01*
X172973415Y-76009285D01*
X172879925Y-76171215D01*
X172822145Y-76349044D01*
X172821455Y-76355607D01*
X172821455Y-76355608D01*
X172805621Y-76506256D01*
X172802600Y-76535000D01*
X171956500Y-76535000D01*
X171956500Y-73308779D01*
X171976502Y-73240658D01*
X171993405Y-73219684D01*
X173864178Y-71348911D01*
X173883271Y-71333241D01*
X173883726Y-71332937D01*
X173883728Y-71332935D01*
X173894043Y-71326043D01*
X173949850Y-71242521D01*
X173952895Y-71227214D01*
X173969448Y-71144000D01*
X173966921Y-71131296D01*
X173964500Y-71106714D01*
X173964500Y-70990000D01*
X173984502Y-70921879D01*
X174038158Y-70875386D01*
X174090500Y-70864000D01*
X174471058Y-70864000D01*
X174477118Y-70862794D01*
X174477123Y-70862794D01*
X174496078Y-70859023D01*
X174508248Y-70856602D01*
X174550422Y-70828422D01*
X174578602Y-70786248D01*
X174586000Y-70749058D01*
X174586000Y-69230942D01*
X174578602Y-69193752D01*
X174550422Y-69151578D01*
X174508248Y-69123398D01*
X174496078Y-69120977D01*
X174477123Y-69117206D01*
X174477118Y-69117206D01*
X174471058Y-69116000D01*
X172952942Y-69116000D01*
X172946882Y-69117206D01*
X172946877Y-69117206D01*
X172927922Y-69120977D01*
X172915752Y-69123398D01*
X172873578Y-69151578D01*
X172845398Y-69193752D01*
X172838000Y-69230942D01*
X172838000Y-70749058D01*
X172845398Y-70786248D01*
X172873578Y-70828422D01*
X172915752Y-70856602D01*
X172927922Y-70859023D01*
X172946877Y-70862794D01*
X172946882Y-70862794D01*
X172952942Y-70864000D01*
X173330721Y-70864000D01*
X173398842Y-70884002D01*
X173445335Y-70937658D01*
X173455439Y-71007932D01*
X173425945Y-71072512D01*
X173419816Y-71079095D01*
X171551822Y-72947089D01*
X171532729Y-72962759D01*
X171532274Y-72963063D01*
X171532272Y-72963065D01*
X171521957Y-72969957D01*
X171466150Y-73053479D01*
X171466150Y-73053480D01*
X171446552Y-73152000D01*
X171448973Y-73164170D01*
X171449079Y-73164703D01*
X171451500Y-73189286D01*
X171451500Y-79342829D01*
X171431498Y-79410950D01*
X171377842Y-79457443D01*
X171307568Y-79467547D01*
X171242988Y-79438053D01*
X171203793Y-79375439D01*
X171203001Y-79372483D01*
X171201923Y-79364295D01*
X171148771Y-79235974D01*
X171064218Y-79125782D01*
X170954026Y-79041229D01*
X170868512Y-79005808D01*
X170833335Y-78991237D01*
X170833332Y-78991236D01*
X170825705Y-78988077D01*
X170688000Y-78969948D01*
X170550295Y-78988077D01*
X170542668Y-78991236D01*
X170542665Y-78991237D01*
X170507488Y-79005808D01*
X170421974Y-79041229D01*
X170311782Y-79125782D01*
X170227229Y-79235974D01*
X170206020Y-79287178D01*
X170193371Y-79317716D01*
X170174077Y-79364295D01*
X170155948Y-79502000D01*
X170157026Y-79510188D01*
X170157026Y-79510189D01*
X170168192Y-79595006D01*
X170157252Y-79665155D01*
X170132365Y-79700547D01*
X169891101Y-79941811D01*
X169828789Y-79975837D01*
X169757974Y-79970772D01*
X169701138Y-79928225D01*
X169680300Y-79885328D01*
X169679000Y-79880478D01*
X169677923Y-79872295D01*
X169624771Y-79743974D01*
X169557621Y-79656462D01*
X169545241Y-79640328D01*
X169540218Y-79633782D01*
X169430026Y-79549229D01*
X169335775Y-79510189D01*
X169309335Y-79499237D01*
X169309332Y-79499236D01*
X169301705Y-79496077D01*
X169284501Y-79493812D01*
X169172188Y-79479026D01*
X169164000Y-79477948D01*
X169155812Y-79479026D01*
X169043500Y-79493812D01*
X169026295Y-79496077D01*
X169018668Y-79499236D01*
X169018665Y-79499237D01*
X168992225Y-79510189D01*
X168897974Y-79549229D01*
X168787782Y-79633782D01*
X168782759Y-79640328D01*
X168730676Y-79708204D01*
X168673338Y-79750071D01*
X168630713Y-79757500D01*
X167542779Y-79757500D01*
X167474658Y-79737498D01*
X167453684Y-79720595D01*
X166417635Y-78684546D01*
X166383609Y-78622234D01*
X166381808Y-78579005D01*
X166392974Y-78494188D01*
X166394052Y-78486000D01*
X166375923Y-78348295D01*
X166367273Y-78327410D01*
X166330652Y-78239001D01*
X166322771Y-78219974D01*
X166238218Y-78109782D01*
X166228082Y-78102004D01*
X166134577Y-78030256D01*
X166128026Y-78025229D01*
X166043038Y-77990026D01*
X166007335Y-77975237D01*
X166007332Y-77975236D01*
X165999705Y-77972077D01*
X165862000Y-77953948D01*
X165724295Y-77972077D01*
X165716668Y-77975236D01*
X165716665Y-77975237D01*
X165680962Y-77990026D01*
X165595974Y-78025229D01*
X165589423Y-78030256D01*
X165495919Y-78102004D01*
X165485782Y-78109782D01*
X165401229Y-78219974D01*
X165393348Y-78239001D01*
X165356728Y-78327410D01*
X165348077Y-78348295D01*
X165329948Y-78486000D01*
X165331026Y-78494188D01*
X165346739Y-78613538D01*
X165348077Y-78623705D01*
X165351236Y-78631332D01*
X165351237Y-78631335D01*
X165356005Y-78642846D01*
X165401229Y-78752026D01*
X165444825Y-78808842D01*
X165456676Y-78824286D01*
X165482276Y-78890506D01*
X165468011Y-78960055D01*
X165418410Y-79010851D01*
X165349220Y-79026767D01*
X165308495Y-79017399D01*
X165245335Y-78991237D01*
X165245332Y-78991236D01*
X165237705Y-78988077D01*
X165100000Y-78969948D01*
X164962295Y-78988077D01*
X164954668Y-78991236D01*
X164954665Y-78991237D01*
X164919488Y-79005808D01*
X164833974Y-79041229D01*
X164723782Y-79125782D01*
X164639229Y-79235974D01*
X164618020Y-79287178D01*
X164605371Y-79317716D01*
X164586077Y-79364295D01*
X164567948Y-79502000D01*
X164586077Y-79639705D01*
X164589236Y-79647332D01*
X164589237Y-79647335D01*
X164611278Y-79700546D01*
X164639229Y-79768026D01*
X164644256Y-79774577D01*
X164713386Y-79864669D01*
X164723782Y-79878218D01*
X164833974Y-79962771D01*
X164889929Y-79985948D01*
X164954665Y-80012763D01*
X164954668Y-80012764D01*
X164962295Y-80015923D01*
X164970483Y-80017001D01*
X165008652Y-80022026D01*
X165100000Y-80034052D01*
X165108188Y-80032974D01*
X165193005Y-80021808D01*
X165263154Y-80032748D01*
X165298546Y-80057635D01*
X166073686Y-80832775D01*
X166107712Y-80895087D01*
X166108524Y-80899742D01*
X166108999Y-80901514D01*
X166110077Y-80909705D01*
X166113236Y-80917332D01*
X166113237Y-80917335D01*
X166135565Y-80971240D01*
X166163229Y-81038026D01*
X166247782Y-81148218D01*
X166357974Y-81232771D01*
X166422135Y-81259347D01*
X166478665Y-81282763D01*
X166478668Y-81282764D01*
X166486295Y-81285923D01*
X166624000Y-81304052D01*
X166632188Y-81302974D01*
X166753517Y-81287001D01*
X166761705Y-81285923D01*
X166769332Y-81282764D01*
X166769335Y-81282763D01*
X166825866Y-81259347D01*
X166890026Y-81232771D01*
X167000218Y-81148218D01*
X167084771Y-81038026D01*
X167112435Y-80971240D01*
X167134763Y-80917335D01*
X167134764Y-80917332D01*
X167137923Y-80909705D01*
X167139848Y-80895087D01*
X167154974Y-80780188D01*
X167156052Y-80772000D01*
X167140742Y-80655705D01*
X167139001Y-80642483D01*
X167137923Y-80634295D01*
X167084771Y-80505974D01*
X167000218Y-80395782D01*
X166890026Y-80311229D01*
X166825865Y-80284653D01*
X166769335Y-80261237D01*
X166769332Y-80261236D01*
X166761705Y-80258077D01*
X166624000Y-80239948D01*
X166486295Y-80258077D01*
X166478667Y-80261237D01*
X166478662Y-80261238D01*
X166370943Y-80305856D01*
X166300353Y-80313445D01*
X166233631Y-80278542D01*
X165655635Y-79700546D01*
X165621609Y-79638234D01*
X165619808Y-79595005D01*
X165630974Y-79510188D01*
X165632052Y-79502000D01*
X165613923Y-79364295D01*
X165594630Y-79317716D01*
X165581980Y-79287178D01*
X165560771Y-79235974D01*
X165505324Y-79163714D01*
X165479724Y-79097494D01*
X165493989Y-79027945D01*
X165543590Y-78977149D01*
X165612780Y-78961233D01*
X165653505Y-78970601D01*
X165716665Y-78996763D01*
X165716668Y-78996764D01*
X165724295Y-78999923D01*
X165732483Y-79001001D01*
X165793148Y-79008988D01*
X165862000Y-79018052D01*
X165870188Y-79016974D01*
X165955005Y-79005808D01*
X166025154Y-79016748D01*
X166060546Y-79041635D01*
X167181089Y-80162178D01*
X167196759Y-80181271D01*
X167197063Y-80181726D01*
X167197065Y-80181728D01*
X167203957Y-80192043D01*
X167214272Y-80198935D01*
X167214276Y-80198939D01*
X167275651Y-80239948D01*
X167275653Y-80239948D01*
X167287479Y-80247850D01*
X167299648Y-80250271D01*
X167299649Y-80250271D01*
X167373829Y-80265026D01*
X167386000Y-80267447D01*
X167398171Y-80265026D01*
X167398172Y-80265026D01*
X167398700Y-80264921D01*
X167423281Y-80262500D01*
X168630713Y-80262500D01*
X168698834Y-80282502D01*
X168730676Y-80311796D01*
X168734098Y-80316256D01*
X168787782Y-80386218D01*
X168897974Y-80470771D01*
X169026295Y-80523923D01*
X169034478Y-80525000D01*
X169039328Y-80526300D01*
X169099950Y-80563251D01*
X169130972Y-80627112D01*
X169122542Y-80697607D01*
X169095811Y-80737101D01*
X168455357Y-81377554D01*
X167826316Y-82006595D01*
X167764004Y-82040621D01*
X167737221Y-82043500D01*
X163986779Y-82043500D01*
X163918658Y-82023498D01*
X163897684Y-82006595D01*
X163035954Y-81144865D01*
X163001928Y-81082553D01*
X163000127Y-81039324D01*
X163011293Y-80954507D01*
X163012371Y-80946319D01*
X162994242Y-80808614D01*
X162984058Y-80784026D01*
X162967666Y-80744453D01*
X162941090Y-80680293D01*
X162856537Y-80570101D01*
X162746345Y-80485548D01*
X162738715Y-80482387D01*
X162731564Y-80478259D01*
X162732835Y-80476057D01*
X162687499Y-80439525D01*
X162665077Y-80372162D01*
X162682634Y-80303370D01*
X162734595Y-80254991D01*
X162742779Y-80251253D01*
X162767469Y-80241026D01*
X162826026Y-80216771D01*
X162936218Y-80132218D01*
X163020771Y-80022026D01*
X163053997Y-79941811D01*
X163070763Y-79901335D01*
X163070764Y-79901332D01*
X163073923Y-79893705D01*
X163092052Y-79756000D01*
X163078948Y-79656462D01*
X163075001Y-79626483D01*
X163073923Y-79618295D01*
X163068675Y-79605623D01*
X163025752Y-79502000D01*
X163020771Y-79489974D01*
X162936218Y-79379782D01*
X162826026Y-79295229D01*
X162758442Y-79267235D01*
X162705335Y-79245237D01*
X162705332Y-79245236D01*
X162697705Y-79242077D01*
X162653004Y-79236192D01*
X162568188Y-79225026D01*
X162560000Y-79223948D01*
X162551812Y-79225026D01*
X162466995Y-79236192D01*
X162396846Y-79225252D01*
X162361454Y-79200365D01*
X161083635Y-77922546D01*
X161049609Y-77860234D01*
X161047808Y-77817007D01*
X161051005Y-77792722D01*
X161052388Y-77782212D01*
X161081109Y-77717285D01*
X161140373Y-77678193D01*
X161211365Y-77677346D01*
X161266405Y-77709562D01*
X161941021Y-78384178D01*
X161956691Y-78403271D01*
X161956995Y-78403726D01*
X161956996Y-78403727D01*
X161963889Y-78414043D01*
X161974205Y-78420936D01*
X161984975Y-78428132D01*
X162047411Y-78469850D01*
X162059582Y-78472271D01*
X162133229Y-78486921D01*
X162145932Y-78489448D01*
X162158636Y-78486921D01*
X162183218Y-78484500D01*
X163550713Y-78484500D01*
X163618834Y-78504502D01*
X163650676Y-78533796D01*
X163707782Y-78608218D01*
X163817974Y-78692771D01*
X163882135Y-78719347D01*
X163938665Y-78742763D01*
X163938668Y-78742764D01*
X163946295Y-78745923D01*
X164084000Y-78764052D01*
X164092188Y-78762974D01*
X164213517Y-78747001D01*
X164221705Y-78745923D01*
X164229332Y-78742764D01*
X164229335Y-78742763D01*
X164285865Y-78719347D01*
X164350026Y-78692771D01*
X164460218Y-78608218D01*
X164544771Y-78498026D01*
X164577708Y-78418509D01*
X164594763Y-78377335D01*
X164594764Y-78377332D01*
X164597923Y-78369705D01*
X164616052Y-78232000D01*
X164602622Y-78129989D01*
X164613561Y-78059842D01*
X164660689Y-78006743D01*
X164729043Y-77987553D01*
X164743985Y-77988622D01*
X164846000Y-78002052D01*
X164854188Y-78000974D01*
X164975517Y-77985001D01*
X164983705Y-77983923D01*
X164991332Y-77980764D01*
X164991335Y-77980763D01*
X165083480Y-77942595D01*
X165112026Y-77930771D01*
X165222218Y-77846218D01*
X165306771Y-77736026D01*
X165345652Y-77642158D01*
X165356763Y-77615335D01*
X165356764Y-77615332D01*
X165359923Y-77607705D01*
X165378052Y-77470000D01*
X165359923Y-77332295D01*
X165354449Y-77319078D01*
X165333347Y-77268135D01*
X165306771Y-77203974D01*
X165222218Y-77093782D01*
X165112026Y-77009229D01*
X165047866Y-76982653D01*
X164998005Y-76962000D01*
X167107948Y-76962000D01*
X167126077Y-77099705D01*
X167129236Y-77107332D01*
X167129237Y-77107335D01*
X167144442Y-77144043D01*
X167179229Y-77228026D01*
X167263782Y-77338218D01*
X167373974Y-77422771D01*
X167438134Y-77449347D01*
X167494665Y-77472763D01*
X167494668Y-77472764D01*
X167502295Y-77475923D01*
X167510483Y-77477001D01*
X167549746Y-77482170D01*
X167640000Y-77494052D01*
X167648188Y-77492974D01*
X167733005Y-77481808D01*
X167803154Y-77492748D01*
X167838546Y-77517635D01*
X168160776Y-77839865D01*
X168194802Y-77902177D01*
X168197681Y-77928960D01*
X168197681Y-78254894D01*
X168177679Y-78323015D01*
X168148385Y-78354857D01*
X168073963Y-78411963D01*
X167989410Y-78522155D01*
X167975803Y-78555006D01*
X167947157Y-78624164D01*
X167936258Y-78650476D01*
X167918129Y-78788181D01*
X167936258Y-78925886D01*
X167939417Y-78933513D01*
X167939418Y-78933516D01*
X167947192Y-78952284D01*
X167989410Y-79054207D01*
X168073963Y-79164399D01*
X168184155Y-79248952D01*
X168248315Y-79275528D01*
X168304846Y-79298944D01*
X168304849Y-79298945D01*
X168312476Y-79302104D01*
X168450181Y-79320233D01*
X168458369Y-79319155D01*
X168469300Y-79317716D01*
X168587886Y-79302104D01*
X168595513Y-79298945D01*
X168595516Y-79298944D01*
X168652047Y-79275528D01*
X168716207Y-79248952D01*
X168826399Y-79164399D01*
X168910952Y-79054207D01*
X168953170Y-78952284D01*
X168960944Y-78933516D01*
X168960945Y-78933513D01*
X168964104Y-78925886D01*
X168982233Y-78788181D01*
X168964104Y-78650476D01*
X168953206Y-78624164D01*
X168924559Y-78555006D01*
X168910952Y-78522155D01*
X168826399Y-78411963D01*
X168751977Y-78354857D01*
X168710110Y-78297519D01*
X168702681Y-78254894D01*
X168702681Y-77809467D01*
X168705102Y-77784884D01*
X168705208Y-77784351D01*
X168707629Y-77772181D01*
X168688031Y-77673661D01*
X168688031Y-77673660D01*
X168632224Y-77590138D01*
X168621909Y-77583246D01*
X168621907Y-77583244D01*
X168621452Y-77582940D01*
X168602359Y-77567270D01*
X168195635Y-77160546D01*
X168161609Y-77098234D01*
X168159808Y-77055005D01*
X168170974Y-76970188D01*
X168172052Y-76962000D01*
X168153923Y-76824295D01*
X168146968Y-76807502D01*
X168127347Y-76760135D01*
X168100771Y-76695974D01*
X168016218Y-76585782D01*
X167906026Y-76501229D01*
X167830994Y-76470150D01*
X167785335Y-76451237D01*
X167785332Y-76451236D01*
X167777705Y-76448077D01*
X167640000Y-76429948D01*
X167502295Y-76448077D01*
X167494668Y-76451236D01*
X167494665Y-76451237D01*
X167449006Y-76470150D01*
X167373974Y-76501229D01*
X167263782Y-76585782D01*
X167179229Y-76695974D01*
X167152653Y-76760135D01*
X167133033Y-76807502D01*
X167126077Y-76824295D01*
X167107948Y-76962000D01*
X164998005Y-76962000D01*
X164991335Y-76959237D01*
X164991332Y-76959236D01*
X164983705Y-76956077D01*
X164966501Y-76953812D01*
X164854188Y-76939026D01*
X164846000Y-76937948D01*
X164837812Y-76939026D01*
X164752995Y-76950192D01*
X164682846Y-76939252D01*
X164647454Y-76914365D01*
X164288911Y-76555822D01*
X164273241Y-76536729D01*
X164272937Y-76536274D01*
X164272935Y-76536272D01*
X164266043Y-76525957D01*
X164182521Y-76470150D01*
X164167214Y-76467105D01*
X164084000Y-76450552D01*
X164071297Y-76453079D01*
X164046714Y-76455500D01*
X162077287Y-76455500D01*
X162009166Y-76435498D01*
X161977324Y-76406204D01*
X161925241Y-76338328D01*
X161920218Y-76331782D01*
X161810026Y-76247229D01*
X161745865Y-76220653D01*
X161689335Y-76197237D01*
X161689332Y-76197236D01*
X161681705Y-76194077D01*
X161544000Y-76175948D01*
X161406295Y-76194077D01*
X161398668Y-76197236D01*
X161398665Y-76197237D01*
X161342135Y-76220653D01*
X161277974Y-76247229D01*
X161271423Y-76252256D01*
X161271418Y-76252259D01*
X161237204Y-76278512D01*
X161170984Y-76304113D01*
X161101435Y-76289848D01*
X161050639Y-76240247D01*
X161034500Y-76178550D01*
X161034500Y-74713286D01*
X161036921Y-74688703D01*
X161037027Y-74688170D01*
X161039448Y-74676000D01*
X165837948Y-74676000D01*
X165856077Y-74813705D01*
X165859236Y-74821332D01*
X165859237Y-74821335D01*
X165882653Y-74877866D01*
X165909229Y-74942026D01*
X165993782Y-75052218D01*
X166103974Y-75136771D01*
X166168135Y-75163347D01*
X166224665Y-75186763D01*
X166224668Y-75186764D01*
X166232295Y-75189923D01*
X166370000Y-75208052D01*
X166378188Y-75206974D01*
X166499517Y-75191001D01*
X166507705Y-75189923D01*
X166515332Y-75186764D01*
X166515335Y-75186763D01*
X166571865Y-75163347D01*
X166636026Y-75136771D01*
X166746218Y-75052218D01*
X166830771Y-74942026D01*
X166857347Y-74877866D01*
X166880763Y-74821335D01*
X166880764Y-74821332D01*
X166883923Y-74813705D01*
X166902052Y-74676000D01*
X166889808Y-74582995D01*
X166900748Y-74512846D01*
X166925635Y-74477454D01*
X168469684Y-72933405D01*
X168531996Y-72899379D01*
X168558779Y-72896500D01*
X170154713Y-72896500D01*
X170222834Y-72916502D01*
X170254676Y-72945796D01*
X170281131Y-72980273D01*
X170311782Y-73020218D01*
X170318328Y-73025241D01*
X170344442Y-73045279D01*
X170421974Y-73104771D01*
X170477929Y-73127948D01*
X170542665Y-73154763D01*
X170542668Y-73154764D01*
X170550295Y-73157923D01*
X170688000Y-73176052D01*
X170696188Y-73174974D01*
X170817517Y-73159001D01*
X170825705Y-73157923D01*
X170833332Y-73154764D01*
X170833335Y-73154763D01*
X170898071Y-73127948D01*
X170954026Y-73104771D01*
X171031558Y-73045279D01*
X171057672Y-73025241D01*
X171064218Y-73020218D01*
X171148771Y-72910026D01*
X171201923Y-72781705D01*
X171220052Y-72644000D01*
X171201923Y-72506295D01*
X171195929Y-72491822D01*
X171159439Y-72403730D01*
X171148771Y-72377974D01*
X171064218Y-72267782D01*
X170954026Y-72183229D01*
X170889865Y-72156653D01*
X170833335Y-72133237D01*
X170833332Y-72133236D01*
X170825705Y-72130077D01*
X170808501Y-72127812D01*
X170696188Y-72113026D01*
X170688000Y-72111948D01*
X170679812Y-72113026D01*
X170567500Y-72127812D01*
X170550295Y-72130077D01*
X170542668Y-72133236D01*
X170542665Y-72133237D01*
X170486135Y-72156653D01*
X170421974Y-72183229D01*
X170311782Y-72267782D01*
X170306759Y-72274328D01*
X170254676Y-72342204D01*
X170197338Y-72384071D01*
X170154713Y-72391500D01*
X168439286Y-72391500D01*
X168414703Y-72389079D01*
X168402000Y-72386552D01*
X168324212Y-72402026D01*
X168303479Y-72406150D01*
X168219957Y-72461957D01*
X168213065Y-72472272D01*
X168213063Y-72472274D01*
X168212759Y-72472729D01*
X168197089Y-72491822D01*
X166568546Y-74120365D01*
X166506234Y-74154391D01*
X166463005Y-74156192D01*
X166378188Y-74145026D01*
X166370000Y-74143948D01*
X166361812Y-74145026D01*
X166276997Y-74156192D01*
X166232295Y-74162077D01*
X166224668Y-74165236D01*
X166224665Y-74165237D01*
X166188614Y-74180170D01*
X166103974Y-74215229D01*
X165993782Y-74299782D01*
X165909229Y-74409974D01*
X165882653Y-74474134D01*
X165861680Y-74524769D01*
X165856077Y-74538295D01*
X165837948Y-74676000D01*
X161039448Y-74676000D01*
X161019850Y-74577480D01*
X161019850Y-74577479D01*
X160964043Y-74493957D01*
X160953728Y-74487065D01*
X160953726Y-74487063D01*
X160953271Y-74486759D01*
X160934178Y-74471089D01*
X159970911Y-73507822D01*
X159955241Y-73488729D01*
X159954937Y-73488274D01*
X159954935Y-73488272D01*
X159948043Y-73477957D01*
X159864521Y-73422150D01*
X159849214Y-73419105D01*
X159766000Y-73402552D01*
X159753297Y-73405079D01*
X159728714Y-73407500D01*
X159283287Y-73407500D01*
X159215166Y-73387498D01*
X159183324Y-73358204D01*
X159131241Y-73290328D01*
X159126218Y-73283782D01*
X159016026Y-73199229D01*
X158951866Y-73172653D01*
X158895335Y-73149237D01*
X158895332Y-73149236D01*
X158887705Y-73146077D01*
X158750000Y-73127948D01*
X158612295Y-73146077D01*
X158604668Y-73149236D01*
X158604665Y-73149237D01*
X158548134Y-73172653D01*
X158483974Y-73199229D01*
X158477423Y-73204256D01*
X158477418Y-73204259D01*
X158443204Y-73230512D01*
X158376984Y-73256113D01*
X158307435Y-73241848D01*
X158256639Y-73192247D01*
X158240500Y-73130550D01*
X158240500Y-72669287D01*
X158260502Y-72601166D01*
X158289796Y-72569324D01*
X158357672Y-72517241D01*
X158364218Y-72512218D01*
X158448771Y-72402026D01*
X158501923Y-72273705D01*
X158520052Y-72136000D01*
X158501923Y-71998295D01*
X158448771Y-71869974D01*
X158364218Y-71759782D01*
X158254026Y-71675229D01*
X158189865Y-71648653D01*
X158133335Y-71625237D01*
X158133332Y-71625236D01*
X158125705Y-71622077D01*
X157988000Y-71603948D01*
X157850295Y-71622077D01*
X157842668Y-71625236D01*
X157842665Y-71625237D01*
X157786134Y-71648653D01*
X157721974Y-71675229D01*
X157611782Y-71759782D01*
X157527229Y-71869974D01*
X157474077Y-71998295D01*
X157455948Y-72136000D01*
X157474077Y-72273705D01*
X157527229Y-72402026D01*
X157611782Y-72512218D01*
X157618328Y-72517241D01*
X157686204Y-72569324D01*
X157728071Y-72626662D01*
X157735500Y-72669287D01*
X157735500Y-74130714D01*
X157733079Y-74155296D01*
X157730552Y-74168000D01*
X157742063Y-74225866D01*
X157750150Y-74266521D01*
X157805957Y-74350043D01*
X157816272Y-74356935D01*
X157816274Y-74356937D01*
X157816729Y-74357241D01*
X157835822Y-74372911D01*
X159180136Y-75717225D01*
X159214162Y-75779537D01*
X159209097Y-75850352D01*
X159166550Y-75907188D01*
X159100030Y-75931999D01*
X159074596Y-75931242D01*
X159004000Y-75921948D01*
X158866295Y-75940077D01*
X158858668Y-75943236D01*
X158858665Y-75943237D01*
X158802134Y-75966653D01*
X158737974Y-75993229D01*
X158627782Y-76077782D01*
X158543229Y-76187974D01*
X158521577Y-76240247D01*
X158501032Y-76289848D01*
X158490077Y-76316295D01*
X158489599Y-76319927D01*
X158453756Y-76378732D01*
X158389896Y-76409754D01*
X158319401Y-76401326D01*
X158264654Y-76356124D01*
X158248514Y-76320782D01*
X158247923Y-76316295D01*
X158236969Y-76289848D01*
X158216423Y-76240247D01*
X158194771Y-76187974D01*
X158110218Y-76077782D01*
X158000026Y-75993229D01*
X157935866Y-75966653D01*
X157879335Y-75943237D01*
X157879332Y-75943236D01*
X157871705Y-75940077D01*
X157734000Y-75921948D01*
X157596295Y-75940077D01*
X157588668Y-75943236D01*
X157588665Y-75943237D01*
X157532134Y-75966653D01*
X157467974Y-75993229D01*
X157357782Y-76077782D01*
X157273229Y-76187974D01*
X157270069Y-76195604D01*
X157266292Y-76204721D01*
X157221742Y-76260001D01*
X157149884Y-76282500D01*
X154377000Y-76282500D01*
X154308879Y-76262498D01*
X154262386Y-76208842D01*
X154251000Y-76156500D01*
X154251000Y-75775942D01*
X154243602Y-75738752D01*
X154215422Y-75696578D01*
X154205106Y-75689685D01*
X154183566Y-75675292D01*
X154183565Y-75675291D01*
X154173248Y-75668398D01*
X154161078Y-75665977D01*
X154142123Y-75662206D01*
X154142118Y-75662206D01*
X154136058Y-75661000D01*
X152617942Y-75661000D01*
X152611882Y-75662206D01*
X152611877Y-75662206D01*
X152592922Y-75665977D01*
X152580752Y-75668398D01*
X152570435Y-75675291D01*
X152570434Y-75675292D01*
X152548894Y-75689685D01*
X152538578Y-75696578D01*
X152510398Y-75738752D01*
X152503000Y-75775942D01*
X152503000Y-77294058D01*
X152510398Y-77331248D01*
X152517291Y-77341565D01*
X152517292Y-77341566D01*
X152521446Y-77347782D01*
X152538578Y-77373422D01*
X152548894Y-77380315D01*
X152552823Y-77382940D01*
X152580752Y-77401602D01*
X152592922Y-77404023D01*
X152611877Y-77407794D01*
X152611882Y-77407794D01*
X152617942Y-77409000D01*
X154136058Y-77409000D01*
X154142118Y-77407794D01*
X154142123Y-77407794D01*
X154161078Y-77404023D01*
X154173248Y-77401602D01*
X154201178Y-77382940D01*
X154205106Y-77380315D01*
X154215422Y-77373422D01*
X154232554Y-77347782D01*
X154236708Y-77341566D01*
X154236709Y-77341565D01*
X154243602Y-77331248D01*
X154251000Y-77294058D01*
X154251000Y-76913500D01*
X154271002Y-76845379D01*
X154324658Y-76798886D01*
X154377000Y-76787500D01*
X157264398Y-76787500D01*
X157332519Y-76807502D01*
X157353043Y-76824042D01*
X157357782Y-76830218D01*
X157364332Y-76835244D01*
X157364333Y-76835245D01*
X157377540Y-76845379D01*
X157467974Y-76914771D01*
X157491991Y-76924719D01*
X157588665Y-76964763D01*
X157588668Y-76964764D01*
X157596295Y-76967923D01*
X157604483Y-76969001D01*
X157642652Y-76974026D01*
X157734000Y-76986052D01*
X157804595Y-76976758D01*
X157874743Y-76987697D01*
X157927842Y-77034825D01*
X157947032Y-77103179D01*
X157926221Y-77171057D01*
X157910136Y-77190775D01*
X156255316Y-78845595D01*
X156193004Y-78879621D01*
X156166221Y-78882500D01*
X154305480Y-78882500D01*
X154237359Y-78862498D01*
X154190866Y-78808842D01*
X154185651Y-78795449D01*
X154179837Y-78777554D01*
X154168881Y-78758577D01*
X154091277Y-78624164D01*
X154091274Y-78624159D01*
X154087975Y-78618446D01*
X154083289Y-78613241D01*
X153969463Y-78486825D01*
X153969462Y-78486824D01*
X153965041Y-78481914D01*
X153959396Y-78477812D01*
X153821749Y-78377806D01*
X153821748Y-78377805D01*
X153816407Y-78373925D01*
X153810379Y-78371241D01*
X153810377Y-78371240D01*
X153654599Y-78301883D01*
X153654597Y-78301883D01*
X153648568Y-78299198D01*
X153556532Y-78279635D01*
X153475318Y-78262372D01*
X153475314Y-78262372D01*
X153468861Y-78261000D01*
X153285139Y-78261000D01*
X153278686Y-78262372D01*
X153278682Y-78262372D01*
X153197468Y-78279635D01*
X153105432Y-78299198D01*
X153099403Y-78301883D01*
X153099401Y-78301883D01*
X152943623Y-78371240D01*
X152943621Y-78371241D01*
X152937593Y-78373925D01*
X152932252Y-78377805D01*
X152932251Y-78377806D01*
X152794605Y-78477812D01*
X152788959Y-78481914D01*
X152784538Y-78486824D01*
X152784537Y-78486825D01*
X152670712Y-78613241D01*
X152666025Y-78618446D01*
X152662726Y-78624159D01*
X152662723Y-78624164D01*
X152585119Y-78758577D01*
X152574163Y-78777554D01*
X152517390Y-78952284D01*
X152516700Y-78958845D01*
X152516700Y-78958847D01*
X152505989Y-79060758D01*
X152498186Y-79135000D01*
X151893000Y-79135000D01*
X151893000Y-68437648D01*
X173028906Y-68437648D01*
X173038202Y-68449664D01*
X173077849Y-68477424D01*
X173087335Y-68482902D01*
X173276312Y-68571022D01*
X173286608Y-68574770D01*
X173488016Y-68628738D01*
X173498803Y-68630640D01*
X173706525Y-68648813D01*
X173717475Y-68648813D01*
X173925197Y-68630640D01*
X173935984Y-68628738D01*
X174137392Y-68574770D01*
X174147688Y-68571022D01*
X174336665Y-68482902D01*
X174346151Y-68477424D01*
X174386636Y-68449077D01*
X174395011Y-68438600D01*
X174387942Y-68425152D01*
X173724812Y-67762022D01*
X173710868Y-67754408D01*
X173709035Y-67754539D01*
X173702420Y-67758790D01*
X173035336Y-68425874D01*
X173028906Y-68437648D01*
X151893000Y-68437648D01*
X151893000Y-67395475D01*
X172453187Y-67395475D01*
X172471360Y-67603197D01*
X172473262Y-67613984D01*
X172527230Y-67815392D01*
X172530978Y-67825688D01*
X172619098Y-68014665D01*
X172624576Y-68024151D01*
X172652923Y-68064636D01*
X172663400Y-68073011D01*
X172676848Y-68065942D01*
X173339978Y-67402812D01*
X173346356Y-67391132D01*
X174076408Y-67391132D01*
X174076539Y-67392965D01*
X174080790Y-67399580D01*
X174747874Y-68066664D01*
X174759648Y-68073094D01*
X174771664Y-68063798D01*
X174799424Y-68024151D01*
X174804902Y-68014665D01*
X174893022Y-67825688D01*
X174896770Y-67815392D01*
X174950738Y-67613984D01*
X174952640Y-67603197D01*
X174970813Y-67395475D01*
X174970813Y-67384525D01*
X174952640Y-67176803D01*
X174950738Y-67166016D01*
X174896770Y-66964608D01*
X174893022Y-66954312D01*
X174804902Y-66765335D01*
X174799424Y-66755849D01*
X174771077Y-66715364D01*
X174760600Y-66706989D01*
X174747152Y-66714058D01*
X174084022Y-67377188D01*
X174076408Y-67391132D01*
X173346356Y-67391132D01*
X173347592Y-67388868D01*
X173347461Y-67387035D01*
X173343210Y-67380420D01*
X172676126Y-66713336D01*
X172664352Y-66706906D01*
X172652336Y-66716202D01*
X172624576Y-66755849D01*
X172619098Y-66765335D01*
X172530978Y-66954312D01*
X172527230Y-66964608D01*
X172473262Y-67166016D01*
X172471360Y-67176803D01*
X172453187Y-67384525D01*
X172453187Y-67395475D01*
X151893000Y-67395475D01*
X151893000Y-66341400D01*
X173028989Y-66341400D01*
X173036058Y-66354848D01*
X173699188Y-67017978D01*
X173713132Y-67025592D01*
X173714965Y-67025461D01*
X173721580Y-67021210D01*
X174388664Y-66354126D01*
X174395094Y-66342352D01*
X174385798Y-66330336D01*
X174346151Y-66302576D01*
X174336665Y-66297098D01*
X174147688Y-66208978D01*
X174137392Y-66205230D01*
X173935984Y-66151262D01*
X173925197Y-66149360D01*
X173717475Y-66131187D01*
X173706525Y-66131187D01*
X173498803Y-66149360D01*
X173488016Y-66151262D01*
X173286608Y-66205230D01*
X173276312Y-66208978D01*
X173087335Y-66297098D01*
X173077849Y-66302576D01*
X173037364Y-66330923D01*
X173028989Y-66341400D01*
X151893000Y-66341400D01*
X151893000Y-65404000D01*
X151913002Y-65335879D01*
X151966658Y-65289386D01*
X152019000Y-65278000D01*
X172919217Y-65278000D01*
X172987338Y-65298002D01*
G37*
%TD.AperFunction*%
%TA.AperFunction,Conductor*%
G36*
X171369532Y-84111297D02*
G01*
X171426368Y-84153844D01*
X171451179Y-84220364D01*
X171451500Y-84229353D01*
X171451500Y-90772829D01*
X171431498Y-90840950D01*
X171377842Y-90887443D01*
X171307568Y-90897547D01*
X171242988Y-90868053D01*
X171203793Y-90805439D01*
X171203001Y-90802483D01*
X171201923Y-90794295D01*
X171148771Y-90665974D01*
X171064218Y-90555782D01*
X170954026Y-90471229D01*
X170889866Y-90444653D01*
X170833335Y-90421237D01*
X170833332Y-90421236D01*
X170825705Y-90418077D01*
X170781004Y-90412192D01*
X170696188Y-90401026D01*
X170688000Y-90399948D01*
X170679812Y-90401026D01*
X170594995Y-90412192D01*
X170524846Y-90401252D01*
X170489454Y-90376365D01*
X167832184Y-87719095D01*
X167798158Y-87656783D01*
X167803223Y-87585968D01*
X167832184Y-87540905D01*
X171204678Y-84168411D01*
X171223771Y-84152741D01*
X171224226Y-84152437D01*
X171224228Y-84152435D01*
X171234543Y-84145543D01*
X171239033Y-84138823D01*
X171298717Y-84106232D01*
X171369532Y-84111297D01*
G37*
%TD.AperFunction*%
%TD*%
M02*
