M48
; DRILL file {KiCad 6.0.11+dfsg-1} date Tue 25 Mar 2025 10:52:12 PM EDT
; FORMAT={-:-/ absolute / inch / decimal}
; #@! TF.CreationDate,2025-03-25T22:52:12-04:00
; #@! TF.GenerationSoftware,Kicad,Pcbnew,6.0.11+dfsg-1
; #@! TF.FileFunction,Plated,1,2,PTH
FMAT,2
INCH
; #@! TA.AperFunction,Plated,PTH,ViaDrill
T1C0.0157
; #@! TA.AperFunction,Plated,PTH,ComponentDrill
T2C0.0300
; #@! TA.AperFunction,Plated,PTH,ComponentDrill
T3C0.0378
; #@! TA.AperFunction,Plated,PTH,ComponentDrill
T4C0.0433
%
G90
G05
T1
X6.07Y-2.6
X6.1Y-2.9
X6.1Y-3.06
X6.11Y-3.73
X6.14Y-3.91
X6.14Y-3.99
X6.21Y-3.01
X6.22Y-2.84
X6.24Y-3.13
X6.25Y-2.66
X6.25Y-2.9
X6.26Y-3.01
X6.3Y-3.51
X6.32Y-3.06
X6.35Y-3.39
X6.36Y-3.02
X6.38Y-2.74
X6.38Y-2.82
X6.3969Y-3.1869
X6.4Y-3.14
X6.42Y-3.62
X6.46Y-2.74
X6.46Y-2.82
X6.46Y-3.08
X6.46Y-3.41
X6.49Y-3.05
X6.5Y-3.13
X6.52Y-3.91
X6.52Y-4.0
X6.53Y-3.09
X6.55Y-2.94
X6.55Y-3.32
X6.56Y-3.18
X6.57Y-2.86
X6.57Y-3.4895
X6.57Y-3.55
X6.58Y-2.66
X6.6Y-3.03
X6.61Y-2.92
X6.6319Y-3.1019
X6.64Y-3.29
X6.66Y-3.15
X6.66Y-3.68
X6.7Y-2.64
X6.7Y-3.5
X6.7Y-3.62
X6.71Y-3.41
X6.72Y-2.86
X6.72Y-3.13
X6.72Y-3.58
X6.7344Y-3.17
X6.76Y-2.83
X6.79Y-3.76
X6.79Y-3.86
X6.82Y-2.9
T2
X6.0385Y-3.5132
X6.0385Y-3.6132
X6.0385Y-3.7132
X6.8385Y-3.0132
X6.8385Y-3.1132
X6.8385Y-3.2132
X6.84Y-3.8184
X6.84Y-3.9184
T3
X6.0385Y-3.0132
X6.0385Y-3.1156
X6.0385Y-3.2179
X6.0385Y-3.3132
X6.0385Y-3.4132
X6.8385Y-3.3132
X6.8385Y-3.4132
X6.8385Y-3.5085
X6.8385Y-3.6108
X6.8385Y-3.7132
X6.8391Y-2.4555
X6.8391Y-2.5508
X6.8391Y-2.6531
X6.8391Y-2.7555
X6.84Y-4.0184
T4
X6.0514Y-3.822
X6.0514Y-4.078
X6.2286Y-3.822
X6.2286Y-4.078
X6.4314Y-3.822
X6.4314Y-4.078
X6.6086Y-3.822
X6.6086Y-4.078
T0
M30
