%TF.GenerationSoftware,KiCad,Pcbnew,6.0.11+dfsg-1*%
%TF.CreationDate,2025-03-25T22:52:09-04:00*%
%TF.ProjectId,esp_with_imu,6573705f-7769-4746-985f-696d752e6b69,rev?*%
%TF.SameCoordinates,Original*%
%TF.FileFunction,Paste,Top*%
%TF.FilePolarity,Positive*%
%FSLAX46Y46*%
G04 Gerber Fmt 4.6, Leading zero omitted, Abs format (unit mm)*
G04 Created by KiCad (PCBNEW 6.0.11+dfsg-1) date 2025-03-25 22:52:09*
%MOMM*%
%LPD*%
G01*
G04 APERTURE LIST*
G04 Aperture macros list*
%AMRoundRect*
0 Rectangle with rounded corners*
0 $1 Rounding radius*
0 $2 $3 $4 $5 $6 $7 $8 $9 X,Y pos of 4 corners*
0 Add a 4 corners polygon primitive as box body*
4,1,4,$2,$3,$4,$5,$6,$7,$8,$9,$2,$3,0*
0 Add four circle primitives for the rounded corners*
1,1,$1+$1,$2,$3*
1,1,$1+$1,$4,$5*
1,1,$1+$1,$6,$7*
1,1,$1+$1,$8,$9*
0 Add four rect primitives between the rounded corners*
20,1,$1+$1,$2,$3,$4,$5,0*
20,1,$1+$1,$4,$5,$6,$7,0*
20,1,$1+$1,$6,$7,$8,$9,0*
20,1,$1+$1,$8,$9,$2,$3,0*%
G04 Aperture macros list end*
%ADD10R,0.250000X0.475000*%
%ADD11R,0.475000X0.250000*%
%ADD12RoundRect,0.237500X0.237500X-0.287500X0.237500X0.287500X-0.237500X0.287500X-0.237500X-0.287500X0*%
%ADD13RoundRect,0.225000X-0.225000X-0.250000X0.225000X-0.250000X0.225000X0.250000X-0.225000X0.250000X0*%
%ADD14RoundRect,0.225000X-0.250000X0.225000X-0.250000X-0.225000X0.250000X-0.225000X0.250000X0.225000X0*%
%ADD15RoundRect,0.200000X0.200000X0.275000X-0.200000X0.275000X-0.200000X-0.275000X0.200000X-0.275000X0*%
%ADD16RoundRect,0.200000X0.275000X-0.200000X0.275000X0.200000X-0.275000X0.200000X-0.275000X-0.200000X0*%
%ADD17RoundRect,0.225000X0.250000X-0.225000X0.250000X0.225000X-0.250000X0.225000X-0.250000X-0.225000X0*%
%ADD18R,0.800000X0.400000*%
%ADD19R,0.400000X0.800000*%
%ADD20R,1.450000X1.450000*%
%ADD21R,0.700000X0.700000*%
%ADD22RoundRect,0.225000X0.225000X0.250000X-0.225000X0.250000X-0.225000X-0.250000X0.225000X-0.250000X0*%
%ADD23RoundRect,0.200000X-0.200000X-0.275000X0.200000X-0.275000X0.200000X0.275000X-0.200000X0.275000X0*%
G04 APERTURE END LIST*
D10*
%TO.C,U3*%
X164096000Y-85744500D03*
X164596000Y-85744500D03*
X165096000Y-85744500D03*
X165596000Y-85744500D03*
D11*
X165758500Y-85082000D03*
X165758500Y-84582000D03*
X165758500Y-84082000D03*
D10*
X165596000Y-83419500D03*
X165096000Y-83419500D03*
X164596000Y-83419500D03*
X164096000Y-83419500D03*
D11*
X163933500Y-84082000D03*
X163933500Y-84582000D03*
X163933500Y-85082000D03*
%TD*%
D12*
%TO.C,D1*%
X158242000Y-89013000D03*
X158242000Y-87263000D03*
%TD*%
D13*
%TO.C,C7*%
X164325000Y-93980000D03*
X165875000Y-93980000D03*
%TD*%
D14*
%TO.C,C4*%
X170942000Y-101079000D03*
X170942000Y-102629000D03*
%TD*%
D15*
%TO.C,R1*%
X158539000Y-92730000D03*
X156889000Y-92730000D03*
%TD*%
D13*
%TO.C,C9*%
X164084000Y-89408000D03*
X165634000Y-89408000D03*
%TD*%
D15*
%TO.C,R6*%
X166159000Y-81808000D03*
X164509000Y-81808000D03*
%TD*%
D16*
%TO.C,R5*%
X162286000Y-87165000D03*
X162286000Y-85515000D03*
%TD*%
D13*
%TO.C,C6*%
X156959000Y-94742000D03*
X158509000Y-94742000D03*
%TD*%
D16*
%TO.C,R4*%
X160254000Y-87165000D03*
X160254000Y-85515000D03*
%TD*%
D13*
%TO.C,C1*%
X153403000Y-70612000D03*
X154953000Y-70612000D03*
%TD*%
D17*
%TO.C,C5*%
X170942000Y-98565000D03*
X170942000Y-97015000D03*
%TD*%
D18*
%TO.C,esp32c3*%
X157168000Y-66518000D03*
X157168000Y-67318000D03*
X157168000Y-68118000D03*
X157168000Y-68918000D03*
X157168000Y-69718000D03*
X157168000Y-70518000D03*
X157168000Y-71318000D03*
X157168000Y-72118000D03*
X157168000Y-72918000D03*
X157168000Y-73718000D03*
X157168000Y-74518000D03*
D19*
X158268000Y-75418000D03*
X159068000Y-75418000D03*
X159868000Y-75418000D03*
X160668000Y-75418000D03*
X161468000Y-75418000D03*
X162268000Y-75418000D03*
X163068000Y-75418000D03*
X163868000Y-75418000D03*
X164668000Y-75418000D03*
X165468000Y-75418000D03*
X166268000Y-75418000D03*
X167068000Y-75418000D03*
X167868000Y-75418000D03*
D18*
X168968000Y-74518000D03*
X168968000Y-73718000D03*
X168968000Y-72918000D03*
X168968000Y-72118000D03*
X168968000Y-71318000D03*
X168968000Y-70518000D03*
X168968000Y-69718000D03*
X168968000Y-68918000D03*
X168968000Y-68118000D03*
X168968000Y-67318000D03*
X168968000Y-66518000D03*
D19*
X167868000Y-65618000D03*
X167068000Y-65618000D03*
X166268000Y-65618000D03*
X165468000Y-65618000D03*
X164668000Y-65618000D03*
X163868000Y-65618000D03*
X163068000Y-65618000D03*
X162268000Y-65618000D03*
X161468000Y-65618000D03*
X160668000Y-65618000D03*
X159868000Y-65618000D03*
X159068000Y-65618000D03*
X158268000Y-65618000D03*
D20*
X163068000Y-70518000D03*
D21*
X168968000Y-65618000D03*
X168968000Y-75418000D03*
X157168000Y-75418000D03*
X157168000Y-65618000D03*
D20*
X161093000Y-70518000D03*
X161093000Y-72493000D03*
X163068000Y-72493000D03*
X165043000Y-72493000D03*
X165043000Y-70518000D03*
X165043000Y-68543000D03*
X163068000Y-68543000D03*
X161093000Y-68543000D03*
%TD*%
D17*
%TO.C,C3*%
X154940000Y-68847000D03*
X154940000Y-67297000D03*
%TD*%
%TO.C,C2*%
X153416000Y-68847000D03*
X153416000Y-67297000D03*
%TD*%
D16*
%TO.C,R3*%
X158222000Y-85641000D03*
X158222000Y-83991000D03*
%TD*%
D22*
%TO.C,C8*%
X165621000Y-87376000D03*
X164071000Y-87376000D03*
%TD*%
D23*
%TO.C,R2*%
X166073000Y-92182000D03*
X167723000Y-92182000D03*
%TD*%
M02*
