%TF.GenerationSoftware,KiCad,Pcbnew,6.0.11+dfsg-1*%
%TF.CreationDate,2025-03-14T20:35:24-04:00*%
%TF.ProjectId,quadcopter,71756164-636f-4707-9465-722e6b696361,rev?*%
%TF.SameCoordinates,Original*%
%TF.FileFunction,Copper,L2,Bot*%
%TF.FilePolarity,Positive*%
%FSLAX46Y46*%
G04 Gerber Fmt 4.6, Leading zero omitted, Abs format (unit mm)*
G04 Created by KiCad (PCBNEW 6.0.11+dfsg-1) date 2025-03-14 20:35:24*
%MOMM*%
%LPD*%
G01*
G04 APERTURE LIST*
G04 Aperture macros list*
%AMRoundRect*
0 Rectangle with rounded corners*
0 $1 Rounding radius*
0 $2 $3 $4 $5 $6 $7 $8 $9 X,Y pos of 4 corners*
0 Add a 4 corners polygon primitive as box body*
4,1,4,$2,$3,$4,$5,$6,$7,$8,$9,$2,$3,0*
0 Add four circle primitives for the rounded corners*
1,1,$1+$1,$2,$3*
1,1,$1+$1,$4,$5*
1,1,$1+$1,$6,$7*
1,1,$1+$1,$8,$9*
0 Add four rect primitives between the rounded corners*
20,1,$1+$1,$2,$3,$4,$5,0*
20,1,$1+$1,$4,$5,$6,$7,0*
20,1,$1+$1,$6,$7,$8,$9,0*
20,1,$1+$1,$8,$9,$2,$3,0*%
%AMFreePoly0*
4,1,48,0.657385,0.758754,0.662055,0.759085,0.664566,0.757713,0.671070,0.756770,0.697342,0.739806,0.724803,0.724803,1.359803,0.089802,1.381610,0.060599,1.383542,0.051625,1.389035,0.044269,1.390951,0.017212,1.396659,-0.009302,1.393437,-0.017898,1.394085,-0.027054,1.381082,-0.050854,1.371560,-0.076254,1.364204,-0.081747,1.359803,-0.089802,0.724803,-0.724803,0.706679,-0.738336,
0.703611,-0.741872,0.700866,-0.742677,0.695599,-0.746610,0.665023,-0.753192,0.635000,-0.762000,0.000000,-0.762000,-0.006861,-0.761005,-0.015958,-0.761833,-0.184344,-0.739365,-0.343569,-0.680150,-0.485717,-0.587131,-0.603725,-0.464931,-0.691726,-0.319622,-0.745348,-0.158429,-0.761926,0.010639,-0.740634,0.179178,-0.682532,0.338812,-0.590508,0.481606,-0.469134,0.600464,-0.324444,0.689478,
-0.163628,0.744224,-0.021304,0.759183,-0.017894,0.760733,-0.013128,0.760042,-0.003071,0.761099,0.000000,0.762000,0.635000,0.762000,0.657385,0.758754,0.657385,0.758754,$1*%
%AMFreePoly1*
4,1,49,0.002312,0.761665,0.005320,0.761981,0.174003,0.741867,0.334039,0.684881,0.477472,0.593856,0.597174,0.473315,0.687196,0.329249,0.743064,0.168820,0.762000,0.000000,0.761703,-0.021276,0.738060,-0.189502,0.677735,-0.348309,0.583726,-0.489804,0.460705,-0.606956,0.314786,-0.693941,0.153221,-0.746436,0.023340,-0.758256,0.017894,-0.760733,0.009500,-0.759516,0.008003,-0.759652,
0.000000,-0.762000,-0.635000,-0.762000,-0.657384,-0.758754,-0.662054,-0.759085,-0.664565,-0.757713,-0.671070,-0.756770,-0.697347,-0.739803,-0.724802,-0.724803,-1.359803,-0.089803,-1.381610,-0.060599,-1.383542,-0.051624,-1.389035,-0.044268,-1.390951,-0.017209,-1.396658,0.009301,-1.393436,0.017895,-1.394085,0.027055,-1.381079,0.050860,-1.371560,0.076254,-1.364205,0.081746,-1.359803,0.089803,
-0.724802,0.724803,-0.706680,0.738336,-0.703611,0.741872,-0.700865,0.742678,-0.695599,0.746610,-0.665018,0.753194,-0.635000,0.762000,0.000000,0.762000,0.002312,0.761665,0.002312,0.761665,$1*%
%AMFreePoly2*
4,1,20,0.635000,0.000000,0.634861,-0.013298,0.613363,-0.164350,0.556455,-0.305914,0.467422,-0.429816,0.351404,-0.528905,0.215099,-0.597459,0.066376,-0.631521,-0.086179,-0.629125,-0.233759,-0.590408,-0.367844,-0.517606,-0.480692,-0.414922,-0.565789,-0.288284,-0.618223,-0.145003,-0.634231,0.000000,-0.635000,0.000000,-0.635000,1.905000,0.000000,1.270000,0.635000,1.905000,0.635000,0.000000,
0.635000,0.000000,$1*%
%AMFreePoly3*
4,1,20,0.635000,1.270000,0.635000,0.000000,0.634861,-0.013298,0.613363,-0.164350,0.556455,-0.305914,0.467422,-0.429816,0.351404,-0.528905,0.215099,-0.597459,0.066376,-0.631521,-0.086179,-0.629125,-0.233759,-0.590408,-0.367844,-0.517606,-0.480692,-0.414922,-0.565789,-0.288284,-0.618223,-0.145003,-0.634231,0.000000,-0.635000,0.000000,-0.635000,1.270000,0.000000,1.905000,0.635000,1.270000,
0.635000,1.270000,$1*%
G04 Aperture macros list end*
%TA.AperFunction,ComponentPad*%
%ADD10C,1.524000*%
%TD*%
%TA.AperFunction,ComponentPad*%
%ADD11FreePoly0,0.000000*%
%TD*%
%TA.AperFunction,ComponentPad*%
%ADD12RoundRect,0.381000X-0.381000X-0.381000X0.381000X-0.381000X0.381000X0.381000X-0.381000X0.381000X0*%
%TD*%
%TA.AperFunction,ComponentPad*%
%ADD13FreePoly1,0.000000*%
%TD*%
%TA.AperFunction,ComponentPad*%
%ADD14FreePoly2,90.000000*%
%TD*%
%TA.AperFunction,ComponentPad*%
%ADD15FreePoly3,90.000000*%
%TD*%
%TA.AperFunction,ComponentPad*%
%ADD16R,1.493000X1.493000*%
%TD*%
%TA.AperFunction,ComponentPad*%
%ADD17C,1.493000*%
%TD*%
%TA.AperFunction,ComponentPad*%
%ADD18C,1.600000*%
%TD*%
%TA.AperFunction,ComponentPad*%
%ADD19O,1.600000X1.600000*%
%TD*%
%TA.AperFunction,ComponentPad*%
%ADD20R,1.600000X1.600000*%
%TD*%
%TA.AperFunction,ComponentPad*%
%ADD21C,1.247000*%
%TD*%
%TA.AperFunction,ViaPad*%
%ADD22C,0.800000*%
%TD*%
%TA.AperFunction,Conductor*%
%ADD23C,0.250000*%
%TD*%
G04 APERTURE END LIST*
D10*
%TO.P,U3,1,RST*%
%TO.N,unconnected-(U3-Pad1)*%
X141039759Y-69525000D03*
D11*
%TO.P,U3,2,3V3*%
%TO.N,+3.3V*%
X141039759Y-72065000D03*
D10*
%TO.P,U3,3,N/C*%
%TO.N,unconnected-(U3-Pad3)*%
X141039759Y-74605000D03*
D12*
%TO.P,U3,4,GND*%
%TO.N,GND*%
X141039759Y-77145000D03*
D10*
%TO.P,U3,5,A0/GPIO0*%
%TO.N,pwm_frontleft*%
X141039759Y-79685000D03*
%TO.P,U3,6,A1/GPIO1*%
%TO.N,pwm_frontright*%
X141039759Y-82225000D03*
%TO.P,U3,7,A2/GPIO2*%
%TO.N,pwm_backleft*%
X141039759Y-84765000D03*
%TO.P,U3,8,A3/GPIO3*%
%TO.N,pwm_backright*%
X141039759Y-87305000D03*
%TO.P,U3,9,A4/GPIO5*%
%TO.N,unconnected-(U3-Pad9)*%
X141039759Y-89845000D03*
%TO.P,U3,10,A5/GPIO4*%
%TO.N,unconnected-(U3-Pad10)*%
X141039759Y-92385000D03*
%TO.P,U3,11,GPIO6*%
%TO.N,unconnected-(U3-Pad11)*%
X141039759Y-94925000D03*
%TO.P,U3,12,GPIO7*%
%TO.N,Net-(U1-Pad4)*%
X141039759Y-97465000D03*
%TO.P,U3,13,GPIO8*%
%TO.N,Net-(U1-Pad3)*%
X141039759Y-100005000D03*
%TO.P,U3,14,TXD/GPIO21*%
%TO.N,unconnected-(U3-Pad14)*%
X141039759Y-102545000D03*
%TO.P,U3,15,RXD/GPIO20*%
%TO.N,unconnected-(U3-Pad15)*%
X141039759Y-105085000D03*
%TO.P,U3,16,BOOT/GPIO9*%
%TO.N,unconnected-(U3-Pad16)*%
X141039759Y-107625000D03*
%TO.P,U3,17,SDA/GPIO10*%
%TO.N,unconnected-(U3-Pad17)*%
X161359759Y-107625000D03*
%TO.P,U3,18,SCL/GPIO8*%
%TO.N,unconnected-(U3-Pad18)*%
X161359759Y-105085000D03*
%TO.P,U3,19,USB_D+/GPIO19*%
%TO.N,unconnected-(U3-Pad19)*%
X161359759Y-102545000D03*
%TO.P,U3,20,USB_D-/GPIO18*%
%TO.N,unconnected-(U3-Pad20)*%
X161359759Y-100005000D03*
%TO.P,U3,21,SPIQ/GPIO17*%
%TO.N,unconnected-(U3-Pad21)*%
X161359759Y-97465000D03*
%TO.P,U3,22,SPID/GPIO16*%
%TO.N,unconnected-(U3-Pad22)*%
X161359759Y-94925000D03*
%TO.P,U3,23,SPICLK/GPIO15*%
%TO.N,unconnected-(U3-Pad23)*%
X161359759Y-92385000D03*
%TO.P,U3,24,SPIWP/GPIO13*%
%TO.N,unconnected-(U3-Pad24)*%
X161359759Y-89845000D03*
%TO.P,U3,25,SPIHD/GPIO12*%
%TO.N,unconnected-(U3-Pad25)*%
X161359759Y-87305000D03*
D13*
%TO.P,U3,26,VBUS*%
%TO.N,unconnected-(U3-Pad26)*%
X161359759Y-84765000D03*
D10*
%TO.P,U3,27,ENABLE*%
%TO.N,unconnected-(U3-Pad27)*%
X161359759Y-82225000D03*
D13*
%TO.P,U3,28,VBAT*%
%TO.N,unconnected-(U3-Pad28)*%
X161359759Y-79685000D03*
D14*
%TO.P,U3,29,BAT-*%
%TO.N,unconnected-(U3-Pad29)*%
X161359759Y-113975000D03*
D15*
%TO.P,U3,30,BAT+*%
%TO.N,unconnected-(U3-Pad30)*%
X161359759Y-111435000D03*
%TD*%
D16*
%TO.P,U11,1*%
%TO.N,Net-(D3-Pad1)*%
X165765000Y-63500000D03*
D17*
%TO.P,U11,2*%
%TO.N,Net-(D3-Pad2)*%
X165765000Y-60900000D03*
%TD*%
D18*
%TO.P,R20,1*%
%TO.N,+BATT*%
X164465000Y-95885000D03*
D19*
%TO.P,R20,2*%
%TO.N,Net-(D4-Pad1)*%
X164465000Y-108585000D03*
%TD*%
D20*
%TO.P,C1,1*%
%TO.N,+3.3V*%
X141369315Y-53340000D03*
D18*
%TO.P,C1,2*%
%TO.N,GND*%
X143869315Y-53340000D03*
%TD*%
%TO.P,R7,1*%
%TO.N,+BATT*%
X137795000Y-80010000D03*
D19*
%TO.P,R7,2*%
%TO.N,Net-(R5-Pad2)*%
X137795000Y-67310000D03*
%TD*%
D21*
%TO.P,U13,1,VOUT*%
%TO.N,+3.3V*%
X148868500Y-51776000D03*
%TO.P,U13,2,GND*%
%TO.N,GND*%
X151368500Y-51776000D03*
%TO.P,U13,3,VIN*%
%TO.N,+BATT*%
X153868500Y-51776000D03*
%TD*%
D18*
%TO.P,R10,1*%
%TO.N,+BATT*%
X137795000Y-97155000D03*
D19*
%TO.P,R10,2*%
%TO.N,Net-(D2-Pad1)*%
X137795000Y-109855000D03*
%TD*%
D18*
%TO.P,R17,1*%
%TO.N,+BATT*%
X164465000Y-80010000D03*
D19*
%TO.P,R17,2*%
%TO.N,Net-(D3-Pad1)*%
X164465000Y-67310000D03*
%TD*%
D20*
%TO.P,C2,1*%
%TO.N,GND*%
X158405484Y-53340000D03*
D18*
%TO.P,C2,2*%
%TO.N,+BATT*%
X160905484Y-53340000D03*
%TD*%
D16*
%TO.P,U8,1*%
%TO.N,Net-(D2-Pad1)*%
X136555000Y-117271500D03*
D17*
%TO.P,U8,2*%
%TO.N,Net-(D2-Pad2)*%
X136555000Y-114671500D03*
%TD*%
D16*
%TO.P,U12,1*%
%TO.N,Net-(D4-Pad1)*%
X165765000Y-116636500D03*
D17*
%TO.P,U12,2*%
%TO.N,Net-(D4-Pad2)*%
X165765000Y-114036500D03*
%TD*%
D16*
%TO.P,U2,1*%
%TO.N,unconnected-(U2-Pad1)*%
X148193500Y-46355000D03*
D10*
%TO.P,U2,2*%
%TO.N,+BATT*%
X150733500Y-46355000D03*
%TO.P,U2,3*%
%TO.N,Net-(U2-Pad3)*%
X153273500Y-46355000D03*
%TD*%
D16*
%TO.P,U4,1*%
%TO.N,GND*%
X157683500Y-47370000D03*
D17*
%TO.P,U4,2*%
%TO.N,Net-(U2-Pad3)*%
X160283500Y-47370000D03*
%TD*%
D16*
%TO.P,U1,1*%
%TO.N,+3.3V*%
X141506759Y-125945000D03*
D17*
%TO.P,U1,2*%
%TO.N,GND*%
X144106759Y-125945000D03*
%TO.P,U1,3*%
%TO.N,Net-(U1-Pad3)*%
X146706759Y-125945000D03*
%TO.P,U1,4*%
%TO.N,Net-(U1-Pad4)*%
X149126759Y-125945000D03*
%TO.P,U1,5*%
%TO.N,unconnected-(U1-Pad5)*%
X151666759Y-125945000D03*
D10*
%TO.P,U1,6*%
%TO.N,unconnected-(U1-Pad6)*%
X154206759Y-125945000D03*
%TO.P,U1,7*%
%TO.N,GND*%
X156746759Y-125945000D03*
%TO.P,U1,8*%
%TO.N,unconnected-(U1-Pad8)*%
X159286759Y-125945000D03*
%TD*%
D16*
%TO.P,U7,1*%
%TO.N,Net-(R5-Pad2)*%
X136555000Y-63500000D03*
D17*
%TO.P,U7,2*%
%TO.N,Net-(U5-Pad3)*%
X136555000Y-60900000D03*
%TD*%
D22*
%TO.N,+3.3V*%
X141605000Y-119380000D03*
%TO.N,pwm_backright*%
X151130000Y-97790000D03*
%TO.N,pwm_backleft*%
X149860000Y-110490000D03*
%TO.N,pwm_frontleft*%
X149860000Y-62230000D03*
%TO.N,pwm_frontright*%
X153670000Y-63500000D03*
%TO.N,+BATT*%
X156210000Y-65405000D03*
X155575000Y-118745000D03*
X145415000Y-118110000D03*
X146685000Y-65405000D03*
%TO.N,pwm_backright*%
X152400000Y-110490000D03*
%TD*%
D23*
%TO.N,+3.3V*%
X141605000Y-119380000D02*
X141605000Y-111760000D01*
X141605000Y-111760000D02*
X139065000Y-109220000D01*
X139065000Y-109220000D02*
X139065000Y-73660000D01*
X139065000Y-73660000D02*
X140660000Y-72065000D01*
X140660000Y-72065000D02*
X141039759Y-72065000D01*
%TO.N,pwm_backright*%
X151130000Y-97790000D02*
X151130000Y-109220000D01*
X151130000Y-109220000D02*
X152400000Y-110490000D01*
%TO.N,pwm_backleft*%
X141039759Y-84765000D02*
X149860000Y-93585241D01*
X149860000Y-93585241D02*
X149860000Y-110490000D01*
%TO.N,pwm_frontleft*%
X149860000Y-70864759D02*
X149860000Y-62230000D01*
X141039759Y-79685000D02*
X149860000Y-70864759D01*
%TO.N,pwm_frontright*%
X153670000Y-69594759D02*
X153670000Y-63500000D01*
X141039759Y-82225000D02*
X153670000Y-69594759D01*
%TO.N,+3.3V*%
X141039759Y-72065000D02*
X141050305Y-72065000D01*
X142933315Y-51776000D02*
X141369315Y-53340000D01*
X141050305Y-72065000D02*
X148868500Y-64246805D01*
X148868500Y-51776000D02*
X142933315Y-51776000D01*
X148868500Y-64246805D02*
X148868500Y-51776000D01*
%TO.N,Net-(U1-Pad3)*%
X146706759Y-125945000D02*
X146706759Y-105672000D01*
X146706759Y-105672000D02*
X141039759Y-100005000D01*
%TO.N,Net-(U1-Pad4)*%
X149126759Y-105552000D02*
X141039759Y-97465000D01*
X149126759Y-125945000D02*
X149126759Y-105552000D01*
%TO.N,Net-(U2-Pad3)*%
X159212000Y-46298500D02*
X153330000Y-46298500D01*
X160283500Y-47370000D02*
X159212000Y-46298500D01*
X153330000Y-46298500D02*
X153273500Y-46355000D01*
%TD*%
%TA.AperFunction,Conductor*%
%TO.N,+BATT*%
G36*
X147020062Y-45105002D02*
G01*
X147066555Y-45158658D01*
X147076659Y-45228932D01*
X147052767Y-45286565D01*
X146996385Y-45361795D01*
X146945255Y-45498184D01*
X146938500Y-45560366D01*
X146938500Y-47149634D01*
X146945255Y-47211816D01*
X146996385Y-47348205D01*
X147083739Y-47464761D01*
X147200295Y-47552115D01*
X147336684Y-47603245D01*
X147398866Y-47610000D01*
X148988134Y-47610000D01*
X149050316Y-47603245D01*
X149186705Y-47552115D01*
X149303261Y-47464761D01*
X149341471Y-47413777D01*
X150039277Y-47413777D01*
X150048574Y-47425793D01*
X150091569Y-47455898D01*
X150101055Y-47461376D01*
X150292493Y-47550645D01*
X150302785Y-47554391D01*
X150506809Y-47609059D01*
X150517604Y-47610962D01*
X150728025Y-47629372D01*
X150738975Y-47629372D01*
X150949396Y-47610962D01*
X150960191Y-47609059D01*
X151164215Y-47554391D01*
X151174507Y-47550645D01*
X151365945Y-47461376D01*
X151375431Y-47455898D01*
X151419264Y-47425207D01*
X151427639Y-47414729D01*
X151420571Y-47401281D01*
X150746312Y-46727022D01*
X150732368Y-46719408D01*
X150730535Y-46719539D01*
X150723920Y-46723790D01*
X150045707Y-47402003D01*
X150039277Y-47413777D01*
X149341471Y-47413777D01*
X149390615Y-47348205D01*
X149441745Y-47211816D01*
X149448500Y-47149634D01*
X149448500Y-47131095D01*
X149468502Y-47062974D01*
X149522158Y-47016481D01*
X149592432Y-47006377D01*
X149653173Y-47032674D01*
X149673772Y-47049140D01*
X149687218Y-47042072D01*
X150361478Y-46367812D01*
X150369092Y-46353868D01*
X150368961Y-46352035D01*
X150364710Y-46345420D01*
X149686497Y-45667207D01*
X149674723Y-45660777D01*
X149651601Y-45678666D01*
X149585483Y-45704529D01*
X149515878Y-45690541D01*
X149464885Y-45641143D01*
X149448500Y-45579009D01*
X149448500Y-45560366D01*
X149441745Y-45498184D01*
X149390615Y-45361795D01*
X149334233Y-45286565D01*
X149309385Y-45220059D01*
X149324438Y-45150676D01*
X149374612Y-45100446D01*
X149435059Y-45085000D01*
X149945415Y-45085000D01*
X150013536Y-45105002D01*
X150060029Y-45158658D01*
X150070133Y-45228932D01*
X150043835Y-45289673D01*
X150039360Y-45295271D01*
X150046428Y-45308718D01*
X150720688Y-45982978D01*
X150734632Y-45990592D01*
X150736465Y-45990461D01*
X150743080Y-45986210D01*
X151421293Y-45307997D01*
X151427723Y-45296223D01*
X151421439Y-45288101D01*
X151395576Y-45221983D01*
X151409564Y-45152378D01*
X151458962Y-45101385D01*
X151521096Y-45085000D01*
X152472578Y-45085000D01*
X152540699Y-45105002D01*
X152587192Y-45158658D01*
X152597296Y-45228932D01*
X152567802Y-45293512D01*
X152544849Y-45314213D01*
X152458230Y-45374864D01*
X152458227Y-45374866D01*
X152453719Y-45378023D01*
X152296523Y-45535219D01*
X152293366Y-45539727D01*
X152293364Y-45539730D01*
X152179158Y-45702834D01*
X152169012Y-45717324D01*
X152166689Y-45722306D01*
X152166686Y-45722311D01*
X152117419Y-45827965D01*
X152070501Y-45881250D01*
X152002224Y-45900711D01*
X151934264Y-45880169D01*
X151889029Y-45827965D01*
X151839877Y-45722559D01*
X151834397Y-45713068D01*
X151803706Y-45669235D01*
X151793229Y-45660860D01*
X151779782Y-45667928D01*
X151105522Y-46342188D01*
X151097908Y-46356132D01*
X151098039Y-46357965D01*
X151102290Y-46364580D01*
X151780503Y-47042793D01*
X151792277Y-47049223D01*
X151804293Y-47039926D01*
X151834397Y-46996932D01*
X151839877Y-46987441D01*
X151889029Y-46882035D01*
X151935947Y-46828750D01*
X152004224Y-46809289D01*
X152072184Y-46829831D01*
X152117419Y-46882035D01*
X152166686Y-46987689D01*
X152166689Y-46987694D01*
X152169012Y-46992676D01*
X152172168Y-46997183D01*
X152172169Y-46997185D01*
X152281294Y-47153031D01*
X152296523Y-47174781D01*
X152453719Y-47331977D01*
X152458227Y-47335134D01*
X152458230Y-47335136D01*
X152500202Y-47364525D01*
X152635823Y-47459488D01*
X152640805Y-47461811D01*
X152640810Y-47461814D01*
X152678702Y-47479483D01*
X152837304Y-47553440D01*
X152842612Y-47554862D01*
X152842614Y-47554863D01*
X152844122Y-47555267D01*
X153052037Y-47610978D01*
X153273500Y-47630353D01*
X153494963Y-47610978D01*
X153702878Y-47555267D01*
X153704386Y-47554863D01*
X153704388Y-47554862D01*
X153709696Y-47553440D01*
X153868298Y-47479483D01*
X153906190Y-47461814D01*
X153906195Y-47461811D01*
X153911177Y-47459488D01*
X154046798Y-47364525D01*
X154088770Y-47335136D01*
X154088773Y-47335134D01*
X154093281Y-47331977D01*
X154250477Y-47174781D01*
X154263124Y-47156719D01*
X154374834Y-46997181D01*
X154374836Y-46997178D01*
X154377988Y-46992676D01*
X154378300Y-46992895D01*
X154427477Y-46946006D01*
X154485212Y-46932000D01*
X156302500Y-46932000D01*
X156370621Y-46952002D01*
X156417114Y-47005658D01*
X156428500Y-47058000D01*
X156428500Y-48164634D01*
X156435255Y-48226816D01*
X156486385Y-48363205D01*
X156573739Y-48479761D01*
X156690295Y-48567115D01*
X156826684Y-48618245D01*
X156888866Y-48625000D01*
X158478134Y-48625000D01*
X158540316Y-48618245D01*
X158676705Y-48567115D01*
X158793261Y-48479761D01*
X158880615Y-48363205D01*
X158931745Y-48226816D01*
X158938500Y-48164634D01*
X158938500Y-48023572D01*
X158958502Y-47955451D01*
X159012158Y-47908958D01*
X159082432Y-47898854D01*
X159147012Y-47928348D01*
X159178695Y-47970322D01*
X159190160Y-47994910D01*
X159190163Y-47994915D01*
X159192486Y-47999897D01*
X159236902Y-48063329D01*
X159307837Y-48164634D01*
X159318442Y-48179780D01*
X159473720Y-48335058D01*
X159478228Y-48338215D01*
X159478231Y-48338217D01*
X159552913Y-48390510D01*
X159653603Y-48461014D01*
X159658585Y-48463337D01*
X159658590Y-48463340D01*
X159847643Y-48551496D01*
X159852625Y-48553819D01*
X159857933Y-48555241D01*
X159857935Y-48555242D01*
X160059424Y-48609231D01*
X160059426Y-48609231D01*
X160064739Y-48610655D01*
X160283500Y-48629794D01*
X160502261Y-48610655D01*
X160507574Y-48609231D01*
X160507576Y-48609231D01*
X160709065Y-48555242D01*
X160709067Y-48555241D01*
X160714375Y-48553819D01*
X160719357Y-48551496D01*
X160908410Y-48463340D01*
X160908415Y-48463337D01*
X160913397Y-48461014D01*
X161014087Y-48390510D01*
X161088769Y-48338217D01*
X161088772Y-48338215D01*
X161093280Y-48335058D01*
X161248558Y-48179780D01*
X161259164Y-48164634D01*
X161330098Y-48063329D01*
X161374514Y-47999897D01*
X161376837Y-47994915D01*
X161376840Y-47994910D01*
X161464996Y-47805857D01*
X161464996Y-47805856D01*
X161467319Y-47800875D01*
X161484717Y-47735947D01*
X161522731Y-47594076D01*
X161522731Y-47594074D01*
X161524155Y-47588761D01*
X161543294Y-47370000D01*
X161524155Y-47151239D01*
X161522731Y-47145924D01*
X161468742Y-46944435D01*
X161468741Y-46944433D01*
X161467319Y-46939125D01*
X161415851Y-46828750D01*
X161376840Y-46745090D01*
X161376837Y-46745085D01*
X161374514Y-46740103D01*
X161248558Y-46560220D01*
X161093280Y-46404942D01*
X161081273Y-46396534D01*
X161003658Y-46342188D01*
X160913397Y-46278986D01*
X160908415Y-46276663D01*
X160908410Y-46276660D01*
X160719357Y-46188504D01*
X160719356Y-46188504D01*
X160714375Y-46186181D01*
X160709067Y-46184759D01*
X160709065Y-46184758D01*
X160507576Y-46130769D01*
X160507574Y-46130769D01*
X160502261Y-46129345D01*
X160283500Y-46110206D01*
X160064739Y-46129345D01*
X160059428Y-46130768D01*
X160059417Y-46130770D01*
X160035642Y-46137141D01*
X159964666Y-46135452D01*
X159913934Y-46104530D01*
X159715647Y-45906242D01*
X159708113Y-45897963D01*
X159704000Y-45891482D01*
X159654348Y-45844856D01*
X159651507Y-45842102D01*
X159631770Y-45822365D01*
X159628573Y-45819885D01*
X159619551Y-45812180D01*
X159593100Y-45787341D01*
X159587321Y-45781914D01*
X159580375Y-45778095D01*
X159580372Y-45778093D01*
X159569566Y-45772152D01*
X159553047Y-45761301D01*
X159544517Y-45754685D01*
X159537041Y-45748886D01*
X159529772Y-45745741D01*
X159529768Y-45745738D01*
X159496463Y-45731326D01*
X159485813Y-45726109D01*
X159447060Y-45704805D01*
X159427437Y-45699767D01*
X159408734Y-45693363D01*
X159397420Y-45688467D01*
X159397419Y-45688467D01*
X159390145Y-45685319D01*
X159382322Y-45684080D01*
X159382312Y-45684077D01*
X159346476Y-45678401D01*
X159334856Y-45675995D01*
X159299711Y-45666972D01*
X159299710Y-45666972D01*
X159292030Y-45665000D01*
X159271776Y-45665000D01*
X159252065Y-45663449D01*
X159239886Y-45661520D01*
X159232057Y-45660280D01*
X159224165Y-45661026D01*
X159188039Y-45664441D01*
X159176181Y-45665000D01*
X154406941Y-45665000D01*
X154338820Y-45644998D01*
X154303728Y-45611270D01*
X154300860Y-45607174D01*
X154250477Y-45535219D01*
X154093281Y-45378023D01*
X154088773Y-45374866D01*
X154088770Y-45374864D01*
X154002151Y-45314213D01*
X153957823Y-45258756D01*
X153950514Y-45188137D01*
X153982545Y-45124776D01*
X154043746Y-45088791D01*
X154074422Y-45085000D01*
X164409711Y-45085000D01*
X164477832Y-45105002D01*
X164524325Y-45158658D01*
X164534429Y-45228932D01*
X164504935Y-45293512D01*
X164462462Y-45325426D01*
X164235348Y-45430127D01*
X164231439Y-45432690D01*
X164018195Y-45572499D01*
X164018190Y-45572503D01*
X164014282Y-45575065D01*
X164010790Y-45578182D01*
X163849307Y-45722311D01*
X163817067Y-45751086D01*
X163648036Y-45954324D01*
X163510901Y-46180314D01*
X163509095Y-46184622D01*
X163509094Y-46184623D01*
X163414098Y-46411164D01*
X163408677Y-46424091D01*
X163407526Y-46428623D01*
X163407525Y-46428626D01*
X163385082Y-46516996D01*
X163343608Y-46680301D01*
X163317124Y-46943314D01*
X163318856Y-46979368D01*
X163329807Y-47207352D01*
X163330720Y-47211941D01*
X163380423Y-47461814D01*
X163381378Y-47466616D01*
X163382957Y-47471014D01*
X163382959Y-47471021D01*
X163432858Y-47610000D01*
X163470704Y-47715410D01*
X163472921Y-47719536D01*
X163574701Y-47908958D01*
X163595822Y-47948267D01*
X163598617Y-47952011D01*
X163598619Y-47952013D01*
X163681743Y-48063329D01*
X163753985Y-48160073D01*
X163757292Y-48163351D01*
X163757297Y-48163357D01*
X163933691Y-48338217D01*
X163941718Y-48346174D01*
X163945485Y-48348936D01*
X163945486Y-48348937D01*
X164101512Y-48463340D01*
X164154896Y-48502483D01*
X164159031Y-48504659D01*
X164159035Y-48504661D01*
X164255174Y-48555242D01*
X164388836Y-48625565D01*
X164638400Y-48712716D01*
X164642993Y-48713588D01*
X164893515Y-48761151D01*
X164893518Y-48761151D01*
X164898104Y-48762022D01*
X165030173Y-48767211D01*
X165157575Y-48772218D01*
X165157581Y-48772218D01*
X165162243Y-48772401D01*
X165425015Y-48743622D01*
X165429526Y-48742434D01*
X165429528Y-48742434D01*
X165676124Y-48677511D01*
X165676126Y-48677510D01*
X165680647Y-48676320D01*
X165795191Y-48627108D01*
X165919229Y-48573817D01*
X165919231Y-48573816D01*
X165923523Y-48571972D01*
X166148307Y-48432871D01*
X166240532Y-48354797D01*
X166346496Y-48265093D01*
X166346498Y-48265091D01*
X166350063Y-48262073D01*
X166524356Y-48063329D01*
X166593746Y-47955451D01*
X166664831Y-47844936D01*
X166667359Y-47841006D01*
X166762467Y-47629874D01*
X166764118Y-47626210D01*
X166810334Y-47572316D01*
X166878350Y-47551963D01*
X166946573Y-47571613D01*
X166993342Y-47625029D01*
X167005000Y-47677961D01*
X167005000Y-60083256D01*
X166984998Y-60151377D01*
X166931342Y-60197870D01*
X166861068Y-60207974D01*
X166796488Y-60178480D01*
X166775787Y-60155527D01*
X166733217Y-60094731D01*
X166733215Y-60094728D01*
X166730058Y-60090220D01*
X166574780Y-59934942D01*
X166394897Y-59808986D01*
X166389915Y-59806663D01*
X166389910Y-59806660D01*
X166200857Y-59718504D01*
X166200856Y-59718504D01*
X166195875Y-59716181D01*
X166190567Y-59714759D01*
X166190565Y-59714758D01*
X165989076Y-59660769D01*
X165989074Y-59660769D01*
X165983761Y-59659345D01*
X165765000Y-59640206D01*
X165546239Y-59659345D01*
X165540926Y-59660769D01*
X165540924Y-59660769D01*
X165339435Y-59714758D01*
X165339433Y-59714759D01*
X165334125Y-59716181D01*
X165329144Y-59718504D01*
X165329143Y-59718504D01*
X165140090Y-59806660D01*
X165140085Y-59806663D01*
X165135103Y-59808986D01*
X164955220Y-59934942D01*
X164799942Y-60090220D01*
X164673986Y-60270103D01*
X164671663Y-60275085D01*
X164671660Y-60275090D01*
X164583504Y-60464143D01*
X164581181Y-60469125D01*
X164524345Y-60681239D01*
X164505206Y-60900000D01*
X164524345Y-61118761D01*
X164525769Y-61124074D01*
X164525769Y-61124076D01*
X164579037Y-61322872D01*
X164581181Y-61330875D01*
X164583504Y-61335856D01*
X164583504Y-61335857D01*
X164671660Y-61524910D01*
X164671663Y-61524915D01*
X164673986Y-61529897D01*
X164740485Y-61624867D01*
X164788232Y-61693056D01*
X164799942Y-61709780D01*
X164955220Y-61865058D01*
X165135103Y-61991014D01*
X165140085Y-61993337D01*
X165140090Y-61993340D01*
X165164678Y-62004805D01*
X165217963Y-62051722D01*
X165237424Y-62119999D01*
X165216882Y-62187959D01*
X165162860Y-62234025D01*
X165111428Y-62245000D01*
X164970366Y-62245000D01*
X164908184Y-62251755D01*
X164771795Y-62302885D01*
X164655239Y-62390239D01*
X164567885Y-62506795D01*
X164516755Y-62643184D01*
X164510000Y-62705366D01*
X164510000Y-64294634D01*
X164516755Y-64356816D01*
X164567885Y-64493205D01*
X164655239Y-64609761D01*
X164771795Y-64697115D01*
X164908184Y-64748245D01*
X164970366Y-64755000D01*
X166559634Y-64755000D01*
X166621816Y-64748245D01*
X166758205Y-64697115D01*
X166803435Y-64663217D01*
X166869941Y-64638369D01*
X166939324Y-64653422D01*
X166989554Y-64703596D01*
X167005000Y-64764043D01*
X167005000Y-113219756D01*
X166984998Y-113287877D01*
X166931342Y-113334370D01*
X166861068Y-113344474D01*
X166796488Y-113314980D01*
X166775787Y-113292027D01*
X166733217Y-113231231D01*
X166733215Y-113231228D01*
X166730058Y-113226720D01*
X166574780Y-113071442D01*
X166394897Y-112945486D01*
X166389915Y-112943163D01*
X166389910Y-112943160D01*
X166200857Y-112855004D01*
X166200856Y-112855004D01*
X166195875Y-112852681D01*
X166190567Y-112851259D01*
X166190565Y-112851258D01*
X165989076Y-112797269D01*
X165989074Y-112797269D01*
X165983761Y-112795845D01*
X165765000Y-112776706D01*
X165546239Y-112795845D01*
X165540926Y-112797269D01*
X165540924Y-112797269D01*
X165339435Y-112851258D01*
X165339433Y-112851259D01*
X165334125Y-112852681D01*
X165329144Y-112855004D01*
X165329143Y-112855004D01*
X165140090Y-112943160D01*
X165140085Y-112943163D01*
X165135103Y-112945486D01*
X164955220Y-113071442D01*
X164799942Y-113226720D01*
X164673986Y-113406603D01*
X164671663Y-113411585D01*
X164671660Y-113411590D01*
X164619193Y-113524108D01*
X164581181Y-113605625D01*
X164579759Y-113610933D01*
X164579758Y-113610935D01*
X164554167Y-113706442D01*
X164524345Y-113817739D01*
X164505206Y-114036500D01*
X164524345Y-114255261D01*
X164525769Y-114260574D01*
X164525769Y-114260576D01*
X164578728Y-114458219D01*
X164581181Y-114467375D01*
X164583504Y-114472356D01*
X164583504Y-114472357D01*
X164671660Y-114661410D01*
X164671663Y-114661415D01*
X164673986Y-114666397D01*
X164740485Y-114761367D01*
X164789236Y-114830990D01*
X164799942Y-114846280D01*
X164955220Y-115001558D01*
X164959728Y-115004715D01*
X164959731Y-115004717D01*
X164993964Y-115028687D01*
X165135103Y-115127514D01*
X165140085Y-115129837D01*
X165140090Y-115129840D01*
X165164678Y-115141305D01*
X165217963Y-115188222D01*
X165237424Y-115256499D01*
X165216882Y-115324459D01*
X165162860Y-115370525D01*
X165111428Y-115381500D01*
X164970366Y-115381500D01*
X164908184Y-115388255D01*
X164771795Y-115439385D01*
X164655239Y-115526739D01*
X164567885Y-115643295D01*
X164516755Y-115779684D01*
X164510000Y-115841866D01*
X164510000Y-117431134D01*
X164516755Y-117493316D01*
X164567885Y-117629705D01*
X164655239Y-117746261D01*
X164771795Y-117833615D01*
X164908184Y-117884745D01*
X164970366Y-117891500D01*
X166559634Y-117891500D01*
X166621816Y-117884745D01*
X166758205Y-117833615D01*
X166803435Y-117799717D01*
X166869941Y-117774869D01*
X166939324Y-117789922D01*
X166989554Y-117840096D01*
X167005000Y-117900543D01*
X167005000Y-123779772D01*
X166984998Y-123847893D01*
X166931342Y-123894386D01*
X166861068Y-123904490D01*
X166796488Y-123874996D01*
X166761567Y-123825439D01*
X166711442Y-123696542D01*
X166711441Y-123696540D01*
X166709749Y-123692189D01*
X166683535Y-123646323D01*
X166580897Y-123466745D01*
X166578578Y-123462687D01*
X166414925Y-123255094D01*
X166222385Y-123073970D01*
X166185212Y-123048182D01*
X166009026Y-122925958D01*
X166009021Y-122925955D01*
X166005188Y-122923296D01*
X166000997Y-122921229D01*
X165772294Y-122808445D01*
X165772291Y-122808444D01*
X165768106Y-122806380D01*
X165711150Y-122788148D01*
X165520792Y-122727214D01*
X165520794Y-122727214D01*
X165516347Y-122725791D01*
X165373825Y-122702580D01*
X165260053Y-122684051D01*
X165260052Y-122684051D01*
X165255441Y-122683300D01*
X165123281Y-122681570D01*
X164995798Y-122679901D01*
X164995795Y-122679901D01*
X164991121Y-122679840D01*
X164729192Y-122715486D01*
X164724702Y-122716795D01*
X164724696Y-122716796D01*
X164616732Y-122748265D01*
X164475410Y-122789457D01*
X164471163Y-122791415D01*
X164471160Y-122791416D01*
X164380950Y-122833004D01*
X164235348Y-122900127D01*
X164231439Y-122902690D01*
X164018195Y-123042499D01*
X164018190Y-123042503D01*
X164014282Y-123045065D01*
X163817067Y-123221086D01*
X163648036Y-123424324D01*
X163510901Y-123650314D01*
X163509095Y-123654622D01*
X163509094Y-123654623D01*
X163414098Y-123881164D01*
X163408677Y-123894091D01*
X163407526Y-123898623D01*
X163407525Y-123898626D01*
X163385082Y-123986996D01*
X163343608Y-124150301D01*
X163317124Y-124413314D01*
X163318856Y-124449368D01*
X163329807Y-124677352D01*
X163330720Y-124681941D01*
X163365444Y-124856509D01*
X163381378Y-124936616D01*
X163382957Y-124941014D01*
X163382959Y-124941021D01*
X163454875Y-125141322D01*
X163470704Y-125185410D01*
X163472921Y-125189536D01*
X163555305Y-125342860D01*
X163595822Y-125418267D01*
X163598617Y-125422011D01*
X163598619Y-125422013D01*
X163751192Y-125626333D01*
X163753985Y-125630073D01*
X163757292Y-125633351D01*
X163757297Y-125633357D01*
X163856879Y-125732073D01*
X163941718Y-125816174D01*
X164154896Y-125972483D01*
X164159031Y-125974659D01*
X164159035Y-125974661D01*
X164282293Y-126039510D01*
X164388836Y-126095565D01*
X164393255Y-126097108D01*
X164576169Y-126160984D01*
X164638400Y-126182716D01*
X164642993Y-126183588D01*
X164893515Y-126231151D01*
X164893518Y-126231151D01*
X164898104Y-126232022D01*
X165030174Y-126237212D01*
X165157575Y-126242218D01*
X165157581Y-126242218D01*
X165162243Y-126242401D01*
X165425015Y-126213622D01*
X165429526Y-126212434D01*
X165429528Y-126212434D01*
X165676124Y-126147511D01*
X165676126Y-126147510D01*
X165680647Y-126146320D01*
X165795191Y-126097108D01*
X165919229Y-126043817D01*
X165919231Y-126043816D01*
X165923523Y-126041972D01*
X166148307Y-125902871D01*
X166170819Y-125883813D01*
X166346496Y-125735093D01*
X166346498Y-125735091D01*
X166350063Y-125732073D01*
X166524356Y-125533329D01*
X166528049Y-125527589D01*
X166664831Y-125314936D01*
X166667359Y-125311006D01*
X166740806Y-125147961D01*
X166764118Y-125096210D01*
X166810334Y-125042316D01*
X166878350Y-125021963D01*
X166946573Y-125041613D01*
X166993342Y-125095029D01*
X167005000Y-125147961D01*
X167005000Y-126874000D01*
X166984998Y-126942121D01*
X166931342Y-126988614D01*
X166879000Y-127000000D01*
X160332707Y-127000000D01*
X160264586Y-126979998D01*
X160218093Y-126926342D01*
X160207989Y-126856068D01*
X160237483Y-126791488D01*
X160243612Y-126784905D01*
X160263736Y-126764781D01*
X160273898Y-126750269D01*
X160388090Y-126587185D01*
X160388091Y-126587183D01*
X160391247Y-126582676D01*
X160393570Y-126577694D01*
X160393573Y-126577689D01*
X160482876Y-126386178D01*
X160482877Y-126386177D01*
X160485199Y-126381196D01*
X160490020Y-126363206D01*
X160525404Y-126231151D01*
X160542737Y-126166463D01*
X160562112Y-125945000D01*
X160542737Y-125723537D01*
X160490718Y-125529401D01*
X160486622Y-125514114D01*
X160486621Y-125514112D01*
X160485199Y-125508804D01*
X160476486Y-125490119D01*
X160393573Y-125312311D01*
X160393570Y-125312306D01*
X160391247Y-125307324D01*
X160331036Y-125221333D01*
X160266895Y-125129730D01*
X160266893Y-125129727D01*
X160263736Y-125125219D01*
X160106540Y-124968023D01*
X160102032Y-124964866D01*
X160102029Y-124964864D01*
X160026264Y-124911813D01*
X159924436Y-124840512D01*
X159919454Y-124838189D01*
X159919449Y-124838186D01*
X159727937Y-124748883D01*
X159727936Y-124748882D01*
X159722955Y-124746560D01*
X159717647Y-124745138D01*
X159717645Y-124745137D01*
X159651810Y-124727497D01*
X159508222Y-124689022D01*
X159286759Y-124669647D01*
X159065296Y-124689022D01*
X158921708Y-124727497D01*
X158855873Y-124745137D01*
X158855871Y-124745138D01*
X158850563Y-124746560D01*
X158845582Y-124748882D01*
X158845581Y-124748883D01*
X158654070Y-124838186D01*
X158654065Y-124838189D01*
X158649083Y-124840512D01*
X158644576Y-124843668D01*
X158644574Y-124843669D01*
X158471489Y-124964864D01*
X158471486Y-124964866D01*
X158466978Y-124968023D01*
X158309782Y-125125219D01*
X158306625Y-125129727D01*
X158306623Y-125129730D01*
X158242482Y-125221333D01*
X158182271Y-125307324D01*
X158179948Y-125312306D01*
X158179945Y-125312311D01*
X158130954Y-125417373D01*
X158084036Y-125470658D01*
X158015759Y-125490119D01*
X157947799Y-125469577D01*
X157902564Y-125417373D01*
X157853573Y-125312311D01*
X157853570Y-125312306D01*
X157851247Y-125307324D01*
X157791036Y-125221333D01*
X157726895Y-125129730D01*
X157726893Y-125129727D01*
X157723736Y-125125219D01*
X157566540Y-124968023D01*
X157562032Y-124964866D01*
X157562029Y-124964864D01*
X157486264Y-124911813D01*
X157384436Y-124840512D01*
X157379454Y-124838189D01*
X157379449Y-124838186D01*
X157187937Y-124748883D01*
X157187936Y-124748882D01*
X157182955Y-124746560D01*
X157177647Y-124745138D01*
X157177645Y-124745137D01*
X157111810Y-124727497D01*
X156968222Y-124689022D01*
X156746759Y-124669647D01*
X156525296Y-124689022D01*
X156381708Y-124727497D01*
X156315873Y-124745137D01*
X156315871Y-124745138D01*
X156310563Y-124746560D01*
X156305582Y-124748882D01*
X156305581Y-124748883D01*
X156114070Y-124838186D01*
X156114065Y-124838189D01*
X156109083Y-124840512D01*
X156104576Y-124843668D01*
X156104574Y-124843669D01*
X155931489Y-124964864D01*
X155931486Y-124964866D01*
X155926978Y-124968023D01*
X155769782Y-125125219D01*
X155766625Y-125129727D01*
X155766623Y-125129730D01*
X155702482Y-125221333D01*
X155642271Y-125307324D01*
X155639948Y-125312306D01*
X155639945Y-125312311D01*
X155590954Y-125417373D01*
X155544036Y-125470658D01*
X155475759Y-125490119D01*
X155407799Y-125469577D01*
X155362564Y-125417373D01*
X155313573Y-125312311D01*
X155313570Y-125312306D01*
X155311247Y-125307324D01*
X155251036Y-125221333D01*
X155186895Y-125129730D01*
X155186893Y-125129727D01*
X155183736Y-125125219D01*
X155026540Y-124968023D01*
X155022032Y-124964866D01*
X155022029Y-124964864D01*
X154946264Y-124911813D01*
X154844436Y-124840512D01*
X154839454Y-124838189D01*
X154839449Y-124838186D01*
X154647937Y-124748883D01*
X154647936Y-124748882D01*
X154642955Y-124746560D01*
X154637647Y-124745138D01*
X154637645Y-124745137D01*
X154571810Y-124727497D01*
X154428222Y-124689022D01*
X154206759Y-124669647D01*
X153985296Y-124689022D01*
X153841708Y-124727497D01*
X153775873Y-124745137D01*
X153775871Y-124745138D01*
X153770563Y-124746560D01*
X153765582Y-124748882D01*
X153765581Y-124748883D01*
X153574070Y-124838186D01*
X153574065Y-124838189D01*
X153569083Y-124840512D01*
X153564576Y-124843668D01*
X153564574Y-124843669D01*
X153391489Y-124964864D01*
X153391486Y-124964866D01*
X153386978Y-124968023D01*
X153229782Y-125125219D01*
X153226625Y-125129727D01*
X153226623Y-125129730D01*
X153162482Y-125221333D01*
X153102271Y-125307324D01*
X153099948Y-125312306D01*
X153099945Y-125312311D01*
X153042403Y-125435711D01*
X152995486Y-125488996D01*
X152927208Y-125508457D01*
X152859248Y-125487915D01*
X152814013Y-125435711D01*
X152760099Y-125320090D01*
X152760096Y-125320085D01*
X152757773Y-125315103D01*
X152663876Y-125181005D01*
X152634976Y-125139731D01*
X152634974Y-125139728D01*
X152631817Y-125135220D01*
X152476539Y-124979942D01*
X152465083Y-124971920D01*
X152397346Y-124924490D01*
X152296656Y-124853986D01*
X152291674Y-124851663D01*
X152291669Y-124851660D01*
X152102616Y-124763504D01*
X152102615Y-124763504D01*
X152097634Y-124761181D01*
X152092326Y-124759759D01*
X152092324Y-124759758D01*
X151890835Y-124705769D01*
X151890833Y-124705769D01*
X151885520Y-124704345D01*
X151666759Y-124685206D01*
X151447998Y-124704345D01*
X151442685Y-124705769D01*
X151442683Y-124705769D01*
X151241194Y-124759758D01*
X151241192Y-124759759D01*
X151235884Y-124761181D01*
X151230903Y-124763504D01*
X151230902Y-124763504D01*
X151041849Y-124851660D01*
X151041844Y-124851663D01*
X151036862Y-124853986D01*
X150936172Y-124924490D01*
X150868436Y-124971920D01*
X150856979Y-124979942D01*
X150701701Y-125135220D01*
X150698544Y-125139728D01*
X150698542Y-125139731D01*
X150669642Y-125181005D01*
X150575745Y-125315103D01*
X150573422Y-125320085D01*
X150573419Y-125320090D01*
X150510954Y-125454048D01*
X150464037Y-125507333D01*
X150395760Y-125526794D01*
X150327800Y-125506252D01*
X150282564Y-125454048D01*
X150220099Y-125320090D01*
X150220096Y-125320085D01*
X150217773Y-125315103D01*
X150123876Y-125181005D01*
X150094976Y-125139731D01*
X150094974Y-125139728D01*
X150091817Y-125135220D01*
X149936539Y-124979942D01*
X149932031Y-124976785D01*
X149932028Y-124976783D01*
X149857540Y-124924626D01*
X149813987Y-124894130D01*
X149769660Y-124838674D01*
X149760259Y-124790918D01*
X149760259Y-113303351D01*
X158942339Y-113303351D01*
X158952770Y-113449201D01*
X159003870Y-113586204D01*
X159091498Y-113703261D01*
X159274142Y-113885905D01*
X159308168Y-113948217D01*
X159303103Y-114019032D01*
X159274142Y-114064095D01*
X159091498Y-114246739D01*
X159066509Y-114273579D01*
X158987455Y-114396589D01*
X158984917Y-114405233D01*
X158984916Y-114405235D01*
X158969149Y-114458933D01*
X158946259Y-114536889D01*
X158946259Y-114683111D01*
X158948797Y-114691754D01*
X158948797Y-114691755D01*
X158982765Y-114807437D01*
X158987455Y-114823411D01*
X158992326Y-114830990D01*
X159061637Y-114938841D01*
X159061639Y-114938844D01*
X159066509Y-114946421D01*
X159073319Y-114952322D01*
X159170204Y-115036274D01*
X159170207Y-115036276D01*
X159177016Y-115042176D01*
X159310025Y-115102919D01*
X159454759Y-115123729D01*
X161281480Y-115123729D01*
X161285234Y-115123861D01*
X161286006Y-115123963D01*
X161409436Y-115125255D01*
X161413202Y-115124839D01*
X161413206Y-115124839D01*
X161471443Y-115118409D01*
X161562202Y-115108389D01*
X161565892Y-115107523D01*
X161565895Y-115107523D01*
X161678688Y-115081068D01*
X161678695Y-115081066D01*
X161682374Y-115080203D01*
X161826707Y-115027385D01*
X161936690Y-114971346D01*
X162064259Y-114885623D01*
X162157699Y-114804968D01*
X162261137Y-114691291D01*
X162279093Y-114666025D01*
X162330446Y-114593765D01*
X162330450Y-114593759D01*
X162332640Y-114590677D01*
X162405977Y-114455608D01*
X162451418Y-114340838D01*
X162475306Y-114249781D01*
X162489455Y-114195850D01*
X162489456Y-114195844D01*
X162490419Y-114192174D01*
X162507171Y-114069881D01*
X162507610Y-114041975D01*
X162509525Y-113919997D01*
X162509585Y-113916206D01*
X162496682Y-113793448D01*
X162462370Y-113643633D01*
X162420558Y-113527494D01*
X162362265Y-113411590D01*
X162353209Y-113393584D01*
X162353205Y-113393578D01*
X162351500Y-113390187D01*
X162349394Y-113387017D01*
X162285289Y-113290531D01*
X162285285Y-113290526D01*
X162283191Y-113287374D01*
X162183374Y-113170504D01*
X162163858Y-113152558D01*
X162095313Y-113089527D01*
X162095305Y-113089521D01*
X162092514Y-113086954D01*
X161967701Y-112997267D01*
X161859534Y-112937802D01*
X161826243Y-112924419D01*
X161720454Y-112881892D01*
X161720451Y-112881891D01*
X161716931Y-112880476D01*
X161713270Y-112879495D01*
X161713264Y-112879493D01*
X161601380Y-112849513D01*
X161601372Y-112849511D01*
X161597702Y-112848528D01*
X161593939Y-112847993D01*
X161593937Y-112847992D01*
X161535591Y-112839688D01*
X161461151Y-112829094D01*
X161396530Y-112799693D01*
X161358061Y-112740022D01*
X161357959Y-112669025D01*
X161396258Y-112609244D01*
X161465079Y-112579112D01*
X161501942Y-112575042D01*
X161562202Y-112568389D01*
X161565892Y-112567523D01*
X161565895Y-112567523D01*
X161678688Y-112541068D01*
X161678695Y-112541066D01*
X161682374Y-112540203D01*
X161826707Y-112487385D01*
X161936690Y-112431346D01*
X162064259Y-112345623D01*
X162157699Y-112264968D01*
X162261137Y-112151291D01*
X162315643Y-112074594D01*
X162330446Y-112053765D01*
X162330450Y-112053759D01*
X162332640Y-112050677D01*
X162405977Y-111915608D01*
X162451418Y-111800838D01*
X162485018Y-111672763D01*
X162489455Y-111655850D01*
X162489456Y-111655844D01*
X162490419Y-111652174D01*
X162504571Y-111548865D01*
X162506656Y-111533642D01*
X162506656Y-111533639D01*
X162507171Y-111529881D01*
X162507421Y-111514012D01*
X162508950Y-111416625D01*
X162509585Y-111376206D01*
X162496682Y-111253448D01*
X162462370Y-111103633D01*
X162420558Y-110987494D01*
X162415684Y-110977803D01*
X162353209Y-110853584D01*
X162353205Y-110853578D01*
X162351500Y-110850187D01*
X162283191Y-110747374D01*
X162183374Y-110630504D01*
X162168593Y-110616912D01*
X162095313Y-110549527D01*
X162095305Y-110549521D01*
X162092514Y-110546954D01*
X161967701Y-110457267D01*
X161859534Y-110397802D01*
X161840733Y-110390244D01*
X161720454Y-110341892D01*
X161720451Y-110341891D01*
X161716931Y-110340476D01*
X161713270Y-110339495D01*
X161713264Y-110339493D01*
X161601380Y-110309513D01*
X161601372Y-110309511D01*
X161597702Y-110308528D01*
X161593939Y-110307993D01*
X161593937Y-110307992D01*
X161447595Y-110287164D01*
X161447585Y-110287163D01*
X161445541Y-110286872D01*
X161443478Y-110286715D01*
X161443468Y-110286714D01*
X161395969Y-110283102D01*
X161378524Y-110281775D01*
X161376451Y-110281753D01*
X161376443Y-110281753D01*
X161373125Y-110281719D01*
X161365128Y-110281635D01*
X161298042Y-110285328D01*
X161295995Y-110285576D01*
X161293944Y-110285756D01*
X161293929Y-110285590D01*
X161282650Y-110286271D01*
X160089759Y-110286271D01*
X160086412Y-110286631D01*
X160086409Y-110286631D01*
X160046195Y-110290954D01*
X159980558Y-110298011D01*
X159843555Y-110349111D01*
X159836343Y-110354510D01*
X159836341Y-110354511D01*
X159776075Y-110399626D01*
X159726498Y-110436739D01*
X159091498Y-111071739D01*
X159043498Y-111127134D01*
X158973421Y-111255470D01*
X158971505Y-111264277D01*
X158971504Y-111264280D01*
X158944255Y-111389541D01*
X158944255Y-111389544D01*
X158942339Y-111398351D01*
X158952770Y-111544201D01*
X159003870Y-111681204D01*
X159009269Y-111688416D01*
X159009270Y-111688418D01*
X159030086Y-111716225D01*
X159091498Y-111798261D01*
X159726498Y-112433261D01*
X159729123Y-112435376D01*
X159729127Y-112435380D01*
X159764684Y-112464034D01*
X159812016Y-112502176D01*
X159945025Y-112562919D01*
X159953948Y-112564202D01*
X160032902Y-112575554D01*
X160097483Y-112605047D01*
X160135866Y-112664773D01*
X160135866Y-112735770D01*
X160097482Y-112795496D01*
X160032901Y-112824989D01*
X160014970Y-112826271D01*
X159454759Y-112826271D01*
X159433792Y-112827020D01*
X159423731Y-112827379D01*
X159423728Y-112827379D01*
X159418110Y-112827580D01*
X159361508Y-112839893D01*
X159284039Y-112856745D01*
X159284036Y-112856746D01*
X159275229Y-112858662D01*
X159146893Y-112928739D01*
X159043498Y-113032134D01*
X158973421Y-113160470D01*
X158971505Y-113169277D01*
X158971504Y-113169280D01*
X158944255Y-113294541D01*
X158944255Y-113294544D01*
X158942339Y-113303351D01*
X149760259Y-113303351D01*
X149760259Y-111524500D01*
X149780261Y-111456379D01*
X149833917Y-111409886D01*
X149886259Y-111398500D01*
X149955487Y-111398500D01*
X149961939Y-111397128D01*
X149961944Y-111397128D01*
X150063881Y-111375460D01*
X150142288Y-111358794D01*
X150152353Y-111354313D01*
X150310722Y-111283803D01*
X150310724Y-111283802D01*
X150316752Y-111281118D01*
X150339928Y-111264280D01*
X150372157Y-111240864D01*
X150471253Y-111168866D01*
X150513431Y-111122023D01*
X150594621Y-111031852D01*
X150594622Y-111031851D01*
X150599040Y-111026944D01*
X150694527Y-110861556D01*
X150753542Y-110679928D01*
X150773504Y-110490000D01*
X150767623Y-110434041D01*
X150754232Y-110306635D01*
X150754232Y-110306633D01*
X150753542Y-110300072D01*
X150694527Y-110118444D01*
X150599040Y-109953056D01*
X150525863Y-109871785D01*
X150495147Y-109807779D01*
X150493500Y-109787476D01*
X150493500Y-109783594D01*
X150513502Y-109715473D01*
X150567158Y-109668980D01*
X150637432Y-109658876D01*
X150702012Y-109688370D01*
X150708595Y-109694499D01*
X151452878Y-110438782D01*
X151486904Y-110501094D01*
X151489092Y-110514703D01*
X151506458Y-110679928D01*
X151565473Y-110861556D01*
X151660960Y-111026944D01*
X151665378Y-111031851D01*
X151665379Y-111031852D01*
X151746569Y-111122023D01*
X151788747Y-111168866D01*
X151887843Y-111240864D01*
X151920073Y-111264280D01*
X151943248Y-111281118D01*
X151949276Y-111283802D01*
X151949278Y-111283803D01*
X152107647Y-111354313D01*
X152117712Y-111358794D01*
X152196119Y-111375460D01*
X152298056Y-111397128D01*
X152298061Y-111397128D01*
X152304513Y-111398500D01*
X152495487Y-111398500D01*
X152501939Y-111397128D01*
X152501944Y-111397128D01*
X152603881Y-111375460D01*
X152682288Y-111358794D01*
X152692353Y-111354313D01*
X152850722Y-111283803D01*
X152850724Y-111283802D01*
X152856752Y-111281118D01*
X152879928Y-111264280D01*
X152912157Y-111240864D01*
X153011253Y-111168866D01*
X153053431Y-111122023D01*
X153134621Y-111031852D01*
X153134622Y-111031851D01*
X153139040Y-111026944D01*
X153234527Y-110861556D01*
X153293542Y-110679928D01*
X153313504Y-110490000D01*
X153307623Y-110434041D01*
X153294232Y-110306635D01*
X153294232Y-110306633D01*
X153293542Y-110300072D01*
X153234527Y-110118444D01*
X153139040Y-109953056D01*
X153045821Y-109849525D01*
X153015675Y-109816045D01*
X153015674Y-109816044D01*
X153011253Y-109811134D01*
X152884946Y-109719366D01*
X152862094Y-109702763D01*
X152862093Y-109702762D01*
X152856752Y-109698882D01*
X152850724Y-109696198D01*
X152850722Y-109696197D01*
X152688319Y-109623891D01*
X152688318Y-109623891D01*
X152682288Y-109621206D01*
X152588888Y-109601353D01*
X152501944Y-109582872D01*
X152501939Y-109582872D01*
X152495487Y-109581500D01*
X152439595Y-109581500D01*
X152371474Y-109561498D01*
X152350500Y-109544595D01*
X151800405Y-108994500D01*
X151766379Y-108932188D01*
X151763500Y-108905405D01*
X151763500Y-98492524D01*
X151783502Y-98424403D01*
X151795858Y-98408221D01*
X151869040Y-98326944D01*
X151964527Y-98161556D01*
X152023542Y-97979928D01*
X152035164Y-97869356D01*
X152042814Y-97796565D01*
X152043504Y-97790000D01*
X152023542Y-97600072D01*
X151964527Y-97418444D01*
X151869040Y-97253056D01*
X151860972Y-97244095D01*
X151745675Y-97116045D01*
X151745674Y-97116044D01*
X151741253Y-97111134D01*
X151642157Y-97039136D01*
X151592094Y-97002763D01*
X151592093Y-97002762D01*
X151586752Y-96998882D01*
X151580724Y-96996198D01*
X151580722Y-96996197D01*
X151418319Y-96923891D01*
X151418318Y-96923891D01*
X151412288Y-96921206D01*
X151318888Y-96901353D01*
X151231944Y-96882872D01*
X151231939Y-96882872D01*
X151225487Y-96881500D01*
X151034513Y-96881500D01*
X151028061Y-96882872D01*
X151028056Y-96882872D01*
X150941112Y-96901353D01*
X150847712Y-96921206D01*
X150841682Y-96923891D01*
X150841681Y-96923891D01*
X150762180Y-96959287D01*
X150673248Y-96998882D01*
X150672323Y-96996804D01*
X150613512Y-97011076D01*
X150546419Y-96987859D01*
X150502528Y-96932055D01*
X150493500Y-96885218D01*
X150493500Y-93664004D01*
X150494027Y-93652820D01*
X150495701Y-93645332D01*
X150493562Y-93577273D01*
X150493500Y-93573316D01*
X150493500Y-93545385D01*
X150492994Y-93541379D01*
X150492061Y-93529533D01*
X150490922Y-93493278D01*
X150490673Y-93485351D01*
X150485022Y-93465899D01*
X150481014Y-93446547D01*
X150479468Y-93434309D01*
X150479467Y-93434307D01*
X150478474Y-93426444D01*
X150462194Y-93385327D01*
X150458359Y-93374126D01*
X150446018Y-93331647D01*
X150441985Y-93324828D01*
X150441983Y-93324823D01*
X150435707Y-93314212D01*
X150427010Y-93296462D01*
X150419552Y-93277624D01*
X150393571Y-93241864D01*
X150387053Y-93231942D01*
X150368578Y-93200701D01*
X150368574Y-93200696D01*
X150364542Y-93193878D01*
X150350218Y-93179554D01*
X150337376Y-93164519D01*
X150325472Y-93148134D01*
X150291406Y-93119952D01*
X150282627Y-93111963D01*
X142317885Y-85147221D01*
X142283859Y-85084909D01*
X142285274Y-85025514D01*
X142294312Y-84991783D01*
X142294313Y-84991777D01*
X142295737Y-84986463D01*
X142315112Y-84765000D01*
X142310962Y-84717562D01*
X159445412Y-84717562D01*
X159446035Y-84726542D01*
X159446035Y-84726543D01*
X159448023Y-84755204D01*
X159448032Y-84764111D01*
X159448318Y-84764111D01*
X159448315Y-84768617D01*
X159447991Y-84773103D01*
X159448667Y-84782646D01*
X159449281Y-84782602D01*
X159450228Y-84786987D01*
X159452085Y-84813749D01*
X159451883Y-84819175D01*
X159451256Y-84819219D01*
X159453252Y-84847414D01*
X159454205Y-84851816D01*
X159454840Y-84856257D01*
X159454836Y-84856258D01*
X159454866Y-84856434D01*
X159455220Y-84858934D01*
X159455532Y-84863434D01*
X159461482Y-84891070D01*
X159462098Y-84890938D01*
X159463483Y-84894668D01*
X159469184Y-84921002D01*
X159469800Y-84926806D01*
X159469203Y-84926935D01*
X159471217Y-84936289D01*
X159471849Y-84938454D01*
X159474924Y-84948996D01*
X159477113Y-84957619D01*
X159484140Y-84990075D01*
X159488447Y-84997986D01*
X159489035Y-84999567D01*
X159490691Y-85003041D01*
X159491856Y-85007035D01*
X159561759Y-85135466D01*
X159562130Y-85135963D01*
X159598399Y-85177876D01*
X159598654Y-85178218D01*
X159598961Y-85178526D01*
X159599713Y-85179395D01*
X159599714Y-85179397D01*
X159609048Y-85190183D01*
X159610547Y-85191915D01*
X159630174Y-85211542D01*
X159630592Y-85211124D01*
X159634045Y-85213711D01*
X159653339Y-85233061D01*
X159656597Y-85237109D01*
X159656169Y-85237537D01*
X160216827Y-85798195D01*
X160224615Y-85807878D01*
X160224853Y-85807673D01*
X160230736Y-85814490D01*
X160235590Y-85822075D01*
X160242383Y-85827987D01*
X160242386Y-85827990D01*
X160274307Y-85855770D01*
X160277950Y-85859982D01*
X160278049Y-85859868D01*
X160281273Y-85862663D01*
X160281284Y-85862652D01*
X160284620Y-85865988D01*
X160288226Y-85868689D01*
X160288227Y-85868689D01*
X160291154Y-85870881D01*
X160298349Y-85876693D01*
X160342491Y-85915108D01*
X160342497Y-85915113D01*
X160345892Y-85918067D01*
X160349674Y-85920509D01*
X160365875Y-85930970D01*
X160364874Y-85932520D01*
X160380461Y-85941814D01*
X160381111Y-85940808D01*
X160408497Y-85958491D01*
X160473219Y-85993970D01*
X160522466Y-86008492D01*
X160535515Y-86012340D01*
X160543961Y-86015159D01*
X160577741Y-86027775D01*
X160587002Y-86031234D01*
X160595082Y-86031818D01*
X160656977Y-86065663D01*
X160690965Y-86127996D01*
X160685857Y-86198809D01*
X160640098Y-86257918D01*
X160544494Y-86324860D01*
X160544488Y-86324865D01*
X160539978Y-86328023D01*
X160382782Y-86485219D01*
X160379625Y-86489727D01*
X160379623Y-86489730D01*
X160258428Y-86662815D01*
X160258427Y-86662817D01*
X160255271Y-86667324D01*
X160252948Y-86672306D01*
X160252945Y-86672311D01*
X160224378Y-86733574D01*
X160161319Y-86868804D01*
X160103781Y-87083537D01*
X160084406Y-87305000D01*
X160103781Y-87526463D01*
X160161319Y-87741196D01*
X160163641Y-87746177D01*
X160163642Y-87746178D01*
X160252945Y-87937689D01*
X160252948Y-87937694D01*
X160255271Y-87942676D01*
X160258427Y-87947183D01*
X160258428Y-87947184D01*
X160382782Y-88124781D01*
X160539978Y-88281977D01*
X160544486Y-88285134D01*
X160544489Y-88285136D01*
X160620254Y-88338187D01*
X160722082Y-88409488D01*
X160727064Y-88411811D01*
X160727069Y-88411814D01*
X160832132Y-88460805D01*
X160885417Y-88507722D01*
X160904878Y-88575999D01*
X160884336Y-88643959D01*
X160832132Y-88689195D01*
X160727070Y-88738186D01*
X160727065Y-88738189D01*
X160722083Y-88740512D01*
X160717576Y-88743668D01*
X160717574Y-88743669D01*
X160544489Y-88864864D01*
X160544486Y-88864866D01*
X160539978Y-88868023D01*
X160382782Y-89025219D01*
X160379625Y-89029727D01*
X160379623Y-89029730D01*
X160258428Y-89202815D01*
X160258427Y-89202817D01*
X160255271Y-89207324D01*
X160252948Y-89212306D01*
X160252945Y-89212311D01*
X160224378Y-89273574D01*
X160161319Y-89408804D01*
X160103781Y-89623537D01*
X160084406Y-89845000D01*
X160103781Y-90066463D01*
X160161319Y-90281196D01*
X160163641Y-90286177D01*
X160163642Y-90286178D01*
X160252945Y-90477689D01*
X160252948Y-90477694D01*
X160255271Y-90482676D01*
X160258427Y-90487183D01*
X160258428Y-90487184D01*
X160382782Y-90664781D01*
X160539978Y-90821977D01*
X160544486Y-90825134D01*
X160544489Y-90825136D01*
X160620254Y-90878187D01*
X160722082Y-90949488D01*
X160727064Y-90951811D01*
X160727069Y-90951814D01*
X160832132Y-91000805D01*
X160885417Y-91047722D01*
X160904878Y-91115999D01*
X160884336Y-91183959D01*
X160832132Y-91229195D01*
X160727070Y-91278186D01*
X160727065Y-91278189D01*
X160722083Y-91280512D01*
X160717576Y-91283668D01*
X160717574Y-91283669D01*
X160544489Y-91404864D01*
X160544486Y-91404866D01*
X160539978Y-91408023D01*
X160382782Y-91565219D01*
X160379625Y-91569727D01*
X160379623Y-91569730D01*
X160258428Y-91742815D01*
X160258427Y-91742817D01*
X160255271Y-91747324D01*
X160252948Y-91752306D01*
X160252945Y-91752311D01*
X160224378Y-91813574D01*
X160161319Y-91948804D01*
X160103781Y-92163537D01*
X160084406Y-92385000D01*
X160103781Y-92606463D01*
X160161319Y-92821196D01*
X160163641Y-92826177D01*
X160163642Y-92826178D01*
X160252945Y-93017689D01*
X160252948Y-93017694D01*
X160255271Y-93022676D01*
X160258427Y-93027183D01*
X160258428Y-93027185D01*
X160375148Y-93193878D01*
X160382782Y-93204781D01*
X160539978Y-93361977D01*
X160544486Y-93365134D01*
X160544489Y-93365136D01*
X160557300Y-93374106D01*
X160722082Y-93489488D01*
X160727064Y-93491811D01*
X160727069Y-93491814D01*
X160832132Y-93540805D01*
X160885417Y-93587722D01*
X160904878Y-93655999D01*
X160884336Y-93723959D01*
X160832132Y-93769195D01*
X160727070Y-93818186D01*
X160727065Y-93818189D01*
X160722083Y-93820512D01*
X160717576Y-93823668D01*
X160717574Y-93823669D01*
X160544489Y-93944864D01*
X160544486Y-93944866D01*
X160539978Y-93948023D01*
X160382782Y-94105219D01*
X160379625Y-94109727D01*
X160379623Y-94109730D01*
X160258428Y-94282815D01*
X160258427Y-94282817D01*
X160255271Y-94287324D01*
X160252948Y-94292306D01*
X160252945Y-94292311D01*
X160224378Y-94353574D01*
X160161319Y-94488804D01*
X160103781Y-94703537D01*
X160084406Y-94925000D01*
X160103781Y-95146463D01*
X160161319Y-95361196D01*
X160163641Y-95366177D01*
X160163642Y-95366178D01*
X160252945Y-95557689D01*
X160252948Y-95557694D01*
X160255271Y-95562676D01*
X160258427Y-95567183D01*
X160258428Y-95567185D01*
X160317598Y-95651688D01*
X160382782Y-95744781D01*
X160539978Y-95901977D01*
X160544486Y-95905134D01*
X160544489Y-95905136D01*
X160565380Y-95919764D01*
X160722082Y-96029488D01*
X160727064Y-96031811D01*
X160727069Y-96031814D01*
X160832132Y-96080805D01*
X160885417Y-96127722D01*
X160904878Y-96195999D01*
X160884336Y-96263959D01*
X160832132Y-96309195D01*
X160727070Y-96358186D01*
X160727065Y-96358189D01*
X160722083Y-96360512D01*
X160717576Y-96363668D01*
X160717574Y-96363669D01*
X160544489Y-96484864D01*
X160544486Y-96484866D01*
X160539978Y-96488023D01*
X160382782Y-96645219D01*
X160379625Y-96649727D01*
X160379623Y-96649730D01*
X160258428Y-96822815D01*
X160258427Y-96822817D01*
X160255271Y-96827324D01*
X160252948Y-96832306D01*
X160252945Y-96832311D01*
X160182915Y-96982491D01*
X160161319Y-97028804D01*
X160103781Y-97243537D01*
X160084406Y-97465000D01*
X160103781Y-97686463D01*
X160161319Y-97901196D01*
X160163641Y-97906177D01*
X160163642Y-97906178D01*
X160252945Y-98097689D01*
X160252948Y-98097694D01*
X160255271Y-98102676D01*
X160258427Y-98107183D01*
X160258428Y-98107185D01*
X160360583Y-98253077D01*
X160382782Y-98284781D01*
X160539978Y-98441977D01*
X160544486Y-98445134D01*
X160544489Y-98445136D01*
X160612166Y-98492524D01*
X160722082Y-98569488D01*
X160727064Y-98571811D01*
X160727069Y-98571814D01*
X160832132Y-98620805D01*
X160885417Y-98667722D01*
X160904878Y-98735999D01*
X160884336Y-98803959D01*
X160832132Y-98849195D01*
X160727070Y-98898186D01*
X160727065Y-98898189D01*
X160722083Y-98900512D01*
X160717576Y-98903668D01*
X160717574Y-98903669D01*
X160544489Y-99024864D01*
X160544486Y-99024866D01*
X160539978Y-99028023D01*
X160382782Y-99185219D01*
X160379625Y-99189727D01*
X160379623Y-99189730D01*
X160258428Y-99362815D01*
X160258427Y-99362817D01*
X160255271Y-99367324D01*
X160252948Y-99372306D01*
X160252945Y-99372311D01*
X160224378Y-99433574D01*
X160161319Y-99568804D01*
X160103781Y-99783537D01*
X160084406Y-100005000D01*
X160103781Y-100226463D01*
X160161319Y-100441196D01*
X160163641Y-100446177D01*
X160163642Y-100446178D01*
X160252945Y-100637689D01*
X160252948Y-100637694D01*
X160255271Y-100642676D01*
X160258427Y-100647183D01*
X160258428Y-100647184D01*
X160382782Y-100824781D01*
X160539978Y-100981977D01*
X160544486Y-100985134D01*
X160544489Y-100985136D01*
X160620254Y-101038187D01*
X160722082Y-101109488D01*
X160727064Y-101111811D01*
X160727069Y-101111814D01*
X160832132Y-101160805D01*
X160885417Y-101207722D01*
X160904878Y-101275999D01*
X160884336Y-101343959D01*
X160832132Y-101389195D01*
X160727070Y-101438186D01*
X160727065Y-101438189D01*
X160722083Y-101440512D01*
X160717576Y-101443668D01*
X160717574Y-101443669D01*
X160544489Y-101564864D01*
X160544486Y-101564866D01*
X160539978Y-101568023D01*
X160382782Y-101725219D01*
X160379625Y-101729727D01*
X160379623Y-101729730D01*
X160258428Y-101902815D01*
X160258427Y-101902817D01*
X160255271Y-101907324D01*
X160252948Y-101912306D01*
X160252945Y-101912311D01*
X160224378Y-101973574D01*
X160161319Y-102108804D01*
X160103781Y-102323537D01*
X160084406Y-102545000D01*
X160103781Y-102766463D01*
X160161319Y-102981196D01*
X160163641Y-102986177D01*
X160163642Y-102986178D01*
X160252945Y-103177689D01*
X160252948Y-103177694D01*
X160255271Y-103182676D01*
X160258427Y-103187183D01*
X160258428Y-103187184D01*
X160382782Y-103364781D01*
X160539978Y-103521977D01*
X160544486Y-103525134D01*
X160544489Y-103525136D01*
X160620254Y-103578187D01*
X160722082Y-103649488D01*
X160727064Y-103651811D01*
X160727069Y-103651814D01*
X160832132Y-103700805D01*
X160885417Y-103747722D01*
X160904878Y-103815999D01*
X160884336Y-103883959D01*
X160832132Y-103929195D01*
X160727070Y-103978186D01*
X160727065Y-103978189D01*
X160722083Y-103980512D01*
X160717576Y-103983668D01*
X160717574Y-103983669D01*
X160544489Y-104104864D01*
X160544486Y-104104866D01*
X160539978Y-104108023D01*
X160382782Y-104265219D01*
X160379625Y-104269727D01*
X160379623Y-104269730D01*
X160258428Y-104442815D01*
X160258427Y-104442817D01*
X160255271Y-104447324D01*
X160252948Y-104452306D01*
X160252945Y-104452311D01*
X160195098Y-104576365D01*
X160161319Y-104648804D01*
X160103781Y-104863537D01*
X160084406Y-105085000D01*
X160103781Y-105306463D01*
X160161319Y-105521196D01*
X160163641Y-105526177D01*
X160163642Y-105526178D01*
X160252945Y-105717689D01*
X160252948Y-105717694D01*
X160255271Y-105722676D01*
X160258427Y-105727183D01*
X160258428Y-105727184D01*
X160382782Y-105904781D01*
X160539978Y-106061977D01*
X160544486Y-106065134D01*
X160544489Y-106065136D01*
X160620254Y-106118187D01*
X160722082Y-106189488D01*
X160727064Y-106191811D01*
X160727069Y-106191814D01*
X160832132Y-106240805D01*
X160885417Y-106287722D01*
X160904878Y-106355999D01*
X160884336Y-106423959D01*
X160832132Y-106469195D01*
X160727070Y-106518186D01*
X160727065Y-106518189D01*
X160722083Y-106520512D01*
X160717576Y-106523668D01*
X160717574Y-106523669D01*
X160544489Y-106644864D01*
X160544486Y-106644866D01*
X160539978Y-106648023D01*
X160382782Y-106805219D01*
X160379625Y-106809727D01*
X160379623Y-106809730D01*
X160258428Y-106982815D01*
X160258427Y-106982817D01*
X160255271Y-106987324D01*
X160252948Y-106992306D01*
X160252945Y-106992311D01*
X160224378Y-107053574D01*
X160161319Y-107188804D01*
X160103781Y-107403537D01*
X160084406Y-107625000D01*
X160103781Y-107846463D01*
X160161319Y-108061196D01*
X160163641Y-108066177D01*
X160163642Y-108066178D01*
X160252945Y-108257689D01*
X160252948Y-108257694D01*
X160255271Y-108262676D01*
X160258427Y-108267183D01*
X160258428Y-108267185D01*
X160317535Y-108351598D01*
X160382782Y-108444781D01*
X160539978Y-108601977D01*
X160544486Y-108605134D01*
X160544489Y-108605136D01*
X160572671Y-108624869D01*
X160722082Y-108729488D01*
X160727064Y-108731811D01*
X160727069Y-108731814D01*
X160889609Y-108807607D01*
X160923563Y-108823440D01*
X160928871Y-108824862D01*
X160928873Y-108824863D01*
X160994708Y-108842503D01*
X161138296Y-108880978D01*
X161359759Y-108900353D01*
X161581222Y-108880978D01*
X161724810Y-108842503D01*
X161790645Y-108824863D01*
X161790647Y-108824862D01*
X161795955Y-108823440D01*
X161829909Y-108807607D01*
X161992449Y-108731814D01*
X161992454Y-108731811D01*
X161997436Y-108729488D01*
X162146847Y-108624869D01*
X162175029Y-108605136D01*
X162175032Y-108605134D01*
X162179540Y-108601977D01*
X162196517Y-108585000D01*
X163151502Y-108585000D01*
X163171457Y-108813087D01*
X163172881Y-108818400D01*
X163172881Y-108818402D01*
X163224408Y-109010700D01*
X163230716Y-109034243D01*
X163233039Y-109039224D01*
X163233039Y-109039225D01*
X163325151Y-109236762D01*
X163325154Y-109236767D01*
X163327477Y-109241749D01*
X163330634Y-109246257D01*
X163438829Y-109400775D01*
X163458802Y-109429300D01*
X163620700Y-109591198D01*
X163625208Y-109594355D01*
X163625211Y-109594357D01*
X163703389Y-109649098D01*
X163808251Y-109722523D01*
X163813233Y-109724846D01*
X163813238Y-109724849D01*
X163947544Y-109787476D01*
X164015757Y-109819284D01*
X164021065Y-109820706D01*
X164021067Y-109820707D01*
X164231598Y-109877119D01*
X164231600Y-109877119D01*
X164236913Y-109878543D01*
X164465000Y-109898498D01*
X164693087Y-109878543D01*
X164698400Y-109877119D01*
X164698402Y-109877119D01*
X164908933Y-109820707D01*
X164908935Y-109820706D01*
X164914243Y-109819284D01*
X164982456Y-109787476D01*
X165116762Y-109724849D01*
X165116767Y-109724846D01*
X165121749Y-109722523D01*
X165226611Y-109649098D01*
X165304789Y-109594357D01*
X165304792Y-109594355D01*
X165309300Y-109591198D01*
X165471198Y-109429300D01*
X165491172Y-109400775D01*
X165599366Y-109246257D01*
X165602523Y-109241749D01*
X165604846Y-109236767D01*
X165604849Y-109236762D01*
X165696961Y-109039225D01*
X165696961Y-109039224D01*
X165699284Y-109034243D01*
X165705593Y-109010700D01*
X165757119Y-108818402D01*
X165757119Y-108818400D01*
X165758543Y-108813087D01*
X165778498Y-108585000D01*
X165758543Y-108356913D01*
X165757119Y-108351598D01*
X165700707Y-108141067D01*
X165700706Y-108141065D01*
X165699284Y-108135757D01*
X165662040Y-108055886D01*
X165604849Y-107933238D01*
X165604846Y-107933233D01*
X165602523Y-107928251D01*
X165471198Y-107740700D01*
X165309300Y-107578802D01*
X165304792Y-107575645D01*
X165304789Y-107575643D01*
X165226611Y-107520902D01*
X165121749Y-107447477D01*
X165116767Y-107445154D01*
X165116762Y-107445151D01*
X164919225Y-107353039D01*
X164919224Y-107353039D01*
X164914243Y-107350716D01*
X164908935Y-107349294D01*
X164908933Y-107349293D01*
X164698402Y-107292881D01*
X164698400Y-107292881D01*
X164693087Y-107291457D01*
X164465000Y-107271502D01*
X164236913Y-107291457D01*
X164231600Y-107292881D01*
X164231598Y-107292881D01*
X164021067Y-107349293D01*
X164021065Y-107349294D01*
X164015757Y-107350716D01*
X164010776Y-107353039D01*
X164010775Y-107353039D01*
X163813238Y-107445151D01*
X163813233Y-107445154D01*
X163808251Y-107447477D01*
X163703389Y-107520902D01*
X163625211Y-107575643D01*
X163625208Y-107575645D01*
X163620700Y-107578802D01*
X163458802Y-107740700D01*
X163327477Y-107928251D01*
X163325154Y-107933233D01*
X163325151Y-107933238D01*
X163267960Y-108055886D01*
X163230716Y-108135757D01*
X163229294Y-108141065D01*
X163229293Y-108141067D01*
X163172881Y-108351598D01*
X163171457Y-108356913D01*
X163151502Y-108585000D01*
X162196517Y-108585000D01*
X162336736Y-108444781D01*
X162401984Y-108351598D01*
X162461090Y-108267185D01*
X162461091Y-108267183D01*
X162464247Y-108262676D01*
X162466570Y-108257694D01*
X162466573Y-108257689D01*
X162555876Y-108066178D01*
X162555877Y-108066177D01*
X162558199Y-108061196D01*
X162615737Y-107846463D01*
X162635112Y-107625000D01*
X162615737Y-107403537D01*
X162558199Y-107188804D01*
X162495140Y-107053574D01*
X162466573Y-106992311D01*
X162466570Y-106992306D01*
X162464247Y-106987324D01*
X162461091Y-106982817D01*
X162461090Y-106982815D01*
X162339895Y-106809730D01*
X162339893Y-106809727D01*
X162336736Y-106805219D01*
X162179540Y-106648023D01*
X162175032Y-106644866D01*
X162175029Y-106644864D01*
X162099264Y-106591813D01*
X161997436Y-106520512D01*
X161992454Y-106518189D01*
X161992449Y-106518186D01*
X161887386Y-106469195D01*
X161834101Y-106422278D01*
X161814640Y-106354001D01*
X161835182Y-106286041D01*
X161887386Y-106240805D01*
X161992449Y-106191814D01*
X161992454Y-106191811D01*
X161997436Y-106189488D01*
X162099264Y-106118187D01*
X162175029Y-106065136D01*
X162175032Y-106065134D01*
X162179540Y-106061977D01*
X162336736Y-105904781D01*
X162461091Y-105727184D01*
X162461091Y-105727183D01*
X162464247Y-105722676D01*
X162466570Y-105717694D01*
X162466573Y-105717689D01*
X162555876Y-105526178D01*
X162555877Y-105526177D01*
X162558199Y-105521196D01*
X162615737Y-105306463D01*
X162635112Y-105085000D01*
X162615737Y-104863537D01*
X162558199Y-104648804D01*
X162524420Y-104576365D01*
X162466573Y-104452311D01*
X162466570Y-104452306D01*
X162464247Y-104447324D01*
X162461091Y-104442817D01*
X162461090Y-104442815D01*
X162339895Y-104269730D01*
X162339893Y-104269727D01*
X162336736Y-104265219D01*
X162179540Y-104108023D01*
X162175032Y-104104866D01*
X162175029Y-104104864D01*
X162099264Y-104051813D01*
X161997436Y-103980512D01*
X161992454Y-103978189D01*
X161992449Y-103978186D01*
X161887386Y-103929195D01*
X161834101Y-103882278D01*
X161814640Y-103814001D01*
X161835182Y-103746041D01*
X161887386Y-103700805D01*
X161992449Y-103651814D01*
X161992454Y-103651811D01*
X161997436Y-103649488D01*
X162099264Y-103578187D01*
X162175029Y-103525136D01*
X162175032Y-103525134D01*
X162179540Y-103521977D01*
X162336736Y-103364781D01*
X162461091Y-103187184D01*
X162461091Y-103187183D01*
X162464247Y-103182676D01*
X162466570Y-103177694D01*
X162466573Y-103177689D01*
X162555876Y-102986178D01*
X162555877Y-102986177D01*
X162558199Y-102981196D01*
X162615737Y-102766463D01*
X162635112Y-102545000D01*
X162615737Y-102323537D01*
X162558199Y-102108804D01*
X162495140Y-101973574D01*
X162466573Y-101912311D01*
X162466570Y-101912306D01*
X162464247Y-101907324D01*
X162461091Y-101902817D01*
X162461090Y-101902815D01*
X162339895Y-101729730D01*
X162339893Y-101729727D01*
X162336736Y-101725219D01*
X162179540Y-101568023D01*
X162175032Y-101564866D01*
X162175029Y-101564864D01*
X162099264Y-101511813D01*
X161997436Y-101440512D01*
X161992454Y-101438189D01*
X161992449Y-101438186D01*
X161887386Y-101389195D01*
X161834101Y-101342278D01*
X161814640Y-101274001D01*
X161835182Y-101206041D01*
X161887386Y-101160805D01*
X161992449Y-101111814D01*
X161992454Y-101111811D01*
X161997436Y-101109488D01*
X162099264Y-101038187D01*
X162175029Y-100985136D01*
X162175032Y-100985134D01*
X162179540Y-100981977D01*
X162336736Y-100824781D01*
X162461091Y-100647184D01*
X162461091Y-100647183D01*
X162464247Y-100642676D01*
X162466570Y-100637694D01*
X162466573Y-100637689D01*
X162555876Y-100446178D01*
X162555877Y-100446177D01*
X162558199Y-100441196D01*
X162615737Y-100226463D01*
X162635112Y-100005000D01*
X162615737Y-99783537D01*
X162558199Y-99568804D01*
X162495140Y-99433574D01*
X162466573Y-99372311D01*
X162466570Y-99372306D01*
X162464247Y-99367324D01*
X162461091Y-99362817D01*
X162461090Y-99362815D01*
X162339895Y-99189730D01*
X162339893Y-99189727D01*
X162336736Y-99185219D01*
X162179540Y-99028023D01*
X162175032Y-99024866D01*
X162175029Y-99024864D01*
X162099264Y-98971813D01*
X161997436Y-98900512D01*
X161992454Y-98898189D01*
X161992449Y-98898186D01*
X161887386Y-98849195D01*
X161834101Y-98802278D01*
X161814640Y-98734001D01*
X161835182Y-98666041D01*
X161887386Y-98620805D01*
X161992449Y-98571814D01*
X161992454Y-98571811D01*
X161997436Y-98569488D01*
X162107352Y-98492524D01*
X162175029Y-98445136D01*
X162175032Y-98445134D01*
X162179540Y-98441977D01*
X162336736Y-98284781D01*
X162358936Y-98253077D01*
X162461090Y-98107185D01*
X162461091Y-98107183D01*
X162464247Y-98102676D01*
X162466570Y-98097694D01*
X162466573Y-98097689D01*
X162555876Y-97906178D01*
X162555877Y-97906177D01*
X162558199Y-97901196D01*
X162615737Y-97686463D01*
X162635112Y-97465000D01*
X162615737Y-97243537D01*
X162558199Y-97028804D01*
X162536603Y-96982491D01*
X162531274Y-96971062D01*
X163743493Y-96971062D01*
X163752789Y-96983077D01*
X163803994Y-97018931D01*
X163813489Y-97024414D01*
X164010947Y-97116490D01*
X164021239Y-97120236D01*
X164231688Y-97176625D01*
X164242481Y-97178528D01*
X164459525Y-97197517D01*
X164470475Y-97197517D01*
X164687519Y-97178528D01*
X164698312Y-97176625D01*
X164908761Y-97120236D01*
X164919053Y-97116490D01*
X165116511Y-97024414D01*
X165126006Y-97018931D01*
X165178048Y-96982491D01*
X165186424Y-96972012D01*
X165179356Y-96958566D01*
X164477812Y-96257022D01*
X164463868Y-96249408D01*
X164462035Y-96249539D01*
X164455420Y-96253790D01*
X163749923Y-96959287D01*
X163743493Y-96971062D01*
X162531274Y-96971062D01*
X162466573Y-96832311D01*
X162466570Y-96832306D01*
X162464247Y-96827324D01*
X162461091Y-96822817D01*
X162461090Y-96822815D01*
X162339895Y-96649730D01*
X162339893Y-96649727D01*
X162336736Y-96645219D01*
X162179540Y-96488023D01*
X162175032Y-96484866D01*
X162175029Y-96484864D01*
X162099264Y-96431813D01*
X161997436Y-96360512D01*
X161992454Y-96358189D01*
X161992449Y-96358186D01*
X161887386Y-96309195D01*
X161834101Y-96262278D01*
X161814640Y-96194001D01*
X161835182Y-96126041D01*
X161887386Y-96080805D01*
X161992449Y-96031814D01*
X161992454Y-96031811D01*
X161997436Y-96029488D01*
X162154138Y-95919764D01*
X162175029Y-95905136D01*
X162175032Y-95905134D01*
X162179540Y-95901977D01*
X162191042Y-95890475D01*
X163152483Y-95890475D01*
X163171472Y-96107519D01*
X163173375Y-96118312D01*
X163229764Y-96328761D01*
X163233510Y-96339053D01*
X163325586Y-96536511D01*
X163331069Y-96546006D01*
X163367509Y-96598048D01*
X163377988Y-96606424D01*
X163391434Y-96599356D01*
X164092978Y-95897812D01*
X164099356Y-95886132D01*
X164829408Y-95886132D01*
X164829539Y-95887965D01*
X164833790Y-95894580D01*
X165539287Y-96600077D01*
X165551062Y-96606507D01*
X165563077Y-96597211D01*
X165598931Y-96546006D01*
X165604414Y-96536511D01*
X165696490Y-96339053D01*
X165700236Y-96328761D01*
X165756625Y-96118312D01*
X165758528Y-96107519D01*
X165777517Y-95890475D01*
X165777517Y-95879525D01*
X165758528Y-95662481D01*
X165756625Y-95651688D01*
X165700236Y-95441239D01*
X165696490Y-95430947D01*
X165604414Y-95233489D01*
X165598931Y-95223994D01*
X165562491Y-95171952D01*
X165552012Y-95163576D01*
X165538566Y-95170644D01*
X164837022Y-95872188D01*
X164829408Y-95886132D01*
X164099356Y-95886132D01*
X164100592Y-95883868D01*
X164100461Y-95882035D01*
X164096210Y-95875420D01*
X163390713Y-95169923D01*
X163378938Y-95163493D01*
X163366923Y-95172789D01*
X163331069Y-95223994D01*
X163325586Y-95233489D01*
X163233510Y-95430947D01*
X163229764Y-95441239D01*
X163173375Y-95651688D01*
X163171472Y-95662481D01*
X163152483Y-95879525D01*
X163152483Y-95890475D01*
X162191042Y-95890475D01*
X162336736Y-95744781D01*
X162401921Y-95651688D01*
X162461090Y-95567185D01*
X162461091Y-95567183D01*
X162464247Y-95562676D01*
X162466570Y-95557694D01*
X162466573Y-95557689D01*
X162555876Y-95366178D01*
X162555877Y-95366177D01*
X162558199Y-95361196D01*
X162615737Y-95146463D01*
X162635112Y-94925000D01*
X162624000Y-94797988D01*
X163743576Y-94797988D01*
X163750644Y-94811434D01*
X164452188Y-95512978D01*
X164466132Y-95520592D01*
X164467965Y-95520461D01*
X164474580Y-95516210D01*
X165180077Y-94810713D01*
X165186507Y-94798938D01*
X165177211Y-94786923D01*
X165126006Y-94751069D01*
X165116511Y-94745586D01*
X164919053Y-94653510D01*
X164908761Y-94649764D01*
X164698312Y-94593375D01*
X164687519Y-94591472D01*
X164470475Y-94572483D01*
X164459525Y-94572483D01*
X164242481Y-94591472D01*
X164231688Y-94593375D01*
X164021239Y-94649764D01*
X164010947Y-94653510D01*
X163813489Y-94745586D01*
X163803994Y-94751069D01*
X163751952Y-94787509D01*
X163743576Y-94797988D01*
X162624000Y-94797988D01*
X162615737Y-94703537D01*
X162558199Y-94488804D01*
X162495140Y-94353574D01*
X162466573Y-94292311D01*
X162466570Y-94292306D01*
X162464247Y-94287324D01*
X162461091Y-94282817D01*
X162461090Y-94282815D01*
X162339895Y-94109730D01*
X162339893Y-94109727D01*
X162336736Y-94105219D01*
X162179540Y-93948023D01*
X162175032Y-93944866D01*
X162175029Y-93944864D01*
X162099264Y-93891813D01*
X161997436Y-93820512D01*
X161992454Y-93818189D01*
X161992449Y-93818186D01*
X161887386Y-93769195D01*
X161834101Y-93722278D01*
X161814640Y-93654001D01*
X161835182Y-93586041D01*
X161887386Y-93540805D01*
X161992449Y-93491814D01*
X161992454Y-93491811D01*
X161997436Y-93489488D01*
X162162218Y-93374106D01*
X162175029Y-93365136D01*
X162175032Y-93365134D01*
X162179540Y-93361977D01*
X162336736Y-93204781D01*
X162344371Y-93193878D01*
X162461090Y-93027185D01*
X162461091Y-93027183D01*
X162464247Y-93022676D01*
X162466570Y-93017694D01*
X162466573Y-93017689D01*
X162555876Y-92826178D01*
X162555877Y-92826177D01*
X162558199Y-92821196D01*
X162615737Y-92606463D01*
X162635112Y-92385000D01*
X162615737Y-92163537D01*
X162558199Y-91948804D01*
X162495140Y-91813574D01*
X162466573Y-91752311D01*
X162466570Y-91752306D01*
X162464247Y-91747324D01*
X162461091Y-91742817D01*
X162461090Y-91742815D01*
X162339895Y-91569730D01*
X162339893Y-91569727D01*
X162336736Y-91565219D01*
X162179540Y-91408023D01*
X162175032Y-91404866D01*
X162175029Y-91404864D01*
X162099264Y-91351813D01*
X161997436Y-91280512D01*
X161992454Y-91278189D01*
X161992449Y-91278186D01*
X161887386Y-91229195D01*
X161834101Y-91182278D01*
X161814640Y-91114001D01*
X161835182Y-91046041D01*
X161887386Y-91000805D01*
X161992449Y-90951814D01*
X161992454Y-90951811D01*
X161997436Y-90949488D01*
X162099264Y-90878187D01*
X162175029Y-90825136D01*
X162175032Y-90825134D01*
X162179540Y-90821977D01*
X162336736Y-90664781D01*
X162461091Y-90487184D01*
X162461091Y-90487183D01*
X162464247Y-90482676D01*
X162466570Y-90477694D01*
X162466573Y-90477689D01*
X162555876Y-90286178D01*
X162555877Y-90286177D01*
X162558199Y-90281196D01*
X162615737Y-90066463D01*
X162635112Y-89845000D01*
X162615737Y-89623537D01*
X162558199Y-89408804D01*
X162495140Y-89273574D01*
X162466573Y-89212311D01*
X162466570Y-89212306D01*
X162464247Y-89207324D01*
X162461091Y-89202817D01*
X162461090Y-89202815D01*
X162339895Y-89029730D01*
X162339893Y-89029727D01*
X162336736Y-89025219D01*
X162179540Y-88868023D01*
X162175032Y-88864866D01*
X162175029Y-88864864D01*
X162099264Y-88811813D01*
X161997436Y-88740512D01*
X161992454Y-88738189D01*
X161992449Y-88738186D01*
X161887386Y-88689195D01*
X161834101Y-88642278D01*
X161814640Y-88574001D01*
X161835182Y-88506041D01*
X161887386Y-88460805D01*
X161992449Y-88411814D01*
X161992454Y-88411811D01*
X161997436Y-88409488D01*
X162099264Y-88338187D01*
X162175029Y-88285136D01*
X162175032Y-88285134D01*
X162179540Y-88281977D01*
X162336736Y-88124781D01*
X162461091Y-87947184D01*
X162461091Y-87947183D01*
X162464247Y-87942676D01*
X162466570Y-87937694D01*
X162466573Y-87937689D01*
X162555876Y-87746178D01*
X162555877Y-87746177D01*
X162558199Y-87741196D01*
X162615737Y-87526463D01*
X162635112Y-87305000D01*
X162615737Y-87083537D01*
X162558199Y-86868804D01*
X162495140Y-86733574D01*
X162466573Y-86672311D01*
X162466570Y-86672306D01*
X162464247Y-86667324D01*
X162461091Y-86662817D01*
X162461090Y-86662815D01*
X162339895Y-86489730D01*
X162339893Y-86489727D01*
X162336736Y-86485219D01*
X162179540Y-86328023D01*
X162175032Y-86324866D01*
X162175029Y-86324864D01*
X162079420Y-86257918D01*
X161997436Y-86200512D01*
X161992454Y-86198189D01*
X161992449Y-86198186D01*
X161929047Y-86168622D01*
X161895523Y-86152989D01*
X161842239Y-86106073D01*
X161822778Y-86037796D01*
X161843320Y-85969836D01*
X161896723Y-85924049D01*
X161936376Y-85906062D01*
X161936382Y-85906059D01*
X161939587Y-85904605D01*
X162014443Y-85859982D01*
X162083403Y-85818874D01*
X162083405Y-85818873D01*
X162086429Y-85817070D01*
X162111296Y-85798195D01*
X162174848Y-85749957D01*
X162174855Y-85749951D01*
X162177656Y-85747825D01*
X162183797Y-85741977D01*
X162298909Y-85632358D01*
X162298914Y-85632353D01*
X162301456Y-85629932D01*
X162375075Y-85542197D01*
X162377020Y-85539270D01*
X162467729Y-85402742D01*
X162467734Y-85402733D01*
X162469679Y-85399806D01*
X162522030Y-85297942D01*
X162544976Y-85237537D01*
X162581488Y-85141419D01*
X162581490Y-85141413D01*
X162582737Y-85138130D01*
X162584436Y-85131515D01*
X162610347Y-85030594D01*
X162611219Y-85027198D01*
X162613218Y-85012978D01*
X162634735Y-84859872D01*
X162634735Y-84859871D01*
X162635011Y-84857908D01*
X162635208Y-84855356D01*
X162639811Y-84795532D01*
X162639961Y-84793584D01*
X162640260Y-84772173D01*
X162639866Y-84764103D01*
X162638028Y-84726543D01*
X162637108Y-84707735D01*
X162634190Y-84681716D01*
X162618444Y-84541339D01*
X162618443Y-84541334D01*
X162618052Y-84537847D01*
X162611591Y-84509406D01*
X162593459Y-84429596D01*
X162593458Y-84429591D01*
X162592679Y-84426164D01*
X162536458Y-84264719D01*
X162486970Y-84161431D01*
X162396378Y-84016454D01*
X162366130Y-83978291D01*
X162327424Y-83929455D01*
X162327418Y-83929448D01*
X162325239Y-83926699D01*
X162322767Y-83924210D01*
X162322762Y-83924204D01*
X162207258Y-83807891D01*
X162207255Y-83807888D01*
X162204780Y-83805396D01*
X162183172Y-83788023D01*
X162118278Y-83735846D01*
X162118275Y-83735844D01*
X162115524Y-83733632D01*
X162112549Y-83731744D01*
X162112542Y-83731739D01*
X161974157Y-83643917D01*
X161974152Y-83643914D01*
X161971183Y-83642030D01*
X161941594Y-83627599D01*
X161893846Y-83604310D01*
X161841388Y-83556470D01*
X161823122Y-83487863D01*
X161844847Y-83420272D01*
X161895831Y-83376867D01*
X161992449Y-83331814D01*
X161992454Y-83331811D01*
X161997436Y-83329488D01*
X162099264Y-83258187D01*
X162175029Y-83205136D01*
X162175032Y-83205134D01*
X162179540Y-83201977D01*
X162336736Y-83044781D01*
X162461091Y-82867184D01*
X162461091Y-82867183D01*
X162464247Y-82862676D01*
X162466570Y-82857694D01*
X162466573Y-82857689D01*
X162555876Y-82666178D01*
X162555877Y-82666177D01*
X162558199Y-82661196D01*
X162615737Y-82446463D01*
X162635112Y-82225000D01*
X162615737Y-82003537D01*
X162558199Y-81788804D01*
X162495140Y-81653574D01*
X162466573Y-81592311D01*
X162466570Y-81592306D01*
X162464247Y-81587324D01*
X162461091Y-81582817D01*
X162461090Y-81582815D01*
X162339895Y-81409730D01*
X162339893Y-81409727D01*
X162336736Y-81405219D01*
X162179540Y-81248023D01*
X162175032Y-81244866D01*
X162175029Y-81244864D01*
X162038712Y-81149414D01*
X161997436Y-81120512D01*
X161992454Y-81118189D01*
X161992449Y-81118186D01*
X161945003Y-81096062D01*
X163743493Y-81096062D01*
X163752789Y-81108077D01*
X163803994Y-81143931D01*
X163813489Y-81149414D01*
X164010947Y-81241490D01*
X164021239Y-81245236D01*
X164231688Y-81301625D01*
X164242481Y-81303528D01*
X164459525Y-81322517D01*
X164470475Y-81322517D01*
X164687519Y-81303528D01*
X164698312Y-81301625D01*
X164908761Y-81245236D01*
X164919053Y-81241490D01*
X165116511Y-81149414D01*
X165126006Y-81143931D01*
X165178048Y-81107491D01*
X165186424Y-81097012D01*
X165179356Y-81083566D01*
X164477812Y-80382022D01*
X164463868Y-80374408D01*
X164462035Y-80374539D01*
X164455420Y-80378790D01*
X163749923Y-81084287D01*
X163743493Y-81096062D01*
X161945003Y-81096062D01*
X161918205Y-81083566D01*
X161895523Y-81072989D01*
X161842239Y-81026073D01*
X161822778Y-80957796D01*
X161843320Y-80889836D01*
X161896723Y-80844049D01*
X161936376Y-80826062D01*
X161936382Y-80826059D01*
X161939587Y-80824605D01*
X162014443Y-80779982D01*
X162083403Y-80738874D01*
X162083405Y-80738873D01*
X162086429Y-80737070D01*
X162111296Y-80718195D01*
X162174848Y-80669957D01*
X162174855Y-80669951D01*
X162177656Y-80667825D01*
X162183797Y-80661977D01*
X162298909Y-80552358D01*
X162298914Y-80552353D01*
X162301456Y-80549932D01*
X162375075Y-80462197D01*
X162428343Y-80382022D01*
X162467729Y-80322742D01*
X162467734Y-80322733D01*
X162469679Y-80319806D01*
X162508992Y-80243312D01*
X162520418Y-80221079D01*
X162520419Y-80221076D01*
X162522030Y-80217942D01*
X162544976Y-80157537D01*
X162581488Y-80061419D01*
X162581490Y-80061413D01*
X162582737Y-80058130D01*
X162584436Y-80051515D01*
X162593689Y-80015475D01*
X163152483Y-80015475D01*
X163171472Y-80232519D01*
X163173375Y-80243312D01*
X163229764Y-80453761D01*
X163233510Y-80464053D01*
X163325586Y-80661511D01*
X163331069Y-80671006D01*
X163367509Y-80723048D01*
X163377988Y-80731424D01*
X163391434Y-80724356D01*
X164092978Y-80022812D01*
X164099356Y-80011132D01*
X164829408Y-80011132D01*
X164829539Y-80012965D01*
X164833790Y-80019580D01*
X165539287Y-80725077D01*
X165551062Y-80731507D01*
X165563077Y-80722211D01*
X165598931Y-80671006D01*
X165604414Y-80661511D01*
X165696490Y-80464053D01*
X165700236Y-80453761D01*
X165756625Y-80243312D01*
X165758528Y-80232519D01*
X165777517Y-80015475D01*
X165777517Y-80004525D01*
X165758528Y-79787481D01*
X165756625Y-79776688D01*
X165700236Y-79566239D01*
X165696490Y-79555947D01*
X165604414Y-79358489D01*
X165598931Y-79348994D01*
X165562491Y-79296952D01*
X165552012Y-79288576D01*
X165538566Y-79295644D01*
X164837022Y-79997188D01*
X164829408Y-80011132D01*
X164099356Y-80011132D01*
X164100592Y-80008868D01*
X164100461Y-80007035D01*
X164096210Y-80000420D01*
X163390713Y-79294923D01*
X163378938Y-79288493D01*
X163366923Y-79297789D01*
X163331069Y-79348994D01*
X163325586Y-79358489D01*
X163233510Y-79555947D01*
X163229764Y-79566239D01*
X163173375Y-79776688D01*
X163171472Y-79787481D01*
X163152483Y-80004525D01*
X163152483Y-80015475D01*
X162593689Y-80015475D01*
X162610347Y-79950594D01*
X162611219Y-79947198D01*
X162613218Y-79932978D01*
X162634735Y-79779872D01*
X162634735Y-79779871D01*
X162635011Y-79777908D01*
X162635208Y-79775356D01*
X162639811Y-79715532D01*
X162639961Y-79713584D01*
X162640260Y-79692173D01*
X162639866Y-79684103D01*
X162637609Y-79637978D01*
X162637108Y-79627735D01*
X162634190Y-79601716D01*
X162618444Y-79461339D01*
X162618443Y-79461334D01*
X162618052Y-79457847D01*
X162611591Y-79429406D01*
X162593459Y-79349596D01*
X162593458Y-79349591D01*
X162592679Y-79346164D01*
X162536458Y-79184719D01*
X162486970Y-79081431D01*
X162396378Y-78936454D01*
X162385705Y-78922988D01*
X163743576Y-78922988D01*
X163750644Y-78936434D01*
X164452188Y-79637978D01*
X164466132Y-79645592D01*
X164467965Y-79645461D01*
X164474580Y-79641210D01*
X165180077Y-78935713D01*
X165186507Y-78923938D01*
X165177211Y-78911923D01*
X165126006Y-78876069D01*
X165116511Y-78870586D01*
X164919053Y-78778510D01*
X164908761Y-78774764D01*
X164698312Y-78718375D01*
X164687519Y-78716472D01*
X164470475Y-78697483D01*
X164459525Y-78697483D01*
X164242481Y-78716472D01*
X164231688Y-78718375D01*
X164021239Y-78774764D01*
X164010947Y-78778510D01*
X163813489Y-78870586D01*
X163803994Y-78876069D01*
X163751952Y-78912509D01*
X163743576Y-78922988D01*
X162385705Y-78922988D01*
X162366130Y-78898291D01*
X162327424Y-78849455D01*
X162327418Y-78849448D01*
X162325239Y-78846699D01*
X162322767Y-78844210D01*
X162322762Y-78844204D01*
X162207258Y-78727891D01*
X162207255Y-78727888D01*
X162204780Y-78725396D01*
X162183172Y-78708023D01*
X162118278Y-78655846D01*
X162118275Y-78655844D01*
X162115524Y-78653632D01*
X162112549Y-78651744D01*
X162112542Y-78651739D01*
X161974157Y-78563917D01*
X161974152Y-78563914D01*
X161971183Y-78562030D01*
X161885363Y-78520173D01*
X161871413Y-78513369D01*
X161871411Y-78513368D01*
X161868243Y-78511823D01*
X161864925Y-78510641D01*
X161864919Y-78510639D01*
X161787902Y-78483215D01*
X161707194Y-78454476D01*
X161688972Y-78450202D01*
X161599122Y-78429128D01*
X161599119Y-78429127D01*
X161595689Y-78428323D01*
X161487814Y-78415460D01*
X161429420Y-78408497D01*
X161429417Y-78408497D01*
X161425938Y-78408082D01*
X161422438Y-78408058D01*
X161422430Y-78408057D01*
X161360211Y-78407622D01*
X161311426Y-78407281D01*
X161299854Y-78408497D01*
X161299054Y-78408581D01*
X161285887Y-78409271D01*
X160802352Y-78409271D01*
X160789995Y-78407931D01*
X160789972Y-78408243D01*
X160780991Y-78407583D01*
X160772197Y-78405652D01*
X160763215Y-78406275D01*
X160763213Y-78406275D01*
X160720997Y-78409204D01*
X160715450Y-78408801D01*
X160715461Y-78408951D01*
X160711197Y-78409256D01*
X160711197Y-78409271D01*
X160706482Y-78409271D01*
X160702034Y-78409910D01*
X160702019Y-78409911D01*
X160698401Y-78410431D01*
X160689210Y-78411409D01*
X160630816Y-78415460D01*
X160630810Y-78415461D01*
X160626325Y-78415772D01*
X160621925Y-78416719D01*
X160621920Y-78416720D01*
X160603069Y-78420779D01*
X160602681Y-78418976D01*
X160585092Y-78423426D01*
X160585344Y-78424595D01*
X160555682Y-78430981D01*
X160555668Y-78430984D01*
X160553469Y-78431458D01*
X160551303Y-78432090D01*
X160489219Y-78450202D01*
X160489218Y-78450203D01*
X160482724Y-78452097D01*
X160476783Y-78455331D01*
X160476782Y-78455331D01*
X160425551Y-78483215D01*
X160417602Y-78487184D01*
X160375819Y-78506241D01*
X160369005Y-78512137D01*
X160365407Y-78514446D01*
X160357982Y-78519992D01*
X160354293Y-78522000D01*
X160353796Y-78522371D01*
X160297844Y-78570788D01*
X160294641Y-78573991D01*
X160294283Y-78573633D01*
X160285860Y-78584078D01*
X160268653Y-78598966D01*
X160268649Y-78598970D01*
X160265243Y-78601917D01*
X160258511Y-78609675D01*
X160258504Y-78609683D01*
X160252434Y-78616198D01*
X159643217Y-79225415D01*
X159643635Y-79225833D01*
X159641046Y-79229287D01*
X159573165Y-79296973D01*
X159539442Y-79358489D01*
X159526801Y-79381547D01*
X159523704Y-79385999D01*
X159523151Y-79385697D01*
X159509600Y-79410501D01*
X159508026Y-79414715D01*
X159506159Y-79418800D01*
X159506153Y-79418797D01*
X159506081Y-79418973D01*
X159505040Y-79421242D01*
X159502874Y-79425193D01*
X159492950Y-79451665D01*
X159493542Y-79451887D01*
X159492693Y-79455770D01*
X159490613Y-79461339D01*
X159483270Y-79480998D01*
X159480646Y-79486225D01*
X159480075Y-79486011D01*
X159476716Y-79494971D01*
X159475751Y-79499369D01*
X159474504Y-79503587D01*
X159471705Y-79511963D01*
X159458522Y-79547260D01*
X159457874Y-79556237D01*
X159455885Y-79583775D01*
X159453281Y-79601716D01*
X159447342Y-79628767D01*
X159447342Y-79628773D01*
X159445412Y-79637562D01*
X159446035Y-79646542D01*
X159446035Y-79646543D01*
X159448023Y-79675204D01*
X159448032Y-79684111D01*
X159448318Y-79684111D01*
X159448315Y-79688617D01*
X159447991Y-79693103D01*
X159448667Y-79702646D01*
X159449281Y-79702602D01*
X159450228Y-79706987D01*
X159452085Y-79733749D01*
X159451883Y-79739175D01*
X159451256Y-79739219D01*
X159453252Y-79767414D01*
X159454205Y-79771816D01*
X159454840Y-79776257D01*
X159454836Y-79776258D01*
X159454866Y-79776434D01*
X159455220Y-79778934D01*
X159455532Y-79783434D01*
X159461482Y-79811070D01*
X159462098Y-79810938D01*
X159463483Y-79814668D01*
X159469184Y-79841002D01*
X159469800Y-79846806D01*
X159469203Y-79846935D01*
X159471217Y-79856289D01*
X159471849Y-79858454D01*
X159474924Y-79868996D01*
X159477113Y-79877619D01*
X159484140Y-79910075D01*
X159488447Y-79917986D01*
X159489035Y-79919567D01*
X159490691Y-79923041D01*
X159491856Y-79927035D01*
X159561759Y-80055466D01*
X159562130Y-80055963D01*
X159598399Y-80097876D01*
X159598654Y-80098218D01*
X159598961Y-80098526D01*
X159599713Y-80099395D01*
X159599714Y-80099397D01*
X159609048Y-80110183D01*
X159610547Y-80111915D01*
X159630174Y-80131542D01*
X159630592Y-80131124D01*
X159634045Y-80133711D01*
X159653339Y-80153061D01*
X159656597Y-80157109D01*
X159656169Y-80157537D01*
X160216827Y-80718195D01*
X160224615Y-80727878D01*
X160224853Y-80727673D01*
X160230736Y-80734490D01*
X160235590Y-80742075D01*
X160242383Y-80747987D01*
X160242386Y-80747990D01*
X160274307Y-80775770D01*
X160277950Y-80779982D01*
X160278049Y-80779868D01*
X160281273Y-80782663D01*
X160281284Y-80782652D01*
X160284620Y-80785988D01*
X160288226Y-80788689D01*
X160288227Y-80788689D01*
X160291154Y-80790881D01*
X160298349Y-80796693D01*
X160342491Y-80835108D01*
X160342497Y-80835113D01*
X160345892Y-80838067D01*
X160349674Y-80840509D01*
X160365875Y-80850970D01*
X160364874Y-80852520D01*
X160380461Y-80861814D01*
X160381111Y-80860808D01*
X160408497Y-80878491D01*
X160473219Y-80913970D01*
X160522466Y-80928492D01*
X160535515Y-80932340D01*
X160543961Y-80935159D01*
X160577741Y-80947775D01*
X160587002Y-80951234D01*
X160595082Y-80951818D01*
X160656977Y-80985663D01*
X160690965Y-81047996D01*
X160685857Y-81118809D01*
X160640098Y-81177918D01*
X160544494Y-81244860D01*
X160544488Y-81244865D01*
X160539978Y-81248023D01*
X160382782Y-81405219D01*
X160379625Y-81409727D01*
X160379623Y-81409730D01*
X160258428Y-81582815D01*
X160258427Y-81582817D01*
X160255271Y-81587324D01*
X160252948Y-81592306D01*
X160252945Y-81592311D01*
X160224378Y-81653574D01*
X160161319Y-81788804D01*
X160103781Y-82003537D01*
X160084406Y-82225000D01*
X160103781Y-82446463D01*
X160161319Y-82661196D01*
X160163641Y-82666177D01*
X160163642Y-82666178D01*
X160252945Y-82857689D01*
X160252948Y-82857694D01*
X160255271Y-82862676D01*
X160258427Y-82867183D01*
X160258428Y-82867184D01*
X160382782Y-83044781D01*
X160539978Y-83201977D01*
X160544486Y-83205134D01*
X160544489Y-83205136D01*
X160592608Y-83238829D01*
X160645765Y-83276050D01*
X160690092Y-83331506D01*
X160697401Y-83402125D01*
X160665370Y-83465486D01*
X160633643Y-83489978D01*
X160629634Y-83492156D01*
X160585092Y-83503425D01*
X160585344Y-83504595D01*
X160555682Y-83510981D01*
X160555668Y-83510984D01*
X160553469Y-83511458D01*
X160551303Y-83512090D01*
X160489219Y-83530202D01*
X160489218Y-83530203D01*
X160482724Y-83532097D01*
X160476783Y-83535331D01*
X160476782Y-83535331D01*
X160425551Y-83563215D01*
X160417602Y-83567184D01*
X160375819Y-83586241D01*
X160369005Y-83592137D01*
X160365407Y-83594446D01*
X160357982Y-83599992D01*
X160354293Y-83602000D01*
X160353796Y-83602371D01*
X160297844Y-83650788D01*
X160294641Y-83653991D01*
X160294283Y-83653633D01*
X160285860Y-83664078D01*
X160268653Y-83678966D01*
X160268649Y-83678970D01*
X160265243Y-83681917D01*
X160258511Y-83689675D01*
X160258504Y-83689683D01*
X160252434Y-83696198D01*
X159643217Y-84305415D01*
X159643635Y-84305833D01*
X159641046Y-84309287D01*
X159573165Y-84376973D01*
X159568839Y-84384864D01*
X159526801Y-84461547D01*
X159523704Y-84465999D01*
X159523151Y-84465697D01*
X159509600Y-84490501D01*
X159508026Y-84494715D01*
X159506159Y-84498800D01*
X159506153Y-84498797D01*
X159506081Y-84498973D01*
X159505040Y-84501242D01*
X159502874Y-84505193D01*
X159492950Y-84531665D01*
X159493542Y-84531887D01*
X159492693Y-84535770D01*
X159490613Y-84541339D01*
X159483270Y-84560998D01*
X159480646Y-84566225D01*
X159480075Y-84566011D01*
X159476716Y-84574971D01*
X159475751Y-84579369D01*
X159474504Y-84583587D01*
X159471705Y-84591963D01*
X159458522Y-84627260D01*
X159457874Y-84636237D01*
X159455885Y-84663775D01*
X159453281Y-84681716D01*
X159447342Y-84708767D01*
X159447342Y-84708773D01*
X159445412Y-84717562D01*
X142310962Y-84717562D01*
X142295737Y-84543537D01*
X142238199Y-84328804D01*
X142235876Y-84323822D01*
X142146573Y-84132311D01*
X142146570Y-84132306D01*
X142144247Y-84127324D01*
X142141091Y-84122817D01*
X142141090Y-84122815D01*
X142019895Y-83949730D01*
X142019893Y-83949727D01*
X142016736Y-83945219D01*
X141859540Y-83788023D01*
X141855032Y-83784866D01*
X141855029Y-83784864D01*
X141779158Y-83731739D01*
X141677436Y-83660512D01*
X141672454Y-83658189D01*
X141672449Y-83658186D01*
X141567386Y-83609195D01*
X141514101Y-83562278D01*
X141494640Y-83494001D01*
X141515182Y-83426041D01*
X141567386Y-83380805D01*
X141672449Y-83331814D01*
X141672454Y-83331811D01*
X141677436Y-83329488D01*
X141779264Y-83258187D01*
X141855029Y-83205136D01*
X141855032Y-83205134D01*
X141859540Y-83201977D01*
X142016736Y-83044781D01*
X142141091Y-82867184D01*
X142141091Y-82867183D01*
X142144247Y-82862676D01*
X142146570Y-82857694D01*
X142146573Y-82857689D01*
X142235876Y-82666178D01*
X142235877Y-82666177D01*
X142238199Y-82661196D01*
X142295737Y-82446463D01*
X142315112Y-82225000D01*
X142295737Y-82003537D01*
X142285273Y-81964484D01*
X142286963Y-81893507D01*
X142317885Y-81842778D01*
X154062253Y-70098411D01*
X154070539Y-70090871D01*
X154077018Y-70086759D01*
X154123644Y-70037107D01*
X154126398Y-70034266D01*
X154146135Y-70014529D01*
X154148615Y-70011332D01*
X154156320Y-70002310D01*
X154181159Y-69975859D01*
X154186586Y-69970080D01*
X154190405Y-69963134D01*
X154190407Y-69963131D01*
X154196348Y-69952325D01*
X154207199Y-69935806D01*
X154214758Y-69926060D01*
X154219614Y-69919800D01*
X154222759Y-69912531D01*
X154222762Y-69912527D01*
X154237174Y-69879222D01*
X154242391Y-69868572D01*
X154263695Y-69829819D01*
X154268733Y-69810196D01*
X154275137Y-69791493D01*
X154280033Y-69780179D01*
X154280033Y-69780178D01*
X154283181Y-69772904D01*
X154284420Y-69765081D01*
X154284423Y-69765071D01*
X154290099Y-69729235D01*
X154292505Y-69717615D01*
X154301528Y-69682470D01*
X154301528Y-69682469D01*
X154303500Y-69674789D01*
X154303500Y-69654535D01*
X154305051Y-69634824D01*
X154306980Y-69622645D01*
X154308220Y-69614816D01*
X154304059Y-69570797D01*
X154303500Y-69558940D01*
X154303500Y-67310000D01*
X163151502Y-67310000D01*
X163171457Y-67538087D01*
X163230716Y-67759243D01*
X163233039Y-67764224D01*
X163233039Y-67764225D01*
X163325151Y-67961762D01*
X163325154Y-67961767D01*
X163327477Y-67966749D01*
X163458802Y-68154300D01*
X163620700Y-68316198D01*
X163625208Y-68319355D01*
X163625211Y-68319357D01*
X163633466Y-68325137D01*
X163808251Y-68447523D01*
X163813233Y-68449846D01*
X163813238Y-68449849D01*
X164010775Y-68541961D01*
X164015757Y-68544284D01*
X164021065Y-68545706D01*
X164021067Y-68545707D01*
X164231598Y-68602119D01*
X164231600Y-68602119D01*
X164236913Y-68603543D01*
X164465000Y-68623498D01*
X164693087Y-68603543D01*
X164698400Y-68602119D01*
X164698402Y-68602119D01*
X164908933Y-68545707D01*
X164908935Y-68545706D01*
X164914243Y-68544284D01*
X164919225Y-68541961D01*
X165116762Y-68449849D01*
X165116767Y-68449846D01*
X165121749Y-68447523D01*
X165296534Y-68325137D01*
X165304789Y-68319357D01*
X165304792Y-68319355D01*
X165309300Y-68316198D01*
X165471198Y-68154300D01*
X165602523Y-67966749D01*
X165604846Y-67961767D01*
X165604849Y-67961762D01*
X165696961Y-67764225D01*
X165696961Y-67764224D01*
X165699284Y-67759243D01*
X165758543Y-67538087D01*
X165778498Y-67310000D01*
X165758543Y-67081913D01*
X165699284Y-66860757D01*
X165696961Y-66855775D01*
X165604849Y-66658238D01*
X165604846Y-66658233D01*
X165602523Y-66653251D01*
X165471198Y-66465700D01*
X165309300Y-66303802D01*
X165304792Y-66300645D01*
X165304789Y-66300643D01*
X165226611Y-66245902D01*
X165121749Y-66172477D01*
X165116767Y-66170154D01*
X165116762Y-66170151D01*
X164919225Y-66078039D01*
X164919224Y-66078039D01*
X164914243Y-66075716D01*
X164908935Y-66074294D01*
X164908933Y-66074293D01*
X164698402Y-66017881D01*
X164698400Y-66017881D01*
X164693087Y-66016457D01*
X164465000Y-65996502D01*
X164236913Y-66016457D01*
X164231600Y-66017881D01*
X164231598Y-66017881D01*
X164021067Y-66074293D01*
X164021065Y-66074294D01*
X164015757Y-66075716D01*
X164010776Y-66078039D01*
X164010775Y-66078039D01*
X163813238Y-66170151D01*
X163813233Y-66170154D01*
X163808251Y-66172477D01*
X163703389Y-66245902D01*
X163625211Y-66300643D01*
X163625208Y-66300645D01*
X163620700Y-66303802D01*
X163458802Y-66465700D01*
X163327477Y-66653251D01*
X163325154Y-66658233D01*
X163325151Y-66658238D01*
X163233039Y-66855775D01*
X163230716Y-66860757D01*
X163171457Y-67081913D01*
X163151502Y-67310000D01*
X154303500Y-67310000D01*
X154303500Y-64202524D01*
X154323502Y-64134403D01*
X154335858Y-64118221D01*
X154409040Y-64036944D01*
X154504527Y-63871556D01*
X154563542Y-63689928D01*
X154583504Y-63500000D01*
X154563542Y-63310072D01*
X154504527Y-63128444D01*
X154409040Y-62963056D01*
X154281253Y-62821134D01*
X154126752Y-62708882D01*
X154120724Y-62706198D01*
X154120722Y-62706197D01*
X153958319Y-62633891D01*
X153958318Y-62633891D01*
X153952288Y-62631206D01*
X153839721Y-62607279D01*
X153771944Y-62592872D01*
X153771939Y-62592872D01*
X153765487Y-62591500D01*
X153574513Y-62591500D01*
X153568061Y-62592872D01*
X153568056Y-62592872D01*
X153500279Y-62607279D01*
X153387712Y-62631206D01*
X153381682Y-62633891D01*
X153381681Y-62633891D01*
X153219278Y-62706197D01*
X153219276Y-62706198D01*
X153213248Y-62708882D01*
X153058747Y-62821134D01*
X152930960Y-62963056D01*
X152835473Y-63128444D01*
X152776458Y-63310072D01*
X152756496Y-63500000D01*
X152776458Y-63689928D01*
X152835473Y-63871556D01*
X152930960Y-64036944D01*
X153004137Y-64118215D01*
X153034853Y-64182221D01*
X153036500Y-64202524D01*
X153036500Y-69280165D01*
X153016498Y-69348286D01*
X152999595Y-69369260D01*
X142524546Y-79844308D01*
X142462234Y-79878334D01*
X142391419Y-79873269D01*
X142334583Y-79830722D01*
X142309772Y-79764202D01*
X142309930Y-79744232D01*
X142314633Y-79690475D01*
X142315112Y-79685000D01*
X142295737Y-79463537D01*
X142285273Y-79424484D01*
X142286963Y-79353507D01*
X142317885Y-79302778D01*
X150252247Y-71368416D01*
X150260537Y-71360872D01*
X150267018Y-71356759D01*
X150313659Y-71307091D01*
X150316413Y-71304250D01*
X150336134Y-71284529D01*
X150338612Y-71281334D01*
X150346318Y-71272312D01*
X150371158Y-71245860D01*
X150376586Y-71240080D01*
X150386346Y-71222327D01*
X150397199Y-71205804D01*
X150404753Y-71196065D01*
X150409613Y-71189800D01*
X150427176Y-71149216D01*
X150432383Y-71138586D01*
X150453695Y-71099819D01*
X150455666Y-71092142D01*
X150455668Y-71092137D01*
X150458732Y-71080201D01*
X150465138Y-71061489D01*
X150470034Y-71050176D01*
X150473181Y-71042904D01*
X150475963Y-71025344D01*
X150480097Y-70999240D01*
X150482504Y-70987619D01*
X150491528Y-70952470D01*
X150491528Y-70952469D01*
X150493500Y-70944789D01*
X150493500Y-70924528D01*
X150495051Y-70904817D01*
X150496979Y-70892644D01*
X150498219Y-70884816D01*
X150494059Y-70840805D01*
X150493500Y-70828948D01*
X150493500Y-62932524D01*
X150513502Y-62864403D01*
X150525858Y-62848221D01*
X150599040Y-62766944D01*
X150694527Y-62601556D01*
X150753542Y-62419928D01*
X150756663Y-62390239D01*
X150772814Y-62236565D01*
X150773504Y-62230000D01*
X150758140Y-62083819D01*
X150754232Y-62046635D01*
X150754232Y-62046633D01*
X150753542Y-62040072D01*
X150694527Y-61858444D01*
X150599040Y-61693056D01*
X150537643Y-61624867D01*
X150475675Y-61556045D01*
X150475674Y-61556044D01*
X150471253Y-61551134D01*
X150316752Y-61438882D01*
X150310724Y-61436198D01*
X150310722Y-61436197D01*
X150148319Y-61363891D01*
X150148318Y-61363891D01*
X150142288Y-61361206D01*
X150040391Y-61339547D01*
X149961944Y-61322872D01*
X149961939Y-61322872D01*
X149955487Y-61321500D01*
X149764513Y-61321500D01*
X149758058Y-61322872D01*
X149758049Y-61322873D01*
X149654198Y-61344948D01*
X149583407Y-61339547D01*
X149526774Y-61296731D01*
X149502280Y-61230093D01*
X149502000Y-61221702D01*
X149502000Y-54188134D01*
X157096984Y-54188134D01*
X157103739Y-54250316D01*
X157154869Y-54386705D01*
X157242223Y-54503261D01*
X157358779Y-54590615D01*
X157495168Y-54641745D01*
X157557350Y-54648500D01*
X159253618Y-54648500D01*
X159315800Y-54641745D01*
X159452189Y-54590615D01*
X159568745Y-54503261D01*
X159626603Y-54426062D01*
X160183977Y-54426062D01*
X160193273Y-54438077D01*
X160244478Y-54473931D01*
X160253973Y-54479414D01*
X160451431Y-54571490D01*
X160461723Y-54575236D01*
X160672172Y-54631625D01*
X160682965Y-54633528D01*
X160900009Y-54652517D01*
X160910959Y-54652517D01*
X161128003Y-54633528D01*
X161138796Y-54631625D01*
X161349245Y-54575236D01*
X161359537Y-54571490D01*
X161556995Y-54479414D01*
X161566490Y-54473931D01*
X161618532Y-54437491D01*
X161626908Y-54427012D01*
X161619840Y-54413566D01*
X160918296Y-53712022D01*
X160904352Y-53704408D01*
X160902519Y-53704539D01*
X160895904Y-53708790D01*
X160190407Y-54414287D01*
X160183977Y-54426062D01*
X159626603Y-54426062D01*
X159656099Y-54386705D01*
X159707229Y-54250316D01*
X159713984Y-54188134D01*
X159713984Y-54184815D01*
X159737637Y-54117890D01*
X159783640Y-54082196D01*
X159782625Y-54080266D01*
X159793484Y-54074558D01*
X159793729Y-54074368D01*
X159793887Y-54074347D01*
X159831918Y-54054356D01*
X160533462Y-53352812D01*
X160539840Y-53341132D01*
X161269892Y-53341132D01*
X161270023Y-53342965D01*
X161274274Y-53349580D01*
X161979771Y-54055077D01*
X161991546Y-54061507D01*
X162003561Y-54052211D01*
X162039415Y-54001006D01*
X162044898Y-53991511D01*
X162136974Y-53794053D01*
X162140720Y-53783761D01*
X162197109Y-53573312D01*
X162199012Y-53562519D01*
X162218001Y-53345475D01*
X162218001Y-53334525D01*
X162199012Y-53117481D01*
X162197109Y-53106688D01*
X162140720Y-52896239D01*
X162136974Y-52885947D01*
X162044898Y-52688489D01*
X162039415Y-52678994D01*
X162002975Y-52626952D01*
X161992496Y-52618576D01*
X161979050Y-52625644D01*
X161277506Y-53327188D01*
X161269892Y-53341132D01*
X160539840Y-53341132D01*
X160541076Y-53338868D01*
X160540945Y-53337035D01*
X160536694Y-53330420D01*
X159831197Y-52624923D01*
X159789455Y-52602129D01*
X159779455Y-52599953D01*
X159729257Y-52549747D01*
X159714033Y-52496186D01*
X159713984Y-52495281D01*
X159713984Y-52491866D01*
X159707229Y-52429684D01*
X159656099Y-52293295D01*
X159625891Y-52252988D01*
X160184060Y-52252988D01*
X160191128Y-52266434D01*
X160892672Y-52967978D01*
X160906616Y-52975592D01*
X160908449Y-52975461D01*
X160915064Y-52971210D01*
X161620561Y-52265713D01*
X161626991Y-52253938D01*
X161617695Y-52241923D01*
X161566490Y-52206069D01*
X161556995Y-52200586D01*
X161359537Y-52108510D01*
X161349245Y-52104764D01*
X161138796Y-52048375D01*
X161128003Y-52046472D01*
X160910959Y-52027483D01*
X160900009Y-52027483D01*
X160682965Y-52046472D01*
X160672172Y-52048375D01*
X160461723Y-52104764D01*
X160451431Y-52108510D01*
X160253973Y-52200586D01*
X160244478Y-52206069D01*
X160192436Y-52242509D01*
X160184060Y-52252988D01*
X159625891Y-52252988D01*
X159568745Y-52176739D01*
X159452189Y-52089385D01*
X159315800Y-52038255D01*
X159253618Y-52031500D01*
X157557350Y-52031500D01*
X157495168Y-52038255D01*
X157358779Y-52089385D01*
X157242223Y-52176739D01*
X157154869Y-52293295D01*
X157103739Y-52429684D01*
X157096984Y-52491866D01*
X157096984Y-54188134D01*
X149502000Y-54188134D01*
X149502000Y-52780663D01*
X149522002Y-52712542D01*
X149547431Y-52683789D01*
X149667937Y-52583565D01*
X149667942Y-52583560D01*
X149672374Y-52579874D01*
X149790753Y-52437540D01*
X149801717Y-52424357D01*
X149805408Y-52419919D01*
X149907064Y-52238399D01*
X149940502Y-52139895D01*
X149972083Y-52046860D01*
X149972083Y-52046859D01*
X149973939Y-52041392D01*
X149974767Y-52035681D01*
X149974768Y-52035677D01*
X149991910Y-51917448D01*
X149992992Y-51909988D01*
X150022560Y-51845443D01*
X150082332Y-51807130D01*
X150153329Y-51807214D01*
X150213009Y-51845668D01*
X150242426Y-51910284D01*
X150243417Y-51919825D01*
X150245647Y-51953843D01*
X150296858Y-52155488D01*
X150383959Y-52344425D01*
X150387292Y-52349141D01*
X150491213Y-52496186D01*
X150504032Y-52514325D01*
X150653057Y-52659498D01*
X150826042Y-52775083D01*
X150831345Y-52777361D01*
X150831348Y-52777363D01*
X151010772Y-52854450D01*
X151017194Y-52857209D01*
X151091400Y-52874000D01*
X151214474Y-52901849D01*
X151214479Y-52901850D01*
X151220111Y-52903124D01*
X151225882Y-52903351D01*
X151225884Y-52903351D01*
X151288828Y-52905824D01*
X151427998Y-52911292D01*
X151533004Y-52896067D01*
X151628178Y-52882268D01*
X151628183Y-52882267D01*
X151633892Y-52881439D01*
X151640801Y-52879094D01*
X151825431Y-52816420D01*
X151830899Y-52814564D01*
X151974333Y-52734237D01*
X153274623Y-52734237D01*
X153284504Y-52746725D01*
X153321482Y-52771434D01*
X153331586Y-52776920D01*
X153512042Y-52854450D01*
X153522985Y-52858005D01*
X153714540Y-52901350D01*
X153725950Y-52902852D01*
X153922204Y-52910563D01*
X153933686Y-52909961D01*
X154128061Y-52881779D01*
X154139244Y-52879094D01*
X154325222Y-52815963D01*
X154335735Y-52811282D01*
X154453795Y-52745164D01*
X154463660Y-52735086D01*
X154460704Y-52727414D01*
X153881312Y-52148022D01*
X153867368Y-52140408D01*
X153865535Y-52140539D01*
X153858920Y-52144790D01*
X153280816Y-52722895D01*
X153274623Y-52734237D01*
X151974333Y-52734237D01*
X152012419Y-52712908D01*
X152041780Y-52688489D01*
X152167942Y-52583560D01*
X152172374Y-52579874D01*
X152290753Y-52437540D01*
X152301717Y-52424357D01*
X152305408Y-52419919D01*
X152407064Y-52238399D01*
X152440502Y-52139895D01*
X152472083Y-52046860D01*
X152472083Y-52046859D01*
X152473939Y-52041392D01*
X152474767Y-52035683D01*
X152474768Y-52035678D01*
X152493337Y-51907608D01*
X152522907Y-51843062D01*
X152582679Y-51804750D01*
X152653675Y-51804834D01*
X152713356Y-51843289D01*
X152742772Y-51907905D01*
X152743763Y-51917448D01*
X152745765Y-51947996D01*
X152747566Y-51959366D01*
X152795910Y-52149720D01*
X152799751Y-52160566D01*
X152881978Y-52338930D01*
X152887726Y-52348886D01*
X152897427Y-52362613D01*
X152908015Y-52371002D01*
X152921315Y-52363974D01*
X153496479Y-51788811D01*
X153502856Y-51777132D01*
X154232908Y-51777132D01*
X154233039Y-51778966D01*
X154237290Y-51785580D01*
X154816000Y-52364290D01*
X154828380Y-52371050D01*
X154834960Y-52366124D01*
X154903782Y-52243235D01*
X154908463Y-52232722D01*
X154971594Y-52046744D01*
X154974279Y-52035561D01*
X155002757Y-51839146D01*
X155003387Y-51831763D01*
X155004750Y-51779704D01*
X155004507Y-51772305D01*
X154986348Y-51574671D01*
X154984251Y-51563357D01*
X154930939Y-51374329D01*
X154926817Y-51363590D01*
X154839953Y-51187446D01*
X154838933Y-51185783D01*
X154830159Y-51179198D01*
X154817742Y-51185969D01*
X154240521Y-51763189D01*
X154232908Y-51777132D01*
X153502856Y-51777132D01*
X153504092Y-51774868D01*
X153503961Y-51773034D01*
X153499710Y-51766420D01*
X152919638Y-51186349D01*
X152907263Y-51179592D01*
X152901297Y-51184058D01*
X152821344Y-51336023D01*
X152816939Y-51346657D01*
X152758698Y-51534223D01*
X152756306Y-51545477D01*
X152744010Y-51649363D01*
X152716139Y-51714661D01*
X152657391Y-51754524D01*
X152586416Y-51756298D01*
X152525750Y-51719419D01*
X152494652Y-51655595D01*
X152493412Y-51646082D01*
X152486842Y-51574583D01*
X152486842Y-51574582D01*
X152486313Y-51568826D01*
X152429841Y-51368589D01*
X152419026Y-51346657D01*
X152340378Y-51187177D01*
X152337824Y-51181998D01*
X152213344Y-51015299D01*
X152060570Y-50874076D01*
X151970948Y-50817529D01*
X153274142Y-50817529D01*
X153277629Y-50825918D01*
X153855689Y-51403979D01*
X153869632Y-51411592D01*
X153871466Y-51411461D01*
X153878080Y-51407210D01*
X154455823Y-50829466D01*
X154462580Y-50817091D01*
X154456550Y-50809035D01*
X154389275Y-50766588D01*
X154379027Y-50761367D01*
X154196604Y-50688588D01*
X154185576Y-50685321D01*
X153992948Y-50647005D01*
X153981502Y-50645802D01*
X153785125Y-50643232D01*
X153773645Y-50644135D01*
X153580089Y-50677394D01*
X153568969Y-50680374D01*
X153384706Y-50748352D01*
X153374328Y-50753302D01*
X153283740Y-50807196D01*
X153274142Y-50817529D01*
X151970948Y-50817529D01*
X151970254Y-50817091D01*
X151889499Y-50766138D01*
X151884619Y-50763059D01*
X151691383Y-50685966D01*
X151685723Y-50684840D01*
X151685719Y-50684839D01*
X151493000Y-50646505D01*
X151492998Y-50646505D01*
X151487333Y-50645378D01*
X151481558Y-50645302D01*
X151481554Y-50645302D01*
X151377580Y-50643941D01*
X151279304Y-50642655D01*
X151273607Y-50643634D01*
X151273606Y-50643634D01*
X151079959Y-50676908D01*
X151079958Y-50676908D01*
X151074262Y-50677887D01*
X150879073Y-50749896D01*
X150874112Y-50752848D01*
X150874111Y-50752848D01*
X150705244Y-50853313D01*
X150705241Y-50853315D01*
X150700276Y-50856269D01*
X150543858Y-50993444D01*
X150540283Y-50997979D01*
X150540282Y-50997980D01*
X150425960Y-51142997D01*
X150415057Y-51156827D01*
X150412369Y-51161936D01*
X150320877Y-51335834D01*
X150320875Y-51335839D01*
X150318188Y-51340946D01*
X150256493Y-51539636D01*
X150243790Y-51646966D01*
X150215920Y-51712264D01*
X150157172Y-51752128D01*
X150086197Y-51753903D01*
X150025530Y-51717023D01*
X149994433Y-51653200D01*
X149993192Y-51643687D01*
X149986842Y-51574582D01*
X149986842Y-51574581D01*
X149986313Y-51568826D01*
X149929841Y-51368589D01*
X149919026Y-51346657D01*
X149840378Y-51187177D01*
X149837824Y-51181998D01*
X149713344Y-51015299D01*
X149560570Y-50874076D01*
X149470254Y-50817091D01*
X149389499Y-50766138D01*
X149384619Y-50763059D01*
X149191383Y-50685966D01*
X149185723Y-50684840D01*
X149185719Y-50684839D01*
X148993000Y-50646505D01*
X148992998Y-50646505D01*
X148987333Y-50645378D01*
X148981558Y-50645302D01*
X148981554Y-50645302D01*
X148877580Y-50643941D01*
X148779304Y-50642655D01*
X148773607Y-50643634D01*
X148773606Y-50643634D01*
X148579959Y-50676908D01*
X148579958Y-50676908D01*
X148574262Y-50677887D01*
X148379073Y-50749896D01*
X148374112Y-50752848D01*
X148374111Y-50752848D01*
X148205244Y-50853313D01*
X148205241Y-50853315D01*
X148200276Y-50856269D01*
X148043858Y-50993444D01*
X148040283Y-50997979D01*
X148040282Y-50997980D01*
X147964187Y-51094506D01*
X147906306Y-51135619D01*
X147865237Y-51142500D01*
X143012082Y-51142500D01*
X143000899Y-51141973D01*
X142993406Y-51140298D01*
X142985480Y-51140547D01*
X142985479Y-51140547D01*
X142925329Y-51142438D01*
X142921370Y-51142500D01*
X142893459Y-51142500D01*
X142889525Y-51142997D01*
X142889524Y-51142997D01*
X142889459Y-51143005D01*
X142877622Y-51143938D01*
X142845364Y-51144952D01*
X142841345Y-51145078D01*
X142833426Y-51145327D01*
X142813972Y-51150979D01*
X142794615Y-51154987D01*
X142782385Y-51156532D01*
X142782384Y-51156532D01*
X142774518Y-51157526D01*
X142767147Y-51160445D01*
X142767145Y-51160445D01*
X142733403Y-51173804D01*
X142722173Y-51177649D01*
X142687332Y-51187771D01*
X142687331Y-51187771D01*
X142679722Y-51189982D01*
X142672903Y-51194015D01*
X142672898Y-51194017D01*
X142662287Y-51200293D01*
X142644539Y-51208988D01*
X142625698Y-51216448D01*
X142619282Y-51221110D01*
X142619281Y-51221110D01*
X142589928Y-51242436D01*
X142580008Y-51248952D01*
X142548780Y-51267420D01*
X142548777Y-51267422D01*
X142541953Y-51271458D01*
X142527632Y-51285779D01*
X142512599Y-51298619D01*
X142496208Y-51310528D01*
X142491157Y-51316634D01*
X142468017Y-51344605D01*
X142460027Y-51353384D01*
X141818816Y-51994595D01*
X141756504Y-52028621D01*
X141729721Y-52031500D01*
X140521181Y-52031500D01*
X140458999Y-52038255D01*
X140322610Y-52089385D01*
X140206054Y-52176739D01*
X140118700Y-52293295D01*
X140067570Y-52429684D01*
X140060815Y-52491866D01*
X140060815Y-54188134D01*
X140067570Y-54250316D01*
X140118700Y-54386705D01*
X140206054Y-54503261D01*
X140322610Y-54590615D01*
X140458999Y-54641745D01*
X140521181Y-54648500D01*
X142217449Y-54648500D01*
X142279631Y-54641745D01*
X142416020Y-54590615D01*
X142532576Y-54503261D01*
X142619930Y-54386705D01*
X142671060Y-54250316D01*
X142673006Y-54251046D01*
X142702860Y-54198795D01*
X142765818Y-54165979D01*
X142836522Y-54172409D01*
X142879315Y-54200498D01*
X143025015Y-54346198D01*
X143029523Y-54349355D01*
X143029526Y-54349357D01*
X143070857Y-54378297D01*
X143212566Y-54477523D01*
X143217548Y-54479846D01*
X143217553Y-54479849D01*
X143414080Y-54571490D01*
X143420072Y-54574284D01*
X143425380Y-54575706D01*
X143425382Y-54575707D01*
X143635913Y-54632119D01*
X143635915Y-54632119D01*
X143641228Y-54633543D01*
X143869315Y-54653498D01*
X144097402Y-54633543D01*
X144102715Y-54632119D01*
X144102717Y-54632119D01*
X144313248Y-54575707D01*
X144313250Y-54575706D01*
X144318558Y-54574284D01*
X144324550Y-54571490D01*
X144521077Y-54479849D01*
X144521082Y-54479846D01*
X144526064Y-54477523D01*
X144667773Y-54378297D01*
X144709104Y-54349357D01*
X144709107Y-54349355D01*
X144713615Y-54346198D01*
X144875513Y-54184300D01*
X144883840Y-54172409D01*
X145003681Y-54001257D01*
X145006838Y-53996749D01*
X145009161Y-53991767D01*
X145009164Y-53991762D01*
X145101276Y-53794225D01*
X145101276Y-53794224D01*
X145103599Y-53789243D01*
X145124291Y-53712022D01*
X145161434Y-53573402D01*
X145161434Y-53573400D01*
X145162858Y-53568087D01*
X145182813Y-53340000D01*
X145162858Y-53111913D01*
X145126296Y-52975461D01*
X145105022Y-52896067D01*
X145105021Y-52896065D01*
X145103599Y-52890757D01*
X145098389Y-52879583D01*
X145009164Y-52688238D01*
X145009161Y-52688233D01*
X145006838Y-52683251D01*
X144953986Y-52607770D01*
X144931298Y-52540497D01*
X144948583Y-52471637D01*
X145000352Y-52423052D01*
X145057199Y-52409500D01*
X147864707Y-52409500D01*
X147932828Y-52429502D01*
X147967603Y-52462779D01*
X148004032Y-52514325D01*
X148153057Y-52659498D01*
X148157861Y-52662708D01*
X148179002Y-52676834D01*
X148224530Y-52731311D01*
X148235000Y-52781599D01*
X148235000Y-63932210D01*
X148214998Y-64000331D01*
X148198095Y-64021305D01*
X142523535Y-69695865D01*
X142461223Y-69729891D01*
X142390408Y-69724826D01*
X142333572Y-69682279D01*
X142308761Y-69615759D01*
X142308919Y-69595789D01*
X142314633Y-69530475D01*
X142315112Y-69525000D01*
X142295737Y-69303537D01*
X142238199Y-69088804D01*
X142235876Y-69083822D01*
X142146573Y-68892311D01*
X142146570Y-68892306D01*
X142144247Y-68887324D01*
X142016736Y-68705219D01*
X141859540Y-68548023D01*
X141855032Y-68544866D01*
X141855029Y-68544864D01*
X141719333Y-68449849D01*
X141677436Y-68420512D01*
X141672454Y-68418189D01*
X141672449Y-68418186D01*
X141480937Y-68328883D01*
X141480936Y-68328882D01*
X141475955Y-68326560D01*
X141470647Y-68325138D01*
X141470645Y-68325137D01*
X141404810Y-68307497D01*
X141261222Y-68269022D01*
X141039759Y-68249647D01*
X140818296Y-68269022D01*
X140674708Y-68307497D01*
X140608873Y-68325137D01*
X140608871Y-68325138D01*
X140603563Y-68326560D01*
X140598582Y-68328882D01*
X140598581Y-68328883D01*
X140407070Y-68418186D01*
X140407065Y-68418189D01*
X140402083Y-68420512D01*
X140397576Y-68423668D01*
X140397574Y-68423669D01*
X140224489Y-68544864D01*
X140224486Y-68544866D01*
X140219978Y-68548023D01*
X140062782Y-68705219D01*
X139935271Y-68887324D01*
X139932948Y-68892306D01*
X139932945Y-68892311D01*
X139843642Y-69083822D01*
X139841319Y-69088804D01*
X139783781Y-69303537D01*
X139764406Y-69525000D01*
X139783781Y-69746463D01*
X139841319Y-69961196D01*
X139843641Y-69966177D01*
X139843642Y-69966178D01*
X139932945Y-70157689D01*
X139932948Y-70157694D01*
X139935271Y-70162676D01*
X140062782Y-70344781D01*
X140219978Y-70501977D01*
X140224486Y-70505134D01*
X140224489Y-70505136D01*
X140288796Y-70550164D01*
X140402082Y-70629488D01*
X140407064Y-70631811D01*
X140407069Y-70631814D01*
X140504000Y-70677013D01*
X140557285Y-70723930D01*
X140576746Y-70792207D01*
X140556204Y-70860167D01*
X140504398Y-70905216D01*
X140447263Y-70932102D01*
X140447259Y-70932104D01*
X140444076Y-70933602D01*
X140441087Y-70935441D01*
X140441083Y-70935443D01*
X140413406Y-70952470D01*
X140298470Y-71023179D01*
X140295698Y-71025344D01*
X140295699Y-71025344D01*
X140225486Y-71080201D01*
X140208218Y-71093692D01*
X140205707Y-71096151D01*
X140093734Y-71205804D01*
X140086077Y-71213302D01*
X140013692Y-71302055D01*
X139921085Y-71445753D01*
X139870161Y-71548337D01*
X139811691Y-71708981D01*
X139784760Y-71820301D01*
X139784318Y-71823799D01*
X139784317Y-71823805D01*
X139775757Y-71891568D01*
X139763334Y-71989906D01*
X139763285Y-71993431D01*
X139762974Y-72015680D01*
X139742022Y-72083515D01*
X139726081Y-72103015D01*
X138672747Y-73156348D01*
X138664461Y-73163888D01*
X138657982Y-73168000D01*
X138652557Y-73173777D01*
X138611357Y-73217651D01*
X138608602Y-73220493D01*
X138588865Y-73240230D01*
X138586385Y-73243427D01*
X138578682Y-73252447D01*
X138548414Y-73284679D01*
X138544595Y-73291625D01*
X138544593Y-73291628D01*
X138538652Y-73302434D01*
X138527801Y-73318953D01*
X138527441Y-73319417D01*
X138515386Y-73334959D01*
X138512241Y-73342228D01*
X138512238Y-73342232D01*
X138497826Y-73375537D01*
X138492609Y-73386187D01*
X138471305Y-73424940D01*
X138469334Y-73432615D01*
X138469334Y-73432616D01*
X138466267Y-73444562D01*
X138459863Y-73463266D01*
X138451819Y-73481855D01*
X138450580Y-73489678D01*
X138450577Y-73489688D01*
X138444901Y-73525524D01*
X138442495Y-73537144D01*
X138431500Y-73579970D01*
X138431500Y-73600224D01*
X138429949Y-73619934D01*
X138426780Y-73639943D01*
X138427526Y-73647835D01*
X138430941Y-73683961D01*
X138431500Y-73695819D01*
X138431500Y-78665806D01*
X138411498Y-78733927D01*
X138357842Y-78780420D01*
X138287568Y-78790524D01*
X138252249Y-78780000D01*
X138249058Y-78778512D01*
X138238761Y-78774764D01*
X138028312Y-78718375D01*
X138017519Y-78716472D01*
X137800475Y-78697483D01*
X137789525Y-78697483D01*
X137572481Y-78716472D01*
X137561688Y-78718375D01*
X137351239Y-78774764D01*
X137340947Y-78778510D01*
X137143489Y-78870586D01*
X137133994Y-78876069D01*
X137081952Y-78912509D01*
X137073576Y-78922988D01*
X137080644Y-78936434D01*
X138065115Y-79920905D01*
X138099141Y-79983217D01*
X138094076Y-80054032D01*
X138065115Y-80099095D01*
X137079923Y-81084287D01*
X137073493Y-81096062D01*
X137082789Y-81108077D01*
X137133994Y-81143931D01*
X137143489Y-81149414D01*
X137340947Y-81241490D01*
X137351239Y-81245236D01*
X137561688Y-81301625D01*
X137572481Y-81303528D01*
X137789525Y-81322517D01*
X137800475Y-81322517D01*
X138017519Y-81303528D01*
X138028312Y-81301625D01*
X138238761Y-81245236D01*
X138249058Y-81241488D01*
X138252249Y-81240000D01*
X138253789Y-81239766D01*
X138254226Y-81239607D01*
X138254258Y-81239695D01*
X138322441Y-81229338D01*
X138387254Y-81258317D01*
X138426110Y-81317737D01*
X138431500Y-81354194D01*
X138431500Y-95810806D01*
X138411498Y-95878927D01*
X138357842Y-95925420D01*
X138287568Y-95935524D01*
X138252249Y-95925000D01*
X138249058Y-95923512D01*
X138238761Y-95919764D01*
X138028312Y-95863375D01*
X138017519Y-95861472D01*
X137800475Y-95842483D01*
X137789525Y-95842483D01*
X137572481Y-95861472D01*
X137561688Y-95863375D01*
X137351239Y-95919764D01*
X137340947Y-95923510D01*
X137143489Y-96015586D01*
X137133994Y-96021069D01*
X137081952Y-96057509D01*
X137073576Y-96067988D01*
X137080644Y-96081434D01*
X138065115Y-97065905D01*
X138099141Y-97128217D01*
X138094076Y-97199032D01*
X138065115Y-97244095D01*
X137079923Y-98229287D01*
X137073493Y-98241062D01*
X137082789Y-98253077D01*
X137133994Y-98288931D01*
X137143489Y-98294414D01*
X137340947Y-98386490D01*
X137351239Y-98390236D01*
X137561688Y-98446625D01*
X137572481Y-98448528D01*
X137789525Y-98467517D01*
X137800475Y-98467517D01*
X138017519Y-98448528D01*
X138028312Y-98446625D01*
X138238761Y-98390236D01*
X138249058Y-98386488D01*
X138252249Y-98385000D01*
X138253789Y-98384766D01*
X138254226Y-98384607D01*
X138254258Y-98384695D01*
X138322441Y-98374338D01*
X138387254Y-98403317D01*
X138426110Y-98462737D01*
X138431500Y-98499194D01*
X138431500Y-108510255D01*
X138411498Y-108578376D01*
X138357842Y-108624869D01*
X138287568Y-108634973D01*
X138252247Y-108624448D01*
X138249230Y-108623041D01*
X138249225Y-108623039D01*
X138244243Y-108620716D01*
X138238935Y-108619294D01*
X138238933Y-108619293D01*
X138028402Y-108562881D01*
X138028400Y-108562881D01*
X138023087Y-108561457D01*
X137795000Y-108541502D01*
X137566913Y-108561457D01*
X137561600Y-108562881D01*
X137561598Y-108562881D01*
X137351067Y-108619293D01*
X137351065Y-108619294D01*
X137345757Y-108620716D01*
X137340776Y-108623039D01*
X137340775Y-108623039D01*
X137143238Y-108715151D01*
X137143233Y-108715154D01*
X137138251Y-108717477D01*
X137121098Y-108729488D01*
X136955211Y-108845643D01*
X136955208Y-108845645D01*
X136950700Y-108848802D01*
X136788802Y-109010700D01*
X136785645Y-109015208D01*
X136785643Y-109015211D01*
X136730902Y-109093389D01*
X136657477Y-109198251D01*
X136655154Y-109203233D01*
X136655151Y-109203238D01*
X136563039Y-109400775D01*
X136560716Y-109405757D01*
X136559294Y-109411065D01*
X136559293Y-109411067D01*
X136528063Y-109527617D01*
X136501457Y-109626913D01*
X136481502Y-109855000D01*
X136501457Y-110083087D01*
X136502881Y-110088400D01*
X136502881Y-110088402D01*
X136558821Y-110297169D01*
X136560716Y-110304243D01*
X136563039Y-110309224D01*
X136563039Y-110309225D01*
X136655151Y-110506762D01*
X136655154Y-110506767D01*
X136657477Y-110511749D01*
X136660634Y-110516257D01*
X136775238Y-110679928D01*
X136788802Y-110699300D01*
X136950700Y-110861198D01*
X136955208Y-110864355D01*
X136955211Y-110864357D01*
X137033389Y-110919098D01*
X137138251Y-110992523D01*
X137143233Y-110994846D01*
X137143238Y-110994849D01*
X137304674Y-111070127D01*
X137345757Y-111089284D01*
X137351065Y-111090706D01*
X137351067Y-111090707D01*
X137561598Y-111147119D01*
X137561600Y-111147119D01*
X137566913Y-111148543D01*
X137795000Y-111168498D01*
X138023087Y-111148543D01*
X138028400Y-111147119D01*
X138028402Y-111147119D01*
X138238933Y-111090707D01*
X138238935Y-111090706D01*
X138244243Y-111089284D01*
X138285326Y-111070127D01*
X138446762Y-110994849D01*
X138446767Y-110994846D01*
X138451749Y-110992523D01*
X138556611Y-110919098D01*
X138634789Y-110864357D01*
X138634792Y-110864355D01*
X138639300Y-110861198D01*
X138801198Y-110699300D01*
X138814763Y-110679928D01*
X138929366Y-110516257D01*
X138932523Y-110511749D01*
X138934847Y-110506764D01*
X138934851Y-110506758D01*
X139024488Y-110314528D01*
X139071405Y-110261242D01*
X139139682Y-110241781D01*
X139207642Y-110262322D01*
X139227778Y-110278682D01*
X140934595Y-111985499D01*
X140968621Y-112047811D01*
X140971500Y-112074594D01*
X140971500Y-118677476D01*
X140951498Y-118745597D01*
X140939142Y-118761779D01*
X140865960Y-118843056D01*
X140770473Y-119008444D01*
X140711458Y-119190072D01*
X140691496Y-119380000D01*
X140711458Y-119569928D01*
X140770473Y-119751556D01*
X140865960Y-119916944D01*
X140993747Y-120058866D01*
X141148248Y-120171118D01*
X141154276Y-120173802D01*
X141154278Y-120173803D01*
X141316681Y-120246109D01*
X141322712Y-120248794D01*
X141416112Y-120268647D01*
X141503056Y-120287128D01*
X141503061Y-120287128D01*
X141509513Y-120288500D01*
X141700487Y-120288500D01*
X141706939Y-120287128D01*
X141706944Y-120287128D01*
X141793888Y-120268647D01*
X141887288Y-120248794D01*
X141893319Y-120246109D01*
X142055722Y-120173803D01*
X142055724Y-120173802D01*
X142061752Y-120171118D01*
X142216253Y-120058866D01*
X142344040Y-119916944D01*
X142439527Y-119751556D01*
X142498542Y-119569928D01*
X142518504Y-119380000D01*
X142498542Y-119190072D01*
X142439527Y-119008444D01*
X142344040Y-118843056D01*
X142270863Y-118761785D01*
X142240147Y-118697779D01*
X142238500Y-118677476D01*
X142238500Y-111838763D01*
X142239027Y-111827579D01*
X142240701Y-111820091D01*
X142238562Y-111752032D01*
X142238500Y-111748075D01*
X142238500Y-111720144D01*
X142237994Y-111716138D01*
X142237061Y-111704292D01*
X142236071Y-111672763D01*
X142235673Y-111660110D01*
X142230022Y-111640658D01*
X142226014Y-111621306D01*
X142224468Y-111609068D01*
X142224467Y-111609066D01*
X142223474Y-111601203D01*
X142207194Y-111560086D01*
X142203359Y-111548885D01*
X142191018Y-111506406D01*
X142186985Y-111499587D01*
X142186983Y-111499582D01*
X142180707Y-111488971D01*
X142172010Y-111471221D01*
X142164552Y-111452383D01*
X142138571Y-111416623D01*
X142132053Y-111406701D01*
X142113578Y-111375460D01*
X142113574Y-111375455D01*
X142109542Y-111368637D01*
X142095218Y-111354313D01*
X142082376Y-111339278D01*
X142070472Y-111322893D01*
X142036406Y-111294711D01*
X142027627Y-111286722D01*
X139735405Y-108994500D01*
X139701379Y-108932188D01*
X139698500Y-108905405D01*
X139698500Y-108321856D01*
X139718502Y-108253735D01*
X139772158Y-108207242D01*
X139842432Y-108197138D01*
X139907012Y-108226632D01*
X139933322Y-108258496D01*
X139935271Y-108262676D01*
X140062782Y-108444781D01*
X140219978Y-108601977D01*
X140224486Y-108605134D01*
X140224489Y-108605136D01*
X140252671Y-108624869D01*
X140402082Y-108729488D01*
X140407064Y-108731811D01*
X140407069Y-108731814D01*
X140569609Y-108807607D01*
X140603563Y-108823440D01*
X140608871Y-108824862D01*
X140608873Y-108824863D01*
X140674708Y-108842503D01*
X140818296Y-108880978D01*
X141039759Y-108900353D01*
X141261222Y-108880978D01*
X141404810Y-108842503D01*
X141470645Y-108824863D01*
X141470647Y-108824862D01*
X141475955Y-108823440D01*
X141509909Y-108807607D01*
X141672449Y-108731814D01*
X141672454Y-108731811D01*
X141677436Y-108729488D01*
X141826847Y-108624869D01*
X141855029Y-108605136D01*
X141855032Y-108605134D01*
X141859540Y-108601977D01*
X142016736Y-108444781D01*
X142081984Y-108351598D01*
X142141090Y-108267185D01*
X142141091Y-108267183D01*
X142144247Y-108262676D01*
X142146570Y-108257694D01*
X142146573Y-108257689D01*
X142235876Y-108066178D01*
X142235877Y-108066177D01*
X142238199Y-108061196D01*
X142295737Y-107846463D01*
X142315112Y-107625000D01*
X142295737Y-107403537D01*
X142238199Y-107188804D01*
X142175140Y-107053574D01*
X142146573Y-106992311D01*
X142146570Y-106992306D01*
X142144247Y-106987324D01*
X142141091Y-106982817D01*
X142141090Y-106982815D01*
X142019895Y-106809730D01*
X142019893Y-106809727D01*
X142016736Y-106805219D01*
X141859540Y-106648023D01*
X141855032Y-106644866D01*
X141855029Y-106644864D01*
X141779264Y-106591813D01*
X141677436Y-106520512D01*
X141672454Y-106518189D01*
X141672449Y-106518186D01*
X141567386Y-106469195D01*
X141514101Y-106422278D01*
X141494640Y-106354001D01*
X141515182Y-106286041D01*
X141567386Y-106240805D01*
X141672449Y-106191814D01*
X141672454Y-106191811D01*
X141677436Y-106189488D01*
X141779264Y-106118187D01*
X141855029Y-106065136D01*
X141855032Y-106065134D01*
X141859540Y-106061977D01*
X142016736Y-105904781D01*
X142141091Y-105727184D01*
X142141091Y-105727183D01*
X142144247Y-105722676D01*
X142146570Y-105717694D01*
X142146573Y-105717689D01*
X142235876Y-105526178D01*
X142235877Y-105526177D01*
X142238199Y-105521196D01*
X142295737Y-105306463D01*
X142315112Y-105085000D01*
X142295737Y-104863537D01*
X142238199Y-104648804D01*
X142204420Y-104576365D01*
X142146573Y-104452311D01*
X142146570Y-104452306D01*
X142144247Y-104447324D01*
X142141091Y-104442817D01*
X142141090Y-104442815D01*
X142019895Y-104269730D01*
X142019893Y-104269727D01*
X142016736Y-104265219D01*
X141859540Y-104108023D01*
X141855032Y-104104866D01*
X141855029Y-104104864D01*
X141779264Y-104051813D01*
X141677436Y-103980512D01*
X141672454Y-103978189D01*
X141672449Y-103978186D01*
X141567386Y-103929195D01*
X141514101Y-103882278D01*
X141494640Y-103814001D01*
X141515182Y-103746041D01*
X141567386Y-103700805D01*
X141672449Y-103651814D01*
X141672454Y-103651811D01*
X141677436Y-103649488D01*
X141779264Y-103578187D01*
X141855029Y-103525136D01*
X141855032Y-103525134D01*
X141859540Y-103521977D01*
X142016736Y-103364781D01*
X142141091Y-103187184D01*
X142141091Y-103187183D01*
X142144247Y-103182676D01*
X142146570Y-103177694D01*
X142146573Y-103177689D01*
X142235876Y-102986178D01*
X142235877Y-102986177D01*
X142238199Y-102981196D01*
X142295737Y-102766463D01*
X142315112Y-102545000D01*
X142309930Y-102485767D01*
X142323920Y-102416162D01*
X142373319Y-102365170D01*
X142442445Y-102348980D01*
X142509350Y-102372733D01*
X142524546Y-102385691D01*
X146036354Y-105897499D01*
X146070380Y-105959811D01*
X146073259Y-105986594D01*
X146073259Y-124790918D01*
X146053257Y-124859039D01*
X146019531Y-124894130D01*
X145975978Y-124924626D01*
X145901490Y-124976783D01*
X145901487Y-124976785D01*
X145896979Y-124979942D01*
X145741701Y-125135220D01*
X145738544Y-125139728D01*
X145738542Y-125139731D01*
X145709642Y-125181005D01*
X145615745Y-125315103D01*
X145613422Y-125320085D01*
X145613419Y-125320090D01*
X145577611Y-125396882D01*
X145525080Y-125509536D01*
X145525079Y-125509537D01*
X145522945Y-125514114D01*
X145522940Y-125514125D01*
X145522018Y-125513695D01*
X145483063Y-125566599D01*
X145416741Y-125591935D01*
X145347250Y-125577392D01*
X145296652Y-125527589D01*
X145290684Y-125514520D01*
X145290578Y-125514125D01*
X145235907Y-125396882D01*
X145200099Y-125320090D01*
X145200096Y-125320085D01*
X145197773Y-125315103D01*
X145103876Y-125181005D01*
X145074976Y-125139731D01*
X145074974Y-125139728D01*
X145071817Y-125135220D01*
X144916539Y-124979942D01*
X144905083Y-124971920D01*
X144837346Y-124924490D01*
X144736656Y-124853986D01*
X144731674Y-124851663D01*
X144731669Y-124851660D01*
X144542616Y-124763504D01*
X144542615Y-124763504D01*
X144537634Y-124761181D01*
X144532326Y-124759759D01*
X144532324Y-124759758D01*
X144330835Y-124705769D01*
X144330833Y-124705769D01*
X144325520Y-124704345D01*
X144106759Y-124685206D01*
X143887998Y-124704345D01*
X143882685Y-124705769D01*
X143882683Y-124705769D01*
X143681194Y-124759758D01*
X143681192Y-124759759D01*
X143675884Y-124761181D01*
X143670903Y-124763504D01*
X143670902Y-124763504D01*
X143481849Y-124851660D01*
X143481844Y-124851663D01*
X143476862Y-124853986D01*
X143376172Y-124924490D01*
X143308436Y-124971920D01*
X143296979Y-124979942D01*
X143141701Y-125135220D01*
X143138544Y-125139728D01*
X143138542Y-125139731D01*
X143109642Y-125181005D01*
X143015745Y-125315103D01*
X143013422Y-125320085D01*
X143013419Y-125320090D01*
X143001954Y-125344678D01*
X142955037Y-125397963D01*
X142886760Y-125417424D01*
X142818800Y-125396882D01*
X142772734Y-125342860D01*
X142761759Y-125291428D01*
X142761759Y-125150366D01*
X142755004Y-125088184D01*
X142703874Y-124951795D01*
X142616520Y-124835239D01*
X142499964Y-124747885D01*
X142363575Y-124696755D01*
X142301393Y-124690000D01*
X140712125Y-124690000D01*
X140649943Y-124696755D01*
X140513554Y-124747885D01*
X140396998Y-124835239D01*
X140309644Y-124951795D01*
X140258514Y-125088184D01*
X140251759Y-125150366D01*
X140251759Y-126739634D01*
X140258514Y-126801816D01*
X140261286Y-126809211D01*
X140261287Y-126809214D01*
X140268994Y-126829772D01*
X140274176Y-126900580D01*
X140240254Y-126962948D01*
X140177998Y-126997076D01*
X140151011Y-127000000D01*
X135381000Y-127000000D01*
X135312879Y-126979998D01*
X135266386Y-126926342D01*
X135255000Y-126874000D01*
X135255000Y-125141322D01*
X135275002Y-125073201D01*
X135328658Y-125026708D01*
X135398932Y-125016604D01*
X135463512Y-125046098D01*
X135499588Y-125098743D01*
X135530704Y-125185410D01*
X135532921Y-125189536D01*
X135615305Y-125342860D01*
X135655822Y-125418267D01*
X135658617Y-125422011D01*
X135658619Y-125422013D01*
X135811192Y-125626333D01*
X135813985Y-125630073D01*
X135817292Y-125633351D01*
X135817297Y-125633357D01*
X135916879Y-125732073D01*
X136001718Y-125816174D01*
X136214896Y-125972483D01*
X136219031Y-125974659D01*
X136219035Y-125974661D01*
X136342293Y-126039510D01*
X136448836Y-126095565D01*
X136453255Y-126097108D01*
X136636169Y-126160984D01*
X136698400Y-126182716D01*
X136702993Y-126183588D01*
X136953515Y-126231151D01*
X136953518Y-126231151D01*
X136958104Y-126232022D01*
X137090174Y-126237212D01*
X137217575Y-126242218D01*
X137217581Y-126242218D01*
X137222243Y-126242401D01*
X137485015Y-126213622D01*
X137489526Y-126212434D01*
X137489528Y-126212434D01*
X137736124Y-126147511D01*
X137736126Y-126147510D01*
X137740647Y-126146320D01*
X137855191Y-126097108D01*
X137979229Y-126043817D01*
X137979231Y-126043816D01*
X137983523Y-126041972D01*
X138208307Y-125902871D01*
X138230819Y-125883813D01*
X138406496Y-125735093D01*
X138406498Y-125735091D01*
X138410063Y-125732073D01*
X138584356Y-125533329D01*
X138588049Y-125527589D01*
X138724831Y-125314936D01*
X138727359Y-125311006D01*
X138835930Y-125069988D01*
X138907683Y-124815570D01*
X138924207Y-124685685D01*
X138940645Y-124556471D01*
X138940645Y-124556465D01*
X138941043Y-124553340D01*
X138943487Y-124460000D01*
X138923897Y-124196384D01*
X138865557Y-123938559D01*
X138848379Y-123894386D01*
X138771442Y-123696542D01*
X138771441Y-123696540D01*
X138769749Y-123692189D01*
X138743535Y-123646323D01*
X138640897Y-123466745D01*
X138638578Y-123462687D01*
X138474925Y-123255094D01*
X138282385Y-123073970D01*
X138245212Y-123048182D01*
X138069026Y-122925958D01*
X138069021Y-122925955D01*
X138065188Y-122923296D01*
X138060997Y-122921229D01*
X137832294Y-122808445D01*
X137832291Y-122808444D01*
X137828106Y-122806380D01*
X137771150Y-122788148D01*
X137580792Y-122727214D01*
X137580794Y-122727214D01*
X137576347Y-122725791D01*
X137433825Y-122702580D01*
X137320053Y-122684051D01*
X137320052Y-122684051D01*
X137315441Y-122683300D01*
X137183281Y-122681570D01*
X137055798Y-122679901D01*
X137055795Y-122679901D01*
X137051121Y-122679840D01*
X136789192Y-122715486D01*
X136784702Y-122716795D01*
X136784696Y-122716796D01*
X136676732Y-122748265D01*
X136535410Y-122789457D01*
X136531163Y-122791415D01*
X136531160Y-122791416D01*
X136440950Y-122833004D01*
X136295348Y-122900127D01*
X136291439Y-122902690D01*
X136078195Y-123042499D01*
X136078190Y-123042503D01*
X136074282Y-123045065D01*
X135877067Y-123221086D01*
X135708036Y-123424324D01*
X135570901Y-123650314D01*
X135569095Y-123654622D01*
X135569094Y-123654623D01*
X135497197Y-123826078D01*
X135452408Y-123881164D01*
X135384948Y-123903290D01*
X135316234Y-123885432D01*
X135268083Y-123833260D01*
X135255000Y-123777352D01*
X135255000Y-118490575D01*
X135275002Y-118422454D01*
X135328658Y-118375961D01*
X135398932Y-118365857D01*
X135456564Y-118389749D01*
X135561795Y-118468615D01*
X135698184Y-118519745D01*
X135760366Y-118526500D01*
X137349634Y-118526500D01*
X137411816Y-118519745D01*
X137548205Y-118468615D01*
X137664761Y-118381261D01*
X137752115Y-118264705D01*
X137803245Y-118128316D01*
X137810000Y-118066134D01*
X137810000Y-116476866D01*
X137803245Y-116414684D01*
X137752115Y-116278295D01*
X137664761Y-116161739D01*
X137548205Y-116074385D01*
X137411816Y-116023255D01*
X137349634Y-116016500D01*
X137208572Y-116016500D01*
X137140451Y-115996498D01*
X137093958Y-115942842D01*
X137083854Y-115872568D01*
X137113348Y-115807988D01*
X137155322Y-115776305D01*
X137179910Y-115764840D01*
X137179915Y-115764837D01*
X137184897Y-115762514D01*
X137364780Y-115636558D01*
X137520058Y-115481280D01*
X137549394Y-115439385D01*
X137597610Y-115370525D01*
X137646014Y-115301397D01*
X137648337Y-115296415D01*
X137648340Y-115296410D01*
X137736496Y-115107357D01*
X137736496Y-115107356D01*
X137738819Y-115102375D01*
X137754950Y-115042176D01*
X137794231Y-114895576D01*
X137794231Y-114895574D01*
X137795655Y-114890261D01*
X137814794Y-114671500D01*
X137795655Y-114452739D01*
X137742741Y-114255261D01*
X137740242Y-114245935D01*
X137740241Y-114245933D01*
X137738819Y-114240625D01*
X137660954Y-114073642D01*
X137648340Y-114046590D01*
X137648337Y-114046585D01*
X137646014Y-114041603D01*
X137520058Y-113861720D01*
X137364780Y-113706442D01*
X137360238Y-113703261D01*
X137275080Y-113643633D01*
X137184897Y-113580486D01*
X137179915Y-113578163D01*
X137179910Y-113578160D01*
X136990857Y-113490004D01*
X136990856Y-113490004D01*
X136985875Y-113487681D01*
X136980567Y-113486259D01*
X136980565Y-113486258D01*
X136779076Y-113432269D01*
X136779074Y-113432269D01*
X136773761Y-113430845D01*
X136555000Y-113411706D01*
X136336239Y-113430845D01*
X136330926Y-113432269D01*
X136330924Y-113432269D01*
X136129435Y-113486258D01*
X136129433Y-113486259D01*
X136124125Y-113487681D01*
X136119144Y-113490004D01*
X136119143Y-113490004D01*
X135930090Y-113578160D01*
X135930085Y-113578163D01*
X135925103Y-113580486D01*
X135834920Y-113643633D01*
X135749763Y-113703261D01*
X135745220Y-113706442D01*
X135589942Y-113861720D01*
X135586785Y-113866228D01*
X135586783Y-113866231D01*
X135484213Y-114012716D01*
X135428756Y-114057044D01*
X135358136Y-114064353D01*
X135294776Y-114032322D01*
X135258791Y-113971121D01*
X135255000Y-113940445D01*
X135255000Y-97160475D01*
X136482483Y-97160475D01*
X136501472Y-97377519D01*
X136503375Y-97388312D01*
X136559764Y-97598761D01*
X136563510Y-97609053D01*
X136655586Y-97806511D01*
X136661069Y-97816006D01*
X136697509Y-97868048D01*
X136707988Y-97876424D01*
X136721434Y-97869356D01*
X137422978Y-97167812D01*
X137430592Y-97153868D01*
X137430461Y-97152035D01*
X137426210Y-97145420D01*
X136720713Y-96439923D01*
X136708938Y-96433493D01*
X136696923Y-96442789D01*
X136661069Y-96493994D01*
X136655586Y-96503489D01*
X136563510Y-96700947D01*
X136559764Y-96711239D01*
X136503375Y-96921688D01*
X136501472Y-96932481D01*
X136482483Y-97149525D01*
X136482483Y-97160475D01*
X135255000Y-97160475D01*
X135255000Y-80015475D01*
X136482483Y-80015475D01*
X136501472Y-80232519D01*
X136503375Y-80243312D01*
X136559764Y-80453761D01*
X136563510Y-80464053D01*
X136655586Y-80661511D01*
X136661069Y-80671006D01*
X136697509Y-80723048D01*
X136707988Y-80731424D01*
X136721434Y-80724356D01*
X137422978Y-80022812D01*
X137430592Y-80008868D01*
X137430461Y-80007035D01*
X137426210Y-80000420D01*
X136720713Y-79294923D01*
X136708938Y-79288493D01*
X136696923Y-79297789D01*
X136661069Y-79348994D01*
X136655586Y-79358489D01*
X136563510Y-79555947D01*
X136559764Y-79566239D01*
X136503375Y-79776688D01*
X136501472Y-79787481D01*
X136482483Y-80004525D01*
X136482483Y-80015475D01*
X135255000Y-80015475D01*
X135255000Y-67310000D01*
X136481502Y-67310000D01*
X136501457Y-67538087D01*
X136560716Y-67759243D01*
X136563039Y-67764224D01*
X136563039Y-67764225D01*
X136655151Y-67961762D01*
X136655154Y-67961767D01*
X136657477Y-67966749D01*
X136788802Y-68154300D01*
X136950700Y-68316198D01*
X136955208Y-68319355D01*
X136955211Y-68319357D01*
X136963466Y-68325137D01*
X137138251Y-68447523D01*
X137143233Y-68449846D01*
X137143238Y-68449849D01*
X137340775Y-68541961D01*
X137345757Y-68544284D01*
X137351065Y-68545706D01*
X137351067Y-68545707D01*
X137561598Y-68602119D01*
X137561600Y-68602119D01*
X137566913Y-68603543D01*
X137795000Y-68623498D01*
X138023087Y-68603543D01*
X138028400Y-68602119D01*
X138028402Y-68602119D01*
X138238933Y-68545707D01*
X138238935Y-68545706D01*
X138244243Y-68544284D01*
X138249225Y-68541961D01*
X138446762Y-68449849D01*
X138446767Y-68449846D01*
X138451749Y-68447523D01*
X138626534Y-68325137D01*
X138634789Y-68319357D01*
X138634792Y-68319355D01*
X138639300Y-68316198D01*
X138801198Y-68154300D01*
X138932523Y-67966749D01*
X138934846Y-67961767D01*
X138934849Y-67961762D01*
X139026961Y-67764225D01*
X139026961Y-67764224D01*
X139029284Y-67759243D01*
X139088543Y-67538087D01*
X139108498Y-67310000D01*
X139088543Y-67081913D01*
X139029284Y-66860757D01*
X139026961Y-66855775D01*
X138934849Y-66658238D01*
X138934846Y-66658233D01*
X138932523Y-66653251D01*
X138801198Y-66465700D01*
X138639300Y-66303802D01*
X138634792Y-66300645D01*
X138634789Y-66300643D01*
X138556611Y-66245902D01*
X138451749Y-66172477D01*
X138446767Y-66170154D01*
X138446762Y-66170151D01*
X138249225Y-66078039D01*
X138249224Y-66078039D01*
X138244243Y-66075716D01*
X138238935Y-66074294D01*
X138238933Y-66074293D01*
X138028402Y-66017881D01*
X138028400Y-66017881D01*
X138023087Y-66016457D01*
X137795000Y-65996502D01*
X137566913Y-66016457D01*
X137561600Y-66017881D01*
X137561598Y-66017881D01*
X137351067Y-66074293D01*
X137351065Y-66074294D01*
X137345757Y-66075716D01*
X137340776Y-66078039D01*
X137340775Y-66078039D01*
X137143238Y-66170151D01*
X137143233Y-66170154D01*
X137138251Y-66172477D01*
X137033389Y-66245902D01*
X136955211Y-66300643D01*
X136955208Y-66300645D01*
X136950700Y-66303802D01*
X136788802Y-66465700D01*
X136657477Y-66653251D01*
X136655154Y-66658233D01*
X136655151Y-66658238D01*
X136563039Y-66855775D01*
X136560716Y-66860757D01*
X136501457Y-67081913D01*
X136481502Y-67310000D01*
X135255000Y-67310000D01*
X135255000Y-64719075D01*
X135275002Y-64650954D01*
X135328658Y-64604461D01*
X135398932Y-64594357D01*
X135456564Y-64618249D01*
X135561795Y-64697115D01*
X135698184Y-64748245D01*
X135760366Y-64755000D01*
X137349634Y-64755000D01*
X137411816Y-64748245D01*
X137548205Y-64697115D01*
X137664761Y-64609761D01*
X137752115Y-64493205D01*
X137803245Y-64356816D01*
X137810000Y-64294634D01*
X137810000Y-62705366D01*
X137803245Y-62643184D01*
X137752115Y-62506795D01*
X137664761Y-62390239D01*
X137548205Y-62302885D01*
X137411816Y-62251755D01*
X137349634Y-62245000D01*
X137208572Y-62245000D01*
X137140451Y-62224998D01*
X137093958Y-62171342D01*
X137083854Y-62101068D01*
X137113348Y-62036488D01*
X137155322Y-62004805D01*
X137179910Y-61993340D01*
X137179915Y-61993337D01*
X137184897Y-61991014D01*
X137364780Y-61865058D01*
X137520058Y-61709780D01*
X137531769Y-61693056D01*
X137579515Y-61624867D01*
X137646014Y-61529897D01*
X137648337Y-61524915D01*
X137648340Y-61524910D01*
X137736496Y-61335857D01*
X137736496Y-61335856D01*
X137738819Y-61330875D01*
X137740964Y-61322872D01*
X137794231Y-61124076D01*
X137794231Y-61124074D01*
X137795655Y-61118761D01*
X137814794Y-60900000D01*
X137795655Y-60681239D01*
X137738819Y-60469125D01*
X137736496Y-60464143D01*
X137648340Y-60275090D01*
X137648337Y-60275085D01*
X137646014Y-60270103D01*
X137520058Y-60090220D01*
X137364780Y-59934942D01*
X137184897Y-59808986D01*
X137179915Y-59806663D01*
X137179910Y-59806660D01*
X136990857Y-59718504D01*
X136990856Y-59718504D01*
X136985875Y-59716181D01*
X136980567Y-59714759D01*
X136980565Y-59714758D01*
X136779076Y-59660769D01*
X136779074Y-59660769D01*
X136773761Y-59659345D01*
X136555000Y-59640206D01*
X136336239Y-59659345D01*
X136330926Y-59660769D01*
X136330924Y-59660769D01*
X136129435Y-59714758D01*
X136129433Y-59714759D01*
X136124125Y-59716181D01*
X136119144Y-59718504D01*
X136119143Y-59718504D01*
X135930090Y-59806660D01*
X135930085Y-59806663D01*
X135925103Y-59808986D01*
X135745220Y-59934942D01*
X135589942Y-60090220D01*
X135586785Y-60094728D01*
X135586783Y-60094731D01*
X135484213Y-60241216D01*
X135428756Y-60285544D01*
X135358136Y-60292853D01*
X135294776Y-60260822D01*
X135258791Y-60199621D01*
X135255000Y-60168945D01*
X135255000Y-47671322D01*
X135275002Y-47603201D01*
X135328658Y-47556708D01*
X135398932Y-47546604D01*
X135463512Y-47576098D01*
X135499588Y-47628743D01*
X135530704Y-47715410D01*
X135532921Y-47719536D01*
X135634701Y-47908958D01*
X135655822Y-47948267D01*
X135658617Y-47952011D01*
X135658619Y-47952013D01*
X135741743Y-48063329D01*
X135813985Y-48160073D01*
X135817292Y-48163351D01*
X135817297Y-48163357D01*
X135993691Y-48338217D01*
X136001718Y-48346174D01*
X136005485Y-48348936D01*
X136005486Y-48348937D01*
X136161512Y-48463340D01*
X136214896Y-48502483D01*
X136219031Y-48504659D01*
X136219035Y-48504661D01*
X136315174Y-48555242D01*
X136448836Y-48625565D01*
X136698400Y-48712716D01*
X136702993Y-48713588D01*
X136953515Y-48761151D01*
X136953518Y-48761151D01*
X136958104Y-48762022D01*
X137090173Y-48767211D01*
X137217575Y-48772218D01*
X137217581Y-48772218D01*
X137222243Y-48772401D01*
X137485015Y-48743622D01*
X137489526Y-48742434D01*
X137489528Y-48742434D01*
X137736124Y-48677511D01*
X137736126Y-48677510D01*
X137740647Y-48676320D01*
X137855191Y-48627108D01*
X137979229Y-48573817D01*
X137979231Y-48573816D01*
X137983523Y-48571972D01*
X138208307Y-48432871D01*
X138300532Y-48354797D01*
X138406496Y-48265093D01*
X138406498Y-48265091D01*
X138410063Y-48262073D01*
X138584356Y-48063329D01*
X138653746Y-47955451D01*
X138724831Y-47844936D01*
X138727359Y-47841006D01*
X138835930Y-47599988D01*
X138907683Y-47345570D01*
X138918227Y-47262685D01*
X138940645Y-47086471D01*
X138940645Y-47086465D01*
X138941043Y-47083340D01*
X138941707Y-47058000D01*
X138943404Y-46993160D01*
X138943487Y-46990000D01*
X138935464Y-46882035D01*
X138924243Y-46731036D01*
X138924242Y-46731032D01*
X138923897Y-46726384D01*
X138865557Y-46468559D01*
X138848379Y-46424386D01*
X138771442Y-46226542D01*
X138771441Y-46226540D01*
X138769749Y-46222189D01*
X138750497Y-46188504D01*
X138706019Y-46110685D01*
X138638578Y-45992687D01*
X138474925Y-45785094D01*
X138282385Y-45603970D01*
X138245212Y-45578182D01*
X138069026Y-45455958D01*
X138069021Y-45455955D01*
X138065188Y-45453296D01*
X138060997Y-45451229D01*
X137832294Y-45338445D01*
X137832291Y-45338444D01*
X137828106Y-45336380D01*
X137811305Y-45331002D01*
X137752525Y-45291185D01*
X137724603Y-45225909D01*
X137736404Y-45155900D01*
X137784181Y-45103385D01*
X137849718Y-45085000D01*
X146951941Y-45085000D01*
X147020062Y-45105002D01*
G37*
%TD.AperFunction*%
%TD*%
M02*
