M48
; DRILL file {KiCad 6.0.11+dfsg-1} date Fri 14 Mar 2025 08:35:31 PM EDT
; FORMAT={-:-/ absolute / inch / decimal}
; #@! TF.CreationDate,2025-03-14T20:35:31-04:00
; #@! TF.GenerationSoftware,Kicad,Pcbnew,6.0.11+dfsg-1
; #@! TF.FileFunction,Plated,1,2,PTH
FMAT,2
INCH
; #@! TA.AperFunction,Plated,PTH,ViaDrill
T1C0.0157
; #@! TA.AperFunction,Plated,PTH,ComponentDrill
T2C0.0268
; #@! TA.AperFunction,Plated,PTH,ComponentDrill
T3C0.0300
; #@! TA.AperFunction,Plated,PTH,ComponentDrill
T4C0.0315
; #@! TA.AperFunction,Plated,PTH,ComponentDrill
T5C0.0378
%
G90
G05
T1
X5.575Y-4.7
X5.725Y-4.65
X5.775Y-2.575
X5.9Y-2.45
X5.9Y-4.35
X5.95Y-3.85
X6.0Y-4.35
X6.05Y-2.5
X6.125Y-4.675
X6.15Y-2.575
T2
X5.861Y-2.0384
X5.9594Y-2.0384
X6.0578Y-2.0384
T3
X5.5527Y-2.7372
X5.5527Y-2.8372
X5.5527Y-2.9372
X5.5527Y-3.0372
X5.5527Y-3.1372
X5.5527Y-3.2372
X5.5527Y-3.3372
X5.5527Y-3.4372
X5.5527Y-3.5372
X5.5527Y-3.6372
X5.5527Y-3.7372
X5.5527Y-3.8372
X5.5527Y-3.9372
X5.5527Y-4.0372
X5.5527Y-4.1372
X5.5527Y-4.2372
X5.9344Y-1.825
X6.0344Y-1.825
X6.0711Y-4.9585
X6.1711Y-4.9585
X6.2711Y-4.9585
X6.3527Y-3.1372
X6.3527Y-3.2372
X6.3527Y-3.3372
X6.3527Y-3.4372
X6.3527Y-3.5372
X6.3527Y-3.6372
X6.3527Y-3.7372
X6.3527Y-3.8372
X6.3527Y-3.9372
X6.3527Y-4.0372
X6.3527Y-4.1372
X6.3527Y-4.2372
X6.3527Y-4.3872
X6.3527Y-4.4872
T4
X5.425Y-2.65
X5.425Y-3.15
X5.425Y-3.825
X5.425Y-4.325
X5.5657Y-2.1
X5.6641Y-2.1
X6.2364Y-2.1
X6.3349Y-2.1
X6.475Y-2.65
X6.475Y-3.15
X6.475Y-3.775
X6.475Y-4.275
T5
X5.3762Y-2.3976
X5.3762Y-2.5
X5.3762Y-4.5146
X5.3762Y-4.617
X5.5711Y-4.9585
X5.6735Y-4.9585
X5.7759Y-4.9585
X5.8344Y-1.825
X5.8711Y-4.9585
X5.9711Y-4.9585
X6.208Y-1.865
X6.3104Y-1.865
X6.5262Y-2.3976
X6.5262Y-2.5
X6.5262Y-4.4896
X6.5262Y-4.592
T0
M30
