%TF.GenerationSoftware,KiCad,Pcbnew,6.0.11+dfsg-1*%
%TF.CreationDate,2025-03-15T00:27:26-04:00*%
%TF.ProjectId,quadcopter,71756164-636f-4707-9465-722e6b696361,rev?*%
%TF.SameCoordinates,Original*%
%TF.FileFunction,Copper,L2,Bot*%
%TF.FilePolarity,Positive*%
%FSLAX46Y46*%
G04 Gerber Fmt 4.6, Leading zero omitted, Abs format (unit mm)*
G04 Created by KiCad (PCBNEW 6.0.11+dfsg-1) date 2025-03-15 00:27:26*
%MOMM*%
%LPD*%
G01*
G04 APERTURE LIST*
G04 Aperture macros list*
%AMRoundRect*
0 Rectangle with rounded corners*
0 $1 Rounding radius*
0 $2 $3 $4 $5 $6 $7 $8 $9 X,Y pos of 4 corners*
0 Add a 4 corners polygon primitive as box body*
4,1,4,$2,$3,$4,$5,$6,$7,$8,$9,$2,$3,0*
0 Add four circle primitives for the rounded corners*
1,1,$1+$1,$2,$3*
1,1,$1+$1,$4,$5*
1,1,$1+$1,$6,$7*
1,1,$1+$1,$8,$9*
0 Add four rect primitives between the rounded corners*
20,1,$1+$1,$2,$3,$4,$5,0*
20,1,$1+$1,$4,$5,$6,$7,0*
20,1,$1+$1,$6,$7,$8,$9,0*
20,1,$1+$1,$8,$9,$2,$3,0*%
%AMFreePoly0*
4,1,48,0.657385,0.758754,0.662055,0.759085,0.664566,0.757713,0.671070,0.756770,0.697342,0.739806,0.724803,0.724803,1.359803,0.089802,1.381610,0.060599,1.383542,0.051625,1.389035,0.044269,1.390951,0.017212,1.396659,-0.009302,1.393437,-0.017898,1.394085,-0.027054,1.381082,-0.050854,1.371560,-0.076254,1.364204,-0.081747,1.359803,-0.089802,0.724803,-0.724803,0.706679,-0.738336,
0.703611,-0.741872,0.700866,-0.742677,0.695599,-0.746610,0.665023,-0.753192,0.635000,-0.762000,0.000000,-0.762000,-0.006861,-0.761005,-0.015958,-0.761833,-0.184344,-0.739365,-0.343569,-0.680150,-0.485717,-0.587131,-0.603725,-0.464931,-0.691726,-0.319622,-0.745348,-0.158429,-0.761926,0.010639,-0.740634,0.179178,-0.682532,0.338812,-0.590508,0.481606,-0.469134,0.600464,-0.324444,0.689478,
-0.163628,0.744224,-0.021304,0.759183,-0.017894,0.760733,-0.013128,0.760042,-0.003071,0.761099,0.000000,0.762000,0.635000,0.762000,0.657385,0.758754,0.657385,0.758754,$1*%
%AMFreePoly1*
4,1,49,0.002312,0.761665,0.005320,0.761981,0.174003,0.741867,0.334039,0.684881,0.477472,0.593856,0.597174,0.473315,0.687196,0.329249,0.743064,0.168820,0.762000,0.000000,0.761703,-0.021276,0.738060,-0.189502,0.677735,-0.348309,0.583726,-0.489804,0.460705,-0.606956,0.314786,-0.693941,0.153221,-0.746436,0.023340,-0.758256,0.017894,-0.760733,0.009500,-0.759516,0.008003,-0.759652,
0.000000,-0.762000,-0.635000,-0.762000,-0.657384,-0.758754,-0.662054,-0.759085,-0.664565,-0.757713,-0.671070,-0.756770,-0.697347,-0.739803,-0.724802,-0.724803,-1.359803,-0.089803,-1.381610,-0.060599,-1.383542,-0.051624,-1.389035,-0.044268,-1.390951,-0.017209,-1.396658,0.009301,-1.393436,0.017895,-1.394085,0.027055,-1.381079,0.050860,-1.371560,0.076254,-1.364205,0.081746,-1.359803,0.089803,
-0.724802,0.724803,-0.706680,0.738336,-0.703611,0.741872,-0.700865,0.742678,-0.695599,0.746610,-0.665018,0.753194,-0.635000,0.762000,0.000000,0.762000,0.002312,0.761665,0.002312,0.761665,$1*%
%AMFreePoly2*
4,1,20,0.635000,0.000000,0.634861,-0.013298,0.613363,-0.164350,0.556455,-0.305914,0.467422,-0.429816,0.351404,-0.528905,0.215099,-0.597459,0.066376,-0.631521,-0.086179,-0.629125,-0.233759,-0.590408,-0.367844,-0.517606,-0.480692,-0.414922,-0.565789,-0.288284,-0.618223,-0.145003,-0.634231,0.000000,-0.635000,0.000000,-0.635000,1.905000,0.000000,1.270000,0.635000,1.905000,0.635000,0.000000,
0.635000,0.000000,$1*%
%AMFreePoly3*
4,1,20,0.635000,1.270000,0.635000,0.000000,0.634861,-0.013298,0.613363,-0.164350,0.556455,-0.305914,0.467422,-0.429816,0.351404,-0.528905,0.215099,-0.597459,0.066376,-0.631521,-0.086179,-0.629125,-0.233759,-0.590408,-0.367844,-0.517606,-0.480692,-0.414922,-0.565789,-0.288284,-0.618223,-0.145003,-0.634231,0.000000,-0.635000,0.000000,-0.635000,1.270000,0.000000,1.905000,0.635000,1.270000,
0.635000,1.270000,$1*%
G04 Aperture macros list end*
%TA.AperFunction,ComponentPad*%
%ADD10R,1.600000X1.600000*%
%TD*%
%TA.AperFunction,ComponentPad*%
%ADD11C,1.600000*%
%TD*%
%TA.AperFunction,ComponentPad*%
%ADD12C,1.247000*%
%TD*%
%TA.AperFunction,ComponentPad*%
%ADD13R,1.493000X1.493000*%
%TD*%
%TA.AperFunction,ComponentPad*%
%ADD14C,1.493000*%
%TD*%
%TA.AperFunction,ComponentPad*%
%ADD15C,1.524000*%
%TD*%
%TA.AperFunction,ComponentPad*%
%ADD16FreePoly0,0.000000*%
%TD*%
%TA.AperFunction,ComponentPad*%
%ADD17RoundRect,0.381000X-0.381000X-0.381000X0.381000X-0.381000X0.381000X0.381000X-0.381000X0.381000X0*%
%TD*%
%TA.AperFunction,ComponentPad*%
%ADD18FreePoly1,0.000000*%
%TD*%
%TA.AperFunction,ComponentPad*%
%ADD19FreePoly2,90.000000*%
%TD*%
%TA.AperFunction,ComponentPad*%
%ADD20FreePoly3,90.000000*%
%TD*%
%TA.AperFunction,ComponentPad*%
%ADD21O,1.600000X1.600000*%
%TD*%
%TA.AperFunction,ViaPad*%
%ADD22C,0.800000*%
%TD*%
%TA.AperFunction,Conductor*%
%ADD23C,0.250000*%
%TD*%
G04 APERTURE END LIST*
D10*
%TO.P,C1,1*%
%TO.N,+3.3V*%
X160020000Y-43180000D03*
D11*
%TO.P,C1,2*%
%TO.N,GND*%
X162520000Y-43180000D03*
%TD*%
D12*
%TO.P,U13,1,VOUT*%
%TO.N,+3.3V*%
X167918500Y-44791000D03*
%TO.P,U13,2,GND*%
%TO.N,GND*%
X170418500Y-44791000D03*
%TO.P,U13,3,VIN*%
%TO.N,+BATT*%
X172918500Y-44791000D03*
%TD*%
D13*
%TO.P,U7,1*%
%TO.N,Net-(D1-Pad1)*%
X156210000Y-53340000D03*
D14*
%TO.P,U7,2*%
%TO.N,Net-(D1-Pad2)*%
X156210000Y-50740000D03*
%TD*%
D13*
%TO.P,U12,1*%
%TO.N,Net-(D4-Pad1)*%
X184150000Y-105410000D03*
D14*
%TO.P,U12,2*%
%TO.N,Net-(D4-Pad2)*%
X184150000Y-102810000D03*
%TD*%
D13*
%TO.P,U8,1*%
%TO.N,Net-(D2-Pad1)*%
X156210000Y-105410000D03*
D14*
%TO.P,U8,2*%
%TO.N,Net-(D2-Pad2)*%
X156210000Y-102810000D03*
%TD*%
D13*
%TO.P,U4,1*%
%TO.N,GND*%
X176760000Y-35560000D03*
D14*
%TO.P,U4,2*%
%TO.N,Net-(U2-Pad3)*%
X174160000Y-35560000D03*
%TD*%
D15*
%TO.P,U3,1,RST*%
%TO.N,unconnected-(U3-Pad1)*%
X160479759Y-59665000D03*
D16*
%TO.P,U3,2,3V3*%
%TO.N,+3.3V*%
X160479759Y-62205000D03*
D15*
%TO.P,U3,3,N/C*%
%TO.N,unconnected-(U3-Pad3)*%
X160479759Y-64745000D03*
D17*
%TO.P,U3,4,GND*%
%TO.N,GND*%
X160479759Y-67285000D03*
D15*
%TO.P,U3,5,A0/GPIO0*%
%TO.N,pwm_frontleft*%
X160479759Y-69825000D03*
%TO.P,U3,6,A1/GPIO1*%
%TO.N,pwm_frontright*%
X160479759Y-72365000D03*
%TO.P,U3,7,A2/GPIO2*%
%TO.N,pwm_backleft*%
X160479759Y-74905000D03*
%TO.P,U3,8,A3/GPIO3*%
%TO.N,pwm_backright*%
X160479759Y-77445000D03*
%TO.P,U3,9,A4/GPIO5*%
%TO.N,unconnected-(U3-Pad9)*%
X160479759Y-79985000D03*
%TO.P,U3,10,A5/GPIO4*%
%TO.N,unconnected-(U3-Pad10)*%
X160479759Y-82525000D03*
%TO.P,U3,11,GPIO6*%
%TO.N,unconnected-(U3-Pad11)*%
X160479759Y-85065000D03*
%TO.P,U3,12,GPIO7*%
%TO.N,Net-(U1-Pad4)*%
X160479759Y-87605000D03*
%TO.P,U3,13,GPIO8*%
%TO.N,Net-(U1-Pad3)*%
X160479759Y-90145000D03*
%TO.P,U3,14,TXD/GPIO21*%
%TO.N,unconnected-(U3-Pad14)*%
X160479759Y-92685000D03*
%TO.P,U3,15,RXD/GPIO20*%
%TO.N,unconnected-(U3-Pad15)*%
X160479759Y-95225000D03*
%TO.P,U3,16,BOOT/GPIO9*%
%TO.N,unconnected-(U3-Pad16)*%
X160479759Y-97765000D03*
%TO.P,U3,17,SDA/GPIO10*%
%TO.N,unconnected-(U3-Pad17)*%
X180799759Y-97765000D03*
%TO.P,U3,18,SCL/GPIO8*%
%TO.N,unconnected-(U3-Pad18)*%
X180799759Y-95225000D03*
%TO.P,U3,19,USB_D+/GPIO19*%
%TO.N,unconnected-(U3-Pad19)*%
X180799759Y-92685000D03*
%TO.P,U3,20,USB_D-/GPIO18*%
%TO.N,unconnected-(U3-Pad20)*%
X180799759Y-90145000D03*
%TO.P,U3,21,SPIQ/GPIO17*%
%TO.N,unconnected-(U3-Pad21)*%
X180799759Y-87605000D03*
%TO.P,U3,22,SPID/GPIO16*%
%TO.N,unconnected-(U3-Pad22)*%
X180799759Y-85065000D03*
%TO.P,U3,23,SPICLK/GPIO15*%
%TO.N,unconnected-(U3-Pad23)*%
X180799759Y-82525000D03*
%TO.P,U3,24,SPIWP/GPIO13*%
%TO.N,unconnected-(U3-Pad24)*%
X180799759Y-79985000D03*
%TO.P,U3,25,SPIHD/GPIO12*%
%TO.N,unconnected-(U3-Pad25)*%
X180799759Y-77445000D03*
D18*
%TO.P,U3,26,VBUS*%
%TO.N,unconnected-(U3-Pad26)*%
X180799759Y-74905000D03*
D15*
%TO.P,U3,27,ENABLE*%
%TO.N,unconnected-(U3-Pad27)*%
X180799759Y-72365000D03*
D18*
%TO.P,U3,28,VBAT*%
%TO.N,unconnected-(U3-Pad28)*%
X180799759Y-69825000D03*
D19*
%TO.P,U3,29,BAT-*%
%TO.N,unconnected-(U3-Pad29)*%
X180799759Y-104115000D03*
D20*
%TO.P,U3,30,BAT+*%
%TO.N,unconnected-(U3-Pad30)*%
X180799759Y-101575000D03*
%TD*%
D13*
%TO.P,U2,1*%
%TO.N,unconnected-(U2-Pad1)*%
X165015000Y-35560000D03*
D15*
%TO.P,U2,2*%
%TO.N,+BATT*%
X167555000Y-35560000D03*
%TO.P,U2,3*%
%TO.N,Net-(U2-Pad3)*%
X170095000Y-35560000D03*
%TD*%
D11*
%TO.P,R10,1*%
%TO.N,+BATT*%
X156210000Y-86690000D03*
D21*
%TO.P,R10,2*%
%TO.N,Net-(D2-Pad1)*%
X156210000Y-99390000D03*
%TD*%
D13*
%TO.P,U1,1*%
%TO.N,+3.3V*%
X162716750Y-114280000D03*
D14*
%TO.P,U1,2*%
%TO.N,GND*%
X165316750Y-114280000D03*
%TO.P,U1,3*%
%TO.N,Net-(U1-Pad3)*%
X167916750Y-114280000D03*
%TO.P,U1,4*%
%TO.N,Net-(U1-Pad4)*%
X170336750Y-114280000D03*
%TO.P,U1,5*%
%TO.N,unconnected-(U1-Pad5)*%
X172876750Y-114280000D03*
D15*
%TO.P,U1,6*%
%TO.N,unconnected-(U1-Pad6)*%
X175416750Y-114280000D03*
%TO.P,U1,7*%
%TO.N,GND*%
X177956750Y-114280000D03*
%TO.P,U1,8*%
%TO.N,unconnected-(U1-Pad8)*%
X180496750Y-114280000D03*
%TD*%
D11*
%TO.P,R20,1*%
%TO.N,+BATT*%
X184150000Y-86330000D03*
D21*
%TO.P,R20,2*%
%TO.N,Net-(D4-Pad1)*%
X184150000Y-99030000D03*
%TD*%
D11*
%TO.P,R7,1*%
%TO.N,+BATT*%
X156210000Y-69050000D03*
D21*
%TO.P,R7,2*%
%TO.N,Net-(D1-Pad1)*%
X156210000Y-56350000D03*
%TD*%
D11*
%TO.P,R17,1*%
%TO.N,+BATT*%
X184150000Y-69850000D03*
D21*
%TO.P,R17,2*%
%TO.N,Net-(D3-Pad1)*%
X184150000Y-57150000D03*
%TD*%
D13*
%TO.P,U11,1*%
%TO.N,Net-(D3-Pad1)*%
X185420000Y-53340000D03*
D14*
%TO.P,U11,2*%
%TO.N,Net-(D3-Pad2)*%
X185420000Y-50740000D03*
%TD*%
D10*
%TO.P,C2,1*%
%TO.N,+BATT*%
X177800000Y-43180000D03*
D11*
%TO.P,C2,2*%
%TO.N,GND*%
X180300000Y-43180000D03*
%TD*%
D22*
%TO.N,+3.3V*%
X163830000Y-82550000D03*
X166370000Y-109220000D03*
X163928466Y-79911534D03*
X163903465Y-69923466D03*
X163830000Y-64770000D03*
%TO.N,+BATT*%
X162560000Y-55880000D03*
X179070000Y-55880000D03*
X175260000Y-107950000D03*
X166370000Y-105410000D03*
%TO.N,pwm_frontleft*%
X166370000Y-55880000D03*
%TO.N,pwm_backleft*%
X167640000Y-97790000D03*
X167640000Y-86360000D03*
%TO.N,pwm_frontright*%
X170180000Y-63500000D03*
%TO.N,pwm_backright*%
X172720000Y-90170000D03*
%TD*%
D23*
%TO.N,+3.3V*%
X162980000Y-101600000D02*
X162980000Y-83400000D01*
X162980000Y-83400000D02*
X163830000Y-82550000D01*
X165675000Y-47034500D02*
X165675000Y-60385000D01*
X162980000Y-105830000D02*
X162980000Y-101600000D01*
X160020000Y-43180000D02*
X161631000Y-44791000D01*
X163855000Y-62205000D02*
X160479759Y-62205000D01*
X165675000Y-60385000D02*
X163855000Y-62205000D01*
X166370000Y-109220000D02*
X162980000Y-105830000D01*
X163928466Y-69948467D02*
X163903465Y-69923466D01*
X161631000Y-44791000D02*
X167918500Y-44791000D01*
X163830000Y-64770000D02*
X163830000Y-62230000D01*
X163928466Y-79911534D02*
X163928466Y-69948467D01*
X163830000Y-62230000D02*
X163855000Y-62205000D01*
X167918500Y-44791000D02*
X165675000Y-47034500D01*
%TO.N,pwm_frontleft*%
X166370000Y-63934759D02*
X166370000Y-55880000D01*
X160479759Y-69825000D02*
X166370000Y-63934759D01*
%TO.N,pwm_backleft*%
X167640000Y-86360000D02*
X167640000Y-97790000D01*
%TO.N,pwm_frontright*%
X160479759Y-72365000D02*
X167640000Y-65204759D01*
X170180000Y-63500000D02*
X168475241Y-65204759D01*
X168475241Y-65204759D02*
X167640000Y-65204759D01*
%TO.N,Net-(U1-Pad3)*%
X160479759Y-90145000D02*
X161536759Y-91202000D01*
X161536759Y-107900009D02*
X167916750Y-114280000D01*
X161536759Y-91202000D02*
X161536759Y-107900009D01*
%TO.N,Net-(U1-Pad4)*%
X162736750Y-106680000D02*
X162560000Y-106680000D01*
X162560000Y-89685241D02*
X160479759Y-87605000D01*
X170336750Y-114280000D02*
X162736750Y-106680000D01*
X162560000Y-106680000D02*
X162560000Y-89685241D01*
%TO.N,pwm_backright*%
X160479759Y-77445000D02*
X172720000Y-89685241D01*
X172720000Y-89685241D02*
X172720000Y-90170000D01*
%TD*%
%TA.AperFunction,Conductor*%
%TO.N,+BATT*%
G36*
X187393621Y-33548502D02*
G01*
X187440114Y-33602158D01*
X187451500Y-33654500D01*
X187451500Y-117475500D01*
X187431498Y-117543621D01*
X187377842Y-117590114D01*
X187325500Y-117601500D01*
X154304500Y-117601500D01*
X154236379Y-117581498D01*
X154189886Y-117527842D01*
X154178500Y-117475500D01*
X154178500Y-114300000D01*
X155170504Y-114300000D01*
X155170774Y-114304119D01*
X155183709Y-114501463D01*
X155190262Y-114601450D01*
X155191066Y-114605490D01*
X155191066Y-114605493D01*
X155237384Y-114838348D01*
X155249198Y-114897742D01*
X155250524Y-114901648D01*
X155250525Y-114901652D01*
X155344980Y-115179906D01*
X155346304Y-115183806D01*
X155348125Y-115187499D01*
X155348126Y-115187501D01*
X155450524Y-115395142D01*
X155479918Y-115454748D01*
X155647754Y-115705932D01*
X155650468Y-115709026D01*
X155650472Y-115709032D01*
X155844231Y-115929971D01*
X155846940Y-115933060D01*
X155850029Y-115935769D01*
X156070968Y-116129528D01*
X156070974Y-116129532D01*
X156074068Y-116132246D01*
X156077494Y-116134535D01*
X156077499Y-116134539D01*
X156266374Y-116260741D01*
X156325252Y-116300082D01*
X156328951Y-116301906D01*
X156328956Y-116301909D01*
X156592499Y-116431874D01*
X156596194Y-116433696D01*
X156600092Y-116435019D01*
X156600094Y-116435020D01*
X156878348Y-116529475D01*
X156878352Y-116529476D01*
X156882258Y-116530802D01*
X156886302Y-116531606D01*
X156886308Y-116531608D01*
X157174507Y-116588934D01*
X157174510Y-116588934D01*
X157178550Y-116589738D01*
X157182661Y-116590007D01*
X157182665Y-116590008D01*
X157475881Y-116609226D01*
X157480000Y-116609496D01*
X157484119Y-116609226D01*
X157777335Y-116590008D01*
X157777339Y-116590007D01*
X157781450Y-116589738D01*
X157785490Y-116588934D01*
X157785493Y-116588934D01*
X158073692Y-116531608D01*
X158073698Y-116531606D01*
X158077742Y-116530802D01*
X158081648Y-116529476D01*
X158081652Y-116529475D01*
X158359906Y-116435020D01*
X158359908Y-116435019D01*
X158363806Y-116433696D01*
X158367501Y-116431874D01*
X158631044Y-116301909D01*
X158631049Y-116301906D01*
X158634748Y-116300082D01*
X158693626Y-116260741D01*
X158882501Y-116134539D01*
X158882506Y-116134535D01*
X158885932Y-116132246D01*
X158889026Y-116129532D01*
X158889032Y-116129528D01*
X159109971Y-115935769D01*
X159113060Y-115933060D01*
X159115769Y-115929971D01*
X159309528Y-115709032D01*
X159309532Y-115709026D01*
X159312246Y-115705932D01*
X159480082Y-115454748D01*
X159509477Y-115395142D01*
X159611874Y-115187501D01*
X159611875Y-115187499D01*
X159613696Y-115183806D01*
X159615020Y-115179906D01*
X159709475Y-114901652D01*
X159709476Y-114901648D01*
X159710802Y-114897742D01*
X159722617Y-114838348D01*
X159768934Y-114605493D01*
X159768934Y-114605490D01*
X159769738Y-114601450D01*
X159776292Y-114501463D01*
X159789226Y-114304119D01*
X159789496Y-114300000D01*
X159769738Y-113998550D01*
X159742106Y-113859632D01*
X159711608Y-113706308D01*
X159711606Y-113706302D01*
X159710802Y-113702258D01*
X159703794Y-113681611D01*
X159615020Y-113420094D01*
X159615019Y-113420092D01*
X159613696Y-113416194D01*
X159557886Y-113303023D01*
X159481909Y-113148956D01*
X159481906Y-113148951D01*
X159480082Y-113145252D01*
X159437524Y-113081560D01*
X159314539Y-112897499D01*
X159314535Y-112897494D01*
X159312246Y-112894068D01*
X159309532Y-112890974D01*
X159309528Y-112890968D01*
X159115769Y-112670029D01*
X159113060Y-112666940D01*
X159109971Y-112664231D01*
X158889032Y-112470472D01*
X158889026Y-112470468D01*
X158885932Y-112467754D01*
X158882506Y-112465465D01*
X158882501Y-112465461D01*
X158638181Y-112302212D01*
X158634748Y-112299918D01*
X158631049Y-112298094D01*
X158631044Y-112298091D01*
X158367501Y-112168126D01*
X158367499Y-112168125D01*
X158363806Y-112166304D01*
X158359906Y-112164980D01*
X158081652Y-112070525D01*
X158081648Y-112070524D01*
X158077742Y-112069198D01*
X158073698Y-112068394D01*
X158073692Y-112068392D01*
X157785493Y-112011066D01*
X157785490Y-112011066D01*
X157781450Y-112010262D01*
X157777339Y-112009993D01*
X157777335Y-112009992D01*
X157484119Y-111990774D01*
X157480000Y-111990504D01*
X157475881Y-111990774D01*
X157182665Y-112009992D01*
X157182661Y-112009993D01*
X157178550Y-112010262D01*
X157174510Y-112011066D01*
X157174507Y-112011066D01*
X156886308Y-112068392D01*
X156886302Y-112068394D01*
X156882258Y-112069198D01*
X156878352Y-112070524D01*
X156878348Y-112070525D01*
X156600094Y-112164980D01*
X156596194Y-112166304D01*
X156592501Y-112168125D01*
X156592499Y-112168126D01*
X156328956Y-112298091D01*
X156328951Y-112298094D01*
X156325252Y-112299918D01*
X156321819Y-112302212D01*
X156077499Y-112465461D01*
X156077494Y-112465465D01*
X156074068Y-112467754D01*
X156070974Y-112470468D01*
X156070968Y-112470472D01*
X155850029Y-112664231D01*
X155846940Y-112666940D01*
X155844231Y-112670029D01*
X155650472Y-112890968D01*
X155650468Y-112890974D01*
X155647754Y-112894068D01*
X155645465Y-112897494D01*
X155645461Y-112897499D01*
X155522476Y-113081560D01*
X155479918Y-113145252D01*
X155478094Y-113148951D01*
X155478091Y-113148956D01*
X155402114Y-113303023D01*
X155346304Y-113416194D01*
X155344981Y-113420092D01*
X155344980Y-113420094D01*
X155256207Y-113681611D01*
X155249198Y-113702258D01*
X155248394Y-113706302D01*
X155248392Y-113706308D01*
X155217894Y-113859632D01*
X155190262Y-113998550D01*
X155170504Y-114300000D01*
X154178500Y-114300000D01*
X154178500Y-102810000D01*
X154950206Y-102810000D01*
X154969345Y-103028761D01*
X154970769Y-103034074D01*
X154970769Y-103034076D01*
X154982486Y-103077802D01*
X155026181Y-103240875D01*
X155028504Y-103245856D01*
X155028504Y-103245857D01*
X155116660Y-103434910D01*
X155116663Y-103434915D01*
X155118986Y-103439897D01*
X155122143Y-103444405D01*
X155229441Y-103597642D01*
X155244942Y-103619780D01*
X155400220Y-103775058D01*
X155580103Y-103901014D01*
X155585085Y-103903337D01*
X155585090Y-103903340D01*
X155609678Y-103914805D01*
X155662963Y-103961722D01*
X155682424Y-104029999D01*
X155661882Y-104097959D01*
X155607860Y-104144025D01*
X155556428Y-104155000D01*
X155415366Y-104155000D01*
X155353184Y-104161755D01*
X155216795Y-104212885D01*
X155100239Y-104300239D01*
X155012885Y-104416795D01*
X154961755Y-104553184D01*
X154955000Y-104615366D01*
X154955000Y-106204634D01*
X154961755Y-106266816D01*
X155012885Y-106403205D01*
X155100239Y-106519761D01*
X155216795Y-106607115D01*
X155353184Y-106658245D01*
X155415366Y-106665000D01*
X157004634Y-106665000D01*
X157066816Y-106658245D01*
X157203205Y-106607115D01*
X157319761Y-106519761D01*
X157407115Y-106403205D01*
X157458245Y-106266816D01*
X157465000Y-106204634D01*
X157465000Y-104615366D01*
X157458245Y-104553184D01*
X157407115Y-104416795D01*
X157319761Y-104300239D01*
X157203205Y-104212885D01*
X157066816Y-104161755D01*
X157004634Y-104155000D01*
X156863572Y-104155000D01*
X156795451Y-104134998D01*
X156748958Y-104081342D01*
X156738854Y-104011068D01*
X156768348Y-103946488D01*
X156810322Y-103914805D01*
X156834910Y-103903340D01*
X156834915Y-103903337D01*
X156839897Y-103901014D01*
X157019780Y-103775058D01*
X157175058Y-103619780D01*
X157190560Y-103597642D01*
X157297857Y-103444405D01*
X157301014Y-103439897D01*
X157303337Y-103434915D01*
X157303340Y-103434910D01*
X157391496Y-103245857D01*
X157391496Y-103245856D01*
X157393819Y-103240875D01*
X157437515Y-103077802D01*
X157449231Y-103034076D01*
X157449231Y-103034074D01*
X157450655Y-103028761D01*
X157469794Y-102810000D01*
X157450655Y-102591239D01*
X157393819Y-102379125D01*
X157305945Y-102190677D01*
X157303340Y-102185090D01*
X157303337Y-102185085D01*
X157301014Y-102180103D01*
X157230510Y-102079413D01*
X157178217Y-102004731D01*
X157178215Y-102004728D01*
X157175058Y-102000220D01*
X157019780Y-101844942D01*
X156996182Y-101828418D01*
X156939039Y-101788406D01*
X156839897Y-101718986D01*
X156834915Y-101716663D01*
X156834910Y-101716660D01*
X156645857Y-101628504D01*
X156645856Y-101628504D01*
X156640875Y-101626181D01*
X156635567Y-101624759D01*
X156635565Y-101624758D01*
X156434076Y-101570769D01*
X156434074Y-101570769D01*
X156428761Y-101569345D01*
X156210000Y-101550206D01*
X155991239Y-101569345D01*
X155985926Y-101570769D01*
X155985924Y-101570769D01*
X155784435Y-101624758D01*
X155784433Y-101624759D01*
X155779125Y-101626181D01*
X155774144Y-101628504D01*
X155774143Y-101628504D01*
X155585090Y-101716660D01*
X155585085Y-101716663D01*
X155580103Y-101718986D01*
X155480961Y-101788406D01*
X155423819Y-101828418D01*
X155400220Y-101844942D01*
X155244942Y-102000220D01*
X155241785Y-102004728D01*
X155241783Y-102004731D01*
X155189490Y-102079413D01*
X155118986Y-102180103D01*
X155116663Y-102185085D01*
X155116660Y-102185090D01*
X155114055Y-102190677D01*
X155026181Y-102379125D01*
X154969345Y-102591239D01*
X154950206Y-102810000D01*
X154178500Y-102810000D01*
X154178500Y-99390000D01*
X154896502Y-99390000D01*
X154916457Y-99618087D01*
X154975716Y-99839243D01*
X154978039Y-99844224D01*
X154978039Y-99844225D01*
X155070151Y-100041762D01*
X155070154Y-100041767D01*
X155072477Y-100046749D01*
X155075634Y-100051257D01*
X155154834Y-100164366D01*
X155203802Y-100234300D01*
X155365700Y-100396198D01*
X155370208Y-100399355D01*
X155370211Y-100399357D01*
X155409281Y-100426714D01*
X155553251Y-100527523D01*
X155558233Y-100529846D01*
X155558238Y-100529849D01*
X155755775Y-100621961D01*
X155760757Y-100624284D01*
X155766065Y-100625706D01*
X155766067Y-100625707D01*
X155976598Y-100682119D01*
X155976600Y-100682119D01*
X155981913Y-100683543D01*
X156210000Y-100703498D01*
X156438087Y-100683543D01*
X156443400Y-100682119D01*
X156443402Y-100682119D01*
X156653933Y-100625707D01*
X156653935Y-100625706D01*
X156659243Y-100624284D01*
X156664225Y-100621961D01*
X156861762Y-100529849D01*
X156861767Y-100529846D01*
X156866749Y-100527523D01*
X157010719Y-100426714D01*
X157049789Y-100399357D01*
X157049792Y-100399355D01*
X157054300Y-100396198D01*
X157216198Y-100234300D01*
X157265167Y-100164366D01*
X157344366Y-100051257D01*
X157347523Y-100046749D01*
X157349846Y-100041767D01*
X157349849Y-100041762D01*
X157441961Y-99844225D01*
X157441961Y-99844224D01*
X157444284Y-99839243D01*
X157503543Y-99618087D01*
X157523498Y-99390000D01*
X157503543Y-99161913D01*
X157463114Y-99011032D01*
X157445707Y-98946067D01*
X157445706Y-98946065D01*
X157444284Y-98940757D01*
X157382096Y-98807393D01*
X157349849Y-98738238D01*
X157349846Y-98738233D01*
X157347523Y-98733251D01*
X157246292Y-98588678D01*
X157219357Y-98550211D01*
X157219355Y-98550208D01*
X157216198Y-98545700D01*
X157054300Y-98383802D01*
X157049792Y-98380645D01*
X157049789Y-98380643D01*
X156964932Y-98321226D01*
X156866749Y-98252477D01*
X156861767Y-98250154D01*
X156861762Y-98250151D01*
X156664225Y-98158039D01*
X156664224Y-98158039D01*
X156659243Y-98155716D01*
X156653935Y-98154294D01*
X156653933Y-98154293D01*
X156443402Y-98097881D01*
X156443400Y-98097881D01*
X156438087Y-98096457D01*
X156210000Y-98076502D01*
X155981913Y-98096457D01*
X155976600Y-98097881D01*
X155976598Y-98097881D01*
X155766067Y-98154293D01*
X155766065Y-98154294D01*
X155760757Y-98155716D01*
X155755776Y-98158039D01*
X155755775Y-98158039D01*
X155558238Y-98250151D01*
X155558233Y-98250154D01*
X155553251Y-98252477D01*
X155455068Y-98321226D01*
X155370211Y-98380643D01*
X155370208Y-98380645D01*
X155365700Y-98383802D01*
X155203802Y-98545700D01*
X155200645Y-98550208D01*
X155200643Y-98550211D01*
X155173708Y-98588678D01*
X155072477Y-98733251D01*
X155070154Y-98738233D01*
X155070151Y-98738238D01*
X155037904Y-98807393D01*
X154975716Y-98940757D01*
X154974294Y-98946065D01*
X154974293Y-98946067D01*
X154956886Y-99011032D01*
X154916457Y-99161913D01*
X154896502Y-99390000D01*
X154178500Y-99390000D01*
X154178500Y-87776062D01*
X155488493Y-87776062D01*
X155497789Y-87788077D01*
X155548994Y-87823931D01*
X155558489Y-87829414D01*
X155755947Y-87921490D01*
X155766239Y-87925236D01*
X155976688Y-87981625D01*
X155987481Y-87983528D01*
X156204525Y-88002517D01*
X156215475Y-88002517D01*
X156432519Y-87983528D01*
X156443312Y-87981625D01*
X156653761Y-87925236D01*
X156664053Y-87921490D01*
X156861511Y-87829414D01*
X156871006Y-87823931D01*
X156923048Y-87787491D01*
X156931424Y-87777012D01*
X156924356Y-87763566D01*
X156222812Y-87062022D01*
X156208868Y-87054408D01*
X156207035Y-87054539D01*
X156200420Y-87058790D01*
X155494923Y-87764287D01*
X155488493Y-87776062D01*
X154178500Y-87776062D01*
X154178500Y-86695475D01*
X154897483Y-86695475D01*
X154916472Y-86912519D01*
X154918375Y-86923312D01*
X154974764Y-87133761D01*
X154978510Y-87144053D01*
X155070586Y-87341511D01*
X155076069Y-87351006D01*
X155112509Y-87403048D01*
X155122988Y-87411424D01*
X155136434Y-87404356D01*
X155837978Y-86702812D01*
X155844356Y-86691132D01*
X156574408Y-86691132D01*
X156574539Y-86692965D01*
X156578790Y-86699580D01*
X157284287Y-87405077D01*
X157296062Y-87411507D01*
X157308077Y-87402211D01*
X157343931Y-87351006D01*
X157349414Y-87341511D01*
X157441490Y-87144053D01*
X157445236Y-87133761D01*
X157501625Y-86923312D01*
X157503528Y-86912519D01*
X157522517Y-86695475D01*
X157522517Y-86684525D01*
X157503528Y-86467481D01*
X157501625Y-86456688D01*
X157445236Y-86246239D01*
X157441490Y-86235947D01*
X157349414Y-86038489D01*
X157343931Y-86028994D01*
X157307491Y-85976952D01*
X157297012Y-85968576D01*
X157283566Y-85975644D01*
X156582022Y-86677188D01*
X156574408Y-86691132D01*
X155844356Y-86691132D01*
X155845592Y-86688868D01*
X155845461Y-86687035D01*
X155841210Y-86680420D01*
X155135713Y-85974923D01*
X155123938Y-85968493D01*
X155111923Y-85977789D01*
X155076069Y-86028994D01*
X155070586Y-86038489D01*
X154978510Y-86235947D01*
X154974764Y-86246239D01*
X154918375Y-86456688D01*
X154916472Y-86467481D01*
X154897483Y-86684525D01*
X154897483Y-86695475D01*
X154178500Y-86695475D01*
X154178500Y-85602988D01*
X155488576Y-85602988D01*
X155495644Y-85616434D01*
X156197188Y-86317978D01*
X156211132Y-86325592D01*
X156212965Y-86325461D01*
X156219580Y-86321210D01*
X156925077Y-85615713D01*
X156931507Y-85603938D01*
X156922211Y-85591923D01*
X156871006Y-85556069D01*
X156861511Y-85550586D01*
X156664053Y-85458510D01*
X156653761Y-85454764D01*
X156443312Y-85398375D01*
X156432519Y-85396472D01*
X156215475Y-85377483D01*
X156204525Y-85377483D01*
X155987481Y-85396472D01*
X155976688Y-85398375D01*
X155766239Y-85454764D01*
X155755947Y-85458510D01*
X155558489Y-85550586D01*
X155548994Y-85556069D01*
X155496952Y-85592509D01*
X155488576Y-85602988D01*
X154178500Y-85602988D01*
X154178500Y-70136062D01*
X155488493Y-70136062D01*
X155497789Y-70148077D01*
X155548994Y-70183931D01*
X155558489Y-70189414D01*
X155755947Y-70281490D01*
X155766239Y-70285236D01*
X155976688Y-70341625D01*
X155987481Y-70343528D01*
X156204525Y-70362517D01*
X156215475Y-70362517D01*
X156432519Y-70343528D01*
X156443312Y-70341625D01*
X156653761Y-70285236D01*
X156664053Y-70281490D01*
X156861511Y-70189414D01*
X156871006Y-70183931D01*
X156923048Y-70147491D01*
X156931424Y-70137012D01*
X156924356Y-70123566D01*
X156222812Y-69422022D01*
X156208868Y-69414408D01*
X156207035Y-69414539D01*
X156200420Y-69418790D01*
X155494923Y-70124287D01*
X155488493Y-70136062D01*
X154178500Y-70136062D01*
X154178500Y-69055475D01*
X154897483Y-69055475D01*
X154916472Y-69272519D01*
X154918375Y-69283312D01*
X154974764Y-69493761D01*
X154978510Y-69504053D01*
X155070586Y-69701511D01*
X155076069Y-69711006D01*
X155112509Y-69763048D01*
X155122988Y-69771424D01*
X155136434Y-69764356D01*
X155837978Y-69062812D01*
X155844356Y-69051132D01*
X156574408Y-69051132D01*
X156574539Y-69052965D01*
X156578790Y-69059580D01*
X157284287Y-69765077D01*
X157296062Y-69771507D01*
X157308077Y-69762211D01*
X157343931Y-69711006D01*
X157349414Y-69701511D01*
X157441490Y-69504053D01*
X157445236Y-69493761D01*
X157501625Y-69283312D01*
X157503528Y-69272519D01*
X157522517Y-69055475D01*
X157522517Y-69044525D01*
X157503528Y-68827481D01*
X157501625Y-68816688D01*
X157445236Y-68606239D01*
X157441490Y-68595947D01*
X157349414Y-68398489D01*
X157343931Y-68388994D01*
X157307491Y-68336952D01*
X157297012Y-68328576D01*
X157283566Y-68335644D01*
X156582022Y-69037188D01*
X156574408Y-69051132D01*
X155844356Y-69051132D01*
X155845592Y-69048868D01*
X155845461Y-69047035D01*
X155841210Y-69040420D01*
X155135713Y-68334923D01*
X155123938Y-68328493D01*
X155111923Y-68337789D01*
X155076069Y-68388994D01*
X155070586Y-68398489D01*
X154978510Y-68595947D01*
X154974764Y-68606239D01*
X154918375Y-68816688D01*
X154916472Y-68827481D01*
X154897483Y-69044525D01*
X154897483Y-69055475D01*
X154178500Y-69055475D01*
X154178500Y-67962988D01*
X155488576Y-67962988D01*
X155495644Y-67976434D01*
X156197188Y-68677978D01*
X156211132Y-68685592D01*
X156212965Y-68685461D01*
X156219580Y-68681210D01*
X156925077Y-67975713D01*
X156931507Y-67963938D01*
X156922211Y-67951923D01*
X156871006Y-67916069D01*
X156861511Y-67910586D01*
X156664053Y-67818510D01*
X156653761Y-67814764D01*
X156443312Y-67758375D01*
X156432519Y-67756472D01*
X156215475Y-67737483D01*
X156204525Y-67737483D01*
X155987481Y-67756472D01*
X155976688Y-67758375D01*
X155766239Y-67814764D01*
X155755947Y-67818510D01*
X155558489Y-67910586D01*
X155548994Y-67916069D01*
X155496952Y-67952509D01*
X155488576Y-67962988D01*
X154178500Y-67962988D01*
X154178500Y-56350000D01*
X154896502Y-56350000D01*
X154916457Y-56578087D01*
X154917881Y-56583400D01*
X154917881Y-56583402D01*
X154949327Y-56700757D01*
X154975716Y-56799243D01*
X154978039Y-56804224D01*
X154978039Y-56804225D01*
X155070151Y-57001762D01*
X155070154Y-57001767D01*
X155072477Y-57006749D01*
X155203802Y-57194300D01*
X155365700Y-57356198D01*
X155370208Y-57359355D01*
X155370211Y-57359357D01*
X155404551Y-57383402D01*
X155553251Y-57487523D01*
X155558233Y-57489846D01*
X155558238Y-57489849D01*
X155755775Y-57581961D01*
X155760757Y-57584284D01*
X155766065Y-57585706D01*
X155766067Y-57585707D01*
X155976598Y-57642119D01*
X155976600Y-57642119D01*
X155981913Y-57643543D01*
X156210000Y-57663498D01*
X156438087Y-57643543D01*
X156443400Y-57642119D01*
X156443402Y-57642119D01*
X156653933Y-57585707D01*
X156653935Y-57585706D01*
X156659243Y-57584284D01*
X156664225Y-57581961D01*
X156861762Y-57489849D01*
X156861767Y-57489846D01*
X156866749Y-57487523D01*
X157015449Y-57383402D01*
X157049789Y-57359357D01*
X157049792Y-57359355D01*
X157054300Y-57356198D01*
X157216198Y-57194300D01*
X157347523Y-57006749D01*
X157349846Y-57001767D01*
X157349849Y-57001762D01*
X157441961Y-56804225D01*
X157441961Y-56804224D01*
X157444284Y-56799243D01*
X157470674Y-56700757D01*
X157502119Y-56583402D01*
X157502119Y-56583400D01*
X157503543Y-56578087D01*
X157523498Y-56350000D01*
X157503543Y-56121913D01*
X157487855Y-56063365D01*
X157445707Y-55906067D01*
X157445706Y-55906065D01*
X157444284Y-55900757D01*
X157423627Y-55856457D01*
X157349849Y-55698238D01*
X157349846Y-55698233D01*
X157347523Y-55693251D01*
X157274098Y-55588389D01*
X157219357Y-55510211D01*
X157219355Y-55510208D01*
X157216198Y-55505700D01*
X157054300Y-55343802D01*
X157049792Y-55340645D01*
X157049789Y-55340643D01*
X156971611Y-55285902D01*
X156866749Y-55212477D01*
X156861767Y-55210154D01*
X156861762Y-55210151D01*
X156664225Y-55118039D01*
X156664224Y-55118039D01*
X156659243Y-55115716D01*
X156653935Y-55114294D01*
X156653933Y-55114293D01*
X156443402Y-55057881D01*
X156443400Y-55057881D01*
X156438087Y-55056457D01*
X156210000Y-55036502D01*
X155981913Y-55056457D01*
X155976600Y-55057881D01*
X155976598Y-55057881D01*
X155766067Y-55114293D01*
X155766065Y-55114294D01*
X155760757Y-55115716D01*
X155755776Y-55118039D01*
X155755775Y-55118039D01*
X155558238Y-55210151D01*
X155558233Y-55210154D01*
X155553251Y-55212477D01*
X155448389Y-55285902D01*
X155370211Y-55340643D01*
X155370208Y-55340645D01*
X155365700Y-55343802D01*
X155203802Y-55505700D01*
X155200645Y-55510208D01*
X155200643Y-55510211D01*
X155145902Y-55588389D01*
X155072477Y-55693251D01*
X155070154Y-55698233D01*
X155070151Y-55698238D01*
X154996373Y-55856457D01*
X154975716Y-55900757D01*
X154974294Y-55906065D01*
X154974293Y-55906067D01*
X154932145Y-56063365D01*
X154916457Y-56121913D01*
X154896502Y-56350000D01*
X154178500Y-56350000D01*
X154178500Y-50740000D01*
X154950206Y-50740000D01*
X154969345Y-50958761D01*
X155026181Y-51170875D01*
X155028504Y-51175856D01*
X155028504Y-51175857D01*
X155116660Y-51364910D01*
X155116663Y-51364915D01*
X155118986Y-51369897D01*
X155244942Y-51549780D01*
X155400220Y-51705058D01*
X155580103Y-51831014D01*
X155585085Y-51833337D01*
X155585090Y-51833340D01*
X155609678Y-51844805D01*
X155662963Y-51891722D01*
X155682424Y-51959999D01*
X155661882Y-52027959D01*
X155607860Y-52074025D01*
X155556428Y-52085000D01*
X155415366Y-52085000D01*
X155353184Y-52091755D01*
X155216795Y-52142885D01*
X155100239Y-52230239D01*
X155012885Y-52346795D01*
X154961755Y-52483184D01*
X154955000Y-52545366D01*
X154955000Y-54134634D01*
X154961755Y-54196816D01*
X155012885Y-54333205D01*
X155100239Y-54449761D01*
X155216795Y-54537115D01*
X155353184Y-54588245D01*
X155415366Y-54595000D01*
X157004634Y-54595000D01*
X157066816Y-54588245D01*
X157203205Y-54537115D01*
X157319761Y-54449761D01*
X157407115Y-54333205D01*
X157458245Y-54196816D01*
X157465000Y-54134634D01*
X157465000Y-52545366D01*
X157458245Y-52483184D01*
X157407115Y-52346795D01*
X157319761Y-52230239D01*
X157203205Y-52142885D01*
X157066816Y-52091755D01*
X157004634Y-52085000D01*
X156863572Y-52085000D01*
X156795451Y-52064998D01*
X156748958Y-52011342D01*
X156738854Y-51941068D01*
X156768348Y-51876488D01*
X156810322Y-51844805D01*
X156834910Y-51833340D01*
X156834915Y-51833337D01*
X156839897Y-51831014D01*
X157019780Y-51705058D01*
X157175058Y-51549780D01*
X157301014Y-51369897D01*
X157303337Y-51364915D01*
X157303340Y-51364910D01*
X157391496Y-51175857D01*
X157391496Y-51175856D01*
X157393819Y-51170875D01*
X157450655Y-50958761D01*
X157469794Y-50740000D01*
X157450655Y-50521239D01*
X157393819Y-50309125D01*
X157391496Y-50304143D01*
X157303340Y-50115090D01*
X157303337Y-50115085D01*
X157301014Y-50110103D01*
X157175058Y-49930220D01*
X157019780Y-49774942D01*
X156839897Y-49648986D01*
X156834915Y-49646663D01*
X156834910Y-49646660D01*
X156645857Y-49558504D01*
X156645856Y-49558504D01*
X156640875Y-49556181D01*
X156635567Y-49554759D01*
X156635565Y-49554758D01*
X156434076Y-49500769D01*
X156434074Y-49500769D01*
X156428761Y-49499345D01*
X156210000Y-49480206D01*
X155991239Y-49499345D01*
X155985926Y-49500769D01*
X155985924Y-49500769D01*
X155784435Y-49554758D01*
X155784433Y-49554759D01*
X155779125Y-49556181D01*
X155774144Y-49558504D01*
X155774143Y-49558504D01*
X155585090Y-49646660D01*
X155585085Y-49646663D01*
X155580103Y-49648986D01*
X155400220Y-49774942D01*
X155244942Y-49930220D01*
X155118986Y-50110103D01*
X155116663Y-50115085D01*
X155116660Y-50115090D01*
X155028504Y-50304143D01*
X155026181Y-50309125D01*
X154969345Y-50521239D01*
X154950206Y-50740000D01*
X154178500Y-50740000D01*
X154178500Y-44028134D01*
X158711500Y-44028134D01*
X158718255Y-44090316D01*
X158769385Y-44226705D01*
X158856739Y-44343261D01*
X158973295Y-44430615D01*
X159109684Y-44481745D01*
X159171866Y-44488500D01*
X160380405Y-44488500D01*
X160448526Y-44508502D01*
X160469500Y-44525405D01*
X161127348Y-45183253D01*
X161134888Y-45191539D01*
X161139000Y-45198018D01*
X161144777Y-45203443D01*
X161188651Y-45244643D01*
X161191493Y-45247398D01*
X161211230Y-45267135D01*
X161214427Y-45269615D01*
X161223447Y-45277318D01*
X161255679Y-45307586D01*
X161262625Y-45311405D01*
X161262628Y-45311407D01*
X161273434Y-45317348D01*
X161289953Y-45328199D01*
X161305959Y-45340614D01*
X161313228Y-45343759D01*
X161313232Y-45343762D01*
X161346537Y-45358174D01*
X161357187Y-45363391D01*
X161395940Y-45384695D01*
X161403615Y-45386666D01*
X161403616Y-45386666D01*
X161415562Y-45389733D01*
X161434267Y-45396137D01*
X161452855Y-45404181D01*
X161460678Y-45405420D01*
X161460688Y-45405423D01*
X161496524Y-45411099D01*
X161508144Y-45413505D01*
X161543289Y-45422528D01*
X161550970Y-45424500D01*
X161571224Y-45424500D01*
X161590934Y-45426051D01*
X161610943Y-45429220D01*
X161618835Y-45428474D01*
X161654961Y-45425059D01*
X161666819Y-45424500D01*
X166084906Y-45424500D01*
X166153027Y-45444502D01*
X166199520Y-45498158D01*
X166209624Y-45568432D01*
X166180130Y-45633012D01*
X166174017Y-45639579D01*
X165282736Y-46530859D01*
X165274462Y-46538388D01*
X165267982Y-46542500D01*
X165262557Y-46548277D01*
X165221357Y-46592151D01*
X165218602Y-46594993D01*
X165198865Y-46614730D01*
X165196385Y-46617927D01*
X165188682Y-46626947D01*
X165158414Y-46659179D01*
X165154595Y-46666125D01*
X165154593Y-46666128D01*
X165148652Y-46676934D01*
X165137801Y-46693453D01*
X165125386Y-46709459D01*
X165122241Y-46716728D01*
X165122238Y-46716732D01*
X165107826Y-46750037D01*
X165102609Y-46760687D01*
X165081305Y-46799440D01*
X165079334Y-46807115D01*
X165079334Y-46807116D01*
X165076267Y-46819062D01*
X165069863Y-46837766D01*
X165061819Y-46856355D01*
X165060580Y-46864178D01*
X165060577Y-46864188D01*
X165054901Y-46900024D01*
X165052495Y-46911644D01*
X165041500Y-46954470D01*
X165041500Y-46974724D01*
X165039949Y-46994434D01*
X165036780Y-47014443D01*
X165037526Y-47022335D01*
X165040941Y-47058461D01*
X165041500Y-47070319D01*
X165041500Y-60070406D01*
X165021498Y-60138527D01*
X165004595Y-60159501D01*
X163629500Y-61534595D01*
X163567188Y-61568621D01*
X163540405Y-61571500D01*
X162074576Y-61571500D01*
X162006455Y-61551498D01*
X161985481Y-61534595D01*
X161622691Y-61171805D01*
X161614903Y-61162122D01*
X161614665Y-61162327D01*
X161608782Y-61155510D01*
X161603928Y-61147925D01*
X161597135Y-61142013D01*
X161597132Y-61142010D01*
X161565211Y-61114230D01*
X161561571Y-61110022D01*
X161561473Y-61110135D01*
X161558245Y-61107337D01*
X161558234Y-61107348D01*
X161554899Y-61104013D01*
X161551299Y-61101318D01*
X161551295Y-61101314D01*
X161548370Y-61099124D01*
X161541171Y-61093310D01*
X161497018Y-61054885D01*
X161493626Y-61051933D01*
X161473643Y-61039030D01*
X161474644Y-61037480D01*
X161459064Y-61028190D01*
X161458414Y-61029197D01*
X161432932Y-61012743D01*
X161432926Y-61012740D01*
X161431022Y-61011510D01*
X161429046Y-61010427D01*
X161429038Y-61010422D01*
X161401827Y-60995506D01*
X161366299Y-60976030D01*
X161303979Y-60957653D01*
X161295530Y-60954833D01*
X161260954Y-60941918D01*
X161260950Y-60941917D01*
X161252516Y-60938767D01*
X161244434Y-60938183D01*
X161182541Y-60904340D01*
X161148553Y-60842008D01*
X161153659Y-60771195D01*
X161199418Y-60712084D01*
X161295029Y-60645136D01*
X161295032Y-60645134D01*
X161299540Y-60641977D01*
X161456736Y-60484781D01*
X161584247Y-60302676D01*
X161586570Y-60297694D01*
X161586573Y-60297689D01*
X161675876Y-60106178D01*
X161675877Y-60106177D01*
X161678199Y-60101196D01*
X161735737Y-59886463D01*
X161755112Y-59665000D01*
X161735737Y-59443537D01*
X161678199Y-59228804D01*
X161675876Y-59223822D01*
X161586573Y-59032311D01*
X161586570Y-59032306D01*
X161584247Y-59027324D01*
X161456736Y-58845219D01*
X161299540Y-58688023D01*
X161295032Y-58684866D01*
X161295029Y-58684864D01*
X161219264Y-58631813D01*
X161117436Y-58560512D01*
X161112454Y-58558189D01*
X161112449Y-58558186D01*
X160920937Y-58468883D01*
X160920936Y-58468882D01*
X160915955Y-58466560D01*
X160910647Y-58465138D01*
X160910645Y-58465137D01*
X160830055Y-58443543D01*
X160701222Y-58409022D01*
X160479759Y-58389647D01*
X160258296Y-58409022D01*
X160129463Y-58443543D01*
X160048873Y-58465137D01*
X160048871Y-58465138D01*
X160043563Y-58466560D01*
X160038582Y-58468882D01*
X160038581Y-58468883D01*
X159847070Y-58558186D01*
X159847065Y-58558189D01*
X159842083Y-58560512D01*
X159837576Y-58563668D01*
X159837574Y-58563669D01*
X159664489Y-58684864D01*
X159664486Y-58684866D01*
X159659978Y-58688023D01*
X159502782Y-58845219D01*
X159375271Y-59027324D01*
X159372948Y-59032306D01*
X159372945Y-59032311D01*
X159283642Y-59223822D01*
X159281319Y-59228804D01*
X159223781Y-59443537D01*
X159204406Y-59665000D01*
X159223781Y-59886463D01*
X159281319Y-60101196D01*
X159283641Y-60106177D01*
X159283642Y-60106178D01*
X159372945Y-60297689D01*
X159372948Y-60297694D01*
X159375271Y-60302676D01*
X159502782Y-60484781D01*
X159659978Y-60641977D01*
X159664486Y-60645134D01*
X159664489Y-60645136D01*
X159740254Y-60698187D01*
X159842082Y-60769488D01*
X159847064Y-60771811D01*
X159847069Y-60771814D01*
X159944000Y-60817013D01*
X159997285Y-60863930D01*
X160016746Y-60932207D01*
X159996204Y-61000167D01*
X159944398Y-61045216D01*
X159887263Y-61072102D01*
X159887259Y-61072104D01*
X159884076Y-61073602D01*
X159881087Y-61075441D01*
X159881083Y-61075443D01*
X159772880Y-61142010D01*
X159738470Y-61163179D01*
X159735698Y-61165344D01*
X159735699Y-61165344D01*
X159666506Y-61219404D01*
X159648218Y-61233692D01*
X159526077Y-61353302D01*
X159453692Y-61442055D01*
X159361085Y-61585753D01*
X159310161Y-61688337D01*
X159251691Y-61848981D01*
X159224760Y-61960301D01*
X159203334Y-62129906D01*
X159201735Y-62244424D01*
X159218417Y-62414562D01*
X159242229Y-62526588D01*
X159243336Y-62529916D01*
X159243338Y-62529923D01*
X159263822Y-62591500D01*
X159296190Y-62688802D01*
X159297666Y-62691996D01*
X159297667Y-62691999D01*
X159305468Y-62708882D01*
X159344230Y-62792771D01*
X159346056Y-62795786D01*
X159346057Y-62795788D01*
X159371925Y-62838500D01*
X159432789Y-62938999D01*
X159502667Y-63029738D01*
X159621421Y-63152712D01*
X159709671Y-63225718D01*
X159712622Y-63227649D01*
X159848199Y-63316367D01*
X159852719Y-63319325D01*
X159855858Y-63320911D01*
X159855869Y-63320917D01*
X159946627Y-63366763D01*
X159998412Y-63415330D01*
X160015718Y-63484185D01*
X159993052Y-63551466D01*
X159943067Y-63593422D01*
X159906786Y-63610340D01*
X159847070Y-63638186D01*
X159847065Y-63638189D01*
X159842083Y-63640512D01*
X159837576Y-63643668D01*
X159837574Y-63643669D01*
X159664489Y-63764864D01*
X159664486Y-63764866D01*
X159659978Y-63768023D01*
X159502782Y-63925219D01*
X159499625Y-63929727D01*
X159499623Y-63929730D01*
X159378428Y-64102815D01*
X159375271Y-64107324D01*
X159372948Y-64112306D01*
X159372945Y-64112311D01*
X159283642Y-64303822D01*
X159281319Y-64308804D01*
X159223781Y-64523537D01*
X159204406Y-64745000D01*
X159223781Y-64966463D01*
X159281319Y-65181196D01*
X159283641Y-65186177D01*
X159283642Y-65186178D01*
X159372945Y-65377689D01*
X159372948Y-65377694D01*
X159375271Y-65382676D01*
X159378427Y-65387183D01*
X159378428Y-65387185D01*
X159497500Y-65557237D01*
X159502782Y-65564781D01*
X159659978Y-65721977D01*
X159664486Y-65725134D01*
X159664489Y-65725136D01*
X159829808Y-65840894D01*
X159874136Y-65896351D01*
X159881445Y-65966971D01*
X159849414Y-66030331D01*
X159790147Y-66065814D01*
X159784611Y-66067297D01*
X159784606Y-66067299D01*
X159778235Y-66069006D01*
X159611634Y-66153893D01*
X159466323Y-66271564D01*
X159348652Y-66416875D01*
X159263765Y-66583476D01*
X159215371Y-66764085D01*
X159209259Y-66841742D01*
X159209259Y-67728258D01*
X159209452Y-67730706D01*
X159209452Y-67730714D01*
X159211629Y-67758375D01*
X159215371Y-67805915D01*
X159216864Y-67811488D01*
X159216865Y-67811492D01*
X159257713Y-67963938D01*
X159263765Y-67986524D01*
X159348652Y-68153125D01*
X159466323Y-68298436D01*
X159471449Y-68302587D01*
X159589878Y-68398489D01*
X159611634Y-68416107D01*
X159778235Y-68500994D01*
X159784604Y-68502700D01*
X159784605Y-68502701D01*
X159785900Y-68503048D01*
X159790148Y-68504186D01*
X159850770Y-68541135D01*
X159881793Y-68604995D01*
X159873366Y-68675490D01*
X159829809Y-68729106D01*
X159664489Y-68844864D01*
X159664486Y-68844866D01*
X159659978Y-68848023D01*
X159502782Y-69005219D01*
X159499625Y-69009727D01*
X159499623Y-69009730D01*
X159401240Y-69150236D01*
X159375271Y-69187324D01*
X159372948Y-69192306D01*
X159372945Y-69192311D01*
X159284669Y-69381620D01*
X159281319Y-69388804D01*
X159223781Y-69603537D01*
X159204406Y-69825000D01*
X159223781Y-70046463D01*
X159244441Y-70123566D01*
X159275245Y-70238526D01*
X159281319Y-70261196D01*
X159283641Y-70266177D01*
X159283642Y-70266178D01*
X159372945Y-70457689D01*
X159372948Y-70457694D01*
X159375271Y-70462676D01*
X159378427Y-70467183D01*
X159378428Y-70467185D01*
X159490168Y-70626766D01*
X159502782Y-70644781D01*
X159659978Y-70801977D01*
X159664486Y-70805134D01*
X159664489Y-70805136D01*
X159740254Y-70858187D01*
X159842082Y-70929488D01*
X159847064Y-70931811D01*
X159847069Y-70931814D01*
X159952132Y-70980805D01*
X160005417Y-71027722D01*
X160024878Y-71095999D01*
X160004336Y-71163959D01*
X159952132Y-71209195D01*
X159847070Y-71258186D01*
X159847065Y-71258189D01*
X159842083Y-71260512D01*
X159837576Y-71263668D01*
X159837574Y-71263669D01*
X159664489Y-71384864D01*
X159664486Y-71384866D01*
X159659978Y-71388023D01*
X159502782Y-71545219D01*
X159375271Y-71727324D01*
X159372948Y-71732306D01*
X159372945Y-71732311D01*
X159283642Y-71923822D01*
X159281319Y-71928804D01*
X159223781Y-72143537D01*
X159204406Y-72365000D01*
X159223781Y-72586463D01*
X159281319Y-72801196D01*
X159283641Y-72806177D01*
X159283642Y-72806178D01*
X159372945Y-72997689D01*
X159372948Y-72997694D01*
X159375271Y-73002676D01*
X159502782Y-73184781D01*
X159659978Y-73341977D01*
X159664486Y-73345134D01*
X159664489Y-73345136D01*
X159740254Y-73398187D01*
X159842082Y-73469488D01*
X159847064Y-73471811D01*
X159847069Y-73471814D01*
X159952132Y-73520805D01*
X160005417Y-73567722D01*
X160024878Y-73635999D01*
X160004336Y-73703959D01*
X159952132Y-73749195D01*
X159847070Y-73798186D01*
X159847065Y-73798189D01*
X159842083Y-73800512D01*
X159837576Y-73803668D01*
X159837574Y-73803669D01*
X159664489Y-73924864D01*
X159664486Y-73924866D01*
X159659978Y-73928023D01*
X159502782Y-74085219D01*
X159375271Y-74267324D01*
X159372948Y-74272306D01*
X159372945Y-74272311D01*
X159283642Y-74463822D01*
X159281319Y-74468804D01*
X159223781Y-74683537D01*
X159204406Y-74905000D01*
X159223781Y-75126463D01*
X159229481Y-75147736D01*
X159275245Y-75318526D01*
X159281319Y-75341196D01*
X159283641Y-75346177D01*
X159283642Y-75346178D01*
X159372945Y-75537689D01*
X159372948Y-75537694D01*
X159375271Y-75542676D01*
X159502782Y-75724781D01*
X159659978Y-75881977D01*
X159664486Y-75885134D01*
X159664489Y-75885136D01*
X159740254Y-75938187D01*
X159842082Y-76009488D01*
X159847064Y-76011811D01*
X159847069Y-76011814D01*
X159952132Y-76060805D01*
X160005417Y-76107722D01*
X160024878Y-76175999D01*
X160004336Y-76243959D01*
X159952132Y-76289195D01*
X159847070Y-76338186D01*
X159847065Y-76338189D01*
X159842083Y-76340512D01*
X159837576Y-76343668D01*
X159837574Y-76343669D01*
X159664489Y-76464864D01*
X159664486Y-76464866D01*
X159659978Y-76468023D01*
X159502782Y-76625219D01*
X159375271Y-76807324D01*
X159372948Y-76812306D01*
X159372945Y-76812311D01*
X159283642Y-77003822D01*
X159281319Y-77008804D01*
X159223781Y-77223537D01*
X159204406Y-77445000D01*
X159223781Y-77666463D01*
X159281319Y-77881196D01*
X159283641Y-77886177D01*
X159283642Y-77886178D01*
X159372945Y-78077689D01*
X159372948Y-78077694D01*
X159375271Y-78082676D01*
X159502782Y-78264781D01*
X159659978Y-78421977D01*
X159664486Y-78425134D01*
X159664489Y-78425136D01*
X159740254Y-78478187D01*
X159842082Y-78549488D01*
X159847064Y-78551811D01*
X159847069Y-78551814D01*
X159952132Y-78600805D01*
X160005417Y-78647722D01*
X160024878Y-78715999D01*
X160004336Y-78783959D01*
X159952132Y-78829195D01*
X159847070Y-78878186D01*
X159847065Y-78878189D01*
X159842083Y-78880512D01*
X159837576Y-78883668D01*
X159837574Y-78883669D01*
X159664489Y-79004864D01*
X159664486Y-79004866D01*
X159659978Y-79008023D01*
X159502782Y-79165219D01*
X159375271Y-79347324D01*
X159372948Y-79352306D01*
X159372945Y-79352311D01*
X159283642Y-79543822D01*
X159281319Y-79548804D01*
X159223781Y-79763537D01*
X159204406Y-79985000D01*
X159223781Y-80206463D01*
X159281319Y-80421196D01*
X159283641Y-80426177D01*
X159283642Y-80426178D01*
X159372945Y-80617689D01*
X159372948Y-80617694D01*
X159375271Y-80622676D01*
X159502782Y-80804781D01*
X159659978Y-80961977D01*
X159664486Y-80965134D01*
X159664489Y-80965136D01*
X159740254Y-81018187D01*
X159842082Y-81089488D01*
X159847064Y-81091811D01*
X159847069Y-81091814D01*
X159952132Y-81140805D01*
X160005417Y-81187722D01*
X160024878Y-81255999D01*
X160004336Y-81323959D01*
X159952132Y-81369195D01*
X159847070Y-81418186D01*
X159847065Y-81418189D01*
X159842083Y-81420512D01*
X159837576Y-81423668D01*
X159837574Y-81423669D01*
X159664489Y-81544864D01*
X159664486Y-81544866D01*
X159659978Y-81548023D01*
X159502782Y-81705219D01*
X159499625Y-81709727D01*
X159499623Y-81709730D01*
X159378428Y-81882815D01*
X159375271Y-81887324D01*
X159372948Y-81892306D01*
X159372945Y-81892311D01*
X159283642Y-82083822D01*
X159281319Y-82088804D01*
X159223781Y-82303537D01*
X159204406Y-82525000D01*
X159223781Y-82746463D01*
X159281319Y-82961196D01*
X159283641Y-82966177D01*
X159283642Y-82966178D01*
X159372945Y-83157689D01*
X159372948Y-83157694D01*
X159375271Y-83162676D01*
X159378427Y-83167183D01*
X159378428Y-83167185D01*
X159497500Y-83337237D01*
X159502782Y-83344781D01*
X159659978Y-83501977D01*
X159664486Y-83505134D01*
X159664489Y-83505136D01*
X159740254Y-83558187D01*
X159842082Y-83629488D01*
X159847064Y-83631811D01*
X159847069Y-83631814D01*
X159952132Y-83680805D01*
X160005417Y-83727722D01*
X160024878Y-83795999D01*
X160004336Y-83863959D01*
X159952132Y-83909195D01*
X159847070Y-83958186D01*
X159847065Y-83958189D01*
X159842083Y-83960512D01*
X159837576Y-83963668D01*
X159837574Y-83963669D01*
X159664489Y-84084864D01*
X159664486Y-84084866D01*
X159659978Y-84088023D01*
X159502782Y-84245219D01*
X159375271Y-84427324D01*
X159372948Y-84432306D01*
X159372945Y-84432311D01*
X159283642Y-84623822D01*
X159281319Y-84628804D01*
X159223781Y-84843537D01*
X159204406Y-85065000D01*
X159223781Y-85286463D01*
X159281319Y-85501196D01*
X159283641Y-85506177D01*
X159283642Y-85506178D01*
X159372945Y-85697689D01*
X159372948Y-85697694D01*
X159375271Y-85702676D01*
X159378427Y-85707183D01*
X159378428Y-85707185D01*
X159463566Y-85828774D01*
X159502782Y-85884781D01*
X159659978Y-86041977D01*
X159664486Y-86045134D01*
X159664489Y-86045136D01*
X159738113Y-86096688D01*
X159842082Y-86169488D01*
X159847064Y-86171811D01*
X159847069Y-86171814D01*
X159952132Y-86220805D01*
X160005417Y-86267722D01*
X160024878Y-86335999D01*
X160004336Y-86403959D01*
X159952132Y-86449195D01*
X159847070Y-86498186D01*
X159847065Y-86498189D01*
X159842083Y-86500512D01*
X159837576Y-86503668D01*
X159837574Y-86503669D01*
X159664489Y-86624864D01*
X159664486Y-86624866D01*
X159659978Y-86628023D01*
X159502782Y-86785219D01*
X159375271Y-86967324D01*
X159372948Y-86972306D01*
X159372945Y-86972311D01*
X159283642Y-87163822D01*
X159281319Y-87168804D01*
X159223781Y-87383537D01*
X159204406Y-87605000D01*
X159223781Y-87826463D01*
X159281319Y-88041196D01*
X159283641Y-88046177D01*
X159283642Y-88046178D01*
X159372945Y-88237689D01*
X159372948Y-88237694D01*
X159375271Y-88242676D01*
X159378427Y-88247183D01*
X159378428Y-88247185D01*
X159457941Y-88360741D01*
X159502782Y-88424781D01*
X159659978Y-88581977D01*
X159664486Y-88585134D01*
X159664489Y-88585136D01*
X159740254Y-88638187D01*
X159842082Y-88709488D01*
X159847064Y-88711811D01*
X159847069Y-88711814D01*
X159952132Y-88760805D01*
X160005417Y-88807722D01*
X160024878Y-88875999D01*
X160004336Y-88943959D01*
X159952132Y-88989195D01*
X159847070Y-89038186D01*
X159847065Y-89038189D01*
X159842083Y-89040512D01*
X159837576Y-89043668D01*
X159837574Y-89043669D01*
X159664489Y-89164864D01*
X159664486Y-89164866D01*
X159659978Y-89168023D01*
X159502782Y-89325219D01*
X159499625Y-89329727D01*
X159499623Y-89329730D01*
X159386607Y-89491134D01*
X159375271Y-89507324D01*
X159372948Y-89512306D01*
X159372945Y-89512311D01*
X159289584Y-89691080D01*
X159281319Y-89708804D01*
X159223781Y-89923537D01*
X159204406Y-90145000D01*
X159223781Y-90366463D01*
X159281319Y-90581196D01*
X159283641Y-90586177D01*
X159283642Y-90586178D01*
X159372945Y-90777689D01*
X159372948Y-90777694D01*
X159375271Y-90782676D01*
X159378427Y-90787183D01*
X159378428Y-90787185D01*
X159497500Y-90957237D01*
X159502782Y-90964781D01*
X159659978Y-91121977D01*
X159664486Y-91125134D01*
X159664489Y-91125136D01*
X159740254Y-91178187D01*
X159842082Y-91249488D01*
X159847064Y-91251811D01*
X159847069Y-91251814D01*
X159952132Y-91300805D01*
X160005417Y-91347722D01*
X160024878Y-91415999D01*
X160004336Y-91483959D01*
X159952132Y-91529195D01*
X159847070Y-91578186D01*
X159847065Y-91578189D01*
X159842083Y-91580512D01*
X159837576Y-91583668D01*
X159837574Y-91583669D01*
X159664489Y-91704864D01*
X159664486Y-91704866D01*
X159659978Y-91708023D01*
X159502782Y-91865219D01*
X159375271Y-92047324D01*
X159372948Y-92052306D01*
X159372945Y-92052311D01*
X159283642Y-92243822D01*
X159281319Y-92248804D01*
X159223781Y-92463537D01*
X159204406Y-92685000D01*
X159223781Y-92906463D01*
X159281319Y-93121196D01*
X159283641Y-93126177D01*
X159283642Y-93126178D01*
X159372945Y-93317689D01*
X159372948Y-93317694D01*
X159375271Y-93322676D01*
X159502782Y-93504781D01*
X159659978Y-93661977D01*
X159664486Y-93665134D01*
X159664489Y-93665136D01*
X159740254Y-93718187D01*
X159842082Y-93789488D01*
X159847064Y-93791811D01*
X159847069Y-93791814D01*
X159952132Y-93840805D01*
X160005417Y-93887722D01*
X160024878Y-93955999D01*
X160004336Y-94023959D01*
X159952132Y-94069195D01*
X159847070Y-94118186D01*
X159847065Y-94118189D01*
X159842083Y-94120512D01*
X159837576Y-94123668D01*
X159837574Y-94123669D01*
X159664489Y-94244864D01*
X159664486Y-94244866D01*
X159659978Y-94248023D01*
X159502782Y-94405219D01*
X159375271Y-94587324D01*
X159372948Y-94592306D01*
X159372945Y-94592311D01*
X159283642Y-94783822D01*
X159281319Y-94788804D01*
X159223781Y-95003537D01*
X159204406Y-95225000D01*
X159223781Y-95446463D01*
X159281319Y-95661196D01*
X159283641Y-95666177D01*
X159283642Y-95666178D01*
X159372945Y-95857689D01*
X159372948Y-95857694D01*
X159375271Y-95862676D01*
X159502782Y-96044781D01*
X159659978Y-96201977D01*
X159664486Y-96205134D01*
X159664489Y-96205136D01*
X159740254Y-96258187D01*
X159842082Y-96329488D01*
X159847064Y-96331811D01*
X159847069Y-96331814D01*
X159952132Y-96380805D01*
X160005417Y-96427722D01*
X160024878Y-96495999D01*
X160004336Y-96563959D01*
X159952132Y-96609195D01*
X159847070Y-96658186D01*
X159847065Y-96658189D01*
X159842083Y-96660512D01*
X159837576Y-96663668D01*
X159837574Y-96663669D01*
X159664489Y-96784864D01*
X159664486Y-96784866D01*
X159659978Y-96788023D01*
X159502782Y-96945219D01*
X159499625Y-96949727D01*
X159499623Y-96949730D01*
X159378428Y-97122815D01*
X159375271Y-97127324D01*
X159372948Y-97132306D01*
X159372945Y-97132311D01*
X159283642Y-97323822D01*
X159281319Y-97328804D01*
X159223781Y-97543537D01*
X159204406Y-97765000D01*
X159223781Y-97986463D01*
X159253126Y-98095978D01*
X159278376Y-98190211D01*
X159281319Y-98201196D01*
X159283641Y-98206177D01*
X159283642Y-98206178D01*
X159372945Y-98397689D01*
X159372948Y-98397694D01*
X159375271Y-98402676D01*
X159378427Y-98407183D01*
X159378428Y-98407185D01*
X159497500Y-98577237D01*
X159502782Y-98584781D01*
X159659978Y-98741977D01*
X159664486Y-98745134D01*
X159664489Y-98745136D01*
X159737985Y-98796598D01*
X159842082Y-98869488D01*
X159847064Y-98871811D01*
X159847069Y-98871814D01*
X159984235Y-98935775D01*
X160043563Y-98963440D01*
X160048871Y-98964862D01*
X160048873Y-98964863D01*
X160056259Y-98966842D01*
X160258296Y-99020978D01*
X160479759Y-99040353D01*
X160701222Y-99020978D01*
X160744648Y-99009342D01*
X160815624Y-99011032D01*
X160874420Y-99050826D01*
X160902368Y-99116090D01*
X160903259Y-99131049D01*
X160903259Y-107821242D01*
X160902732Y-107832425D01*
X160901057Y-107839918D01*
X160901306Y-107847844D01*
X160901306Y-107847845D01*
X160903197Y-107907995D01*
X160903259Y-107911954D01*
X160903259Y-107939865D01*
X160903756Y-107943799D01*
X160903756Y-107943800D01*
X160903764Y-107943865D01*
X160904697Y-107955702D01*
X160906086Y-107999898D01*
X160911737Y-108019348D01*
X160915746Y-108038709D01*
X160918285Y-108058806D01*
X160921204Y-108066177D01*
X160921204Y-108066179D01*
X160934563Y-108099921D01*
X160938408Y-108111151D01*
X160950741Y-108153602D01*
X160954774Y-108160421D01*
X160954776Y-108160426D01*
X160961052Y-108171037D01*
X160969747Y-108188785D01*
X160977207Y-108207626D01*
X160981869Y-108214042D01*
X160981869Y-108214043D01*
X161003195Y-108243396D01*
X161009711Y-108253316D01*
X161022296Y-108274595D01*
X161032217Y-108291371D01*
X161046538Y-108305692D01*
X161059378Y-108320725D01*
X161071287Y-108337116D01*
X161105364Y-108365307D01*
X161114143Y-108373297D01*
X165558861Y-112818016D01*
X165592887Y-112880328D01*
X165587822Y-112951143D01*
X165545275Y-113007979D01*
X165478755Y-113032790D01*
X165458785Y-113032632D01*
X165322226Y-113020685D01*
X165322225Y-113020685D01*
X165316750Y-113020206D01*
X165097989Y-113039345D01*
X165092676Y-113040769D01*
X165092674Y-113040769D01*
X164891185Y-113094758D01*
X164891183Y-113094759D01*
X164885875Y-113096181D01*
X164880894Y-113098504D01*
X164880893Y-113098504D01*
X164691840Y-113186660D01*
X164691835Y-113186663D01*
X164686853Y-113188986D01*
X164586163Y-113259490D01*
X164518427Y-113306920D01*
X164506970Y-113314942D01*
X164351692Y-113470220D01*
X164348535Y-113474728D01*
X164348533Y-113474731D01*
X164338694Y-113488783D01*
X164225736Y-113650103D01*
X164223413Y-113655085D01*
X164223410Y-113655090D01*
X164211945Y-113679678D01*
X164165028Y-113732963D01*
X164096751Y-113752424D01*
X164028791Y-113731882D01*
X163982725Y-113677860D01*
X163971750Y-113626428D01*
X163971750Y-113485366D01*
X163964995Y-113423184D01*
X163913865Y-113286795D01*
X163826511Y-113170239D01*
X163709955Y-113082885D01*
X163573566Y-113031755D01*
X163511384Y-113025000D01*
X161922116Y-113025000D01*
X161859934Y-113031755D01*
X161723545Y-113082885D01*
X161606989Y-113170239D01*
X161519635Y-113286795D01*
X161468505Y-113423184D01*
X161461750Y-113485366D01*
X161461750Y-115074634D01*
X161468505Y-115136816D01*
X161519635Y-115273205D01*
X161606989Y-115389761D01*
X161723545Y-115477115D01*
X161859934Y-115528245D01*
X161922116Y-115535000D01*
X163511384Y-115535000D01*
X163573566Y-115528245D01*
X163709955Y-115477115D01*
X163826511Y-115389761D01*
X163913865Y-115273205D01*
X163964995Y-115136816D01*
X163971750Y-115074634D01*
X163971750Y-114933572D01*
X163991752Y-114865451D01*
X164045408Y-114818958D01*
X164115682Y-114808854D01*
X164180262Y-114838348D01*
X164211945Y-114880322D01*
X164223410Y-114904910D01*
X164223413Y-114904915D01*
X164225736Y-114909897D01*
X164249458Y-114943775D01*
X164341087Y-115074634D01*
X164351692Y-115089780D01*
X164506970Y-115245058D01*
X164511478Y-115248215D01*
X164511481Y-115248217D01*
X164565899Y-115286321D01*
X164686853Y-115371014D01*
X164691835Y-115373337D01*
X164691840Y-115373340D01*
X164866422Y-115454748D01*
X164885875Y-115463819D01*
X164891183Y-115465241D01*
X164891185Y-115465242D01*
X165092674Y-115519231D01*
X165092676Y-115519231D01*
X165097989Y-115520655D01*
X165316750Y-115539794D01*
X165535511Y-115520655D01*
X165540824Y-115519231D01*
X165540826Y-115519231D01*
X165742315Y-115465242D01*
X165742317Y-115465241D01*
X165747625Y-115463819D01*
X165767078Y-115454748D01*
X165941660Y-115373340D01*
X165941665Y-115373337D01*
X165946647Y-115371014D01*
X166067601Y-115286321D01*
X166122019Y-115248217D01*
X166122022Y-115248215D01*
X166126530Y-115245058D01*
X166281808Y-115089780D01*
X166292414Y-115074634D01*
X166384042Y-114943775D01*
X166407764Y-114909897D01*
X166410087Y-114904915D01*
X166410090Y-114904910D01*
X166498246Y-114715857D01*
X166498246Y-114715856D01*
X166500369Y-114711305D01*
X166500569Y-114710875D01*
X166501491Y-114711305D01*
X166540446Y-114658401D01*
X166606768Y-114633065D01*
X166676259Y-114647608D01*
X166726857Y-114697411D01*
X166732825Y-114710480D01*
X166732931Y-114710875D01*
X166735254Y-114715856D01*
X166735254Y-114715857D01*
X166823410Y-114904910D01*
X166823413Y-114904915D01*
X166825736Y-114909897D01*
X166849458Y-114943775D01*
X166941087Y-115074634D01*
X166951692Y-115089780D01*
X167106970Y-115245058D01*
X167111478Y-115248215D01*
X167111481Y-115248217D01*
X167165899Y-115286321D01*
X167286853Y-115371014D01*
X167291835Y-115373337D01*
X167291840Y-115373340D01*
X167466422Y-115454748D01*
X167485875Y-115463819D01*
X167491183Y-115465241D01*
X167491185Y-115465242D01*
X167692674Y-115519231D01*
X167692676Y-115519231D01*
X167697989Y-115520655D01*
X167916750Y-115539794D01*
X168135511Y-115520655D01*
X168140824Y-115519231D01*
X168140826Y-115519231D01*
X168342315Y-115465242D01*
X168342317Y-115465241D01*
X168347625Y-115463819D01*
X168367078Y-115454748D01*
X168541660Y-115373340D01*
X168541665Y-115373337D01*
X168546647Y-115371014D01*
X168667601Y-115286321D01*
X168722019Y-115248217D01*
X168722022Y-115248215D01*
X168726530Y-115245058D01*
X168881808Y-115089780D01*
X168892414Y-115074634D01*
X168984042Y-114943775D01*
X169007764Y-114909897D01*
X169010089Y-114904911D01*
X169010093Y-114904904D01*
X169012556Y-114899622D01*
X169059474Y-114846337D01*
X169127751Y-114826877D01*
X169195711Y-114847420D01*
X169240944Y-114899622D01*
X169243407Y-114904904D01*
X169243411Y-114904911D01*
X169245736Y-114909897D01*
X169269458Y-114943775D01*
X169361087Y-115074634D01*
X169371692Y-115089780D01*
X169526970Y-115245058D01*
X169531478Y-115248215D01*
X169531481Y-115248217D01*
X169585899Y-115286321D01*
X169706853Y-115371014D01*
X169711835Y-115373337D01*
X169711840Y-115373340D01*
X169886422Y-115454748D01*
X169905875Y-115463819D01*
X169911183Y-115465241D01*
X169911185Y-115465242D01*
X170112674Y-115519231D01*
X170112676Y-115519231D01*
X170117989Y-115520655D01*
X170336750Y-115539794D01*
X170555511Y-115520655D01*
X170560824Y-115519231D01*
X170560826Y-115519231D01*
X170762315Y-115465242D01*
X170762317Y-115465241D01*
X170767625Y-115463819D01*
X170787078Y-115454748D01*
X170961660Y-115373340D01*
X170961665Y-115373337D01*
X170966647Y-115371014D01*
X171087601Y-115286321D01*
X171142019Y-115248217D01*
X171142022Y-115248215D01*
X171146530Y-115245058D01*
X171301808Y-115089780D01*
X171312414Y-115074634D01*
X171404042Y-114943775D01*
X171427764Y-114909897D01*
X171430087Y-114904915D01*
X171430090Y-114904910D01*
X171492555Y-114770952D01*
X171539472Y-114717667D01*
X171607749Y-114698206D01*
X171675709Y-114718748D01*
X171720945Y-114770952D01*
X171783410Y-114904910D01*
X171783413Y-114904915D01*
X171785736Y-114909897D01*
X171809458Y-114943775D01*
X171901087Y-115074634D01*
X171911692Y-115089780D01*
X172066970Y-115245058D01*
X172071478Y-115248215D01*
X172071481Y-115248217D01*
X172125899Y-115286321D01*
X172246853Y-115371014D01*
X172251835Y-115373337D01*
X172251840Y-115373340D01*
X172426422Y-115454748D01*
X172445875Y-115463819D01*
X172451183Y-115465241D01*
X172451185Y-115465242D01*
X172652674Y-115519231D01*
X172652676Y-115519231D01*
X172657989Y-115520655D01*
X172876750Y-115539794D01*
X173095511Y-115520655D01*
X173100824Y-115519231D01*
X173100826Y-115519231D01*
X173302315Y-115465242D01*
X173302317Y-115465241D01*
X173307625Y-115463819D01*
X173327078Y-115454748D01*
X173501660Y-115373340D01*
X173501665Y-115373337D01*
X173506647Y-115371014D01*
X173627601Y-115286321D01*
X173682019Y-115248217D01*
X173682022Y-115248215D01*
X173686530Y-115245058D01*
X173841808Y-115089780D01*
X173852414Y-115074634D01*
X173944042Y-114943775D01*
X173967764Y-114909897D01*
X173970087Y-114904915D01*
X173970090Y-114904910D01*
X174024004Y-114789289D01*
X174070921Y-114736004D01*
X174139198Y-114716543D01*
X174207158Y-114737085D01*
X174252394Y-114789289D01*
X174309936Y-114912689D01*
X174309939Y-114912694D01*
X174312262Y-114917676D01*
X174315418Y-114922183D01*
X174315419Y-114922185D01*
X174429612Y-115085269D01*
X174439773Y-115099781D01*
X174596969Y-115256977D01*
X174601477Y-115260134D01*
X174601480Y-115260136D01*
X174638876Y-115286321D01*
X174779073Y-115384488D01*
X174784055Y-115386811D01*
X174784060Y-115386814D01*
X174966162Y-115471729D01*
X174980554Y-115478440D01*
X174985862Y-115479862D01*
X174985864Y-115479863D01*
X174987372Y-115480267D01*
X175195287Y-115535978D01*
X175416750Y-115555353D01*
X175638213Y-115535978D01*
X175846128Y-115480267D01*
X175847636Y-115479863D01*
X175847638Y-115479862D01*
X175852946Y-115478440D01*
X175867338Y-115471729D01*
X176049440Y-115386814D01*
X176049445Y-115386811D01*
X176054427Y-115384488D01*
X176194624Y-115286321D01*
X176232020Y-115260136D01*
X176232023Y-115260134D01*
X176236531Y-115256977D01*
X176393727Y-115099781D01*
X176403889Y-115085269D01*
X176518081Y-114922185D01*
X176518082Y-114922183D01*
X176521238Y-114917676D01*
X176523561Y-114912694D01*
X176523564Y-114912689D01*
X176572555Y-114807627D01*
X176619473Y-114754342D01*
X176687750Y-114734881D01*
X176755710Y-114755423D01*
X176800945Y-114807627D01*
X176849936Y-114912689D01*
X176849939Y-114912694D01*
X176852262Y-114917676D01*
X176855418Y-114922183D01*
X176855419Y-114922185D01*
X176969612Y-115085269D01*
X176979773Y-115099781D01*
X177136969Y-115256977D01*
X177141477Y-115260134D01*
X177141480Y-115260136D01*
X177178876Y-115286321D01*
X177319073Y-115384488D01*
X177324055Y-115386811D01*
X177324060Y-115386814D01*
X177506162Y-115471729D01*
X177520554Y-115478440D01*
X177525862Y-115479862D01*
X177525864Y-115479863D01*
X177527372Y-115480267D01*
X177735287Y-115535978D01*
X177956750Y-115555353D01*
X178178213Y-115535978D01*
X178386128Y-115480267D01*
X178387636Y-115479863D01*
X178387638Y-115479862D01*
X178392946Y-115478440D01*
X178407338Y-115471729D01*
X178589440Y-115386814D01*
X178589445Y-115386811D01*
X178594427Y-115384488D01*
X178734624Y-115286321D01*
X178772020Y-115260136D01*
X178772023Y-115260134D01*
X178776531Y-115256977D01*
X178933727Y-115099781D01*
X178943889Y-115085269D01*
X179058081Y-114922185D01*
X179058082Y-114922183D01*
X179061238Y-114917676D01*
X179063561Y-114912694D01*
X179063564Y-114912689D01*
X179112555Y-114807627D01*
X179159473Y-114754342D01*
X179227750Y-114734881D01*
X179295710Y-114755423D01*
X179340945Y-114807627D01*
X179389936Y-114912689D01*
X179389939Y-114912694D01*
X179392262Y-114917676D01*
X179395418Y-114922183D01*
X179395419Y-114922185D01*
X179509612Y-115085269D01*
X179519773Y-115099781D01*
X179676969Y-115256977D01*
X179681477Y-115260134D01*
X179681480Y-115260136D01*
X179718876Y-115286321D01*
X179859073Y-115384488D01*
X179864055Y-115386811D01*
X179864060Y-115386814D01*
X180046162Y-115471729D01*
X180060554Y-115478440D01*
X180065862Y-115479862D01*
X180065864Y-115479863D01*
X180067372Y-115480267D01*
X180275287Y-115535978D01*
X180496750Y-115555353D01*
X180718213Y-115535978D01*
X180926128Y-115480267D01*
X180927636Y-115479863D01*
X180927638Y-115479862D01*
X180932946Y-115478440D01*
X180947338Y-115471729D01*
X181129440Y-115386814D01*
X181129445Y-115386811D01*
X181134427Y-115384488D01*
X181274624Y-115286321D01*
X181312020Y-115260136D01*
X181312023Y-115260134D01*
X181316531Y-115256977D01*
X181473727Y-115099781D01*
X181483889Y-115085269D01*
X181598081Y-114922185D01*
X181598082Y-114922183D01*
X181601238Y-114917676D01*
X181603561Y-114912694D01*
X181603564Y-114912689D01*
X181664224Y-114782603D01*
X181711142Y-114729318D01*
X181779419Y-114709857D01*
X181847379Y-114730399D01*
X181893444Y-114784422D01*
X181901998Y-114811272D01*
X181919198Y-114897742D01*
X181920524Y-114901648D01*
X181920525Y-114901652D01*
X182014980Y-115179906D01*
X182016304Y-115183806D01*
X182018125Y-115187499D01*
X182018126Y-115187501D01*
X182120524Y-115395142D01*
X182149918Y-115454748D01*
X182317754Y-115705932D01*
X182320468Y-115709026D01*
X182320472Y-115709032D01*
X182514231Y-115929971D01*
X182516940Y-115933060D01*
X182520029Y-115935769D01*
X182740968Y-116129528D01*
X182740974Y-116129532D01*
X182744068Y-116132246D01*
X182747494Y-116134535D01*
X182747499Y-116134539D01*
X182936374Y-116260741D01*
X182995252Y-116300082D01*
X182998951Y-116301906D01*
X182998956Y-116301909D01*
X183262499Y-116431874D01*
X183266194Y-116433696D01*
X183270092Y-116435019D01*
X183270094Y-116435020D01*
X183548348Y-116529475D01*
X183548352Y-116529476D01*
X183552258Y-116530802D01*
X183556302Y-116531606D01*
X183556308Y-116531608D01*
X183844507Y-116588934D01*
X183844510Y-116588934D01*
X183848550Y-116589738D01*
X183852661Y-116590007D01*
X183852665Y-116590008D01*
X184145881Y-116609226D01*
X184150000Y-116609496D01*
X184154119Y-116609226D01*
X184447335Y-116590008D01*
X184447339Y-116590007D01*
X184451450Y-116589738D01*
X184455490Y-116588934D01*
X184455493Y-116588934D01*
X184743692Y-116531608D01*
X184743698Y-116531606D01*
X184747742Y-116530802D01*
X184751648Y-116529476D01*
X184751652Y-116529475D01*
X185029906Y-116435020D01*
X185029908Y-116435019D01*
X185033806Y-116433696D01*
X185037501Y-116431874D01*
X185301044Y-116301909D01*
X185301049Y-116301906D01*
X185304748Y-116300082D01*
X185363626Y-116260741D01*
X185552501Y-116134539D01*
X185552506Y-116134535D01*
X185555932Y-116132246D01*
X185559026Y-116129532D01*
X185559032Y-116129528D01*
X185779971Y-115935769D01*
X185783060Y-115933060D01*
X185785769Y-115929971D01*
X185979528Y-115709032D01*
X185979532Y-115709026D01*
X185982246Y-115705932D01*
X186150082Y-115454748D01*
X186179477Y-115395142D01*
X186281874Y-115187501D01*
X186281875Y-115187499D01*
X186283696Y-115183806D01*
X186285020Y-115179906D01*
X186379475Y-114901652D01*
X186379476Y-114901648D01*
X186380802Y-114897742D01*
X186392617Y-114838348D01*
X186438934Y-114605493D01*
X186438934Y-114605490D01*
X186439738Y-114601450D01*
X186446292Y-114501463D01*
X186459226Y-114304119D01*
X186459496Y-114300000D01*
X186439738Y-113998550D01*
X186412106Y-113859632D01*
X186381608Y-113706308D01*
X186381606Y-113706302D01*
X186380802Y-113702258D01*
X186373794Y-113681611D01*
X186285020Y-113420094D01*
X186285019Y-113420092D01*
X186283696Y-113416194D01*
X186227886Y-113303023D01*
X186151909Y-113148956D01*
X186151906Y-113148951D01*
X186150082Y-113145252D01*
X186107524Y-113081560D01*
X185984539Y-112897499D01*
X185984535Y-112897494D01*
X185982246Y-112894068D01*
X185979532Y-112890974D01*
X185979528Y-112890968D01*
X185785769Y-112670029D01*
X185783060Y-112666940D01*
X185779971Y-112664231D01*
X185559032Y-112470472D01*
X185559026Y-112470468D01*
X185555932Y-112467754D01*
X185552506Y-112465465D01*
X185552501Y-112465461D01*
X185308181Y-112302212D01*
X185304748Y-112299918D01*
X185301049Y-112298094D01*
X185301044Y-112298091D01*
X185037501Y-112168126D01*
X185037499Y-112168125D01*
X185033806Y-112166304D01*
X185029906Y-112164980D01*
X184751652Y-112070525D01*
X184751648Y-112070524D01*
X184747742Y-112069198D01*
X184743698Y-112068394D01*
X184743692Y-112068392D01*
X184455493Y-112011066D01*
X184455490Y-112011066D01*
X184451450Y-112010262D01*
X184447339Y-112009993D01*
X184447335Y-112009992D01*
X184154119Y-111990774D01*
X184150000Y-111990504D01*
X184145881Y-111990774D01*
X183852665Y-112009992D01*
X183852661Y-112009993D01*
X183848550Y-112010262D01*
X183844510Y-112011066D01*
X183844507Y-112011066D01*
X183556308Y-112068392D01*
X183556302Y-112068394D01*
X183552258Y-112069198D01*
X183548352Y-112070524D01*
X183548348Y-112070525D01*
X183270094Y-112164980D01*
X183266194Y-112166304D01*
X183262501Y-112168125D01*
X183262499Y-112168126D01*
X182998956Y-112298091D01*
X182998951Y-112298094D01*
X182995252Y-112299918D01*
X182991819Y-112302212D01*
X182747499Y-112465461D01*
X182747494Y-112465465D01*
X182744068Y-112467754D01*
X182740974Y-112470468D01*
X182740968Y-112470472D01*
X182520029Y-112664231D01*
X182516940Y-112666940D01*
X182514231Y-112670029D01*
X182320472Y-112890968D01*
X182320468Y-112890974D01*
X182317754Y-112894068D01*
X182315465Y-112897494D01*
X182315461Y-112897499D01*
X182192476Y-113081560D01*
X182149918Y-113145252D01*
X182148094Y-113148951D01*
X182148091Y-113148956D01*
X182072114Y-113303023D01*
X182016304Y-113416194D01*
X182014981Y-113420092D01*
X182014980Y-113420094D01*
X181926207Y-113681611D01*
X181919198Y-113702258D01*
X181913305Y-113731882D01*
X181907575Y-113760690D01*
X181874667Y-113823600D01*
X181812972Y-113858731D01*
X181742077Y-113854931D01*
X181684491Y-113813405D01*
X181669801Y-113789358D01*
X181669657Y-113789048D01*
X181643000Y-113731882D01*
X181603564Y-113647311D01*
X181603561Y-113647306D01*
X181601238Y-113642324D01*
X181491335Y-113485366D01*
X181476886Y-113464730D01*
X181476884Y-113464727D01*
X181473727Y-113460219D01*
X181316531Y-113303023D01*
X181312023Y-113299866D01*
X181312020Y-113299864D01*
X181158178Y-113192143D01*
X181134427Y-113175512D01*
X181129445Y-113173189D01*
X181129440Y-113173186D01*
X180937928Y-113083883D01*
X180937927Y-113083882D01*
X180932946Y-113081560D01*
X180927638Y-113080138D01*
X180927636Y-113080137D01*
X180798190Y-113045452D01*
X180718213Y-113024022D01*
X180496750Y-113004647D01*
X180275287Y-113024022D01*
X180195310Y-113045452D01*
X180065864Y-113080137D01*
X180065862Y-113080138D01*
X180060554Y-113081560D01*
X180055573Y-113083882D01*
X180055572Y-113083883D01*
X179864061Y-113173186D01*
X179864056Y-113173189D01*
X179859074Y-113175512D01*
X179854567Y-113178668D01*
X179854565Y-113178669D01*
X179681480Y-113299864D01*
X179681477Y-113299866D01*
X179676969Y-113303023D01*
X179519773Y-113460219D01*
X179516616Y-113464727D01*
X179516614Y-113464730D01*
X179502165Y-113485366D01*
X179392262Y-113642324D01*
X179389939Y-113647306D01*
X179389936Y-113647311D01*
X179340945Y-113752373D01*
X179294027Y-113805658D01*
X179225750Y-113825119D01*
X179157790Y-113804577D01*
X179112555Y-113752373D01*
X179063564Y-113647311D01*
X179063561Y-113647306D01*
X179061238Y-113642324D01*
X178951335Y-113485366D01*
X178936886Y-113464730D01*
X178936884Y-113464727D01*
X178933727Y-113460219D01*
X178776531Y-113303023D01*
X178772023Y-113299866D01*
X178772020Y-113299864D01*
X178618178Y-113192143D01*
X178594427Y-113175512D01*
X178589445Y-113173189D01*
X178589440Y-113173186D01*
X178397928Y-113083883D01*
X178397927Y-113083882D01*
X178392946Y-113081560D01*
X178387638Y-113080138D01*
X178387636Y-113080137D01*
X178258190Y-113045452D01*
X178178213Y-113024022D01*
X177956750Y-113004647D01*
X177735287Y-113024022D01*
X177655310Y-113045452D01*
X177525864Y-113080137D01*
X177525862Y-113080138D01*
X177520554Y-113081560D01*
X177515573Y-113083882D01*
X177515572Y-113083883D01*
X177324061Y-113173186D01*
X177324056Y-113173189D01*
X177319074Y-113175512D01*
X177314567Y-113178668D01*
X177314565Y-113178669D01*
X177141480Y-113299864D01*
X177141477Y-113299866D01*
X177136969Y-113303023D01*
X176979773Y-113460219D01*
X176976616Y-113464727D01*
X176976614Y-113464730D01*
X176962165Y-113485366D01*
X176852262Y-113642324D01*
X176849939Y-113647306D01*
X176849936Y-113647311D01*
X176800945Y-113752373D01*
X176754027Y-113805658D01*
X176685750Y-113825119D01*
X176617790Y-113804577D01*
X176572555Y-113752373D01*
X176523564Y-113647311D01*
X176523561Y-113647306D01*
X176521238Y-113642324D01*
X176411335Y-113485366D01*
X176396886Y-113464730D01*
X176396884Y-113464727D01*
X176393727Y-113460219D01*
X176236531Y-113303023D01*
X176232023Y-113299866D01*
X176232020Y-113299864D01*
X176078178Y-113192143D01*
X176054427Y-113175512D01*
X176049445Y-113173189D01*
X176049440Y-113173186D01*
X175857928Y-113083883D01*
X175857927Y-113083882D01*
X175852946Y-113081560D01*
X175847638Y-113080138D01*
X175847636Y-113080137D01*
X175718190Y-113045452D01*
X175638213Y-113024022D01*
X175416750Y-113004647D01*
X175195287Y-113024022D01*
X175115310Y-113045452D01*
X174985864Y-113080137D01*
X174985862Y-113080138D01*
X174980554Y-113081560D01*
X174975573Y-113083882D01*
X174975572Y-113083883D01*
X174784061Y-113173186D01*
X174784056Y-113173189D01*
X174779074Y-113175512D01*
X174774567Y-113178668D01*
X174774565Y-113178669D01*
X174601480Y-113299864D01*
X174601477Y-113299866D01*
X174596969Y-113303023D01*
X174439773Y-113460219D01*
X174436616Y-113464727D01*
X174436614Y-113464730D01*
X174422165Y-113485366D01*
X174312262Y-113642324D01*
X174309939Y-113647306D01*
X174309936Y-113647311D01*
X174252394Y-113770711D01*
X174205477Y-113823996D01*
X174137199Y-113843457D01*
X174069239Y-113822915D01*
X174024004Y-113770711D01*
X173970090Y-113655090D01*
X173970087Y-113655085D01*
X173967764Y-113650103D01*
X173854806Y-113488783D01*
X173844967Y-113474731D01*
X173844965Y-113474728D01*
X173841808Y-113470220D01*
X173686530Y-113314942D01*
X173675074Y-113306920D01*
X173607337Y-113259490D01*
X173506647Y-113188986D01*
X173501665Y-113186663D01*
X173501660Y-113186660D01*
X173312607Y-113098504D01*
X173312606Y-113098504D01*
X173307625Y-113096181D01*
X173302317Y-113094759D01*
X173302315Y-113094758D01*
X173100826Y-113040769D01*
X173100824Y-113040769D01*
X173095511Y-113039345D01*
X172876750Y-113020206D01*
X172657989Y-113039345D01*
X172652676Y-113040769D01*
X172652674Y-113040769D01*
X172451185Y-113094758D01*
X172451183Y-113094759D01*
X172445875Y-113096181D01*
X172440894Y-113098504D01*
X172440893Y-113098504D01*
X172251840Y-113186660D01*
X172251835Y-113186663D01*
X172246853Y-113188986D01*
X172146163Y-113259490D01*
X172078427Y-113306920D01*
X172066970Y-113314942D01*
X171911692Y-113470220D01*
X171908535Y-113474728D01*
X171908533Y-113474731D01*
X171898694Y-113488783D01*
X171785736Y-113650103D01*
X171783413Y-113655085D01*
X171783410Y-113655090D01*
X171720945Y-113789048D01*
X171674028Y-113842333D01*
X171605751Y-113861794D01*
X171537791Y-113841252D01*
X171492555Y-113789048D01*
X171430090Y-113655090D01*
X171430087Y-113655085D01*
X171427764Y-113650103D01*
X171314806Y-113488783D01*
X171304967Y-113474731D01*
X171304965Y-113474728D01*
X171301808Y-113470220D01*
X171146530Y-113314942D01*
X171135074Y-113306920D01*
X171067337Y-113259490D01*
X170966647Y-113188986D01*
X170961665Y-113186663D01*
X170961660Y-113186660D01*
X170772607Y-113098504D01*
X170772606Y-113098504D01*
X170767625Y-113096181D01*
X170762317Y-113094759D01*
X170762315Y-113094758D01*
X170560826Y-113040769D01*
X170560824Y-113040769D01*
X170555511Y-113039345D01*
X170336750Y-113020206D01*
X170117989Y-113039345D01*
X170112676Y-113040769D01*
X170112674Y-113040769D01*
X170088890Y-113047142D01*
X170017913Y-113045452D01*
X169967184Y-113014530D01*
X167004334Y-110051680D01*
X166970308Y-109989368D01*
X166975373Y-109918553D01*
X166999793Y-109878275D01*
X167104621Y-109761852D01*
X167104622Y-109761851D01*
X167109040Y-109756944D01*
X167204527Y-109591556D01*
X167263542Y-109409928D01*
X167283504Y-109220000D01*
X167263542Y-109030072D01*
X167204527Y-108848444D01*
X167109040Y-108683056D01*
X166981253Y-108541134D01*
X166826752Y-108428882D01*
X166820724Y-108426198D01*
X166820722Y-108426197D01*
X166658319Y-108353891D01*
X166658318Y-108353891D01*
X166652288Y-108351206D01*
X166555830Y-108330703D01*
X166471944Y-108312872D01*
X166471939Y-108312872D01*
X166465487Y-108311500D01*
X166409594Y-108311500D01*
X166341473Y-108291498D01*
X166320499Y-108274595D01*
X163650405Y-105604500D01*
X163616379Y-105542188D01*
X163613500Y-105515405D01*
X163613500Y-103443351D01*
X178382339Y-103443351D01*
X178392770Y-103589201D01*
X178443870Y-103726204D01*
X178449269Y-103733416D01*
X178449270Y-103733418D01*
X178484187Y-103780061D01*
X178531498Y-103843261D01*
X178714142Y-104025905D01*
X178748168Y-104088217D01*
X178743103Y-104159032D01*
X178714142Y-104204095D01*
X178531498Y-104386739D01*
X178506509Y-104413579D01*
X178427455Y-104536589D01*
X178424917Y-104545233D01*
X178424916Y-104545235D01*
X178388797Y-104668245D01*
X178386259Y-104676889D01*
X178386259Y-104823111D01*
X178388797Y-104831754D01*
X178388797Y-104831755D01*
X178422765Y-104947437D01*
X178427455Y-104963411D01*
X178432326Y-104970990D01*
X178501637Y-105078841D01*
X178501639Y-105078844D01*
X178506509Y-105086421D01*
X178513319Y-105092322D01*
X178610204Y-105176274D01*
X178610207Y-105176276D01*
X178617016Y-105182176D01*
X178750025Y-105242919D01*
X178894759Y-105263729D01*
X180721480Y-105263729D01*
X180725234Y-105263861D01*
X180726006Y-105263963D01*
X180849436Y-105265255D01*
X180853202Y-105264839D01*
X180853206Y-105264839D01*
X180911443Y-105258409D01*
X181002202Y-105248389D01*
X181005892Y-105247523D01*
X181005895Y-105247523D01*
X181118688Y-105221068D01*
X181118695Y-105221066D01*
X181122374Y-105220203D01*
X181266707Y-105167385D01*
X181376690Y-105111346D01*
X181504259Y-105025623D01*
X181597699Y-104944968D01*
X181701137Y-104831291D01*
X181713353Y-104814102D01*
X181770446Y-104733765D01*
X181770450Y-104733759D01*
X181772640Y-104730677D01*
X181845977Y-104595608D01*
X181891418Y-104480838D01*
X181892379Y-104477175D01*
X181929455Y-104335850D01*
X181929456Y-104335844D01*
X181930419Y-104332174D01*
X181947171Y-104209881D01*
X181947884Y-104164529D01*
X181949190Y-104081342D01*
X181949585Y-104056206D01*
X181936682Y-103933448D01*
X181902370Y-103783633D01*
X181860558Y-103667494D01*
X181855684Y-103657803D01*
X181793209Y-103533584D01*
X181793205Y-103533578D01*
X181791500Y-103530187D01*
X181739778Y-103452339D01*
X181725289Y-103430531D01*
X181725285Y-103430526D01*
X181723191Y-103427374D01*
X181623374Y-103310504D01*
X181603858Y-103292558D01*
X181535313Y-103229527D01*
X181535305Y-103229521D01*
X181532514Y-103226954D01*
X181407701Y-103137267D01*
X181299534Y-103077802D01*
X181266243Y-103064419D01*
X181160454Y-103021892D01*
X181160451Y-103021891D01*
X181156931Y-103020476D01*
X181153270Y-103019495D01*
X181153264Y-103019493D01*
X181041380Y-102989513D01*
X181041372Y-102989511D01*
X181037702Y-102988528D01*
X181033939Y-102987993D01*
X181033937Y-102987992D01*
X180975591Y-102979688D01*
X180901151Y-102969094D01*
X180836530Y-102939693D01*
X180798061Y-102880022D01*
X180797960Y-102810000D01*
X182890206Y-102810000D01*
X182909345Y-103028761D01*
X182910769Y-103034074D01*
X182910769Y-103034076D01*
X182922486Y-103077802D01*
X182966181Y-103240875D01*
X182968504Y-103245856D01*
X182968504Y-103245857D01*
X183056660Y-103434910D01*
X183056663Y-103434915D01*
X183058986Y-103439897D01*
X183062143Y-103444405D01*
X183169441Y-103597642D01*
X183184942Y-103619780D01*
X183340220Y-103775058D01*
X183520103Y-103901014D01*
X183525085Y-103903337D01*
X183525090Y-103903340D01*
X183549678Y-103914805D01*
X183602963Y-103961722D01*
X183622424Y-104029999D01*
X183601882Y-104097959D01*
X183547860Y-104144025D01*
X183496428Y-104155000D01*
X183355366Y-104155000D01*
X183293184Y-104161755D01*
X183156795Y-104212885D01*
X183040239Y-104300239D01*
X182952885Y-104416795D01*
X182901755Y-104553184D01*
X182895000Y-104615366D01*
X182895000Y-106204634D01*
X182901755Y-106266816D01*
X182952885Y-106403205D01*
X183040239Y-106519761D01*
X183156795Y-106607115D01*
X183293184Y-106658245D01*
X183355366Y-106665000D01*
X184944634Y-106665000D01*
X185006816Y-106658245D01*
X185143205Y-106607115D01*
X185259761Y-106519761D01*
X185347115Y-106403205D01*
X185398245Y-106266816D01*
X185405000Y-106204634D01*
X185405000Y-104615366D01*
X185398245Y-104553184D01*
X185347115Y-104416795D01*
X185259761Y-104300239D01*
X185143205Y-104212885D01*
X185006816Y-104161755D01*
X184944634Y-104155000D01*
X184803572Y-104155000D01*
X184735451Y-104134998D01*
X184688958Y-104081342D01*
X184678854Y-104011068D01*
X184708348Y-103946488D01*
X184750322Y-103914805D01*
X184774910Y-103903340D01*
X184774915Y-103903337D01*
X184779897Y-103901014D01*
X184959780Y-103775058D01*
X185115058Y-103619780D01*
X185130560Y-103597642D01*
X185237857Y-103444405D01*
X185241014Y-103439897D01*
X185243337Y-103434915D01*
X185243340Y-103434910D01*
X185331496Y-103245857D01*
X185331496Y-103245856D01*
X185333819Y-103240875D01*
X185377515Y-103077802D01*
X185389231Y-103034076D01*
X185389231Y-103034074D01*
X185390655Y-103028761D01*
X185409794Y-102810000D01*
X185390655Y-102591239D01*
X185333819Y-102379125D01*
X185245945Y-102190677D01*
X185243340Y-102185090D01*
X185243337Y-102185085D01*
X185241014Y-102180103D01*
X185170510Y-102079413D01*
X185118217Y-102004731D01*
X185118215Y-102004728D01*
X185115058Y-102000220D01*
X184959780Y-101844942D01*
X184936182Y-101828418D01*
X184879039Y-101788406D01*
X184779897Y-101718986D01*
X184774915Y-101716663D01*
X184774910Y-101716660D01*
X184585857Y-101628504D01*
X184585856Y-101628504D01*
X184580875Y-101626181D01*
X184575567Y-101624759D01*
X184575565Y-101624758D01*
X184374076Y-101570769D01*
X184374074Y-101570769D01*
X184368761Y-101569345D01*
X184150000Y-101550206D01*
X183931239Y-101569345D01*
X183925926Y-101570769D01*
X183925924Y-101570769D01*
X183724435Y-101624758D01*
X183724433Y-101624759D01*
X183719125Y-101626181D01*
X183714144Y-101628504D01*
X183714143Y-101628504D01*
X183525090Y-101716660D01*
X183525085Y-101716663D01*
X183520103Y-101718986D01*
X183420961Y-101788406D01*
X183363819Y-101828418D01*
X183340220Y-101844942D01*
X183184942Y-102000220D01*
X183181785Y-102004728D01*
X183181783Y-102004731D01*
X183129490Y-102079413D01*
X183058986Y-102180103D01*
X183056663Y-102185085D01*
X183056660Y-102185090D01*
X183054055Y-102190677D01*
X182966181Y-102379125D01*
X182909345Y-102591239D01*
X182890206Y-102810000D01*
X180797960Y-102810000D01*
X180797959Y-102809025D01*
X180836258Y-102749244D01*
X180905079Y-102719112D01*
X180941942Y-102715042D01*
X181002202Y-102708389D01*
X181005892Y-102707523D01*
X181005895Y-102707523D01*
X181118688Y-102681068D01*
X181118695Y-102681066D01*
X181122374Y-102680203D01*
X181266707Y-102627385D01*
X181376690Y-102571346D01*
X181504259Y-102485623D01*
X181597699Y-102404968D01*
X181701137Y-102291291D01*
X181703333Y-102288201D01*
X181770446Y-102193765D01*
X181770450Y-102193759D01*
X181772640Y-102190677D01*
X181845977Y-102055608D01*
X181891418Y-101940838D01*
X181893040Y-101934657D01*
X181929455Y-101795850D01*
X181929456Y-101795844D01*
X181930419Y-101792174D01*
X181940012Y-101722143D01*
X181946656Y-101673642D01*
X181946656Y-101673639D01*
X181947171Y-101669881D01*
X181947858Y-101626181D01*
X181949237Y-101538351D01*
X181949585Y-101516206D01*
X181936682Y-101393448D01*
X181902370Y-101243633D01*
X181860558Y-101127494D01*
X181791500Y-100990187D01*
X181723191Y-100887374D01*
X181623374Y-100770504D01*
X181608593Y-100756912D01*
X181535313Y-100689527D01*
X181535305Y-100689521D01*
X181532514Y-100686954D01*
X181407701Y-100597267D01*
X181299534Y-100537802D01*
X181266111Y-100524366D01*
X181160454Y-100481892D01*
X181160451Y-100481891D01*
X181156931Y-100480476D01*
X181153270Y-100479495D01*
X181153264Y-100479493D01*
X181041380Y-100449513D01*
X181041372Y-100449511D01*
X181037702Y-100448528D01*
X181033939Y-100447993D01*
X181033937Y-100447992D01*
X180887595Y-100427164D01*
X180887585Y-100427163D01*
X180885541Y-100426872D01*
X180883478Y-100426715D01*
X180883468Y-100426714D01*
X180835969Y-100423102D01*
X180818524Y-100421775D01*
X180816451Y-100421753D01*
X180816443Y-100421753D01*
X180813125Y-100421719D01*
X180805128Y-100421635D01*
X180738042Y-100425328D01*
X180735995Y-100425576D01*
X180733944Y-100425756D01*
X180733929Y-100425590D01*
X180722650Y-100426271D01*
X179529759Y-100426271D01*
X179526412Y-100426631D01*
X179526409Y-100426631D01*
X179486195Y-100430954D01*
X179420558Y-100438011D01*
X179283555Y-100489111D01*
X179276343Y-100494510D01*
X179276341Y-100494511D01*
X179216075Y-100539626D01*
X179166498Y-100576739D01*
X178531498Y-101211739D01*
X178483498Y-101267134D01*
X178413421Y-101395470D01*
X178411505Y-101404277D01*
X178411504Y-101404280D01*
X178384255Y-101529541D01*
X178384255Y-101529544D01*
X178382339Y-101538351D01*
X178392770Y-101684201D01*
X178443870Y-101821204D01*
X178531498Y-101938261D01*
X179166498Y-102573261D01*
X179169123Y-102575376D01*
X179169127Y-102575380D01*
X179204684Y-102604034D01*
X179252016Y-102642176D01*
X179385025Y-102702919D01*
X179393948Y-102704202D01*
X179472902Y-102715554D01*
X179537483Y-102745047D01*
X179575866Y-102804773D01*
X179575866Y-102875770D01*
X179537482Y-102935496D01*
X179472901Y-102964989D01*
X179454970Y-102966271D01*
X178894759Y-102966271D01*
X178873792Y-102967020D01*
X178863731Y-102967379D01*
X178863728Y-102967379D01*
X178858110Y-102967580D01*
X178801508Y-102979893D01*
X178724039Y-102996745D01*
X178724036Y-102996746D01*
X178715229Y-102998662D01*
X178586893Y-103068739D01*
X178483498Y-103172134D01*
X178413421Y-103300470D01*
X178411505Y-103309277D01*
X178411504Y-103309280D01*
X178384255Y-103434541D01*
X178384255Y-103434544D01*
X178382339Y-103443351D01*
X163613500Y-103443351D01*
X163613500Y-83714594D01*
X163633502Y-83646473D01*
X163650405Y-83625499D01*
X163780499Y-83495405D01*
X163842811Y-83461379D01*
X163869594Y-83458500D01*
X163925487Y-83458500D01*
X163931939Y-83457128D01*
X163931944Y-83457128D01*
X164032192Y-83435819D01*
X164112288Y-83418794D01*
X164118319Y-83416109D01*
X164280722Y-83343803D01*
X164280724Y-83343802D01*
X164286752Y-83341118D01*
X164304947Y-83327899D01*
X164390798Y-83265524D01*
X164441253Y-83228866D01*
X164472497Y-83194166D01*
X164564621Y-83091852D01*
X164564622Y-83091851D01*
X164569040Y-83086944D01*
X164642863Y-82959079D01*
X164661223Y-82927279D01*
X164661224Y-82927278D01*
X164664527Y-82921556D01*
X164698075Y-82818307D01*
X164738149Y-82759702D01*
X164803546Y-82732065D01*
X164873503Y-82744172D01*
X164907003Y-82768149D01*
X167418427Y-85279573D01*
X167452453Y-85341885D01*
X167447388Y-85412700D01*
X167404841Y-85469536D01*
X167368270Y-85488500D01*
X167364160Y-85489836D01*
X167357712Y-85491206D01*
X167351691Y-85493887D01*
X167351687Y-85493888D01*
X167189278Y-85566197D01*
X167189276Y-85566198D01*
X167183248Y-85568882D01*
X167028747Y-85681134D01*
X167024326Y-85686044D01*
X167024325Y-85686045D01*
X167005291Y-85707185D01*
X166900960Y-85823056D01*
X166865323Y-85884781D01*
X166821197Y-85961210D01*
X166805473Y-85988444D01*
X166746458Y-86170072D01*
X166745768Y-86176633D01*
X166745768Y-86176635D01*
X166727650Y-86349022D01*
X166726496Y-86360000D01*
X166727186Y-86366565D01*
X166745632Y-86542065D01*
X166746458Y-86549928D01*
X166805473Y-86731556D01*
X166900960Y-86896944D01*
X166974137Y-86978215D01*
X167004853Y-87042221D01*
X167006500Y-87062524D01*
X167006500Y-97087476D01*
X166986498Y-97155597D01*
X166974142Y-97171779D01*
X166900960Y-97253056D01*
X166805473Y-97418444D01*
X166746458Y-97600072D01*
X166745768Y-97606633D01*
X166745768Y-97606635D01*
X166731974Y-97737881D01*
X166726496Y-97790000D01*
X166746458Y-97979928D01*
X166805473Y-98161556D01*
X166808776Y-98167278D01*
X166808777Y-98167279D01*
X166822017Y-98190211D01*
X166900960Y-98326944D01*
X167028747Y-98468866D01*
X167127843Y-98540864D01*
X167134500Y-98545700D01*
X167183248Y-98581118D01*
X167189276Y-98583802D01*
X167189278Y-98583803D01*
X167200228Y-98588678D01*
X167357712Y-98658794D01*
X167451113Y-98678647D01*
X167538056Y-98697128D01*
X167538061Y-98697128D01*
X167544513Y-98698500D01*
X167735487Y-98698500D01*
X167741939Y-98697128D01*
X167741944Y-98697128D01*
X167828887Y-98678647D01*
X167922288Y-98658794D01*
X168079772Y-98588678D01*
X168090722Y-98583803D01*
X168090724Y-98583802D01*
X168096752Y-98581118D01*
X168145501Y-98545700D01*
X168152157Y-98540864D01*
X168251253Y-98468866D01*
X168379040Y-98326944D01*
X168457983Y-98190211D01*
X168471223Y-98167279D01*
X168471224Y-98167278D01*
X168474527Y-98161556D01*
X168533542Y-97979928D01*
X168553504Y-97790000D01*
X168548026Y-97737881D01*
X168534232Y-97606635D01*
X168534232Y-97606633D01*
X168533542Y-97600072D01*
X168474527Y-97418444D01*
X168379040Y-97253056D01*
X168305863Y-97171785D01*
X168275147Y-97107779D01*
X168273500Y-97087476D01*
X168273500Y-87062524D01*
X168293502Y-86994403D01*
X168305858Y-86978221D01*
X168379040Y-86896944D01*
X168474527Y-86731556D01*
X168508075Y-86628307D01*
X168548149Y-86569702D01*
X168613546Y-86542065D01*
X168683503Y-86554172D01*
X168717003Y-86578149D01*
X171843584Y-89704730D01*
X171877610Y-89767042D01*
X171874322Y-89832761D01*
X171846554Y-89918224D01*
X171826458Y-89980072D01*
X171806496Y-90170000D01*
X171826458Y-90359928D01*
X171885473Y-90541556D01*
X171980960Y-90706944D01*
X172108747Y-90848866D01*
X172263248Y-90961118D01*
X172269276Y-90963802D01*
X172269278Y-90963803D01*
X172271475Y-90964781D01*
X172437712Y-91038794D01*
X172531113Y-91058647D01*
X172618056Y-91077128D01*
X172618061Y-91077128D01*
X172624513Y-91078500D01*
X172815487Y-91078500D01*
X172821939Y-91077128D01*
X172821944Y-91077128D01*
X172908888Y-91058647D01*
X173002288Y-91038794D01*
X173168525Y-90964781D01*
X173170722Y-90963803D01*
X173170724Y-90963802D01*
X173176752Y-90961118D01*
X173331253Y-90848866D01*
X173459040Y-90706944D01*
X173554527Y-90541556D01*
X173613542Y-90359928D01*
X173633504Y-90170000D01*
X173613542Y-89980072D01*
X173554527Y-89798444D01*
X173459040Y-89633056D01*
X173338822Y-89499540D01*
X173311462Y-89450385D01*
X173308230Y-89439263D01*
X173306018Y-89431648D01*
X173295707Y-89414213D01*
X173287012Y-89396465D01*
X173279552Y-89377624D01*
X173253564Y-89341854D01*
X173247048Y-89331934D01*
X173228580Y-89300706D01*
X173228578Y-89300703D01*
X173224542Y-89293879D01*
X173210221Y-89279558D01*
X173197380Y-89264524D01*
X173190131Y-89254547D01*
X173185472Y-89248134D01*
X173151395Y-89219943D01*
X173142616Y-89211953D01*
X164615428Y-80684764D01*
X164581402Y-80622452D01*
X164586467Y-80551637D01*
X164610884Y-80511364D01*
X164667506Y-80448478D01*
X164762993Y-80283090D01*
X164822008Y-80101462D01*
X164841970Y-79911534D01*
X164841280Y-79904969D01*
X164822698Y-79728169D01*
X164822698Y-79728167D01*
X164822008Y-79721606D01*
X164762993Y-79539978D01*
X164667506Y-79374590D01*
X164594329Y-79293319D01*
X164563613Y-79229313D01*
X164561966Y-79209010D01*
X164561966Y-74857562D01*
X178885412Y-74857562D01*
X178886035Y-74866542D01*
X178886035Y-74866543D01*
X178888023Y-74895204D01*
X178888032Y-74904111D01*
X178888318Y-74904111D01*
X178888315Y-74908617D01*
X178887991Y-74913103D01*
X178888667Y-74922646D01*
X178889281Y-74922602D01*
X178890228Y-74926987D01*
X178892085Y-74953749D01*
X178891883Y-74959175D01*
X178891256Y-74959219D01*
X178893252Y-74987414D01*
X178894205Y-74991816D01*
X178894840Y-74996257D01*
X178894836Y-74996258D01*
X178894866Y-74996434D01*
X178895220Y-74998934D01*
X178895532Y-75003434D01*
X178901482Y-75031070D01*
X178902098Y-75030938D01*
X178903483Y-75034668D01*
X178909184Y-75061002D01*
X178909800Y-75066806D01*
X178909203Y-75066935D01*
X178911217Y-75076289D01*
X178911849Y-75078454D01*
X178914924Y-75088996D01*
X178917113Y-75097619D01*
X178924140Y-75130075D01*
X178928447Y-75137986D01*
X178929035Y-75139567D01*
X178930691Y-75143041D01*
X178931856Y-75147035D01*
X179001759Y-75275466D01*
X179002130Y-75275963D01*
X179038399Y-75317876D01*
X179038654Y-75318218D01*
X179038961Y-75318526D01*
X179039713Y-75319395D01*
X179039714Y-75319397D01*
X179049048Y-75330183D01*
X179050547Y-75331915D01*
X179070174Y-75351542D01*
X179070592Y-75351124D01*
X179074045Y-75353711D01*
X179093339Y-75373061D01*
X179096597Y-75377109D01*
X179096169Y-75377537D01*
X179656827Y-75938195D01*
X179664615Y-75947878D01*
X179664853Y-75947673D01*
X179670736Y-75954490D01*
X179675590Y-75962075D01*
X179682383Y-75967987D01*
X179682386Y-75967990D01*
X179714307Y-75995770D01*
X179717950Y-75999982D01*
X179718049Y-75999868D01*
X179721273Y-76002663D01*
X179721284Y-76002652D01*
X179724620Y-76005988D01*
X179728226Y-76008689D01*
X179728227Y-76008689D01*
X179731154Y-76010881D01*
X179738349Y-76016693D01*
X179782491Y-76055108D01*
X179782497Y-76055113D01*
X179785892Y-76058067D01*
X179789674Y-76060509D01*
X179805875Y-76070970D01*
X179804874Y-76072520D01*
X179820461Y-76081814D01*
X179821111Y-76080808D01*
X179848497Y-76098491D01*
X179913219Y-76133970D01*
X179962466Y-76148492D01*
X179975515Y-76152340D01*
X179983961Y-76155159D01*
X180017741Y-76167775D01*
X180027002Y-76171234D01*
X180035082Y-76171818D01*
X180096977Y-76205663D01*
X180130965Y-76267996D01*
X180125857Y-76338809D01*
X180080098Y-76397918D01*
X179984494Y-76464860D01*
X179984488Y-76464865D01*
X179979978Y-76468023D01*
X179822782Y-76625219D01*
X179695271Y-76807324D01*
X179692948Y-76812306D01*
X179692945Y-76812311D01*
X179603642Y-77003822D01*
X179601319Y-77008804D01*
X179543781Y-77223537D01*
X179524406Y-77445000D01*
X179543781Y-77666463D01*
X179601319Y-77881196D01*
X179603641Y-77886177D01*
X179603642Y-77886178D01*
X179692945Y-78077689D01*
X179692948Y-78077694D01*
X179695271Y-78082676D01*
X179822782Y-78264781D01*
X179979978Y-78421977D01*
X179984486Y-78425134D01*
X179984489Y-78425136D01*
X180060254Y-78478187D01*
X180162082Y-78549488D01*
X180167064Y-78551811D01*
X180167069Y-78551814D01*
X180272132Y-78600805D01*
X180325417Y-78647722D01*
X180344878Y-78715999D01*
X180324336Y-78783959D01*
X180272132Y-78829195D01*
X180167070Y-78878186D01*
X180167065Y-78878189D01*
X180162083Y-78880512D01*
X180157576Y-78883668D01*
X180157574Y-78883669D01*
X179984489Y-79004864D01*
X179984486Y-79004866D01*
X179979978Y-79008023D01*
X179822782Y-79165219D01*
X179695271Y-79347324D01*
X179692948Y-79352306D01*
X179692945Y-79352311D01*
X179603642Y-79543822D01*
X179601319Y-79548804D01*
X179543781Y-79763537D01*
X179524406Y-79985000D01*
X179543781Y-80206463D01*
X179601319Y-80421196D01*
X179603641Y-80426177D01*
X179603642Y-80426178D01*
X179692945Y-80617689D01*
X179692948Y-80617694D01*
X179695271Y-80622676D01*
X179822782Y-80804781D01*
X179979978Y-80961977D01*
X179984486Y-80965134D01*
X179984489Y-80965136D01*
X180060254Y-81018187D01*
X180162082Y-81089488D01*
X180167064Y-81091811D01*
X180167069Y-81091814D01*
X180272132Y-81140805D01*
X180325417Y-81187722D01*
X180344878Y-81255999D01*
X180324336Y-81323959D01*
X180272132Y-81369195D01*
X180167070Y-81418186D01*
X180167065Y-81418189D01*
X180162083Y-81420512D01*
X180157576Y-81423668D01*
X180157574Y-81423669D01*
X179984489Y-81544864D01*
X179984486Y-81544866D01*
X179979978Y-81548023D01*
X179822782Y-81705219D01*
X179819625Y-81709727D01*
X179819623Y-81709730D01*
X179698428Y-81882815D01*
X179695271Y-81887324D01*
X179692948Y-81892306D01*
X179692945Y-81892311D01*
X179603642Y-82083822D01*
X179601319Y-82088804D01*
X179543781Y-82303537D01*
X179524406Y-82525000D01*
X179543781Y-82746463D01*
X179601319Y-82961196D01*
X179603641Y-82966177D01*
X179603642Y-82966178D01*
X179692945Y-83157689D01*
X179692948Y-83157694D01*
X179695271Y-83162676D01*
X179698427Y-83167183D01*
X179698428Y-83167185D01*
X179817500Y-83337237D01*
X179822782Y-83344781D01*
X179979978Y-83501977D01*
X179984486Y-83505134D01*
X179984489Y-83505136D01*
X180060254Y-83558187D01*
X180162082Y-83629488D01*
X180167064Y-83631811D01*
X180167069Y-83631814D01*
X180272132Y-83680805D01*
X180325417Y-83727722D01*
X180344878Y-83795999D01*
X180324336Y-83863959D01*
X180272132Y-83909195D01*
X180167070Y-83958186D01*
X180167065Y-83958189D01*
X180162083Y-83960512D01*
X180157576Y-83963668D01*
X180157574Y-83963669D01*
X179984489Y-84084864D01*
X179984486Y-84084866D01*
X179979978Y-84088023D01*
X179822782Y-84245219D01*
X179695271Y-84427324D01*
X179692948Y-84432306D01*
X179692945Y-84432311D01*
X179603642Y-84623822D01*
X179601319Y-84628804D01*
X179543781Y-84843537D01*
X179524406Y-85065000D01*
X179543781Y-85286463D01*
X179601319Y-85501196D01*
X179603641Y-85506177D01*
X179603642Y-85506178D01*
X179692945Y-85697689D01*
X179692948Y-85697694D01*
X179695271Y-85702676D01*
X179698427Y-85707183D01*
X179698428Y-85707185D01*
X179783566Y-85828774D01*
X179822782Y-85884781D01*
X179979978Y-86041977D01*
X179984486Y-86045134D01*
X179984489Y-86045136D01*
X180058113Y-86096688D01*
X180162082Y-86169488D01*
X180167064Y-86171811D01*
X180167069Y-86171814D01*
X180272132Y-86220805D01*
X180325417Y-86267722D01*
X180344878Y-86335999D01*
X180324336Y-86403959D01*
X180272132Y-86449195D01*
X180167070Y-86498186D01*
X180167065Y-86498189D01*
X180162083Y-86500512D01*
X180157576Y-86503668D01*
X180157574Y-86503669D01*
X179984489Y-86624864D01*
X179984486Y-86624866D01*
X179979978Y-86628023D01*
X179822782Y-86785219D01*
X179695271Y-86967324D01*
X179692948Y-86972306D01*
X179692945Y-86972311D01*
X179603642Y-87163822D01*
X179601319Y-87168804D01*
X179543781Y-87383537D01*
X179524406Y-87605000D01*
X179543781Y-87826463D01*
X179601319Y-88041196D01*
X179603641Y-88046177D01*
X179603642Y-88046178D01*
X179692945Y-88237689D01*
X179692948Y-88237694D01*
X179695271Y-88242676D01*
X179698427Y-88247183D01*
X179698428Y-88247185D01*
X179777941Y-88360741D01*
X179822782Y-88424781D01*
X179979978Y-88581977D01*
X179984486Y-88585134D01*
X179984489Y-88585136D01*
X180060254Y-88638187D01*
X180162082Y-88709488D01*
X180167064Y-88711811D01*
X180167069Y-88711814D01*
X180272132Y-88760805D01*
X180325417Y-88807722D01*
X180344878Y-88875999D01*
X180324336Y-88943959D01*
X180272132Y-88989195D01*
X180167070Y-89038186D01*
X180167065Y-89038189D01*
X180162083Y-89040512D01*
X180157576Y-89043668D01*
X180157574Y-89043669D01*
X179984489Y-89164864D01*
X179984486Y-89164866D01*
X179979978Y-89168023D01*
X179822782Y-89325219D01*
X179819625Y-89329727D01*
X179819623Y-89329730D01*
X179706607Y-89491134D01*
X179695271Y-89507324D01*
X179692948Y-89512306D01*
X179692945Y-89512311D01*
X179609584Y-89691080D01*
X179601319Y-89708804D01*
X179543781Y-89923537D01*
X179524406Y-90145000D01*
X179543781Y-90366463D01*
X179601319Y-90581196D01*
X179603641Y-90586177D01*
X179603642Y-90586178D01*
X179692945Y-90777689D01*
X179692948Y-90777694D01*
X179695271Y-90782676D01*
X179698427Y-90787183D01*
X179698428Y-90787185D01*
X179817500Y-90957237D01*
X179822782Y-90964781D01*
X179979978Y-91121977D01*
X179984486Y-91125134D01*
X179984489Y-91125136D01*
X180060254Y-91178187D01*
X180162082Y-91249488D01*
X180167064Y-91251811D01*
X180167069Y-91251814D01*
X180272132Y-91300805D01*
X180325417Y-91347722D01*
X180344878Y-91415999D01*
X180324336Y-91483959D01*
X180272132Y-91529195D01*
X180167070Y-91578186D01*
X180167065Y-91578189D01*
X180162083Y-91580512D01*
X180157576Y-91583668D01*
X180157574Y-91583669D01*
X179984489Y-91704864D01*
X179984486Y-91704866D01*
X179979978Y-91708023D01*
X179822782Y-91865219D01*
X179695271Y-92047324D01*
X179692948Y-92052306D01*
X179692945Y-92052311D01*
X179603642Y-92243822D01*
X179601319Y-92248804D01*
X179543781Y-92463537D01*
X179524406Y-92685000D01*
X179543781Y-92906463D01*
X179601319Y-93121196D01*
X179603641Y-93126177D01*
X179603642Y-93126178D01*
X179692945Y-93317689D01*
X179692948Y-93317694D01*
X179695271Y-93322676D01*
X179822782Y-93504781D01*
X179979978Y-93661977D01*
X179984486Y-93665134D01*
X179984489Y-93665136D01*
X180060254Y-93718187D01*
X180162082Y-93789488D01*
X180167064Y-93791811D01*
X180167069Y-93791814D01*
X180272132Y-93840805D01*
X180325417Y-93887722D01*
X180344878Y-93955999D01*
X180324336Y-94023959D01*
X180272132Y-94069195D01*
X180167070Y-94118186D01*
X180167065Y-94118189D01*
X180162083Y-94120512D01*
X180157576Y-94123668D01*
X180157574Y-94123669D01*
X179984489Y-94244864D01*
X179984486Y-94244866D01*
X179979978Y-94248023D01*
X179822782Y-94405219D01*
X179695271Y-94587324D01*
X179692948Y-94592306D01*
X179692945Y-94592311D01*
X179603642Y-94783822D01*
X179601319Y-94788804D01*
X179543781Y-95003537D01*
X179524406Y-95225000D01*
X179543781Y-95446463D01*
X179601319Y-95661196D01*
X179603641Y-95666177D01*
X179603642Y-95666178D01*
X179692945Y-95857689D01*
X179692948Y-95857694D01*
X179695271Y-95862676D01*
X179822782Y-96044781D01*
X179979978Y-96201977D01*
X179984486Y-96205134D01*
X179984489Y-96205136D01*
X180060254Y-96258187D01*
X180162082Y-96329488D01*
X180167064Y-96331811D01*
X180167069Y-96331814D01*
X180272132Y-96380805D01*
X180325417Y-96427722D01*
X180344878Y-96495999D01*
X180324336Y-96563959D01*
X180272132Y-96609195D01*
X180167070Y-96658186D01*
X180167065Y-96658189D01*
X180162083Y-96660512D01*
X180157576Y-96663668D01*
X180157574Y-96663669D01*
X179984489Y-96784864D01*
X179984486Y-96784866D01*
X179979978Y-96788023D01*
X179822782Y-96945219D01*
X179819625Y-96949727D01*
X179819623Y-96949730D01*
X179698428Y-97122815D01*
X179695271Y-97127324D01*
X179692948Y-97132306D01*
X179692945Y-97132311D01*
X179603642Y-97323822D01*
X179601319Y-97328804D01*
X179543781Y-97543537D01*
X179524406Y-97765000D01*
X179543781Y-97986463D01*
X179573126Y-98095978D01*
X179598376Y-98190211D01*
X179601319Y-98201196D01*
X179603641Y-98206177D01*
X179603642Y-98206178D01*
X179692945Y-98397689D01*
X179692948Y-98397694D01*
X179695271Y-98402676D01*
X179698427Y-98407183D01*
X179698428Y-98407185D01*
X179817500Y-98577237D01*
X179822782Y-98584781D01*
X179979978Y-98741977D01*
X179984486Y-98745134D01*
X179984489Y-98745136D01*
X180057985Y-98796598D01*
X180162082Y-98869488D01*
X180167064Y-98871811D01*
X180167069Y-98871814D01*
X180304235Y-98935775D01*
X180363563Y-98963440D01*
X180368871Y-98964862D01*
X180368873Y-98964863D01*
X180376259Y-98966842D01*
X180578296Y-99020978D01*
X180799759Y-99040353D01*
X180918097Y-99030000D01*
X182836502Y-99030000D01*
X182856457Y-99258087D01*
X182915716Y-99479243D01*
X182918039Y-99484224D01*
X182918039Y-99484225D01*
X183010151Y-99681762D01*
X183010154Y-99681767D01*
X183012477Y-99686749D01*
X183015634Y-99691257D01*
X183115537Y-99833933D01*
X183143802Y-99874300D01*
X183305700Y-100036198D01*
X183310208Y-100039355D01*
X183310211Y-100039357D01*
X183313646Y-100041762D01*
X183493251Y-100167523D01*
X183498233Y-100169846D01*
X183498238Y-100169849D01*
X183695775Y-100261961D01*
X183700757Y-100264284D01*
X183706065Y-100265706D01*
X183706067Y-100265707D01*
X183916598Y-100322119D01*
X183916600Y-100322119D01*
X183921913Y-100323543D01*
X184150000Y-100343498D01*
X184378087Y-100323543D01*
X184383400Y-100322119D01*
X184383402Y-100322119D01*
X184593933Y-100265707D01*
X184593935Y-100265706D01*
X184599243Y-100264284D01*
X184604225Y-100261961D01*
X184801762Y-100169849D01*
X184801767Y-100169846D01*
X184806749Y-100167523D01*
X184986354Y-100041762D01*
X184989789Y-100039357D01*
X184989792Y-100039355D01*
X184994300Y-100036198D01*
X185156198Y-99874300D01*
X185184464Y-99833933D01*
X185284366Y-99691257D01*
X185287523Y-99686749D01*
X185289846Y-99681767D01*
X185289849Y-99681762D01*
X185381961Y-99484225D01*
X185381961Y-99484224D01*
X185384284Y-99479243D01*
X185443543Y-99258087D01*
X185463498Y-99030000D01*
X185443543Y-98801913D01*
X185423937Y-98728743D01*
X185385707Y-98586067D01*
X185385706Y-98586065D01*
X185384284Y-98580757D01*
X185366120Y-98541803D01*
X185289849Y-98378238D01*
X185289846Y-98378233D01*
X185287523Y-98373251D01*
X185214098Y-98268389D01*
X185159357Y-98190211D01*
X185159355Y-98190208D01*
X185156198Y-98185700D01*
X184994300Y-98023802D01*
X184989792Y-98020645D01*
X184989789Y-98020643D01*
X184911611Y-97965902D01*
X184806749Y-97892477D01*
X184801767Y-97890154D01*
X184801762Y-97890151D01*
X184604225Y-97798039D01*
X184604224Y-97798039D01*
X184599243Y-97795716D01*
X184593935Y-97794294D01*
X184593933Y-97794293D01*
X184383402Y-97737881D01*
X184383400Y-97737881D01*
X184378087Y-97736457D01*
X184150000Y-97716502D01*
X183921913Y-97736457D01*
X183916600Y-97737881D01*
X183916598Y-97737881D01*
X183706067Y-97794293D01*
X183706065Y-97794294D01*
X183700757Y-97795716D01*
X183695776Y-97798039D01*
X183695775Y-97798039D01*
X183498238Y-97890151D01*
X183498233Y-97890154D01*
X183493251Y-97892477D01*
X183388389Y-97965902D01*
X183310211Y-98020643D01*
X183310208Y-98020645D01*
X183305700Y-98023802D01*
X183143802Y-98185700D01*
X183140645Y-98190208D01*
X183140643Y-98190211D01*
X183085902Y-98268389D01*
X183012477Y-98373251D01*
X183010154Y-98378233D01*
X183010151Y-98378238D01*
X182933880Y-98541803D01*
X182915716Y-98580757D01*
X182914294Y-98586065D01*
X182914293Y-98586067D01*
X182876063Y-98728743D01*
X182856457Y-98801913D01*
X182836502Y-99030000D01*
X180918097Y-99030000D01*
X181021222Y-99020978D01*
X181223259Y-98966842D01*
X181230645Y-98964863D01*
X181230647Y-98964862D01*
X181235955Y-98963440D01*
X181295283Y-98935775D01*
X181432449Y-98871814D01*
X181432454Y-98871811D01*
X181437436Y-98869488D01*
X181541533Y-98796598D01*
X181615029Y-98745136D01*
X181615032Y-98745134D01*
X181619540Y-98741977D01*
X181776736Y-98584781D01*
X181782019Y-98577237D01*
X181901090Y-98407185D01*
X181901091Y-98407183D01*
X181904247Y-98402676D01*
X181906570Y-98397694D01*
X181906573Y-98397689D01*
X181995876Y-98206178D01*
X181995877Y-98206177D01*
X181998199Y-98201196D01*
X182001143Y-98190211D01*
X182026392Y-98095978D01*
X182055737Y-97986463D01*
X182075112Y-97765000D01*
X182055737Y-97543537D01*
X181998199Y-97328804D01*
X181995876Y-97323822D01*
X181906573Y-97132311D01*
X181906570Y-97132306D01*
X181904247Y-97127324D01*
X181901090Y-97122815D01*
X181779895Y-96949730D01*
X181779893Y-96949727D01*
X181776736Y-96945219D01*
X181619540Y-96788023D01*
X181615032Y-96784866D01*
X181615029Y-96784864D01*
X181539264Y-96731813D01*
X181437436Y-96660512D01*
X181432454Y-96658189D01*
X181432449Y-96658186D01*
X181327386Y-96609195D01*
X181274101Y-96562278D01*
X181254640Y-96494001D01*
X181275182Y-96426041D01*
X181327386Y-96380805D01*
X181432449Y-96331814D01*
X181432454Y-96331811D01*
X181437436Y-96329488D01*
X181539264Y-96258187D01*
X181615029Y-96205136D01*
X181615032Y-96205134D01*
X181619540Y-96201977D01*
X181776736Y-96044781D01*
X181904247Y-95862676D01*
X181906570Y-95857694D01*
X181906573Y-95857689D01*
X181995876Y-95666178D01*
X181995877Y-95666177D01*
X181998199Y-95661196D01*
X182055737Y-95446463D01*
X182075112Y-95225000D01*
X182055737Y-95003537D01*
X181998199Y-94788804D01*
X181995876Y-94783822D01*
X181906573Y-94592311D01*
X181906570Y-94592306D01*
X181904247Y-94587324D01*
X181776736Y-94405219D01*
X181619540Y-94248023D01*
X181615032Y-94244866D01*
X181615029Y-94244864D01*
X181539264Y-94191813D01*
X181437436Y-94120512D01*
X181432454Y-94118189D01*
X181432449Y-94118186D01*
X181327386Y-94069195D01*
X181274101Y-94022278D01*
X181254640Y-93954001D01*
X181275182Y-93886041D01*
X181327386Y-93840805D01*
X181432449Y-93791814D01*
X181432454Y-93791811D01*
X181437436Y-93789488D01*
X181539264Y-93718187D01*
X181615029Y-93665136D01*
X181615032Y-93665134D01*
X181619540Y-93661977D01*
X181776736Y-93504781D01*
X181904247Y-93322676D01*
X181906570Y-93317694D01*
X181906573Y-93317689D01*
X181995876Y-93126178D01*
X181995877Y-93126177D01*
X181998199Y-93121196D01*
X182055737Y-92906463D01*
X182075112Y-92685000D01*
X182055737Y-92463537D01*
X181998199Y-92248804D01*
X181995876Y-92243822D01*
X181906573Y-92052311D01*
X181906570Y-92052306D01*
X181904247Y-92047324D01*
X181776736Y-91865219D01*
X181619540Y-91708023D01*
X181615032Y-91704866D01*
X181615029Y-91704864D01*
X181539264Y-91651813D01*
X181437436Y-91580512D01*
X181432454Y-91578189D01*
X181432449Y-91578186D01*
X181327386Y-91529195D01*
X181274101Y-91482278D01*
X181254640Y-91414001D01*
X181275182Y-91346041D01*
X181327386Y-91300805D01*
X181432449Y-91251814D01*
X181432454Y-91251811D01*
X181437436Y-91249488D01*
X181539264Y-91178187D01*
X181615029Y-91125136D01*
X181615032Y-91125134D01*
X181619540Y-91121977D01*
X181776736Y-90964781D01*
X181782019Y-90957237D01*
X181901090Y-90787185D01*
X181901091Y-90787183D01*
X181904247Y-90782676D01*
X181906570Y-90777694D01*
X181906573Y-90777689D01*
X181995876Y-90586178D01*
X181995877Y-90586177D01*
X181998199Y-90581196D01*
X182055737Y-90366463D01*
X182075112Y-90145000D01*
X182055737Y-89923537D01*
X181998199Y-89708804D01*
X181989934Y-89691080D01*
X181906573Y-89512311D01*
X181906570Y-89512306D01*
X181904247Y-89507324D01*
X181892911Y-89491134D01*
X181779895Y-89329730D01*
X181779893Y-89329727D01*
X181776736Y-89325219D01*
X181619540Y-89168023D01*
X181615032Y-89164866D01*
X181615029Y-89164864D01*
X181539264Y-89111813D01*
X181437436Y-89040512D01*
X181432454Y-89038189D01*
X181432449Y-89038186D01*
X181327386Y-88989195D01*
X181274101Y-88942278D01*
X181254640Y-88874001D01*
X181275182Y-88806041D01*
X181327386Y-88760805D01*
X181432449Y-88711814D01*
X181432454Y-88711811D01*
X181437436Y-88709488D01*
X181539264Y-88638187D01*
X181615029Y-88585136D01*
X181615032Y-88585134D01*
X181619540Y-88581977D01*
X181776736Y-88424781D01*
X181821578Y-88360741D01*
X181901090Y-88247185D01*
X181901091Y-88247183D01*
X181904247Y-88242676D01*
X181906570Y-88237694D01*
X181906573Y-88237689D01*
X181995876Y-88046178D01*
X181995877Y-88046177D01*
X181998199Y-88041196D01*
X182055737Y-87826463D01*
X182075112Y-87605000D01*
X182058582Y-87416062D01*
X183428493Y-87416062D01*
X183437789Y-87428077D01*
X183488994Y-87463931D01*
X183498489Y-87469414D01*
X183695947Y-87561490D01*
X183706239Y-87565236D01*
X183916688Y-87621625D01*
X183927481Y-87623528D01*
X184144525Y-87642517D01*
X184155475Y-87642517D01*
X184372519Y-87623528D01*
X184383312Y-87621625D01*
X184593761Y-87565236D01*
X184604053Y-87561490D01*
X184801511Y-87469414D01*
X184811006Y-87463931D01*
X184863048Y-87427491D01*
X184871424Y-87417012D01*
X184864356Y-87403566D01*
X184162812Y-86702022D01*
X184148868Y-86694408D01*
X184147035Y-86694539D01*
X184140420Y-86698790D01*
X183434923Y-87404287D01*
X183428493Y-87416062D01*
X182058582Y-87416062D01*
X182055737Y-87383537D01*
X181998199Y-87168804D01*
X181995876Y-87163822D01*
X181906573Y-86972311D01*
X181906570Y-86972306D01*
X181904247Y-86967324D01*
X181776736Y-86785219D01*
X181619540Y-86628023D01*
X181615032Y-86624866D01*
X181615029Y-86624864D01*
X181498636Y-86543365D01*
X181437436Y-86500512D01*
X181432454Y-86498189D01*
X181432449Y-86498186D01*
X181327386Y-86449195D01*
X181274101Y-86402278D01*
X181255060Y-86335475D01*
X182837483Y-86335475D01*
X182856472Y-86552519D01*
X182858375Y-86563312D01*
X182914764Y-86773761D01*
X182918510Y-86784053D01*
X183010586Y-86981511D01*
X183016069Y-86991006D01*
X183052509Y-87043048D01*
X183062988Y-87051424D01*
X183076434Y-87044356D01*
X183777978Y-86342812D01*
X183784356Y-86331132D01*
X184514408Y-86331132D01*
X184514539Y-86332965D01*
X184518790Y-86339580D01*
X185224287Y-87045077D01*
X185236062Y-87051507D01*
X185248077Y-87042211D01*
X185283931Y-86991006D01*
X185289414Y-86981511D01*
X185381490Y-86784053D01*
X185385236Y-86773761D01*
X185441625Y-86563312D01*
X185443528Y-86552519D01*
X185462517Y-86335475D01*
X185462517Y-86324525D01*
X185443528Y-86107481D01*
X185441625Y-86096688D01*
X185385236Y-85886239D01*
X185381490Y-85875947D01*
X185289414Y-85678489D01*
X185283931Y-85668994D01*
X185247491Y-85616952D01*
X185237012Y-85608576D01*
X185223566Y-85615644D01*
X184522022Y-86317188D01*
X184514408Y-86331132D01*
X183784356Y-86331132D01*
X183785592Y-86328868D01*
X183785461Y-86327035D01*
X183781210Y-86320420D01*
X183075713Y-85614923D01*
X183063938Y-85608493D01*
X183051923Y-85617789D01*
X183016069Y-85668994D01*
X183010586Y-85678489D01*
X182918510Y-85875947D01*
X182914764Y-85886239D01*
X182858375Y-86096688D01*
X182856472Y-86107481D01*
X182837483Y-86324525D01*
X182837483Y-86335475D01*
X181255060Y-86335475D01*
X181254640Y-86334001D01*
X181275182Y-86266041D01*
X181327386Y-86220805D01*
X181432449Y-86171814D01*
X181432454Y-86171811D01*
X181437436Y-86169488D01*
X181541405Y-86096688D01*
X181615029Y-86045136D01*
X181615032Y-86045134D01*
X181619540Y-86041977D01*
X181776736Y-85884781D01*
X181815953Y-85828774D01*
X181901090Y-85707185D01*
X181901091Y-85707183D01*
X181904247Y-85702676D01*
X181906570Y-85697694D01*
X181906573Y-85697689D01*
X181995876Y-85506178D01*
X181995877Y-85506177D01*
X181998199Y-85501196D01*
X182055737Y-85286463D01*
X182059540Y-85242988D01*
X183428576Y-85242988D01*
X183435644Y-85256434D01*
X184137188Y-85957978D01*
X184151132Y-85965592D01*
X184152965Y-85965461D01*
X184159580Y-85961210D01*
X184865077Y-85255713D01*
X184871507Y-85243938D01*
X184862211Y-85231923D01*
X184811006Y-85196069D01*
X184801511Y-85190586D01*
X184604053Y-85098510D01*
X184593761Y-85094764D01*
X184383312Y-85038375D01*
X184372519Y-85036472D01*
X184155475Y-85017483D01*
X184144525Y-85017483D01*
X183927481Y-85036472D01*
X183916688Y-85038375D01*
X183706239Y-85094764D01*
X183695947Y-85098510D01*
X183498489Y-85190586D01*
X183488994Y-85196069D01*
X183436952Y-85232509D01*
X183428576Y-85242988D01*
X182059540Y-85242988D01*
X182075112Y-85065000D01*
X182055737Y-84843537D01*
X181998199Y-84628804D01*
X181995876Y-84623822D01*
X181906573Y-84432311D01*
X181906570Y-84432306D01*
X181904247Y-84427324D01*
X181776736Y-84245219D01*
X181619540Y-84088023D01*
X181615032Y-84084866D01*
X181615029Y-84084864D01*
X181539264Y-84031813D01*
X181437436Y-83960512D01*
X181432454Y-83958189D01*
X181432449Y-83958186D01*
X181327386Y-83909195D01*
X181274101Y-83862278D01*
X181254640Y-83794001D01*
X181275182Y-83726041D01*
X181327386Y-83680805D01*
X181432449Y-83631814D01*
X181432454Y-83631811D01*
X181437436Y-83629488D01*
X181539264Y-83558187D01*
X181615029Y-83505136D01*
X181615032Y-83505134D01*
X181619540Y-83501977D01*
X181776736Y-83344781D01*
X181782019Y-83337237D01*
X181901090Y-83167185D01*
X181901091Y-83167183D01*
X181904247Y-83162676D01*
X181906570Y-83157694D01*
X181906573Y-83157689D01*
X181995876Y-82966178D01*
X181995877Y-82966177D01*
X181998199Y-82961196D01*
X182055737Y-82746463D01*
X182075112Y-82525000D01*
X182055737Y-82303537D01*
X181998199Y-82088804D01*
X181995876Y-82083822D01*
X181906573Y-81892311D01*
X181906570Y-81892306D01*
X181904247Y-81887324D01*
X181901090Y-81882815D01*
X181779895Y-81709730D01*
X181779893Y-81709727D01*
X181776736Y-81705219D01*
X181619540Y-81548023D01*
X181615032Y-81544866D01*
X181615029Y-81544864D01*
X181507502Y-81469573D01*
X181437436Y-81420512D01*
X181432454Y-81418189D01*
X181432449Y-81418186D01*
X181327386Y-81369195D01*
X181274101Y-81322278D01*
X181254640Y-81254001D01*
X181275182Y-81186041D01*
X181327386Y-81140805D01*
X181432449Y-81091814D01*
X181432454Y-81091811D01*
X181437436Y-81089488D01*
X181539264Y-81018187D01*
X181615029Y-80965136D01*
X181615032Y-80965134D01*
X181619540Y-80961977D01*
X181776736Y-80804781D01*
X181904247Y-80622676D01*
X181906570Y-80617694D01*
X181906573Y-80617689D01*
X181995876Y-80426178D01*
X181995877Y-80426177D01*
X181998199Y-80421196D01*
X182055737Y-80206463D01*
X182075112Y-79985000D01*
X182055737Y-79763537D01*
X181998199Y-79548804D01*
X181995876Y-79543822D01*
X181906573Y-79352311D01*
X181906570Y-79352306D01*
X181904247Y-79347324D01*
X181776736Y-79165219D01*
X181619540Y-79008023D01*
X181615032Y-79004866D01*
X181615029Y-79004864D01*
X181539264Y-78951813D01*
X181437436Y-78880512D01*
X181432454Y-78878189D01*
X181432449Y-78878186D01*
X181327386Y-78829195D01*
X181274101Y-78782278D01*
X181254640Y-78714001D01*
X181275182Y-78646041D01*
X181327386Y-78600805D01*
X181432449Y-78551814D01*
X181432454Y-78551811D01*
X181437436Y-78549488D01*
X181539264Y-78478187D01*
X181615029Y-78425136D01*
X181615032Y-78425134D01*
X181619540Y-78421977D01*
X181776736Y-78264781D01*
X181904247Y-78082676D01*
X181906570Y-78077694D01*
X181906573Y-78077689D01*
X181995876Y-77886178D01*
X181995877Y-77886177D01*
X181998199Y-77881196D01*
X182055737Y-77666463D01*
X182075112Y-77445000D01*
X182055737Y-77223537D01*
X181998199Y-77008804D01*
X181995876Y-77003822D01*
X181906573Y-76812311D01*
X181906570Y-76812306D01*
X181904247Y-76807324D01*
X181776736Y-76625219D01*
X181619540Y-76468023D01*
X181615032Y-76464866D01*
X181615029Y-76464864D01*
X181519420Y-76397918D01*
X181437436Y-76340512D01*
X181432454Y-76338189D01*
X181432449Y-76338186D01*
X181369047Y-76308622D01*
X181335523Y-76292989D01*
X181282239Y-76246073D01*
X181262778Y-76177796D01*
X181283320Y-76109836D01*
X181336723Y-76064049D01*
X181376376Y-76046062D01*
X181376382Y-76046059D01*
X181379587Y-76044605D01*
X181454443Y-75999982D01*
X181523403Y-75958874D01*
X181523405Y-75958873D01*
X181526429Y-75957070D01*
X181551296Y-75938195D01*
X181614848Y-75889957D01*
X181614855Y-75889951D01*
X181617656Y-75887825D01*
X181623797Y-75881977D01*
X181738909Y-75772358D01*
X181738914Y-75772353D01*
X181741456Y-75769932D01*
X181815075Y-75682197D01*
X181817020Y-75679270D01*
X181907729Y-75542742D01*
X181907734Y-75542733D01*
X181909679Y-75539806D01*
X181962030Y-75437942D01*
X181984976Y-75377537D01*
X182021488Y-75281419D01*
X182021490Y-75281413D01*
X182022737Y-75278130D01*
X182024436Y-75271515D01*
X182050347Y-75170594D01*
X182051219Y-75167198D01*
X182053218Y-75152978D01*
X182074735Y-74999872D01*
X182074735Y-74999871D01*
X182075011Y-74997908D01*
X182075208Y-74995356D01*
X182079811Y-74935532D01*
X182079961Y-74933584D01*
X182080260Y-74912173D01*
X182079866Y-74904103D01*
X182078028Y-74866543D01*
X182077108Y-74847735D01*
X182074190Y-74821716D01*
X182058444Y-74681339D01*
X182058443Y-74681334D01*
X182058052Y-74677847D01*
X182051591Y-74649406D01*
X182033459Y-74569596D01*
X182033458Y-74569591D01*
X182032679Y-74566164D01*
X181976458Y-74404719D01*
X181926970Y-74301431D01*
X181836378Y-74156454D01*
X181806130Y-74118291D01*
X181767424Y-74069455D01*
X181767418Y-74069448D01*
X181765239Y-74066699D01*
X181762767Y-74064210D01*
X181762762Y-74064204D01*
X181647258Y-73947891D01*
X181647255Y-73947888D01*
X181644780Y-73945396D01*
X181623172Y-73928023D01*
X181558278Y-73875846D01*
X181558275Y-73875844D01*
X181555524Y-73873632D01*
X181552549Y-73871744D01*
X181552542Y-73871739D01*
X181414157Y-73783917D01*
X181414152Y-73783914D01*
X181411183Y-73782030D01*
X181381594Y-73767599D01*
X181333846Y-73744310D01*
X181281388Y-73696470D01*
X181263122Y-73627863D01*
X181284847Y-73560272D01*
X181335831Y-73516867D01*
X181432449Y-73471814D01*
X181432454Y-73471811D01*
X181437436Y-73469488D01*
X181539264Y-73398187D01*
X181615029Y-73345136D01*
X181615032Y-73345134D01*
X181619540Y-73341977D01*
X181776736Y-73184781D01*
X181904247Y-73002676D01*
X181906570Y-72997694D01*
X181906573Y-72997689D01*
X181995876Y-72806178D01*
X181995877Y-72806177D01*
X181998199Y-72801196D01*
X182055737Y-72586463D01*
X182075112Y-72365000D01*
X182055737Y-72143537D01*
X181998199Y-71928804D01*
X181995876Y-71923822D01*
X181906573Y-71732311D01*
X181906570Y-71732306D01*
X181904247Y-71727324D01*
X181776736Y-71545219D01*
X181619540Y-71388023D01*
X181615032Y-71384866D01*
X181615029Y-71384864D01*
X181519420Y-71317918D01*
X181437436Y-71260512D01*
X181432454Y-71258189D01*
X181432449Y-71258186D01*
X181369047Y-71228622D01*
X181335523Y-71212989D01*
X181282239Y-71166073D01*
X181262778Y-71097796D01*
X181283320Y-71029836D01*
X181336723Y-70984049D01*
X181376376Y-70966062D01*
X181376382Y-70966059D01*
X181379587Y-70964605D01*
X181427469Y-70936062D01*
X183428493Y-70936062D01*
X183437789Y-70948077D01*
X183488994Y-70983931D01*
X183498489Y-70989414D01*
X183695947Y-71081490D01*
X183706239Y-71085236D01*
X183916688Y-71141625D01*
X183927481Y-71143528D01*
X184144525Y-71162517D01*
X184155475Y-71162517D01*
X184372519Y-71143528D01*
X184383312Y-71141625D01*
X184593761Y-71085236D01*
X184604053Y-71081490D01*
X184801511Y-70989414D01*
X184811006Y-70983931D01*
X184863048Y-70947491D01*
X184871424Y-70937012D01*
X184864356Y-70923566D01*
X184162812Y-70222022D01*
X184148868Y-70214408D01*
X184147035Y-70214539D01*
X184140420Y-70218790D01*
X183434923Y-70924287D01*
X183428493Y-70936062D01*
X181427469Y-70936062D01*
X181444368Y-70925988D01*
X181523403Y-70878874D01*
X181523405Y-70878873D01*
X181526429Y-70877070D01*
X181551296Y-70858195D01*
X181614848Y-70809957D01*
X181614855Y-70809951D01*
X181617656Y-70807825D01*
X181623797Y-70801977D01*
X181738909Y-70692358D01*
X181738914Y-70692353D01*
X181741456Y-70689932D01*
X181815075Y-70602197D01*
X181817715Y-70598224D01*
X181907729Y-70462742D01*
X181907734Y-70462733D01*
X181909679Y-70459806D01*
X181962030Y-70357942D01*
X181984976Y-70297537D01*
X182021488Y-70201419D01*
X182021490Y-70201413D01*
X182022737Y-70198130D01*
X182024436Y-70191515D01*
X182050347Y-70090594D01*
X182051219Y-70087198D01*
X182053218Y-70072978D01*
X182074735Y-69919872D01*
X182074735Y-69919871D01*
X182075011Y-69917908D01*
X182075208Y-69915356D01*
X182079811Y-69855532D01*
X182079815Y-69855475D01*
X182837483Y-69855475D01*
X182856472Y-70072519D01*
X182858375Y-70083312D01*
X182914764Y-70293761D01*
X182918510Y-70304053D01*
X183010586Y-70501511D01*
X183016069Y-70511006D01*
X183052509Y-70563048D01*
X183062988Y-70571424D01*
X183076434Y-70564356D01*
X183777978Y-69862812D01*
X183784356Y-69851132D01*
X184514408Y-69851132D01*
X184514539Y-69852965D01*
X184518790Y-69859580D01*
X185224287Y-70565077D01*
X185236062Y-70571507D01*
X185248077Y-70562211D01*
X185283931Y-70511006D01*
X185289414Y-70501511D01*
X185381490Y-70304053D01*
X185385236Y-70293761D01*
X185441625Y-70083312D01*
X185443528Y-70072519D01*
X185462517Y-69855475D01*
X185462517Y-69844525D01*
X185443528Y-69627481D01*
X185441625Y-69616688D01*
X185385236Y-69406239D01*
X185381490Y-69395947D01*
X185289414Y-69198489D01*
X185283931Y-69188994D01*
X185247491Y-69136952D01*
X185237012Y-69128576D01*
X185223566Y-69135644D01*
X184522022Y-69837188D01*
X184514408Y-69851132D01*
X183784356Y-69851132D01*
X183785592Y-69848868D01*
X183785461Y-69847035D01*
X183781210Y-69840420D01*
X183075713Y-69134923D01*
X183063938Y-69128493D01*
X183051923Y-69137789D01*
X183016069Y-69188994D01*
X183010586Y-69198489D01*
X182918510Y-69395947D01*
X182914764Y-69406239D01*
X182858375Y-69616688D01*
X182856472Y-69627481D01*
X182837483Y-69844525D01*
X182837483Y-69855475D01*
X182079815Y-69855475D01*
X182079961Y-69853584D01*
X182080260Y-69832173D01*
X182079866Y-69824103D01*
X182078028Y-69786543D01*
X182077108Y-69767735D01*
X182076582Y-69763048D01*
X182058444Y-69601339D01*
X182058443Y-69601334D01*
X182058052Y-69597847D01*
X182051591Y-69569406D01*
X182033459Y-69489596D01*
X182033458Y-69489591D01*
X182032679Y-69486164D01*
X181976458Y-69324719D01*
X181926970Y-69221431D01*
X181882482Y-69150236D01*
X181838244Y-69079440D01*
X181838243Y-69079438D01*
X181836378Y-69076454D01*
X181805256Y-69037188D01*
X181767424Y-68989455D01*
X181767418Y-68989448D01*
X181765239Y-68986699D01*
X181762767Y-68984210D01*
X181762762Y-68984204D01*
X181647258Y-68867891D01*
X181647255Y-68867888D01*
X181644780Y-68865396D01*
X181623172Y-68848023D01*
X181558278Y-68795846D01*
X181558275Y-68795844D01*
X181555524Y-68793632D01*
X181552549Y-68791744D01*
X181552542Y-68791739D01*
X181507238Y-68762988D01*
X183428576Y-68762988D01*
X183435644Y-68776434D01*
X184137188Y-69477978D01*
X184151132Y-69485592D01*
X184152965Y-69485461D01*
X184159580Y-69481210D01*
X184865077Y-68775713D01*
X184871507Y-68763938D01*
X184862211Y-68751923D01*
X184811006Y-68716069D01*
X184801511Y-68710586D01*
X184604053Y-68618510D01*
X184593761Y-68614764D01*
X184383312Y-68558375D01*
X184372519Y-68556472D01*
X184155475Y-68537483D01*
X184144525Y-68537483D01*
X183927481Y-68556472D01*
X183916688Y-68558375D01*
X183706239Y-68614764D01*
X183695947Y-68618510D01*
X183498489Y-68710586D01*
X183488994Y-68716069D01*
X183436952Y-68752509D01*
X183428576Y-68762988D01*
X181507238Y-68762988D01*
X181414157Y-68703917D01*
X181414152Y-68703914D01*
X181411183Y-68702030D01*
X181325363Y-68660173D01*
X181311413Y-68653369D01*
X181311411Y-68653368D01*
X181308243Y-68651823D01*
X181304925Y-68650641D01*
X181304919Y-68650639D01*
X181204169Y-68614764D01*
X181147194Y-68594476D01*
X181128972Y-68590202D01*
X181039122Y-68569128D01*
X181039119Y-68569127D01*
X181035689Y-68568323D01*
X180927814Y-68555460D01*
X180869420Y-68548497D01*
X180869417Y-68548497D01*
X180865938Y-68548082D01*
X180862438Y-68548058D01*
X180862430Y-68548057D01*
X180800211Y-68547622D01*
X180751426Y-68547281D01*
X180739854Y-68548497D01*
X180739054Y-68548581D01*
X180725887Y-68549271D01*
X180242352Y-68549271D01*
X180229995Y-68547931D01*
X180229972Y-68548243D01*
X180220991Y-68547583D01*
X180212197Y-68545652D01*
X180203215Y-68546275D01*
X180203213Y-68546275D01*
X180160997Y-68549204D01*
X180155450Y-68548801D01*
X180155461Y-68548951D01*
X180151197Y-68549256D01*
X180151197Y-68549271D01*
X180146482Y-68549271D01*
X180142034Y-68549910D01*
X180142019Y-68549911D01*
X180138401Y-68550431D01*
X180129210Y-68551409D01*
X180070816Y-68555460D01*
X180070810Y-68555461D01*
X180066325Y-68555772D01*
X180061925Y-68556719D01*
X180061920Y-68556720D01*
X180043069Y-68560779D01*
X180042681Y-68558976D01*
X180025092Y-68563426D01*
X180025344Y-68564595D01*
X179995682Y-68570981D01*
X179995668Y-68570984D01*
X179993469Y-68571458D01*
X179991303Y-68572090D01*
X179929219Y-68590202D01*
X179929218Y-68590203D01*
X179922724Y-68592097D01*
X179916783Y-68595331D01*
X179916782Y-68595331D01*
X179865551Y-68623215D01*
X179857602Y-68627184D01*
X179815819Y-68646241D01*
X179809005Y-68652137D01*
X179805407Y-68654446D01*
X179797982Y-68659992D01*
X179794293Y-68662000D01*
X179793796Y-68662371D01*
X179737844Y-68710788D01*
X179734641Y-68713991D01*
X179734283Y-68713633D01*
X179725860Y-68724078D01*
X179708653Y-68738966D01*
X179708649Y-68738970D01*
X179705243Y-68741917D01*
X179698511Y-68749675D01*
X179698504Y-68749683D01*
X179692434Y-68756198D01*
X179083217Y-69365415D01*
X179083635Y-69365833D01*
X179081046Y-69369287D01*
X179013165Y-69436973D01*
X179008839Y-69444864D01*
X178966801Y-69521547D01*
X178963704Y-69525999D01*
X178963151Y-69525697D01*
X178949600Y-69550501D01*
X178948026Y-69554715D01*
X178946159Y-69558800D01*
X178946153Y-69558797D01*
X178946081Y-69558973D01*
X178945040Y-69561242D01*
X178942874Y-69565193D01*
X178932950Y-69591665D01*
X178933542Y-69591887D01*
X178932693Y-69595770D01*
X178930613Y-69601339D01*
X178923270Y-69620998D01*
X178920646Y-69626225D01*
X178920075Y-69626011D01*
X178916716Y-69634971D01*
X178915751Y-69639369D01*
X178914504Y-69643587D01*
X178911705Y-69651963D01*
X178898522Y-69687260D01*
X178897874Y-69696237D01*
X178895885Y-69723775D01*
X178893281Y-69741716D01*
X178887342Y-69768767D01*
X178887342Y-69768773D01*
X178885412Y-69777562D01*
X178886035Y-69786542D01*
X178886035Y-69786543D01*
X178888023Y-69815204D01*
X178888032Y-69824111D01*
X178888318Y-69824111D01*
X178888315Y-69828617D01*
X178887991Y-69833103D01*
X178888667Y-69842646D01*
X178889281Y-69842602D01*
X178890228Y-69846987D01*
X178892085Y-69873749D01*
X178891883Y-69879175D01*
X178891256Y-69879219D01*
X178893252Y-69907414D01*
X178894205Y-69911816D01*
X178894840Y-69916257D01*
X178894836Y-69916258D01*
X178894866Y-69916434D01*
X178895220Y-69918934D01*
X178895532Y-69923434D01*
X178901482Y-69951070D01*
X178902098Y-69950938D01*
X178903483Y-69954668D01*
X178909184Y-69981002D01*
X178909800Y-69986806D01*
X178909203Y-69986935D01*
X178911217Y-69996289D01*
X178911849Y-69998454D01*
X178914924Y-70008996D01*
X178917113Y-70017619D01*
X178924140Y-70050075D01*
X178928447Y-70057986D01*
X178929035Y-70059567D01*
X178930691Y-70063041D01*
X178931856Y-70067035D01*
X179001759Y-70195466D01*
X179002130Y-70195963D01*
X179003616Y-70197680D01*
X179003619Y-70197684D01*
X179021883Y-70218790D01*
X179038399Y-70237876D01*
X179038654Y-70238218D01*
X179038961Y-70238526D01*
X179039713Y-70239395D01*
X179039714Y-70239397D01*
X179049048Y-70250183D01*
X179050547Y-70251915D01*
X179070174Y-70271542D01*
X179070592Y-70271124D01*
X179074045Y-70273711D01*
X179093339Y-70293061D01*
X179096597Y-70297109D01*
X179096169Y-70297537D01*
X179656827Y-70858195D01*
X179664615Y-70867878D01*
X179664853Y-70867673D01*
X179670736Y-70874490D01*
X179675590Y-70882075D01*
X179682383Y-70887987D01*
X179682386Y-70887990D01*
X179714307Y-70915770D01*
X179717950Y-70919982D01*
X179718049Y-70919868D01*
X179721273Y-70922663D01*
X179721284Y-70922652D01*
X179724620Y-70925988D01*
X179728226Y-70928689D01*
X179728227Y-70928689D01*
X179731154Y-70930881D01*
X179738349Y-70936693D01*
X179782491Y-70975108D01*
X179782497Y-70975113D01*
X179785892Y-70978067D01*
X179789674Y-70980509D01*
X179805875Y-70990970D01*
X179804874Y-70992520D01*
X179820461Y-71001814D01*
X179821111Y-71000808D01*
X179848497Y-71018491D01*
X179913219Y-71053970D01*
X179962466Y-71068492D01*
X179975515Y-71072340D01*
X179983961Y-71075159D01*
X180010943Y-71085236D01*
X180027002Y-71091234D01*
X180035082Y-71091818D01*
X180096977Y-71125663D01*
X180130965Y-71187996D01*
X180125857Y-71258809D01*
X180080098Y-71317918D01*
X179984494Y-71384860D01*
X179984488Y-71384865D01*
X179979978Y-71388023D01*
X179822782Y-71545219D01*
X179695271Y-71727324D01*
X179692948Y-71732306D01*
X179692945Y-71732311D01*
X179603642Y-71923822D01*
X179601319Y-71928804D01*
X179543781Y-72143537D01*
X179524406Y-72365000D01*
X179543781Y-72586463D01*
X179601319Y-72801196D01*
X179603641Y-72806177D01*
X179603642Y-72806178D01*
X179692945Y-72997689D01*
X179692948Y-72997694D01*
X179695271Y-73002676D01*
X179822782Y-73184781D01*
X179979978Y-73341977D01*
X179984486Y-73345134D01*
X179984489Y-73345136D01*
X180032608Y-73378829D01*
X180085765Y-73416050D01*
X180130092Y-73471506D01*
X180137401Y-73542125D01*
X180105370Y-73605486D01*
X180073643Y-73629978D01*
X180069634Y-73632156D01*
X180025092Y-73643425D01*
X180025344Y-73644595D01*
X179995682Y-73650981D01*
X179995668Y-73650984D01*
X179993469Y-73651458D01*
X179991303Y-73652090D01*
X179929219Y-73670202D01*
X179929218Y-73670203D01*
X179922724Y-73672097D01*
X179916783Y-73675331D01*
X179916782Y-73675331D01*
X179865551Y-73703215D01*
X179857602Y-73707184D01*
X179815819Y-73726241D01*
X179809005Y-73732137D01*
X179805407Y-73734446D01*
X179797982Y-73739992D01*
X179794293Y-73742000D01*
X179793796Y-73742371D01*
X179737844Y-73790788D01*
X179734641Y-73793991D01*
X179734283Y-73793633D01*
X179725860Y-73804078D01*
X179708653Y-73818966D01*
X179708649Y-73818970D01*
X179705243Y-73821917D01*
X179698511Y-73829675D01*
X179698504Y-73829683D01*
X179692434Y-73836198D01*
X179083217Y-74445415D01*
X179083635Y-74445833D01*
X179081046Y-74449287D01*
X179013165Y-74516973D01*
X179008839Y-74524864D01*
X178966801Y-74601547D01*
X178963704Y-74605999D01*
X178963151Y-74605697D01*
X178949600Y-74630501D01*
X178948026Y-74634715D01*
X178946159Y-74638800D01*
X178946153Y-74638797D01*
X178946081Y-74638973D01*
X178945040Y-74641242D01*
X178942874Y-74645193D01*
X178932950Y-74671665D01*
X178933542Y-74671887D01*
X178932693Y-74675770D01*
X178930613Y-74681339D01*
X178923270Y-74700998D01*
X178920646Y-74706225D01*
X178920075Y-74706011D01*
X178916716Y-74714971D01*
X178915751Y-74719369D01*
X178914504Y-74723587D01*
X178911705Y-74731963D01*
X178898522Y-74767260D01*
X178897874Y-74776237D01*
X178895885Y-74803775D01*
X178893281Y-74821716D01*
X178887342Y-74848767D01*
X178887342Y-74848773D01*
X178885412Y-74857562D01*
X164561966Y-74857562D01*
X164561966Y-70598224D01*
X164581968Y-70530103D01*
X164594330Y-70513914D01*
X164638086Y-70465318D01*
X164638087Y-70465317D01*
X164642505Y-70460410D01*
X164732778Y-70304053D01*
X164734688Y-70300745D01*
X164734689Y-70300744D01*
X164737992Y-70295022D01*
X164797007Y-70113394D01*
X164799404Y-70090594D01*
X164816279Y-69930031D01*
X164816969Y-69923466D01*
X164809419Y-69851628D01*
X164797697Y-69740101D01*
X164797697Y-69740099D01*
X164797007Y-69733538D01*
X164737992Y-69551910D01*
X164642505Y-69386522D01*
X164585884Y-69323638D01*
X164555169Y-69259635D01*
X164563932Y-69189181D01*
X164590427Y-69150236D01*
X167865500Y-65875164D01*
X167927812Y-65841138D01*
X167954595Y-65838259D01*
X168396474Y-65838259D01*
X168407657Y-65838786D01*
X168415150Y-65840461D01*
X168423076Y-65840212D01*
X168423077Y-65840212D01*
X168483227Y-65838321D01*
X168487186Y-65838259D01*
X168515097Y-65838259D01*
X168519032Y-65837762D01*
X168519097Y-65837754D01*
X168530934Y-65836821D01*
X168563192Y-65835807D01*
X168567211Y-65835681D01*
X168575130Y-65835432D01*
X168594584Y-65829780D01*
X168613941Y-65825772D01*
X168626171Y-65824227D01*
X168626172Y-65824227D01*
X168634038Y-65823233D01*
X168641409Y-65820314D01*
X168641411Y-65820314D01*
X168675153Y-65806955D01*
X168686383Y-65803110D01*
X168721224Y-65792988D01*
X168721225Y-65792988D01*
X168728834Y-65790777D01*
X168735653Y-65786744D01*
X168735658Y-65786742D01*
X168746269Y-65780466D01*
X168764017Y-65771771D01*
X168782858Y-65764311D01*
X168807192Y-65746632D01*
X168818628Y-65738323D01*
X168828548Y-65731807D01*
X168859776Y-65713339D01*
X168859779Y-65713337D01*
X168866603Y-65709301D01*
X168880924Y-65694980D01*
X168895958Y-65682139D01*
X168912348Y-65670231D01*
X168940539Y-65636154D01*
X168948529Y-65627375D01*
X170130499Y-64445405D01*
X170192811Y-64411379D01*
X170219594Y-64408500D01*
X170275487Y-64408500D01*
X170281939Y-64407128D01*
X170281944Y-64407128D01*
X170368887Y-64388647D01*
X170462288Y-64368794D01*
X170468319Y-64366109D01*
X170630722Y-64293803D01*
X170630724Y-64293802D01*
X170636752Y-64291118D01*
X170791253Y-64178866D01*
X170799399Y-64169819D01*
X170914621Y-64041852D01*
X170914622Y-64041851D01*
X170919040Y-64036944D01*
X171014527Y-63871556D01*
X171073542Y-63689928D01*
X171086371Y-63567872D01*
X171092814Y-63506565D01*
X171093504Y-63500000D01*
X171079942Y-63370963D01*
X171074232Y-63316635D01*
X171074232Y-63316633D01*
X171073542Y-63310072D01*
X171014527Y-63128444D01*
X170919040Y-62963056D01*
X170806890Y-62838500D01*
X170795675Y-62826045D01*
X170795674Y-62826044D01*
X170791253Y-62821134D01*
X170636752Y-62708882D01*
X170630724Y-62706198D01*
X170630722Y-62706197D01*
X170468319Y-62633891D01*
X170468318Y-62633891D01*
X170462288Y-62631206D01*
X170368887Y-62611353D01*
X170281944Y-62592872D01*
X170281939Y-62592872D01*
X170275487Y-62591500D01*
X170084513Y-62591500D01*
X170078061Y-62592872D01*
X170078056Y-62592872D01*
X169991113Y-62611353D01*
X169897712Y-62631206D01*
X169891682Y-62633891D01*
X169891681Y-62633891D01*
X169729278Y-62706197D01*
X169729276Y-62706198D01*
X169723248Y-62708882D01*
X169568747Y-62821134D01*
X169564326Y-62826044D01*
X169564325Y-62826045D01*
X169553111Y-62838500D01*
X169440960Y-62963056D01*
X169345473Y-63128444D01*
X169286458Y-63310072D01*
X169285768Y-63316633D01*
X169285768Y-63316635D01*
X169280058Y-63370963D01*
X169273363Y-63434669D01*
X169269093Y-63475292D01*
X169242080Y-63540949D01*
X169232878Y-63551217D01*
X168249741Y-64534354D01*
X168187429Y-64568380D01*
X168160646Y-64571259D01*
X167718767Y-64571259D01*
X167707584Y-64570732D01*
X167700091Y-64569057D01*
X167692165Y-64569306D01*
X167692164Y-64569306D01*
X167632001Y-64571197D01*
X167628043Y-64571259D01*
X167600144Y-64571259D01*
X167596154Y-64571763D01*
X167584320Y-64572695D01*
X167540111Y-64574085D01*
X167532497Y-64576297D01*
X167532492Y-64576298D01*
X167520659Y-64579736D01*
X167501296Y-64583747D01*
X167481203Y-64586285D01*
X167473836Y-64589202D01*
X167473831Y-64589203D01*
X167440092Y-64602561D01*
X167428865Y-64606405D01*
X167386407Y-64618741D01*
X167379581Y-64622778D01*
X167368972Y-64629052D01*
X167351224Y-64637747D01*
X167332383Y-64645207D01*
X167325967Y-64649869D01*
X167325966Y-64649869D01*
X167296613Y-64671195D01*
X167286693Y-64677711D01*
X167255465Y-64696179D01*
X167255462Y-64696181D01*
X167248638Y-64700217D01*
X167234317Y-64714538D01*
X167219284Y-64727378D01*
X167202893Y-64739287D01*
X167182916Y-64763435D01*
X167174702Y-64773364D01*
X167166712Y-64782143D01*
X161964546Y-69984308D01*
X161902234Y-70018334D01*
X161831419Y-70013269D01*
X161774583Y-69970722D01*
X161749772Y-69904202D01*
X161749930Y-69884232D01*
X161754633Y-69830475D01*
X161755112Y-69825000D01*
X161735737Y-69603537D01*
X161725273Y-69564484D01*
X161726963Y-69493507D01*
X161757885Y-69442778D01*
X166762247Y-64438416D01*
X166770537Y-64430872D01*
X166777018Y-64426759D01*
X166823659Y-64377091D01*
X166826413Y-64374250D01*
X166846135Y-64354528D01*
X166848619Y-64351326D01*
X166856317Y-64342314D01*
X166881161Y-64315857D01*
X166886586Y-64310080D01*
X166896347Y-64292325D01*
X166907198Y-64275806D01*
X166919614Y-64259800D01*
X166937174Y-64219222D01*
X166942391Y-64208572D01*
X166963695Y-64169819D01*
X166968733Y-64150196D01*
X166975137Y-64131493D01*
X166980033Y-64120179D01*
X166980033Y-64120178D01*
X166983181Y-64112904D01*
X166984420Y-64105081D01*
X166984423Y-64105071D01*
X166990099Y-64069235D01*
X166992505Y-64057615D01*
X167001528Y-64022470D01*
X167001528Y-64022469D01*
X167003500Y-64014789D01*
X167003500Y-63994535D01*
X167005051Y-63974824D01*
X167006980Y-63962645D01*
X167008220Y-63954816D01*
X167004059Y-63910797D01*
X167003500Y-63898940D01*
X167003500Y-57150000D01*
X182836502Y-57150000D01*
X182856457Y-57378087D01*
X182857881Y-57383400D01*
X182857881Y-57383402D01*
X182884935Y-57484366D01*
X182915716Y-57599243D01*
X182918039Y-57604224D01*
X182918039Y-57604225D01*
X183010151Y-57801762D01*
X183010154Y-57801767D01*
X183012477Y-57806749D01*
X183143802Y-57994300D01*
X183305700Y-58156198D01*
X183310208Y-58159355D01*
X183310211Y-58159357D01*
X183388389Y-58214098D01*
X183493251Y-58287523D01*
X183498233Y-58289846D01*
X183498238Y-58289849D01*
X183695775Y-58381961D01*
X183700757Y-58384284D01*
X183706065Y-58385706D01*
X183706067Y-58385707D01*
X183916598Y-58442119D01*
X183916600Y-58442119D01*
X183921913Y-58443543D01*
X184150000Y-58463498D01*
X184378087Y-58443543D01*
X184383400Y-58442119D01*
X184383402Y-58442119D01*
X184593933Y-58385707D01*
X184593935Y-58385706D01*
X184599243Y-58384284D01*
X184604225Y-58381961D01*
X184801762Y-58289849D01*
X184801767Y-58289846D01*
X184806749Y-58287523D01*
X184911611Y-58214098D01*
X184989789Y-58159357D01*
X184989792Y-58159355D01*
X184994300Y-58156198D01*
X185156198Y-57994300D01*
X185287523Y-57806749D01*
X185289846Y-57801767D01*
X185289849Y-57801762D01*
X185381961Y-57604225D01*
X185381961Y-57604224D01*
X185384284Y-57599243D01*
X185415066Y-57484366D01*
X185442119Y-57383402D01*
X185442119Y-57383400D01*
X185443543Y-57378087D01*
X185463498Y-57150000D01*
X185443543Y-56921913D01*
X185442119Y-56916598D01*
X185385707Y-56706067D01*
X185385706Y-56706065D01*
X185384284Y-56700757D01*
X185329561Y-56583402D01*
X185289849Y-56498238D01*
X185289846Y-56498233D01*
X185287523Y-56493251D01*
X185156198Y-56305700D01*
X184994300Y-56143802D01*
X184989792Y-56140645D01*
X184989789Y-56140643D01*
X184879424Y-56063365D01*
X184806749Y-56012477D01*
X184801767Y-56010154D01*
X184801762Y-56010151D01*
X184604225Y-55918039D01*
X184604224Y-55918039D01*
X184599243Y-55915716D01*
X184593935Y-55914294D01*
X184593933Y-55914293D01*
X184383402Y-55857881D01*
X184383400Y-55857881D01*
X184378087Y-55856457D01*
X184150000Y-55836502D01*
X183921913Y-55856457D01*
X183916600Y-55857881D01*
X183916598Y-55857881D01*
X183706067Y-55914293D01*
X183706065Y-55914294D01*
X183700757Y-55915716D01*
X183695776Y-55918039D01*
X183695775Y-55918039D01*
X183498238Y-56010151D01*
X183498233Y-56010154D01*
X183493251Y-56012477D01*
X183420576Y-56063365D01*
X183310211Y-56140643D01*
X183310208Y-56140645D01*
X183305700Y-56143802D01*
X183143802Y-56305700D01*
X183012477Y-56493251D01*
X183010154Y-56498233D01*
X183010151Y-56498238D01*
X182970439Y-56583402D01*
X182915716Y-56700757D01*
X182914294Y-56706065D01*
X182914293Y-56706067D01*
X182857881Y-56916598D01*
X182856457Y-56921913D01*
X182836502Y-57150000D01*
X167003500Y-57150000D01*
X167003500Y-56582524D01*
X167023502Y-56514403D01*
X167035858Y-56498221D01*
X167109040Y-56416944D01*
X167204527Y-56251556D01*
X167263542Y-56069928D01*
X167269249Y-56015634D01*
X167282814Y-55886565D01*
X167283504Y-55880000D01*
X167263542Y-55690072D01*
X167204527Y-55508444D01*
X167109040Y-55343056D01*
X166981253Y-55201134D01*
X166826752Y-55088882D01*
X166820724Y-55086198D01*
X166820722Y-55086197D01*
X166658319Y-55013891D01*
X166658318Y-55013891D01*
X166652288Y-55011206D01*
X166558887Y-54991353D01*
X166471944Y-54972872D01*
X166471939Y-54972872D01*
X166465487Y-54971500D01*
X166434500Y-54971500D01*
X166366379Y-54951498D01*
X166319886Y-54897842D01*
X166308500Y-54845500D01*
X166308500Y-50740000D01*
X184160206Y-50740000D01*
X184179345Y-50958761D01*
X184236181Y-51170875D01*
X184238504Y-51175856D01*
X184238504Y-51175857D01*
X184326660Y-51364910D01*
X184326663Y-51364915D01*
X184328986Y-51369897D01*
X184454942Y-51549780D01*
X184610220Y-51705058D01*
X184790103Y-51831014D01*
X184795085Y-51833337D01*
X184795090Y-51833340D01*
X184819678Y-51844805D01*
X184872963Y-51891722D01*
X184892424Y-51959999D01*
X184871882Y-52027959D01*
X184817860Y-52074025D01*
X184766428Y-52085000D01*
X184625366Y-52085000D01*
X184563184Y-52091755D01*
X184426795Y-52142885D01*
X184310239Y-52230239D01*
X184222885Y-52346795D01*
X184171755Y-52483184D01*
X184165000Y-52545366D01*
X184165000Y-54134634D01*
X184171755Y-54196816D01*
X184222885Y-54333205D01*
X184310239Y-54449761D01*
X184426795Y-54537115D01*
X184563184Y-54588245D01*
X184625366Y-54595000D01*
X186214634Y-54595000D01*
X186276816Y-54588245D01*
X186413205Y-54537115D01*
X186529761Y-54449761D01*
X186617115Y-54333205D01*
X186668245Y-54196816D01*
X186675000Y-54134634D01*
X186675000Y-52545366D01*
X186668245Y-52483184D01*
X186617115Y-52346795D01*
X186529761Y-52230239D01*
X186413205Y-52142885D01*
X186276816Y-52091755D01*
X186214634Y-52085000D01*
X186073572Y-52085000D01*
X186005451Y-52064998D01*
X185958958Y-52011342D01*
X185948854Y-51941068D01*
X185978348Y-51876488D01*
X186020322Y-51844805D01*
X186044910Y-51833340D01*
X186044915Y-51833337D01*
X186049897Y-51831014D01*
X186229780Y-51705058D01*
X186385058Y-51549780D01*
X186511014Y-51369897D01*
X186513337Y-51364915D01*
X186513340Y-51364910D01*
X186601496Y-51175857D01*
X186601496Y-51175856D01*
X186603819Y-51170875D01*
X186660655Y-50958761D01*
X186679794Y-50740000D01*
X186660655Y-50521239D01*
X186603819Y-50309125D01*
X186601496Y-50304143D01*
X186513340Y-50115090D01*
X186513337Y-50115085D01*
X186511014Y-50110103D01*
X186385058Y-49930220D01*
X186229780Y-49774942D01*
X186049897Y-49648986D01*
X186044915Y-49646663D01*
X186044910Y-49646660D01*
X185855857Y-49558504D01*
X185855856Y-49558504D01*
X185850875Y-49556181D01*
X185845567Y-49554759D01*
X185845565Y-49554758D01*
X185644076Y-49500769D01*
X185644074Y-49500769D01*
X185638761Y-49499345D01*
X185420000Y-49480206D01*
X185201239Y-49499345D01*
X185195926Y-49500769D01*
X185195924Y-49500769D01*
X184994435Y-49554758D01*
X184994433Y-49554759D01*
X184989125Y-49556181D01*
X184984144Y-49558504D01*
X184984143Y-49558504D01*
X184795090Y-49646660D01*
X184795085Y-49646663D01*
X184790103Y-49648986D01*
X184610220Y-49774942D01*
X184454942Y-49930220D01*
X184328986Y-50110103D01*
X184326663Y-50115085D01*
X184326660Y-50115090D01*
X184238504Y-50304143D01*
X184236181Y-50309125D01*
X184179345Y-50521239D01*
X184160206Y-50740000D01*
X166308500Y-50740000D01*
X166308500Y-47349094D01*
X166328502Y-47280973D01*
X166345405Y-47259999D01*
X167653451Y-45951954D01*
X167715763Y-45917928D01*
X167758994Y-45916127D01*
X167764475Y-45916849D01*
X167770111Y-45918124D01*
X167775882Y-45918351D01*
X167775884Y-45918351D01*
X167838828Y-45920824D01*
X167977998Y-45926292D01*
X168080945Y-45911366D01*
X168178178Y-45897268D01*
X168178183Y-45897267D01*
X168183892Y-45896439D01*
X168190801Y-45894094D01*
X168375431Y-45831420D01*
X168380899Y-45829564D01*
X168562419Y-45727908D01*
X168722374Y-45594874D01*
X168855408Y-45434919D01*
X168859018Y-45428474D01*
X168929757Y-45302159D01*
X168957064Y-45253399D01*
X169023939Y-45056392D01*
X169024767Y-45050681D01*
X169024768Y-45050677D01*
X169041910Y-44932448D01*
X169042992Y-44924988D01*
X169072560Y-44860443D01*
X169132332Y-44822130D01*
X169203329Y-44822214D01*
X169263009Y-44860668D01*
X169292426Y-44925284D01*
X169293417Y-44934825D01*
X169295647Y-44968843D01*
X169346858Y-45170488D01*
X169433959Y-45359425D01*
X169554032Y-45529325D01*
X169703057Y-45674498D01*
X169876042Y-45790083D01*
X169881345Y-45792361D01*
X169881348Y-45792363D01*
X170060772Y-45869450D01*
X170067194Y-45872209D01*
X170141400Y-45889000D01*
X170264474Y-45916849D01*
X170264479Y-45916850D01*
X170270111Y-45918124D01*
X170275882Y-45918351D01*
X170275884Y-45918351D01*
X170338828Y-45920824D01*
X170477998Y-45926292D01*
X170580945Y-45911366D01*
X170678178Y-45897268D01*
X170678183Y-45897267D01*
X170683892Y-45896439D01*
X170690801Y-45894094D01*
X170875431Y-45831420D01*
X170880899Y-45829564D01*
X171024333Y-45749237D01*
X172324623Y-45749237D01*
X172334504Y-45761725D01*
X172371482Y-45786434D01*
X172381586Y-45791920D01*
X172562042Y-45869450D01*
X172572985Y-45873005D01*
X172764540Y-45916350D01*
X172775950Y-45917852D01*
X172972204Y-45925563D01*
X172983686Y-45924961D01*
X173178061Y-45896779D01*
X173189244Y-45894094D01*
X173375222Y-45830963D01*
X173385735Y-45826282D01*
X173503795Y-45760164D01*
X173513660Y-45750086D01*
X173510704Y-45742414D01*
X172931312Y-45163022D01*
X172917368Y-45155408D01*
X172915535Y-45155539D01*
X172908920Y-45159790D01*
X172330816Y-45737895D01*
X172324623Y-45749237D01*
X171024333Y-45749237D01*
X171062419Y-45727908D01*
X171222374Y-45594874D01*
X171355408Y-45434919D01*
X171359018Y-45428474D01*
X171429757Y-45302159D01*
X171457064Y-45253399D01*
X171523939Y-45056392D01*
X171524767Y-45050683D01*
X171524768Y-45050678D01*
X171543337Y-44922608D01*
X171572907Y-44858062D01*
X171632679Y-44819750D01*
X171703675Y-44819834D01*
X171763356Y-44858289D01*
X171792772Y-44922905D01*
X171793763Y-44932448D01*
X171795765Y-44962996D01*
X171797566Y-44974366D01*
X171845910Y-45164720D01*
X171849751Y-45175566D01*
X171931978Y-45353930D01*
X171937726Y-45363886D01*
X171947427Y-45377613D01*
X171958015Y-45386002D01*
X171971315Y-45378974D01*
X172546479Y-44803811D01*
X172552856Y-44792132D01*
X173282908Y-44792132D01*
X173283039Y-44793966D01*
X173287290Y-44800580D01*
X173866000Y-45379290D01*
X173878380Y-45386050D01*
X173884960Y-45381124D01*
X173953782Y-45258235D01*
X173958463Y-45247722D01*
X174021594Y-45061744D01*
X174024279Y-45050561D01*
X174052757Y-44854146D01*
X174053387Y-44846763D01*
X174054750Y-44794704D01*
X174054507Y-44787305D01*
X174036348Y-44589671D01*
X174034251Y-44578357D01*
X173980939Y-44389329D01*
X173976817Y-44378590D01*
X173889953Y-44202446D01*
X173888933Y-44200783D01*
X173880159Y-44194198D01*
X173867742Y-44200969D01*
X173290521Y-44778189D01*
X173282908Y-44792132D01*
X172552856Y-44792132D01*
X172554092Y-44789868D01*
X172553961Y-44788034D01*
X172549710Y-44781420D01*
X171969638Y-44201349D01*
X171957263Y-44194592D01*
X171951297Y-44199058D01*
X171871344Y-44351023D01*
X171866939Y-44361657D01*
X171808698Y-44549223D01*
X171806306Y-44560477D01*
X171794010Y-44664363D01*
X171766139Y-44729661D01*
X171707391Y-44769524D01*
X171636416Y-44771298D01*
X171575750Y-44734419D01*
X171544652Y-44670595D01*
X171543412Y-44661082D01*
X171536842Y-44589583D01*
X171536842Y-44589582D01*
X171536313Y-44583826D01*
X171479841Y-44383589D01*
X171469026Y-44361657D01*
X171390378Y-44202177D01*
X171387824Y-44196998D01*
X171263344Y-44030299D01*
X171110570Y-43889076D01*
X171020949Y-43832529D01*
X172324142Y-43832529D01*
X172327629Y-43840918D01*
X172905689Y-44418979D01*
X172919632Y-44426592D01*
X172921466Y-44426461D01*
X172928080Y-44422210D01*
X173325620Y-44024669D01*
X176492001Y-44024669D01*
X176492371Y-44031490D01*
X176497895Y-44082352D01*
X176501521Y-44097604D01*
X176546676Y-44218054D01*
X176555214Y-44233649D01*
X176631715Y-44335724D01*
X176644276Y-44348285D01*
X176746351Y-44424786D01*
X176761946Y-44433324D01*
X176882394Y-44478478D01*
X176897649Y-44482105D01*
X176948514Y-44487631D01*
X176955328Y-44488000D01*
X177527885Y-44488000D01*
X177543124Y-44483525D01*
X177544329Y-44482135D01*
X177546000Y-44474452D01*
X177546000Y-44469884D01*
X178054000Y-44469884D01*
X178058475Y-44485123D01*
X178059865Y-44486328D01*
X178067548Y-44487999D01*
X178644669Y-44487999D01*
X178651490Y-44487629D01*
X178702352Y-44482105D01*
X178717604Y-44478479D01*
X178838054Y-44433324D01*
X178853649Y-44424786D01*
X178955724Y-44348285D01*
X178968285Y-44335724D01*
X179044786Y-44233649D01*
X179053324Y-44218054D01*
X179101252Y-44090207D01*
X179103112Y-44090904D01*
X179133131Y-44038372D01*
X179196090Y-44005558D01*
X179266794Y-44011992D01*
X179309581Y-44040079D01*
X179455700Y-44186198D01*
X179460208Y-44189355D01*
X179460211Y-44189357D01*
X179478520Y-44202177D01*
X179643251Y-44317523D01*
X179648233Y-44319846D01*
X179648238Y-44319849D01*
X179796865Y-44389154D01*
X179850757Y-44414284D01*
X179856065Y-44415706D01*
X179856067Y-44415707D01*
X180066598Y-44472119D01*
X180066600Y-44472119D01*
X180071913Y-44473543D01*
X180300000Y-44493498D01*
X180528087Y-44473543D01*
X180533400Y-44472119D01*
X180533402Y-44472119D01*
X180743933Y-44415707D01*
X180743935Y-44415706D01*
X180749243Y-44414284D01*
X180803135Y-44389154D01*
X180951762Y-44319849D01*
X180951767Y-44319846D01*
X180956749Y-44317523D01*
X181121480Y-44202177D01*
X181139789Y-44189357D01*
X181139792Y-44189355D01*
X181144300Y-44186198D01*
X181306198Y-44024300D01*
X181314125Y-44012980D01*
X181410684Y-43875079D01*
X181437523Y-43836749D01*
X181439846Y-43831767D01*
X181439849Y-43831762D01*
X181531961Y-43634225D01*
X181531961Y-43634224D01*
X181534284Y-43629243D01*
X181582970Y-43447548D01*
X181592119Y-43413402D01*
X181592119Y-43413400D01*
X181593543Y-43408087D01*
X181613498Y-43180000D01*
X181593543Y-42951913D01*
X181585028Y-42920135D01*
X181535707Y-42736067D01*
X181535706Y-42736065D01*
X181534284Y-42730757D01*
X181491500Y-42639006D01*
X181439849Y-42528238D01*
X181439846Y-42528233D01*
X181437523Y-42523251D01*
X181364098Y-42418389D01*
X181309357Y-42340211D01*
X181309355Y-42340208D01*
X181306198Y-42335700D01*
X181144300Y-42173802D01*
X181139792Y-42170645D01*
X181139789Y-42170643D01*
X181061611Y-42115902D01*
X180956749Y-42042477D01*
X180951767Y-42040154D01*
X180951762Y-42040151D01*
X180754225Y-41948039D01*
X180754224Y-41948039D01*
X180749243Y-41945716D01*
X180743935Y-41944294D01*
X180743933Y-41944293D01*
X180533402Y-41887881D01*
X180533400Y-41887881D01*
X180528087Y-41886457D01*
X180300000Y-41866502D01*
X180071913Y-41886457D01*
X180066600Y-41887881D01*
X180066598Y-41887881D01*
X179856067Y-41944293D01*
X179856065Y-41944294D01*
X179850757Y-41945716D01*
X179845776Y-41948039D01*
X179845775Y-41948039D01*
X179648238Y-42040151D01*
X179648233Y-42040154D01*
X179643251Y-42042477D01*
X179538389Y-42115902D01*
X179460211Y-42170643D01*
X179460208Y-42170645D01*
X179455700Y-42173802D01*
X179309580Y-42319922D01*
X179247268Y-42353948D01*
X179176453Y-42348883D01*
X179119617Y-42306336D01*
X179102317Y-42269394D01*
X179101252Y-42269793D01*
X179053324Y-42141946D01*
X179044786Y-42126351D01*
X178968285Y-42024276D01*
X178955724Y-42011715D01*
X178853649Y-41935214D01*
X178838054Y-41926676D01*
X178717606Y-41881522D01*
X178702351Y-41877895D01*
X178651486Y-41872369D01*
X178644672Y-41872000D01*
X178072115Y-41872000D01*
X178056876Y-41876475D01*
X178055671Y-41877865D01*
X178054000Y-41885548D01*
X178054000Y-44469884D01*
X177546000Y-44469884D01*
X177546000Y-43452115D01*
X177541525Y-43436876D01*
X177540135Y-43435671D01*
X177532452Y-43434000D01*
X176510116Y-43434000D01*
X176494877Y-43438475D01*
X176493672Y-43439865D01*
X176492001Y-43447548D01*
X176492001Y-44024669D01*
X173325620Y-44024669D01*
X173505823Y-43844466D01*
X173512580Y-43832091D01*
X173506550Y-43824035D01*
X173439275Y-43781588D01*
X173429027Y-43776367D01*
X173246604Y-43703588D01*
X173235576Y-43700321D01*
X173042948Y-43662005D01*
X173031502Y-43660802D01*
X172835125Y-43658232D01*
X172823645Y-43659135D01*
X172630089Y-43692394D01*
X172618969Y-43695374D01*
X172434706Y-43763352D01*
X172424328Y-43768302D01*
X172333740Y-43822196D01*
X172324142Y-43832529D01*
X171020949Y-43832529D01*
X171019733Y-43831762D01*
X170939499Y-43781138D01*
X170934619Y-43778059D01*
X170741383Y-43700966D01*
X170735723Y-43699840D01*
X170735719Y-43699839D01*
X170543000Y-43661505D01*
X170542998Y-43661505D01*
X170537333Y-43660378D01*
X170531558Y-43660302D01*
X170531554Y-43660302D01*
X170427580Y-43658941D01*
X170329304Y-43657655D01*
X170323607Y-43658634D01*
X170323606Y-43658634D01*
X170129959Y-43691908D01*
X170129958Y-43691908D01*
X170124262Y-43692887D01*
X169929073Y-43764896D01*
X169924112Y-43767848D01*
X169924111Y-43767848D01*
X169755244Y-43868313D01*
X169755241Y-43868315D01*
X169750276Y-43871269D01*
X169593858Y-44008444D01*
X169590283Y-44012979D01*
X169590282Y-44012980D01*
X169476352Y-44157500D01*
X169465057Y-44171827D01*
X169462369Y-44176936D01*
X169370877Y-44350834D01*
X169370875Y-44350839D01*
X169368188Y-44355946D01*
X169346252Y-44426592D01*
X169325626Y-44493019D01*
X169306493Y-44554636D01*
X169293790Y-44661966D01*
X169265920Y-44727264D01*
X169207172Y-44767128D01*
X169136197Y-44768903D01*
X169075530Y-44732023D01*
X169044433Y-44668200D01*
X169043192Y-44658687D01*
X169036842Y-44589582D01*
X169036842Y-44589581D01*
X169036313Y-44583826D01*
X168979841Y-44383589D01*
X168969026Y-44361657D01*
X168890378Y-44202177D01*
X168887824Y-44196998D01*
X168763344Y-44030299D01*
X168610570Y-43889076D01*
X168519733Y-43831762D01*
X168439499Y-43781138D01*
X168434619Y-43778059D01*
X168241383Y-43700966D01*
X168235723Y-43699840D01*
X168235719Y-43699839D01*
X168043000Y-43661505D01*
X168042998Y-43661505D01*
X168037333Y-43660378D01*
X168031558Y-43660302D01*
X168031554Y-43660302D01*
X167927580Y-43658941D01*
X167829304Y-43657655D01*
X167823607Y-43658634D01*
X167823606Y-43658634D01*
X167629959Y-43691908D01*
X167629958Y-43691908D01*
X167624262Y-43692887D01*
X167429073Y-43764896D01*
X167424112Y-43767848D01*
X167424111Y-43767848D01*
X167255244Y-43868313D01*
X167255241Y-43868315D01*
X167250276Y-43871269D01*
X167093858Y-44008444D01*
X167090283Y-44012979D01*
X167090282Y-44012980D01*
X167014187Y-44109506D01*
X166956306Y-44150619D01*
X166915237Y-44157500D01*
X163674974Y-44157500D01*
X163606853Y-44137498D01*
X163560360Y-44083842D01*
X163550256Y-44013568D01*
X163571761Y-43959229D01*
X163630684Y-43875079D01*
X163657523Y-43836749D01*
X163659846Y-43831767D01*
X163659849Y-43831762D01*
X163751961Y-43634225D01*
X163751961Y-43634224D01*
X163754284Y-43629243D01*
X163802970Y-43447548D01*
X163812119Y-43413402D01*
X163812119Y-43413400D01*
X163813543Y-43408087D01*
X163833498Y-43180000D01*
X163813543Y-42951913D01*
X163805028Y-42920135D01*
X163801746Y-42907885D01*
X176492000Y-42907885D01*
X176496475Y-42923124D01*
X176497865Y-42924329D01*
X176505548Y-42926000D01*
X177527885Y-42926000D01*
X177543124Y-42921525D01*
X177544329Y-42920135D01*
X177546000Y-42912452D01*
X177546000Y-41890116D01*
X177541525Y-41874877D01*
X177540135Y-41873672D01*
X177532452Y-41872001D01*
X176955331Y-41872001D01*
X176948510Y-41872371D01*
X176897648Y-41877895D01*
X176882396Y-41881521D01*
X176761946Y-41926676D01*
X176746351Y-41935214D01*
X176644276Y-42011715D01*
X176631715Y-42024276D01*
X176555214Y-42126351D01*
X176546676Y-42141946D01*
X176501522Y-42262394D01*
X176497895Y-42277649D01*
X176492369Y-42328514D01*
X176492000Y-42335328D01*
X176492000Y-42907885D01*
X163801746Y-42907885D01*
X163755707Y-42736067D01*
X163755706Y-42736065D01*
X163754284Y-42730757D01*
X163711500Y-42639006D01*
X163659849Y-42528238D01*
X163659846Y-42528233D01*
X163657523Y-42523251D01*
X163584098Y-42418389D01*
X163529357Y-42340211D01*
X163529355Y-42340208D01*
X163526198Y-42335700D01*
X163364300Y-42173802D01*
X163359792Y-42170645D01*
X163359789Y-42170643D01*
X163281611Y-42115902D01*
X163176749Y-42042477D01*
X163171767Y-42040154D01*
X163171762Y-42040151D01*
X162974225Y-41948039D01*
X162974224Y-41948039D01*
X162969243Y-41945716D01*
X162963935Y-41944294D01*
X162963933Y-41944293D01*
X162753402Y-41887881D01*
X162753400Y-41887881D01*
X162748087Y-41886457D01*
X162520000Y-41866502D01*
X162291913Y-41886457D01*
X162286600Y-41887881D01*
X162286598Y-41887881D01*
X162076067Y-41944293D01*
X162076065Y-41944294D01*
X162070757Y-41945716D01*
X162065776Y-41948039D01*
X162065775Y-41948039D01*
X161868238Y-42040151D01*
X161868233Y-42040154D01*
X161863251Y-42042477D01*
X161758389Y-42115902D01*
X161680211Y-42170643D01*
X161680208Y-42170645D01*
X161675700Y-42173802D01*
X161530000Y-42319502D01*
X161467688Y-42353528D01*
X161396873Y-42348463D01*
X161340037Y-42305916D01*
X161322868Y-42269263D01*
X161321745Y-42269684D01*
X161273767Y-42141703D01*
X161270615Y-42133295D01*
X161183261Y-42016739D01*
X161066705Y-41929385D01*
X160930316Y-41878255D01*
X160868134Y-41871500D01*
X159171866Y-41871500D01*
X159109684Y-41878255D01*
X158973295Y-41929385D01*
X158856739Y-42016739D01*
X158769385Y-42133295D01*
X158718255Y-42269684D01*
X158711500Y-42331866D01*
X158711500Y-44028134D01*
X154178500Y-44028134D01*
X154178500Y-36830000D01*
X155170504Y-36830000D01*
X155190262Y-37131450D01*
X155249198Y-37427742D01*
X155346304Y-37713806D01*
X155479918Y-37984748D01*
X155647754Y-38235932D01*
X155650468Y-38239026D01*
X155650472Y-38239032D01*
X155844231Y-38459971D01*
X155846940Y-38463060D01*
X155850029Y-38465769D01*
X156070968Y-38659528D01*
X156070974Y-38659532D01*
X156074068Y-38662246D01*
X156077494Y-38664535D01*
X156077499Y-38664539D01*
X156266374Y-38790741D01*
X156325252Y-38830082D01*
X156328951Y-38831906D01*
X156328956Y-38831909D01*
X156592499Y-38961874D01*
X156596194Y-38963696D01*
X156600092Y-38965019D01*
X156600094Y-38965020D01*
X156878348Y-39059475D01*
X156878352Y-39059476D01*
X156882258Y-39060802D01*
X156886302Y-39061606D01*
X156886308Y-39061608D01*
X157174507Y-39118934D01*
X157174510Y-39118934D01*
X157178550Y-39119738D01*
X157182661Y-39120007D01*
X157182665Y-39120008D01*
X157475881Y-39139226D01*
X157480000Y-39139496D01*
X157484119Y-39139226D01*
X157777335Y-39120008D01*
X157777339Y-39120007D01*
X157781450Y-39119738D01*
X157785490Y-39118934D01*
X157785493Y-39118934D01*
X158073692Y-39061608D01*
X158073698Y-39061606D01*
X158077742Y-39060802D01*
X158081648Y-39059476D01*
X158081652Y-39059475D01*
X158359906Y-38965020D01*
X158359908Y-38965019D01*
X158363806Y-38963696D01*
X158367501Y-38961874D01*
X158631044Y-38831909D01*
X158631049Y-38831906D01*
X158634748Y-38830082D01*
X158693626Y-38790741D01*
X158882501Y-38664539D01*
X158882506Y-38664535D01*
X158885932Y-38662246D01*
X158889026Y-38659532D01*
X158889032Y-38659528D01*
X159109971Y-38465769D01*
X159113060Y-38463060D01*
X159115769Y-38459971D01*
X159309528Y-38239032D01*
X159309532Y-38239026D01*
X159312246Y-38235932D01*
X159480082Y-37984748D01*
X159613696Y-37713806D01*
X159710802Y-37427742D01*
X159769738Y-37131450D01*
X159789496Y-36830000D01*
X159787479Y-36799231D01*
X159770008Y-36532665D01*
X159770007Y-36532661D01*
X159769738Y-36528550D01*
X159742106Y-36389632D01*
X159735144Y-36354634D01*
X163760000Y-36354634D01*
X163766755Y-36416816D01*
X163817885Y-36553205D01*
X163905239Y-36669761D01*
X164021795Y-36757115D01*
X164158184Y-36808245D01*
X164220366Y-36815000D01*
X165809634Y-36815000D01*
X165871816Y-36808245D01*
X166008205Y-36757115D01*
X166124761Y-36669761D01*
X166162971Y-36618777D01*
X166860777Y-36618777D01*
X166870074Y-36630793D01*
X166913069Y-36660898D01*
X166922555Y-36666376D01*
X167113993Y-36755645D01*
X167124285Y-36759391D01*
X167328309Y-36814059D01*
X167339104Y-36815962D01*
X167549525Y-36834372D01*
X167560475Y-36834372D01*
X167770896Y-36815962D01*
X167781691Y-36814059D01*
X167985715Y-36759391D01*
X167996007Y-36755645D01*
X168187445Y-36666376D01*
X168196931Y-36660898D01*
X168240764Y-36630207D01*
X168249139Y-36619729D01*
X168242071Y-36606281D01*
X167567812Y-35932022D01*
X167553868Y-35924408D01*
X167552035Y-35924539D01*
X167545420Y-35928790D01*
X166867207Y-36607003D01*
X166860777Y-36618777D01*
X166162971Y-36618777D01*
X166212115Y-36553205D01*
X166263245Y-36416816D01*
X166270000Y-36354634D01*
X166270000Y-36336095D01*
X166290002Y-36267974D01*
X166343658Y-36221481D01*
X166413932Y-36211377D01*
X166474673Y-36237674D01*
X166495272Y-36254140D01*
X166508718Y-36247072D01*
X167182978Y-35572812D01*
X167189356Y-35561132D01*
X167919408Y-35561132D01*
X167919539Y-35562965D01*
X167923790Y-35569580D01*
X168602003Y-36247793D01*
X168613777Y-36254223D01*
X168625793Y-36244926D01*
X168655897Y-36201932D01*
X168661377Y-36192441D01*
X168710529Y-36087035D01*
X168757447Y-36033750D01*
X168825724Y-36014289D01*
X168893684Y-36034831D01*
X168938919Y-36087035D01*
X168988186Y-36192689D01*
X168988189Y-36192694D01*
X168990512Y-36197676D01*
X168993668Y-36202183D01*
X168993669Y-36202185D01*
X169107862Y-36365269D01*
X169118023Y-36379781D01*
X169275219Y-36536977D01*
X169279727Y-36540134D01*
X169279730Y-36540136D01*
X169355495Y-36593187D01*
X169457323Y-36664488D01*
X169462305Y-36666811D01*
X169462310Y-36666814D01*
X169644412Y-36751729D01*
X169658804Y-36758440D01*
X169664112Y-36759862D01*
X169664114Y-36759863D01*
X169665622Y-36760267D01*
X169873537Y-36815978D01*
X170095000Y-36835353D01*
X170156187Y-36830000D01*
X181840504Y-36830000D01*
X181860262Y-37131450D01*
X181919198Y-37427742D01*
X182016304Y-37713806D01*
X182149918Y-37984748D01*
X182317754Y-38235932D01*
X182320468Y-38239026D01*
X182320472Y-38239032D01*
X182514231Y-38459971D01*
X182516940Y-38463060D01*
X182520029Y-38465769D01*
X182740968Y-38659528D01*
X182740974Y-38659532D01*
X182744068Y-38662246D01*
X182747494Y-38664535D01*
X182747499Y-38664539D01*
X182936374Y-38790741D01*
X182995252Y-38830082D01*
X182998951Y-38831906D01*
X182998956Y-38831909D01*
X183262499Y-38961874D01*
X183266194Y-38963696D01*
X183270092Y-38965019D01*
X183270094Y-38965020D01*
X183548348Y-39059475D01*
X183548352Y-39059476D01*
X183552258Y-39060802D01*
X183556302Y-39061606D01*
X183556308Y-39061608D01*
X183844507Y-39118934D01*
X183844510Y-39118934D01*
X183848550Y-39119738D01*
X183852661Y-39120007D01*
X183852665Y-39120008D01*
X184145881Y-39139226D01*
X184150000Y-39139496D01*
X184154119Y-39139226D01*
X184447335Y-39120008D01*
X184447339Y-39120007D01*
X184451450Y-39119738D01*
X184455490Y-39118934D01*
X184455493Y-39118934D01*
X184743692Y-39061608D01*
X184743698Y-39061606D01*
X184747742Y-39060802D01*
X184751648Y-39059476D01*
X184751652Y-39059475D01*
X185029906Y-38965020D01*
X185029908Y-38965019D01*
X185033806Y-38963696D01*
X185037501Y-38961874D01*
X185301044Y-38831909D01*
X185301049Y-38831906D01*
X185304748Y-38830082D01*
X185363626Y-38790741D01*
X185552501Y-38664539D01*
X185552506Y-38664535D01*
X185555932Y-38662246D01*
X185559026Y-38659532D01*
X185559032Y-38659528D01*
X185779971Y-38465769D01*
X185783060Y-38463060D01*
X185785769Y-38459971D01*
X185979528Y-38239032D01*
X185979532Y-38239026D01*
X185982246Y-38235932D01*
X186150082Y-37984748D01*
X186283696Y-37713806D01*
X186380802Y-37427742D01*
X186439738Y-37131450D01*
X186459496Y-36830000D01*
X186457479Y-36799231D01*
X186440008Y-36532665D01*
X186440007Y-36532661D01*
X186439738Y-36528550D01*
X186412106Y-36389632D01*
X186381608Y-36236308D01*
X186381606Y-36236302D01*
X186380802Y-36232258D01*
X186366423Y-36189897D01*
X186285020Y-35950094D01*
X186285019Y-35950092D01*
X186283696Y-35946194D01*
X186273017Y-35924539D01*
X186151909Y-35678956D01*
X186151906Y-35678951D01*
X186150082Y-35675252D01*
X185982246Y-35424068D01*
X185979532Y-35420974D01*
X185979528Y-35420968D01*
X185785769Y-35200029D01*
X185783060Y-35196940D01*
X185705732Y-35129125D01*
X185559032Y-35000472D01*
X185559026Y-35000468D01*
X185555932Y-34997754D01*
X185552506Y-34995465D01*
X185552501Y-34995461D01*
X185308181Y-34832212D01*
X185304748Y-34829918D01*
X185301049Y-34828094D01*
X185301044Y-34828091D01*
X185037501Y-34698126D01*
X185037499Y-34698125D01*
X185033806Y-34696304D01*
X185029906Y-34694980D01*
X184751652Y-34600525D01*
X184751648Y-34600524D01*
X184747742Y-34599198D01*
X184743698Y-34598394D01*
X184743692Y-34598392D01*
X184455493Y-34541066D01*
X184455490Y-34541066D01*
X184451450Y-34540262D01*
X184447339Y-34539993D01*
X184447335Y-34539992D01*
X184154119Y-34520774D01*
X184150000Y-34520504D01*
X184145881Y-34520774D01*
X183852665Y-34539992D01*
X183852661Y-34539993D01*
X183848550Y-34540262D01*
X183844510Y-34541066D01*
X183844507Y-34541066D01*
X183556308Y-34598392D01*
X183556302Y-34598394D01*
X183552258Y-34599198D01*
X183548352Y-34600524D01*
X183548348Y-34600525D01*
X183270094Y-34694980D01*
X183266194Y-34696304D01*
X183262501Y-34698125D01*
X183262499Y-34698126D01*
X182998956Y-34828091D01*
X182998951Y-34828094D01*
X182995252Y-34829918D01*
X182991819Y-34832212D01*
X182747499Y-34995461D01*
X182747494Y-34995465D01*
X182744068Y-34997754D01*
X182740974Y-35000468D01*
X182740968Y-35000472D01*
X182594268Y-35129125D01*
X182516940Y-35196940D01*
X182514231Y-35200029D01*
X182320472Y-35420968D01*
X182320468Y-35420974D01*
X182317754Y-35424068D01*
X182149918Y-35675252D01*
X182148094Y-35678951D01*
X182148091Y-35678956D01*
X182026983Y-35924539D01*
X182016304Y-35946194D01*
X182014981Y-35950092D01*
X182014980Y-35950094D01*
X181933578Y-36189897D01*
X181919198Y-36232258D01*
X181918394Y-36236302D01*
X181918392Y-36236308D01*
X181887894Y-36389632D01*
X181860262Y-36528550D01*
X181859993Y-36532661D01*
X181859992Y-36532665D01*
X181842521Y-36799231D01*
X181840504Y-36830000D01*
X170156187Y-36830000D01*
X170316463Y-36815978D01*
X170524378Y-36760267D01*
X170525886Y-36759863D01*
X170525888Y-36759862D01*
X170531196Y-36758440D01*
X170545588Y-36751729D01*
X170727690Y-36666814D01*
X170727695Y-36666811D01*
X170732677Y-36664488D01*
X170834505Y-36593187D01*
X170910270Y-36540136D01*
X170910273Y-36540134D01*
X170914781Y-36536977D01*
X171071977Y-36379781D01*
X171082139Y-36365269D01*
X171196331Y-36202185D01*
X171196332Y-36202183D01*
X171199488Y-36197676D01*
X171201811Y-36192694D01*
X171201814Y-36192689D01*
X171291117Y-36001178D01*
X171291118Y-36001177D01*
X171293440Y-35996196D01*
X171350978Y-35781463D01*
X171370353Y-35560000D01*
X172900206Y-35560000D01*
X172919345Y-35778761D01*
X172920769Y-35784074D01*
X172920769Y-35784076D01*
X172963219Y-35942499D01*
X172976181Y-35990875D01*
X172978504Y-35995856D01*
X172978504Y-35995857D01*
X173066660Y-36184910D01*
X173066663Y-36184915D01*
X173068986Y-36189897D01*
X173113970Y-36254140D01*
X173184337Y-36354634D01*
X173194942Y-36369780D01*
X173350220Y-36525058D01*
X173354728Y-36528215D01*
X173354731Y-36528217D01*
X173429413Y-36580510D01*
X173530103Y-36651014D01*
X173535085Y-36653337D01*
X173535090Y-36653340D01*
X173724143Y-36741496D01*
X173729125Y-36743819D01*
X173734433Y-36745241D01*
X173734435Y-36745242D01*
X173935924Y-36799231D01*
X173935926Y-36799231D01*
X173941239Y-36800655D01*
X174160000Y-36819794D01*
X174378761Y-36800655D01*
X174384074Y-36799231D01*
X174384076Y-36799231D01*
X174585565Y-36745242D01*
X174585567Y-36745241D01*
X174590875Y-36743819D01*
X174595857Y-36741496D01*
X174784910Y-36653340D01*
X174784915Y-36653337D01*
X174789897Y-36651014D01*
X174890587Y-36580510D01*
X174965269Y-36528217D01*
X174965272Y-36528215D01*
X174969780Y-36525058D01*
X175125058Y-36369780D01*
X175135664Y-36354634D01*
X175206030Y-36254140D01*
X175251014Y-36189897D01*
X175253337Y-36184915D01*
X175253340Y-36184910D01*
X175264805Y-36160322D01*
X175311722Y-36107037D01*
X175379999Y-36087576D01*
X175447959Y-36108118D01*
X175494025Y-36162140D01*
X175505000Y-36213572D01*
X175505000Y-36354634D01*
X175511755Y-36416816D01*
X175562885Y-36553205D01*
X175650239Y-36669761D01*
X175766795Y-36757115D01*
X175903184Y-36808245D01*
X175965366Y-36815000D01*
X177554634Y-36815000D01*
X177616816Y-36808245D01*
X177753205Y-36757115D01*
X177869761Y-36669761D01*
X177957115Y-36553205D01*
X178008245Y-36416816D01*
X178015000Y-36354634D01*
X178015000Y-34765366D01*
X178008245Y-34703184D01*
X177957115Y-34566795D01*
X177869761Y-34450239D01*
X177753205Y-34362885D01*
X177616816Y-34311755D01*
X177554634Y-34305000D01*
X175965366Y-34305000D01*
X175903184Y-34311755D01*
X175766795Y-34362885D01*
X175650239Y-34450239D01*
X175562885Y-34566795D01*
X175511755Y-34703184D01*
X175505000Y-34765366D01*
X175505000Y-34906428D01*
X175484998Y-34974549D01*
X175431342Y-35021042D01*
X175361068Y-35031146D01*
X175296488Y-35001652D01*
X175264805Y-34959678D01*
X175253340Y-34935090D01*
X175253337Y-34935085D01*
X175251014Y-34930103D01*
X175179584Y-34828091D01*
X175128217Y-34754731D01*
X175128215Y-34754728D01*
X175125058Y-34750220D01*
X174969780Y-34594942D01*
X174958324Y-34586920D01*
X174890587Y-34539490D01*
X174789897Y-34468986D01*
X174784915Y-34466663D01*
X174784910Y-34466660D01*
X174595857Y-34378504D01*
X174595856Y-34378504D01*
X174590875Y-34376181D01*
X174585567Y-34374759D01*
X174585565Y-34374758D01*
X174384076Y-34320769D01*
X174384074Y-34320769D01*
X174378761Y-34319345D01*
X174160000Y-34300206D01*
X173941239Y-34319345D01*
X173935926Y-34320769D01*
X173935924Y-34320769D01*
X173734435Y-34374758D01*
X173734433Y-34374759D01*
X173729125Y-34376181D01*
X173724144Y-34378504D01*
X173724143Y-34378504D01*
X173535090Y-34466660D01*
X173535085Y-34466663D01*
X173530103Y-34468986D01*
X173429413Y-34539490D01*
X173361677Y-34586920D01*
X173350220Y-34594942D01*
X173194942Y-34750220D01*
X173191785Y-34754728D01*
X173191783Y-34754731D01*
X173140416Y-34828091D01*
X173068986Y-34930103D01*
X173066663Y-34935085D01*
X173066660Y-34935090D01*
X173021869Y-35031146D01*
X172976181Y-35129125D01*
X172974759Y-35134433D01*
X172974758Y-35134435D01*
X172920769Y-35335924D01*
X172919345Y-35341239D01*
X172900206Y-35560000D01*
X171370353Y-35560000D01*
X171350978Y-35338537D01*
X171293440Y-35123804D01*
X171245521Y-35021042D01*
X171201814Y-34927311D01*
X171201811Y-34927306D01*
X171199488Y-34922324D01*
X171188358Y-34906428D01*
X171075136Y-34744730D01*
X171075134Y-34744727D01*
X171071977Y-34740219D01*
X170914781Y-34583023D01*
X170910273Y-34579866D01*
X170910270Y-34579864D01*
X170825495Y-34520504D01*
X170732677Y-34455512D01*
X170727695Y-34453189D01*
X170727690Y-34453186D01*
X170536178Y-34363883D01*
X170536177Y-34363882D01*
X170531196Y-34361560D01*
X170525888Y-34360138D01*
X170525886Y-34360137D01*
X170460051Y-34342497D01*
X170316463Y-34304022D01*
X170095000Y-34284647D01*
X169873537Y-34304022D01*
X169729949Y-34342497D01*
X169664114Y-34360137D01*
X169664112Y-34360138D01*
X169658804Y-34361560D01*
X169653823Y-34363882D01*
X169653822Y-34363883D01*
X169462311Y-34453186D01*
X169462306Y-34453189D01*
X169457324Y-34455512D01*
X169452817Y-34458668D01*
X169452815Y-34458669D01*
X169279730Y-34579864D01*
X169279727Y-34579866D01*
X169275219Y-34583023D01*
X169118023Y-34740219D01*
X169114866Y-34744727D01*
X169114864Y-34744730D01*
X169001642Y-34906428D01*
X168990512Y-34922324D01*
X168988189Y-34927306D01*
X168988186Y-34927311D01*
X168938919Y-35032965D01*
X168892001Y-35086250D01*
X168823724Y-35105711D01*
X168755764Y-35085169D01*
X168710529Y-35032965D01*
X168661377Y-34927559D01*
X168655897Y-34918068D01*
X168625206Y-34874235D01*
X168614729Y-34865860D01*
X168601282Y-34872928D01*
X167927022Y-35547188D01*
X167919408Y-35561132D01*
X167189356Y-35561132D01*
X167190592Y-35558868D01*
X167190461Y-35557035D01*
X167186210Y-35550420D01*
X166507997Y-34872207D01*
X166496223Y-34865777D01*
X166473101Y-34883666D01*
X166406983Y-34909529D01*
X166337378Y-34895541D01*
X166286385Y-34846143D01*
X166270000Y-34784009D01*
X166270000Y-34765366D01*
X166263245Y-34703184D01*
X166212115Y-34566795D01*
X166162258Y-34500271D01*
X166860860Y-34500271D01*
X166867928Y-34513718D01*
X167542188Y-35187978D01*
X167556132Y-35195592D01*
X167557965Y-35195461D01*
X167564580Y-35191210D01*
X168242793Y-34512997D01*
X168249223Y-34501223D01*
X168239926Y-34489207D01*
X168196931Y-34459102D01*
X168187445Y-34453624D01*
X167996007Y-34364355D01*
X167985715Y-34360609D01*
X167781691Y-34305941D01*
X167770896Y-34304038D01*
X167560475Y-34285628D01*
X167549525Y-34285628D01*
X167339104Y-34304038D01*
X167328309Y-34305941D01*
X167124285Y-34360609D01*
X167113993Y-34364355D01*
X166922559Y-34453623D01*
X166913068Y-34459103D01*
X166869235Y-34489794D01*
X166860860Y-34500271D01*
X166162258Y-34500271D01*
X166124761Y-34450239D01*
X166008205Y-34362885D01*
X165871816Y-34311755D01*
X165809634Y-34305000D01*
X164220366Y-34305000D01*
X164158184Y-34311755D01*
X164021795Y-34362885D01*
X163905239Y-34450239D01*
X163817885Y-34566795D01*
X163766755Y-34703184D01*
X163760000Y-34765366D01*
X163760000Y-36354634D01*
X159735144Y-36354634D01*
X159711608Y-36236308D01*
X159711606Y-36236302D01*
X159710802Y-36232258D01*
X159696423Y-36189897D01*
X159615020Y-35950094D01*
X159615019Y-35950092D01*
X159613696Y-35946194D01*
X159603017Y-35924539D01*
X159481909Y-35678956D01*
X159481906Y-35678951D01*
X159480082Y-35675252D01*
X159312246Y-35424068D01*
X159309532Y-35420974D01*
X159309528Y-35420968D01*
X159115769Y-35200029D01*
X159113060Y-35196940D01*
X159035732Y-35129125D01*
X158889032Y-35000472D01*
X158889026Y-35000468D01*
X158885932Y-34997754D01*
X158882506Y-34995465D01*
X158882501Y-34995461D01*
X158638181Y-34832212D01*
X158634748Y-34829918D01*
X158631049Y-34828094D01*
X158631044Y-34828091D01*
X158367501Y-34698126D01*
X158367499Y-34698125D01*
X158363806Y-34696304D01*
X158359906Y-34694980D01*
X158081652Y-34600525D01*
X158081648Y-34600524D01*
X158077742Y-34599198D01*
X158073698Y-34598394D01*
X158073692Y-34598392D01*
X157785493Y-34541066D01*
X157785490Y-34541066D01*
X157781450Y-34540262D01*
X157777339Y-34539993D01*
X157777335Y-34539992D01*
X157484119Y-34520774D01*
X157480000Y-34520504D01*
X157475881Y-34520774D01*
X157182665Y-34539992D01*
X157182661Y-34539993D01*
X157178550Y-34540262D01*
X157174510Y-34541066D01*
X157174507Y-34541066D01*
X156886308Y-34598392D01*
X156886302Y-34598394D01*
X156882258Y-34599198D01*
X156878352Y-34600524D01*
X156878348Y-34600525D01*
X156600094Y-34694980D01*
X156596194Y-34696304D01*
X156592501Y-34698125D01*
X156592499Y-34698126D01*
X156328956Y-34828091D01*
X156328951Y-34828094D01*
X156325252Y-34829918D01*
X156321819Y-34832212D01*
X156077499Y-34995461D01*
X156077494Y-34995465D01*
X156074068Y-34997754D01*
X156070974Y-35000468D01*
X156070968Y-35000472D01*
X155924268Y-35129125D01*
X155846940Y-35196940D01*
X155844231Y-35200029D01*
X155650472Y-35420968D01*
X155650468Y-35420974D01*
X155647754Y-35424068D01*
X155479918Y-35675252D01*
X155478094Y-35678951D01*
X155478091Y-35678956D01*
X155356983Y-35924539D01*
X155346304Y-35946194D01*
X155344981Y-35950092D01*
X155344980Y-35950094D01*
X155263578Y-36189897D01*
X155249198Y-36232258D01*
X155248394Y-36236302D01*
X155248392Y-36236308D01*
X155217894Y-36389632D01*
X155190262Y-36528550D01*
X155189993Y-36532661D01*
X155189992Y-36532665D01*
X155172521Y-36799231D01*
X155170504Y-36830000D01*
X154178500Y-36830000D01*
X154178500Y-33654500D01*
X154198502Y-33586379D01*
X154252158Y-33539886D01*
X154304500Y-33528500D01*
X187325500Y-33528500D01*
X187393621Y-33548502D01*
G37*
%TD.AperFunction*%
%TD*%
M02*
