%TF.GenerationSoftware,KiCad,Pcbnew,6.0.11+dfsg-1*%
%TF.CreationDate,2025-03-15T00:27:26-04:00*%
%TF.ProjectId,quadcopter,71756164-636f-4707-9465-722e6b696361,rev?*%
%TF.SameCoordinates,Original*%
%TF.FileFunction,Soldermask,Top*%
%TF.FilePolarity,Negative*%
%FSLAX46Y46*%
G04 Gerber Fmt 4.6, Leading zero omitted, Abs format (unit mm)*
G04 Created by KiCad (PCBNEW 6.0.11+dfsg-1) date 2025-03-15 00:27:26*
%MOMM*%
%LPD*%
G01*
G04 APERTURE LIST*
G04 Aperture macros list*
%AMRoundRect*
0 Rectangle with rounded corners*
0 $1 Rounding radius*
0 $2 $3 $4 $5 $6 $7 $8 $9 X,Y pos of 4 corners*
0 Add a 4 corners polygon primitive as box body*
4,1,4,$2,$3,$4,$5,$6,$7,$8,$9,$2,$3,0*
0 Add four circle primitives for the rounded corners*
1,1,$1+$1,$2,$3*
1,1,$1+$1,$4,$5*
1,1,$1+$1,$6,$7*
1,1,$1+$1,$8,$9*
0 Add four rect primitives between the rounded corners*
20,1,$1+$1,$2,$3,$4,$5,0*
20,1,$1+$1,$4,$5,$6,$7,0*
20,1,$1+$1,$6,$7,$8,$9,0*
20,1,$1+$1,$8,$9,$2,$3,0*%
%AMFreePoly0*
4,1,48,0.657385,0.758754,0.662055,0.759085,0.664566,0.757713,0.671070,0.756770,0.697342,0.739806,0.724803,0.724803,1.359803,0.089802,1.381610,0.060599,1.383542,0.051625,1.389035,0.044269,1.390951,0.017212,1.396659,-0.009302,1.393437,-0.017898,1.394085,-0.027054,1.381082,-0.050854,1.371560,-0.076254,1.364204,-0.081747,1.359803,-0.089802,0.724803,-0.724803,0.706679,-0.738336,
0.703611,-0.741872,0.700866,-0.742677,0.695599,-0.746610,0.665023,-0.753192,0.635000,-0.762000,0.000000,-0.762000,-0.006861,-0.761005,-0.015958,-0.761833,-0.184344,-0.739365,-0.343569,-0.680150,-0.485717,-0.587131,-0.603725,-0.464931,-0.691726,-0.319622,-0.745348,-0.158429,-0.761926,0.010639,-0.740634,0.179178,-0.682532,0.338812,-0.590508,0.481606,-0.469134,0.600464,-0.324444,0.689478,
-0.163628,0.744224,-0.021304,0.759183,-0.017894,0.760733,-0.013128,0.760042,-0.003071,0.761099,0.000000,0.762000,0.635000,0.762000,0.657385,0.758754,0.657385,0.758754,$1*%
%AMFreePoly1*
4,1,49,0.002312,0.761665,0.005320,0.761981,0.174003,0.741867,0.334039,0.684881,0.477472,0.593856,0.597174,0.473315,0.687196,0.329249,0.743064,0.168820,0.762000,0.000000,0.761703,-0.021276,0.738060,-0.189502,0.677735,-0.348309,0.583726,-0.489804,0.460705,-0.606956,0.314786,-0.693941,0.153221,-0.746436,0.023340,-0.758256,0.017894,-0.760733,0.009500,-0.759516,0.008003,-0.759652,
0.000000,-0.762000,-0.635000,-0.762000,-0.657384,-0.758754,-0.662054,-0.759085,-0.664565,-0.757713,-0.671070,-0.756770,-0.697347,-0.739803,-0.724802,-0.724803,-1.359803,-0.089803,-1.381610,-0.060599,-1.383542,-0.051624,-1.389035,-0.044268,-1.390951,-0.017209,-1.396658,0.009301,-1.393436,0.017895,-1.394085,0.027055,-1.381079,0.050860,-1.371560,0.076254,-1.364205,0.081746,-1.359803,0.089803,
-0.724802,0.724803,-0.706680,0.738336,-0.703611,0.741872,-0.700865,0.742678,-0.695599,0.746610,-0.665018,0.753194,-0.635000,0.762000,0.000000,0.762000,0.002312,0.761665,0.002312,0.761665,$1*%
%AMFreePoly2*
4,1,20,0.635000,0.000000,0.634861,-0.013298,0.613363,-0.164350,0.556455,-0.305914,0.467422,-0.429816,0.351404,-0.528905,0.215099,-0.597459,0.066376,-0.631521,-0.086179,-0.629125,-0.233759,-0.590408,-0.367844,-0.517606,-0.480692,-0.414922,-0.565789,-0.288284,-0.618223,-0.145003,-0.634231,0.000000,-0.635000,0.000000,-0.635000,1.905000,0.000000,1.270000,0.635000,1.905000,0.635000,0.000000,
0.635000,0.000000,$1*%
%AMFreePoly3*
4,1,20,0.635000,1.270000,0.635000,0.000000,0.634861,-0.013298,0.613363,-0.164350,0.556455,-0.305914,0.467422,-0.429816,0.351404,-0.528905,0.215099,-0.597459,0.066376,-0.631521,-0.086179,-0.629125,-0.233759,-0.590408,-0.367844,-0.517606,-0.480692,-0.414922,-0.565789,-0.288284,-0.618223,-0.145003,-0.634231,0.000000,-0.635000,0.000000,-0.635000,1.270000,0.000000,1.905000,0.635000,1.270000,
0.635000,1.270000,$1*%
G04 Aperture macros list end*
%ADD10R,1.880000X1.100000*%
%ADD11R,1.600000X1.600000*%
%ADD12C,1.600000*%
%ADD13RoundRect,0.250000X-0.262500X-0.450000X0.262500X-0.450000X0.262500X0.450000X-0.262500X0.450000X0*%
%ADD14RoundRect,0.200000X-0.200000X-0.275000X0.200000X-0.275000X0.200000X0.275000X-0.200000X0.275000X0*%
%ADD15C,1.247000*%
%ADD16RoundRect,0.200000X0.200000X0.275000X-0.200000X0.275000X-0.200000X-0.275000X0.200000X-0.275000X0*%
%ADD17R,1.493000X1.493000*%
%ADD18C,1.493000*%
%ADD19R,1.300000X0.600000*%
%ADD20RoundRect,0.250000X0.262500X0.450000X-0.262500X0.450000X-0.262500X-0.450000X0.262500X-0.450000X0*%
%ADD21C,1.524000*%
%ADD22FreePoly0,0.000000*%
%ADD23RoundRect,0.381000X-0.381000X-0.381000X0.381000X-0.381000X0.381000X0.381000X-0.381000X0.381000X0*%
%ADD24FreePoly1,0.000000*%
%ADD25FreePoly2,90.000000*%
%ADD26FreePoly3,90.000000*%
%ADD27O,1.600000X1.600000*%
%ADD28RoundRect,0.237500X-0.300000X-0.237500X0.300000X-0.237500X0.300000X0.237500X-0.300000X0.237500X0*%
G04 APERTURE END LIST*
D10*
%TO.C,D1*%
X160020000Y-54145000D03*
X160020000Y-49995000D03*
%TD*%
D11*
%TO.C,C1*%
X160020000Y-43180000D03*
D12*
X162520000Y-43180000D03*
%TD*%
D13*
%TO.C,R5*%
X162917500Y-53965000D03*
X164742500Y-53965000D03*
%TD*%
D14*
%TO.C,R1*%
X166815000Y-50800000D03*
X168465000Y-50800000D03*
%TD*%
D15*
%TO.C,U13*%
X167918500Y-44791000D03*
X170418500Y-44791000D03*
X172918500Y-44791000D03*
%TD*%
D16*
%TO.C,R4*%
X169290000Y-102870000D03*
X167640000Y-102870000D03*
%TD*%
D14*
%TO.C,R11*%
X172340000Y-52070000D03*
X173990000Y-52070000D03*
%TD*%
D17*
%TO.C,U7*%
X156210000Y-53340000D03*
D18*
X156210000Y-50740000D03*
%TD*%
D17*
%TO.C,U12*%
X184150000Y-105410000D03*
D18*
X184150000Y-102810000D03*
%TD*%
D19*
%TO.C,U9*%
X176600000Y-48580000D03*
X176600000Y-50480000D03*
X179000000Y-49530000D03*
%TD*%
%TO.C,U10*%
X175030000Y-101920000D03*
X175030000Y-103820000D03*
X177430000Y-102870000D03*
%TD*%
D20*
%TO.C,R8*%
X164882064Y-105945000D03*
X163057064Y-105945000D03*
%TD*%
D13*
%TO.C,R6*%
X162917500Y-56505000D03*
X164742500Y-56505000D03*
%TD*%
D17*
%TO.C,U8*%
X156210000Y-105410000D03*
D18*
X156210000Y-102810000D03*
%TD*%
D20*
%TO.C,R16*%
X178355000Y-54070000D03*
X176530000Y-54070000D03*
%TD*%
D14*
%TO.C,R13*%
X172457742Y-50052500D03*
X174107742Y-50052500D03*
%TD*%
D17*
%TO.C,U4*%
X176760000Y-35560000D03*
D18*
X174160000Y-35560000D03*
%TD*%
D21*
%TO.C,U3*%
X160479759Y-59665000D03*
D22*
X160479759Y-62205000D03*
D21*
X160479759Y-64745000D03*
D23*
X160479759Y-67285000D03*
D21*
X160479759Y-69825000D03*
X160479759Y-72365000D03*
X160479759Y-74905000D03*
X160479759Y-77445000D03*
X160479759Y-79985000D03*
X160479759Y-82525000D03*
X160479759Y-85065000D03*
X160479759Y-87605000D03*
X160479759Y-90145000D03*
X160479759Y-92685000D03*
X160479759Y-95225000D03*
X160479759Y-97765000D03*
X180799759Y-97765000D03*
X180799759Y-95225000D03*
X180799759Y-92685000D03*
X180799759Y-90145000D03*
X180799759Y-87605000D03*
X180799759Y-85065000D03*
X180799759Y-82525000D03*
X180799759Y-79985000D03*
X180799759Y-77445000D03*
D24*
X180799759Y-74905000D03*
D21*
X180799759Y-72365000D03*
D24*
X180799759Y-69825000D03*
D25*
X180799759Y-104115000D03*
D26*
X180799759Y-101575000D03*
%TD*%
D13*
%TO.C,R18*%
X175908708Y-107320000D03*
X177733708Y-107320000D03*
%TD*%
D14*
%TO.C,R2*%
X167640000Y-100330000D03*
X169290000Y-100330000D03*
%TD*%
D16*
%TO.C,R12*%
X173545000Y-95250000D03*
X171895000Y-95250000D03*
%TD*%
D17*
%TO.C,U2*%
X165015000Y-35560000D03*
D21*
X167555000Y-35560000D03*
X170095000Y-35560000D03*
%TD*%
D13*
%TO.C,R19*%
X175975000Y-109280000D03*
X177800000Y-109280000D03*
%TD*%
D12*
%TO.C,R10*%
X156210000Y-86690000D03*
D27*
X156210000Y-99390000D03*
%TD*%
D20*
%TO.C,R15*%
X178355000Y-56505000D03*
X176530000Y-56505000D03*
%TD*%
D17*
%TO.C,U1*%
X162716750Y-114280000D03*
D18*
X165316750Y-114280000D03*
X167916750Y-114280000D03*
X170336750Y-114280000D03*
X172876750Y-114280000D03*
D21*
X175416750Y-114280000D03*
X177956750Y-114280000D03*
X180496750Y-114280000D03*
%TD*%
D12*
%TO.C,R20*%
X184150000Y-86330000D03*
D27*
X184150000Y-99030000D03*
%TD*%
D12*
%TO.C,R7*%
X156210000Y-69050000D03*
D27*
X156210000Y-56350000D03*
%TD*%
D10*
%TO.C,D4*%
X181325810Y-111270000D03*
X181325810Y-107120000D03*
%TD*%
D12*
%TO.C,R17*%
X184150000Y-69850000D03*
D27*
X184150000Y-57150000D03*
%TD*%
D14*
%TO.C,R3*%
X166815000Y-53340000D03*
X168465000Y-53340000D03*
%TD*%
D19*
%TO.C,U6*%
X165030000Y-102550000D03*
X165030000Y-100650000D03*
X162630000Y-101600000D03*
%TD*%
D14*
%TO.C,R14*%
X171895000Y-97790000D03*
X173545000Y-97790000D03*
%TD*%
D10*
%TO.C,D2*%
X160020000Y-106215000D03*
X160020000Y-102065000D03*
%TD*%
D20*
%TO.C,R9*%
X164742500Y-107950000D03*
X162917500Y-107950000D03*
%TD*%
D28*
%TO.C,C4*%
X166777500Y-40640000D03*
X168502500Y-40640000D03*
%TD*%
D17*
%TO.C,U11*%
X185420000Y-53340000D03*
D18*
X185420000Y-50740000D03*
%TD*%
D11*
%TO.C,C2*%
X177800000Y-43180000D03*
D12*
X180300000Y-43180000D03*
%TD*%
D28*
%TO.C,C3*%
X171857500Y-40640000D03*
X173582500Y-40640000D03*
%TD*%
D19*
%TO.C,U5*%
X165030000Y-50480000D03*
X165030000Y-48580000D03*
X162630000Y-49530000D03*
%TD*%
D10*
%TO.C,D3*%
X181325810Y-54145000D03*
X181325810Y-49995000D03*
%TD*%
M02*
