M48
; DRILL file {KiCad 6.0.11+dfsg-1} date Sat 15 Mar 2025 12:27:30 AM EDT
; FORMAT={-:-/ absolute / inch / decimal}
; #@! TF.CreationDate,2025-03-15T00:27:30-04:00
; #@! TF.GenerationSoftware,Kicad,Pcbnew,6.0.11+dfsg-1
; #@! TF.FileFunction,Plated,1,2,PTH
FMAT,2
INCH
; #@! TA.AperFunction,Plated,PTH,ViaDrill
T1C0.0157
; #@! TA.AperFunction,Plated,PTH,ComponentDrill
T2C0.0268
; #@! TA.AperFunction,Plated,PTH,ComponentDrill
T3C0.0300
; #@! TA.AperFunction,Plated,PTH,ComponentDrill
T4C0.0315
; #@! TA.AperFunction,Plated,PTH,ComponentDrill
T5C0.0378
%
G90
G05
T1
X6.4Y-2.2
X6.45Y-2.55
X6.45Y-3.25
X6.4529Y-2.7529
X6.4539Y-3.1461
X6.55Y-2.2
X6.55Y-4.15
X6.55Y-4.3
X6.6Y-3.4
X6.6Y-3.85
X6.7Y-2.5
X6.8Y-3.55
X6.9Y-4.25
X7.05Y-2.2
T2
X6.611Y-1.7634
X6.7094Y-1.7634
X6.8078Y-1.7634
T3
X6.3181Y-2.349
X6.3181Y-2.449
X6.3181Y-2.549
X6.3181Y-2.649
X6.3181Y-2.749
X6.3181Y-2.849
X6.3181Y-2.949
X6.3181Y-3.049
X6.3181Y-3.149
X6.3181Y-3.249
X6.3181Y-3.349
X6.3181Y-3.449
X6.3181Y-3.549
X6.3181Y-3.649
X6.3181Y-3.749
X6.3181Y-3.849
X6.5967Y-1.4
X6.6967Y-1.4
X6.9062Y-4.4992
X7.0062Y-4.4992
X7.1062Y-4.4992
X7.1181Y-2.749
X7.1181Y-2.849
X7.1181Y-2.949
X7.1181Y-3.049
X7.1181Y-3.149
X7.1181Y-3.249
X7.1181Y-3.349
X7.1181Y-3.449
X7.1181Y-3.549
X7.1181Y-3.649
X7.1181Y-3.749
X7.1181Y-3.849
X7.1181Y-3.999
X7.1181Y-4.099
T4
X6.15Y-2.2185
X6.15Y-2.7185
X6.15Y-3.413
X6.15Y-3.913
X6.3Y-1.7
X6.3984Y-1.7
X7.0Y-1.7
X7.0984Y-1.7
X7.25Y-2.25
X7.25Y-2.75
X7.25Y-3.3988
X7.25Y-3.8988
T5
X6.15Y-1.9976
X6.15Y-2.1
X6.15Y-4.0476
X6.15Y-4.15
X6.4062Y-4.4992
X6.4967Y-1.4
X6.5085Y-4.4992
X6.6109Y-4.4992
X6.7062Y-4.4992
X6.8062Y-4.4992
X6.8567Y-1.4
X6.9591Y-1.4
X7.25Y-4.0476
X7.25Y-4.15
X7.3Y-1.9976
X7.3Y-2.1
T0
M30
