%TF.GenerationSoftware,KiCad,Pcbnew,6.0.11+dfsg-1*%
%TF.CreationDate,2025-03-14T20:35:24-04:00*%
%TF.ProjectId,quadcopter,71756164-636f-4707-9465-722e6b696361,rev?*%
%TF.SameCoordinates,Original*%
%TF.FileFunction,Legend,Top*%
%TF.FilePolarity,Positive*%
%FSLAX46Y46*%
G04 Gerber Fmt 4.6, Leading zero omitted, Abs format (unit mm)*
G04 Created by KiCad (PCBNEW 6.0.11+dfsg-1) date 2025-03-14 20:35:24*
%MOMM*%
%LPD*%
G01*
G04 APERTURE LIST*
%ADD10C,0.254000*%
%ADD11C,0.150000*%
%ADD12C,0.200000*%
%ADD13C,0.120000*%
%ADD14C,0.100000*%
G04 APERTURE END LIST*
D10*
%TO.C,U9*%
X155926088Y-56764523D02*
X155926088Y-57792619D01*
X155986565Y-57913571D01*
X156047041Y-57974047D01*
X156167993Y-58034523D01*
X156409898Y-58034523D01*
X156530850Y-57974047D01*
X156591327Y-57913571D01*
X156651803Y-57792619D01*
X156651803Y-56764523D01*
X157317041Y-58034523D02*
X157558946Y-58034523D01*
X157679898Y-57974047D01*
X157740374Y-57913571D01*
X157861327Y-57732142D01*
X157921803Y-57490238D01*
X157921803Y-57006428D01*
X157861327Y-56885476D01*
X157800850Y-56825000D01*
X157679898Y-56764523D01*
X157437993Y-56764523D01*
X157317041Y-56825000D01*
X157256565Y-56885476D01*
X157196088Y-57006428D01*
X157196088Y-57308809D01*
X157256565Y-57429761D01*
X157317041Y-57490238D01*
X157437993Y-57550714D01*
X157679898Y-57550714D01*
X157800850Y-57490238D01*
X157861327Y-57429761D01*
X157921803Y-57308809D01*
%TO.C,D2*%
X141544523Y-116507380D02*
X140274523Y-116507380D01*
X140274523Y-116205000D01*
X140335000Y-116023571D01*
X140455952Y-115902619D01*
X140576904Y-115842142D01*
X140818809Y-115781666D01*
X141000238Y-115781666D01*
X141242142Y-115842142D01*
X141363095Y-115902619D01*
X141484047Y-116023571D01*
X141544523Y-116205000D01*
X141544523Y-116507380D01*
X140395476Y-115297857D02*
X140335000Y-115237380D01*
X140274523Y-115116428D01*
X140274523Y-114814047D01*
X140335000Y-114693095D01*
X140395476Y-114632619D01*
X140516428Y-114572142D01*
X140637380Y-114572142D01*
X140818809Y-114632619D01*
X141544523Y-115358333D01*
X141544523Y-114572142D01*
D11*
%TO.C,R19*%
X153027142Y-121102380D02*
X152693809Y-120626190D01*
X152455714Y-121102380D02*
X152455714Y-120102380D01*
X152836666Y-120102380D01*
X152931904Y-120150000D01*
X152979523Y-120197619D01*
X153027142Y-120292857D01*
X153027142Y-120435714D01*
X152979523Y-120530952D01*
X152931904Y-120578571D01*
X152836666Y-120626190D01*
X152455714Y-120626190D01*
X153979523Y-121102380D02*
X153408095Y-121102380D01*
X153693809Y-121102380D02*
X153693809Y-120102380D01*
X153598571Y-120245238D01*
X153503333Y-120340476D01*
X153408095Y-120388095D01*
X154455714Y-121102380D02*
X154646190Y-121102380D01*
X154741428Y-121054761D01*
X154789047Y-121007142D01*
X154884285Y-120864285D01*
X154931904Y-120673809D01*
X154931904Y-120292857D01*
X154884285Y-120197619D01*
X154836666Y-120150000D01*
X154741428Y-120102380D01*
X154550952Y-120102380D01*
X154455714Y-120150000D01*
X154408095Y-120197619D01*
X154360476Y-120292857D01*
X154360476Y-120530952D01*
X154408095Y-120626190D01*
X154455714Y-120673809D01*
X154550952Y-120721428D01*
X154741428Y-120721428D01*
X154836666Y-120673809D01*
X154884285Y-120626190D01*
X154931904Y-120530952D01*
D10*
%TO.C,D4*%
X161229523Y-119357380D02*
X159959523Y-119357380D01*
X159959523Y-119055000D01*
X160020000Y-118873571D01*
X160140952Y-118752619D01*
X160261904Y-118692142D01*
X160503809Y-118631666D01*
X160685238Y-118631666D01*
X160927142Y-118692142D01*
X161048095Y-118752619D01*
X161169047Y-118873571D01*
X161229523Y-119055000D01*
X161229523Y-119357380D01*
X160382857Y-117543095D02*
X161229523Y-117543095D01*
X159899047Y-117845476D02*
X160806190Y-118147857D01*
X160806190Y-117361666D01*
D11*
%TO.C,R2*%
X148423333Y-112212380D02*
X148090000Y-111736190D01*
X147851904Y-112212380D02*
X147851904Y-111212380D01*
X148232857Y-111212380D01*
X148328095Y-111260000D01*
X148375714Y-111307619D01*
X148423333Y-111402857D01*
X148423333Y-111545714D01*
X148375714Y-111640952D01*
X148328095Y-111688571D01*
X148232857Y-111736190D01*
X147851904Y-111736190D01*
X148804285Y-111307619D02*
X148851904Y-111260000D01*
X148947142Y-111212380D01*
X149185238Y-111212380D01*
X149280476Y-111260000D01*
X149328095Y-111307619D01*
X149375714Y-111402857D01*
X149375714Y-111498095D01*
X149328095Y-111640952D01*
X148756666Y-112212380D01*
X149375714Y-112212380D01*
%TO.C,R8*%
X147153333Y-120467380D02*
X146820000Y-119991190D01*
X146581904Y-120467380D02*
X146581904Y-119467380D01*
X146962857Y-119467380D01*
X147058095Y-119515000D01*
X147105714Y-119562619D01*
X147153333Y-119657857D01*
X147153333Y-119800714D01*
X147105714Y-119895952D01*
X147058095Y-119943571D01*
X146962857Y-119991190D01*
X146581904Y-119991190D01*
X147724761Y-119895952D02*
X147629523Y-119848333D01*
X147581904Y-119800714D01*
X147534285Y-119705476D01*
X147534285Y-119657857D01*
X147581904Y-119562619D01*
X147629523Y-119515000D01*
X147724761Y-119467380D01*
X147915238Y-119467380D01*
X148010476Y-119515000D01*
X148058095Y-119562619D01*
X148105714Y-119657857D01*
X148105714Y-119705476D01*
X148058095Y-119800714D01*
X148010476Y-119848333D01*
X147915238Y-119895952D01*
X147724761Y-119895952D01*
X147629523Y-119943571D01*
X147581904Y-119991190D01*
X147534285Y-120086428D01*
X147534285Y-120276904D01*
X147581904Y-120372142D01*
X147629523Y-120419761D01*
X147724761Y-120467380D01*
X147915238Y-120467380D01*
X148010476Y-120419761D01*
X148058095Y-120372142D01*
X148105714Y-120276904D01*
X148105714Y-120086428D01*
X148058095Y-119991190D01*
X148010476Y-119943571D01*
X147915238Y-119895952D01*
D10*
%TO.C,C3*%
X149648333Y-56333571D02*
X149587857Y-56394047D01*
X149406428Y-56454523D01*
X149285476Y-56454523D01*
X149104047Y-56394047D01*
X148983095Y-56273095D01*
X148922619Y-56152142D01*
X148862142Y-55910238D01*
X148862142Y-55728809D01*
X148922619Y-55486904D01*
X148983095Y-55365952D01*
X149104047Y-55245000D01*
X149285476Y-55184523D01*
X149406428Y-55184523D01*
X149587857Y-55245000D01*
X149648333Y-55305476D01*
X150071666Y-55184523D02*
X150857857Y-55184523D01*
X150434523Y-55668333D01*
X150615952Y-55668333D01*
X150736904Y-55728809D01*
X150797380Y-55789285D01*
X150857857Y-55910238D01*
X150857857Y-56212619D01*
X150797380Y-56333571D01*
X150736904Y-56394047D01*
X150615952Y-56454523D01*
X150253095Y-56454523D01*
X150132142Y-56394047D01*
X150071666Y-56333571D01*
D11*
%TO.C,R12*%
X152092142Y-114972380D02*
X151758809Y-114496190D01*
X151520714Y-114972380D02*
X151520714Y-113972380D01*
X151901666Y-113972380D01*
X151996904Y-114020000D01*
X152044523Y-114067619D01*
X152092142Y-114162857D01*
X152092142Y-114305714D01*
X152044523Y-114400952D01*
X151996904Y-114448571D01*
X151901666Y-114496190D01*
X151520714Y-114496190D01*
X153044523Y-114972380D02*
X152473095Y-114972380D01*
X152758809Y-114972380D02*
X152758809Y-113972380D01*
X152663571Y-114115238D01*
X152568333Y-114210476D01*
X152473095Y-114258095D01*
X153425476Y-114067619D02*
X153473095Y-114020000D01*
X153568333Y-113972380D01*
X153806428Y-113972380D01*
X153901666Y-114020000D01*
X153949285Y-114067619D01*
X153996904Y-114162857D01*
X153996904Y-114258095D01*
X153949285Y-114400952D01*
X153377857Y-114972380D01*
X153996904Y-114972380D01*
D10*
%TO.C,D1*%
X141544523Y-62627380D02*
X140274523Y-62627380D01*
X140274523Y-62325000D01*
X140335000Y-62143571D01*
X140455952Y-62022619D01*
X140576904Y-61962142D01*
X140818809Y-61901666D01*
X141000238Y-61901666D01*
X141242142Y-61962142D01*
X141363095Y-62022619D01*
X141484047Y-62143571D01*
X141544523Y-62325000D01*
X141544523Y-62627380D01*
X141544523Y-60692142D02*
X141544523Y-61417857D01*
X141544523Y-61055000D02*
X140274523Y-61055000D01*
X140455952Y-61175952D01*
X140576904Y-61296904D01*
X140637380Y-61417857D01*
%TO.C,U10*%
X154637619Y-111654523D02*
X154637619Y-112682619D01*
X154698095Y-112803571D01*
X154758571Y-112864047D01*
X154879523Y-112924523D01*
X155121428Y-112924523D01*
X155242380Y-112864047D01*
X155302857Y-112803571D01*
X155363333Y-112682619D01*
X155363333Y-111654523D01*
X156633333Y-112924523D02*
X155907619Y-112924523D01*
X156270476Y-112924523D02*
X156270476Y-111654523D01*
X156149523Y-111835952D01*
X156028571Y-111956904D01*
X155907619Y-112017380D01*
X157419523Y-111654523D02*
X157540476Y-111654523D01*
X157661428Y-111715000D01*
X157721904Y-111775476D01*
X157782380Y-111896428D01*
X157842857Y-112138333D01*
X157842857Y-112440714D01*
X157782380Y-112682619D01*
X157721904Y-112803571D01*
X157661428Y-112864047D01*
X157540476Y-112924523D01*
X157419523Y-112924523D01*
X157298571Y-112864047D01*
X157238095Y-112803571D01*
X157177619Y-112682619D01*
X157117142Y-112440714D01*
X157117142Y-112138333D01*
X157177619Y-111896428D01*
X157238095Y-111775476D01*
X157298571Y-111715000D01*
X157419523Y-111654523D01*
D11*
%TO.C,R13*%
X153062142Y-58922380D02*
X152728809Y-58446190D01*
X152490714Y-58922380D02*
X152490714Y-57922380D01*
X152871666Y-57922380D01*
X152966904Y-57970000D01*
X153014523Y-58017619D01*
X153062142Y-58112857D01*
X153062142Y-58255714D01*
X153014523Y-58350952D01*
X152966904Y-58398571D01*
X152871666Y-58446190D01*
X152490714Y-58446190D01*
X154014523Y-58922380D02*
X153443095Y-58922380D01*
X153728809Y-58922380D02*
X153728809Y-57922380D01*
X153633571Y-58065238D01*
X153538333Y-58160476D01*
X153443095Y-58208095D01*
X154347857Y-57922380D02*
X154966904Y-57922380D01*
X154633571Y-58303333D01*
X154776428Y-58303333D01*
X154871666Y-58350952D01*
X154919285Y-58398571D01*
X154966904Y-58493809D01*
X154966904Y-58731904D01*
X154919285Y-58827142D01*
X154871666Y-58874761D01*
X154776428Y-58922380D01*
X154490714Y-58922380D01*
X154395476Y-58874761D01*
X154347857Y-58827142D01*
D10*
%TO.C,D3*%
X161864523Y-62770880D02*
X160594523Y-62770880D01*
X160594523Y-62468500D01*
X160655000Y-62287071D01*
X160775952Y-62166119D01*
X160896904Y-62105642D01*
X161138809Y-62045166D01*
X161320238Y-62045166D01*
X161562142Y-62105642D01*
X161683095Y-62166119D01*
X161804047Y-62287071D01*
X161864523Y-62468500D01*
X161864523Y-62770880D01*
X160594523Y-61621833D02*
X160594523Y-60835642D01*
X161078333Y-61258976D01*
X161078333Y-61077547D01*
X161138809Y-60956595D01*
X161199285Y-60896119D01*
X161320238Y-60835642D01*
X161622619Y-60835642D01*
X161743571Y-60896119D01*
X161804047Y-60956595D01*
X161864523Y-61077547D01*
X161864523Y-61440404D01*
X161804047Y-61561357D01*
X161743571Y-61621833D01*
%TO.C,U11*%
X165069523Y-62532380D02*
X166097619Y-62532380D01*
X166218571Y-62471904D01*
X166279047Y-62411428D01*
X166339523Y-62290476D01*
X166339523Y-62048571D01*
X166279047Y-61927619D01*
X166218571Y-61867142D01*
X166097619Y-61806666D01*
X165069523Y-61806666D01*
X166339523Y-60536666D02*
X166339523Y-61262380D01*
X166339523Y-60899523D02*
X165069523Y-60899523D01*
X165250952Y-61020476D01*
X165371904Y-61141428D01*
X165432380Y-61262380D01*
X166339523Y-59327142D02*
X166339523Y-60052857D01*
X166339523Y-59690000D02*
X165069523Y-59690000D01*
X165250952Y-59810952D01*
X165371904Y-59931904D01*
X165432380Y-60052857D01*
D11*
%TO.C,R4*%
X148423333Y-116022380D02*
X148090000Y-115546190D01*
X147851904Y-116022380D02*
X147851904Y-115022380D01*
X148232857Y-115022380D01*
X148328095Y-115070000D01*
X148375714Y-115117619D01*
X148423333Y-115212857D01*
X148423333Y-115355714D01*
X148375714Y-115450952D01*
X148328095Y-115498571D01*
X148232857Y-115546190D01*
X147851904Y-115546190D01*
X149280476Y-115355714D02*
X149280476Y-116022380D01*
X149042380Y-114974761D02*
X148804285Y-115689047D01*
X149423333Y-115689047D01*
%TO.C,R18*%
X153027142Y-119197380D02*
X152693809Y-118721190D01*
X152455714Y-119197380D02*
X152455714Y-118197380D01*
X152836666Y-118197380D01*
X152931904Y-118245000D01*
X152979523Y-118292619D01*
X153027142Y-118387857D01*
X153027142Y-118530714D01*
X152979523Y-118625952D01*
X152931904Y-118673571D01*
X152836666Y-118721190D01*
X152455714Y-118721190D01*
X153979523Y-119197380D02*
X153408095Y-119197380D01*
X153693809Y-119197380D02*
X153693809Y-118197380D01*
X153598571Y-118340238D01*
X153503333Y-118435476D01*
X153408095Y-118483095D01*
X154550952Y-118625952D02*
X154455714Y-118578333D01*
X154408095Y-118530714D01*
X154360476Y-118435476D01*
X154360476Y-118387857D01*
X154408095Y-118292619D01*
X154455714Y-118245000D01*
X154550952Y-118197380D01*
X154741428Y-118197380D01*
X154836666Y-118245000D01*
X154884285Y-118292619D01*
X154931904Y-118387857D01*
X154931904Y-118435476D01*
X154884285Y-118530714D01*
X154836666Y-118578333D01*
X154741428Y-118625952D01*
X154550952Y-118625952D01*
X154455714Y-118673571D01*
X154408095Y-118721190D01*
X154360476Y-118816428D01*
X154360476Y-119006904D01*
X154408095Y-119102142D01*
X154455714Y-119149761D01*
X154550952Y-119197380D01*
X154741428Y-119197380D01*
X154836666Y-119149761D01*
X154884285Y-119102142D01*
X154931904Y-119006904D01*
X154931904Y-118816428D01*
X154884285Y-118721190D01*
X154836666Y-118673571D01*
X154741428Y-118625952D01*
%TO.C,R20*%
X167637380Y-102877857D02*
X167161190Y-103211190D01*
X167637380Y-103449285D02*
X166637380Y-103449285D01*
X166637380Y-103068333D01*
X166685000Y-102973095D01*
X166732619Y-102925476D01*
X166827857Y-102877857D01*
X166970714Y-102877857D01*
X167065952Y-102925476D01*
X167113571Y-102973095D01*
X167161190Y-103068333D01*
X167161190Y-103449285D01*
X166732619Y-102496904D02*
X166685000Y-102449285D01*
X166637380Y-102354047D01*
X166637380Y-102115952D01*
X166685000Y-102020714D01*
X166732619Y-101973095D01*
X166827857Y-101925476D01*
X166923095Y-101925476D01*
X167065952Y-101973095D01*
X167637380Y-102544523D01*
X167637380Y-101925476D01*
X166637380Y-101306428D02*
X166637380Y-101211190D01*
X166685000Y-101115952D01*
X166732619Y-101068333D01*
X166827857Y-101020714D01*
X167018333Y-100973095D01*
X167256428Y-100973095D01*
X167446904Y-101020714D01*
X167542142Y-101068333D01*
X167589761Y-101115952D01*
X167637380Y-101211190D01*
X167637380Y-101306428D01*
X167589761Y-101401666D01*
X167542142Y-101449285D01*
X167446904Y-101496904D01*
X167256428Y-101544523D01*
X167018333Y-101544523D01*
X166827857Y-101496904D01*
X166732619Y-101449285D01*
X166685000Y-101401666D01*
X166637380Y-101306428D01*
%TO.C,C1*%
X139297648Y-56872142D02*
X139250029Y-56919761D01*
X139107172Y-56967380D01*
X139011934Y-56967380D01*
X138869076Y-56919761D01*
X138773838Y-56824523D01*
X138726219Y-56729285D01*
X138678600Y-56538809D01*
X138678600Y-56395952D01*
X138726219Y-56205476D01*
X138773838Y-56110238D01*
X138869076Y-56015000D01*
X139011934Y-55967380D01*
X139107172Y-55967380D01*
X139250029Y-56015000D01*
X139297648Y-56062619D01*
X140250029Y-56967380D02*
X139678600Y-56967380D01*
X139964315Y-56967380D02*
X139964315Y-55967380D01*
X139869076Y-56110238D01*
X139773838Y-56205476D01*
X139678600Y-56253095D01*
D10*
%TO.C,U6*%
X143812380Y-115509523D02*
X143812380Y-116537619D01*
X143872857Y-116658571D01*
X143933333Y-116719047D01*
X144054285Y-116779523D01*
X144296190Y-116779523D01*
X144417142Y-116719047D01*
X144477619Y-116658571D01*
X144538095Y-116537619D01*
X144538095Y-115509523D01*
X145687142Y-115509523D02*
X145445238Y-115509523D01*
X145324285Y-115570000D01*
X145263809Y-115630476D01*
X145142857Y-115811904D01*
X145082380Y-116053809D01*
X145082380Y-116537619D01*
X145142857Y-116658571D01*
X145203333Y-116719047D01*
X145324285Y-116779523D01*
X145566190Y-116779523D01*
X145687142Y-116719047D01*
X145747619Y-116658571D01*
X145808095Y-116537619D01*
X145808095Y-116235238D01*
X145747619Y-116114285D01*
X145687142Y-116053809D01*
X145566190Y-115993333D01*
X145324285Y-115993333D01*
X145203333Y-116053809D01*
X145142857Y-116114285D01*
X145082380Y-116235238D01*
D11*
%TO.C,R7*%
X135527380Y-73826666D02*
X135051190Y-74160000D01*
X135527380Y-74398095D02*
X134527380Y-74398095D01*
X134527380Y-74017142D01*
X134575000Y-73921904D01*
X134622619Y-73874285D01*
X134717857Y-73826666D01*
X134860714Y-73826666D01*
X134955952Y-73874285D01*
X135003571Y-73921904D01*
X135051190Y-74017142D01*
X135051190Y-74398095D01*
X134527380Y-73493333D02*
X134527380Y-72826666D01*
X135527380Y-73255238D01*
D10*
%TO.C,C4*%
X154093333Y-56333571D02*
X154032857Y-56394047D01*
X153851428Y-56454523D01*
X153730476Y-56454523D01*
X153549047Y-56394047D01*
X153428095Y-56273095D01*
X153367619Y-56152142D01*
X153307142Y-55910238D01*
X153307142Y-55728809D01*
X153367619Y-55486904D01*
X153428095Y-55365952D01*
X153549047Y-55245000D01*
X153730476Y-55184523D01*
X153851428Y-55184523D01*
X154032857Y-55245000D01*
X154093333Y-55305476D01*
X155181904Y-55607857D02*
X155181904Y-56454523D01*
X154879523Y-55124047D02*
X154577142Y-56031190D01*
X155363333Y-56031190D01*
D11*
%TO.C,R5*%
X147788333Y-63952380D02*
X147455000Y-63476190D01*
X147216904Y-63952380D02*
X147216904Y-62952380D01*
X147597857Y-62952380D01*
X147693095Y-63000000D01*
X147740714Y-63047619D01*
X147788333Y-63142857D01*
X147788333Y-63285714D01*
X147740714Y-63380952D01*
X147693095Y-63428571D01*
X147597857Y-63476190D01*
X147216904Y-63476190D01*
X148693095Y-62952380D02*
X148216904Y-62952380D01*
X148169285Y-63428571D01*
X148216904Y-63380952D01*
X148312142Y-63333333D01*
X148550238Y-63333333D01*
X148645476Y-63380952D01*
X148693095Y-63428571D01*
X148740714Y-63523809D01*
X148740714Y-63761904D01*
X148693095Y-63857142D01*
X148645476Y-63904761D01*
X148550238Y-63952380D01*
X148312142Y-63952380D01*
X148216904Y-63904761D01*
X148169285Y-63857142D01*
D10*
%TO.C,U13*%
X145747619Y-48834523D02*
X145747619Y-49862619D01*
X145808095Y-49983571D01*
X145868571Y-50044047D01*
X145989523Y-50104523D01*
X146231428Y-50104523D01*
X146352380Y-50044047D01*
X146412857Y-49983571D01*
X146473333Y-49862619D01*
X146473333Y-48834523D01*
X147743333Y-50104523D02*
X147017619Y-50104523D01*
X147380476Y-50104523D02*
X147380476Y-48834523D01*
X147259523Y-49015952D01*
X147138571Y-49136904D01*
X147017619Y-49197380D01*
X148166666Y-48834523D02*
X148952857Y-48834523D01*
X148529523Y-49318333D01*
X148710952Y-49318333D01*
X148831904Y-49378809D01*
X148892380Y-49439285D01*
X148952857Y-49560238D01*
X148952857Y-49862619D01*
X148892380Y-49983571D01*
X148831904Y-50044047D01*
X148710952Y-50104523D01*
X148348095Y-50104523D01*
X148227142Y-50044047D01*
X148166666Y-49983571D01*
D11*
%TO.C,R11*%
X153062142Y-62682380D02*
X152728809Y-62206190D01*
X152490714Y-62682380D02*
X152490714Y-61682380D01*
X152871666Y-61682380D01*
X152966904Y-61730000D01*
X153014523Y-61777619D01*
X153062142Y-61872857D01*
X153062142Y-62015714D01*
X153014523Y-62110952D01*
X152966904Y-62158571D01*
X152871666Y-62206190D01*
X152490714Y-62206190D01*
X154014523Y-62682380D02*
X153443095Y-62682380D01*
X153728809Y-62682380D02*
X153728809Y-61682380D01*
X153633571Y-61825238D01*
X153538333Y-61920476D01*
X153443095Y-61968095D01*
X154966904Y-62682380D02*
X154395476Y-62682380D01*
X154681190Y-62682380D02*
X154681190Y-61682380D01*
X154585952Y-61825238D01*
X154490714Y-61920476D01*
X154395476Y-61968095D01*
%TO.C,R15*%
X153384642Y-63952380D02*
X153051309Y-63476190D01*
X152813214Y-63952380D02*
X152813214Y-62952380D01*
X153194166Y-62952380D01*
X153289404Y-63000000D01*
X153337023Y-63047619D01*
X153384642Y-63142857D01*
X153384642Y-63285714D01*
X153337023Y-63380952D01*
X153289404Y-63428571D01*
X153194166Y-63476190D01*
X152813214Y-63476190D01*
X154337023Y-63952380D02*
X153765595Y-63952380D01*
X154051309Y-63952380D02*
X154051309Y-62952380D01*
X153956071Y-63095238D01*
X153860833Y-63190476D01*
X153765595Y-63238095D01*
X155241785Y-62952380D02*
X154765595Y-62952380D01*
X154717976Y-63428571D01*
X154765595Y-63380952D01*
X154860833Y-63333333D01*
X155098928Y-63333333D01*
X155194166Y-63380952D01*
X155241785Y-63428571D01*
X155289404Y-63523809D01*
X155289404Y-63761904D01*
X155241785Y-63857142D01*
X155194166Y-63904761D01*
X155098928Y-63952380D01*
X154860833Y-63952380D01*
X154765595Y-63904761D01*
X154717976Y-63857142D01*
%TO.C,R10*%
X140967380Y-104147857D02*
X140491190Y-104481190D01*
X140967380Y-104719285D02*
X139967380Y-104719285D01*
X139967380Y-104338333D01*
X140015000Y-104243095D01*
X140062619Y-104195476D01*
X140157857Y-104147857D01*
X140300714Y-104147857D01*
X140395952Y-104195476D01*
X140443571Y-104243095D01*
X140491190Y-104338333D01*
X140491190Y-104719285D01*
X140967380Y-103195476D02*
X140967380Y-103766904D01*
X140967380Y-103481190D02*
X139967380Y-103481190D01*
X140110238Y-103576428D01*
X140205476Y-103671666D01*
X140253095Y-103766904D01*
X139967380Y-102576428D02*
X139967380Y-102481190D01*
X140015000Y-102385952D01*
X140062619Y-102338333D01*
X140157857Y-102290714D01*
X140348333Y-102243095D01*
X140586428Y-102243095D01*
X140776904Y-102290714D01*
X140872142Y-102338333D01*
X140919761Y-102385952D01*
X140967380Y-102481190D01*
X140967380Y-102576428D01*
X140919761Y-102671666D01*
X140872142Y-102719285D01*
X140776904Y-102766904D01*
X140586428Y-102814523D01*
X140348333Y-102814523D01*
X140157857Y-102766904D01*
X140062619Y-102719285D01*
X140015000Y-102671666D01*
X139967380Y-102576428D01*
%TO.C,R14*%
X152057142Y-113667380D02*
X151723809Y-113191190D01*
X151485714Y-113667380D02*
X151485714Y-112667380D01*
X151866666Y-112667380D01*
X151961904Y-112715000D01*
X152009523Y-112762619D01*
X152057142Y-112857857D01*
X152057142Y-113000714D01*
X152009523Y-113095952D01*
X151961904Y-113143571D01*
X151866666Y-113191190D01*
X151485714Y-113191190D01*
X153009523Y-113667380D02*
X152438095Y-113667380D01*
X152723809Y-113667380D02*
X152723809Y-112667380D01*
X152628571Y-112810238D01*
X152533333Y-112905476D01*
X152438095Y-112953095D01*
X153866666Y-113000714D02*
X153866666Y-113667380D01*
X153628571Y-112619761D02*
X153390476Y-113334047D01*
X154009523Y-113334047D01*
%TO.C,R17*%
X162197380Y-74302857D02*
X161721190Y-74636190D01*
X162197380Y-74874285D02*
X161197380Y-74874285D01*
X161197380Y-74493333D01*
X161245000Y-74398095D01*
X161292619Y-74350476D01*
X161387857Y-74302857D01*
X161530714Y-74302857D01*
X161625952Y-74350476D01*
X161673571Y-74398095D01*
X161721190Y-74493333D01*
X161721190Y-74874285D01*
X162197380Y-73350476D02*
X162197380Y-73921904D01*
X162197380Y-73636190D02*
X161197380Y-73636190D01*
X161340238Y-73731428D01*
X161435476Y-73826666D01*
X161483095Y-73921904D01*
X161197380Y-73017142D02*
X161197380Y-72350476D01*
X162197380Y-72779047D01*
%TO.C,C2*%
X162683817Y-56872142D02*
X162636198Y-56919761D01*
X162493341Y-56967380D01*
X162398103Y-56967380D01*
X162255245Y-56919761D01*
X162160007Y-56824523D01*
X162112388Y-56729285D01*
X162064769Y-56538809D01*
X162064769Y-56395952D01*
X162112388Y-56205476D01*
X162160007Y-56110238D01*
X162255245Y-56015000D01*
X162398103Y-55967380D01*
X162493341Y-55967380D01*
X162636198Y-56015000D01*
X162683817Y-56062619D01*
X163064769Y-56062619D02*
X163112388Y-56015000D01*
X163207626Y-55967380D01*
X163445722Y-55967380D01*
X163540960Y-56015000D01*
X163588579Y-56062619D01*
X163636198Y-56157857D01*
X163636198Y-56253095D01*
X163588579Y-56395952D01*
X163017150Y-56967380D01*
X163636198Y-56967380D01*
D10*
%TO.C,U8*%
X135859523Y-121617619D02*
X136887619Y-121617619D01*
X137008571Y-121557142D01*
X137069047Y-121496666D01*
X137129523Y-121375714D01*
X137129523Y-121133809D01*
X137069047Y-121012857D01*
X137008571Y-120952380D01*
X136887619Y-120891904D01*
X135859523Y-120891904D01*
X136403809Y-120105714D02*
X136343333Y-120226666D01*
X136282857Y-120287142D01*
X136161904Y-120347619D01*
X136101428Y-120347619D01*
X135980476Y-120287142D01*
X135920000Y-120226666D01*
X135859523Y-120105714D01*
X135859523Y-119863809D01*
X135920000Y-119742857D01*
X135980476Y-119682380D01*
X136101428Y-119621904D01*
X136161904Y-119621904D01*
X136282857Y-119682380D01*
X136343333Y-119742857D01*
X136403809Y-119863809D01*
X136403809Y-120105714D01*
X136464285Y-120226666D01*
X136524761Y-120287142D01*
X136645714Y-120347619D01*
X136887619Y-120347619D01*
X137008571Y-120287142D01*
X137069047Y-120226666D01*
X137129523Y-120105714D01*
X137129523Y-119863809D01*
X137069047Y-119742857D01*
X137008571Y-119682380D01*
X136887619Y-119621904D01*
X136645714Y-119621904D01*
X136524761Y-119682380D01*
X136464285Y-119742857D01*
X136403809Y-119863809D01*
D11*
%TO.C,R9*%
X146875833Y-118562380D02*
X146542500Y-118086190D01*
X146304404Y-118562380D02*
X146304404Y-117562380D01*
X146685357Y-117562380D01*
X146780595Y-117610000D01*
X146828214Y-117657619D01*
X146875833Y-117752857D01*
X146875833Y-117895714D01*
X146828214Y-117990952D01*
X146780595Y-118038571D01*
X146685357Y-118086190D01*
X146304404Y-118086190D01*
X147352023Y-118562380D02*
X147542500Y-118562380D01*
X147637738Y-118514761D01*
X147685357Y-118467142D01*
X147780595Y-118324285D01*
X147828214Y-118133809D01*
X147828214Y-117752857D01*
X147780595Y-117657619D01*
X147732976Y-117610000D01*
X147637738Y-117562380D01*
X147447261Y-117562380D01*
X147352023Y-117610000D01*
X147304404Y-117657619D01*
X147256785Y-117752857D01*
X147256785Y-117990952D01*
X147304404Y-118086190D01*
X147352023Y-118133809D01*
X147447261Y-118181428D01*
X147637738Y-118181428D01*
X147732976Y-118133809D01*
X147780595Y-118086190D01*
X147828214Y-117990952D01*
%TO.C,R3*%
X150328333Y-61512380D02*
X149995000Y-61036190D01*
X149756904Y-61512380D02*
X149756904Y-60512380D01*
X150137857Y-60512380D01*
X150233095Y-60560000D01*
X150280714Y-60607619D01*
X150328333Y-60702857D01*
X150328333Y-60845714D01*
X150280714Y-60940952D01*
X150233095Y-60988571D01*
X150137857Y-61036190D01*
X149756904Y-61036190D01*
X150661666Y-60512380D02*
X151280714Y-60512380D01*
X150947380Y-60893333D01*
X151090238Y-60893333D01*
X151185476Y-60940952D01*
X151233095Y-60988571D01*
X151280714Y-61083809D01*
X151280714Y-61321904D01*
X151233095Y-61417142D01*
X151185476Y-61464761D01*
X151090238Y-61512380D01*
X150804523Y-61512380D01*
X150709285Y-61464761D01*
X150661666Y-61417142D01*
D10*
%TO.C,U12*%
X165069523Y-115668880D02*
X166097619Y-115668880D01*
X166218571Y-115608404D01*
X166279047Y-115547928D01*
X166339523Y-115426976D01*
X166339523Y-115185071D01*
X166279047Y-115064119D01*
X166218571Y-115003642D01*
X166097619Y-114943166D01*
X165069523Y-114943166D01*
X166339523Y-113673166D02*
X166339523Y-114398880D01*
X166339523Y-114036023D02*
X165069523Y-114036023D01*
X165250952Y-114156976D01*
X165371904Y-114277928D01*
X165432380Y-114398880D01*
X165190476Y-113189357D02*
X165130000Y-113128880D01*
X165069523Y-113007928D01*
X165069523Y-112705547D01*
X165130000Y-112584595D01*
X165190476Y-112524119D01*
X165311428Y-112463642D01*
X165432380Y-112463642D01*
X165613809Y-112524119D01*
X166339523Y-113249833D01*
X166339523Y-112463642D01*
D11*
%TO.C,R6*%
X147788333Y-65857380D02*
X147455000Y-65381190D01*
X147216904Y-65857380D02*
X147216904Y-64857380D01*
X147597857Y-64857380D01*
X147693095Y-64905000D01*
X147740714Y-64952619D01*
X147788333Y-65047857D01*
X147788333Y-65190714D01*
X147740714Y-65285952D01*
X147693095Y-65333571D01*
X147597857Y-65381190D01*
X147216904Y-65381190D01*
X148645476Y-64857380D02*
X148455000Y-64857380D01*
X148359761Y-64905000D01*
X148312142Y-64952619D01*
X148216904Y-65095476D01*
X148169285Y-65285952D01*
X148169285Y-65666904D01*
X148216904Y-65762142D01*
X148264523Y-65809761D01*
X148359761Y-65857380D01*
X148550238Y-65857380D01*
X148645476Y-65809761D01*
X148693095Y-65762142D01*
X148740714Y-65666904D01*
X148740714Y-65428809D01*
X148693095Y-65333571D01*
X148645476Y-65285952D01*
X148550238Y-65238333D01*
X148359761Y-65238333D01*
X148264523Y-65285952D01*
X148216904Y-65333571D01*
X148169285Y-65428809D01*
D10*
%TO.C,U2*%
X143812380Y-45659523D02*
X143812380Y-46687619D01*
X143872857Y-46808571D01*
X143933333Y-46869047D01*
X144054285Y-46929523D01*
X144296190Y-46929523D01*
X144417142Y-46869047D01*
X144477619Y-46808571D01*
X144538095Y-46687619D01*
X144538095Y-45659523D01*
X145082380Y-45780476D02*
X145142857Y-45720000D01*
X145263809Y-45659523D01*
X145566190Y-45659523D01*
X145687142Y-45720000D01*
X145747619Y-45780476D01*
X145808095Y-45901428D01*
X145808095Y-46022380D01*
X145747619Y-46203809D01*
X145021904Y-46929523D01*
X145808095Y-46929523D01*
%TO.C,U4*%
X161592380Y-46929523D02*
X161592380Y-47957619D01*
X161652857Y-48078571D01*
X161713333Y-48139047D01*
X161834285Y-48199523D01*
X162076190Y-48199523D01*
X162197142Y-48139047D01*
X162257619Y-48078571D01*
X162318095Y-47957619D01*
X162318095Y-46929523D01*
X163467142Y-47352857D02*
X163467142Y-48199523D01*
X163164761Y-46869047D02*
X162862380Y-47776190D01*
X163648571Y-47776190D01*
%TO.C,U5*%
X145717380Y-56454523D02*
X145717380Y-57482619D01*
X145777857Y-57603571D01*
X145838333Y-57664047D01*
X145959285Y-57724523D01*
X146201190Y-57724523D01*
X146322142Y-57664047D01*
X146382619Y-57603571D01*
X146443095Y-57482619D01*
X146443095Y-56454523D01*
X147652619Y-56454523D02*
X147047857Y-56454523D01*
X146987380Y-57059285D01*
X147047857Y-56998809D01*
X147168809Y-56938333D01*
X147471190Y-56938333D01*
X147592142Y-56998809D01*
X147652619Y-57059285D01*
X147713095Y-57180238D01*
X147713095Y-57482619D01*
X147652619Y-57603571D01*
X147592142Y-57664047D01*
X147471190Y-57724523D01*
X147168809Y-57724523D01*
X147047857Y-57664047D01*
X146987380Y-57603571D01*
D11*
%TO.C,R1*%
X150328333Y-60142380D02*
X149995000Y-59666190D01*
X149756904Y-60142380D02*
X149756904Y-59142380D01*
X150137857Y-59142380D01*
X150233095Y-59190000D01*
X150280714Y-59237619D01*
X150328333Y-59332857D01*
X150328333Y-59475714D01*
X150280714Y-59570952D01*
X150233095Y-59618571D01*
X150137857Y-59666190D01*
X149756904Y-59666190D01*
X151280714Y-60142380D02*
X150709285Y-60142380D01*
X150995000Y-60142380D02*
X150995000Y-59142380D01*
X150899761Y-59285238D01*
X150804523Y-59380476D01*
X150709285Y-59428095D01*
D10*
%TO.C,U1*%
X150699139Y-122709523D02*
X150699139Y-123737619D01*
X150759616Y-123858571D01*
X150820092Y-123919047D01*
X150941044Y-123979523D01*
X151182949Y-123979523D01*
X151303901Y-123919047D01*
X151364378Y-123858571D01*
X151424854Y-123737619D01*
X151424854Y-122709523D01*
X152694854Y-123979523D02*
X151969139Y-123979523D01*
X152331997Y-123979523D02*
X152331997Y-122709523D01*
X152211044Y-122890952D01*
X152090092Y-123011904D01*
X151969139Y-123072380D01*
D11*
%TO.C,R16*%
X153384642Y-66492380D02*
X153051309Y-66016190D01*
X152813214Y-66492380D02*
X152813214Y-65492380D01*
X153194166Y-65492380D01*
X153289404Y-65540000D01*
X153337023Y-65587619D01*
X153384642Y-65682857D01*
X153384642Y-65825714D01*
X153337023Y-65920952D01*
X153289404Y-65968571D01*
X153194166Y-66016190D01*
X152813214Y-66016190D01*
X154337023Y-66492380D02*
X153765595Y-66492380D01*
X154051309Y-66492380D02*
X154051309Y-65492380D01*
X153956071Y-65635238D01*
X153860833Y-65730476D01*
X153765595Y-65778095D01*
X155194166Y-65492380D02*
X155003690Y-65492380D01*
X154908452Y-65540000D01*
X154860833Y-65587619D01*
X154765595Y-65730476D01*
X154717976Y-65920952D01*
X154717976Y-66301904D01*
X154765595Y-66397142D01*
X154813214Y-66444761D01*
X154908452Y-66492380D01*
X155098928Y-66492380D01*
X155194166Y-66444761D01*
X155241785Y-66397142D01*
X155289404Y-66301904D01*
X155289404Y-66063809D01*
X155241785Y-65968571D01*
X155194166Y-65920952D01*
X155098928Y-65873333D01*
X154908452Y-65873333D01*
X154813214Y-65920952D01*
X154765595Y-65968571D01*
X154717976Y-66063809D01*
D10*
%TO.C,U7*%
X135859523Y-61927619D02*
X136887619Y-61927619D01*
X137008571Y-61867142D01*
X137069047Y-61806666D01*
X137129523Y-61685714D01*
X137129523Y-61443809D01*
X137069047Y-61322857D01*
X137008571Y-61262380D01*
X136887619Y-61201904D01*
X135859523Y-61201904D01*
X135859523Y-60718095D02*
X135859523Y-59871428D01*
X137129523Y-60415714D01*
D12*
%TO.C,U9*%
X156693708Y-58550000D02*
X157093708Y-58550000D01*
X155043708Y-58500000D02*
X156343708Y-58500000D01*
X157093708Y-58550000D02*
X157093708Y-61450000D01*
X157093708Y-61450000D02*
X156693708Y-61450000D01*
X156693708Y-61450000D02*
X156693708Y-58550000D01*
%TO.C,D2*%
X139770000Y-118195000D02*
X139770000Y-113670000D01*
X139770000Y-116570000D02*
X142170000Y-116570000D01*
X142170000Y-117470000D02*
X142170000Y-113670000D01*
D13*
%TO.C,R19*%
X156617936Y-119480000D02*
X157072064Y-119480000D01*
X156617936Y-118010000D02*
X157072064Y-118010000D01*
D12*
%TO.C,D4*%
X159455000Y-119420000D02*
X161855000Y-119420000D01*
X159455000Y-121045000D02*
X159455000Y-116520000D01*
X161855000Y-120320000D02*
X161855000Y-116520000D01*
D13*
%TO.C,R8*%
X144729564Y-119280000D02*
X144275436Y-119280000D01*
X144729564Y-120750000D02*
X144275436Y-120750000D01*
D14*
%TO.C,C3*%
X149160000Y-55830000D02*
X149160000Y-55830000D01*
X149160000Y-55930000D02*
X149160000Y-55930000D01*
X149160000Y-55930000D02*
G75*
G03*
X149160000Y-55830000I0J50000D01*
G01*
X149160000Y-55830000D02*
G75*
G03*
X149160000Y-55930000I0J-50000D01*
G01*
D12*
%TO.C,D1*%
X139770000Y-64315000D02*
X139770000Y-59790000D01*
X142170000Y-63590000D02*
X142170000Y-59790000D01*
X139770000Y-62690000D02*
X142170000Y-62690000D01*
%TO.C,U10*%
X156410000Y-113440000D02*
X156410000Y-116340000D01*
X156410000Y-116340000D02*
X156010000Y-116340000D01*
X154360000Y-113390000D02*
X155660000Y-113390000D01*
X156010000Y-113440000D02*
X156410000Y-113440000D01*
X156010000Y-116340000D02*
X156010000Y-113440000D01*
%TO.C,D3*%
X160090000Y-64458500D02*
X160090000Y-59933500D01*
X160090000Y-62833500D02*
X162490000Y-62833500D01*
X162490000Y-63733500D02*
X162490000Y-59933500D01*
D13*
%TO.C,R18*%
X156617936Y-121385000D02*
X157072064Y-121385000D01*
X156617936Y-119915000D02*
X157072064Y-119915000D01*
%TO.C,R20*%
X162745000Y-97615000D02*
X162745000Y-106855000D01*
X164465000Y-96925000D02*
X164465000Y-97615000D01*
X166185000Y-97615000D02*
X162745000Y-97615000D01*
X164465000Y-107545000D02*
X164465000Y-106855000D01*
X162745000Y-106855000D02*
X166185000Y-106855000D01*
X166185000Y-106855000D02*
X166185000Y-97615000D01*
%TO.C,C1*%
X145700315Y-52281000D02*
X145700315Y-54399000D01*
X144380315Y-54380000D02*
X144380315Y-56056000D01*
X144780315Y-54380000D02*
X144780315Y-55756000D01*
X143820315Y-54380000D02*
X143820315Y-56342000D01*
X144900315Y-51035000D02*
X144900315Y-52300000D01*
X143460315Y-50219000D02*
X143460315Y-52300000D01*
X144860315Y-50997000D02*
X144860315Y-52300000D01*
X145540315Y-51908000D02*
X145540315Y-54772000D01*
X142899315Y-54380000D02*
X142899315Y-56558000D01*
X145500315Y-51831000D02*
X145500315Y-54849000D01*
X143780315Y-54380000D02*
X143780315Y-56358000D01*
X145620315Y-52078000D02*
X145620315Y-54602000D01*
X143900315Y-54380000D02*
X143900315Y-56310000D01*
X144180315Y-54380000D02*
X144180315Y-56174000D01*
X145140315Y-51296000D02*
X145140315Y-55384000D01*
X143780315Y-50322000D02*
X143780315Y-52300000D01*
X144660315Y-50824000D02*
X144660315Y-52300000D01*
X142939315Y-54380000D02*
X142939315Y-56555000D01*
X143259315Y-54380000D02*
X143259315Y-56507000D01*
X145100315Y-51248000D02*
X145100315Y-55432000D01*
X142979315Y-50129000D02*
X142979315Y-52300000D01*
X144100315Y-50464000D02*
X144100315Y-52300000D01*
X144700315Y-50856000D02*
X144700315Y-52300000D01*
X143299315Y-50181000D02*
X143299315Y-52300000D01*
X143740315Y-54380000D02*
X143740315Y-56373000D01*
X143500315Y-54380000D02*
X143500315Y-56450000D01*
X145460315Y-51759000D02*
X145460315Y-54921000D01*
X142819315Y-50116000D02*
X142819315Y-56564000D01*
X143980315Y-50406000D02*
X143980315Y-52300000D01*
X142699315Y-50110000D02*
X142699315Y-56570000D01*
X144940315Y-51075000D02*
X144940315Y-55605000D01*
X142779315Y-50113000D02*
X142779315Y-56567000D01*
X143540315Y-54380000D02*
X143540315Y-56438000D01*
X143580315Y-50254000D02*
X143580315Y-52300000D01*
X144540315Y-54380000D02*
X144540315Y-55947000D01*
X143380315Y-50199000D02*
X143380315Y-52300000D01*
X143540315Y-50242000D02*
X143540315Y-52300000D01*
X143860315Y-54380000D02*
X143860315Y-56326000D01*
X143179315Y-50158000D02*
X143179315Y-52300000D01*
X144020315Y-50424000D02*
X144020315Y-52300000D01*
X143099315Y-50145000D02*
X143099315Y-52300000D01*
X143620315Y-50266000D02*
X143620315Y-52300000D01*
X143820315Y-50338000D02*
X143820315Y-52300000D01*
X143940315Y-54380000D02*
X143940315Y-56292000D01*
X145660315Y-52175000D02*
X145660315Y-54505000D01*
X143620315Y-54380000D02*
X143620315Y-56414000D01*
X145180315Y-51345000D02*
X145180315Y-55335000D01*
X144820315Y-50960000D02*
X144820315Y-52300000D01*
X145420315Y-51690000D02*
X145420315Y-54990000D01*
X143500315Y-50230000D02*
X143500315Y-52300000D01*
X143340315Y-50190000D02*
X143340315Y-52300000D01*
X143420315Y-54380000D02*
X143420315Y-56471000D01*
X144300315Y-50574000D02*
X144300315Y-52300000D01*
X142859315Y-54380000D02*
X142859315Y-56562000D01*
X139434074Y-51186000D02*
X139434074Y-51816000D01*
X143139315Y-54380000D02*
X143139315Y-56529000D01*
X144420315Y-50650000D02*
X144420315Y-52300000D01*
X144580315Y-54380000D02*
X144580315Y-55918000D01*
X143700315Y-54380000D02*
X143700315Y-56387000D01*
X144420315Y-54380000D02*
X144420315Y-56030000D01*
X145380315Y-51626000D02*
X145380315Y-55054000D01*
X144980315Y-51116000D02*
X144980315Y-55564000D01*
X143340315Y-54380000D02*
X143340315Y-56490000D01*
X144380315Y-50624000D02*
X144380315Y-52300000D01*
X143299315Y-54380000D02*
X143299315Y-56499000D01*
X144140315Y-54380000D02*
X144140315Y-56196000D01*
X145020315Y-51158000D02*
X145020315Y-55522000D01*
X144060315Y-54380000D02*
X144060315Y-56236000D01*
X145300315Y-51506000D02*
X145300315Y-55174000D01*
X144340315Y-50598000D02*
X144340315Y-52300000D01*
X144460315Y-50676000D02*
X144460315Y-52300000D01*
X143420315Y-50209000D02*
X143420315Y-52300000D01*
X143700315Y-50293000D02*
X143700315Y-52300000D01*
X145740315Y-52400000D02*
X145740315Y-54280000D01*
X144180315Y-50506000D02*
X144180315Y-52300000D01*
X143019315Y-54380000D02*
X143019315Y-56546000D01*
X143099315Y-54380000D02*
X143099315Y-56535000D01*
X143259315Y-50173000D02*
X143259315Y-52300000D01*
X143179315Y-54380000D02*
X143179315Y-56522000D01*
X143019315Y-50134000D02*
X143019315Y-52300000D01*
X144660315Y-54380000D02*
X144660315Y-55856000D01*
X142659315Y-50110000D02*
X142659315Y-56570000D01*
X144500315Y-54380000D02*
X144500315Y-55976000D01*
X143380315Y-54380000D02*
X143380315Y-56481000D01*
X143900315Y-50370000D02*
X143900315Y-52300000D01*
X143219315Y-54380000D02*
X143219315Y-56515000D01*
X143059315Y-50139000D02*
X143059315Y-52300000D01*
X145860315Y-52938000D02*
X145860315Y-53742000D01*
X143740315Y-50307000D02*
X143740315Y-52300000D01*
X143980315Y-54380000D02*
X143980315Y-56274000D01*
X144620315Y-54380000D02*
X144620315Y-55888000D01*
X145340315Y-51564000D02*
X145340315Y-55116000D01*
X143860315Y-50354000D02*
X143860315Y-52300000D01*
X143139315Y-50151000D02*
X143139315Y-52300000D01*
X143940315Y-50388000D02*
X143940315Y-52300000D01*
X143460315Y-54380000D02*
X143460315Y-56461000D01*
X144260315Y-50550000D02*
X144260315Y-52300000D01*
X144700315Y-54380000D02*
X144700315Y-55824000D01*
X144140315Y-50484000D02*
X144140315Y-52300000D01*
X145820315Y-52707000D02*
X145820315Y-53973000D01*
X145220315Y-51396000D02*
X145220315Y-55284000D01*
X142739315Y-50112000D02*
X142739315Y-56568000D01*
X144740315Y-54380000D02*
X144740315Y-55790000D01*
X144020315Y-54380000D02*
X144020315Y-56256000D01*
X144500315Y-50704000D02*
X144500315Y-52300000D01*
X145580315Y-51990000D02*
X145580315Y-54690000D01*
X142619315Y-50110000D02*
X142619315Y-56570000D01*
X144060315Y-50444000D02*
X144060315Y-52300000D01*
X143219315Y-50165000D02*
X143219315Y-52300000D01*
X139119074Y-51501000D02*
X139749074Y-51501000D01*
X144900315Y-54380000D02*
X144900315Y-55645000D01*
X142979315Y-54380000D02*
X142979315Y-56551000D01*
X144820315Y-54380000D02*
X144820315Y-55720000D01*
X144860315Y-54380000D02*
X144860315Y-55683000D01*
X143580315Y-54380000D02*
X143580315Y-56426000D01*
X142859315Y-50118000D02*
X142859315Y-52300000D01*
X144340315Y-54380000D02*
X144340315Y-56082000D01*
X144220315Y-50528000D02*
X144220315Y-52300000D01*
X144300315Y-54380000D02*
X144300315Y-56106000D01*
X144540315Y-50733000D02*
X144540315Y-52300000D01*
X143660315Y-50279000D02*
X143660315Y-52300000D01*
X145780315Y-52538000D02*
X145780315Y-54142000D01*
X145260315Y-51450000D02*
X145260315Y-55230000D01*
X144580315Y-50762000D02*
X144580315Y-52300000D01*
X142939315Y-50125000D02*
X142939315Y-52300000D01*
X142899315Y-50122000D02*
X142899315Y-52300000D01*
X144260315Y-54380000D02*
X144260315Y-56130000D01*
X144740315Y-50890000D02*
X144740315Y-52300000D01*
X143059315Y-54380000D02*
X143059315Y-56541000D01*
X145060315Y-51203000D02*
X145060315Y-55477000D01*
X144220315Y-54380000D02*
X144220315Y-56152000D01*
X144780315Y-50924000D02*
X144780315Y-52300000D01*
X144620315Y-50792000D02*
X144620315Y-52300000D01*
X143660315Y-54380000D02*
X143660315Y-56401000D01*
X144460315Y-54380000D02*
X144460315Y-56004000D01*
X144100315Y-54380000D02*
X144100315Y-56216000D01*
X145889315Y-53340000D02*
G75*
G03*
X145889315Y-53340000I-3270000J0D01*
G01*
D12*
%TO.C,U6*%
X144980000Y-112215000D02*
X144980000Y-115115000D01*
X144980000Y-115115000D02*
X144580000Y-115115000D01*
X144580000Y-112215000D02*
X144980000Y-112215000D01*
X144580000Y-115115000D02*
X144580000Y-112215000D01*
X146630000Y-115165000D02*
X145330000Y-115165000D01*
D13*
%TO.C,R7*%
X137795000Y-68350000D02*
X137795000Y-69040000D01*
X136075000Y-69040000D02*
X136075000Y-78280000D01*
X139515000Y-69040000D02*
X136075000Y-69040000D01*
X137795000Y-78970000D02*
X137795000Y-78280000D01*
X139515000Y-78280000D02*
X139515000Y-69040000D01*
X136075000Y-78280000D02*
X139515000Y-78280000D01*
D14*
%TO.C,C4*%
X153605000Y-55830000D02*
X153605000Y-55830000D01*
X153605000Y-55930000D02*
X153605000Y-55930000D01*
X153605000Y-55830000D02*
G75*
G03*
X153605000Y-55930000I0J-50000D01*
G01*
X153605000Y-55930000D02*
G75*
G03*
X153605000Y-55830000I0J50000D01*
G01*
D13*
%TO.C,R5*%
X145642064Y-64235000D02*
X145187936Y-64235000D01*
X145642064Y-62765000D02*
X145187936Y-62765000D01*
D14*
%TO.C,U13*%
X153568500Y-52576000D02*
X153368500Y-53376000D01*
D12*
X147868500Y-51676000D02*
X147868500Y-51676000D01*
X147868500Y-51876000D02*
X147868500Y-51876000D01*
D14*
X149368500Y-53376000D02*
X149168500Y-52576000D01*
X153368500Y-53376000D02*
X149368500Y-53376000D01*
D12*
X147868500Y-51876000D02*
G75*
G03*
X147868500Y-51676000I0J100000D01*
G01*
X147868500Y-51676000D02*
G75*
G03*
X147868500Y-51876000I0J-100000D01*
G01*
D13*
%TO.C,R15*%
X156975436Y-64255000D02*
X157429564Y-64255000D01*
X156975436Y-62785000D02*
X157429564Y-62785000D01*
%TO.C,R10*%
X139515000Y-98885000D02*
X136075000Y-98885000D01*
X137795000Y-108815000D02*
X137795000Y-108125000D01*
X136075000Y-108125000D02*
X139515000Y-108125000D01*
X139515000Y-108125000D02*
X139515000Y-98885000D01*
X137795000Y-98195000D02*
X137795000Y-98885000D01*
X136075000Y-98885000D02*
X136075000Y-108125000D01*
%TO.C,R17*%
X166185000Y-78280000D02*
X166185000Y-69040000D01*
X164465000Y-68350000D02*
X164465000Y-69040000D01*
X164465000Y-78970000D02*
X164465000Y-78280000D01*
X162745000Y-69040000D02*
X162745000Y-78280000D01*
X162745000Y-78280000D02*
X166185000Y-78280000D01*
X166185000Y-69040000D02*
X162745000Y-69040000D01*
%TO.C,C2*%
X161856484Y-54380000D02*
X161856484Y-55720000D01*
X162736484Y-52281000D02*
X162736484Y-54399000D01*
X162456484Y-51690000D02*
X162456484Y-54990000D01*
X160976484Y-54380000D02*
X160976484Y-56292000D01*
X161696484Y-50824000D02*
X161696484Y-52300000D01*
X160095484Y-50139000D02*
X160095484Y-52300000D01*
X160335484Y-50181000D02*
X160335484Y-52300000D01*
X161976484Y-51075000D02*
X161976484Y-55605000D01*
X160896484Y-54380000D02*
X160896484Y-56326000D01*
X160376484Y-54380000D02*
X160376484Y-56490000D01*
X160576484Y-54380000D02*
X160576484Y-56438000D01*
X161416484Y-54380000D02*
X161416484Y-56056000D01*
X161056484Y-54380000D02*
X161056484Y-56256000D01*
X160696484Y-54380000D02*
X160696484Y-56401000D01*
X160856484Y-54380000D02*
X160856484Y-56342000D01*
X161336484Y-54380000D02*
X161336484Y-56106000D01*
X162896484Y-52938000D02*
X162896484Y-53742000D01*
X161296484Y-50550000D02*
X161296484Y-52300000D01*
X156155243Y-51501000D02*
X156785243Y-51501000D01*
X161696484Y-54380000D02*
X161696484Y-55856000D01*
X162176484Y-51296000D02*
X162176484Y-55384000D01*
X161376484Y-50598000D02*
X161376484Y-52300000D01*
X159935484Y-50122000D02*
X159935484Y-52300000D01*
X160215484Y-54380000D02*
X160215484Y-56522000D01*
X161456484Y-50650000D02*
X161456484Y-52300000D01*
X161936484Y-54380000D02*
X161936484Y-55645000D01*
X160656484Y-54380000D02*
X160656484Y-56414000D01*
X160095484Y-54380000D02*
X160095484Y-56541000D01*
X162776484Y-52400000D02*
X162776484Y-54280000D01*
X159935484Y-54380000D02*
X159935484Y-56558000D01*
X162256484Y-51396000D02*
X162256484Y-55284000D01*
X160055484Y-54380000D02*
X160055484Y-56546000D01*
X162376484Y-51564000D02*
X162376484Y-55116000D01*
X160456484Y-50209000D02*
X160456484Y-52300000D01*
X161496484Y-54380000D02*
X161496484Y-56004000D01*
X161296484Y-54380000D02*
X161296484Y-56130000D01*
X160816484Y-54380000D02*
X160816484Y-56358000D01*
X160536484Y-54380000D02*
X160536484Y-56450000D01*
X161576484Y-50733000D02*
X161576484Y-52300000D01*
X160255484Y-54380000D02*
X160255484Y-56515000D01*
X162536484Y-51831000D02*
X162536484Y-54849000D01*
X159655484Y-50110000D02*
X159655484Y-56570000D01*
X159895484Y-50118000D02*
X159895484Y-52300000D01*
X162856484Y-52707000D02*
X162856484Y-53973000D01*
X160175484Y-50151000D02*
X160175484Y-52300000D01*
X161136484Y-54380000D02*
X161136484Y-56216000D01*
X159975484Y-50125000D02*
X159975484Y-52300000D01*
X162016484Y-51116000D02*
X162016484Y-55564000D01*
X156470243Y-51186000D02*
X156470243Y-51816000D01*
X161616484Y-54380000D02*
X161616484Y-55918000D01*
X159775484Y-50112000D02*
X159775484Y-56568000D01*
X162416484Y-51626000D02*
X162416484Y-55054000D01*
X161896484Y-50997000D02*
X161896484Y-52300000D01*
X160536484Y-50230000D02*
X160536484Y-52300000D01*
X160856484Y-50338000D02*
X160856484Y-52300000D01*
X161736484Y-54380000D02*
X161736484Y-55824000D01*
X161776484Y-54380000D02*
X161776484Y-55790000D01*
X162056484Y-51158000D02*
X162056484Y-55522000D01*
X162096484Y-51203000D02*
X162096484Y-55477000D01*
X160295484Y-50173000D02*
X160295484Y-52300000D01*
X161816484Y-54380000D02*
X161816484Y-55756000D01*
X160776484Y-50307000D02*
X160776484Y-52300000D01*
X161536484Y-54380000D02*
X161536484Y-55976000D01*
X160015484Y-54380000D02*
X160015484Y-56551000D01*
X162816484Y-52538000D02*
X162816484Y-54142000D01*
X159895484Y-54380000D02*
X159895484Y-56562000D01*
X161896484Y-54380000D02*
X161896484Y-55683000D01*
X159735484Y-50110000D02*
X159735484Y-56570000D01*
X160135484Y-54380000D02*
X160135484Y-56535000D01*
X160175484Y-54380000D02*
X160175484Y-56529000D01*
X161176484Y-50484000D02*
X161176484Y-52300000D01*
X159975484Y-54380000D02*
X159975484Y-56555000D01*
X161496484Y-50676000D02*
X161496484Y-52300000D01*
X160496484Y-54380000D02*
X160496484Y-56461000D01*
X160215484Y-50158000D02*
X160215484Y-52300000D01*
X161656484Y-54380000D02*
X161656484Y-55888000D01*
X160696484Y-50279000D02*
X160696484Y-52300000D01*
X160456484Y-54380000D02*
X160456484Y-56471000D01*
X159815484Y-50113000D02*
X159815484Y-56567000D01*
X160936484Y-54380000D02*
X160936484Y-56310000D01*
X160416484Y-50199000D02*
X160416484Y-52300000D01*
X161376484Y-54380000D02*
X161376484Y-56082000D01*
X161256484Y-54380000D02*
X161256484Y-56152000D01*
X160776484Y-54380000D02*
X160776484Y-56373000D01*
X161816484Y-50924000D02*
X161816484Y-52300000D01*
X161016484Y-50406000D02*
X161016484Y-52300000D01*
X161176484Y-54380000D02*
X161176484Y-56196000D01*
X162496484Y-51759000D02*
X162496484Y-54921000D01*
X161536484Y-50704000D02*
X161536484Y-52300000D01*
X160295484Y-54380000D02*
X160295484Y-56507000D01*
X161336484Y-50574000D02*
X161336484Y-52300000D01*
X161776484Y-50890000D02*
X161776484Y-52300000D01*
X160376484Y-50190000D02*
X160376484Y-52300000D01*
X161096484Y-50444000D02*
X161096484Y-52300000D01*
X160015484Y-50129000D02*
X160015484Y-52300000D01*
X160736484Y-54380000D02*
X160736484Y-56387000D01*
X161216484Y-54380000D02*
X161216484Y-56174000D01*
X161936484Y-51035000D02*
X161936484Y-52300000D01*
X161056484Y-50424000D02*
X161056484Y-52300000D01*
X160055484Y-50134000D02*
X160055484Y-52300000D01*
X162136484Y-51248000D02*
X162136484Y-55432000D01*
X160416484Y-54380000D02*
X160416484Y-56481000D01*
X162336484Y-51506000D02*
X162336484Y-55174000D01*
X160616484Y-50254000D02*
X160616484Y-52300000D01*
X161616484Y-50762000D02*
X161616484Y-52300000D01*
X159695484Y-50110000D02*
X159695484Y-56570000D01*
X161136484Y-50464000D02*
X161136484Y-52300000D01*
X161656484Y-50792000D02*
X161656484Y-52300000D01*
X160255484Y-50165000D02*
X160255484Y-52300000D01*
X162296484Y-51450000D02*
X162296484Y-55230000D01*
X160616484Y-54380000D02*
X160616484Y-56426000D01*
X160135484Y-50145000D02*
X160135484Y-52300000D01*
X161856484Y-50960000D02*
X161856484Y-52300000D01*
X161016484Y-54380000D02*
X161016484Y-56274000D01*
X160576484Y-50242000D02*
X160576484Y-52300000D01*
X161096484Y-54380000D02*
X161096484Y-56236000D01*
X161576484Y-54380000D02*
X161576484Y-55947000D01*
X162216484Y-51345000D02*
X162216484Y-55335000D01*
X160656484Y-50266000D02*
X160656484Y-52300000D01*
X161216484Y-50506000D02*
X161216484Y-52300000D01*
X160496484Y-50219000D02*
X160496484Y-52300000D01*
X162696484Y-52175000D02*
X162696484Y-54505000D01*
X160976484Y-50388000D02*
X160976484Y-52300000D01*
X161416484Y-50624000D02*
X161416484Y-52300000D01*
X160736484Y-50293000D02*
X160736484Y-52300000D01*
X160335484Y-54380000D02*
X160335484Y-56499000D01*
X162616484Y-51990000D02*
X162616484Y-54690000D01*
X162576484Y-51908000D02*
X162576484Y-54772000D01*
X160936484Y-50370000D02*
X160936484Y-52300000D01*
X160816484Y-50322000D02*
X160816484Y-52300000D01*
X161256484Y-50528000D02*
X161256484Y-52300000D01*
X161736484Y-50856000D02*
X161736484Y-52300000D01*
X161456484Y-54380000D02*
X161456484Y-56030000D01*
X159855484Y-50116000D02*
X159855484Y-56564000D01*
X160896484Y-50354000D02*
X160896484Y-52300000D01*
X162656484Y-52078000D02*
X162656484Y-54602000D01*
X162925484Y-53340000D02*
G75*
G03*
X162925484Y-53340000I-3270000J0D01*
G01*
%TO.C,R9*%
X144729564Y-118845000D02*
X144275436Y-118845000D01*
X144729564Y-117375000D02*
X144275436Y-117375000D01*
%TO.C,R6*%
X145642064Y-66140000D02*
X145187936Y-66140000D01*
X145642064Y-64670000D02*
X145187936Y-64670000D01*
D12*
%TO.C,U5*%
X144980000Y-61140000D02*
X144580000Y-61140000D01*
X144980000Y-58240000D02*
X144980000Y-61140000D01*
X144580000Y-61140000D02*
X144580000Y-58240000D01*
X146630000Y-61190000D02*
X145330000Y-61190000D01*
X144580000Y-58240000D02*
X144980000Y-58240000D01*
D13*
%TO.C,R16*%
X156975436Y-65305000D02*
X157429564Y-65305000D01*
X156975436Y-66775000D02*
X157429564Y-66775000D01*
%TD*%
M02*
