%TF.GenerationSoftware,KiCad,Pcbnew,6.0.11+dfsg-1*%
%TF.CreationDate,2025-03-14T20:35:24-04:00*%
%TF.ProjectId,quadcopter,71756164-636f-4707-9465-722e6b696361,rev?*%
%TF.SameCoordinates,Original*%
%TF.FileFunction,Soldermask,Top*%
%TF.FilePolarity,Negative*%
%FSLAX46Y46*%
G04 Gerber Fmt 4.6, Leading zero omitted, Abs format (unit mm)*
G04 Created by KiCad (PCBNEW 6.0.11+dfsg-1) date 2025-03-14 20:35:24*
%MOMM*%
%LPD*%
G01*
G04 APERTURE LIST*
G04 Aperture macros list*
%AMRoundRect*
0 Rectangle with rounded corners*
0 $1 Rounding radius*
0 $2 $3 $4 $5 $6 $7 $8 $9 X,Y pos of 4 corners*
0 Add a 4 corners polygon primitive as box body*
4,1,4,$2,$3,$4,$5,$6,$7,$8,$9,$2,$3,0*
0 Add four circle primitives for the rounded corners*
1,1,$1+$1,$2,$3*
1,1,$1+$1,$4,$5*
1,1,$1+$1,$6,$7*
1,1,$1+$1,$8,$9*
0 Add four rect primitives between the rounded corners*
20,1,$1+$1,$2,$3,$4,$5,0*
20,1,$1+$1,$4,$5,$6,$7,0*
20,1,$1+$1,$6,$7,$8,$9,0*
20,1,$1+$1,$8,$9,$2,$3,0*%
%AMFreePoly0*
4,1,48,0.657385,0.758754,0.662055,0.759085,0.664566,0.757713,0.671070,0.756770,0.697342,0.739806,0.724803,0.724803,1.359803,0.089802,1.381610,0.060599,1.383542,0.051625,1.389035,0.044269,1.390951,0.017212,1.396659,-0.009302,1.393437,-0.017898,1.394085,-0.027054,1.381082,-0.050854,1.371560,-0.076254,1.364204,-0.081747,1.359803,-0.089802,0.724803,-0.724803,0.706679,-0.738336,
0.703611,-0.741872,0.700866,-0.742677,0.695599,-0.746610,0.665023,-0.753192,0.635000,-0.762000,0.000000,-0.762000,-0.006861,-0.761005,-0.015958,-0.761833,-0.184344,-0.739365,-0.343569,-0.680150,-0.485717,-0.587131,-0.603725,-0.464931,-0.691726,-0.319622,-0.745348,-0.158429,-0.761926,0.010639,-0.740634,0.179178,-0.682532,0.338812,-0.590508,0.481606,-0.469134,0.600464,-0.324444,0.689478,
-0.163628,0.744224,-0.021304,0.759183,-0.017894,0.760733,-0.013128,0.760042,-0.003071,0.761099,0.000000,0.762000,0.635000,0.762000,0.657385,0.758754,0.657385,0.758754,$1*%
%AMFreePoly1*
4,1,49,0.002312,0.761665,0.005320,0.761981,0.174003,0.741867,0.334039,0.684881,0.477472,0.593856,0.597174,0.473315,0.687196,0.329249,0.743064,0.168820,0.762000,0.000000,0.761703,-0.021276,0.738060,-0.189502,0.677735,-0.348309,0.583726,-0.489804,0.460705,-0.606956,0.314786,-0.693941,0.153221,-0.746436,0.023340,-0.758256,0.017894,-0.760733,0.009500,-0.759516,0.008003,-0.759652,
0.000000,-0.762000,-0.635000,-0.762000,-0.657384,-0.758754,-0.662054,-0.759085,-0.664565,-0.757713,-0.671070,-0.756770,-0.697347,-0.739803,-0.724802,-0.724803,-1.359803,-0.089803,-1.381610,-0.060599,-1.383542,-0.051624,-1.389035,-0.044268,-1.390951,-0.017209,-1.396658,0.009301,-1.393436,0.017895,-1.394085,0.027055,-1.381079,0.050860,-1.371560,0.076254,-1.364205,0.081746,-1.359803,0.089803,
-0.724802,0.724803,-0.706680,0.738336,-0.703611,0.741872,-0.700865,0.742678,-0.695599,0.746610,-0.665018,0.753194,-0.635000,0.762000,0.000000,0.762000,0.002312,0.761665,0.002312,0.761665,$1*%
%AMFreePoly2*
4,1,20,0.635000,0.000000,0.634861,-0.013298,0.613363,-0.164350,0.556455,-0.305914,0.467422,-0.429816,0.351404,-0.528905,0.215099,-0.597459,0.066376,-0.631521,-0.086179,-0.629125,-0.233759,-0.590408,-0.367844,-0.517606,-0.480692,-0.414922,-0.565789,-0.288284,-0.618223,-0.145003,-0.634231,0.000000,-0.635000,0.000000,-0.635000,1.905000,0.000000,1.270000,0.635000,1.905000,0.635000,0.000000,
0.635000,0.000000,$1*%
%AMFreePoly3*
4,1,20,0.635000,1.270000,0.635000,0.000000,0.634861,-0.013298,0.613363,-0.164350,0.556455,-0.305914,0.467422,-0.429816,0.351404,-0.528905,0.215099,-0.597459,0.066376,-0.631521,-0.086179,-0.629125,-0.233759,-0.590408,-0.367844,-0.517606,-0.480692,-0.414922,-0.565789,-0.288284,-0.618223,-0.145003,-0.634231,0.000000,-0.635000,0.000000,-0.635000,1.270000,0.000000,1.905000,0.635000,1.270000,
0.635000,1.270000,$1*%
G04 Aperture macros list end*
%ADD10C,1.524000*%
%ADD11FreePoly0,0.000000*%
%ADD12RoundRect,0.381000X-0.381000X-0.381000X0.381000X-0.381000X0.381000X0.381000X-0.381000X0.381000X0*%
%ADD13FreePoly1,0.000000*%
%ADD14FreePoly2,90.000000*%
%ADD15FreePoly3,90.000000*%
%ADD16R,1.300000X0.600000*%
%ADD17R,1.880000X1.100000*%
%ADD18RoundRect,0.250000X-0.262500X-0.450000X0.262500X-0.450000X0.262500X0.450000X-0.262500X0.450000X0*%
%ADD19RoundRect,0.100000X0.130000X0.100000X-0.130000X0.100000X-0.130000X-0.100000X0.130000X-0.100000X0*%
%ADD20RoundRect,0.250000X0.262500X0.450000X-0.262500X0.450000X-0.262500X-0.450000X0.262500X-0.450000X0*%
%ADD21R,0.300000X0.300000*%
%ADD22RoundRect,0.100000X-0.130000X-0.100000X0.130000X-0.100000X0.130000X0.100000X-0.130000X0.100000X0*%
%ADD23R,1.493000X1.493000*%
%ADD24C,1.493000*%
%ADD25C,1.600000*%
%ADD26O,1.600000X1.600000*%
%ADD27R,1.600000X1.600000*%
%ADD28C,1.247000*%
G04 APERTURE END LIST*
D10*
%TO.C,U3*%
X141039759Y-69525000D03*
D11*
X141039759Y-72065000D03*
D10*
X141039759Y-74605000D03*
D12*
X141039759Y-77145000D03*
D10*
X141039759Y-79685000D03*
X141039759Y-82225000D03*
X141039759Y-84765000D03*
X141039759Y-87305000D03*
X141039759Y-89845000D03*
X141039759Y-92385000D03*
X141039759Y-94925000D03*
X141039759Y-97465000D03*
X141039759Y-100005000D03*
X141039759Y-102545000D03*
X141039759Y-105085000D03*
X141039759Y-107625000D03*
X161359759Y-107625000D03*
X161359759Y-105085000D03*
X161359759Y-102545000D03*
X161359759Y-100005000D03*
X161359759Y-97465000D03*
X161359759Y-94925000D03*
X161359759Y-92385000D03*
X161359759Y-89845000D03*
X161359759Y-87305000D03*
D13*
X161359759Y-84765000D03*
D10*
X161359759Y-82225000D03*
D13*
X161359759Y-79685000D03*
D14*
X161359759Y-113975000D03*
D15*
X161359759Y-111435000D03*
%TD*%
D16*
%TO.C,U9*%
X155693708Y-59050000D03*
X155693708Y-60950000D03*
X158093708Y-60000000D03*
%TD*%
D17*
%TO.C,D2*%
X140970000Y-117645000D03*
X140970000Y-113495000D03*
%TD*%
D18*
%TO.C,R19*%
X155932500Y-118745000D03*
X157757500Y-118745000D03*
%TD*%
D17*
%TO.C,D4*%
X160655000Y-120495000D03*
X160655000Y-116345000D03*
%TD*%
D19*
%TO.C,R2*%
X148620000Y-113030000D03*
X147980000Y-113030000D03*
%TD*%
D20*
%TO.C,R8*%
X145415000Y-120015000D03*
X143590000Y-120015000D03*
%TD*%
D21*
%TO.C,C3*%
X149560000Y-55880000D03*
X150160000Y-55880000D03*
%TD*%
D22*
%TO.C,R12*%
X152415000Y-115570000D03*
X153055000Y-115570000D03*
%TD*%
D17*
%TO.C,D1*%
X140970000Y-63765000D03*
X140970000Y-59615000D03*
%TD*%
D16*
%TO.C,U10*%
X155010000Y-113940000D03*
X155010000Y-115840000D03*
X157410000Y-114890000D03*
%TD*%
D19*
%TO.C,R13*%
X154025000Y-59740000D03*
X153385000Y-59740000D03*
%TD*%
D17*
%TO.C,D3*%
X161290000Y-63908500D03*
X161290000Y-59758500D03*
%TD*%
D23*
%TO.C,U11*%
X165765000Y-63500000D03*
D24*
X165765000Y-60900000D03*
%TD*%
D19*
%TO.C,R4*%
X148610000Y-114300000D03*
X147970000Y-114300000D03*
%TD*%
D18*
%TO.C,R18*%
X155932500Y-120650000D03*
X157757500Y-120650000D03*
%TD*%
D25*
%TO.C,R20*%
X164465000Y-95885000D03*
D26*
X164465000Y-108585000D03*
%TD*%
D27*
%TO.C,C1*%
X141369315Y-53340000D03*
D25*
X143869315Y-53340000D03*
%TD*%
D16*
%TO.C,U6*%
X145980000Y-114615000D03*
X145980000Y-112715000D03*
X143580000Y-113665000D03*
%TD*%
D25*
%TO.C,R7*%
X137795000Y-80010000D03*
D26*
X137795000Y-67310000D03*
%TD*%
D21*
%TO.C,C4*%
X154005000Y-55880000D03*
X154605000Y-55880000D03*
%TD*%
D20*
%TO.C,R5*%
X146327500Y-63500000D03*
X144502500Y-63500000D03*
%TD*%
D28*
%TO.C,U13*%
X148868500Y-51776000D03*
X151368500Y-51776000D03*
X153868500Y-51776000D03*
%TD*%
D19*
%TO.C,R11*%
X154025000Y-60960000D03*
X153385000Y-60960000D03*
%TD*%
D18*
%TO.C,R15*%
X156290000Y-63520000D03*
X158115000Y-63520000D03*
%TD*%
D25*
%TO.C,R10*%
X137795000Y-97155000D03*
D26*
X137795000Y-109855000D03*
%TD*%
D22*
%TO.C,R14*%
X152380000Y-114265000D03*
X153020000Y-114265000D03*
%TD*%
D25*
%TO.C,R17*%
X164465000Y-80010000D03*
D26*
X164465000Y-67310000D03*
%TD*%
D27*
%TO.C,C2*%
X158405484Y-53340000D03*
D25*
X160905484Y-53340000D03*
%TD*%
D23*
%TO.C,U8*%
X136555000Y-117271500D03*
D24*
X136555000Y-114671500D03*
%TD*%
D20*
%TO.C,R9*%
X145415000Y-118110000D03*
X143590000Y-118110000D03*
%TD*%
D19*
%TO.C,R3*%
X148945000Y-61060000D03*
X148305000Y-61060000D03*
%TD*%
D23*
%TO.C,U12*%
X165765000Y-116636500D03*
D24*
X165765000Y-114036500D03*
%TD*%
D20*
%TO.C,R6*%
X146327500Y-65405000D03*
X144502500Y-65405000D03*
%TD*%
D23*
%TO.C,U2*%
X148193500Y-46355000D03*
D10*
X150733500Y-46355000D03*
X153273500Y-46355000D03*
%TD*%
D23*
%TO.C,U4*%
X157683500Y-47370000D03*
D24*
X160283500Y-47370000D03*
%TD*%
D16*
%TO.C,U5*%
X145980000Y-60640000D03*
X145980000Y-58740000D03*
X143580000Y-59690000D03*
%TD*%
D22*
%TO.C,R1*%
X148240000Y-59690000D03*
X148880000Y-59690000D03*
%TD*%
D23*
%TO.C,U1*%
X141506759Y-125945000D03*
D24*
X144106759Y-125945000D03*
X146706759Y-125945000D03*
X149126759Y-125945000D03*
X151666759Y-125945000D03*
D10*
X154206759Y-125945000D03*
X156746759Y-125945000D03*
X159286759Y-125945000D03*
%TD*%
D18*
%TO.C,R16*%
X156290000Y-66040000D03*
X158115000Y-66040000D03*
%TD*%
D23*
%TO.C,U7*%
X136555000Y-63500000D03*
D24*
X136555000Y-60900000D03*
%TD*%
M02*
