%TF.GenerationSoftware,KiCad,Pcbnew,6.0.11+dfsg-1*%
%TF.CreationDate,2025-03-14T20:35:24-04:00*%
%TF.ProjectId,quadcopter,71756164-636f-4707-9465-722e6b696361,rev?*%
%TF.SameCoordinates,Original*%
%TF.FileFunction,Paste,Top*%
%TF.FilePolarity,Positive*%
%FSLAX46Y46*%
G04 Gerber Fmt 4.6, Leading zero omitted, Abs format (unit mm)*
G04 Created by KiCad (PCBNEW 6.0.11+dfsg-1) date 2025-03-14 20:35:24*
%MOMM*%
%LPD*%
G01*
G04 APERTURE LIST*
G04 Aperture macros list*
%AMRoundRect*
0 Rectangle with rounded corners*
0 $1 Rounding radius*
0 $2 $3 $4 $5 $6 $7 $8 $9 X,Y pos of 4 corners*
0 Add a 4 corners polygon primitive as box body*
4,1,4,$2,$3,$4,$5,$6,$7,$8,$9,$2,$3,0*
0 Add four circle primitives for the rounded corners*
1,1,$1+$1,$2,$3*
1,1,$1+$1,$4,$5*
1,1,$1+$1,$6,$7*
1,1,$1+$1,$8,$9*
0 Add four rect primitives between the rounded corners*
20,1,$1+$1,$2,$3,$4,$5,0*
20,1,$1+$1,$4,$5,$6,$7,0*
20,1,$1+$1,$6,$7,$8,$9,0*
20,1,$1+$1,$8,$9,$2,$3,0*%
G04 Aperture macros list end*
%ADD10R,1.300000X0.600000*%
%ADD11R,1.880000X1.100000*%
%ADD12RoundRect,0.250000X-0.262500X-0.450000X0.262500X-0.450000X0.262500X0.450000X-0.262500X0.450000X0*%
%ADD13RoundRect,0.079500X0.079500X0.100500X-0.079500X0.100500X-0.079500X-0.100500X0.079500X-0.100500X0*%
%ADD14RoundRect,0.250000X0.262500X0.450000X-0.262500X0.450000X-0.262500X-0.450000X0.262500X-0.450000X0*%
%ADD15R,0.300000X0.300000*%
%ADD16RoundRect,0.079500X-0.079500X-0.100500X0.079500X-0.100500X0.079500X0.100500X-0.079500X0.100500X0*%
G04 APERTURE END LIST*
D10*
%TO.C,U9*%
X155693708Y-59050000D03*
X155693708Y-60950000D03*
X158093708Y-60000000D03*
%TD*%
D11*
%TO.C,D2*%
X140970000Y-117645000D03*
X140970000Y-113495000D03*
%TD*%
D12*
%TO.C,R19*%
X155932500Y-118745000D03*
X157757500Y-118745000D03*
%TD*%
D11*
%TO.C,D4*%
X160655000Y-120495000D03*
X160655000Y-116345000D03*
%TD*%
D13*
%TO.C,R2*%
X148645000Y-113030000D03*
X147955000Y-113030000D03*
%TD*%
D14*
%TO.C,R8*%
X145415000Y-120015000D03*
X143590000Y-120015000D03*
%TD*%
D15*
%TO.C,C3*%
X149560000Y-55880000D03*
X150160000Y-55880000D03*
%TD*%
D16*
%TO.C,R12*%
X153080000Y-115570000D03*
X152390000Y-115570000D03*
%TD*%
D11*
%TO.C,D1*%
X140970000Y-63765000D03*
X140970000Y-59615000D03*
%TD*%
D10*
%TO.C,U10*%
X155010000Y-113940000D03*
X155010000Y-115840000D03*
X157410000Y-114890000D03*
%TD*%
D13*
%TO.C,R13*%
X153360000Y-59740000D03*
X154050000Y-59740000D03*
%TD*%
D11*
%TO.C,D3*%
X161290000Y-63908500D03*
X161290000Y-59758500D03*
%TD*%
D13*
%TO.C,R4*%
X147945000Y-114300000D03*
X148635000Y-114300000D03*
%TD*%
D12*
%TO.C,R18*%
X155932500Y-120650000D03*
X157757500Y-120650000D03*
%TD*%
D10*
%TO.C,U6*%
X145980000Y-114615000D03*
X145980000Y-112715000D03*
X143580000Y-113665000D03*
%TD*%
D15*
%TO.C,C4*%
X154005000Y-55880000D03*
X154605000Y-55880000D03*
%TD*%
D14*
%TO.C,R5*%
X146327500Y-63500000D03*
X144502500Y-63500000D03*
%TD*%
D13*
%TO.C,R11*%
X154050000Y-60960000D03*
X153360000Y-60960000D03*
%TD*%
D12*
%TO.C,R15*%
X156290000Y-63520000D03*
X158115000Y-63520000D03*
%TD*%
D16*
%TO.C,R14*%
X152355000Y-114265000D03*
X153045000Y-114265000D03*
%TD*%
D14*
%TO.C,R9*%
X145415000Y-118110000D03*
X143590000Y-118110000D03*
%TD*%
D13*
%TO.C,R3*%
X148970000Y-61060000D03*
X148280000Y-61060000D03*
%TD*%
D14*
%TO.C,R6*%
X146327500Y-65405000D03*
X144502500Y-65405000D03*
%TD*%
D10*
%TO.C,U5*%
X145980000Y-60640000D03*
X145980000Y-58740000D03*
X143580000Y-59690000D03*
%TD*%
D16*
%TO.C,R1*%
X148905000Y-59690000D03*
X148215000Y-59690000D03*
%TD*%
D12*
%TO.C,R16*%
X156290000Y-66040000D03*
X158115000Y-66040000D03*
%TD*%
M02*
