%TF.GenerationSoftware,KiCad,Pcbnew,6.0.11+dfsg-1*%
%TF.CreationDate,2025-03-25T22:51:24-04:00*%
%TF.ProjectId,quad_unibody,71756164-5f75-46e6-9962-6f64792e6b69,rev?*%
%TF.SameCoordinates,Original*%
%TF.FileFunction,Legend,Top*%
%TF.FilePolarity,Positive*%
%FSLAX46Y46*%
G04 Gerber Fmt 4.6, Leading zero omitted, Abs format (unit mm)*
G04 Created by KiCad (PCBNEW 6.0.11+dfsg-1) date 2025-03-25 22:51:24*
%MOMM*%
%LPD*%
G01*
G04 APERTURE LIST*
%ADD10C,0.150000*%
%ADD11C,0.254000*%
%ADD12C,0.120000*%
%ADD13C,0.200000*%
%ADD14C,0.127000*%
%ADD15C,0.100000*%
G04 APERTURE END LIST*
D10*
%TO.C,R30*%
X157853142Y-130754380D02*
X157519809Y-130278190D01*
X157281714Y-130754380D02*
X157281714Y-129754380D01*
X157662666Y-129754380D01*
X157757904Y-129802000D01*
X157805523Y-129849619D01*
X157853142Y-129944857D01*
X157853142Y-130087714D01*
X157805523Y-130182952D01*
X157757904Y-130230571D01*
X157662666Y-130278190D01*
X157281714Y-130278190D01*
X158186476Y-129754380D02*
X158805523Y-129754380D01*
X158472190Y-130135333D01*
X158615047Y-130135333D01*
X158710285Y-130182952D01*
X158757904Y-130230571D01*
X158805523Y-130325809D01*
X158805523Y-130563904D01*
X158757904Y-130659142D01*
X158710285Y-130706761D01*
X158615047Y-130754380D01*
X158329333Y-130754380D01*
X158234095Y-130706761D01*
X158186476Y-130659142D01*
X159424571Y-129754380D02*
X159519809Y-129754380D01*
X159615047Y-129802000D01*
X159662666Y-129849619D01*
X159710285Y-129944857D01*
X159757904Y-130135333D01*
X159757904Y-130373428D01*
X159710285Y-130563904D01*
X159662666Y-130659142D01*
X159615047Y-130706761D01*
X159519809Y-130754380D01*
X159424571Y-130754380D01*
X159329333Y-130706761D01*
X159281714Y-130659142D01*
X159234095Y-130563904D01*
X159186476Y-130373428D01*
X159186476Y-130135333D01*
X159234095Y-129944857D01*
X159281714Y-129849619D01*
X159329333Y-129802000D01*
X159424571Y-129754380D01*
%TO.C,R29*%
X147693142Y-128722380D02*
X147359809Y-128246190D01*
X147121714Y-128722380D02*
X147121714Y-127722380D01*
X147502666Y-127722380D01*
X147597904Y-127770000D01*
X147645523Y-127817619D01*
X147693142Y-127912857D01*
X147693142Y-128055714D01*
X147645523Y-128150952D01*
X147597904Y-128198571D01*
X147502666Y-128246190D01*
X147121714Y-128246190D01*
X148074095Y-127817619D02*
X148121714Y-127770000D01*
X148216952Y-127722380D01*
X148455047Y-127722380D01*
X148550285Y-127770000D01*
X148597904Y-127817619D01*
X148645523Y-127912857D01*
X148645523Y-128008095D01*
X148597904Y-128150952D01*
X148026476Y-128722380D01*
X148645523Y-128722380D01*
X149121714Y-128722380D02*
X149312190Y-128722380D01*
X149407428Y-128674761D01*
X149455047Y-128627142D01*
X149550285Y-128484285D01*
X149597904Y-128293809D01*
X149597904Y-127912857D01*
X149550285Y-127817619D01*
X149502666Y-127770000D01*
X149407428Y-127722380D01*
X149216952Y-127722380D01*
X149121714Y-127770000D01*
X149074095Y-127817619D01*
X149026476Y-127912857D01*
X149026476Y-128150952D01*
X149074095Y-128246190D01*
X149121714Y-128293809D01*
X149216952Y-128341428D01*
X149407428Y-128341428D01*
X149502666Y-128293809D01*
X149550285Y-128246190D01*
X149597904Y-128150952D01*
%TO.C,R28*%
X146423142Y-127897380D02*
X146089809Y-127421190D01*
X145851714Y-127897380D02*
X145851714Y-126897380D01*
X146232666Y-126897380D01*
X146327904Y-126945000D01*
X146375523Y-126992619D01*
X146423142Y-127087857D01*
X146423142Y-127230714D01*
X146375523Y-127325952D01*
X146327904Y-127373571D01*
X146232666Y-127421190D01*
X145851714Y-127421190D01*
X146804095Y-126992619D02*
X146851714Y-126945000D01*
X146946952Y-126897380D01*
X147185047Y-126897380D01*
X147280285Y-126945000D01*
X147327904Y-126992619D01*
X147375523Y-127087857D01*
X147375523Y-127183095D01*
X147327904Y-127325952D01*
X146756476Y-127897380D01*
X147375523Y-127897380D01*
X147946952Y-127325952D02*
X147851714Y-127278333D01*
X147804095Y-127230714D01*
X147756476Y-127135476D01*
X147756476Y-127087857D01*
X147804095Y-126992619D01*
X147851714Y-126945000D01*
X147946952Y-126897380D01*
X148137428Y-126897380D01*
X148232666Y-126945000D01*
X148280285Y-126992619D01*
X148327904Y-127087857D01*
X148327904Y-127135476D01*
X148280285Y-127230714D01*
X148232666Y-127278333D01*
X148137428Y-127325952D01*
X147946952Y-127325952D01*
X147851714Y-127373571D01*
X147804095Y-127421190D01*
X147756476Y-127516428D01*
X147756476Y-127706904D01*
X147804095Y-127802142D01*
X147851714Y-127849761D01*
X147946952Y-127897380D01*
X148137428Y-127897380D01*
X148232666Y-127849761D01*
X148280285Y-127802142D01*
X148327904Y-127706904D01*
X148327904Y-127516428D01*
X148280285Y-127421190D01*
X148232666Y-127373571D01*
X148137428Y-127325952D01*
%TO.C,C3*%
X136231333Y-115927142D02*
X136183714Y-115974761D01*
X136040857Y-116022380D01*
X135945619Y-116022380D01*
X135802761Y-115974761D01*
X135707523Y-115879523D01*
X135659904Y-115784285D01*
X135612285Y-115593809D01*
X135612285Y-115450952D01*
X135659904Y-115260476D01*
X135707523Y-115165238D01*
X135802761Y-115070000D01*
X135945619Y-115022380D01*
X136040857Y-115022380D01*
X136183714Y-115070000D01*
X136231333Y-115117619D01*
X136564666Y-115022380D02*
X137183714Y-115022380D01*
X136850380Y-115403333D01*
X136993238Y-115403333D01*
X137088476Y-115450952D01*
X137136095Y-115498571D01*
X137183714Y-115593809D01*
X137183714Y-115831904D01*
X137136095Y-115927142D01*
X137088476Y-115974761D01*
X136993238Y-116022380D01*
X136707523Y-116022380D01*
X136612285Y-115974761D01*
X136564666Y-115927142D01*
%TO.C,C4*%
X145763333Y-140737142D02*
X145715714Y-140784761D01*
X145572857Y-140832380D01*
X145477619Y-140832380D01*
X145334761Y-140784761D01*
X145239523Y-140689523D01*
X145191904Y-140594285D01*
X145144285Y-140403809D01*
X145144285Y-140260952D01*
X145191904Y-140070476D01*
X145239523Y-139975238D01*
X145334761Y-139880000D01*
X145477619Y-139832380D01*
X145572857Y-139832380D01*
X145715714Y-139880000D01*
X145763333Y-139927619D01*
X146620476Y-140165714D02*
X146620476Y-140832380D01*
X146382380Y-139784761D02*
X146144285Y-140499047D01*
X146763333Y-140499047D01*
%TO.C,C5*%
X142597142Y-118022666D02*
X142644761Y-118070285D01*
X142692380Y-118213142D01*
X142692380Y-118308380D01*
X142644761Y-118451238D01*
X142549523Y-118546476D01*
X142454285Y-118594095D01*
X142263809Y-118641714D01*
X142120952Y-118641714D01*
X141930476Y-118594095D01*
X141835238Y-118546476D01*
X141740000Y-118451238D01*
X141692380Y-118308380D01*
X141692380Y-118213142D01*
X141740000Y-118070285D01*
X141787619Y-118022666D01*
X141692380Y-117117904D02*
X141692380Y-117594095D01*
X142168571Y-117641714D01*
X142120952Y-117594095D01*
X142073333Y-117498857D01*
X142073333Y-117260761D01*
X142120952Y-117165523D01*
X142168571Y-117117904D01*
X142263809Y-117070285D01*
X142501904Y-117070285D01*
X142597142Y-117117904D01*
X142644761Y-117165523D01*
X142692380Y-117260761D01*
X142692380Y-117498857D01*
X142644761Y-117594095D01*
X142597142Y-117641714D01*
%TO.C,C6*%
X151217333Y-103227142D02*
X151169714Y-103274761D01*
X151026857Y-103322380D01*
X150931619Y-103322380D01*
X150788761Y-103274761D01*
X150693523Y-103179523D01*
X150645904Y-103084285D01*
X150598285Y-102893809D01*
X150598285Y-102750952D01*
X150645904Y-102560476D01*
X150693523Y-102465238D01*
X150788761Y-102370000D01*
X150931619Y-102322380D01*
X151026857Y-102322380D01*
X151169714Y-102370000D01*
X151217333Y-102417619D01*
X152074476Y-102322380D02*
X151884000Y-102322380D01*
X151788761Y-102370000D01*
X151741142Y-102417619D01*
X151645904Y-102560476D01*
X151598285Y-102750952D01*
X151598285Y-103131904D01*
X151645904Y-103227142D01*
X151693523Y-103274761D01*
X151788761Y-103322380D01*
X151979238Y-103322380D01*
X152074476Y-103274761D01*
X152122095Y-103227142D01*
X152169714Y-103131904D01*
X152169714Y-102893809D01*
X152122095Y-102798571D01*
X152074476Y-102750952D01*
X151979238Y-102703333D01*
X151788761Y-102703333D01*
X151693523Y-102750952D01*
X151645904Y-102798571D01*
X151598285Y-102893809D01*
%TO.C,C7*%
X140803333Y-108397142D02*
X140755714Y-108444761D01*
X140612857Y-108492380D01*
X140517619Y-108492380D01*
X140374761Y-108444761D01*
X140279523Y-108349523D01*
X140231904Y-108254285D01*
X140184285Y-108063809D01*
X140184285Y-107920952D01*
X140231904Y-107730476D01*
X140279523Y-107635238D01*
X140374761Y-107540000D01*
X140517619Y-107492380D01*
X140612857Y-107492380D01*
X140755714Y-107540000D01*
X140803333Y-107587619D01*
X141136666Y-107492380D02*
X141803333Y-107492380D01*
X141374761Y-108492380D01*
%TO.C,C8*%
X144121142Y-118022666D02*
X144168761Y-118070285D01*
X144216380Y-118213142D01*
X144216380Y-118308380D01*
X144168761Y-118451238D01*
X144073523Y-118546476D01*
X143978285Y-118594095D01*
X143787809Y-118641714D01*
X143644952Y-118641714D01*
X143454476Y-118594095D01*
X143359238Y-118546476D01*
X143264000Y-118451238D01*
X143216380Y-118308380D01*
X143216380Y-118213142D01*
X143264000Y-118070285D01*
X143311619Y-118022666D01*
X143644952Y-117451238D02*
X143597333Y-117546476D01*
X143549714Y-117594095D01*
X143454476Y-117641714D01*
X143406857Y-117641714D01*
X143311619Y-117594095D01*
X143264000Y-117546476D01*
X143216380Y-117451238D01*
X143216380Y-117260761D01*
X143264000Y-117165523D01*
X143311619Y-117117904D01*
X143406857Y-117070285D01*
X143454476Y-117070285D01*
X143549714Y-117117904D01*
X143597333Y-117165523D01*
X143644952Y-117260761D01*
X143644952Y-117451238D01*
X143692571Y-117546476D01*
X143740190Y-117594095D01*
X143835428Y-117641714D01*
X144025904Y-117641714D01*
X144121142Y-117594095D01*
X144168761Y-117546476D01*
X144216380Y-117451238D01*
X144216380Y-117260761D01*
X144168761Y-117165523D01*
X144121142Y-117117904D01*
X144025904Y-117070285D01*
X143835428Y-117070285D01*
X143740190Y-117117904D01*
X143692571Y-117165523D01*
X143644952Y-117260761D01*
%TO.C,R5*%
X164442380Y-140641666D02*
X163966190Y-140975000D01*
X164442380Y-141213095D02*
X163442380Y-141213095D01*
X163442380Y-140832142D01*
X163490000Y-140736904D01*
X163537619Y-140689285D01*
X163632857Y-140641666D01*
X163775714Y-140641666D01*
X163870952Y-140689285D01*
X163918571Y-140736904D01*
X163966190Y-140832142D01*
X163966190Y-141213095D01*
X163442380Y-139736904D02*
X163442380Y-140213095D01*
X163918571Y-140260714D01*
X163870952Y-140213095D01*
X163823333Y-140117857D01*
X163823333Y-139879761D01*
X163870952Y-139784523D01*
X163918571Y-139736904D01*
X164013809Y-139689285D01*
X164251904Y-139689285D01*
X164347142Y-139736904D01*
X164394761Y-139784523D01*
X164442380Y-139879761D01*
X164442380Y-140117857D01*
X164394761Y-140213095D01*
X164347142Y-140260714D01*
%TO.C,R9*%
X138156075Y-119832380D02*
X137822742Y-119356190D01*
X137584646Y-119832380D02*
X137584646Y-118832380D01*
X137965599Y-118832380D01*
X138060837Y-118880000D01*
X138108456Y-118927619D01*
X138156075Y-119022857D01*
X138156075Y-119165714D01*
X138108456Y-119260952D01*
X138060837Y-119308571D01*
X137965599Y-119356190D01*
X137584646Y-119356190D01*
X138632265Y-119832380D02*
X138822742Y-119832380D01*
X138917980Y-119784761D01*
X138965599Y-119737142D01*
X139060837Y-119594285D01*
X139108456Y-119403809D01*
X139108456Y-119022857D01*
X139060837Y-118927619D01*
X139013218Y-118880000D01*
X138917980Y-118832380D01*
X138727503Y-118832380D01*
X138632265Y-118880000D01*
X138584646Y-118927619D01*
X138537027Y-119022857D01*
X138537027Y-119260952D01*
X138584646Y-119356190D01*
X138632265Y-119403809D01*
X138727503Y-119451428D01*
X138917980Y-119451428D01*
X139013218Y-119403809D01*
X139060837Y-119356190D01*
X139108456Y-119260952D01*
%TO.C,R12*%
X132961142Y-108910380D02*
X132627809Y-108434190D01*
X132389714Y-108910380D02*
X132389714Y-107910380D01*
X132770666Y-107910380D01*
X132865904Y-107958000D01*
X132913523Y-108005619D01*
X132961142Y-108100857D01*
X132961142Y-108243714D01*
X132913523Y-108338952D01*
X132865904Y-108386571D01*
X132770666Y-108434190D01*
X132389714Y-108434190D01*
X133913523Y-108910380D02*
X133342095Y-108910380D01*
X133627809Y-108910380D02*
X133627809Y-107910380D01*
X133532571Y-108053238D01*
X133437333Y-108148476D01*
X133342095Y-108196095D01*
X134294476Y-108005619D02*
X134342095Y-107958000D01*
X134437333Y-107910380D01*
X134675428Y-107910380D01*
X134770666Y-107958000D01*
X134818285Y-108005619D01*
X134865904Y-108100857D01*
X134865904Y-108196095D01*
X134818285Y-108338952D01*
X134246857Y-108910380D01*
X134865904Y-108910380D01*
%TO.C,R13*%
X132707142Y-107132380D02*
X132373809Y-106656190D01*
X132135714Y-107132380D02*
X132135714Y-106132380D01*
X132516666Y-106132380D01*
X132611904Y-106180000D01*
X132659523Y-106227619D01*
X132707142Y-106322857D01*
X132707142Y-106465714D01*
X132659523Y-106560952D01*
X132611904Y-106608571D01*
X132516666Y-106656190D01*
X132135714Y-106656190D01*
X133659523Y-107132380D02*
X133088095Y-107132380D01*
X133373809Y-107132380D02*
X133373809Y-106132380D01*
X133278571Y-106275238D01*
X133183333Y-106370476D01*
X133088095Y-106418095D01*
X133992857Y-106132380D02*
X134611904Y-106132380D01*
X134278571Y-106513333D01*
X134421428Y-106513333D01*
X134516666Y-106560952D01*
X134564285Y-106608571D01*
X134611904Y-106703809D01*
X134611904Y-106941904D01*
X134564285Y-107037142D01*
X134516666Y-107084761D01*
X134421428Y-107132380D01*
X134135714Y-107132380D01*
X134040476Y-107084761D01*
X133992857Y-107037142D01*
%TO.C,R14*%
X134807142Y-103322380D02*
X134473809Y-102846190D01*
X134235714Y-103322380D02*
X134235714Y-102322380D01*
X134616666Y-102322380D01*
X134711904Y-102370000D01*
X134759523Y-102417619D01*
X134807142Y-102512857D01*
X134807142Y-102655714D01*
X134759523Y-102750952D01*
X134711904Y-102798571D01*
X134616666Y-102846190D01*
X134235714Y-102846190D01*
X135759523Y-103322380D02*
X135188095Y-103322380D01*
X135473809Y-103322380D02*
X135473809Y-102322380D01*
X135378571Y-102465238D01*
X135283333Y-102560476D01*
X135188095Y-102608095D01*
X136616666Y-102655714D02*
X136616666Y-103322380D01*
X136378571Y-102274761D02*
X136140476Y-102989047D01*
X136759523Y-102989047D01*
%TO.C,R18*%
X161409142Y-114752380D02*
X161075809Y-114276190D01*
X160837714Y-114752380D02*
X160837714Y-113752380D01*
X161218666Y-113752380D01*
X161313904Y-113800000D01*
X161361523Y-113847619D01*
X161409142Y-113942857D01*
X161409142Y-114085714D01*
X161361523Y-114180952D01*
X161313904Y-114228571D01*
X161218666Y-114276190D01*
X160837714Y-114276190D01*
X162361523Y-114752380D02*
X161790095Y-114752380D01*
X162075809Y-114752380D02*
X162075809Y-113752380D01*
X161980571Y-113895238D01*
X161885333Y-113990476D01*
X161790095Y-114038095D01*
X162932952Y-114180952D02*
X162837714Y-114133333D01*
X162790095Y-114085714D01*
X162742476Y-113990476D01*
X162742476Y-113942857D01*
X162790095Y-113847619D01*
X162837714Y-113800000D01*
X162932952Y-113752380D01*
X163123428Y-113752380D01*
X163218666Y-113800000D01*
X163266285Y-113847619D01*
X163313904Y-113942857D01*
X163313904Y-113990476D01*
X163266285Y-114085714D01*
X163218666Y-114133333D01*
X163123428Y-114180952D01*
X162932952Y-114180952D01*
X162837714Y-114228571D01*
X162790095Y-114276190D01*
X162742476Y-114371428D01*
X162742476Y-114561904D01*
X162790095Y-114657142D01*
X162837714Y-114704761D01*
X162932952Y-114752380D01*
X163123428Y-114752380D01*
X163218666Y-114704761D01*
X163266285Y-114657142D01*
X163313904Y-114561904D01*
X163313904Y-114371428D01*
X163266285Y-114276190D01*
X163218666Y-114228571D01*
X163123428Y-114180952D01*
%TO.C,R19*%
X162425142Y-122626380D02*
X162091809Y-122150190D01*
X161853714Y-122626380D02*
X161853714Y-121626380D01*
X162234666Y-121626380D01*
X162329904Y-121674000D01*
X162377523Y-121721619D01*
X162425142Y-121816857D01*
X162425142Y-121959714D01*
X162377523Y-122054952D01*
X162329904Y-122102571D01*
X162234666Y-122150190D01*
X161853714Y-122150190D01*
X163377523Y-122626380D02*
X162806095Y-122626380D01*
X163091809Y-122626380D02*
X163091809Y-121626380D01*
X162996571Y-121769238D01*
X162901333Y-121864476D01*
X162806095Y-121912095D01*
X163853714Y-122626380D02*
X164044190Y-122626380D01*
X164139428Y-122578761D01*
X164187047Y-122531142D01*
X164282285Y-122388285D01*
X164329904Y-122197809D01*
X164329904Y-121816857D01*
X164282285Y-121721619D01*
X164234666Y-121674000D01*
X164139428Y-121626380D01*
X163948952Y-121626380D01*
X163853714Y-121674000D01*
X163806095Y-121721619D01*
X163758476Y-121816857D01*
X163758476Y-122054952D01*
X163806095Y-122150190D01*
X163853714Y-122197809D01*
X163948952Y-122245428D01*
X164139428Y-122245428D01*
X164234666Y-122197809D01*
X164282285Y-122150190D01*
X164329904Y-122054952D01*
%TO.C,R20*%
X161409142Y-112212380D02*
X161075809Y-111736190D01*
X160837714Y-112212380D02*
X160837714Y-111212380D01*
X161218666Y-111212380D01*
X161313904Y-111260000D01*
X161361523Y-111307619D01*
X161409142Y-111402857D01*
X161409142Y-111545714D01*
X161361523Y-111640952D01*
X161313904Y-111688571D01*
X161218666Y-111736190D01*
X160837714Y-111736190D01*
X161790095Y-111307619D02*
X161837714Y-111260000D01*
X161932952Y-111212380D01*
X162171047Y-111212380D01*
X162266285Y-111260000D01*
X162313904Y-111307619D01*
X162361523Y-111402857D01*
X162361523Y-111498095D01*
X162313904Y-111640952D01*
X161742476Y-112212380D01*
X162361523Y-112212380D01*
X162980571Y-111212380D02*
X163075809Y-111212380D01*
X163171047Y-111260000D01*
X163218666Y-111307619D01*
X163266285Y-111402857D01*
X163313904Y-111593333D01*
X163313904Y-111831428D01*
X163266285Y-112021904D01*
X163218666Y-112117142D01*
X163171047Y-112164761D01*
X163075809Y-112212380D01*
X162980571Y-112212380D01*
X162885333Y-112164761D01*
X162837714Y-112117142D01*
X162790095Y-112021904D01*
X162742476Y-111831428D01*
X162742476Y-111593333D01*
X162790095Y-111402857D01*
X162837714Y-111307619D01*
X162885333Y-111260000D01*
X162980571Y-111212380D01*
%TO.C,R22*%
X172585142Y-107640380D02*
X172251809Y-107164190D01*
X172013714Y-107640380D02*
X172013714Y-106640380D01*
X172394666Y-106640380D01*
X172489904Y-106688000D01*
X172537523Y-106735619D01*
X172585142Y-106830857D01*
X172585142Y-106973714D01*
X172537523Y-107068952D01*
X172489904Y-107116571D01*
X172394666Y-107164190D01*
X172013714Y-107164190D01*
X172966095Y-106735619D02*
X173013714Y-106688000D01*
X173108952Y-106640380D01*
X173347047Y-106640380D01*
X173442285Y-106688000D01*
X173489904Y-106735619D01*
X173537523Y-106830857D01*
X173537523Y-106926095D01*
X173489904Y-107068952D01*
X172918476Y-107640380D01*
X173537523Y-107640380D01*
X173918476Y-106735619D02*
X173966095Y-106688000D01*
X174061333Y-106640380D01*
X174299428Y-106640380D01*
X174394666Y-106688000D01*
X174442285Y-106735619D01*
X174489904Y-106830857D01*
X174489904Y-106926095D01*
X174442285Y-107068952D01*
X173870857Y-107640380D01*
X174489904Y-107640380D01*
%TO.C,R23*%
X172585142Y-106116380D02*
X172251809Y-105640190D01*
X172013714Y-106116380D02*
X172013714Y-105116380D01*
X172394666Y-105116380D01*
X172489904Y-105164000D01*
X172537523Y-105211619D01*
X172585142Y-105306857D01*
X172585142Y-105449714D01*
X172537523Y-105544952D01*
X172489904Y-105592571D01*
X172394666Y-105640190D01*
X172013714Y-105640190D01*
X172966095Y-105211619D02*
X173013714Y-105164000D01*
X173108952Y-105116380D01*
X173347047Y-105116380D01*
X173442285Y-105164000D01*
X173489904Y-105211619D01*
X173537523Y-105306857D01*
X173537523Y-105402095D01*
X173489904Y-105544952D01*
X172918476Y-106116380D01*
X173537523Y-106116380D01*
X173870857Y-105116380D02*
X174489904Y-105116380D01*
X174156571Y-105497333D01*
X174299428Y-105497333D01*
X174394666Y-105544952D01*
X174442285Y-105592571D01*
X174489904Y-105687809D01*
X174489904Y-105925904D01*
X174442285Y-106021142D01*
X174394666Y-106068761D01*
X174299428Y-106116380D01*
X174013714Y-106116380D01*
X173918476Y-106068761D01*
X173870857Y-106021142D01*
%TO.C,R24*%
X170807142Y-103322380D02*
X170473809Y-102846190D01*
X170235714Y-103322380D02*
X170235714Y-102322380D01*
X170616666Y-102322380D01*
X170711904Y-102370000D01*
X170759523Y-102417619D01*
X170807142Y-102512857D01*
X170807142Y-102655714D01*
X170759523Y-102750952D01*
X170711904Y-102798571D01*
X170616666Y-102846190D01*
X170235714Y-102846190D01*
X171188095Y-102417619D02*
X171235714Y-102370000D01*
X171330952Y-102322380D01*
X171569047Y-102322380D01*
X171664285Y-102370000D01*
X171711904Y-102417619D01*
X171759523Y-102512857D01*
X171759523Y-102608095D01*
X171711904Y-102750952D01*
X171140476Y-103322380D01*
X171759523Y-103322380D01*
X172616666Y-102655714D02*
X172616666Y-103322380D01*
X172378571Y-102274761D02*
X172140476Y-102989047D01*
X172759523Y-102989047D01*
D11*
%TO.C,U1*%
X151432380Y-136464523D02*
X151432380Y-137492619D01*
X151492857Y-137613571D01*
X151553333Y-137674047D01*
X151674285Y-137734523D01*
X151916190Y-137734523D01*
X152037142Y-137674047D01*
X152097619Y-137613571D01*
X152158095Y-137492619D01*
X152158095Y-136464523D01*
X153428095Y-137734523D02*
X152702380Y-137734523D01*
X153065238Y-137734523D02*
X153065238Y-136464523D01*
X152944285Y-136645952D01*
X152823333Y-136766904D01*
X152702380Y-136827380D01*
%TO.C,U3*%
X160322380Y-99634523D02*
X160322380Y-100662619D01*
X160382857Y-100783571D01*
X160443333Y-100844047D01*
X160564285Y-100904523D01*
X160806190Y-100904523D01*
X160927142Y-100844047D01*
X160987619Y-100783571D01*
X161048095Y-100662619D01*
X161048095Y-99634523D01*
X161531904Y-99634523D02*
X162318095Y-99634523D01*
X161894761Y-100118333D01*
X162076190Y-100118333D01*
X162197142Y-100178809D01*
X162257619Y-100239285D01*
X162318095Y-100360238D01*
X162318095Y-100662619D01*
X162257619Y-100783571D01*
X162197142Y-100844047D01*
X162076190Y-100904523D01*
X161713333Y-100904523D01*
X161592380Y-100844047D01*
X161531904Y-100783571D01*
%TO.C,U4*%
X133252380Y-113604523D02*
X133252380Y-114632619D01*
X133312857Y-114753571D01*
X133373333Y-114814047D01*
X133494285Y-114874523D01*
X133736190Y-114874523D01*
X133857142Y-114814047D01*
X133917619Y-114753571D01*
X133978095Y-114632619D01*
X133978095Y-113604523D01*
X135127142Y-114027857D02*
X135127142Y-114874523D01*
X134824761Y-113544047D02*
X134522380Y-114451190D01*
X135308571Y-114451190D01*
%TO.C,U5*%
X133252380Y-116144523D02*
X133252380Y-117172619D01*
X133312857Y-117293571D01*
X133373333Y-117354047D01*
X133494285Y-117414523D01*
X133736190Y-117414523D01*
X133857142Y-117354047D01*
X133917619Y-117293571D01*
X133978095Y-117172619D01*
X133978095Y-116144523D01*
X135187619Y-116144523D02*
X134582857Y-116144523D01*
X134522380Y-116749285D01*
X134582857Y-116688809D01*
X134703809Y-116628333D01*
X135006190Y-116628333D01*
X135127142Y-116688809D01*
X135187619Y-116749285D01*
X135248095Y-116870238D01*
X135248095Y-117172619D01*
X135187619Y-117293571D01*
X135127142Y-117354047D01*
X135006190Y-117414523D01*
X134703809Y-117414523D01*
X134582857Y-117354047D01*
X134522380Y-117293571D01*
%TO.C,U7*%
X128064380Y-131384523D02*
X128064380Y-132412619D01*
X128124857Y-132533571D01*
X128185333Y-132594047D01*
X128306285Y-132654523D01*
X128548190Y-132654523D01*
X128669142Y-132594047D01*
X128729619Y-132533571D01*
X128790095Y-132412619D01*
X128790095Y-131384523D01*
X129273904Y-131384523D02*
X130120571Y-131384523D01*
X129576285Y-132654523D01*
%TO.C,U9*%
X169212380Y-116144523D02*
X169212380Y-117172619D01*
X169272857Y-117293571D01*
X169333333Y-117354047D01*
X169454285Y-117414523D01*
X169696190Y-117414523D01*
X169817142Y-117354047D01*
X169877619Y-117293571D01*
X169938095Y-117172619D01*
X169938095Y-116144523D01*
X170603333Y-117414523D02*
X170845238Y-117414523D01*
X170966190Y-117354047D01*
X171026666Y-117293571D01*
X171147619Y-117112142D01*
X171208095Y-116870238D01*
X171208095Y-116386428D01*
X171147619Y-116265476D01*
X171087142Y-116205000D01*
X170966190Y-116144523D01*
X170724285Y-116144523D01*
X170603333Y-116205000D01*
X170542857Y-116265476D01*
X170482380Y-116386428D01*
X170482380Y-116688809D01*
X170542857Y-116809761D01*
X170603333Y-116870238D01*
X170724285Y-116930714D01*
X170966190Y-116930714D01*
X171087142Y-116870238D01*
X171147619Y-116809761D01*
X171208095Y-116688809D01*
%TO.C,U11*%
X175465619Y-131130523D02*
X175465619Y-132158619D01*
X175526095Y-132279571D01*
X175586571Y-132340047D01*
X175707523Y-132400523D01*
X175949428Y-132400523D01*
X176070380Y-132340047D01*
X176130857Y-132279571D01*
X176191333Y-132158619D01*
X176191333Y-131130523D01*
X177461333Y-132400523D02*
X176735619Y-132400523D01*
X177098476Y-132400523D02*
X177098476Y-131130523D01*
X176977523Y-131311952D01*
X176856571Y-131432904D01*
X176735619Y-131493380D01*
X178670857Y-132400523D02*
X177945142Y-132400523D01*
X178308000Y-132400523D02*
X178308000Y-131130523D01*
X178187047Y-131311952D01*
X178066095Y-131432904D01*
X177945142Y-131493380D01*
%TO.C,U12*%
X169230523Y-145336380D02*
X170258619Y-145336380D01*
X170379571Y-145275904D01*
X170440047Y-145215428D01*
X170500523Y-145094476D01*
X170500523Y-144852571D01*
X170440047Y-144731619D01*
X170379571Y-144671142D01*
X170258619Y-144610666D01*
X169230523Y-144610666D01*
X170500523Y-143340666D02*
X170500523Y-144066380D01*
X170500523Y-143703523D02*
X169230523Y-143703523D01*
X169411952Y-143824476D01*
X169532904Y-143945428D01*
X169593380Y-144066380D01*
X169351476Y-142856857D02*
X169291000Y-142796380D01*
X169230523Y-142675428D01*
X169230523Y-142373047D01*
X169291000Y-142252095D01*
X169351476Y-142191619D01*
X169472428Y-142131142D01*
X169593380Y-142131142D01*
X169774809Y-142191619D01*
X170500523Y-142917333D01*
X170500523Y-142131142D01*
D10*
%TO.C,U14*%
X152431904Y-124420380D02*
X152431904Y-125229904D01*
X152479523Y-125325142D01*
X152527142Y-125372761D01*
X152622380Y-125420380D01*
X152812857Y-125420380D01*
X152908095Y-125372761D01*
X152955714Y-125325142D01*
X153003333Y-125229904D01*
X153003333Y-124420380D01*
X154003333Y-125420380D02*
X153431904Y-125420380D01*
X153717619Y-125420380D02*
X153717619Y-124420380D01*
X153622380Y-124563238D01*
X153527142Y-124658476D01*
X153431904Y-124706095D01*
X154860476Y-124753714D02*
X154860476Y-125420380D01*
X154622380Y-124372761D02*
X154384285Y-125087047D01*
X155003333Y-125087047D01*
%TO.C,R2*%
X146342380Y-134901666D02*
X145866190Y-135235000D01*
X146342380Y-135473095D02*
X145342380Y-135473095D01*
X145342380Y-135092142D01*
X145390000Y-134996904D01*
X145437619Y-134949285D01*
X145532857Y-134901666D01*
X145675714Y-134901666D01*
X145770952Y-134949285D01*
X145818571Y-134996904D01*
X145866190Y-135092142D01*
X145866190Y-135473095D01*
X145437619Y-134520714D02*
X145390000Y-134473095D01*
X145342380Y-134377857D01*
X145342380Y-134139761D01*
X145390000Y-134044523D01*
X145437619Y-133996904D01*
X145532857Y-133949285D01*
X145628095Y-133949285D01*
X145770952Y-133996904D01*
X146342380Y-134568333D01*
X146342380Y-133949285D01*
%TO.C,R4*%
X159362380Y-133071666D02*
X158886190Y-133405000D01*
X159362380Y-133643095D02*
X158362380Y-133643095D01*
X158362380Y-133262142D01*
X158410000Y-133166904D01*
X158457619Y-133119285D01*
X158552857Y-133071666D01*
X158695714Y-133071666D01*
X158790952Y-133119285D01*
X158838571Y-133166904D01*
X158886190Y-133262142D01*
X158886190Y-133643095D01*
X158695714Y-132214523D02*
X159362380Y-132214523D01*
X158314761Y-132452619D02*
X159029047Y-132690714D01*
X159029047Y-132071666D01*
%TO.C,R8*%
X140295333Y-111196380D02*
X139962000Y-110720190D01*
X139723904Y-111196380D02*
X139723904Y-110196380D01*
X140104857Y-110196380D01*
X140200095Y-110244000D01*
X140247714Y-110291619D01*
X140295333Y-110386857D01*
X140295333Y-110529714D01*
X140247714Y-110624952D01*
X140200095Y-110672571D01*
X140104857Y-110720190D01*
X139723904Y-110720190D01*
X140866761Y-110624952D02*
X140771523Y-110577333D01*
X140723904Y-110529714D01*
X140676285Y-110434476D01*
X140676285Y-110386857D01*
X140723904Y-110291619D01*
X140771523Y-110244000D01*
X140866761Y-110196380D01*
X141057238Y-110196380D01*
X141152476Y-110244000D01*
X141200095Y-110291619D01*
X141247714Y-110386857D01*
X141247714Y-110434476D01*
X141200095Y-110529714D01*
X141152476Y-110577333D01*
X141057238Y-110624952D01*
X140866761Y-110624952D01*
X140771523Y-110672571D01*
X140723904Y-110720190D01*
X140676285Y-110815428D01*
X140676285Y-111005904D01*
X140723904Y-111101142D01*
X140771523Y-111148761D01*
X140866761Y-111196380D01*
X141057238Y-111196380D01*
X141152476Y-111148761D01*
X141200095Y-111101142D01*
X141247714Y-111005904D01*
X141247714Y-110815428D01*
X141200095Y-110720190D01*
X141152476Y-110672571D01*
X141057238Y-110624952D01*
%TO.C,C1*%
X142073333Y-123387142D02*
X142025714Y-123434761D01*
X141882857Y-123482380D01*
X141787619Y-123482380D01*
X141644761Y-123434761D01*
X141549523Y-123339523D01*
X141501904Y-123244285D01*
X141454285Y-123053809D01*
X141454285Y-122910952D01*
X141501904Y-122720476D01*
X141549523Y-122625238D01*
X141644761Y-122530000D01*
X141787619Y-122482380D01*
X141882857Y-122482380D01*
X142025714Y-122530000D01*
X142073333Y-122577619D01*
X143025714Y-123482380D02*
X142454285Y-123482380D01*
X142740000Y-123482380D02*
X142740000Y-122482380D01*
X142644761Y-122625238D01*
X142549523Y-122720476D01*
X142454285Y-122768095D01*
%TO.C,R15*%
X135501142Y-123896380D02*
X135167809Y-123420190D01*
X134929714Y-123896380D02*
X134929714Y-122896380D01*
X135310666Y-122896380D01*
X135405904Y-122944000D01*
X135453523Y-122991619D01*
X135501142Y-123086857D01*
X135501142Y-123229714D01*
X135453523Y-123324952D01*
X135405904Y-123372571D01*
X135310666Y-123420190D01*
X134929714Y-123420190D01*
X136453523Y-123896380D02*
X135882095Y-123896380D01*
X136167809Y-123896380D02*
X136167809Y-122896380D01*
X136072571Y-123039238D01*
X135977333Y-123134476D01*
X135882095Y-123182095D01*
X137358285Y-122896380D02*
X136882095Y-122896380D01*
X136834476Y-123372571D01*
X136882095Y-123324952D01*
X136977333Y-123277333D01*
X137215428Y-123277333D01*
X137310666Y-123324952D01*
X137358285Y-123372571D01*
X137405904Y-123467809D01*
X137405904Y-123705904D01*
X137358285Y-123801142D01*
X137310666Y-123848761D01*
X137215428Y-123896380D01*
X136977333Y-123896380D01*
X136882095Y-123848761D01*
X136834476Y-123801142D01*
%TO.C,R6*%
X152487333Y-133802380D02*
X152154000Y-133326190D01*
X151915904Y-133802380D02*
X151915904Y-132802380D01*
X152296857Y-132802380D01*
X152392095Y-132850000D01*
X152439714Y-132897619D01*
X152487333Y-132992857D01*
X152487333Y-133135714D01*
X152439714Y-133230952D01*
X152392095Y-133278571D01*
X152296857Y-133326190D01*
X151915904Y-133326190D01*
X153344476Y-132802380D02*
X153154000Y-132802380D01*
X153058761Y-132850000D01*
X153011142Y-132897619D01*
X152915904Y-133040476D01*
X152868285Y-133230952D01*
X152868285Y-133611904D01*
X152915904Y-133707142D01*
X152963523Y-133754761D01*
X153058761Y-133802380D01*
X153249238Y-133802380D01*
X153344476Y-133754761D01*
X153392095Y-133707142D01*
X153439714Y-133611904D01*
X153439714Y-133373809D01*
X153392095Y-133278571D01*
X153344476Y-133230952D01*
X153249238Y-133183333D01*
X153058761Y-133183333D01*
X152963523Y-133230952D01*
X152915904Y-133278571D01*
X152868285Y-133373809D01*
%TO.C,R17*%
X131082380Y-136532857D02*
X130606190Y-136866190D01*
X131082380Y-137104285D02*
X130082380Y-137104285D01*
X130082380Y-136723333D01*
X130130000Y-136628095D01*
X130177619Y-136580476D01*
X130272857Y-136532857D01*
X130415714Y-136532857D01*
X130510952Y-136580476D01*
X130558571Y-136628095D01*
X130606190Y-136723333D01*
X130606190Y-137104285D01*
X131082380Y-135580476D02*
X131082380Y-136151904D01*
X131082380Y-135866190D02*
X130082380Y-135866190D01*
X130225238Y-135961428D01*
X130320476Y-136056666D01*
X130368095Y-136151904D01*
X130082380Y-135247142D02*
X130082380Y-134580476D01*
X131082380Y-135009047D01*
%TO.C,C13*%
X165617142Y-144152857D02*
X165664761Y-144200476D01*
X165712380Y-144343333D01*
X165712380Y-144438571D01*
X165664761Y-144581428D01*
X165569523Y-144676666D01*
X165474285Y-144724285D01*
X165283809Y-144771904D01*
X165140952Y-144771904D01*
X164950476Y-144724285D01*
X164855238Y-144676666D01*
X164760000Y-144581428D01*
X164712380Y-144438571D01*
X164712380Y-144343333D01*
X164760000Y-144200476D01*
X164807619Y-144152857D01*
X165712380Y-143200476D02*
X165712380Y-143771904D01*
X165712380Y-143486190D02*
X164712380Y-143486190D01*
X164855238Y-143581428D01*
X164950476Y-143676666D01*
X164998095Y-143771904D01*
X164712380Y-142867142D02*
X164712380Y-142248095D01*
X165093333Y-142581428D01*
X165093333Y-142438571D01*
X165140952Y-142343333D01*
X165188571Y-142295714D01*
X165283809Y-142248095D01*
X165521904Y-142248095D01*
X165617142Y-142295714D01*
X165664761Y-142343333D01*
X165712380Y-142438571D01*
X165712380Y-142724285D01*
X165664761Y-142819523D01*
X165617142Y-142867142D01*
%TO.C,C16*%
X150487142Y-131675142D02*
X150439523Y-131722761D01*
X150296666Y-131770380D01*
X150201428Y-131770380D01*
X150058571Y-131722761D01*
X149963333Y-131627523D01*
X149915714Y-131532285D01*
X149868095Y-131341809D01*
X149868095Y-131198952D01*
X149915714Y-131008476D01*
X149963333Y-130913238D01*
X150058571Y-130818000D01*
X150201428Y-130770380D01*
X150296666Y-130770380D01*
X150439523Y-130818000D01*
X150487142Y-130865619D01*
X151439523Y-131770380D02*
X150868095Y-131770380D01*
X151153809Y-131770380D02*
X151153809Y-130770380D01*
X151058571Y-130913238D01*
X150963333Y-131008476D01*
X150868095Y-131056095D01*
X152296666Y-130770380D02*
X152106190Y-130770380D01*
X152010952Y-130818000D01*
X151963333Y-130865619D01*
X151868095Y-131008476D01*
X151820476Y-131198952D01*
X151820476Y-131579904D01*
X151868095Y-131675142D01*
X151915714Y-131722761D01*
X152010952Y-131770380D01*
X152201428Y-131770380D01*
X152296666Y-131722761D01*
X152344285Y-131675142D01*
X152391904Y-131579904D01*
X152391904Y-131341809D01*
X152344285Y-131246571D01*
X152296666Y-131198952D01*
X152201428Y-131151333D01*
X152010952Y-131151333D01*
X151915714Y-131198952D01*
X151868095Y-131246571D01*
X151820476Y-131341809D01*
%TO.C,R10*%
X140327142Y-113736380D02*
X139993809Y-113260190D01*
X139755714Y-113736380D02*
X139755714Y-112736380D01*
X140136666Y-112736380D01*
X140231904Y-112784000D01*
X140279523Y-112831619D01*
X140327142Y-112926857D01*
X140327142Y-113069714D01*
X140279523Y-113164952D01*
X140231904Y-113212571D01*
X140136666Y-113260190D01*
X139755714Y-113260190D01*
X141279523Y-113736380D02*
X140708095Y-113736380D01*
X140993809Y-113736380D02*
X140993809Y-112736380D01*
X140898571Y-112879238D01*
X140803333Y-112974476D01*
X140708095Y-113022095D01*
X141898571Y-112736380D02*
X141993809Y-112736380D01*
X142089047Y-112784000D01*
X142136666Y-112831619D01*
X142184285Y-112926857D01*
X142231904Y-113117333D01*
X142231904Y-113355428D01*
X142184285Y-113545904D01*
X142136666Y-113641142D01*
X142089047Y-113688761D01*
X141993809Y-113736380D01*
X141898571Y-113736380D01*
X141803333Y-113688761D01*
X141755714Y-113641142D01*
X141708095Y-113545904D01*
X141660476Y-113355428D01*
X141660476Y-113117333D01*
X141708095Y-112926857D01*
X141755714Y-112831619D01*
X141803333Y-112784000D01*
X141898571Y-112736380D01*
D11*
%TO.C,D4*%
X175552619Y-126304523D02*
X175552619Y-125034523D01*
X175855000Y-125034523D01*
X176036428Y-125095000D01*
X176157380Y-125215952D01*
X176217857Y-125336904D01*
X176278333Y-125578809D01*
X176278333Y-125760238D01*
X176217857Y-126002142D01*
X176157380Y-126123095D01*
X176036428Y-126244047D01*
X175855000Y-126304523D01*
X175552619Y-126304523D01*
X177366904Y-125457857D02*
X177366904Y-126304523D01*
X177064523Y-124974047D02*
X176762142Y-125881190D01*
X177548333Y-125881190D01*
D10*
%TO.C,C14*%
X158853142Y-140342857D02*
X158900761Y-140390476D01*
X158948380Y-140533333D01*
X158948380Y-140628571D01*
X158900761Y-140771428D01*
X158805523Y-140866666D01*
X158710285Y-140914285D01*
X158519809Y-140961904D01*
X158376952Y-140961904D01*
X158186476Y-140914285D01*
X158091238Y-140866666D01*
X157996000Y-140771428D01*
X157948380Y-140628571D01*
X157948380Y-140533333D01*
X157996000Y-140390476D01*
X158043619Y-140342857D01*
X158948380Y-139390476D02*
X158948380Y-139961904D01*
X158948380Y-139676190D02*
X157948380Y-139676190D01*
X158091238Y-139771428D01*
X158186476Y-139866666D01*
X158234095Y-139961904D01*
X158281714Y-138533333D02*
X158948380Y-138533333D01*
X157900761Y-138771428D02*
X158615047Y-139009523D01*
X158615047Y-138390476D01*
%TO.C,C10*%
X156329142Y-142597142D02*
X156281523Y-142644761D01*
X156138666Y-142692380D01*
X156043428Y-142692380D01*
X155900571Y-142644761D01*
X155805333Y-142549523D01*
X155757714Y-142454285D01*
X155710095Y-142263809D01*
X155710095Y-142120952D01*
X155757714Y-141930476D01*
X155805333Y-141835238D01*
X155900571Y-141740000D01*
X156043428Y-141692380D01*
X156138666Y-141692380D01*
X156281523Y-141740000D01*
X156329142Y-141787619D01*
X157281523Y-142692380D02*
X156710095Y-142692380D01*
X156995809Y-142692380D02*
X156995809Y-141692380D01*
X156900571Y-141835238D01*
X156805333Y-141930476D01*
X156710095Y-141978095D01*
X157900571Y-141692380D02*
X157995809Y-141692380D01*
X158091047Y-141740000D01*
X158138666Y-141787619D01*
X158186285Y-141882857D01*
X158233904Y-142073333D01*
X158233904Y-142311428D01*
X158186285Y-142501904D01*
X158138666Y-142597142D01*
X158091047Y-142644761D01*
X157995809Y-142692380D01*
X157900571Y-142692380D01*
X157805333Y-142644761D01*
X157757714Y-142597142D01*
X157710095Y-142501904D01*
X157662476Y-142311428D01*
X157662476Y-142073333D01*
X157710095Y-141882857D01*
X157757714Y-141787619D01*
X157805333Y-141740000D01*
X157900571Y-141692380D01*
D11*
%TO.C,D1*%
X127332619Y-109794523D02*
X127332619Y-108524523D01*
X127635000Y-108524523D01*
X127816428Y-108585000D01*
X127937380Y-108705952D01*
X127997857Y-108826904D01*
X128058333Y-109068809D01*
X128058333Y-109250238D01*
X127997857Y-109492142D01*
X127937380Y-109613095D01*
X127816428Y-109734047D01*
X127635000Y-109794523D01*
X127332619Y-109794523D01*
X129267857Y-109794523D02*
X128542142Y-109794523D01*
X128905000Y-109794523D02*
X128905000Y-108524523D01*
X128784047Y-108705952D01*
X128663095Y-108826904D01*
X128542142Y-108887380D01*
D10*
%TO.C,L1*%
X146342380Y-138596666D02*
X146342380Y-139072857D01*
X145342380Y-139072857D01*
X146342380Y-137739523D02*
X146342380Y-138310952D01*
X146342380Y-138025238D02*
X145342380Y-138025238D01*
X145485238Y-138120476D01*
X145580476Y-138215714D01*
X145628095Y-138310952D01*
%TO.C,R25*%
X170553142Y-123134380D02*
X170219809Y-122658190D01*
X169981714Y-123134380D02*
X169981714Y-122134380D01*
X170362666Y-122134380D01*
X170457904Y-122182000D01*
X170505523Y-122229619D01*
X170553142Y-122324857D01*
X170553142Y-122467714D01*
X170505523Y-122562952D01*
X170457904Y-122610571D01*
X170362666Y-122658190D01*
X169981714Y-122658190D01*
X170934095Y-122229619D02*
X170981714Y-122182000D01*
X171076952Y-122134380D01*
X171315047Y-122134380D01*
X171410285Y-122182000D01*
X171457904Y-122229619D01*
X171505523Y-122324857D01*
X171505523Y-122420095D01*
X171457904Y-122562952D01*
X170886476Y-123134380D01*
X171505523Y-123134380D01*
X172410285Y-122134380D02*
X171934095Y-122134380D01*
X171886476Y-122610571D01*
X171934095Y-122562952D01*
X172029333Y-122515333D01*
X172267428Y-122515333D01*
X172362666Y-122562952D01*
X172410285Y-122610571D01*
X172457904Y-122705809D01*
X172457904Y-122943904D01*
X172410285Y-123039142D01*
X172362666Y-123086761D01*
X172267428Y-123134380D01*
X172029333Y-123134380D01*
X171934095Y-123086761D01*
X171886476Y-123039142D01*
%TO.C,C12*%
X161901142Y-138310857D02*
X161948761Y-138358476D01*
X161996380Y-138501333D01*
X161996380Y-138596571D01*
X161948761Y-138739428D01*
X161853523Y-138834666D01*
X161758285Y-138882285D01*
X161567809Y-138929904D01*
X161424952Y-138929904D01*
X161234476Y-138882285D01*
X161139238Y-138834666D01*
X161044000Y-138739428D01*
X160996380Y-138596571D01*
X160996380Y-138501333D01*
X161044000Y-138358476D01*
X161091619Y-138310857D01*
X161996380Y-137358476D02*
X161996380Y-137929904D01*
X161996380Y-137644190D02*
X160996380Y-137644190D01*
X161139238Y-137739428D01*
X161234476Y-137834666D01*
X161282095Y-137929904D01*
X161091619Y-136977523D02*
X161044000Y-136929904D01*
X160996380Y-136834666D01*
X160996380Y-136596571D01*
X161044000Y-136501333D01*
X161091619Y-136453714D01*
X161186857Y-136406095D01*
X161282095Y-136406095D01*
X161424952Y-136453714D01*
X161996380Y-137025142D01*
X161996380Y-136406095D01*
%TO.C,SW2*%
X164234761Y-132143333D02*
X164282380Y-132000476D01*
X164282380Y-131762380D01*
X164234761Y-131667142D01*
X164187142Y-131619523D01*
X164091904Y-131571904D01*
X163996666Y-131571904D01*
X163901428Y-131619523D01*
X163853809Y-131667142D01*
X163806190Y-131762380D01*
X163758571Y-131952857D01*
X163710952Y-132048095D01*
X163663333Y-132095714D01*
X163568095Y-132143333D01*
X163472857Y-132143333D01*
X163377619Y-132095714D01*
X163330000Y-132048095D01*
X163282380Y-131952857D01*
X163282380Y-131714761D01*
X163330000Y-131571904D01*
X163282380Y-131238571D02*
X164282380Y-131000476D01*
X163568095Y-130810000D01*
X164282380Y-130619523D01*
X163282380Y-130381428D01*
X163377619Y-130048095D02*
X163330000Y-130000476D01*
X163282380Y-129905238D01*
X163282380Y-129667142D01*
X163330000Y-129571904D01*
X163377619Y-129524285D01*
X163472857Y-129476666D01*
X163568095Y-129476666D01*
X163710952Y-129524285D01*
X164282380Y-130095714D01*
X164282380Y-129476666D01*
%TO.C,R11*%
X137739884Y-122517380D02*
X137406551Y-122041190D01*
X137168456Y-122517380D02*
X137168456Y-121517380D01*
X137549408Y-121517380D01*
X137644646Y-121565000D01*
X137692265Y-121612619D01*
X137739884Y-121707857D01*
X137739884Y-121850714D01*
X137692265Y-121945952D01*
X137644646Y-121993571D01*
X137549408Y-122041190D01*
X137168456Y-122041190D01*
X138692265Y-122517380D02*
X138120837Y-122517380D01*
X138406551Y-122517380D02*
X138406551Y-121517380D01*
X138311313Y-121660238D01*
X138216075Y-121755476D01*
X138120837Y-121803095D01*
X139644646Y-122517380D02*
X139073218Y-122517380D01*
X139358932Y-122517380D02*
X139358932Y-121517380D01*
X139263694Y-121660238D01*
X139168456Y-121755476D01*
X139073218Y-121803095D01*
D11*
%TO.C,U2*%
X151432380Y-109794523D02*
X151432380Y-110822619D01*
X151492857Y-110943571D01*
X151553333Y-111004047D01*
X151674285Y-111064523D01*
X151916190Y-111064523D01*
X152037142Y-111004047D01*
X152097619Y-110943571D01*
X152158095Y-110822619D01*
X152158095Y-109794523D01*
X152702380Y-109915476D02*
X152762857Y-109855000D01*
X152883809Y-109794523D01*
X153186190Y-109794523D01*
X153307142Y-109855000D01*
X153367619Y-109915476D01*
X153428095Y-110036428D01*
X153428095Y-110157380D01*
X153367619Y-110338809D01*
X152641904Y-111064523D01*
X153428095Y-111064523D01*
D10*
%TO.C,C2*%
X149107142Y-131471666D02*
X149154761Y-131519285D01*
X149202380Y-131662142D01*
X149202380Y-131757380D01*
X149154761Y-131900238D01*
X149059523Y-131995476D01*
X148964285Y-132043095D01*
X148773809Y-132090714D01*
X148630952Y-132090714D01*
X148440476Y-132043095D01*
X148345238Y-131995476D01*
X148250000Y-131900238D01*
X148202380Y-131757380D01*
X148202380Y-131662142D01*
X148250000Y-131519285D01*
X148297619Y-131471666D01*
X148297619Y-131090714D02*
X148250000Y-131043095D01*
X148202380Y-130947857D01*
X148202380Y-130709761D01*
X148250000Y-130614523D01*
X148297619Y-130566904D01*
X148392857Y-130519285D01*
X148488095Y-130519285D01*
X148630952Y-130566904D01*
X149202380Y-131138333D01*
X149202380Y-130519285D01*
D11*
%TO.C,U6*%
X127282380Y-114620523D02*
X127282380Y-115648619D01*
X127342857Y-115769571D01*
X127403333Y-115830047D01*
X127524285Y-115890523D01*
X127766190Y-115890523D01*
X127887142Y-115830047D01*
X127947619Y-115769571D01*
X128008095Y-115648619D01*
X128008095Y-114620523D01*
X129157142Y-114620523D02*
X128915238Y-114620523D01*
X128794285Y-114681000D01*
X128733809Y-114741476D01*
X128612857Y-114922904D01*
X128552380Y-115164809D01*
X128552380Y-115648619D01*
X128612857Y-115769571D01*
X128673333Y-115830047D01*
X128794285Y-115890523D01*
X129036190Y-115890523D01*
X129157142Y-115830047D01*
X129217619Y-115769571D01*
X129278095Y-115648619D01*
X129278095Y-115346238D01*
X129217619Y-115225285D01*
X129157142Y-115164809D01*
X129036190Y-115104333D01*
X128794285Y-115104333D01*
X128673333Y-115164809D01*
X128612857Y-115225285D01*
X128552380Y-115346238D01*
D10*
%TO.C,C9*%
X163409333Y-107037142D02*
X163361714Y-107084761D01*
X163218857Y-107132380D01*
X163123619Y-107132380D01*
X162980761Y-107084761D01*
X162885523Y-106989523D01*
X162837904Y-106894285D01*
X162790285Y-106703809D01*
X162790285Y-106560952D01*
X162837904Y-106370476D01*
X162885523Y-106275238D01*
X162980761Y-106180000D01*
X163123619Y-106132380D01*
X163218857Y-106132380D01*
X163361714Y-106180000D01*
X163409333Y-106227619D01*
X163885523Y-107132380D02*
X164076000Y-107132380D01*
X164171238Y-107084761D01*
X164218857Y-107037142D01*
X164314095Y-106894285D01*
X164361714Y-106703809D01*
X164361714Y-106322857D01*
X164314095Y-106227619D01*
X164266476Y-106180000D01*
X164171238Y-106132380D01*
X163980761Y-106132380D01*
X163885523Y-106180000D01*
X163837904Y-106227619D01*
X163790285Y-106322857D01*
X163790285Y-106560952D01*
X163837904Y-106656190D01*
X163885523Y-106703809D01*
X163980761Y-106751428D01*
X164171238Y-106751428D01*
X164266476Y-106703809D01*
X164314095Y-106656190D01*
X164361714Y-106560952D01*
%TO.C,R27*%
X173172380Y-136532857D02*
X172696190Y-136866190D01*
X173172380Y-137104285D02*
X172172380Y-137104285D01*
X172172380Y-136723333D01*
X172220000Y-136628095D01*
X172267619Y-136580476D01*
X172362857Y-136532857D01*
X172505714Y-136532857D01*
X172600952Y-136580476D01*
X172648571Y-136628095D01*
X172696190Y-136723333D01*
X172696190Y-137104285D01*
X172267619Y-136151904D02*
X172220000Y-136104285D01*
X172172380Y-136009047D01*
X172172380Y-135770952D01*
X172220000Y-135675714D01*
X172267619Y-135628095D01*
X172362857Y-135580476D01*
X172458095Y-135580476D01*
X172600952Y-135628095D01*
X173172380Y-136199523D01*
X173172380Y-135580476D01*
X172172380Y-135247142D02*
X172172380Y-134580476D01*
X173172380Y-135009047D01*
D11*
%TO.C,U8*%
X169612380Y-113858523D02*
X169612380Y-114886619D01*
X169672857Y-115007571D01*
X169733333Y-115068047D01*
X169854285Y-115128523D01*
X170096190Y-115128523D01*
X170217142Y-115068047D01*
X170277619Y-115007571D01*
X170338095Y-114886619D01*
X170338095Y-113858523D01*
X171124285Y-114402809D02*
X171003333Y-114342333D01*
X170942857Y-114281857D01*
X170882380Y-114160904D01*
X170882380Y-114100428D01*
X170942857Y-113979476D01*
X171003333Y-113919000D01*
X171124285Y-113858523D01*
X171366190Y-113858523D01*
X171487142Y-113919000D01*
X171547619Y-113979476D01*
X171608095Y-114100428D01*
X171608095Y-114160904D01*
X171547619Y-114281857D01*
X171487142Y-114342333D01*
X171366190Y-114402809D01*
X171124285Y-114402809D01*
X171003333Y-114463285D01*
X170942857Y-114523761D01*
X170882380Y-114644714D01*
X170882380Y-114886619D01*
X170942857Y-115007571D01*
X171003333Y-115068047D01*
X171124285Y-115128523D01*
X171366190Y-115128523D01*
X171487142Y-115068047D01*
X171547619Y-115007571D01*
X171608095Y-114886619D01*
X171608095Y-114644714D01*
X171547619Y-114523761D01*
X171487142Y-114463285D01*
X171366190Y-114402809D01*
D10*
%TO.C,R21*%
X162679142Y-121102380D02*
X162345809Y-120626190D01*
X162107714Y-121102380D02*
X162107714Y-120102380D01*
X162488666Y-120102380D01*
X162583904Y-120150000D01*
X162631523Y-120197619D01*
X162679142Y-120292857D01*
X162679142Y-120435714D01*
X162631523Y-120530952D01*
X162583904Y-120578571D01*
X162488666Y-120626190D01*
X162107714Y-120626190D01*
X163060095Y-120197619D02*
X163107714Y-120150000D01*
X163202952Y-120102380D01*
X163441047Y-120102380D01*
X163536285Y-120150000D01*
X163583904Y-120197619D01*
X163631523Y-120292857D01*
X163631523Y-120388095D01*
X163583904Y-120530952D01*
X163012476Y-121102380D01*
X163631523Y-121102380D01*
X164583904Y-121102380D02*
X164012476Y-121102380D01*
X164298190Y-121102380D02*
X164298190Y-120102380D01*
X164202952Y-120245238D01*
X164107714Y-120340476D01*
X164012476Y-120388095D01*
%TO.C,R3*%
X159853333Y-146662380D02*
X159520000Y-146186190D01*
X159281904Y-146662380D02*
X159281904Y-145662380D01*
X159662857Y-145662380D01*
X159758095Y-145710000D01*
X159805714Y-145757619D01*
X159853333Y-145852857D01*
X159853333Y-145995714D01*
X159805714Y-146090952D01*
X159758095Y-146138571D01*
X159662857Y-146186190D01*
X159281904Y-146186190D01*
X160186666Y-145662380D02*
X160805714Y-145662380D01*
X160472380Y-146043333D01*
X160615238Y-146043333D01*
X160710476Y-146090952D01*
X160758095Y-146138571D01*
X160805714Y-146233809D01*
X160805714Y-146471904D01*
X160758095Y-146567142D01*
X160710476Y-146614761D01*
X160615238Y-146662380D01*
X160329523Y-146662380D01*
X160234285Y-146614761D01*
X160186666Y-146567142D01*
%TO.C,R26*%
X169362380Y-127134857D02*
X168886190Y-127468190D01*
X169362380Y-127706285D02*
X168362380Y-127706285D01*
X168362380Y-127325333D01*
X168410000Y-127230095D01*
X168457619Y-127182476D01*
X168552857Y-127134857D01*
X168695714Y-127134857D01*
X168790952Y-127182476D01*
X168838571Y-127230095D01*
X168886190Y-127325333D01*
X168886190Y-127706285D01*
X168457619Y-126753904D02*
X168410000Y-126706285D01*
X168362380Y-126611047D01*
X168362380Y-126372952D01*
X168410000Y-126277714D01*
X168457619Y-126230095D01*
X168552857Y-126182476D01*
X168648095Y-126182476D01*
X168790952Y-126230095D01*
X169362380Y-126801523D01*
X169362380Y-126182476D01*
X168362380Y-125325333D02*
X168362380Y-125515809D01*
X168410000Y-125611047D01*
X168457619Y-125658666D01*
X168600476Y-125753904D01*
X168790952Y-125801523D01*
X169171904Y-125801523D01*
X169267142Y-125753904D01*
X169314761Y-125706285D01*
X169362380Y-125611047D01*
X169362380Y-125420571D01*
X169314761Y-125325333D01*
X169267142Y-125277714D01*
X169171904Y-125230095D01*
X168933809Y-125230095D01*
X168838571Y-125277714D01*
X168790952Y-125325333D01*
X168743333Y-125420571D01*
X168743333Y-125611047D01*
X168790952Y-125706285D01*
X168838571Y-125753904D01*
X168933809Y-125801523D01*
%TO.C,R7*%
X157758333Y-126022380D02*
X157425000Y-125546190D01*
X157186904Y-126022380D02*
X157186904Y-125022380D01*
X157567857Y-125022380D01*
X157663095Y-125070000D01*
X157710714Y-125117619D01*
X157758333Y-125212857D01*
X157758333Y-125355714D01*
X157710714Y-125450952D01*
X157663095Y-125498571D01*
X157567857Y-125546190D01*
X157186904Y-125546190D01*
X158091666Y-125022380D02*
X158758333Y-125022380D01*
X158329761Y-126022380D01*
%TO.C,SW1*%
X141374761Y-132143333D02*
X141422380Y-132000476D01*
X141422380Y-131762380D01*
X141374761Y-131667142D01*
X141327142Y-131619523D01*
X141231904Y-131571904D01*
X141136666Y-131571904D01*
X141041428Y-131619523D01*
X140993809Y-131667142D01*
X140946190Y-131762380D01*
X140898571Y-131952857D01*
X140850952Y-132048095D01*
X140803333Y-132095714D01*
X140708095Y-132143333D01*
X140612857Y-132143333D01*
X140517619Y-132095714D01*
X140470000Y-132048095D01*
X140422380Y-131952857D01*
X140422380Y-131714761D01*
X140470000Y-131571904D01*
X140422380Y-131238571D02*
X141422380Y-131000476D01*
X140708095Y-130810000D01*
X141422380Y-130619523D01*
X140422380Y-130381428D01*
X141422380Y-129476666D02*
X141422380Y-130048095D01*
X141422380Y-129762380D02*
X140422380Y-129762380D01*
X140565238Y-129857619D01*
X140660476Y-129952857D01*
X140708095Y-130048095D01*
%TO.C,R16*%
X135501142Y-126436380D02*
X135167809Y-125960190D01*
X134929714Y-126436380D02*
X134929714Y-125436380D01*
X135310666Y-125436380D01*
X135405904Y-125484000D01*
X135453523Y-125531619D01*
X135501142Y-125626857D01*
X135501142Y-125769714D01*
X135453523Y-125864952D01*
X135405904Y-125912571D01*
X135310666Y-125960190D01*
X134929714Y-125960190D01*
X136453523Y-126436380D02*
X135882095Y-126436380D01*
X136167809Y-126436380D02*
X136167809Y-125436380D01*
X136072571Y-125579238D01*
X135977333Y-125674476D01*
X135882095Y-125722095D01*
X137310666Y-125436380D02*
X137120190Y-125436380D01*
X137024952Y-125484000D01*
X136977333Y-125531619D01*
X136882095Y-125674476D01*
X136834476Y-125864952D01*
X136834476Y-126245904D01*
X136882095Y-126341142D01*
X136929714Y-126388761D01*
X137024952Y-126436380D01*
X137215428Y-126436380D01*
X137310666Y-126388761D01*
X137358285Y-126341142D01*
X137405904Y-126245904D01*
X137405904Y-126007809D01*
X137358285Y-125912571D01*
X137310666Y-125864952D01*
X137215428Y-125817333D01*
X137024952Y-125817333D01*
X136929714Y-125864952D01*
X136882095Y-125912571D01*
X136834476Y-126007809D01*
%TO.C,R1*%
X142532380Y-120816666D02*
X142056190Y-121150000D01*
X142532380Y-121388095D02*
X141532380Y-121388095D01*
X141532380Y-121007142D01*
X141580000Y-120911904D01*
X141627619Y-120864285D01*
X141722857Y-120816666D01*
X141865714Y-120816666D01*
X141960952Y-120864285D01*
X142008571Y-120911904D01*
X142056190Y-121007142D01*
X142056190Y-121388095D01*
X142532380Y-119864285D02*
X142532380Y-120435714D01*
X142532380Y-120150000D02*
X141532380Y-120150000D01*
X141675238Y-120245238D01*
X141770476Y-120340476D01*
X141818095Y-120435714D01*
D11*
%TO.C,D3*%
X175572619Y-109794523D02*
X175572619Y-108524523D01*
X175875000Y-108524523D01*
X176056428Y-108585000D01*
X176177380Y-108705952D01*
X176237857Y-108826904D01*
X176298333Y-109068809D01*
X176298333Y-109250238D01*
X176237857Y-109492142D01*
X176177380Y-109613095D01*
X176056428Y-109734047D01*
X175875000Y-109794523D01*
X175572619Y-109794523D01*
X176721666Y-108524523D02*
X177507857Y-108524523D01*
X177084523Y-109008333D01*
X177265952Y-109008333D01*
X177386904Y-109068809D01*
X177447380Y-109129285D01*
X177507857Y-109250238D01*
X177507857Y-109552619D01*
X177447380Y-109673571D01*
X177386904Y-109734047D01*
X177265952Y-109794523D01*
X176903095Y-109794523D01*
X176782142Y-109734047D01*
X176721666Y-109673571D01*
D10*
%TO.C,C11*%
X159107142Y-136278857D02*
X159154761Y-136326476D01*
X159202380Y-136469333D01*
X159202380Y-136564571D01*
X159154761Y-136707428D01*
X159059523Y-136802666D01*
X158964285Y-136850285D01*
X158773809Y-136897904D01*
X158630952Y-136897904D01*
X158440476Y-136850285D01*
X158345238Y-136802666D01*
X158250000Y-136707428D01*
X158202380Y-136564571D01*
X158202380Y-136469333D01*
X158250000Y-136326476D01*
X158297619Y-136278857D01*
X159202380Y-135326476D02*
X159202380Y-135897904D01*
X159202380Y-135612190D02*
X158202380Y-135612190D01*
X158345238Y-135707428D01*
X158440476Y-135802666D01*
X158488095Y-135897904D01*
X159202380Y-134374095D02*
X159202380Y-134945523D01*
X159202380Y-134659809D02*
X158202380Y-134659809D01*
X158345238Y-134755047D01*
X158440476Y-134850285D01*
X158488095Y-134945523D01*
D11*
%TO.C,U10*%
X174977619Y-114620523D02*
X174977619Y-115648619D01*
X175038095Y-115769571D01*
X175098571Y-115830047D01*
X175219523Y-115890523D01*
X175461428Y-115890523D01*
X175582380Y-115830047D01*
X175642857Y-115769571D01*
X175703333Y-115648619D01*
X175703333Y-114620523D01*
X176973333Y-115890523D02*
X176247619Y-115890523D01*
X176610476Y-115890523D02*
X176610476Y-114620523D01*
X176489523Y-114801952D01*
X176368571Y-114922904D01*
X176247619Y-114983380D01*
X177759523Y-114620523D02*
X177880476Y-114620523D01*
X178001428Y-114681000D01*
X178061904Y-114741476D01*
X178122380Y-114862428D01*
X178182857Y-115104333D01*
X178182857Y-115406714D01*
X178122380Y-115648619D01*
X178061904Y-115769571D01*
X178001428Y-115830047D01*
X177880476Y-115890523D01*
X177759523Y-115890523D01*
X177638571Y-115830047D01*
X177578095Y-115769571D01*
X177517619Y-115648619D01*
X177457142Y-115406714D01*
X177457142Y-115104333D01*
X177517619Y-114862428D01*
X177578095Y-114741476D01*
X177638571Y-114681000D01*
X177759523Y-114620523D01*
D10*
%TO.C,C15*%
X150233142Y-129643142D02*
X150185523Y-129690761D01*
X150042666Y-129738380D01*
X149947428Y-129738380D01*
X149804571Y-129690761D01*
X149709333Y-129595523D01*
X149661714Y-129500285D01*
X149614095Y-129309809D01*
X149614095Y-129166952D01*
X149661714Y-128976476D01*
X149709333Y-128881238D01*
X149804571Y-128786000D01*
X149947428Y-128738380D01*
X150042666Y-128738380D01*
X150185523Y-128786000D01*
X150233142Y-128833619D01*
X151185523Y-129738380D02*
X150614095Y-129738380D01*
X150899809Y-129738380D02*
X150899809Y-128738380D01*
X150804571Y-128881238D01*
X150709333Y-128976476D01*
X150614095Y-129024095D01*
X152090285Y-128738380D02*
X151614095Y-128738380D01*
X151566476Y-129214571D01*
X151614095Y-129166952D01*
X151709333Y-129119333D01*
X151947428Y-129119333D01*
X152042666Y-129166952D01*
X152090285Y-129214571D01*
X152137904Y-129309809D01*
X152137904Y-129547904D01*
X152090285Y-129643142D01*
X152042666Y-129690761D01*
X151947428Y-129738380D01*
X151709333Y-129738380D01*
X151614095Y-129690761D01*
X151566476Y-129643142D01*
D11*
%TO.C,D2*%
X127332619Y-126304523D02*
X127332619Y-125034523D01*
X127635000Y-125034523D01*
X127816428Y-125095000D01*
X127937380Y-125215952D01*
X127997857Y-125336904D01*
X128058333Y-125578809D01*
X128058333Y-125760238D01*
X127997857Y-126002142D01*
X127937380Y-126123095D01*
X127816428Y-126244047D01*
X127635000Y-126304523D01*
X127332619Y-126304523D01*
X128542142Y-125155476D02*
X128602619Y-125095000D01*
X128723571Y-125034523D01*
X129025952Y-125034523D01*
X129146904Y-125095000D01*
X129207380Y-125155476D01*
X129267857Y-125276428D01*
X129267857Y-125397380D01*
X129207380Y-125578809D01*
X128481666Y-126304523D01*
X129267857Y-126304523D01*
%TO.C,U13*%
X166182523Y-139240380D02*
X167210619Y-139240380D01*
X167331571Y-139179904D01*
X167392047Y-139119428D01*
X167452523Y-138998476D01*
X167452523Y-138756571D01*
X167392047Y-138635619D01*
X167331571Y-138575142D01*
X167210619Y-138514666D01*
X166182523Y-138514666D01*
X167452523Y-137244666D02*
X167452523Y-137970380D01*
X167452523Y-137607523D02*
X166182523Y-137607523D01*
X166363952Y-137728476D01*
X166484904Y-137849428D01*
X166545380Y-137970380D01*
X166182523Y-136821333D02*
X166182523Y-136035142D01*
X166666333Y-136458476D01*
X166666333Y-136277047D01*
X166726809Y-136156095D01*
X166787285Y-136095619D01*
X166908238Y-136035142D01*
X167210619Y-136035142D01*
X167331571Y-136095619D01*
X167392047Y-136156095D01*
X167452523Y-136277047D01*
X167452523Y-136639904D01*
X167392047Y-136760857D01*
X167331571Y-136821333D01*
D12*
%TO.C,R30*%
X156925742Y-129554500D02*
X157400258Y-129554500D01*
X156925742Y-128509500D02*
X157400258Y-128509500D01*
%TO.C,R29*%
X151144500Y-127300258D02*
X151144500Y-126825742D01*
X150099500Y-127300258D02*
X150099500Y-126825742D01*
%TO.C,R28*%
X149620500Y-126729258D02*
X149620500Y-126254742D01*
X148575500Y-126729258D02*
X148575500Y-126254742D01*
%TO.C,C3*%
X139065580Y-115060000D02*
X138784420Y-115060000D01*
X139065580Y-116080000D02*
X138784420Y-116080000D01*
%TO.C,C4*%
X147651000Y-142038000D02*
X147651000Y-143740000D01*
X148211000Y-145820000D02*
X148211000Y-147085000D01*
X148171000Y-145820000D02*
X148171000Y-147123000D01*
X148971000Y-143615000D02*
X148971000Y-145945000D01*
X147971000Y-142264000D02*
X147971000Y-143740000D01*
X147171000Y-141794000D02*
X147171000Y-143740000D01*
X146010000Y-141550000D02*
X146010000Y-148010000D01*
X147411000Y-141904000D02*
X147411000Y-143740000D01*
X149171000Y-144378000D02*
X149171000Y-145182000D01*
X147571000Y-141990000D02*
X147571000Y-143740000D01*
X148011000Y-142296000D02*
X148011000Y-143740000D01*
X147531000Y-141968000D02*
X147531000Y-143740000D01*
X147371000Y-141884000D02*
X147371000Y-143740000D01*
X147651000Y-145820000D02*
X147651000Y-147522000D01*
X147451000Y-141924000D02*
X147451000Y-143740000D01*
X147891000Y-142202000D02*
X147891000Y-143740000D01*
X146370000Y-141579000D02*
X146370000Y-143740000D01*
X148051000Y-145820000D02*
X148051000Y-147230000D01*
X146530000Y-145820000D02*
X146530000Y-147955000D01*
X146610000Y-141621000D02*
X146610000Y-143740000D01*
X146771000Y-145820000D02*
X146771000Y-147901000D01*
X148611000Y-142946000D02*
X148611000Y-146614000D01*
X148091000Y-142364000D02*
X148091000Y-143740000D01*
X148291000Y-142556000D02*
X148291000Y-147004000D01*
X147011000Y-145820000D02*
X147011000Y-147827000D01*
X148811000Y-143271000D02*
X148811000Y-146289000D01*
X142429759Y-142941000D02*
X143059759Y-142941000D01*
X147251000Y-141828000D02*
X147251000Y-143740000D01*
X147291000Y-145820000D02*
X147291000Y-147714000D01*
X146651000Y-141630000D02*
X146651000Y-143740000D01*
X148411000Y-142688000D02*
X148411000Y-146872000D01*
X146530000Y-141605000D02*
X146530000Y-143740000D01*
X146651000Y-145820000D02*
X146651000Y-147930000D01*
X147491000Y-145820000D02*
X147491000Y-147614000D01*
X147731000Y-145820000D02*
X147731000Y-147470000D01*
X146731000Y-145820000D02*
X146731000Y-147911000D01*
X146130000Y-141556000D02*
X146130000Y-148004000D01*
X147011000Y-141733000D02*
X147011000Y-143740000D01*
X147331000Y-145820000D02*
X147331000Y-147696000D01*
X147051000Y-141747000D02*
X147051000Y-143740000D01*
X147611000Y-142014000D02*
X147611000Y-143740000D01*
X146450000Y-145820000D02*
X146450000Y-147969000D01*
X146090000Y-141553000D02*
X146090000Y-148007000D01*
X146330000Y-145820000D02*
X146330000Y-147986000D01*
X147931000Y-145820000D02*
X147931000Y-147328000D01*
X147251000Y-145820000D02*
X147251000Y-147732000D01*
X147971000Y-145820000D02*
X147971000Y-147296000D01*
X147571000Y-145820000D02*
X147571000Y-147570000D01*
X148651000Y-143004000D02*
X148651000Y-146556000D01*
X146170000Y-145820000D02*
X146170000Y-148002000D01*
X148731000Y-143130000D02*
X148731000Y-146430000D01*
X146811000Y-145820000D02*
X146811000Y-147890000D01*
X147731000Y-142090000D02*
X147731000Y-143740000D01*
X146410000Y-141585000D02*
X146410000Y-143740000D01*
X147131000Y-141778000D02*
X147131000Y-143740000D01*
X148171000Y-142437000D02*
X148171000Y-143740000D01*
X148091000Y-145820000D02*
X148091000Y-147196000D01*
X145930000Y-141550000D02*
X145930000Y-148010000D01*
X147811000Y-142144000D02*
X147811000Y-143740000D01*
X147291000Y-141846000D02*
X147291000Y-143740000D01*
X146170000Y-141558000D02*
X146170000Y-143740000D01*
X147091000Y-145820000D02*
X147091000Y-147798000D01*
X146330000Y-141574000D02*
X146330000Y-143740000D01*
X146570000Y-145820000D02*
X146570000Y-147947000D01*
X146410000Y-145820000D02*
X146410000Y-147975000D01*
X149091000Y-143978000D02*
X149091000Y-145582000D01*
X147091000Y-141762000D02*
X147091000Y-143740000D01*
X146290000Y-145820000D02*
X146290000Y-147991000D01*
X148491000Y-142785000D02*
X148491000Y-146775000D01*
X147371000Y-145820000D02*
X147371000Y-147676000D01*
X147931000Y-142232000D02*
X147931000Y-143740000D01*
X147331000Y-141864000D02*
X147331000Y-143740000D01*
X146570000Y-141613000D02*
X146570000Y-143740000D01*
X148891000Y-143430000D02*
X148891000Y-146130000D01*
X146050000Y-141552000D02*
X146050000Y-148008000D01*
X146891000Y-145820000D02*
X146891000Y-147866000D01*
X147131000Y-145820000D02*
X147131000Y-147782000D01*
X147531000Y-145820000D02*
X147531000Y-147592000D01*
X148931000Y-143518000D02*
X148931000Y-146042000D01*
X148251000Y-142515000D02*
X148251000Y-147045000D01*
X146691000Y-145820000D02*
X146691000Y-147921000D01*
X146210000Y-141562000D02*
X146210000Y-143740000D01*
X146931000Y-141706000D02*
X146931000Y-143740000D01*
X146490000Y-141598000D02*
X146490000Y-143740000D01*
X148131000Y-142400000D02*
X148131000Y-143740000D01*
X147411000Y-145820000D02*
X147411000Y-147656000D01*
X148011000Y-145820000D02*
X148011000Y-147264000D01*
X147851000Y-142173000D02*
X147851000Y-143740000D01*
X146891000Y-141694000D02*
X146891000Y-143740000D01*
X147691000Y-145820000D02*
X147691000Y-147496000D01*
X146490000Y-145820000D02*
X146490000Y-147962000D01*
X148371000Y-142643000D02*
X148371000Y-146917000D01*
X148131000Y-145820000D02*
X148131000Y-147160000D01*
X146971000Y-141719000D02*
X146971000Y-143740000D01*
X146731000Y-141649000D02*
X146731000Y-143740000D01*
X148691000Y-143066000D02*
X148691000Y-146494000D01*
X146691000Y-141639000D02*
X146691000Y-143740000D01*
X148051000Y-142330000D02*
X148051000Y-143740000D01*
X148771000Y-143199000D02*
X148771000Y-146361000D01*
X146851000Y-145820000D02*
X146851000Y-147878000D01*
X149131000Y-144147000D02*
X149131000Y-145413000D01*
X148851000Y-143348000D02*
X148851000Y-146212000D01*
X148211000Y-142475000D02*
X148211000Y-143740000D01*
X146290000Y-141569000D02*
X146290000Y-143740000D01*
X148531000Y-142836000D02*
X148531000Y-146724000D01*
X147171000Y-145820000D02*
X147171000Y-147766000D01*
X147051000Y-145820000D02*
X147051000Y-147813000D01*
X148571000Y-142890000D02*
X148571000Y-146670000D01*
X146851000Y-141682000D02*
X146851000Y-143740000D01*
X147851000Y-145820000D02*
X147851000Y-147387000D01*
X145970000Y-141550000D02*
X145970000Y-148010000D01*
X146210000Y-145820000D02*
X146210000Y-147998000D01*
X148451000Y-142736000D02*
X148451000Y-146824000D01*
X147771000Y-145820000D02*
X147771000Y-147444000D01*
X147611000Y-145820000D02*
X147611000Y-147546000D01*
X142744759Y-142626000D02*
X142744759Y-143256000D01*
X146931000Y-145820000D02*
X146931000Y-147854000D01*
X148331000Y-142598000D02*
X148331000Y-146962000D01*
X147211000Y-145820000D02*
X147211000Y-147750000D01*
X147891000Y-145820000D02*
X147891000Y-147358000D01*
X146771000Y-141659000D02*
X146771000Y-143740000D01*
X146610000Y-145820000D02*
X146610000Y-147939000D01*
X149051000Y-143840000D02*
X149051000Y-145720000D01*
X147451000Y-145820000D02*
X147451000Y-147636000D01*
X146370000Y-145820000D02*
X146370000Y-147981000D01*
X146811000Y-141670000D02*
X146811000Y-143740000D01*
X146250000Y-145820000D02*
X146250000Y-147995000D01*
X147691000Y-142064000D02*
X147691000Y-143740000D01*
X147211000Y-141810000D02*
X147211000Y-143740000D01*
X147491000Y-141946000D02*
X147491000Y-143740000D01*
X146971000Y-145820000D02*
X146971000Y-147841000D01*
X146450000Y-141591000D02*
X146450000Y-143740000D01*
X147771000Y-142116000D02*
X147771000Y-143740000D01*
X147811000Y-145820000D02*
X147811000Y-147416000D01*
X146250000Y-141565000D02*
X146250000Y-143740000D01*
X149011000Y-143721000D02*
X149011000Y-145839000D01*
X149200000Y-144780000D02*
G75*
G03*
X149200000Y-144780000I-3270000J0D01*
G01*
%TO.C,C5*%
X141730000Y-115710580D02*
X141730000Y-115429420D01*
X142750000Y-115710580D02*
X142750000Y-115429420D01*
%TO.C,C6*%
X145633280Y-105840000D02*
X145633280Y-103910000D01*
X144873280Y-105386000D02*
X144873280Y-103910000D01*
X144993280Y-105477000D02*
X144993280Y-103910000D01*
X145233280Y-101830000D02*
X145233280Y-100104000D01*
X146234280Y-106029000D02*
X146234280Y-103910000D01*
X145993280Y-101830000D02*
X145993280Y-99772000D01*
X146474280Y-106071000D02*
X146474280Y-103910000D01*
X144433280Y-104962000D02*
X144433280Y-100778000D01*
X145273280Y-105660000D02*
X145273280Y-103910000D01*
X146274280Y-106037000D02*
X146274280Y-103910000D01*
X145393280Y-105726000D02*
X145393280Y-103910000D01*
X146914280Y-106100000D02*
X146914280Y-99640000D01*
X145593280Y-105822000D02*
X145593280Y-103910000D01*
X145673280Y-105856000D02*
X145673280Y-103910000D01*
X146033280Y-105980000D02*
X146033280Y-103910000D01*
X146153280Y-106011000D02*
X146153280Y-103910000D01*
X144113280Y-104520000D02*
X144113280Y-101220000D01*
X145593280Y-101830000D02*
X145593280Y-99918000D01*
X144633280Y-101830000D02*
X144633280Y-100565000D01*
X146073280Y-105991000D02*
X146073280Y-103910000D01*
X146073280Y-101830000D02*
X146073280Y-99749000D01*
X145393280Y-101830000D02*
X145393280Y-100014000D01*
X143793280Y-103810000D02*
X143793280Y-101930000D01*
X144753280Y-101830000D02*
X144753280Y-100454000D01*
X144273280Y-104760000D02*
X144273280Y-100980000D01*
X144913280Y-101830000D02*
X144913280Y-100322000D01*
X146274280Y-101830000D02*
X146274280Y-99703000D01*
X144753280Y-105286000D02*
X144753280Y-103910000D01*
X146834280Y-106100000D02*
X146834280Y-99640000D01*
X146033280Y-101830000D02*
X146033280Y-99760000D01*
X146193280Y-101830000D02*
X146193280Y-99720000D01*
X146554280Y-101830000D02*
X146554280Y-99659000D01*
X146754280Y-106097000D02*
X146754280Y-99643000D01*
X146193280Y-106020000D02*
X146193280Y-103910000D01*
X143993280Y-104302000D02*
X143993280Y-101438000D01*
X145433280Y-105746000D02*
X145433280Y-103910000D01*
X144393280Y-104914000D02*
X144393280Y-100826000D01*
X146434280Y-101830000D02*
X146434280Y-99675000D01*
X145153280Y-101830000D02*
X145153280Y-100154000D01*
X145233280Y-105636000D02*
X145233280Y-103910000D01*
X145873280Y-101830000D02*
X145873280Y-99809000D01*
X145473280Y-101830000D02*
X145473280Y-99974000D01*
X144153280Y-104584000D02*
X144153280Y-101156000D01*
X146354280Y-106052000D02*
X146354280Y-103910000D01*
X146794280Y-106098000D02*
X146794280Y-99642000D01*
X145473280Y-105766000D02*
X145473280Y-103910000D01*
X144713280Y-101830000D02*
X144713280Y-100490000D01*
X144633280Y-105175000D02*
X144633280Y-103910000D01*
X146314280Y-106045000D02*
X146314280Y-103910000D01*
X144673280Y-101830000D02*
X144673280Y-100527000D01*
X146394280Y-101830000D02*
X146394280Y-99681000D01*
X144793280Y-105320000D02*
X144793280Y-103910000D01*
X145793280Y-101830000D02*
X145793280Y-99837000D01*
X145353280Y-101830000D02*
X145353280Y-100036000D01*
X146714280Y-106094000D02*
X146714280Y-99646000D01*
X146514280Y-106076000D02*
X146514280Y-103910000D01*
X145193280Y-101830000D02*
X145193280Y-100128000D01*
X146394280Y-106059000D02*
X146394280Y-103910000D01*
X150099521Y-105024000D02*
X150099521Y-104394000D01*
X146594280Y-101830000D02*
X146594280Y-99655000D01*
X144313280Y-104814000D02*
X144313280Y-100926000D01*
X143753280Y-103672000D02*
X143753280Y-102068000D01*
X144513280Y-105052000D02*
X144513280Y-100688000D01*
X144833280Y-105354000D02*
X144833280Y-103910000D01*
X145513280Y-105786000D02*
X145513280Y-103910000D01*
X144873280Y-101830000D02*
X144873280Y-100354000D01*
X143873280Y-104035000D02*
X143873280Y-101705000D01*
X145353280Y-105704000D02*
X145353280Y-103910000D01*
X146634280Y-101830000D02*
X146634280Y-99652000D01*
X145553280Y-105804000D02*
X145553280Y-103910000D01*
X143673280Y-103272000D02*
X143673280Y-102468000D01*
X144993280Y-101830000D02*
X144993280Y-100263000D01*
X144593280Y-105135000D02*
X144593280Y-100605000D01*
X145913280Y-101830000D02*
X145913280Y-99796000D01*
X146153280Y-101830000D02*
X146153280Y-99729000D01*
X145073280Y-105534000D02*
X145073280Y-103910000D01*
X145033280Y-101830000D02*
X145033280Y-100234000D01*
X146354280Y-101830000D02*
X146354280Y-99688000D01*
X145953280Y-105956000D02*
X145953280Y-103910000D01*
X145073280Y-101830000D02*
X145073280Y-100206000D01*
X145793280Y-105903000D02*
X145793280Y-103910000D01*
X144793280Y-101830000D02*
X144793280Y-100420000D01*
X145833280Y-105917000D02*
X145833280Y-103910000D01*
X144953280Y-101830000D02*
X144953280Y-100292000D01*
X145313280Y-101830000D02*
X145313280Y-100058000D01*
X145433280Y-101830000D02*
X145433280Y-99994000D01*
X150414521Y-104709000D02*
X149784521Y-104709000D01*
X146674280Y-101830000D02*
X146674280Y-99648000D01*
X145993280Y-105968000D02*
X145993280Y-103910000D01*
X146554280Y-106081000D02*
X146554280Y-103910000D01*
X144553280Y-105094000D02*
X144553280Y-100646000D01*
X145913280Y-105944000D02*
X145913280Y-103910000D01*
X144353280Y-104865000D02*
X144353280Y-100875000D01*
X144473280Y-105007000D02*
X144473280Y-100733000D01*
X145753280Y-105888000D02*
X145753280Y-103910000D01*
X146234280Y-101830000D02*
X146234280Y-99711000D01*
X143713280Y-103503000D02*
X143713280Y-102237000D01*
X145113280Y-101830000D02*
X145113280Y-100180000D01*
X146474280Y-101830000D02*
X146474280Y-99669000D01*
X145753280Y-101830000D02*
X145753280Y-99852000D01*
X146874280Y-106100000D02*
X146874280Y-99640000D01*
X146113280Y-101830000D02*
X146113280Y-99739000D01*
X145873280Y-105931000D02*
X145873280Y-103910000D01*
X146514280Y-101830000D02*
X146514280Y-99664000D01*
X145273280Y-101830000D02*
X145273280Y-100080000D01*
X144033280Y-104379000D02*
X144033280Y-101361000D01*
X145193280Y-105612000D02*
X145193280Y-103910000D01*
X144673280Y-105213000D02*
X144673280Y-103910000D01*
X144193280Y-104646000D02*
X144193280Y-101094000D01*
X145713280Y-105872000D02*
X145713280Y-103910000D01*
X146434280Y-106065000D02*
X146434280Y-103910000D01*
X145633280Y-101830000D02*
X145633280Y-99900000D01*
X144073280Y-104451000D02*
X144073280Y-101289000D01*
X145513280Y-101830000D02*
X145513280Y-99954000D01*
X145953280Y-101830000D02*
X145953280Y-99784000D01*
X145833280Y-101830000D02*
X145833280Y-99823000D01*
X144953280Y-105448000D02*
X144953280Y-103910000D01*
X144233280Y-104704000D02*
X144233280Y-101036000D01*
X143913280Y-104132000D02*
X143913280Y-101608000D01*
X144913280Y-105418000D02*
X144913280Y-103910000D01*
X144833280Y-101830000D02*
X144833280Y-100386000D01*
X145033280Y-105506000D02*
X145033280Y-103910000D01*
X146314280Y-101830000D02*
X146314280Y-99695000D01*
X145713280Y-101830000D02*
X145713280Y-99868000D01*
X143953280Y-104220000D02*
X143953280Y-101520000D01*
X145113280Y-105560000D02*
X145113280Y-103910000D01*
X145553280Y-101830000D02*
X145553280Y-99936000D01*
X146674280Y-106092000D02*
X146674280Y-103910000D01*
X144713280Y-105250000D02*
X144713280Y-103910000D01*
X145673280Y-101830000D02*
X145673280Y-99884000D01*
X145153280Y-105586000D02*
X145153280Y-103910000D01*
X146113280Y-106001000D02*
X146113280Y-103910000D01*
X146634280Y-106088000D02*
X146634280Y-103910000D01*
X145313280Y-105682000D02*
X145313280Y-103910000D01*
X143833280Y-103929000D02*
X143833280Y-101811000D01*
X146594280Y-106085000D02*
X146594280Y-103910000D01*
X150184280Y-102870000D02*
G75*
G03*
X150184280Y-102870000I-3270000J0D01*
G01*
%TO.C,C7*%
X141116267Y-107120000D02*
X140823733Y-107120000D01*
X141116267Y-106100000D02*
X140823733Y-106100000D01*
%TO.C,C8*%
X143400000Y-115710580D02*
X143400000Y-115429420D01*
X144420000Y-115710580D02*
X144420000Y-115429420D01*
%TO.C,R5*%
X163070000Y-140334420D02*
X163070000Y-140615580D01*
X162050000Y-140334420D02*
X162050000Y-140615580D01*
%TO.C,R9*%
X138560000Y-118632500D02*
X138085484Y-118632500D01*
X138560000Y-117587500D02*
X138085484Y-117587500D01*
%TO.C,R12*%
X136832064Y-109325000D02*
X136377936Y-109325000D01*
X136832064Y-107855000D02*
X136377936Y-107855000D01*
%TO.C,R13*%
X136474564Y-105315000D02*
X136020436Y-105315000D01*
X136474564Y-106785000D02*
X136020436Y-106785000D01*
%TO.C,R14*%
X140760000Y-102870000D02*
X140070000Y-102870000D01*
X130140000Y-102870000D02*
X130830000Y-102870000D01*
X130830000Y-101150000D02*
X130830000Y-104590000D01*
X140070000Y-101150000D02*
X130830000Y-101150000D01*
X140070000Y-104590000D02*
X140070000Y-101150000D01*
X130830000Y-104590000D02*
X140070000Y-104590000D01*
%TO.C,R18*%
X164862742Y-113540000D02*
X165337258Y-113540000D01*
X164862742Y-114585000D02*
X165337258Y-114585000D01*
%TO.C,R19*%
X165812742Y-122787500D02*
X166287258Y-122787500D01*
X165812742Y-121742500D02*
X166287258Y-121742500D01*
%TO.C,R20*%
X164862742Y-112360000D02*
X165337258Y-112360000D01*
X164862742Y-111315000D02*
X165337258Y-111315000D01*
%TO.C,R22*%
X169952936Y-109330000D02*
X170407064Y-109330000D01*
X169952936Y-107860000D02*
X170407064Y-107860000D01*
%TO.C,R23*%
X169952936Y-105300000D02*
X170407064Y-105300000D01*
X169952936Y-106770000D02*
X170407064Y-106770000D01*
%TO.C,R24*%
X166140000Y-102870000D02*
X166830000Y-102870000D01*
X176070000Y-104590000D02*
X176070000Y-101150000D01*
X176760000Y-102870000D02*
X176070000Y-102870000D01*
X176070000Y-101150000D02*
X166830000Y-101150000D01*
X166830000Y-101150000D02*
X166830000Y-104590000D01*
X166830000Y-104590000D02*
X176070000Y-104590000D01*
D13*
%TO.C,U1*%
X150800000Y-139605000D02*
X150800000Y-134715000D01*
X148925000Y-134370000D02*
X150450000Y-134370000D01*
X150800000Y-134715000D02*
X154000000Y-134715000D01*
X154000000Y-134715000D02*
X154000000Y-139605000D01*
X154000000Y-139605000D02*
X150800000Y-139605000D01*
%TO.C,U4*%
X134020000Y-110310000D02*
X134420000Y-110310000D01*
X134420000Y-110310000D02*
X134420000Y-113210000D01*
X136070000Y-113260000D02*
X134770000Y-113260000D01*
X134420000Y-113210000D02*
X134020000Y-113210000D01*
X134020000Y-113210000D02*
X134020000Y-110310000D01*
%TO.C,U5*%
X134420000Y-120830000D02*
X134020000Y-120830000D01*
X134420000Y-117930000D02*
X134420000Y-120830000D01*
X136070000Y-120880000D02*
X134770000Y-120880000D01*
X134020000Y-120830000D02*
X134020000Y-117930000D01*
X134020000Y-117930000D02*
X134420000Y-117930000D01*
%TO.C,U9*%
X170380000Y-117930000D02*
X170380000Y-120830000D01*
X170380000Y-120830000D02*
X169980000Y-120830000D01*
X169980000Y-120830000D02*
X169980000Y-117930000D01*
X169980000Y-117930000D02*
X170380000Y-117930000D01*
X168330000Y-117880000D02*
X169630000Y-117880000D01*
%TO.C,U14*%
X151701000Y-126150000D02*
G75*
G03*
X151701000Y-126150000I-100000J0D01*
G01*
D14*
X152725000Y-128250000D02*
X152170000Y-128250000D01*
X155170000Y-128250000D02*
X154615000Y-128250000D01*
X154615000Y-125750000D02*
X155170000Y-125750000D01*
X152170000Y-125750000D02*
X152725000Y-125750000D01*
X152170000Y-125750000D02*
X152170000Y-125805000D01*
X155170000Y-125750000D02*
X155170000Y-125805000D01*
X152170000Y-128250000D02*
X152170000Y-128195000D01*
X155170000Y-128250000D02*
X155170000Y-128195000D01*
D12*
%TO.C,R2*%
X146797500Y-134972258D02*
X146797500Y-134497742D01*
X147842500Y-134972258D02*
X147842500Y-134497742D01*
%TO.C,R4*%
X158002500Y-132667742D02*
X158002500Y-133142258D01*
X156957500Y-132667742D02*
X156957500Y-133142258D01*
%TO.C,R8*%
X138667258Y-112282500D02*
X138192742Y-112282500D01*
X138667258Y-111237500D02*
X138192742Y-111237500D01*
%TO.C,C1*%
X142099420Y-124970000D02*
X142380580Y-124970000D01*
X142099420Y-123950000D02*
X142380580Y-123950000D01*
%TO.C,R15*%
X133510000Y-122365000D02*
X133055872Y-122365000D01*
X133510000Y-123835000D02*
X133055872Y-123835000D01*
%TO.C,R6*%
X155177258Y-132827500D02*
X154702742Y-132827500D01*
X155177258Y-133872500D02*
X154702742Y-133872500D01*
%TO.C,R17*%
X133350000Y-141200000D02*
X133350000Y-140510000D01*
X131630000Y-131270000D02*
X131630000Y-140510000D01*
X131630000Y-140510000D02*
X135070000Y-140510000D01*
X133350000Y-130580000D02*
X133350000Y-131270000D01*
X135070000Y-131270000D02*
X131630000Y-131270000D01*
X135070000Y-140510000D02*
X135070000Y-131270000D01*
%TO.C,C13*%
X164340000Y-143369420D02*
X164340000Y-143650580D01*
X163320000Y-143369420D02*
X163320000Y-143650580D01*
%TO.C,C16*%
X153529420Y-130700000D02*
X153810580Y-130700000D01*
X153529420Y-131720000D02*
X153810580Y-131720000D01*
%TO.C,R10*%
X138642258Y-113365000D02*
X138167742Y-113365000D01*
X138642258Y-114410000D02*
X138167742Y-114410000D01*
D13*
%TO.C,D4*%
X173865000Y-124530000D02*
X178390000Y-124530000D01*
X175490000Y-124530000D02*
X175490000Y-126930000D01*
X174590000Y-126930000D02*
X178390000Y-126930000D01*
D12*
%TO.C,C14*%
X156970000Y-139559420D02*
X156970000Y-139840580D01*
X157990000Y-139559420D02*
X157990000Y-139840580D01*
%TO.C,C10*%
X159879420Y-141730000D02*
X160160580Y-141730000D01*
X159879420Y-142750000D02*
X160160580Y-142750000D01*
D13*
%TO.C,D1*%
X126370000Y-110420000D02*
X130170000Y-110420000D01*
X125645000Y-108020000D02*
X130170000Y-108020000D01*
X127270000Y-108020000D02*
X127270000Y-110420000D01*
D12*
%TO.C,L1*%
X147830000Y-138592779D02*
X147830000Y-138267221D01*
X146810000Y-138592779D02*
X146810000Y-138267221D01*
%TO.C,R25*%
X171328256Y-123725000D02*
X171782384Y-123725000D01*
X171328256Y-125195000D02*
X171782384Y-125195000D01*
%TO.C,C12*%
X159510000Y-138075580D02*
X159510000Y-137794420D01*
X160530000Y-138075580D02*
X160530000Y-137794420D01*
%TO.C,SW2*%
X163080000Y-134310000D02*
X164580000Y-134310000D01*
X167080000Y-133060000D02*
X167080000Y-128560000D01*
X160580000Y-128560000D02*
X160580000Y-133060000D01*
X164580000Y-127310000D02*
X163080000Y-127310000D01*
%TO.C,R11*%
X138620000Y-120112500D02*
X138145484Y-120112500D01*
X138620000Y-121157500D02*
X138145484Y-121157500D01*
D15*
%TO.C,U2*%
X145300000Y-114270000D02*
G75*
G03*
X145200000Y-114270000I-50000J0D01*
G01*
X145200000Y-114270000D02*
G75*
G03*
X145300000Y-114270000I50000J0D01*
G01*
D13*
X159000000Y-107270000D02*
X159000000Y-112670000D01*
D15*
X145300000Y-114270000D02*
X145300000Y-114270000D01*
D13*
X145800000Y-107270000D02*
X159000000Y-107270000D01*
D15*
X145200000Y-114270000D02*
X145200000Y-114270000D01*
D13*
X145800000Y-112670000D02*
X145800000Y-107270000D01*
D12*
%TO.C,C2*%
X147830000Y-131164420D02*
X147830000Y-131445580D01*
X146810000Y-131164420D02*
X146810000Y-131445580D01*
%TO.C,C9*%
X166223733Y-106170000D02*
X166516267Y-106170000D01*
X166223733Y-107190000D02*
X166516267Y-107190000D01*
%TO.C,R27*%
X174440000Y-140510000D02*
X174440000Y-131270000D01*
X172720000Y-130580000D02*
X172720000Y-131270000D01*
X171000000Y-140510000D02*
X174440000Y-140510000D01*
X174440000Y-131270000D02*
X171000000Y-131270000D01*
X172720000Y-141200000D02*
X172720000Y-140510000D01*
X171000000Y-131270000D02*
X171000000Y-140510000D01*
D13*
%TO.C,U8*%
X170580000Y-113390000D02*
X170180000Y-113390000D01*
X170580000Y-110490000D02*
X170580000Y-113390000D01*
X170180000Y-113390000D02*
X170180000Y-110490000D01*
X168530000Y-110440000D02*
X169830000Y-110440000D01*
X170180000Y-110490000D02*
X170580000Y-110490000D01*
D12*
%TO.C,R21*%
X165812742Y-120127500D02*
X166287258Y-120127500D01*
X165812742Y-121172500D02*
X166287258Y-121172500D01*
%TO.C,R3*%
X160257258Y-145302500D02*
X159782742Y-145302500D01*
X160257258Y-144257500D02*
X159782742Y-144257500D01*
%TO.C,R26*%
X171313692Y-127625000D02*
X171767820Y-127625000D01*
X171313692Y-126155000D02*
X171767820Y-126155000D01*
%TO.C,R7*%
X157687742Y-127522500D02*
X158162258Y-127522500D01*
X157687742Y-126477500D02*
X158162258Y-126477500D01*
%TO.C,SW1*%
X140220000Y-134310000D02*
X141720000Y-134310000D01*
X141720000Y-127310000D02*
X140220000Y-127310000D01*
X137720000Y-128560000D02*
X137720000Y-133060000D01*
X144220000Y-133060000D02*
X144220000Y-128560000D01*
%TO.C,R16*%
X133510000Y-124885000D02*
X133055872Y-124885000D01*
X133510000Y-126355000D02*
X133055872Y-126355000D01*
%TO.C,R1*%
X142987500Y-120887258D02*
X142987500Y-120412742D01*
X144032500Y-120887258D02*
X144032500Y-120412742D01*
D13*
%TO.C,D3*%
X179135000Y-110420000D02*
X174610000Y-110420000D01*
X178410000Y-108020000D02*
X174610000Y-108020000D01*
X177510000Y-110420000D02*
X177510000Y-108020000D01*
D12*
%TO.C,C11*%
X157990000Y-136030580D02*
X157990000Y-135749420D01*
X156970000Y-136030580D02*
X156970000Y-135749420D01*
%TO.C,C15*%
X153529420Y-130050000D02*
X153810580Y-130050000D01*
X153529420Y-129030000D02*
X153810580Y-129030000D01*
D13*
%TO.C,D2*%
X126370000Y-126930000D02*
X130170000Y-126930000D01*
X125645000Y-124530000D02*
X130170000Y-124530000D01*
X127270000Y-124530000D02*
X127270000Y-126930000D01*
%TD*%
M02*
