%TF.GenerationSoftware,KiCad,Pcbnew,6.0.11+dfsg-1*%
%TF.CreationDate,2025-03-25T22:51:24-04:00*%
%TF.ProjectId,quad_unibody,71756164-5f75-46e6-9962-6f64792e6b69,rev?*%
%TF.SameCoordinates,Original*%
%TF.FileFunction,Soldermask,Top*%
%TF.FilePolarity,Negative*%
%FSLAX46Y46*%
G04 Gerber Fmt 4.6, Leading zero omitted, Abs format (unit mm)*
G04 Created by KiCad (PCBNEW 6.0.11+dfsg-1) date 2025-03-25 22:51:24*
%MOMM*%
%LPD*%
G01*
G04 APERTURE LIST*
G04 Aperture macros list*
%AMRoundRect*
0 Rectangle with rounded corners*
0 $1 Rounding radius*
0 $2 $3 $4 $5 $6 $7 $8 $9 X,Y pos of 4 corners*
0 Add a 4 corners polygon primitive as box body*
4,1,4,$2,$3,$4,$5,$6,$7,$8,$9,$2,$3,0*
0 Add four circle primitives for the rounded corners*
1,1,$1+$1,$2,$3*
1,1,$1+$1,$4,$5*
1,1,$1+$1,$6,$7*
1,1,$1+$1,$8,$9*
0 Add four rect primitives between the rounded corners*
20,1,$1+$1,$2,$3,$4,$5,0*
20,1,$1+$1,$4,$5,$6,$7,0*
20,1,$1+$1,$6,$7,$8,$9,0*
20,1,$1+$1,$8,$9,$2,$3,0*%
G04 Aperture macros list end*
%ADD10C,0.010000*%
%ADD11RoundRect,0.200000X-0.200000X-0.275000X0.200000X-0.275000X0.200000X0.275000X-0.200000X0.275000X0*%
%ADD12RoundRect,0.200000X0.275000X-0.200000X0.275000X0.200000X-0.275000X0.200000X-0.275000X-0.200000X0*%
%ADD13RoundRect,0.225000X0.225000X0.250000X-0.225000X0.250000X-0.225000X-0.250000X0.225000X-0.250000X0*%
%ADD14R,1.600000X1.600000*%
%ADD15C,1.600000*%
%ADD16RoundRect,0.225000X0.250000X-0.225000X0.250000X0.225000X-0.250000X0.225000X-0.250000X-0.225000X0*%
%ADD17RoundRect,0.237500X0.300000X0.237500X-0.300000X0.237500X-0.300000X-0.237500X0.300000X-0.237500X0*%
%ADD18RoundRect,0.225000X-0.250000X0.225000X-0.250000X-0.225000X0.250000X-0.225000X0.250000X0.225000X0*%
%ADD19RoundRect,0.200000X0.200000X0.275000X-0.200000X0.275000X-0.200000X-0.275000X0.200000X-0.275000X0*%
%ADD20RoundRect,0.250000X0.262500X0.450000X-0.262500X0.450000X-0.262500X-0.450000X0.262500X-0.450000X0*%
%ADD21O,1.600000X1.600000*%
%ADD22RoundRect,0.250000X-0.262500X-0.450000X0.262500X-0.450000X0.262500X0.450000X-0.262500X0.450000X0*%
%ADD23R,1.526000X0.435000*%
%ADD24R,1.493000X1.493000*%
%ADD25C,1.493000*%
%ADD26R,1.300000X0.600000*%
%ADD27C,1.524000*%
%ADD28RoundRect,0.200000X-0.275000X0.200000X-0.275000X-0.200000X0.275000X-0.200000X0.275000X0.200000X0*%
%ADD29RoundRect,0.225000X-0.225000X-0.250000X0.225000X-0.250000X0.225000X0.250000X-0.225000X0.250000X0*%
%ADD30R,1.100000X1.880000*%
%ADD31RoundRect,0.218750X0.256250X-0.218750X0.256250X0.218750X-0.256250X0.218750X-0.256250X-0.218750X0*%
%ADD32C,2.000000*%
%ADD33R,1.450000X1.450000*%
%ADD34R,0.700000X0.700000*%
%ADD35R,0.400000X0.800000*%
%ADD36R,0.800000X0.400000*%
%ADD37RoundRect,0.237500X-0.300000X-0.237500X0.300000X-0.237500X0.300000X0.237500X-0.300000X0.237500X0*%
G04 APERTURE END LIST*
%TO.C,U14*%
G36*
X152795000Y-126425000D02*
G01*
X152220000Y-126425000D01*
X152220000Y-126075000D01*
X152795000Y-126075000D01*
X152795000Y-126425000D01*
G37*
D10*
X152795000Y-126425000D02*
X152220000Y-126425000D01*
X152220000Y-126075000D01*
X152795000Y-126075000D01*
X152795000Y-126425000D01*
G36*
X152795000Y-127925000D02*
G01*
X152220000Y-127925000D01*
X152220000Y-127575000D01*
X152795000Y-127575000D01*
X152795000Y-127925000D01*
G37*
X152795000Y-127925000D02*
X152220000Y-127925000D01*
X152220000Y-127575000D01*
X152795000Y-127575000D01*
X152795000Y-127925000D01*
G36*
X152795000Y-126925000D02*
G01*
X152220000Y-126925000D01*
X152220000Y-126575000D01*
X152795000Y-126575000D01*
X152795000Y-126925000D01*
G37*
X152795000Y-126925000D02*
X152220000Y-126925000D01*
X152220000Y-126575000D01*
X152795000Y-126575000D01*
X152795000Y-126925000D01*
G36*
X154345000Y-126375000D02*
G01*
X153995000Y-126375000D01*
X153995000Y-125800000D01*
X154345000Y-125800000D01*
X154345000Y-126375000D01*
G37*
X154345000Y-126375000D02*
X153995000Y-126375000D01*
X153995000Y-125800000D01*
X154345000Y-125800000D01*
X154345000Y-126375000D01*
G36*
X155120000Y-126425000D02*
G01*
X154545000Y-126425000D01*
X154545000Y-126075000D01*
X155120000Y-126075000D01*
X155120000Y-126425000D01*
G37*
X155120000Y-126425000D02*
X154545000Y-126425000D01*
X154545000Y-126075000D01*
X155120000Y-126075000D01*
X155120000Y-126425000D01*
G36*
X152795000Y-127425000D02*
G01*
X152220000Y-127425000D01*
X152220000Y-127075000D01*
X152795000Y-127075000D01*
X152795000Y-127425000D01*
G37*
X152795000Y-127425000D02*
X152220000Y-127425000D01*
X152220000Y-127075000D01*
X152795000Y-127075000D01*
X152795000Y-127425000D01*
G36*
X154345000Y-128200000D02*
G01*
X153995000Y-128200000D01*
X153995000Y-127625000D01*
X154345000Y-127625000D01*
X154345000Y-128200000D01*
G37*
X154345000Y-128200000D02*
X153995000Y-128200000D01*
X153995000Y-127625000D01*
X154345000Y-127625000D01*
X154345000Y-128200000D01*
G36*
X155120000Y-126925000D02*
G01*
X154545000Y-126925000D01*
X154545000Y-126575000D01*
X155120000Y-126575000D01*
X155120000Y-126925000D01*
G37*
X155120000Y-126925000D02*
X154545000Y-126925000D01*
X154545000Y-126575000D01*
X155120000Y-126575000D01*
X155120000Y-126925000D01*
G36*
X153845000Y-128200000D02*
G01*
X153495000Y-128200000D01*
X153495000Y-127625000D01*
X153845000Y-127625000D01*
X153845000Y-128200000D01*
G37*
X153845000Y-128200000D02*
X153495000Y-128200000D01*
X153495000Y-127625000D01*
X153845000Y-127625000D01*
X153845000Y-128200000D01*
G36*
X153345000Y-126375000D02*
G01*
X152995000Y-126375000D01*
X152995000Y-125800000D01*
X153345000Y-125800000D01*
X153345000Y-126375000D01*
G37*
X153345000Y-126375000D02*
X152995000Y-126375000D01*
X152995000Y-125800000D01*
X153345000Y-125800000D01*
X153345000Y-126375000D01*
G36*
X155120000Y-127925000D02*
G01*
X154545000Y-127925000D01*
X154545000Y-127575000D01*
X155120000Y-127575000D01*
X155120000Y-127925000D01*
G37*
X155120000Y-127925000D02*
X154545000Y-127925000D01*
X154545000Y-127575000D01*
X155120000Y-127575000D01*
X155120000Y-127925000D01*
G36*
X153845000Y-126375000D02*
G01*
X153495000Y-126375000D01*
X153495000Y-125800000D01*
X153845000Y-125800000D01*
X153845000Y-126375000D01*
G37*
X153845000Y-126375000D02*
X153495000Y-126375000D01*
X153495000Y-125800000D01*
X153845000Y-125800000D01*
X153845000Y-126375000D01*
G36*
X153345000Y-128200000D02*
G01*
X152995000Y-128200000D01*
X152995000Y-127625000D01*
X153345000Y-127625000D01*
X153345000Y-128200000D01*
G37*
X153345000Y-128200000D02*
X152995000Y-128200000D01*
X152995000Y-127625000D01*
X153345000Y-127625000D01*
X153345000Y-128200000D01*
G36*
X155120000Y-127425000D02*
G01*
X154545000Y-127425000D01*
X154545000Y-127075000D01*
X155120000Y-127075000D01*
X155120000Y-127425000D01*
G37*
X155120000Y-127425000D02*
X154545000Y-127425000D01*
X154545000Y-127075000D01*
X155120000Y-127075000D01*
X155120000Y-127425000D01*
%TD*%
D11*
%TO.C,R30*%
X156338000Y-129032000D03*
X157988000Y-129032000D03*
%TD*%
D12*
%TO.C,R29*%
X150622000Y-127888000D03*
X150622000Y-126238000D03*
%TD*%
%TO.C,R28*%
X149098000Y-127317000D03*
X149098000Y-125667000D03*
%TD*%
D13*
%TO.C,C3*%
X139700000Y-115570000D03*
X138150000Y-115570000D03*
%TD*%
D14*
%TO.C,C4*%
X144680000Y-144780000D03*
D15*
X147180000Y-144780000D03*
%TD*%
D16*
%TO.C,C5*%
X142240000Y-116345000D03*
X142240000Y-114795000D03*
%TD*%
D14*
%TO.C,C6*%
X148164280Y-102870000D03*
D15*
X145664280Y-102870000D03*
%TD*%
D17*
%TO.C,C7*%
X141832500Y-106610000D03*
X140107500Y-106610000D03*
%TD*%
D16*
%TO.C,C8*%
X143910000Y-116345000D03*
X143910000Y-114795000D03*
%TD*%
D18*
%TO.C,R5*%
X162560000Y-139700000D03*
X162560000Y-141250000D03*
%TD*%
D19*
%TO.C,R9*%
X139147742Y-118110000D03*
X137497742Y-118110000D03*
%TD*%
D20*
%TO.C,R12*%
X137517500Y-108590000D03*
X135692500Y-108590000D03*
%TD*%
%TO.C,R13*%
X137160000Y-106050000D03*
X135335000Y-106050000D03*
%TD*%
D15*
%TO.C,R14*%
X141800000Y-102870000D03*
D21*
X129100000Y-102870000D03*
%TD*%
D11*
%TO.C,R18*%
X164275000Y-114062500D03*
X165925000Y-114062500D03*
%TD*%
%TO.C,R19*%
X165225000Y-122265000D03*
X166875000Y-122265000D03*
%TD*%
%TO.C,R20*%
X164275000Y-111837500D03*
X165925000Y-111837500D03*
%TD*%
D22*
%TO.C,R22*%
X169267500Y-108595000D03*
X171092500Y-108595000D03*
%TD*%
%TO.C,R23*%
X169267500Y-106035000D03*
X171092500Y-106035000D03*
%TD*%
D15*
%TO.C,R24*%
X165100000Y-102870000D03*
D21*
X177800000Y-102870000D03*
%TD*%
D23*
%TO.C,U1*%
X149688000Y-134938000D03*
X149688000Y-135572000D03*
X149688000Y-136208000D03*
X149688000Y-136842000D03*
X149688000Y-137478000D03*
X149688000Y-138112000D03*
X149688000Y-138748000D03*
X149688000Y-139382000D03*
X155112000Y-139382000D03*
X155112000Y-138748000D03*
X155112000Y-138112000D03*
X155112000Y-137478000D03*
X155112000Y-136842000D03*
X155112000Y-136208000D03*
X155112000Y-135572000D03*
X155112000Y-134938000D03*
%TD*%
D24*
%TO.C,U3*%
X162560000Y-102870000D03*
D25*
X159960000Y-102870000D03*
X157360000Y-102870000D03*
X154940000Y-102870000D03*
%TD*%
D26*
%TO.C,U4*%
X135420000Y-112710000D03*
X135420000Y-110810000D03*
X133020000Y-111760000D03*
%TD*%
%TO.C,U5*%
X135420000Y-120330000D03*
X135420000Y-118430000D03*
X133020000Y-119380000D03*
%TD*%
D24*
%TO.C,U7*%
X127270000Y-129540000D03*
D25*
X129870000Y-129540000D03*
%TD*%
D26*
%TO.C,U9*%
X168980000Y-118430000D03*
X168980000Y-120330000D03*
X171380000Y-119380000D03*
%TD*%
D24*
%TO.C,U11*%
X176530000Y-129540000D03*
D25*
X179130000Y-129540000D03*
%TD*%
D24*
%TO.C,U12*%
X167640000Y-146010000D03*
D27*
X167640000Y-143470000D03*
X167640000Y-140930000D03*
%TD*%
D12*
%TO.C,R2*%
X147320000Y-133910000D03*
X147320000Y-135560000D03*
%TD*%
D28*
%TO.C,R4*%
X157480000Y-133730000D03*
X157480000Y-132080000D03*
%TD*%
D19*
%TO.C,R8*%
X137605000Y-111760000D03*
X139255000Y-111760000D03*
%TD*%
D29*
%TO.C,C1*%
X143015000Y-124460000D03*
X141465000Y-124460000D03*
%TD*%
D20*
%TO.C,R15*%
X132370436Y-123100000D03*
X134195436Y-123100000D03*
%TD*%
D19*
%TO.C,R6*%
X154115000Y-133350000D03*
X155765000Y-133350000D03*
%TD*%
D21*
%TO.C,R17*%
X133350000Y-129540000D03*
D15*
X133350000Y-142240000D03*
%TD*%
D18*
%TO.C,C13*%
X163830000Y-144285000D03*
X163830000Y-142735000D03*
%TD*%
D29*
%TO.C,C16*%
X154445000Y-131210000D03*
X152895000Y-131210000D03*
%TD*%
D19*
%TO.C,R10*%
X137580000Y-113887500D03*
X139230000Y-113887500D03*
%TD*%
D30*
%TO.C,D4*%
X174415000Y-125730000D03*
X178565000Y-125730000D03*
%TD*%
D18*
%TO.C,C14*%
X157480000Y-140475000D03*
X157480000Y-138925000D03*
%TD*%
D29*
%TO.C,C10*%
X160795000Y-142240000D03*
X159245000Y-142240000D03*
%TD*%
D30*
%TO.C,D1*%
X126195000Y-109220000D03*
X130345000Y-109220000D03*
%TD*%
D31*
%TO.C,L1*%
X147320000Y-139217500D03*
X147320000Y-137642500D03*
%TD*%
D22*
%TO.C,R25*%
X172467820Y-124460000D03*
X170642820Y-124460000D03*
%TD*%
D16*
%TO.C,C12*%
X160020000Y-137160000D03*
X160020000Y-138710000D03*
%TD*%
D32*
%TO.C,SW2*%
X161580000Y-127560000D03*
X161580000Y-134060000D03*
X166080000Y-127560000D03*
X166080000Y-134060000D03*
%TD*%
D19*
%TO.C,R11*%
X137557742Y-120635000D03*
X139207742Y-120635000D03*
%TD*%
D33*
%TO.C,U2*%
X150425000Y-116295000D03*
X152400000Y-116295000D03*
X154375000Y-116295000D03*
X154375000Y-118270000D03*
X154375000Y-120245000D03*
X152400000Y-120245000D03*
X150425000Y-120245000D03*
X150425000Y-118270000D03*
D34*
X146500000Y-113370000D03*
X146500000Y-123170000D03*
X158300000Y-123170000D03*
X158300000Y-113370000D03*
D33*
X152400000Y-118270000D03*
D35*
X147600000Y-113370000D03*
X148400000Y-113370000D03*
X149200000Y-113370000D03*
X150000000Y-113370000D03*
X150800000Y-113370000D03*
X151600000Y-113370000D03*
X152400000Y-113370000D03*
X153200000Y-113370000D03*
X154000000Y-113370000D03*
X154800000Y-113370000D03*
X155600000Y-113370000D03*
X156400000Y-113370000D03*
X157200000Y-113370000D03*
D36*
X158300000Y-114270000D03*
X158300000Y-115070000D03*
X158300000Y-115870000D03*
X158300000Y-116670000D03*
X158300000Y-117470000D03*
X158300000Y-118270000D03*
X158300000Y-119070000D03*
X158300000Y-119870000D03*
X158300000Y-120670000D03*
X158300000Y-121470000D03*
X158300000Y-122270000D03*
D35*
X157200000Y-123170000D03*
X156400000Y-123170000D03*
X155600000Y-123170000D03*
X154800000Y-123170000D03*
X154000000Y-123170000D03*
X153200000Y-123170000D03*
X152400000Y-123170000D03*
X151600000Y-123170000D03*
X150800000Y-123170000D03*
X150000000Y-123170000D03*
X149200000Y-123170000D03*
X148400000Y-123170000D03*
X147600000Y-123170000D03*
D36*
X146500000Y-122270000D03*
X146500000Y-121470000D03*
X146500000Y-120670000D03*
X146500000Y-119870000D03*
X146500000Y-119070000D03*
X146500000Y-118270000D03*
X146500000Y-117470000D03*
X146500000Y-116670000D03*
X146500000Y-115870000D03*
X146500000Y-115070000D03*
X146500000Y-114270000D03*
%TD*%
D18*
%TO.C,C2*%
X147320000Y-132080000D03*
X147320000Y-130530000D03*
%TD*%
D25*
%TO.C,U6*%
X129600000Y-113030000D03*
D24*
X127000000Y-113030000D03*
%TD*%
D37*
%TO.C,C9*%
X165507500Y-106680000D03*
X167232500Y-106680000D03*
%TD*%
D21*
%TO.C,R27*%
X172720000Y-129540000D03*
D15*
X172720000Y-142240000D03*
%TD*%
D26*
%TO.C,U8*%
X171580000Y-111940000D03*
X169180000Y-112890000D03*
X169180000Y-110990000D03*
%TD*%
D11*
%TO.C,R21*%
X166875000Y-120650000D03*
X165225000Y-120650000D03*
%TD*%
D19*
%TO.C,R3*%
X159195000Y-144780000D03*
X160845000Y-144780000D03*
%TD*%
D22*
%TO.C,R26*%
X172453256Y-126890000D03*
X170628256Y-126890000D03*
%TD*%
D11*
%TO.C,R7*%
X158750000Y-127000000D03*
X157100000Y-127000000D03*
%TD*%
D32*
%TO.C,SW1*%
X138720000Y-134060000D03*
X138720000Y-127560000D03*
X143220000Y-127560000D03*
X143220000Y-134060000D03*
%TD*%
D20*
%TO.C,R16*%
X132370436Y-125620000D03*
X134195436Y-125620000D03*
%TD*%
D12*
%TO.C,R1*%
X143510000Y-119825000D03*
X143510000Y-121475000D03*
%TD*%
D30*
%TO.C,D3*%
X178585000Y-109220000D03*
X174435000Y-109220000D03*
%TD*%
D16*
%TO.C,C11*%
X157480000Y-135115000D03*
X157480000Y-136665000D03*
%TD*%
D25*
%TO.C,U10*%
X175200000Y-113030000D03*
D24*
X177800000Y-113030000D03*
%TD*%
D29*
%TO.C,C15*%
X154445000Y-129540000D03*
X152895000Y-129540000D03*
%TD*%
D30*
%TO.C,D2*%
X126195000Y-125730000D03*
X130345000Y-125730000D03*
%TD*%
D25*
%TO.C,U13*%
X168910000Y-138510000D03*
D24*
X168910000Y-135910000D03*
%TD*%
M02*
