%TF.GenerationSoftware,KiCad,Pcbnew,6.0.11+dfsg-1*%
%TF.CreationDate,2025-03-25T22:51:24-04:00*%
%TF.ProjectId,quad_unibody,71756164-5f75-46e6-9962-6f64792e6b69,rev?*%
%TF.SameCoordinates,Original*%
%TF.FileFunction,Copper,L2,Bot*%
%TF.FilePolarity,Positive*%
%FSLAX46Y46*%
G04 Gerber Fmt 4.6, Leading zero omitted, Abs format (unit mm)*
G04 Created by KiCad (PCBNEW 6.0.11+dfsg-1) date 2025-03-25 22:51:24*
%MOMM*%
%LPD*%
G01*
G04 APERTURE LIST*
%TA.AperFunction,ComponentPad*%
%ADD10R,1.600000X1.600000*%
%TD*%
%TA.AperFunction,ComponentPad*%
%ADD11C,1.600000*%
%TD*%
%TA.AperFunction,ComponentPad*%
%ADD12O,1.600000X1.600000*%
%TD*%
%TA.AperFunction,ComponentPad*%
%ADD13R,1.493000X1.493000*%
%TD*%
%TA.AperFunction,ComponentPad*%
%ADD14C,1.493000*%
%TD*%
%TA.AperFunction,ComponentPad*%
%ADD15C,1.524000*%
%TD*%
%TA.AperFunction,ComponentPad*%
%ADD16C,2.000000*%
%TD*%
%TA.AperFunction,ViaPad*%
%ADD17C,0.800000*%
%TD*%
%TA.AperFunction,Conductor*%
%ADD18C,0.250000*%
%TD*%
G04 APERTURE END LIST*
D10*
%TO.P,C4,1*%
%TO.N,v_out*%
X144680000Y-144780000D03*
D11*
%TO.P,C4,2*%
%TO.N,GND*%
X147180000Y-144780000D03*
%TD*%
D10*
%TO.P,C6,1*%
%TO.N,+BATT*%
X148164280Y-102870000D03*
D11*
%TO.P,C6,2*%
%TO.N,GND*%
X145664280Y-102870000D03*
%TD*%
%TO.P,R14,1*%
%TO.N,+BATT*%
X141800000Y-102870000D03*
D12*
%TO.P,R14,2*%
%TO.N,Net-(D1-Pad1)*%
X129100000Y-102870000D03*
%TD*%
D11*
%TO.P,R24,1*%
%TO.N,+BATT*%
X165100000Y-102870000D03*
D12*
%TO.P,R24,2*%
%TO.N,Net-(D3-Pad1)*%
X177800000Y-102870000D03*
%TD*%
D13*
%TO.P,U3,1*%
%TO.N,+BATT*%
X162560000Y-102870000D03*
D14*
%TO.P,U3,2*%
%TO.N,GND*%
X159960000Y-102870000D03*
%TO.P,U3,3*%
%TO.N,UART_RX*%
X157360000Y-102870000D03*
%TO.P,U3,4*%
%TO.N,UART_TX*%
X154940000Y-102870000D03*
%TD*%
D13*
%TO.P,U7,1*%
%TO.N,Net-(D2-Pad1)*%
X127270000Y-129540000D03*
D14*
%TO.P,U7,2*%
%TO.N,Net-(D2-Pad2)*%
X129870000Y-129540000D03*
%TD*%
D13*
%TO.P,U11,1*%
%TO.N,Net-(D4-Pad1)*%
X176530000Y-129540000D03*
D14*
%TO.P,U11,2*%
%TO.N,Net-(D4-Pad2)*%
X179130000Y-129540000D03*
%TD*%
D13*
%TO.P,U12,1*%
%TO.N,unconnected-(U12-Pad1)*%
X167640000Y-146010000D03*
D15*
%TO.P,U12,2*%
%TO.N,+BATT*%
X167640000Y-143470000D03*
%TO.P,U12,3*%
%TO.N,Net-(U12-Pad3)*%
X167640000Y-140930000D03*
%TD*%
D12*
%TO.P,R17,2*%
%TO.N,Net-(D2-Pad1)*%
X133350000Y-129540000D03*
D11*
%TO.P,R17,1*%
%TO.N,+BATT*%
X133350000Y-142240000D03*
%TD*%
D16*
%TO.P,SW2,1,1*%
%TO.N,IO9_BOOT*%
X161580000Y-127560000D03*
X161580000Y-134060000D03*
%TO.P,SW2,2,2*%
%TO.N,GND*%
X166080000Y-127560000D03*
X166080000Y-134060000D03*
%TD*%
D14*
%TO.P,U6,2*%
%TO.N,Net-(D1-Pad2)*%
X129600000Y-113030000D03*
D13*
%TO.P,U6,1*%
%TO.N,Net-(D1-Pad1)*%
X127000000Y-113030000D03*
%TD*%
D12*
%TO.P,R27,2*%
%TO.N,Net-(D4-Pad1)*%
X172720000Y-129540000D03*
D11*
%TO.P,R27,1*%
%TO.N,+BATT*%
X172720000Y-142240000D03*
%TD*%
D16*
%TO.P,SW1,1,1*%
%TO.N,RESET*%
X138720000Y-134060000D03*
X138720000Y-127560000D03*
%TO.P,SW1,2,2*%
%TO.N,GND*%
X143220000Y-127560000D03*
X143220000Y-134060000D03*
%TD*%
D14*
%TO.P,U10,2*%
%TO.N,Net-(D3-Pad2)*%
X175200000Y-113030000D03*
D13*
%TO.P,U10,1*%
%TO.N,Net-(D3-Pad1)*%
X177800000Y-113030000D03*
%TD*%
D14*
%TO.P,U13,2*%
%TO.N,Net-(U12-Pad3)*%
X168910000Y-138510000D03*
D13*
%TO.P,U13,1*%
%TO.N,GND*%
X168910000Y-135910000D03*
%TD*%
D17*
%TO.N,GND*%
X151638000Y-127000000D03*
%TO.N,IO8*%
X155150842Y-122193414D03*
X157271574Y-128508566D03*
%TO.N,IO5_SCL*%
X151384000Y-125730000D03*
X153227378Y-123616429D03*
%TO.N,GND*%
X166370000Y-115570000D03*
X144780000Y-140335000D03*
X147955000Y-114935000D03*
X135890000Y-115570000D03*
X148590000Y-140335000D03*
X165100000Y-130810000D03*
X156845000Y-142875000D03*
X158750000Y-123190000D03*
X153670000Y-133985000D03*
X153035000Y-142875000D03*
X147920000Y-121250000D03*
X154445000Y-129540000D03*
X148590000Y-136525000D03*
X140970000Y-112395000D03*
X138430000Y-123825000D03*
X139700000Y-130810000D03*
X149860000Y-133350000D03*
X145415000Y-133350000D03*
X150495000Y-136525000D03*
X162560000Y-115570000D03*
X156210000Y-114935000D03*
X140970000Y-120015000D03*
X151765000Y-136525000D03*
X153035000Y-139065000D03*
X143510000Y-130810000D03*
X170815000Y-115570000D03*
X156845000Y-147320000D03*
X154305000Y-132080000D03*
X144145000Y-112395000D03*
X153670000Y-136525000D03*
X162560000Y-130810000D03*
%TO.N,v_out*%
X143015000Y-116345000D03*
X144780000Y-122555000D03*
X139700000Y-116205000D03*
X142240000Y-107315000D03*
%TO.N,+BATT*%
X154940000Y-144780000D03*
X133985000Y-121920000D03*
X156210000Y-137160000D03*
X137160000Y-107315000D03*
X169545000Y-123825000D03*
X168275000Y-109855000D03*
%TO.N,fb*%
X156528000Y-135508500D03*
X160020000Y-140970000D03*
%TO.N,IO9_BOOT*%
X157480000Y-125730000D03*
X156210000Y-121920000D03*
%TD*%
D18*
%TO.N,IO8*%
X155150842Y-124549943D02*
X155150842Y-122193414D01*
X157271574Y-126670675D02*
X155150842Y-124549943D01*
X157271574Y-128508566D02*
X157271574Y-126670675D01*
%TO.N,IO5_SCL*%
X151384000Y-125730000D02*
X153227378Y-123886622D01*
X153227378Y-123886622D02*
X153227378Y-123616429D01*
%TO.N,v_out*%
X143015000Y-116345000D02*
X143015000Y-108090000D01*
X144780000Y-122555000D02*
X144780000Y-118110000D01*
X144780000Y-118110000D02*
X143015000Y-116345000D01*
X139840000Y-116345000D02*
X139700000Y-116205000D01*
X143015000Y-108090000D02*
X142240000Y-107315000D01*
X143015000Y-116345000D02*
X139840000Y-116345000D01*
%TO.N,+BATT*%
X168275000Y-122555000D02*
X169545000Y-123825000D01*
X137160000Y-118745000D02*
X137160000Y-107315000D01*
X168275000Y-109855000D02*
X168275000Y-122555000D01*
X133985000Y-121920000D02*
X137160000Y-118745000D01*
X154940000Y-144780000D02*
X154940000Y-138430000D01*
X154940000Y-138430000D02*
X156210000Y-137160000D01*
%TO.N,fb*%
X160020000Y-139000500D02*
X156528000Y-135508500D01*
X160020000Y-140970000D02*
X160020000Y-139000500D01*
%TO.N,IO9_BOOT*%
X156210000Y-124460000D02*
X156210000Y-121920000D01*
X157480000Y-125730000D02*
X156210000Y-124460000D01*
%TD*%
%TA.AperFunction,Conductor*%
%TO.N,GND*%
G36*
X185107621Y-95524502D02*
G01*
X185154114Y-95578158D01*
X185165500Y-95630500D01*
X185165500Y-150749500D01*
X185145498Y-150817621D01*
X185091842Y-150864114D01*
X185039500Y-150875500D01*
X122300500Y-150875500D01*
X122232379Y-150855498D01*
X122185886Y-150801842D01*
X122174500Y-150749500D01*
X122174500Y-147232074D01*
X122932145Y-147232074D01*
X122934447Y-147320000D01*
X122940581Y-147554234D01*
X122985990Y-147873290D01*
X123067768Y-148185011D01*
X123184834Y-148485268D01*
X123335634Y-148770080D01*
X123337684Y-148773063D01*
X123337686Y-148773066D01*
X123516113Y-149032679D01*
X123516119Y-149032686D01*
X123518170Y-149035671D01*
X123730022Y-149278523D01*
X123968384Y-149495415D01*
X124230094Y-149683473D01*
X124511685Y-149840205D01*
X124809425Y-149963532D01*
X124812919Y-149964527D01*
X124812921Y-149964528D01*
X125115865Y-150050824D01*
X125115870Y-150050825D01*
X125119366Y-150051821D01*
X125301894Y-150081711D01*
X125433819Y-150103315D01*
X125433826Y-150103316D01*
X125437400Y-150103901D01*
X125759313Y-150119083D01*
X125763611Y-150118790D01*
X126077205Y-150097411D01*
X126077212Y-150097410D01*
X126080837Y-150097163D01*
X126084413Y-150096500D01*
X126084415Y-150096500D01*
X126394146Y-150039095D01*
X126394150Y-150039094D01*
X126397711Y-150038434D01*
X126705735Y-149943673D01*
X127000827Y-149814138D01*
X127279074Y-149651543D01*
X127536788Y-149458045D01*
X127770555Y-149236209D01*
X127977276Y-148988974D01*
X128154209Y-148719618D01*
X128270464Y-148488473D01*
X128297385Y-148434947D01*
X128297388Y-148434939D01*
X128299012Y-148431711D01*
X128300257Y-148428309D01*
X128408515Y-148132480D01*
X128408518Y-148132471D01*
X128409763Y-148129068D01*
X128410608Y-148125546D01*
X128410611Y-148125538D01*
X128484149Y-147819231D01*
X128484150Y-147819227D01*
X128484996Y-147815702D01*
X128516637Y-147554234D01*
X128523376Y-147498544D01*
X128523376Y-147498538D01*
X128523712Y-147495765D01*
X128529236Y-147320000D01*
X128524166Y-147232074D01*
X178812145Y-147232074D01*
X178814447Y-147320000D01*
X178820581Y-147554234D01*
X178865990Y-147873290D01*
X178947768Y-148185011D01*
X179064834Y-148485268D01*
X179215634Y-148770080D01*
X179217684Y-148773063D01*
X179217686Y-148773066D01*
X179396113Y-149032679D01*
X179396119Y-149032686D01*
X179398170Y-149035671D01*
X179610022Y-149278523D01*
X179848384Y-149495415D01*
X180110094Y-149683473D01*
X180391685Y-149840205D01*
X180689425Y-149963532D01*
X180692919Y-149964527D01*
X180692921Y-149964528D01*
X180995865Y-150050824D01*
X180995870Y-150050825D01*
X180999366Y-150051821D01*
X181181894Y-150081711D01*
X181313819Y-150103315D01*
X181313826Y-150103316D01*
X181317400Y-150103901D01*
X181639313Y-150119083D01*
X181643611Y-150118790D01*
X181957205Y-150097411D01*
X181957212Y-150097410D01*
X181960837Y-150097163D01*
X181964413Y-150096500D01*
X181964415Y-150096500D01*
X182274146Y-150039095D01*
X182274150Y-150039094D01*
X182277711Y-150038434D01*
X182585735Y-149943673D01*
X182880827Y-149814138D01*
X183159074Y-149651543D01*
X183416788Y-149458045D01*
X183650555Y-149236209D01*
X183857276Y-148988974D01*
X184034209Y-148719618D01*
X184150464Y-148488473D01*
X184177385Y-148434947D01*
X184177388Y-148434939D01*
X184179012Y-148431711D01*
X184180257Y-148428309D01*
X184288515Y-148132480D01*
X184288518Y-148132471D01*
X184289763Y-148129068D01*
X184290608Y-148125546D01*
X184290611Y-148125538D01*
X184364149Y-147819231D01*
X184364150Y-147819227D01*
X184364996Y-147815702D01*
X184396637Y-147554234D01*
X184403376Y-147498544D01*
X184403376Y-147498538D01*
X184403712Y-147495765D01*
X184409236Y-147320000D01*
X184404166Y-147232074D01*
X184390894Y-147001884D01*
X184390893Y-147001879D01*
X184390685Y-146998264D01*
X184374849Y-146907530D01*
X184335901Y-146684365D01*
X184335899Y-146684358D01*
X184335277Y-146680792D01*
X184311068Y-146599062D01*
X184297596Y-146553584D01*
X184243747Y-146371793D01*
X184242326Y-146368462D01*
X184242323Y-146368453D01*
X184118731Y-146078695D01*
X184117309Y-146075361D01*
X183957637Y-145795427D01*
X183934173Y-145763484D01*
X183822262Y-145611137D01*
X183766848Y-145535700D01*
X183728429Y-145494356D01*
X183549944Y-145302283D01*
X183549942Y-145302281D01*
X183547472Y-145299623D01*
X183544718Y-145297271D01*
X183544714Y-145297267D01*
X183376829Y-145153880D01*
X183302416Y-145090325D01*
X183299413Y-145088307D01*
X183299405Y-145088301D01*
X183133176Y-144976601D01*
X183034927Y-144910580D01*
X183031718Y-144908924D01*
X183031710Y-144908919D01*
X182751772Y-144764433D01*
X182751773Y-144764433D01*
X182748552Y-144762771D01*
X182745171Y-144761493D01*
X182745161Y-144761489D01*
X182559126Y-144691193D01*
X182447086Y-144648856D01*
X182134525Y-144570346D01*
X181999727Y-144552599D01*
X181818615Y-144528755D01*
X181818607Y-144528754D01*
X181815011Y-144528281D01*
X181681144Y-144526178D01*
X181496422Y-144523276D01*
X181496418Y-144523276D01*
X181492780Y-144523219D01*
X181489166Y-144523580D01*
X181489160Y-144523580D01*
X181264221Y-144546032D01*
X181172103Y-144555227D01*
X181104936Y-144569872D01*
X180893206Y-144616037D01*
X180857230Y-144623881D01*
X180853803Y-144625054D01*
X180853797Y-144625056D01*
X180555765Y-144727095D01*
X180555760Y-144727097D01*
X180552334Y-144728270D01*
X180549066Y-144729829D01*
X180549058Y-144729832D01*
X180435213Y-144784134D01*
X180261458Y-144867011D01*
X179988455Y-145038265D01*
X179985621Y-145040535D01*
X179985616Y-145040539D01*
X179850497Y-145148790D01*
X179736946Y-145239762D01*
X179734393Y-145242342D01*
X179543172Y-145435576D01*
X179510262Y-145468832D01*
X179508021Y-145471690D01*
X179337143Y-145689620D01*
X179311410Y-145722438D01*
X179143024Y-145997219D01*
X179141497Y-146000509D01*
X179141492Y-146000518D01*
X179059456Y-146177250D01*
X179007336Y-146289532D01*
X178906146Y-146595504D01*
X178905410Y-146599059D01*
X178905409Y-146599062D01*
X178887744Y-146684365D01*
X178840793Y-146911079D01*
X178812145Y-147232074D01*
X128524166Y-147232074D01*
X128510894Y-147001884D01*
X128510893Y-147001879D01*
X128510685Y-146998264D01*
X128494849Y-146907530D01*
X128455901Y-146684365D01*
X128455899Y-146684358D01*
X128455277Y-146680792D01*
X128431068Y-146599062D01*
X128417596Y-146553584D01*
X128363747Y-146371793D01*
X128362326Y-146368462D01*
X128362323Y-146368453D01*
X128238731Y-146078695D01*
X128237309Y-146075361D01*
X128117927Y-145866062D01*
X146458493Y-145866062D01*
X146467789Y-145878077D01*
X146518994Y-145913931D01*
X146528489Y-145919414D01*
X146725947Y-146011490D01*
X146736239Y-146015236D01*
X146946688Y-146071625D01*
X146957481Y-146073528D01*
X147174525Y-146092517D01*
X147185475Y-146092517D01*
X147402519Y-146073528D01*
X147413312Y-146071625D01*
X147623761Y-146015236D01*
X147634053Y-146011490D01*
X147831511Y-145919414D01*
X147841006Y-145913931D01*
X147893048Y-145877491D01*
X147901424Y-145867012D01*
X147894356Y-145853566D01*
X147192812Y-145152022D01*
X147178868Y-145144408D01*
X147177035Y-145144539D01*
X147170420Y-145148790D01*
X146464923Y-145854287D01*
X146458493Y-145866062D01*
X128117927Y-145866062D01*
X128077637Y-145795427D01*
X128054173Y-145763484D01*
X127942262Y-145611137D01*
X127886848Y-145535700D01*
X127848429Y-145494356D01*
X127669944Y-145302283D01*
X127669942Y-145302281D01*
X127667472Y-145299623D01*
X127664718Y-145297271D01*
X127664714Y-145297267D01*
X127496829Y-145153880D01*
X127422416Y-145090325D01*
X127419413Y-145088307D01*
X127419405Y-145088301D01*
X127253176Y-144976601D01*
X127154927Y-144910580D01*
X127151718Y-144908924D01*
X127151710Y-144908919D01*
X126871772Y-144764433D01*
X126871773Y-144764433D01*
X126868552Y-144762771D01*
X126865171Y-144761493D01*
X126865161Y-144761489D01*
X126679126Y-144691193D01*
X126567086Y-144648856D01*
X126254525Y-144570346D01*
X126119727Y-144552599D01*
X125938615Y-144528755D01*
X125938607Y-144528754D01*
X125935011Y-144528281D01*
X125801144Y-144526178D01*
X125616422Y-144523276D01*
X125616418Y-144523276D01*
X125612780Y-144523219D01*
X125609166Y-144523580D01*
X125609160Y-144523580D01*
X125384221Y-144546032D01*
X125292103Y-144555227D01*
X125224936Y-144569872D01*
X125013206Y-144616037D01*
X124977230Y-144623881D01*
X124973803Y-144625054D01*
X124973797Y-144625056D01*
X124675765Y-144727095D01*
X124675760Y-144727097D01*
X124672334Y-144728270D01*
X124669066Y-144729829D01*
X124669058Y-144729832D01*
X124555213Y-144784134D01*
X124381458Y-144867011D01*
X124108455Y-145038265D01*
X124105621Y-145040535D01*
X124105616Y-145040539D01*
X123970497Y-145148790D01*
X123856946Y-145239762D01*
X123854393Y-145242342D01*
X123663172Y-145435576D01*
X123630262Y-145468832D01*
X123628021Y-145471690D01*
X123457143Y-145689620D01*
X123431410Y-145722438D01*
X123263024Y-145997219D01*
X123261497Y-146000509D01*
X123261492Y-146000518D01*
X123179456Y-146177250D01*
X123127336Y-146289532D01*
X123026146Y-146595504D01*
X123025410Y-146599059D01*
X123025409Y-146599062D01*
X123007744Y-146684365D01*
X122960793Y-146911079D01*
X122932145Y-147232074D01*
X122174500Y-147232074D01*
X122174500Y-143954933D01*
X143625500Y-143954933D01*
X143625501Y-145605066D01*
X143640266Y-145679301D01*
X143647161Y-145689620D01*
X143647162Y-145689622D01*
X143687516Y-145750015D01*
X143696516Y-145763484D01*
X143780699Y-145819734D01*
X143854933Y-145834500D01*
X144679866Y-145834500D01*
X145505066Y-145834499D01*
X145540818Y-145827388D01*
X145567126Y-145822156D01*
X145567128Y-145822155D01*
X145579301Y-145819734D01*
X145589621Y-145812839D01*
X145589622Y-145812838D01*
X145653168Y-145770377D01*
X145663484Y-145763484D01*
X145719734Y-145679301D01*
X145734500Y-145605067D01*
X145734500Y-145343456D01*
X145754502Y-145275335D01*
X145808158Y-145228842D01*
X145878432Y-145218738D01*
X145943012Y-145248232D01*
X145974695Y-145290206D01*
X146040586Y-145431511D01*
X146046069Y-145441006D01*
X146082509Y-145493048D01*
X146092988Y-145501424D01*
X146106434Y-145494356D01*
X146807978Y-144792812D01*
X146814356Y-144781132D01*
X147544408Y-144781132D01*
X147544539Y-144782965D01*
X147548790Y-144789580D01*
X148254287Y-145495077D01*
X148266062Y-145501507D01*
X148278077Y-145492211D01*
X148313931Y-145441006D01*
X148319414Y-145431511D01*
X148411490Y-145234053D01*
X148415236Y-145223761D01*
X148471625Y-145013312D01*
X148473528Y-145002519D01*
X148492517Y-144785475D01*
X148492517Y-144774525D01*
X148492392Y-144773096D01*
X154280729Y-144773096D01*
X154289421Y-144851824D01*
X154296131Y-144912599D01*
X154298113Y-144930553D01*
X154300723Y-144937684D01*
X154300723Y-144937686D01*
X154338362Y-145040539D01*
X154352553Y-145079319D01*
X154356789Y-145085622D01*
X154356789Y-145085623D01*
X154402655Y-145153878D01*
X154440908Y-145210805D01*
X154446527Y-145215918D01*
X154446528Y-145215919D01*
X154552460Y-145312309D01*
X154558076Y-145317419D01*
X154697293Y-145393008D01*
X154850522Y-145433207D01*
X154934477Y-145434526D01*
X155001319Y-145435576D01*
X155001322Y-145435576D01*
X155008916Y-145435695D01*
X155163332Y-145400329D01*
X155233742Y-145364917D01*
X155298072Y-145332563D01*
X155298075Y-145332561D01*
X155304855Y-145329151D01*
X155310626Y-145324222D01*
X155310629Y-145324220D01*
X155411072Y-145238433D01*
X166639000Y-145238433D01*
X166639001Y-146781566D01*
X166653766Y-146855801D01*
X166710016Y-146939984D01*
X166794199Y-146996234D01*
X166868433Y-147011000D01*
X167639875Y-147011000D01*
X168411566Y-147010999D01*
X168447318Y-147003888D01*
X168473626Y-146998656D01*
X168473628Y-146998655D01*
X168485801Y-146996234D01*
X168496121Y-146989339D01*
X168496122Y-146989338D01*
X168559668Y-146946877D01*
X168569984Y-146939984D01*
X168626234Y-146855801D01*
X168641000Y-146781567D01*
X168640999Y-145238434D01*
X168626234Y-145164199D01*
X168618098Y-145152022D01*
X168576877Y-145090332D01*
X168569984Y-145080016D01*
X168485801Y-145023766D01*
X168411567Y-145009000D01*
X167640125Y-145009000D01*
X166868434Y-145009001D01*
X166832682Y-145016112D01*
X166806374Y-145021344D01*
X166806372Y-145021345D01*
X166794199Y-145023766D01*
X166783879Y-145030661D01*
X166783878Y-145030662D01*
X166748872Y-145054053D01*
X166710016Y-145080016D01*
X166703123Y-145090332D01*
X166661903Y-145152022D01*
X166653766Y-145164199D01*
X166639000Y-145238433D01*
X155411072Y-145238433D01*
X155419536Y-145231204D01*
X155419536Y-145231203D01*
X155425314Y-145226269D01*
X155517755Y-145097624D01*
X155576842Y-144950641D01*
X155599162Y-144793807D01*
X155599307Y-144780000D01*
X155598645Y-144774525D01*
X155592905Y-144727095D01*
X155580276Y-144622733D01*
X155524280Y-144474546D01*
X155478529Y-144407978D01*
X155438855Y-144350251D01*
X155438854Y-144350249D01*
X155434553Y-144343992D01*
X155361681Y-144279065D01*
X155324126Y-144218816D01*
X155319500Y-144184989D01*
X155319500Y-143455739D01*
X166618682Y-143455739D01*
X166635362Y-143654386D01*
X166690310Y-143846009D01*
X166781430Y-144023311D01*
X166905253Y-144179537D01*
X167057063Y-144308737D01*
X167062441Y-144311743D01*
X167062443Y-144311744D01*
X167111107Y-144338941D01*
X167231076Y-144405989D01*
X167236935Y-144407893D01*
X167236938Y-144407894D01*
X167272701Y-144419514D01*
X167420665Y-144467591D01*
X167426775Y-144468320D01*
X167426777Y-144468320D01*
X167494314Y-144476373D01*
X167618609Y-144491194D01*
X167624744Y-144490722D01*
X167624746Y-144490722D01*
X167811226Y-144476373D01*
X167811231Y-144476372D01*
X167817367Y-144475900D01*
X167823297Y-144474244D01*
X167823299Y-144474244D01*
X167913368Y-144449096D01*
X168009370Y-144422292D01*
X168022634Y-144415592D01*
X168181802Y-144335191D01*
X168181804Y-144335190D01*
X168187303Y-144332412D01*
X168344390Y-144209682D01*
X168365534Y-144185187D01*
X168470618Y-144063446D01*
X168470619Y-144063444D01*
X168474647Y-144058778D01*
X168573112Y-143885448D01*
X168636035Y-143696294D01*
X168655178Y-143544764D01*
X168660578Y-143502023D01*
X168660579Y-143502013D01*
X168661020Y-143498520D01*
X168661418Y-143470000D01*
X168641965Y-143271606D01*
X168640184Y-143265707D01*
X168640183Y-143265702D01*
X168586129Y-143086667D01*
X168584348Y-143080768D01*
X168530799Y-142980056D01*
X168493655Y-142910198D01*
X168493653Y-142910195D01*
X168490761Y-142904756D01*
X168486871Y-142899986D01*
X168486868Y-142899982D01*
X168368663Y-142755049D01*
X168368660Y-142755046D01*
X168364768Y-142750274D01*
X168211170Y-142623206D01*
X168035815Y-142528392D01*
X167845385Y-142469444D01*
X167839260Y-142468800D01*
X167839259Y-142468800D01*
X167653260Y-142449251D01*
X167653258Y-142449251D01*
X167647131Y-142448607D01*
X167524252Y-142459790D01*
X167454746Y-142466115D01*
X167454745Y-142466115D01*
X167448605Y-142466674D01*
X167442691Y-142468415D01*
X167442689Y-142468415D01*
X167312539Y-142506721D01*
X167257370Y-142522958D01*
X167080709Y-142615314D01*
X167075909Y-142619174D01*
X167075908Y-142619174D01*
X167070893Y-142623206D01*
X166925351Y-142740225D01*
X166797214Y-142892933D01*
X166701179Y-143067621D01*
X166640902Y-143257635D01*
X166618682Y-143455739D01*
X155319500Y-143455739D01*
X155319500Y-142225206D01*
X171660501Y-142225206D01*
X171677806Y-142431278D01*
X171734807Y-142630066D01*
X171737625Y-142635548D01*
X171737626Y-142635552D01*
X171826514Y-142808509D01*
X171826517Y-142808513D01*
X171829334Y-142813995D01*
X171957786Y-142976061D01*
X171962479Y-142980055D01*
X171962480Y-142980056D01*
X172080817Y-143080768D01*
X172115271Y-143110091D01*
X172295789Y-143210980D01*
X172492466Y-143274884D01*
X172697809Y-143299370D01*
X172703944Y-143298898D01*
X172703946Y-143298898D01*
X172897856Y-143283977D01*
X172897860Y-143283976D01*
X172903998Y-143283504D01*
X173103178Y-143227892D01*
X173108682Y-143225112D01*
X173108684Y-143225111D01*
X173282262Y-143137431D01*
X173282264Y-143137430D01*
X173287763Y-143134652D01*
X173450722Y-143007334D01*
X173454748Y-143002670D01*
X173454751Y-143002667D01*
X173581819Y-142855457D01*
X173581820Y-142855455D01*
X173585848Y-142850789D01*
X173687995Y-142670979D01*
X173753270Y-142474753D01*
X173779189Y-142269586D01*
X173779602Y-142240000D01*
X173759422Y-142034189D01*
X173699651Y-141836217D01*
X173602565Y-141653625D01*
X173598674Y-141648855D01*
X173598672Y-141648851D01*
X173475758Y-141498143D01*
X173475755Y-141498140D01*
X173471863Y-141493368D01*
X173467114Y-141489439D01*
X173317271Y-141365478D01*
X173317266Y-141365475D01*
X173312522Y-141361550D01*
X173307103Y-141358620D01*
X173307100Y-141358618D01*
X173136032Y-141266122D01*
X173136027Y-141266120D01*
X173130612Y-141263192D01*
X172933063Y-141202040D01*
X172926938Y-141201396D01*
X172926937Y-141201396D01*
X172733526Y-141181068D01*
X172733524Y-141181068D01*
X172727397Y-141180424D01*
X172601229Y-141191906D01*
X172527591Y-141198607D01*
X172527590Y-141198607D01*
X172521450Y-141199166D01*
X172323066Y-141257554D01*
X172317601Y-141260411D01*
X172145261Y-141350508D01*
X172145257Y-141350511D01*
X172139801Y-141353363D01*
X171978635Y-141482943D01*
X171845708Y-141641360D01*
X171746082Y-141822578D01*
X171683553Y-142019696D01*
X171660501Y-142225206D01*
X155319500Y-142225206D01*
X155319500Y-138639384D01*
X155339502Y-138571263D01*
X155356405Y-138550289D01*
X156056178Y-137850516D01*
X156118490Y-137816490D01*
X156147252Y-137813627D01*
X156271318Y-137815576D01*
X156271321Y-137815576D01*
X156278916Y-137815695D01*
X156433332Y-137780329D01*
X156503742Y-137744917D01*
X156568072Y-137712563D01*
X156568075Y-137712561D01*
X156574855Y-137709151D01*
X156580626Y-137704222D01*
X156580629Y-137704220D01*
X156689536Y-137611204D01*
X156689536Y-137611203D01*
X156695314Y-137606269D01*
X156787755Y-137477624D01*
X156846842Y-137330641D01*
X156869162Y-137173807D01*
X156869307Y-137160000D01*
X156868700Y-137154979D01*
X156862202Y-137101286D01*
X156850276Y-137002733D01*
X156794280Y-136854546D01*
X156704553Y-136723992D01*
X156586275Y-136618611D01*
X156578889Y-136614700D01*
X156452988Y-136548039D01*
X156452989Y-136548039D01*
X156446274Y-136544484D01*
X156292633Y-136505892D01*
X156285034Y-136505852D01*
X156285033Y-136505852D01*
X156219181Y-136505507D01*
X156134221Y-136505062D01*
X156126841Y-136506834D01*
X156126839Y-136506834D01*
X155987563Y-136540271D01*
X155987560Y-136540272D01*
X155980184Y-136542043D01*
X155839414Y-136614700D01*
X155720039Y-136718838D01*
X155628950Y-136848444D01*
X155571406Y-136996037D01*
X155570414Y-137003570D01*
X155570414Y-137003571D01*
X155556426Y-137109824D01*
X155550729Y-137153096D01*
X155553544Y-137178591D01*
X155556963Y-137209566D01*
X155544557Y-137279470D01*
X155520819Y-137312487D01*
X154709784Y-138123522D01*
X154691036Y-138138664D01*
X154689811Y-138139779D01*
X154681060Y-138145429D01*
X154674613Y-138153607D01*
X154674611Y-138153609D01*
X154660271Y-138171800D01*
X154656325Y-138176241D01*
X154656398Y-138176303D01*
X154653039Y-138180267D01*
X154649362Y-138183944D01*
X154638108Y-138199692D01*
X154634602Y-138204362D01*
X154602844Y-138244647D01*
X154599812Y-138253281D01*
X154594486Y-138260734D01*
X154591501Y-138270715D01*
X154579799Y-138309844D01*
X154577964Y-138315492D01*
X154560982Y-138363851D01*
X154560500Y-138369416D01*
X154560500Y-138372124D01*
X154560386Y-138374758D01*
X154560357Y-138374856D01*
X154560193Y-138374849D01*
X154560149Y-138375553D01*
X154558287Y-138381778D01*
X154558696Y-138392183D01*
X154560403Y-138435635D01*
X154560500Y-138440582D01*
X154560500Y-144185187D01*
X154540498Y-144253308D01*
X154517330Y-144280135D01*
X154450039Y-144338838D01*
X154358950Y-144468444D01*
X154301406Y-144616037D01*
X154300414Y-144623570D01*
X154300414Y-144623571D01*
X154286425Y-144729832D01*
X154280729Y-144773096D01*
X148492392Y-144773096D01*
X148473528Y-144557481D01*
X148471625Y-144546688D01*
X148415236Y-144336239D01*
X148411490Y-144325947D01*
X148319414Y-144128489D01*
X148313931Y-144118994D01*
X148277491Y-144066952D01*
X148267012Y-144058576D01*
X148253566Y-144065644D01*
X147552022Y-144767188D01*
X147544408Y-144781132D01*
X146814356Y-144781132D01*
X146815592Y-144778868D01*
X146815461Y-144777035D01*
X146811210Y-144770420D01*
X146105713Y-144064923D01*
X146093938Y-144058493D01*
X146081923Y-144067789D01*
X146046069Y-144118994D01*
X146040586Y-144128489D01*
X145974694Y-144269795D01*
X145927776Y-144323080D01*
X145859499Y-144342541D01*
X145791539Y-144321999D01*
X145745474Y-144267976D01*
X145734499Y-144216545D01*
X145734499Y-143954934D01*
X145719734Y-143880699D01*
X145663484Y-143796516D01*
X145579301Y-143740266D01*
X145505067Y-143725500D01*
X144680134Y-143725500D01*
X143854934Y-143725501D01*
X143819182Y-143732612D01*
X143792874Y-143737844D01*
X143792872Y-143737845D01*
X143780699Y-143740266D01*
X143770379Y-143747161D01*
X143770378Y-143747162D01*
X143709985Y-143787516D01*
X143696516Y-143796516D01*
X143640266Y-143880699D01*
X143625500Y-143954933D01*
X122174500Y-143954933D01*
X122174500Y-143692988D01*
X146458576Y-143692988D01*
X146465644Y-143706434D01*
X147167188Y-144407978D01*
X147181132Y-144415592D01*
X147182965Y-144415461D01*
X147189580Y-144411210D01*
X147895077Y-143705713D01*
X147901507Y-143693938D01*
X147892211Y-143681923D01*
X147841006Y-143646069D01*
X147831511Y-143640586D01*
X147634053Y-143548510D01*
X147623761Y-143544764D01*
X147413312Y-143488375D01*
X147402519Y-143486472D01*
X147185475Y-143467483D01*
X147174525Y-143467483D01*
X146957481Y-143486472D01*
X146946688Y-143488375D01*
X146736239Y-143544764D01*
X146725947Y-143548510D01*
X146528489Y-143640586D01*
X146518994Y-143646069D01*
X146466952Y-143682509D01*
X146458576Y-143692988D01*
X122174500Y-143692988D01*
X122174500Y-142225206D01*
X132290501Y-142225206D01*
X132307806Y-142431278D01*
X132364807Y-142630066D01*
X132367625Y-142635548D01*
X132367626Y-142635552D01*
X132456514Y-142808509D01*
X132456517Y-142808513D01*
X132459334Y-142813995D01*
X132587786Y-142976061D01*
X132592479Y-142980055D01*
X132592480Y-142980056D01*
X132710817Y-143080768D01*
X132745271Y-143110091D01*
X132925789Y-143210980D01*
X133122466Y-143274884D01*
X133327809Y-143299370D01*
X133333944Y-143298898D01*
X133333946Y-143298898D01*
X133527856Y-143283977D01*
X133527860Y-143283976D01*
X133533998Y-143283504D01*
X133733178Y-143227892D01*
X133738682Y-143225112D01*
X133738684Y-143225111D01*
X133912262Y-143137431D01*
X133912264Y-143137430D01*
X133917763Y-143134652D01*
X134080722Y-143007334D01*
X134084748Y-143002670D01*
X134084751Y-143002667D01*
X134211819Y-142855457D01*
X134211820Y-142855455D01*
X134215848Y-142850789D01*
X134317995Y-142670979D01*
X134383270Y-142474753D01*
X134409189Y-142269586D01*
X134409602Y-142240000D01*
X134389422Y-142034189D01*
X134329651Y-141836217D01*
X134232565Y-141653625D01*
X134228674Y-141648855D01*
X134228672Y-141648851D01*
X134105758Y-141498143D01*
X134105755Y-141498140D01*
X134101863Y-141493368D01*
X134097114Y-141489439D01*
X133947271Y-141365478D01*
X133947266Y-141365475D01*
X133942522Y-141361550D01*
X133937103Y-141358620D01*
X133937100Y-141358618D01*
X133766032Y-141266122D01*
X133766027Y-141266120D01*
X133760612Y-141263192D01*
X133563063Y-141202040D01*
X133556938Y-141201396D01*
X133556937Y-141201396D01*
X133363526Y-141181068D01*
X133363524Y-141181068D01*
X133357397Y-141180424D01*
X133231229Y-141191906D01*
X133157591Y-141198607D01*
X133157590Y-141198607D01*
X133151450Y-141199166D01*
X132953066Y-141257554D01*
X132947601Y-141260411D01*
X132775261Y-141350508D01*
X132775257Y-141350511D01*
X132769801Y-141353363D01*
X132608635Y-141482943D01*
X132475708Y-141641360D01*
X132376082Y-141822578D01*
X132313553Y-142019696D01*
X132290501Y-142225206D01*
X122174500Y-142225206D01*
X122174500Y-134060000D01*
X137460708Y-134060000D01*
X137479839Y-134278674D01*
X137536653Y-134490703D01*
X137555916Y-134532012D01*
X137627095Y-134684659D01*
X137627098Y-134684664D01*
X137629421Y-134689646D01*
X137632577Y-134694153D01*
X137632578Y-134694155D01*
X137712137Y-134807776D01*
X137755326Y-134869457D01*
X137910543Y-135024674D01*
X137915051Y-135027831D01*
X137915054Y-135027833D01*
X138045013Y-135118831D01*
X138090354Y-135150579D01*
X138095336Y-135152902D01*
X138095341Y-135152905D01*
X138176454Y-135190728D01*
X138289297Y-135243347D01*
X138501326Y-135300161D01*
X138720000Y-135319292D01*
X138938674Y-135300161D01*
X138966630Y-135292670D01*
X142352160Y-135292670D01*
X142357887Y-135300320D01*
X142529042Y-135405205D01*
X142537837Y-135409687D01*
X142747988Y-135496734D01*
X142757373Y-135499783D01*
X142978554Y-135552885D01*
X142988301Y-135554428D01*
X143215070Y-135572275D01*
X143224930Y-135572275D01*
X143451699Y-135554428D01*
X143461446Y-135552885D01*
X143675075Y-135501596D01*
X155868729Y-135501596D01*
X155871016Y-135522307D01*
X155881518Y-135617430D01*
X155886113Y-135659053D01*
X155940553Y-135807819D01*
X156028908Y-135939305D01*
X156146076Y-136045919D01*
X156285293Y-136121508D01*
X156438522Y-136161707D01*
X156535138Y-136163225D01*
X156596772Y-136164193D01*
X156664570Y-136185262D01*
X156683888Y-136201082D01*
X159603595Y-139120789D01*
X159637621Y-139183101D01*
X159640500Y-139209884D01*
X159640500Y-140375187D01*
X159620498Y-140443308D01*
X159597330Y-140470135D01*
X159530039Y-140528838D01*
X159438950Y-140658444D01*
X159381406Y-140806037D01*
X159380414Y-140813570D01*
X159380414Y-140813571D01*
X159364625Y-140933505D01*
X159360729Y-140963096D01*
X159378113Y-141120553D01*
X159380723Y-141127684D01*
X159380723Y-141127686D01*
X159428248Y-141257554D01*
X159432553Y-141269319D01*
X159436789Y-141275622D01*
X159436789Y-141275623D01*
X159483710Y-141345448D01*
X159520908Y-141400805D01*
X159526527Y-141405918D01*
X159526528Y-141405919D01*
X159537903Y-141416269D01*
X159638076Y-141507419D01*
X159777293Y-141583008D01*
X159930522Y-141623207D01*
X160014477Y-141624526D01*
X160081319Y-141625576D01*
X160081322Y-141625576D01*
X160088916Y-141625695D01*
X160243332Y-141590329D01*
X160313742Y-141554917D01*
X160378072Y-141522563D01*
X160378075Y-141522561D01*
X160384855Y-141519151D01*
X160390626Y-141514222D01*
X160390629Y-141514220D01*
X160499536Y-141421204D01*
X160499536Y-141421203D01*
X160505314Y-141416269D01*
X160597755Y-141287624D01*
X160656842Y-141140641D01*
X160679162Y-140983807D01*
X160679307Y-140970000D01*
X160672741Y-140915739D01*
X166618682Y-140915739D01*
X166635362Y-141114386D01*
X166654459Y-141180983D01*
X166683016Y-141280571D01*
X166690310Y-141306009D01*
X166781430Y-141483311D01*
X166905253Y-141639537D01*
X167057063Y-141768737D01*
X167062441Y-141771743D01*
X167062443Y-141771744D01*
X167104397Y-141795191D01*
X167231076Y-141865989D01*
X167236935Y-141867893D01*
X167236938Y-141867894D01*
X167272701Y-141879514D01*
X167420665Y-141927591D01*
X167426775Y-141928320D01*
X167426777Y-141928320D01*
X167494314Y-141936373D01*
X167618609Y-141951194D01*
X167624744Y-141950722D01*
X167624746Y-141950722D01*
X167811226Y-141936373D01*
X167811231Y-141936372D01*
X167817367Y-141935900D01*
X167823297Y-141934244D01*
X167823299Y-141934244D01*
X167913369Y-141909096D01*
X168009370Y-141882292D01*
X168014870Y-141879514D01*
X168181802Y-141795191D01*
X168181804Y-141795190D01*
X168187303Y-141792412D01*
X168344390Y-141669682D01*
X168368837Y-141641360D01*
X168470618Y-141523446D01*
X168470619Y-141523444D01*
X168474647Y-141518778D01*
X168573112Y-141345448D01*
X168636035Y-141156294D01*
X168657310Y-140987891D01*
X168660578Y-140962023D01*
X168660579Y-140962013D01*
X168661020Y-140958520D01*
X168661418Y-140930000D01*
X168641965Y-140731606D01*
X168640184Y-140725707D01*
X168640183Y-140725702D01*
X168586129Y-140546667D01*
X168584348Y-140540768D01*
X168514188Y-140408816D01*
X168493655Y-140370198D01*
X168493653Y-140370195D01*
X168490761Y-140364756D01*
X168486871Y-140359986D01*
X168486868Y-140359982D01*
X168368663Y-140215049D01*
X168368660Y-140215046D01*
X168364768Y-140210274D01*
X168211170Y-140083206D01*
X168035815Y-139988392D01*
X167845385Y-139929444D01*
X167839260Y-139928800D01*
X167839259Y-139928800D01*
X167653260Y-139909251D01*
X167653258Y-139909251D01*
X167647131Y-139908607D01*
X167524252Y-139919790D01*
X167454746Y-139926115D01*
X167454745Y-139926115D01*
X167448605Y-139926674D01*
X167442691Y-139928415D01*
X167442689Y-139928415D01*
X167312539Y-139966721D01*
X167257370Y-139982958D01*
X167080709Y-140075314D01*
X167075909Y-140079174D01*
X167075908Y-140079174D01*
X167070893Y-140083206D01*
X166925351Y-140200225D01*
X166797214Y-140352933D01*
X166701179Y-140527621D01*
X166699318Y-140533488D01*
X166699317Y-140533490D01*
X166698735Y-140535326D01*
X166640902Y-140717635D01*
X166618682Y-140915739D01*
X160672741Y-140915739D01*
X160660276Y-140812733D01*
X160604280Y-140664546D01*
X160595814Y-140652228D01*
X160518855Y-140540251D01*
X160518854Y-140540249D01*
X160514553Y-140533992D01*
X160441681Y-140469065D01*
X160404126Y-140408816D01*
X160399500Y-140374989D01*
X160399500Y-139054420D01*
X160402049Y-139030472D01*
X160402128Y-139028807D01*
X160404320Y-139018624D01*
X160400373Y-138985277D01*
X160400023Y-138979346D01*
X160399928Y-138979354D01*
X160399500Y-138974176D01*
X160399500Y-138968976D01*
X160398646Y-138963844D01*
X160396331Y-138949935D01*
X160395494Y-138944057D01*
X160390694Y-138903499D01*
X160390694Y-138903498D01*
X160389470Y-138893159D01*
X160385507Y-138884907D01*
X160384004Y-138875874D01*
X160359665Y-138830766D01*
X160356969Y-138825475D01*
X160338215Y-138786419D01*
X160338214Y-138786418D01*
X160334781Y-138779268D01*
X160331187Y-138774993D01*
X160329262Y-138773068D01*
X160327491Y-138771138D01*
X160327445Y-138771053D01*
X160327568Y-138770941D01*
X160327096Y-138770406D01*
X160324010Y-138764686D01*
X160284413Y-138728083D01*
X160280848Y-138724654D01*
X160052150Y-138495956D01*
X167904255Y-138495956D01*
X167920682Y-138691574D01*
X167922381Y-138697499D01*
X167959845Y-138828151D01*
X167974791Y-138880276D01*
X167977610Y-138885761D01*
X168061704Y-139049391D01*
X168061707Y-139049396D01*
X168064522Y-139054873D01*
X168186457Y-139208717D01*
X168191150Y-139212711D01*
X168191151Y-139212712D01*
X168225801Y-139242201D01*
X168335952Y-139335947D01*
X168507312Y-139431717D01*
X168694010Y-139492379D01*
X168888935Y-139515622D01*
X168895070Y-139515150D01*
X168895072Y-139515150D01*
X169078521Y-139501035D01*
X169078525Y-139501034D01*
X169084663Y-139500562D01*
X169090595Y-139498906D01*
X169090599Y-139498905D01*
X169179200Y-139474167D01*
X169273738Y-139447771D01*
X169448958Y-139359261D01*
X169483910Y-139331954D01*
X169598788Y-139242201D01*
X169598789Y-139242200D01*
X169603649Y-139238403D01*
X169731919Y-139089800D01*
X169828883Y-138919113D01*
X169890847Y-138732843D01*
X169911260Y-138571263D01*
X169915009Y-138541588D01*
X169915010Y-138541578D01*
X169915451Y-138538085D01*
X169915843Y-138510000D01*
X169913866Y-138489831D01*
X169902163Y-138370480D01*
X169896687Y-138314631D01*
X169839948Y-138126703D01*
X169747788Y-137953375D01*
X169743898Y-137948605D01*
X169743895Y-137948601D01*
X169627606Y-137806017D01*
X169627604Y-137806015D01*
X169623717Y-137801249D01*
X169472460Y-137676118D01*
X169299780Y-137582750D01*
X169112253Y-137524701D01*
X169106131Y-137524058D01*
X169106128Y-137524057D01*
X168923151Y-137504826D01*
X168923149Y-137504826D01*
X168917022Y-137504182D01*
X168797685Y-137515042D01*
X168727665Y-137521414D01*
X168727664Y-137521414D01*
X168721524Y-137521973D01*
X168533205Y-137577399D01*
X168359237Y-137668346D01*
X168354439Y-137672203D01*
X168354437Y-137672205D01*
X168211049Y-137787493D01*
X168211045Y-137787497D01*
X168206249Y-137791353D01*
X168202290Y-137796071D01*
X168202289Y-137796072D01*
X168185923Y-137815576D01*
X168080065Y-137941732D01*
X168077102Y-137947121D01*
X168077099Y-137947126D01*
X168073664Y-137953375D01*
X167985494Y-138113756D01*
X167983633Y-138119623D01*
X167983632Y-138119625D01*
X167965653Y-138176303D01*
X167926137Y-138300873D01*
X167904255Y-138495956D01*
X160052150Y-138495956D01*
X158257363Y-136701169D01*
X167655501Y-136701169D01*
X167655871Y-136707990D01*
X167661395Y-136758852D01*
X167665021Y-136774104D01*
X167710176Y-136894554D01*
X167718714Y-136910149D01*
X167795215Y-137012224D01*
X167807776Y-137024785D01*
X167909851Y-137101286D01*
X167925446Y-137109824D01*
X168045894Y-137154978D01*
X168061149Y-137158605D01*
X168112014Y-137164131D01*
X168118828Y-137164500D01*
X168637885Y-137164500D01*
X168653124Y-137160025D01*
X168654329Y-137158635D01*
X168656000Y-137150952D01*
X168656000Y-137146384D01*
X169164000Y-137146384D01*
X169168475Y-137161623D01*
X169169865Y-137162828D01*
X169177548Y-137164499D01*
X169701169Y-137164499D01*
X169707990Y-137164129D01*
X169758852Y-137158605D01*
X169774104Y-137154979D01*
X169894554Y-137109824D01*
X169910149Y-137101286D01*
X170012224Y-137024785D01*
X170024785Y-137012224D01*
X170101286Y-136910149D01*
X170109824Y-136894554D01*
X170154978Y-136774106D01*
X170158605Y-136758851D01*
X170164131Y-136707986D01*
X170164500Y-136701172D01*
X170164500Y-136182115D01*
X170160025Y-136166876D01*
X170158635Y-136165671D01*
X170150952Y-136164000D01*
X169182115Y-136164000D01*
X169166876Y-136168475D01*
X169165671Y-136169865D01*
X169164000Y-136177548D01*
X169164000Y-137146384D01*
X168656000Y-137146384D01*
X168656000Y-136182115D01*
X168651525Y-136166876D01*
X168650135Y-136165671D01*
X168642452Y-136164000D01*
X167673616Y-136164000D01*
X167658377Y-136168475D01*
X167657172Y-136169865D01*
X167655501Y-136177548D01*
X167655501Y-136701169D01*
X158257363Y-136701169D01*
X157218143Y-135661949D01*
X157205003Y-135637885D01*
X167655500Y-135637885D01*
X167659975Y-135653124D01*
X167661365Y-135654329D01*
X167669048Y-135656000D01*
X168637885Y-135656000D01*
X168653124Y-135651525D01*
X168654329Y-135650135D01*
X168656000Y-135642452D01*
X168656000Y-135637885D01*
X169164000Y-135637885D01*
X169168475Y-135653124D01*
X169169865Y-135654329D01*
X169177548Y-135656000D01*
X170146384Y-135656000D01*
X170161623Y-135651525D01*
X170162828Y-135650135D01*
X170164499Y-135642452D01*
X170164499Y-135118831D01*
X170164129Y-135112010D01*
X170158605Y-135061148D01*
X170154979Y-135045896D01*
X170109824Y-134925446D01*
X170101286Y-134909851D01*
X170024785Y-134807776D01*
X170012224Y-134795215D01*
X169910149Y-134718714D01*
X169894554Y-134710176D01*
X169774106Y-134665022D01*
X169758851Y-134661395D01*
X169707986Y-134655869D01*
X169701172Y-134655500D01*
X169182115Y-134655500D01*
X169166876Y-134659975D01*
X169165671Y-134661365D01*
X169164000Y-134669048D01*
X169164000Y-135637885D01*
X168656000Y-135637885D01*
X168656000Y-134673616D01*
X168651525Y-134658377D01*
X168650135Y-134657172D01*
X168642452Y-134655501D01*
X168118831Y-134655501D01*
X168112010Y-134655871D01*
X168061148Y-134661395D01*
X168045896Y-134665021D01*
X167925446Y-134710176D01*
X167909851Y-134718714D01*
X167807776Y-134795215D01*
X167795215Y-134807776D01*
X167718714Y-134909851D01*
X167710176Y-134925446D01*
X167665022Y-135045894D01*
X167661395Y-135061149D01*
X167655869Y-135112014D01*
X167655500Y-135118828D01*
X167655500Y-135637885D01*
X157205003Y-135637885D01*
X157184117Y-135599637D01*
X157182495Y-135555101D01*
X157186581Y-135526392D01*
X157186581Y-135526386D01*
X157187162Y-135522307D01*
X157187307Y-135508500D01*
X157168276Y-135351233D01*
X157112280Y-135203046D01*
X157022553Y-135072492D01*
X156904275Y-134967111D01*
X156896889Y-134963200D01*
X156770988Y-134896539D01*
X156770989Y-134896539D01*
X156764274Y-134892984D01*
X156610633Y-134854392D01*
X156603034Y-134854352D01*
X156603033Y-134854352D01*
X156537181Y-134854007D01*
X156452221Y-134853562D01*
X156444841Y-134855334D01*
X156444839Y-134855334D01*
X156305563Y-134888771D01*
X156305560Y-134888772D01*
X156298184Y-134890543D01*
X156157414Y-134963200D01*
X156038039Y-135067338D01*
X155946950Y-135196944D01*
X155918178Y-135270740D01*
X155899249Y-135319292D01*
X155889406Y-135344537D01*
X155868729Y-135501596D01*
X143675075Y-135501596D01*
X143682627Y-135499783D01*
X143692012Y-135496734D01*
X143902163Y-135409687D01*
X143910958Y-135405205D01*
X144078445Y-135302568D01*
X144087907Y-135292110D01*
X144084124Y-135283334D01*
X143232812Y-134432022D01*
X143218868Y-134424408D01*
X143217035Y-134424539D01*
X143210420Y-134428790D01*
X142358920Y-135280290D01*
X142352160Y-135292670D01*
X138966630Y-135292670D01*
X139150703Y-135243347D01*
X139263546Y-135190728D01*
X139344659Y-135152905D01*
X139344664Y-135152902D01*
X139349646Y-135150579D01*
X139394987Y-135118831D01*
X139524946Y-135027833D01*
X139524949Y-135027831D01*
X139529457Y-135024674D01*
X139684674Y-134869457D01*
X139727864Y-134807776D01*
X139807422Y-134694155D01*
X139807423Y-134694153D01*
X139810579Y-134689646D01*
X139812902Y-134684664D01*
X139812905Y-134684659D01*
X139884084Y-134532012D01*
X139903347Y-134490703D01*
X139960161Y-134278674D01*
X139978861Y-134064930D01*
X141707725Y-134064930D01*
X141725572Y-134291699D01*
X141727115Y-134301446D01*
X141780217Y-134522627D01*
X141783266Y-134532012D01*
X141870313Y-134742163D01*
X141874795Y-134750958D01*
X141977432Y-134918445D01*
X141987890Y-134927907D01*
X141996666Y-134924124D01*
X142847978Y-134072812D01*
X142854356Y-134061132D01*
X143584408Y-134061132D01*
X143584539Y-134062965D01*
X143588790Y-134069580D01*
X144440290Y-134921080D01*
X144452670Y-134927840D01*
X144460320Y-134922113D01*
X144565205Y-134750958D01*
X144569687Y-134742163D01*
X144656734Y-134532012D01*
X144659783Y-134522627D01*
X144712885Y-134301446D01*
X144714428Y-134291699D01*
X144732275Y-134064930D01*
X144732275Y-134060000D01*
X160320708Y-134060000D01*
X160339839Y-134278674D01*
X160396653Y-134490703D01*
X160415916Y-134532012D01*
X160487095Y-134684659D01*
X160487098Y-134684664D01*
X160489421Y-134689646D01*
X160492577Y-134694153D01*
X160492578Y-134694155D01*
X160572137Y-134807776D01*
X160615326Y-134869457D01*
X160770543Y-135024674D01*
X160775051Y-135027831D01*
X160775054Y-135027833D01*
X160905013Y-135118831D01*
X160950354Y-135150579D01*
X160955336Y-135152902D01*
X160955341Y-135152905D01*
X161036454Y-135190728D01*
X161149297Y-135243347D01*
X161361326Y-135300161D01*
X161580000Y-135319292D01*
X161798674Y-135300161D01*
X161826630Y-135292670D01*
X165212160Y-135292670D01*
X165217887Y-135300320D01*
X165389042Y-135405205D01*
X165397837Y-135409687D01*
X165607988Y-135496734D01*
X165617373Y-135499783D01*
X165838554Y-135552885D01*
X165848301Y-135554428D01*
X166075070Y-135572275D01*
X166084930Y-135572275D01*
X166311699Y-135554428D01*
X166321446Y-135552885D01*
X166542627Y-135499783D01*
X166552012Y-135496734D01*
X166762163Y-135409687D01*
X166770958Y-135405205D01*
X166938445Y-135302568D01*
X166947907Y-135292110D01*
X166944124Y-135283334D01*
X166092812Y-134432022D01*
X166078868Y-134424408D01*
X166077035Y-134424539D01*
X166070420Y-134428790D01*
X165218920Y-135280290D01*
X165212160Y-135292670D01*
X161826630Y-135292670D01*
X162010703Y-135243347D01*
X162123546Y-135190728D01*
X162204659Y-135152905D01*
X162204664Y-135152902D01*
X162209646Y-135150579D01*
X162254987Y-135118831D01*
X162384946Y-135027833D01*
X162384949Y-135027831D01*
X162389457Y-135024674D01*
X162544674Y-134869457D01*
X162587864Y-134807776D01*
X162667422Y-134694155D01*
X162667423Y-134694153D01*
X162670579Y-134689646D01*
X162672902Y-134684664D01*
X162672905Y-134684659D01*
X162744084Y-134532012D01*
X162763347Y-134490703D01*
X162820161Y-134278674D01*
X162838861Y-134064930D01*
X164567725Y-134064930D01*
X164585572Y-134291699D01*
X164587115Y-134301446D01*
X164640217Y-134522627D01*
X164643266Y-134532012D01*
X164730313Y-134742163D01*
X164734795Y-134750958D01*
X164837432Y-134918445D01*
X164847890Y-134927907D01*
X164856666Y-134924124D01*
X165707978Y-134072812D01*
X165714356Y-134061132D01*
X166444408Y-134061132D01*
X166444539Y-134062965D01*
X166448790Y-134069580D01*
X167300290Y-134921080D01*
X167312670Y-134927840D01*
X167320320Y-134922113D01*
X167425205Y-134750958D01*
X167429687Y-134742163D01*
X167516734Y-134532012D01*
X167519783Y-134522627D01*
X167572885Y-134301446D01*
X167574428Y-134291699D01*
X167592275Y-134064930D01*
X167592275Y-134055070D01*
X167574428Y-133828301D01*
X167572885Y-133818554D01*
X167519783Y-133597373D01*
X167516734Y-133587988D01*
X167429687Y-133377837D01*
X167425205Y-133369042D01*
X167322568Y-133201555D01*
X167312110Y-133192093D01*
X167303334Y-133195876D01*
X166452022Y-134047188D01*
X166444408Y-134061132D01*
X165714356Y-134061132D01*
X165715592Y-134058868D01*
X165715461Y-134057035D01*
X165711210Y-134050420D01*
X164859710Y-133198920D01*
X164847330Y-133192160D01*
X164839680Y-133197887D01*
X164734795Y-133369042D01*
X164730313Y-133377837D01*
X164643266Y-133587988D01*
X164640217Y-133597373D01*
X164587115Y-133818554D01*
X164585572Y-133828301D01*
X164567725Y-134055070D01*
X164567725Y-134064930D01*
X162838861Y-134064930D01*
X162839292Y-134060000D01*
X162820161Y-133841326D01*
X162763347Y-133629297D01*
X162719896Y-133536116D01*
X162672905Y-133435341D01*
X162672902Y-133435336D01*
X162670579Y-133430354D01*
X162544674Y-133250543D01*
X162389457Y-133095326D01*
X162384949Y-133092169D01*
X162384946Y-133092167D01*
X162214155Y-132972578D01*
X162214153Y-132972577D01*
X162209646Y-132969421D01*
X162204664Y-132967098D01*
X162204659Y-132967095D01*
X162103884Y-132920104D01*
X162010703Y-132876653D01*
X161828720Y-132827890D01*
X165212093Y-132827890D01*
X165215876Y-132836666D01*
X166067188Y-133687978D01*
X166081132Y-133695592D01*
X166082965Y-133695461D01*
X166089580Y-133691210D01*
X166941080Y-132839710D01*
X166947840Y-132827330D01*
X166942113Y-132819680D01*
X166770958Y-132714795D01*
X166762163Y-132710313D01*
X166552012Y-132623266D01*
X166542627Y-132620217D01*
X166321446Y-132567115D01*
X166311699Y-132565572D01*
X166084930Y-132547725D01*
X166075070Y-132547725D01*
X165848301Y-132565572D01*
X165838554Y-132567115D01*
X165617373Y-132620217D01*
X165607988Y-132623266D01*
X165397837Y-132710313D01*
X165389042Y-132714795D01*
X165221555Y-132817432D01*
X165212093Y-132827890D01*
X161828720Y-132827890D01*
X161798674Y-132819839D01*
X161580000Y-132800708D01*
X161361326Y-132819839D01*
X161149297Y-132876653D01*
X161056116Y-132920104D01*
X160955341Y-132967095D01*
X160955336Y-132967098D01*
X160950354Y-132969421D01*
X160945847Y-132972577D01*
X160945845Y-132972578D01*
X160775054Y-133092167D01*
X160775051Y-133092169D01*
X160770543Y-133095326D01*
X160615326Y-133250543D01*
X160489421Y-133430354D01*
X160487098Y-133435336D01*
X160487095Y-133435341D01*
X160440104Y-133536116D01*
X160396653Y-133629297D01*
X160339839Y-133841326D01*
X160320708Y-134060000D01*
X144732275Y-134060000D01*
X144732275Y-134055070D01*
X144714428Y-133828301D01*
X144712885Y-133818554D01*
X144659783Y-133597373D01*
X144656734Y-133587988D01*
X144569687Y-133377837D01*
X144565205Y-133369042D01*
X144462568Y-133201555D01*
X144452110Y-133192093D01*
X144443334Y-133195876D01*
X143592022Y-134047188D01*
X143584408Y-134061132D01*
X142854356Y-134061132D01*
X142855592Y-134058868D01*
X142855461Y-134057035D01*
X142851210Y-134050420D01*
X141999710Y-133198920D01*
X141987330Y-133192160D01*
X141979680Y-133197887D01*
X141874795Y-133369042D01*
X141870313Y-133377837D01*
X141783266Y-133587988D01*
X141780217Y-133597373D01*
X141727115Y-133818554D01*
X141725572Y-133828301D01*
X141707725Y-134055070D01*
X141707725Y-134064930D01*
X139978861Y-134064930D01*
X139979292Y-134060000D01*
X139960161Y-133841326D01*
X139903347Y-133629297D01*
X139859896Y-133536116D01*
X139812905Y-133435341D01*
X139812902Y-133435336D01*
X139810579Y-133430354D01*
X139684674Y-133250543D01*
X139529457Y-133095326D01*
X139524949Y-133092169D01*
X139524946Y-133092167D01*
X139354155Y-132972578D01*
X139354153Y-132972577D01*
X139349646Y-132969421D01*
X139344664Y-132967098D01*
X139344659Y-132967095D01*
X139243884Y-132920104D01*
X139150703Y-132876653D01*
X138968720Y-132827890D01*
X142352093Y-132827890D01*
X142355876Y-132836666D01*
X143207188Y-133687978D01*
X143221132Y-133695592D01*
X143222965Y-133695461D01*
X143229580Y-133691210D01*
X144081080Y-132839710D01*
X144087840Y-132827330D01*
X144082113Y-132819680D01*
X143910958Y-132714795D01*
X143902163Y-132710313D01*
X143692012Y-132623266D01*
X143682627Y-132620217D01*
X143461446Y-132567115D01*
X143451699Y-132565572D01*
X143224930Y-132547725D01*
X143215070Y-132547725D01*
X142988301Y-132565572D01*
X142978554Y-132567115D01*
X142757373Y-132620217D01*
X142747988Y-132623266D01*
X142537837Y-132710313D01*
X142529042Y-132714795D01*
X142361555Y-132817432D01*
X142352093Y-132827890D01*
X138968720Y-132827890D01*
X138938674Y-132819839D01*
X138720000Y-132800708D01*
X138501326Y-132819839D01*
X138289297Y-132876653D01*
X138196116Y-132920104D01*
X138095341Y-132967095D01*
X138095336Y-132967098D01*
X138090354Y-132969421D01*
X138085847Y-132972577D01*
X138085845Y-132972578D01*
X137915054Y-133092167D01*
X137915051Y-133092169D01*
X137910543Y-133095326D01*
X137755326Y-133250543D01*
X137629421Y-133430354D01*
X137627098Y-133435336D01*
X137627095Y-133435341D01*
X137580104Y-133536116D01*
X137536653Y-133629297D01*
X137479839Y-133841326D01*
X137460708Y-134060000D01*
X122174500Y-134060000D01*
X122174500Y-128768433D01*
X126269000Y-128768433D01*
X126269001Y-130311566D01*
X126283766Y-130385801D01*
X126290661Y-130396120D01*
X126290662Y-130396122D01*
X126331016Y-130456515D01*
X126340016Y-130469984D01*
X126424199Y-130526234D01*
X126498433Y-130541000D01*
X127269875Y-130541000D01*
X128041566Y-130540999D01*
X128077318Y-130533888D01*
X128103626Y-130528656D01*
X128103628Y-130528655D01*
X128115801Y-130526234D01*
X128126121Y-130519339D01*
X128126122Y-130519338D01*
X128189668Y-130476877D01*
X128199984Y-130469984D01*
X128256234Y-130385801D01*
X128271000Y-130311567D01*
X128270999Y-129525956D01*
X128864255Y-129525956D01*
X128880682Y-129721574D01*
X128882381Y-129727499D01*
X128897608Y-129780601D01*
X128934791Y-129910276D01*
X128937610Y-129915761D01*
X129021704Y-130079391D01*
X129021707Y-130079396D01*
X129024522Y-130084873D01*
X129146457Y-130238717D01*
X129151150Y-130242711D01*
X129151151Y-130242712D01*
X129232056Y-130311567D01*
X129295952Y-130365947D01*
X129301330Y-130368953D01*
X129301332Y-130368954D01*
X129337667Y-130389261D01*
X129467312Y-130461717D01*
X129654010Y-130522379D01*
X129848935Y-130545622D01*
X129855070Y-130545150D01*
X129855072Y-130545150D01*
X130038521Y-130531035D01*
X130038525Y-130531034D01*
X130044663Y-130530562D01*
X130050595Y-130528906D01*
X130050599Y-130528905D01*
X130139201Y-130504166D01*
X130233738Y-130477771D01*
X130408958Y-130389261D01*
X130428968Y-130373628D01*
X130558788Y-130272201D01*
X130558789Y-130272200D01*
X130563649Y-130268403D01*
X130691919Y-130119800D01*
X130788883Y-129949113D01*
X130850847Y-129762843D01*
X130874819Y-129573090D01*
X130875009Y-129571588D01*
X130875010Y-129571578D01*
X130875451Y-129568085D01*
X130875843Y-129540000D01*
X130874393Y-129525206D01*
X132290501Y-129525206D01*
X132307806Y-129731278D01*
X132364807Y-129930066D01*
X132367625Y-129935548D01*
X132367626Y-129935552D01*
X132456514Y-130108509D01*
X132456517Y-130108513D01*
X132459334Y-130113995D01*
X132587786Y-130276061D01*
X132592479Y-130280055D01*
X132592480Y-130280056D01*
X132702425Y-130373626D01*
X132745271Y-130410091D01*
X132925789Y-130510980D01*
X133122466Y-130574884D01*
X133327809Y-130599370D01*
X133333944Y-130598898D01*
X133333946Y-130598898D01*
X133527856Y-130583977D01*
X133527860Y-130583976D01*
X133533998Y-130583504D01*
X133733178Y-130527892D01*
X133738682Y-130525112D01*
X133738684Y-130525111D01*
X133912262Y-130437431D01*
X133912264Y-130437430D01*
X133917763Y-130434652D01*
X134080722Y-130307334D01*
X134084748Y-130302670D01*
X134084751Y-130302667D01*
X134211819Y-130155457D01*
X134211820Y-130155455D01*
X134215848Y-130150789D01*
X134317995Y-129970979D01*
X134383270Y-129774753D01*
X134409189Y-129569586D01*
X134409602Y-129540000D01*
X134408152Y-129525206D01*
X171660501Y-129525206D01*
X171677806Y-129731278D01*
X171734807Y-129930066D01*
X171737625Y-129935548D01*
X171737626Y-129935552D01*
X171826514Y-130108509D01*
X171826517Y-130108513D01*
X171829334Y-130113995D01*
X171957786Y-130276061D01*
X171962479Y-130280055D01*
X171962480Y-130280056D01*
X172072425Y-130373626D01*
X172115271Y-130410091D01*
X172295789Y-130510980D01*
X172492466Y-130574884D01*
X172697809Y-130599370D01*
X172703944Y-130598898D01*
X172703946Y-130598898D01*
X172897856Y-130583977D01*
X172897860Y-130583976D01*
X172903998Y-130583504D01*
X173103178Y-130527892D01*
X173108682Y-130525112D01*
X173108684Y-130525111D01*
X173282262Y-130437431D01*
X173282264Y-130437430D01*
X173287763Y-130434652D01*
X173450722Y-130307334D01*
X173454748Y-130302670D01*
X173454751Y-130302667D01*
X173581819Y-130155457D01*
X173581820Y-130155455D01*
X173585848Y-130150789D01*
X173687995Y-129970979D01*
X173753270Y-129774753D01*
X173779189Y-129569586D01*
X173779602Y-129540000D01*
X173778152Y-129525206D01*
X173760023Y-129340322D01*
X173759422Y-129334189D01*
X173699651Y-129136217D01*
X173627108Y-128999783D01*
X173605459Y-128959067D01*
X173605457Y-128959064D01*
X173602565Y-128953625D01*
X173598674Y-128948855D01*
X173598672Y-128948851D01*
X173475758Y-128798143D01*
X173475755Y-128798140D01*
X173471863Y-128793368D01*
X173459734Y-128783334D01*
X173441722Y-128768433D01*
X175529000Y-128768433D01*
X175529001Y-130311566D01*
X175543766Y-130385801D01*
X175550661Y-130396120D01*
X175550662Y-130396122D01*
X175591016Y-130456515D01*
X175600016Y-130469984D01*
X175684199Y-130526234D01*
X175758433Y-130541000D01*
X176529875Y-130541000D01*
X177301566Y-130540999D01*
X177337318Y-130533888D01*
X177363626Y-130528656D01*
X177363628Y-130528655D01*
X177375801Y-130526234D01*
X177386121Y-130519339D01*
X177386122Y-130519338D01*
X177449668Y-130476877D01*
X177459984Y-130469984D01*
X177516234Y-130385801D01*
X177531000Y-130311567D01*
X177530999Y-129525956D01*
X178124255Y-129525956D01*
X178140682Y-129721574D01*
X178142381Y-129727499D01*
X178157608Y-129780601D01*
X178194791Y-129910276D01*
X178197610Y-129915761D01*
X178281704Y-130079391D01*
X178281707Y-130079396D01*
X178284522Y-130084873D01*
X178406457Y-130238717D01*
X178411150Y-130242711D01*
X178411151Y-130242712D01*
X178492056Y-130311567D01*
X178555952Y-130365947D01*
X178561330Y-130368953D01*
X178561332Y-130368954D01*
X178597667Y-130389261D01*
X178727312Y-130461717D01*
X178914010Y-130522379D01*
X179108935Y-130545622D01*
X179115070Y-130545150D01*
X179115072Y-130545150D01*
X179298521Y-130531035D01*
X179298525Y-130531034D01*
X179304663Y-130530562D01*
X179310595Y-130528906D01*
X179310599Y-130528905D01*
X179399201Y-130504166D01*
X179493738Y-130477771D01*
X179668958Y-130389261D01*
X179688968Y-130373628D01*
X179818788Y-130272201D01*
X179818789Y-130272200D01*
X179823649Y-130268403D01*
X179951919Y-130119800D01*
X180048883Y-129949113D01*
X180110847Y-129762843D01*
X180134819Y-129573090D01*
X180135009Y-129571588D01*
X180135010Y-129571578D01*
X180135451Y-129568085D01*
X180135843Y-129540000D01*
X180134393Y-129525206D01*
X180117288Y-129350764D01*
X180116687Y-129344631D01*
X180059948Y-129156703D01*
X180013868Y-129070039D01*
X179970682Y-128988817D01*
X179970680Y-128988814D01*
X179967788Y-128983375D01*
X179963898Y-128978605D01*
X179963895Y-128978601D01*
X179847606Y-128836017D01*
X179847604Y-128836015D01*
X179843717Y-128831249D01*
X179692460Y-128706118D01*
X179519780Y-128612750D01*
X179332253Y-128554701D01*
X179326131Y-128554058D01*
X179326128Y-128554057D01*
X179143151Y-128534826D01*
X179143149Y-128534826D01*
X179137022Y-128534182D01*
X179017685Y-128545042D01*
X178947665Y-128551414D01*
X178947664Y-128551414D01*
X178941524Y-128551973D01*
X178753205Y-128607399D01*
X178579237Y-128698346D01*
X178574439Y-128702203D01*
X178574437Y-128702205D01*
X178431049Y-128817493D01*
X178431045Y-128817497D01*
X178426249Y-128821353D01*
X178422290Y-128826071D01*
X178422289Y-128826072D01*
X178413944Y-128836017D01*
X178300065Y-128971732D01*
X178297102Y-128977121D01*
X178297099Y-128977126D01*
X178244791Y-129072275D01*
X178205494Y-129143756D01*
X178203633Y-129149623D01*
X178203632Y-129149625D01*
X178147999Y-129325003D01*
X178146137Y-129330873D01*
X178124255Y-129525956D01*
X177530999Y-129525956D01*
X177530999Y-128768434D01*
X177523888Y-128732682D01*
X177518656Y-128706374D01*
X177518655Y-128706372D01*
X177516234Y-128694199D01*
X177494419Y-128661550D01*
X177466877Y-128620332D01*
X177459984Y-128610016D01*
X177375801Y-128553766D01*
X177301567Y-128539000D01*
X176530125Y-128539000D01*
X175758434Y-128539001D01*
X175722682Y-128546112D01*
X175696374Y-128551344D01*
X175696372Y-128551345D01*
X175684199Y-128553766D01*
X175673879Y-128560661D01*
X175673878Y-128560662D01*
X175670092Y-128563192D01*
X175600016Y-128610016D01*
X175543766Y-128694199D01*
X175529000Y-128768433D01*
X173441722Y-128768433D01*
X173317271Y-128665478D01*
X173317266Y-128665475D01*
X173312522Y-128661550D01*
X173307103Y-128658620D01*
X173307100Y-128658618D01*
X173136032Y-128566122D01*
X173136027Y-128566120D01*
X173130612Y-128563192D01*
X172933063Y-128502040D01*
X172926938Y-128501396D01*
X172926937Y-128501396D01*
X172733526Y-128481068D01*
X172733524Y-128481068D01*
X172727397Y-128480424D01*
X172601229Y-128491906D01*
X172527591Y-128498607D01*
X172527590Y-128498607D01*
X172521450Y-128499166D01*
X172323066Y-128557554D01*
X172317601Y-128560411D01*
X172145261Y-128650508D01*
X172145257Y-128650511D01*
X172139801Y-128653363D01*
X171978635Y-128782943D01*
X171845708Y-128941360D01*
X171746082Y-129122578D01*
X171683553Y-129319696D01*
X171660501Y-129525206D01*
X134408152Y-129525206D01*
X134390023Y-129340322D01*
X134389422Y-129334189D01*
X134329651Y-129136217D01*
X134257108Y-128999783D01*
X134235459Y-128959067D01*
X134235457Y-128959064D01*
X134232565Y-128953625D01*
X134228674Y-128948855D01*
X134228672Y-128948851D01*
X134105758Y-128798143D01*
X134105755Y-128798140D01*
X134101863Y-128793368D01*
X134089734Y-128783334D01*
X133947271Y-128665478D01*
X133947266Y-128665475D01*
X133942522Y-128661550D01*
X133937103Y-128658620D01*
X133937100Y-128658618D01*
X133766032Y-128566122D01*
X133766027Y-128566120D01*
X133760612Y-128563192D01*
X133563063Y-128502040D01*
X133556938Y-128501396D01*
X133556937Y-128501396D01*
X133363526Y-128481068D01*
X133363524Y-128481068D01*
X133357397Y-128480424D01*
X133231229Y-128491906D01*
X133157591Y-128498607D01*
X133157590Y-128498607D01*
X133151450Y-128499166D01*
X132953066Y-128557554D01*
X132947601Y-128560411D01*
X132775261Y-128650508D01*
X132775257Y-128650511D01*
X132769801Y-128653363D01*
X132608635Y-128782943D01*
X132475708Y-128941360D01*
X132376082Y-129122578D01*
X132313553Y-129319696D01*
X132290501Y-129525206D01*
X130874393Y-129525206D01*
X130857288Y-129350764D01*
X130856687Y-129344631D01*
X130799948Y-129156703D01*
X130753868Y-129070039D01*
X130710682Y-128988817D01*
X130710680Y-128988814D01*
X130707788Y-128983375D01*
X130703898Y-128978605D01*
X130703895Y-128978601D01*
X130587606Y-128836017D01*
X130587604Y-128836015D01*
X130583717Y-128831249D01*
X130432460Y-128706118D01*
X130259780Y-128612750D01*
X130072253Y-128554701D01*
X130066131Y-128554058D01*
X130066128Y-128554057D01*
X129883151Y-128534826D01*
X129883149Y-128534826D01*
X129877022Y-128534182D01*
X129757685Y-128545042D01*
X129687665Y-128551414D01*
X129687664Y-128551414D01*
X129681524Y-128551973D01*
X129493205Y-128607399D01*
X129319237Y-128698346D01*
X129314439Y-128702203D01*
X129314437Y-128702205D01*
X129171049Y-128817493D01*
X129171045Y-128817497D01*
X129166249Y-128821353D01*
X129162290Y-128826071D01*
X129162289Y-128826072D01*
X129153944Y-128836017D01*
X129040065Y-128971732D01*
X129037102Y-128977121D01*
X129037099Y-128977126D01*
X128984791Y-129072275D01*
X128945494Y-129143756D01*
X128943633Y-129149623D01*
X128943632Y-129149625D01*
X128887999Y-129325003D01*
X128886137Y-129330873D01*
X128864255Y-129525956D01*
X128270999Y-129525956D01*
X128270999Y-128768434D01*
X128263888Y-128732682D01*
X128258656Y-128706374D01*
X128258655Y-128706372D01*
X128256234Y-128694199D01*
X128234419Y-128661550D01*
X128206877Y-128620332D01*
X128199984Y-128610016D01*
X128115801Y-128553766D01*
X128041567Y-128539000D01*
X127270125Y-128539000D01*
X126498434Y-128539001D01*
X126462682Y-128546112D01*
X126436374Y-128551344D01*
X126436372Y-128551345D01*
X126424199Y-128553766D01*
X126413879Y-128560661D01*
X126413878Y-128560662D01*
X126410092Y-128563192D01*
X126340016Y-128610016D01*
X126283766Y-128694199D01*
X126269000Y-128768433D01*
X122174500Y-128768433D01*
X122174500Y-127560000D01*
X137460708Y-127560000D01*
X137479839Y-127778674D01*
X137536653Y-127990703D01*
X137555916Y-128032012D01*
X137627095Y-128184659D01*
X137627098Y-128184664D01*
X137629421Y-128189646D01*
X137632577Y-128194153D01*
X137632578Y-128194155D01*
X137742612Y-128351299D01*
X137755326Y-128369457D01*
X137910543Y-128524674D01*
X137915051Y-128527831D01*
X137915054Y-128527833D01*
X138085845Y-128647422D01*
X138090354Y-128650579D01*
X138095336Y-128652902D01*
X138095341Y-128652905D01*
X138183898Y-128694199D01*
X138289297Y-128743347D01*
X138501326Y-128800161D01*
X138720000Y-128819292D01*
X138938674Y-128800161D01*
X138966630Y-128792670D01*
X142352160Y-128792670D01*
X142357887Y-128800320D01*
X142529042Y-128905205D01*
X142537837Y-128909687D01*
X142747988Y-128996734D01*
X142757373Y-128999783D01*
X142978554Y-129052885D01*
X142988301Y-129054428D01*
X143215070Y-129072275D01*
X143224930Y-129072275D01*
X143451699Y-129054428D01*
X143461446Y-129052885D01*
X143682627Y-128999783D01*
X143692012Y-128996734D01*
X143902163Y-128909687D01*
X143910958Y-128905205D01*
X144078445Y-128802568D01*
X144087907Y-128792110D01*
X144084124Y-128783334D01*
X143232812Y-127932022D01*
X143218868Y-127924408D01*
X143217035Y-127924539D01*
X143210420Y-127928790D01*
X142358920Y-128780290D01*
X142352160Y-128792670D01*
X138966630Y-128792670D01*
X139150703Y-128743347D01*
X139256102Y-128694199D01*
X139344659Y-128652905D01*
X139344664Y-128652902D01*
X139349646Y-128650579D01*
X139354155Y-128647422D01*
X139524946Y-128527833D01*
X139524949Y-128527831D01*
X139529457Y-128524674D01*
X139684674Y-128369457D01*
X139697389Y-128351299D01*
X139807422Y-128194155D01*
X139807423Y-128194153D01*
X139810579Y-128189646D01*
X139812902Y-128184664D01*
X139812905Y-128184659D01*
X139884084Y-128032012D01*
X139903347Y-127990703D01*
X139960161Y-127778674D01*
X139978861Y-127564930D01*
X141707725Y-127564930D01*
X141725572Y-127791699D01*
X141727115Y-127801446D01*
X141780217Y-128022627D01*
X141783266Y-128032012D01*
X141870313Y-128242163D01*
X141874795Y-128250958D01*
X141977432Y-128418445D01*
X141987890Y-128427907D01*
X141996666Y-128424124D01*
X142847978Y-127572812D01*
X142854356Y-127561132D01*
X143584408Y-127561132D01*
X143584539Y-127562965D01*
X143588790Y-127569580D01*
X144440290Y-128421080D01*
X144452670Y-128427840D01*
X144460320Y-128422113D01*
X144565205Y-128250958D01*
X144569687Y-128242163D01*
X144656734Y-128032012D01*
X144659783Y-128022627D01*
X144712885Y-127801446D01*
X144714428Y-127791699D01*
X144732275Y-127564930D01*
X144732275Y-127555070D01*
X144714428Y-127328301D01*
X144712885Y-127318554D01*
X144659783Y-127097373D01*
X144656734Y-127087988D01*
X144569687Y-126877837D01*
X144565205Y-126869042D01*
X144462568Y-126701555D01*
X144452110Y-126692093D01*
X144443334Y-126695876D01*
X143592022Y-127547188D01*
X143584408Y-127561132D01*
X142854356Y-127561132D01*
X142855592Y-127558868D01*
X142855461Y-127557035D01*
X142851210Y-127550420D01*
X141999710Y-126698920D01*
X141987330Y-126692160D01*
X141979680Y-126697887D01*
X141874795Y-126869042D01*
X141870313Y-126877837D01*
X141783266Y-127087988D01*
X141780217Y-127097373D01*
X141727115Y-127318554D01*
X141725572Y-127328301D01*
X141707725Y-127555070D01*
X141707725Y-127564930D01*
X139978861Y-127564930D01*
X139979292Y-127560000D01*
X139960161Y-127341326D01*
X139903347Y-127129297D01*
X139859896Y-127036116D01*
X139812905Y-126935341D01*
X139812902Y-126935336D01*
X139810579Y-126930354D01*
X139767648Y-126869042D01*
X139687833Y-126755054D01*
X139687831Y-126755051D01*
X139684674Y-126750543D01*
X139529457Y-126595326D01*
X139524949Y-126592169D01*
X139524946Y-126592167D01*
X139354155Y-126472578D01*
X139354153Y-126472577D01*
X139349646Y-126469421D01*
X139344664Y-126467098D01*
X139344659Y-126467095D01*
X139193471Y-126396596D01*
X139150703Y-126376653D01*
X138968720Y-126327890D01*
X142352093Y-126327890D01*
X142355876Y-126336666D01*
X143207188Y-127187978D01*
X143221132Y-127195592D01*
X143222965Y-127195461D01*
X143229580Y-127191210D01*
X144081080Y-126339710D01*
X144087840Y-126327330D01*
X144082113Y-126319680D01*
X143910958Y-126214795D01*
X143902163Y-126210313D01*
X143692012Y-126123266D01*
X143682627Y-126120217D01*
X143461446Y-126067115D01*
X143451699Y-126065572D01*
X143224930Y-126047725D01*
X143215070Y-126047725D01*
X142988301Y-126065572D01*
X142978554Y-126067115D01*
X142757373Y-126120217D01*
X142747988Y-126123266D01*
X142537837Y-126210313D01*
X142529042Y-126214795D01*
X142361555Y-126317432D01*
X142352093Y-126327890D01*
X138968720Y-126327890D01*
X138938674Y-126319839D01*
X138720000Y-126300708D01*
X138501326Y-126319839D01*
X138289297Y-126376653D01*
X138246529Y-126396596D01*
X138095341Y-126467095D01*
X138095336Y-126467098D01*
X138090354Y-126469421D01*
X138085847Y-126472577D01*
X138085845Y-126472578D01*
X137915054Y-126592167D01*
X137915051Y-126592169D01*
X137910543Y-126595326D01*
X137755326Y-126750543D01*
X137752169Y-126755051D01*
X137752167Y-126755054D01*
X137672352Y-126869042D01*
X137629421Y-126930354D01*
X137627098Y-126935336D01*
X137627095Y-126935341D01*
X137580104Y-127036116D01*
X137536653Y-127129297D01*
X137479839Y-127341326D01*
X137460708Y-127560000D01*
X122174500Y-127560000D01*
X122174500Y-125723096D01*
X150724729Y-125723096D01*
X150742113Y-125880553D01*
X150796553Y-126029319D01*
X150884908Y-126160805D01*
X150890527Y-126165918D01*
X150890528Y-126165919D01*
X150996460Y-126262309D01*
X151002076Y-126267419D01*
X151141293Y-126343008D01*
X151294522Y-126383207D01*
X151378477Y-126384526D01*
X151445319Y-126385576D01*
X151445322Y-126385576D01*
X151452916Y-126385695D01*
X151607332Y-126350329D01*
X151705041Y-126301187D01*
X151742072Y-126282563D01*
X151742075Y-126282561D01*
X151748855Y-126279151D01*
X151754626Y-126274222D01*
X151754629Y-126274220D01*
X151863536Y-126181204D01*
X151863536Y-126181203D01*
X151869314Y-126176269D01*
X151961755Y-126047624D01*
X152020842Y-125900641D01*
X152043162Y-125743807D01*
X152043307Y-125730000D01*
X152037437Y-125681496D01*
X152049109Y-125611468D01*
X152073429Y-125577265D01*
X153377379Y-124273315D01*
X153438344Y-124239590D01*
X153443309Y-124238453D01*
X153450710Y-124236758D01*
X153465270Y-124229435D01*
X153585450Y-124168992D01*
X153585453Y-124168990D01*
X153592233Y-124165580D01*
X153598004Y-124160651D01*
X153598007Y-124160649D01*
X153706914Y-124067633D01*
X153706914Y-124067632D01*
X153712692Y-124062698D01*
X153805133Y-123934053D01*
X153864220Y-123787070D01*
X153871736Y-123734255D01*
X153885959Y-123634320D01*
X153885959Y-123634317D01*
X153886540Y-123630236D01*
X153886685Y-123616429D01*
X153867654Y-123459162D01*
X153811658Y-123310975D01*
X153742656Y-123210576D01*
X153726233Y-123186680D01*
X153726232Y-123186678D01*
X153721931Y-123180421D01*
X153703933Y-123164385D01*
X153640156Y-123107563D01*
X153603653Y-123075040D01*
X153596267Y-123071129D01*
X153470366Y-123004468D01*
X153470367Y-123004468D01*
X153463652Y-123000913D01*
X153310011Y-122962321D01*
X153302412Y-122962281D01*
X153302411Y-122962281D01*
X153236559Y-122961936D01*
X153151599Y-122961491D01*
X153144219Y-122963263D01*
X153144217Y-122963263D01*
X153004941Y-122996700D01*
X153004938Y-122996701D01*
X152997562Y-122998472D01*
X152856792Y-123071129D01*
X152737417Y-123175267D01*
X152646328Y-123304873D01*
X152588784Y-123452466D01*
X152587792Y-123459999D01*
X152587792Y-123460000D01*
X152579018Y-123526649D01*
X152568107Y-123609525D01*
X152574998Y-123671943D01*
X152581878Y-123734255D01*
X152585491Y-123766982D01*
X152588101Y-123774113D01*
X152588101Y-123774115D01*
X152590088Y-123779544D01*
X152618087Y-123856056D01*
X152622713Y-123926899D01*
X152588856Y-123988450D01*
X151538411Y-125038895D01*
X151476099Y-125072921D01*
X151448658Y-125075798D01*
X151308221Y-125075062D01*
X151300841Y-125076834D01*
X151300839Y-125076834D01*
X151161563Y-125110271D01*
X151161560Y-125110272D01*
X151154184Y-125112043D01*
X151013414Y-125184700D01*
X150894039Y-125288838D01*
X150802950Y-125418444D01*
X150745406Y-125566037D01*
X150744414Y-125573570D01*
X150744414Y-125573571D01*
X150729378Y-125687785D01*
X150724729Y-125723096D01*
X122174500Y-125723096D01*
X122174500Y-121913096D01*
X133325729Y-121913096D01*
X133330906Y-121959989D01*
X133341411Y-122055136D01*
X133343113Y-122070553D01*
X133345723Y-122077684D01*
X133345723Y-122077686D01*
X133388310Y-122194060D01*
X133397553Y-122219319D01*
X133401789Y-122225622D01*
X133401789Y-122225623D01*
X133476240Y-122336417D01*
X133485908Y-122350805D01*
X133491527Y-122355918D01*
X133491528Y-122355919D01*
X133537562Y-122397806D01*
X133603076Y-122457419D01*
X133742293Y-122533008D01*
X133895522Y-122573207D01*
X133979477Y-122574526D01*
X134046319Y-122575576D01*
X134046322Y-122575576D01*
X134053916Y-122575695D01*
X134208332Y-122540329D01*
X134302967Y-122492733D01*
X134343072Y-122472563D01*
X134343075Y-122472561D01*
X134349855Y-122469151D01*
X134355626Y-122464222D01*
X134355629Y-122464220D01*
X134464536Y-122371204D01*
X134464536Y-122371203D01*
X134470314Y-122366269D01*
X134562755Y-122237624D01*
X134621842Y-122090641D01*
X134644162Y-121933807D01*
X134644307Y-121920000D01*
X134638437Y-121871496D01*
X134650109Y-121801468D01*
X134674429Y-121767265D01*
X137390216Y-119051478D01*
X137408964Y-119036336D01*
X137410189Y-119035221D01*
X137418940Y-119029571D01*
X137425387Y-119021393D01*
X137425389Y-119021391D01*
X137439729Y-119003200D01*
X137443675Y-118998759D01*
X137443602Y-118998697D01*
X137446961Y-118994733D01*
X137450638Y-118991056D01*
X137461892Y-118975308D01*
X137465398Y-118970638D01*
X137497156Y-118930353D01*
X137500188Y-118921719D01*
X137505514Y-118914266D01*
X137520203Y-118865150D01*
X137522036Y-118859508D01*
X137536390Y-118818633D01*
X137536390Y-118818632D01*
X137539018Y-118811149D01*
X137539500Y-118805584D01*
X137539500Y-118802876D01*
X137539614Y-118800242D01*
X137539643Y-118800144D01*
X137539807Y-118800151D01*
X137539851Y-118799447D01*
X137541713Y-118793222D01*
X137539597Y-118739365D01*
X137539500Y-118734418D01*
X137539500Y-116198096D01*
X139040729Y-116198096D01*
X139041563Y-116205646D01*
X139056948Y-116345000D01*
X139058113Y-116355553D01*
X139060723Y-116362684D01*
X139060723Y-116362686D01*
X139071305Y-116391601D01*
X139112553Y-116504319D01*
X139200908Y-116635805D01*
X139318076Y-116742419D01*
X139457293Y-116818008D01*
X139610522Y-116858207D01*
X139694477Y-116859526D01*
X139761319Y-116860576D01*
X139761322Y-116860576D01*
X139768916Y-116860695D01*
X139923332Y-116825329D01*
X140064855Y-116754151D01*
X140070635Y-116749215D01*
X140076146Y-116745553D01*
X140145875Y-116724500D01*
X142415141Y-116724500D01*
X142483262Y-116744502D01*
X142510522Y-116768169D01*
X142511672Y-116769501D01*
X142515908Y-116775805D01*
X142521525Y-116780916D01*
X142607338Y-116858999D01*
X142633076Y-116882419D01*
X142772293Y-116958008D01*
X142925522Y-116998207D01*
X143022138Y-116999725D01*
X143083772Y-117000693D01*
X143151570Y-117021762D01*
X143170888Y-117037582D01*
X144363595Y-118230289D01*
X144397621Y-118292601D01*
X144400500Y-118319384D01*
X144400500Y-121960187D01*
X144380498Y-122028308D01*
X144357330Y-122055135D01*
X144290039Y-122113838D01*
X144198950Y-122243444D01*
X144196190Y-122250524D01*
X144148673Y-122372399D01*
X144141406Y-122391037D01*
X144140414Y-122398570D01*
X144140414Y-122398571D01*
X144121752Y-122540329D01*
X144120729Y-122548096D01*
X144124972Y-122586524D01*
X144137009Y-122695549D01*
X144138113Y-122705553D01*
X144140723Y-122712684D01*
X144140723Y-122712686D01*
X144183317Y-122829079D01*
X144192553Y-122854319D01*
X144196789Y-122860622D01*
X144196789Y-122860623D01*
X144265101Y-122962281D01*
X144280908Y-122985805D01*
X144286527Y-122990918D01*
X144286528Y-122990919D01*
X144380161Y-123076118D01*
X144398076Y-123092419D01*
X144537293Y-123168008D01*
X144690522Y-123208207D01*
X144774477Y-123209526D01*
X144841319Y-123210576D01*
X144841322Y-123210576D01*
X144848916Y-123210695D01*
X145003332Y-123175329D01*
X145087083Y-123133207D01*
X145138072Y-123107563D01*
X145138075Y-123107561D01*
X145144855Y-123104151D01*
X145150626Y-123099222D01*
X145150629Y-123099220D01*
X145259536Y-123006204D01*
X145259536Y-123006203D01*
X145265314Y-123001269D01*
X145357755Y-122872624D01*
X145416842Y-122725641D01*
X145431276Y-122624219D01*
X145438581Y-122572891D01*
X145438581Y-122572888D01*
X145439162Y-122568807D01*
X145439307Y-122555000D01*
X145420276Y-122397733D01*
X145364280Y-122249546D01*
X145320957Y-122186510D01*
X154491571Y-122186510D01*
X154508955Y-122343967D01*
X154511565Y-122351098D01*
X154511565Y-122351100D01*
X154552961Y-122464220D01*
X154563395Y-122492733D01*
X154567631Y-122499036D01*
X154567631Y-122499037D01*
X154641183Y-122608493D01*
X154651750Y-122624219D01*
X154657369Y-122629332D01*
X154657370Y-122629333D01*
X154730141Y-122695549D01*
X154767064Y-122756189D01*
X154771342Y-122788743D01*
X154771342Y-124496023D01*
X154768793Y-124519971D01*
X154768714Y-124521636D01*
X154766522Y-124531819D01*
X154767746Y-124542160D01*
X154770469Y-124565166D01*
X154770819Y-124571097D01*
X154770914Y-124571089D01*
X154771342Y-124576267D01*
X154771342Y-124581467D01*
X154772196Y-124586596D01*
X154772196Y-124586599D01*
X154774511Y-124600508D01*
X154775348Y-124606386D01*
X154781372Y-124657284D01*
X154785335Y-124665536D01*
X154786838Y-124674569D01*
X154791785Y-124683738D01*
X154791786Y-124683740D01*
X154811176Y-124719675D01*
X154813873Y-124724968D01*
X154832627Y-124764025D01*
X154832630Y-124764029D01*
X154836061Y-124771175D01*
X154839656Y-124775451D01*
X154841579Y-124777374D01*
X154843351Y-124779306D01*
X154843394Y-124779385D01*
X154843270Y-124779498D01*
X154843746Y-124780038D01*
X154846832Y-124785757D01*
X154854477Y-124792824D01*
X154886428Y-124822359D01*
X154889994Y-124825789D01*
X156855169Y-126790964D01*
X156889195Y-126853276D01*
X156892074Y-126880059D01*
X156892074Y-127913753D01*
X156872072Y-127981874D01*
X156848904Y-128008701D01*
X156781613Y-128067404D01*
X156690524Y-128197010D01*
X156632980Y-128344603D01*
X156631988Y-128352136D01*
X156631988Y-128352137D01*
X156622022Y-128427840D01*
X156612303Y-128501662D01*
X156618360Y-128556523D01*
X156628396Y-128647422D01*
X156629687Y-128659119D01*
X156632297Y-128666250D01*
X156632297Y-128666252D01*
X156681476Y-128800640D01*
X156684127Y-128807885D01*
X156772482Y-128939371D01*
X156778101Y-128944484D01*
X156778102Y-128944485D01*
X156838874Y-128999783D01*
X156889650Y-129045985D01*
X157028867Y-129121574D01*
X157182096Y-129161773D01*
X157266051Y-129163092D01*
X157332893Y-129164142D01*
X157332896Y-129164142D01*
X157340490Y-129164261D01*
X157494906Y-129128895D01*
X157565316Y-129093483D01*
X157629646Y-129061129D01*
X157629649Y-129061127D01*
X157636429Y-129057717D01*
X157642200Y-129052788D01*
X157642203Y-129052786D01*
X157751110Y-128959770D01*
X157751110Y-128959769D01*
X157756888Y-128954835D01*
X157849329Y-128826190D01*
X157908416Y-128679207D01*
X157926276Y-128553714D01*
X157930155Y-128526457D01*
X157930155Y-128526454D01*
X157930736Y-128522373D01*
X157930881Y-128508566D01*
X157929744Y-128499166D01*
X157921112Y-128427840D01*
X157911850Y-128351299D01*
X157855854Y-128203112D01*
X157766127Y-128072558D01*
X157693255Y-128007631D01*
X157655700Y-127947382D01*
X157651074Y-127913555D01*
X157651074Y-127560000D01*
X160320708Y-127560000D01*
X160339839Y-127778674D01*
X160396653Y-127990703D01*
X160415916Y-128032012D01*
X160487095Y-128184659D01*
X160487098Y-128184664D01*
X160489421Y-128189646D01*
X160492577Y-128194153D01*
X160492578Y-128194155D01*
X160602612Y-128351299D01*
X160615326Y-128369457D01*
X160770543Y-128524674D01*
X160775051Y-128527831D01*
X160775054Y-128527833D01*
X160945845Y-128647422D01*
X160950354Y-128650579D01*
X160955336Y-128652902D01*
X160955341Y-128652905D01*
X161043898Y-128694199D01*
X161149297Y-128743347D01*
X161361326Y-128800161D01*
X161580000Y-128819292D01*
X161798674Y-128800161D01*
X161826630Y-128792670D01*
X165212160Y-128792670D01*
X165217887Y-128800320D01*
X165389042Y-128905205D01*
X165397837Y-128909687D01*
X165607988Y-128996734D01*
X165617373Y-128999783D01*
X165838554Y-129052885D01*
X165848301Y-129054428D01*
X166075070Y-129072275D01*
X166084930Y-129072275D01*
X166311699Y-129054428D01*
X166321446Y-129052885D01*
X166542627Y-128999783D01*
X166552012Y-128996734D01*
X166762163Y-128909687D01*
X166770958Y-128905205D01*
X166938445Y-128802568D01*
X166947907Y-128792110D01*
X166944124Y-128783334D01*
X166092812Y-127932022D01*
X166078868Y-127924408D01*
X166077035Y-127924539D01*
X166070420Y-127928790D01*
X165218920Y-128780290D01*
X165212160Y-128792670D01*
X161826630Y-128792670D01*
X162010703Y-128743347D01*
X162116102Y-128694199D01*
X162204659Y-128652905D01*
X162204664Y-128652902D01*
X162209646Y-128650579D01*
X162214155Y-128647422D01*
X162384946Y-128527833D01*
X162384949Y-128527831D01*
X162389457Y-128524674D01*
X162544674Y-128369457D01*
X162557389Y-128351299D01*
X162667422Y-128194155D01*
X162667423Y-128194153D01*
X162670579Y-128189646D01*
X162672902Y-128184664D01*
X162672905Y-128184659D01*
X162744084Y-128032012D01*
X162763347Y-127990703D01*
X162820161Y-127778674D01*
X162838861Y-127564930D01*
X164567725Y-127564930D01*
X164585572Y-127791699D01*
X164587115Y-127801446D01*
X164640217Y-128022627D01*
X164643266Y-128032012D01*
X164730313Y-128242163D01*
X164734795Y-128250958D01*
X164837432Y-128418445D01*
X164847890Y-128427907D01*
X164856666Y-128424124D01*
X165707978Y-127572812D01*
X165714356Y-127561132D01*
X166444408Y-127561132D01*
X166444539Y-127562965D01*
X166448790Y-127569580D01*
X167300290Y-128421080D01*
X167312670Y-128427840D01*
X167320320Y-128422113D01*
X167425205Y-128250958D01*
X167429687Y-128242163D01*
X167516734Y-128032012D01*
X167519783Y-128022627D01*
X167572885Y-127801446D01*
X167574428Y-127791699D01*
X167592275Y-127564930D01*
X167592275Y-127555070D01*
X167574428Y-127328301D01*
X167572885Y-127318554D01*
X167519783Y-127097373D01*
X167516734Y-127087988D01*
X167429687Y-126877837D01*
X167425205Y-126869042D01*
X167322568Y-126701555D01*
X167312110Y-126692093D01*
X167303334Y-126695876D01*
X166452022Y-127547188D01*
X166444408Y-127561132D01*
X165714356Y-127561132D01*
X165715592Y-127558868D01*
X165715461Y-127557035D01*
X165711210Y-127550420D01*
X164859710Y-126698920D01*
X164847330Y-126692160D01*
X164839680Y-126697887D01*
X164734795Y-126869042D01*
X164730313Y-126877837D01*
X164643266Y-127087988D01*
X164640217Y-127097373D01*
X164587115Y-127318554D01*
X164585572Y-127328301D01*
X164567725Y-127555070D01*
X164567725Y-127564930D01*
X162838861Y-127564930D01*
X162839292Y-127560000D01*
X162820161Y-127341326D01*
X162763347Y-127129297D01*
X162719896Y-127036116D01*
X162672905Y-126935341D01*
X162672902Y-126935336D01*
X162670579Y-126930354D01*
X162627648Y-126869042D01*
X162547833Y-126755054D01*
X162547831Y-126755051D01*
X162544674Y-126750543D01*
X162389457Y-126595326D01*
X162384949Y-126592169D01*
X162384946Y-126592167D01*
X162214155Y-126472578D01*
X162214153Y-126472577D01*
X162209646Y-126469421D01*
X162204664Y-126467098D01*
X162204659Y-126467095D01*
X162053471Y-126396596D01*
X162010703Y-126376653D01*
X161828720Y-126327890D01*
X165212093Y-126327890D01*
X165215876Y-126336666D01*
X166067188Y-127187978D01*
X166081132Y-127195592D01*
X166082965Y-127195461D01*
X166089580Y-127191210D01*
X166941080Y-126339710D01*
X166947840Y-126327330D01*
X166942113Y-126319680D01*
X166770958Y-126214795D01*
X166762163Y-126210313D01*
X166552012Y-126123266D01*
X166542627Y-126120217D01*
X166321446Y-126067115D01*
X166311699Y-126065572D01*
X166084930Y-126047725D01*
X166075070Y-126047725D01*
X165848301Y-126065572D01*
X165838554Y-126067115D01*
X165617373Y-126120217D01*
X165607988Y-126123266D01*
X165397837Y-126210313D01*
X165389042Y-126214795D01*
X165221555Y-126317432D01*
X165212093Y-126327890D01*
X161828720Y-126327890D01*
X161798674Y-126319839D01*
X161580000Y-126300708D01*
X161361326Y-126319839D01*
X161149297Y-126376653D01*
X161106529Y-126396596D01*
X160955341Y-126467095D01*
X160955336Y-126467098D01*
X160950354Y-126469421D01*
X160945847Y-126472577D01*
X160945845Y-126472578D01*
X160775054Y-126592167D01*
X160775051Y-126592169D01*
X160770543Y-126595326D01*
X160615326Y-126750543D01*
X160612169Y-126755051D01*
X160612167Y-126755054D01*
X160532352Y-126869042D01*
X160489421Y-126930354D01*
X160487098Y-126935336D01*
X160487095Y-126935341D01*
X160440104Y-127036116D01*
X160396653Y-127129297D01*
X160339839Y-127341326D01*
X160320708Y-127560000D01*
X157651074Y-127560000D01*
X157651074Y-126724595D01*
X157653623Y-126700647D01*
X157653702Y-126698982D01*
X157655894Y-126688799D01*
X157651947Y-126655452D01*
X157651597Y-126649521D01*
X157651502Y-126649529D01*
X157651074Y-126644351D01*
X157651074Y-126639151D01*
X157650220Y-126634019D01*
X157647905Y-126620110D01*
X157647068Y-126614232D01*
X157642268Y-126573674D01*
X157642268Y-126573673D01*
X157641044Y-126563334D01*
X157637081Y-126555082D01*
X157635578Y-126546049D01*
X157627233Y-126530583D01*
X157612489Y-126461134D01*
X157637631Y-126394739D01*
X157695442Y-126352199D01*
X157695923Y-126352026D01*
X157703332Y-126350329D01*
X157710118Y-126346916D01*
X157710121Y-126346915D01*
X157838072Y-126282563D01*
X157838075Y-126282561D01*
X157844855Y-126279151D01*
X157850626Y-126274222D01*
X157850629Y-126274220D01*
X157959536Y-126181204D01*
X157959536Y-126181203D01*
X157965314Y-126176269D01*
X158057755Y-126047624D01*
X158116842Y-125900641D01*
X158139162Y-125743807D01*
X158139307Y-125730000D01*
X158120276Y-125572733D01*
X158064280Y-125424546D01*
X157974553Y-125293992D01*
X157856275Y-125188611D01*
X157848889Y-125184700D01*
X157722988Y-125118039D01*
X157722989Y-125118039D01*
X157716274Y-125114484D01*
X157562633Y-125075892D01*
X157555034Y-125075852D01*
X157555033Y-125075852D01*
X157494626Y-125075536D01*
X157413335Y-125075110D01*
X157345321Y-125054752D01*
X157324901Y-125038207D01*
X156626405Y-124339711D01*
X156592379Y-124277399D01*
X156589500Y-124250616D01*
X156589500Y-122514730D01*
X156609502Y-122446609D01*
X156633669Y-122418919D01*
X156689536Y-122371204D01*
X156695314Y-122366269D01*
X156787755Y-122237624D01*
X156846842Y-122090641D01*
X156869162Y-121933807D01*
X156869307Y-121920000D01*
X156850276Y-121762733D01*
X156794280Y-121614546D01*
X156704553Y-121483992D01*
X156586275Y-121378611D01*
X156578889Y-121374700D01*
X156452988Y-121308039D01*
X156452989Y-121308039D01*
X156446274Y-121304484D01*
X156292633Y-121265892D01*
X156285034Y-121265852D01*
X156285033Y-121265852D01*
X156219181Y-121265507D01*
X156134221Y-121265062D01*
X156126841Y-121266834D01*
X156126839Y-121266834D01*
X155987563Y-121300271D01*
X155987560Y-121300272D01*
X155980184Y-121302043D01*
X155839414Y-121374700D01*
X155720039Y-121478838D01*
X155677569Y-121539266D01*
X155642884Y-121588618D01*
X155587349Y-121632849D01*
X155516717Y-121640035D01*
X155480841Y-121627523D01*
X155387116Y-121577898D01*
X155233475Y-121539306D01*
X155225876Y-121539266D01*
X155225875Y-121539266D01*
X155160023Y-121538921D01*
X155075063Y-121538476D01*
X155067683Y-121540248D01*
X155067681Y-121540248D01*
X154928405Y-121573685D01*
X154928402Y-121573686D01*
X154921026Y-121575457D01*
X154780256Y-121648114D01*
X154660881Y-121752252D01*
X154569792Y-121881858D01*
X154567032Y-121888938D01*
X154517304Y-122016484D01*
X154512248Y-122029451D01*
X154511256Y-122036984D01*
X154511256Y-122036985D01*
X154499636Y-122125251D01*
X154491571Y-122186510D01*
X145320957Y-122186510D01*
X145274553Y-122118992D01*
X145201681Y-122054065D01*
X145164126Y-121993816D01*
X145159500Y-121959989D01*
X145159500Y-118163920D01*
X145162049Y-118139972D01*
X145162128Y-118138307D01*
X145164320Y-118128124D01*
X145160373Y-118094777D01*
X145160023Y-118088846D01*
X145159928Y-118088854D01*
X145159500Y-118083676D01*
X145159500Y-118078476D01*
X145158646Y-118073344D01*
X145156331Y-118059435D01*
X145155494Y-118053557D01*
X145150694Y-118012999D01*
X145150694Y-118012998D01*
X145149470Y-118002659D01*
X145145507Y-117994407D01*
X145144004Y-117985374D01*
X145119665Y-117940266D01*
X145116969Y-117934975D01*
X145098215Y-117895918D01*
X145098212Y-117895914D01*
X145094781Y-117888768D01*
X145091186Y-117884492D01*
X145089263Y-117882569D01*
X145087491Y-117880637D01*
X145087448Y-117880558D01*
X145087572Y-117880445D01*
X145087096Y-117879905D01*
X145084010Y-117874186D01*
X145044413Y-117837583D01*
X145040848Y-117834154D01*
X143705143Y-116498449D01*
X143671117Y-116436137D01*
X143669495Y-116391601D01*
X143673581Y-116362892D01*
X143673581Y-116362886D01*
X143674162Y-116358807D01*
X143674307Y-116345000D01*
X143655276Y-116187733D01*
X143599280Y-116039546D01*
X143548390Y-115965500D01*
X143513855Y-115915251D01*
X143513854Y-115915249D01*
X143509553Y-115908992D01*
X143436681Y-115844065D01*
X143399126Y-115783816D01*
X143394500Y-115749989D01*
X143394500Y-112776000D01*
X144780000Y-112776000D01*
X159766000Y-112776000D01*
X159766000Y-109848096D01*
X167615729Y-109848096D01*
X167633113Y-110005553D01*
X167687553Y-110154319D01*
X167775908Y-110285805D01*
X167781527Y-110290918D01*
X167781528Y-110290919D01*
X167854299Y-110357135D01*
X167891222Y-110417775D01*
X167895500Y-110450329D01*
X167895500Y-122501080D01*
X167892951Y-122525028D01*
X167892872Y-122526693D01*
X167890680Y-122536876D01*
X167893971Y-122564682D01*
X167894627Y-122570223D01*
X167894977Y-122576154D01*
X167895072Y-122576146D01*
X167895500Y-122581324D01*
X167895500Y-122586524D01*
X167896354Y-122591653D01*
X167896354Y-122591656D01*
X167898669Y-122605565D01*
X167899506Y-122611443D01*
X167904212Y-122651202D01*
X167905530Y-122662341D01*
X167909493Y-122670593D01*
X167910996Y-122679626D01*
X167915943Y-122688795D01*
X167915944Y-122688797D01*
X167935334Y-122724732D01*
X167938031Y-122730025D01*
X167956785Y-122769082D01*
X167956788Y-122769086D01*
X167960219Y-122776232D01*
X167963814Y-122780508D01*
X167965737Y-122782431D01*
X167967509Y-122784363D01*
X167967552Y-122784442D01*
X167967428Y-122784555D01*
X167967904Y-122785095D01*
X167970990Y-122790814D01*
X167978635Y-122797881D01*
X168010586Y-122827416D01*
X168014152Y-122830846D01*
X168855249Y-123671943D01*
X168889275Y-123734255D01*
X168891076Y-123777482D01*
X168885729Y-123818096D01*
X168889920Y-123856054D01*
X168897753Y-123927000D01*
X168903113Y-123975553D01*
X168905723Y-123982684D01*
X168905723Y-123982686D01*
X168907833Y-123988450D01*
X168957553Y-124124319D01*
X168961789Y-124130622D01*
X168961789Y-124130623D01*
X169040450Y-124247682D01*
X169045908Y-124255805D01*
X169051527Y-124260918D01*
X169051528Y-124260919D01*
X169097562Y-124302806D01*
X169163076Y-124362419D01*
X169302293Y-124438008D01*
X169455522Y-124478207D01*
X169539477Y-124479526D01*
X169606319Y-124480576D01*
X169606322Y-124480576D01*
X169613916Y-124480695D01*
X169768332Y-124445329D01*
X169872877Y-124392749D01*
X169903072Y-124377563D01*
X169903075Y-124377561D01*
X169909855Y-124374151D01*
X169915626Y-124369222D01*
X169915629Y-124369220D01*
X170024536Y-124276204D01*
X170024536Y-124276203D01*
X170030314Y-124271269D01*
X170122755Y-124142624D01*
X170181842Y-123995641D01*
X170193212Y-123915748D01*
X170203581Y-123842891D01*
X170203581Y-123842888D01*
X170204162Y-123838807D01*
X170204307Y-123825000D01*
X170202561Y-123810567D01*
X170197286Y-123766982D01*
X170185276Y-123667733D01*
X170129280Y-123519546D01*
X170122748Y-123510042D01*
X170043855Y-123395251D01*
X170043854Y-123395249D01*
X170039553Y-123388992D01*
X169921275Y-123283611D01*
X169781274Y-123209484D01*
X169627633Y-123170892D01*
X169620034Y-123170852D01*
X169620033Y-123170852D01*
X169559626Y-123170536D01*
X169478335Y-123170110D01*
X169410321Y-123149752D01*
X169389901Y-123133207D01*
X168691405Y-122434711D01*
X168657379Y-122372399D01*
X168654500Y-122345616D01*
X168654500Y-113015956D01*
X174194255Y-113015956D01*
X174210682Y-113211574D01*
X174264791Y-113400276D01*
X174267610Y-113405761D01*
X174351704Y-113569391D01*
X174351707Y-113569396D01*
X174354522Y-113574873D01*
X174476457Y-113728717D01*
X174481150Y-113732711D01*
X174481151Y-113732712D01*
X174562056Y-113801567D01*
X174625952Y-113855947D01*
X174631330Y-113858953D01*
X174631332Y-113858954D01*
X174667667Y-113879261D01*
X174797312Y-113951717D01*
X174984010Y-114012379D01*
X175178935Y-114035622D01*
X175185070Y-114035150D01*
X175185072Y-114035150D01*
X175368521Y-114021035D01*
X175368525Y-114021034D01*
X175374663Y-114020562D01*
X175380595Y-114018906D01*
X175380599Y-114018905D01*
X175469201Y-113994166D01*
X175563738Y-113967771D01*
X175738958Y-113879261D01*
X175758968Y-113863628D01*
X175888788Y-113762201D01*
X175888789Y-113762200D01*
X175893649Y-113758403D01*
X176021919Y-113609800D01*
X176118883Y-113439113D01*
X176180847Y-113252843D01*
X176186836Y-113205432D01*
X176205009Y-113061588D01*
X176205010Y-113061578D01*
X176205451Y-113058085D01*
X176205843Y-113030000D01*
X176203866Y-113009831D01*
X176187288Y-112840764D01*
X176186687Y-112834631D01*
X176129948Y-112646703D01*
X176037788Y-112473375D01*
X176033898Y-112468605D01*
X176033895Y-112468601D01*
X175917606Y-112326017D01*
X175917604Y-112326015D01*
X175913717Y-112321249D01*
X175837786Y-112258433D01*
X176799000Y-112258433D01*
X176799001Y-113801566D01*
X176813766Y-113875801D01*
X176870016Y-113959984D01*
X176954199Y-114016234D01*
X177028433Y-114031000D01*
X177799875Y-114031000D01*
X178571566Y-114030999D01*
X178607318Y-114023888D01*
X178633626Y-114018656D01*
X178633628Y-114018655D01*
X178645801Y-114016234D01*
X178656121Y-114009339D01*
X178656122Y-114009338D01*
X178719668Y-113966877D01*
X178729984Y-113959984D01*
X178786234Y-113875801D01*
X178801000Y-113801567D01*
X178800999Y-112258434D01*
X178793888Y-112222682D01*
X178788656Y-112196374D01*
X178788655Y-112196372D01*
X178786234Y-112184199D01*
X178729984Y-112100016D01*
X178645801Y-112043766D01*
X178571567Y-112029000D01*
X177800125Y-112029000D01*
X177028434Y-112029001D01*
X176992682Y-112036112D01*
X176966374Y-112041344D01*
X176966372Y-112041345D01*
X176954199Y-112043766D01*
X176943879Y-112050661D01*
X176943878Y-112050662D01*
X176883485Y-112091016D01*
X176870016Y-112100016D01*
X176813766Y-112184199D01*
X176799000Y-112258433D01*
X175837786Y-112258433D01*
X175762460Y-112196118D01*
X175589780Y-112102750D01*
X175402253Y-112044701D01*
X175396131Y-112044058D01*
X175396128Y-112044057D01*
X175213151Y-112024826D01*
X175213149Y-112024826D01*
X175207022Y-112024182D01*
X175087685Y-112035042D01*
X175017665Y-112041414D01*
X175017664Y-112041414D01*
X175011524Y-112041973D01*
X174823205Y-112097399D01*
X174649237Y-112188346D01*
X174644439Y-112192203D01*
X174644437Y-112192205D01*
X174501049Y-112307493D01*
X174501045Y-112307497D01*
X174496249Y-112311353D01*
X174370065Y-112461732D01*
X174367102Y-112467121D01*
X174367099Y-112467126D01*
X174363664Y-112473375D01*
X174275494Y-112633756D01*
X174273633Y-112639623D01*
X174273632Y-112639625D01*
X174217999Y-112815003D01*
X174216137Y-112820873D01*
X174194255Y-113015956D01*
X168654500Y-113015956D01*
X168654500Y-110449730D01*
X168674502Y-110381609D01*
X168698669Y-110353919D01*
X168754536Y-110306204D01*
X168760314Y-110301269D01*
X168852755Y-110172624D01*
X168911842Y-110025641D01*
X168934162Y-109868807D01*
X168934307Y-109855000D01*
X168915276Y-109697733D01*
X168859280Y-109549546D01*
X168769553Y-109418992D01*
X168651275Y-109313611D01*
X168643889Y-109309700D01*
X168517988Y-109243039D01*
X168517989Y-109243039D01*
X168511274Y-109239484D01*
X168357633Y-109200892D01*
X168350034Y-109200852D01*
X168350033Y-109200852D01*
X168284181Y-109200507D01*
X168199221Y-109200062D01*
X168191841Y-109201834D01*
X168191839Y-109201834D01*
X168052563Y-109235271D01*
X168052560Y-109235272D01*
X168045184Y-109237043D01*
X167904414Y-109309700D01*
X167785039Y-109413838D01*
X167693950Y-109543444D01*
X167636406Y-109691037D01*
X167615729Y-109848096D01*
X159766000Y-109848096D01*
X159766000Y-106426000D01*
X144780000Y-106426000D01*
X144780000Y-112776000D01*
X143394500Y-112776000D01*
X143394500Y-108143925D01*
X143397050Y-108119967D01*
X143397128Y-108118308D01*
X143399321Y-108108124D01*
X143398097Y-108097782D01*
X143398097Y-108097779D01*
X143395374Y-108074779D01*
X143395024Y-108068848D01*
X143394928Y-108068856D01*
X143394500Y-108063680D01*
X143394500Y-108058476D01*
X143391327Y-108039412D01*
X143390496Y-108033566D01*
X143385694Y-107993001D01*
X143384470Y-107982659D01*
X143380507Y-107974407D01*
X143379004Y-107965374D01*
X143354656Y-107920248D01*
X143351982Y-107915002D01*
X143329781Y-107868769D01*
X143326187Y-107864493D01*
X143324247Y-107862553D01*
X143322493Y-107860641D01*
X143322445Y-107860552D01*
X143322568Y-107860440D01*
X143322095Y-107859904D01*
X143319010Y-107854186D01*
X143279413Y-107817583D01*
X143275848Y-107814154D01*
X142930143Y-107468449D01*
X142896117Y-107406137D01*
X142894495Y-107361601D01*
X142898581Y-107332892D01*
X142898581Y-107332886D01*
X142899162Y-107328807D01*
X142899307Y-107315000D01*
X142880276Y-107157733D01*
X142824280Y-107009546D01*
X142734553Y-106878992D01*
X142616275Y-106773611D01*
X142608889Y-106769700D01*
X142482988Y-106703039D01*
X142482989Y-106703039D01*
X142476274Y-106699484D01*
X142322633Y-106660892D01*
X142315034Y-106660852D01*
X142315033Y-106660852D01*
X142249181Y-106660507D01*
X142164221Y-106660062D01*
X142156841Y-106661834D01*
X142156839Y-106661834D01*
X142017563Y-106695271D01*
X142017560Y-106695272D01*
X142010184Y-106697043D01*
X141869414Y-106769700D01*
X141750039Y-106873838D01*
X141658950Y-107003444D01*
X141601406Y-107151037D01*
X141580729Y-107308096D01*
X141583467Y-107332892D01*
X141593518Y-107423930D01*
X141598113Y-107465553D01*
X141652553Y-107614319D01*
X141740908Y-107745805D01*
X141746527Y-107750918D01*
X141746528Y-107750919D01*
X141846196Y-107841609D01*
X141858076Y-107852419D01*
X141997293Y-107928008D01*
X142150522Y-107968207D01*
X142247138Y-107969725D01*
X142308772Y-107970693D01*
X142376570Y-107991762D01*
X142395888Y-108007582D01*
X142598595Y-108210289D01*
X142632621Y-108272601D01*
X142635500Y-108299384D01*
X142635500Y-115750187D01*
X142615498Y-115818308D01*
X142592330Y-115845135D01*
X142525039Y-115903838D01*
X142520672Y-115910051D01*
X142520667Y-115910057D01*
X142519336Y-115911951D01*
X142518013Y-115913005D01*
X142515589Y-115915697D01*
X142515140Y-115915293D01*
X142463802Y-115956183D01*
X142416250Y-115965500D01*
X140394039Y-115965500D01*
X140325918Y-115945498D01*
X140284545Y-115900248D01*
X140284280Y-115899546D01*
X140246886Y-115845136D01*
X140198855Y-115775251D01*
X140198854Y-115775249D01*
X140194553Y-115768992D01*
X140076275Y-115663611D01*
X140068889Y-115659700D01*
X139942988Y-115593039D01*
X139942989Y-115593039D01*
X139936274Y-115589484D01*
X139782633Y-115550892D01*
X139775034Y-115550852D01*
X139775033Y-115550852D01*
X139709181Y-115550507D01*
X139624221Y-115550062D01*
X139616841Y-115551834D01*
X139616839Y-115551834D01*
X139477563Y-115585271D01*
X139477560Y-115585272D01*
X139470184Y-115587043D01*
X139329414Y-115659700D01*
X139210039Y-115763838D01*
X139118950Y-115893444D01*
X139061406Y-116041037D01*
X139040729Y-116198096D01*
X137539500Y-116198096D01*
X137539500Y-107909730D01*
X137559502Y-107841609D01*
X137583669Y-107813919D01*
X137639536Y-107766204D01*
X137645314Y-107761269D01*
X137737755Y-107632624D01*
X137796842Y-107485641D01*
X137802965Y-107442615D01*
X137818581Y-107332891D01*
X137818581Y-107332888D01*
X137819162Y-107328807D01*
X137819307Y-107315000D01*
X137800276Y-107157733D01*
X137744280Y-107009546D01*
X137654553Y-106878992D01*
X137536275Y-106773611D01*
X137528889Y-106769700D01*
X137402988Y-106703039D01*
X137402989Y-106703039D01*
X137396274Y-106699484D01*
X137242633Y-106660892D01*
X137235034Y-106660852D01*
X137235033Y-106660852D01*
X137169181Y-106660507D01*
X137084221Y-106660062D01*
X137076841Y-106661834D01*
X137076839Y-106661834D01*
X136937563Y-106695271D01*
X136937560Y-106695272D01*
X136930184Y-106697043D01*
X136789414Y-106769700D01*
X136670039Y-106873838D01*
X136578950Y-107003444D01*
X136521406Y-107151037D01*
X136500729Y-107308096D01*
X136503467Y-107332892D01*
X136513518Y-107423930D01*
X136518113Y-107465553D01*
X136572553Y-107614319D01*
X136660908Y-107745805D01*
X136666527Y-107750918D01*
X136666528Y-107750919D01*
X136739299Y-107817135D01*
X136776222Y-107877775D01*
X136780500Y-107910329D01*
X136780500Y-118535616D01*
X136760498Y-118603737D01*
X136743595Y-118624711D01*
X134139411Y-121228895D01*
X134077099Y-121262921D01*
X134049658Y-121265798D01*
X133909221Y-121265062D01*
X133901841Y-121266834D01*
X133901839Y-121266834D01*
X133762563Y-121300271D01*
X133762560Y-121300272D01*
X133755184Y-121302043D01*
X133614414Y-121374700D01*
X133495039Y-121478838D01*
X133403950Y-121608444D01*
X133346406Y-121756037D01*
X133345414Y-121763570D01*
X133345414Y-121763571D01*
X133329842Y-121881858D01*
X133325729Y-121913096D01*
X122174500Y-121913096D01*
X122174500Y-112258433D01*
X125999000Y-112258433D01*
X125999001Y-113801566D01*
X126013766Y-113875801D01*
X126070016Y-113959984D01*
X126154199Y-114016234D01*
X126228433Y-114031000D01*
X126999875Y-114031000D01*
X127771566Y-114030999D01*
X127807318Y-114023888D01*
X127833626Y-114018656D01*
X127833628Y-114018655D01*
X127845801Y-114016234D01*
X127856121Y-114009339D01*
X127856122Y-114009338D01*
X127919668Y-113966877D01*
X127929984Y-113959984D01*
X127986234Y-113875801D01*
X128001000Y-113801567D01*
X128000999Y-113015956D01*
X128594255Y-113015956D01*
X128610682Y-113211574D01*
X128664791Y-113400276D01*
X128667610Y-113405761D01*
X128751704Y-113569391D01*
X128751707Y-113569396D01*
X128754522Y-113574873D01*
X128876457Y-113728717D01*
X128881150Y-113732711D01*
X128881151Y-113732712D01*
X128962056Y-113801567D01*
X129025952Y-113855947D01*
X129031330Y-113858953D01*
X129031332Y-113858954D01*
X129067667Y-113879261D01*
X129197312Y-113951717D01*
X129384010Y-114012379D01*
X129578935Y-114035622D01*
X129585070Y-114035150D01*
X129585072Y-114035150D01*
X129768521Y-114021035D01*
X129768525Y-114021034D01*
X129774663Y-114020562D01*
X129780595Y-114018906D01*
X129780599Y-114018905D01*
X129869201Y-113994166D01*
X129963738Y-113967771D01*
X130138958Y-113879261D01*
X130158968Y-113863628D01*
X130288788Y-113762201D01*
X130288789Y-113762200D01*
X130293649Y-113758403D01*
X130421919Y-113609800D01*
X130518883Y-113439113D01*
X130580847Y-113252843D01*
X130586836Y-113205432D01*
X130605009Y-113061588D01*
X130605010Y-113061578D01*
X130605451Y-113058085D01*
X130605843Y-113030000D01*
X130603866Y-113009831D01*
X130587288Y-112840764D01*
X130586687Y-112834631D01*
X130529948Y-112646703D01*
X130437788Y-112473375D01*
X130433898Y-112468605D01*
X130433895Y-112468601D01*
X130317606Y-112326017D01*
X130317604Y-112326015D01*
X130313717Y-112321249D01*
X130162460Y-112196118D01*
X129989780Y-112102750D01*
X129802253Y-112044701D01*
X129796131Y-112044058D01*
X129796128Y-112044057D01*
X129613151Y-112024826D01*
X129613149Y-112024826D01*
X129607022Y-112024182D01*
X129487685Y-112035042D01*
X129417665Y-112041414D01*
X129417664Y-112041414D01*
X129411524Y-112041973D01*
X129223205Y-112097399D01*
X129049237Y-112188346D01*
X129044439Y-112192203D01*
X129044437Y-112192205D01*
X128901049Y-112307493D01*
X128901045Y-112307497D01*
X128896249Y-112311353D01*
X128770065Y-112461732D01*
X128767102Y-112467121D01*
X128767099Y-112467126D01*
X128763664Y-112473375D01*
X128675494Y-112633756D01*
X128673633Y-112639623D01*
X128673632Y-112639625D01*
X128617999Y-112815003D01*
X128616137Y-112820873D01*
X128594255Y-113015956D01*
X128000999Y-113015956D01*
X128000999Y-112258434D01*
X127993888Y-112222682D01*
X127988656Y-112196374D01*
X127988655Y-112196372D01*
X127986234Y-112184199D01*
X127929984Y-112100016D01*
X127845801Y-112043766D01*
X127771567Y-112029000D01*
X127000125Y-112029000D01*
X126228434Y-112029001D01*
X126192682Y-112036112D01*
X126166374Y-112041344D01*
X126166372Y-112041345D01*
X126154199Y-112043766D01*
X126143879Y-112050661D01*
X126143878Y-112050662D01*
X126083485Y-112091016D01*
X126070016Y-112100016D01*
X126013766Y-112184199D01*
X125999000Y-112258433D01*
X122174500Y-112258433D01*
X122174500Y-103956062D01*
X144942773Y-103956062D01*
X144952069Y-103968077D01*
X145003274Y-104003931D01*
X145012769Y-104009414D01*
X145210227Y-104101490D01*
X145220519Y-104105236D01*
X145430968Y-104161625D01*
X145441761Y-104163528D01*
X145658805Y-104182517D01*
X145669755Y-104182517D01*
X145886799Y-104163528D01*
X145897592Y-104161625D01*
X146108041Y-104105236D01*
X146118333Y-104101490D01*
X146315791Y-104009414D01*
X146325286Y-104003931D01*
X146377328Y-103967491D01*
X146385704Y-103957012D01*
X146378636Y-103943566D01*
X145677092Y-103242022D01*
X145663148Y-103234408D01*
X145661315Y-103234539D01*
X145654700Y-103238790D01*
X144949203Y-103944287D01*
X144942773Y-103956062D01*
X122174500Y-103956062D01*
X122174500Y-102855206D01*
X128040501Y-102855206D01*
X128057806Y-103061278D01*
X128114807Y-103260066D01*
X128117625Y-103265548D01*
X128117626Y-103265552D01*
X128206514Y-103438509D01*
X128206517Y-103438513D01*
X128209334Y-103443995D01*
X128337786Y-103606061D01*
X128342479Y-103610055D01*
X128342480Y-103610056D01*
X128452425Y-103703626D01*
X128495271Y-103740091D01*
X128675789Y-103840980D01*
X128872466Y-103904884D01*
X129077809Y-103929370D01*
X129083944Y-103928898D01*
X129083946Y-103928898D01*
X129277856Y-103913977D01*
X129277860Y-103913976D01*
X129283998Y-103913504D01*
X129483178Y-103857892D01*
X129488682Y-103855112D01*
X129488684Y-103855111D01*
X129662262Y-103767431D01*
X129662264Y-103767430D01*
X129667763Y-103764652D01*
X129830722Y-103637334D01*
X129834748Y-103632670D01*
X129834751Y-103632667D01*
X129961819Y-103485457D01*
X129961820Y-103485455D01*
X129965848Y-103480789D01*
X130022988Y-103380205D01*
X130064950Y-103306340D01*
X130064952Y-103306336D01*
X130067995Y-103300979D01*
X130133270Y-103104753D01*
X130159189Y-102899586D01*
X130159602Y-102870000D01*
X130158152Y-102855206D01*
X140740501Y-102855206D01*
X140757806Y-103061278D01*
X140814807Y-103260066D01*
X140817625Y-103265548D01*
X140817626Y-103265552D01*
X140906514Y-103438509D01*
X140906517Y-103438513D01*
X140909334Y-103443995D01*
X141037786Y-103606061D01*
X141042479Y-103610055D01*
X141042480Y-103610056D01*
X141152425Y-103703626D01*
X141195271Y-103740091D01*
X141375789Y-103840980D01*
X141572466Y-103904884D01*
X141777809Y-103929370D01*
X141783944Y-103928898D01*
X141783946Y-103928898D01*
X141977856Y-103913977D01*
X141977860Y-103913976D01*
X141983998Y-103913504D01*
X142183178Y-103857892D01*
X142188682Y-103855112D01*
X142188684Y-103855111D01*
X142362262Y-103767431D01*
X142362264Y-103767430D01*
X142367763Y-103764652D01*
X142530722Y-103637334D01*
X142534748Y-103632670D01*
X142534751Y-103632667D01*
X142661819Y-103485457D01*
X142661820Y-103485455D01*
X142665848Y-103480789D01*
X142722988Y-103380205D01*
X142764950Y-103306340D01*
X142764952Y-103306336D01*
X142767995Y-103300979D01*
X142833270Y-103104753D01*
X142859189Y-102899586D01*
X142859526Y-102875475D01*
X144351763Y-102875475D01*
X144370752Y-103092519D01*
X144372655Y-103103312D01*
X144429044Y-103313761D01*
X144432790Y-103324053D01*
X144524866Y-103521511D01*
X144530349Y-103531006D01*
X144566789Y-103583048D01*
X144577268Y-103591424D01*
X144590714Y-103584356D01*
X145292258Y-102882812D01*
X145298636Y-102871132D01*
X146028688Y-102871132D01*
X146028819Y-102872965D01*
X146033070Y-102879580D01*
X146738567Y-103585077D01*
X146750342Y-103591507D01*
X146762357Y-103582211D01*
X146798211Y-103531006D01*
X146803694Y-103521511D01*
X146869586Y-103380205D01*
X146916504Y-103326920D01*
X146984781Y-103307459D01*
X147052741Y-103328001D01*
X147098806Y-103382024D01*
X147109781Y-103433454D01*
X147109781Y-103695066D01*
X147124546Y-103769301D01*
X147131441Y-103779620D01*
X147131442Y-103779622D01*
X147149654Y-103806877D01*
X147180796Y-103853484D01*
X147264979Y-103909734D01*
X147339213Y-103924500D01*
X148164146Y-103924500D01*
X148989346Y-103924499D01*
X149023791Y-103917648D01*
X159276906Y-103917648D01*
X159286202Y-103929664D01*
X159325849Y-103957424D01*
X159335335Y-103962902D01*
X159524312Y-104051022D01*
X159534608Y-104054770D01*
X159736016Y-104108738D01*
X159746803Y-104110640D01*
X159954525Y-104128813D01*
X159965475Y-104128813D01*
X160173197Y-104110640D01*
X160183984Y-104108738D01*
X160385392Y-104054770D01*
X160395688Y-104051022D01*
X160584665Y-103962902D01*
X160594151Y-103957424D01*
X160634636Y-103929077D01*
X160643011Y-103918600D01*
X160635942Y-103905152D01*
X159972812Y-103242022D01*
X159958868Y-103234408D01*
X159957035Y-103234539D01*
X159950420Y-103238790D01*
X159283336Y-103905874D01*
X159276906Y-103917648D01*
X149023791Y-103917648D01*
X149025098Y-103917388D01*
X149051406Y-103912156D01*
X149051408Y-103912155D01*
X149063581Y-103909734D01*
X149073901Y-103902839D01*
X149073902Y-103902838D01*
X149137448Y-103860377D01*
X149147764Y-103853484D01*
X149204014Y-103769301D01*
X149218780Y-103695067D01*
X149218779Y-102855956D01*
X153934255Y-102855956D01*
X153950682Y-103051574D01*
X153952381Y-103057499D01*
X153967608Y-103110601D01*
X154004791Y-103240276D01*
X154007610Y-103245761D01*
X154091704Y-103409391D01*
X154091707Y-103409396D01*
X154094522Y-103414873D01*
X154216457Y-103568717D01*
X154221150Y-103572711D01*
X154221151Y-103572712D01*
X154302056Y-103641567D01*
X154365952Y-103695947D01*
X154371330Y-103698953D01*
X154371332Y-103698954D01*
X154407667Y-103719261D01*
X154537312Y-103791717D01*
X154724010Y-103852379D01*
X154918935Y-103875622D01*
X154925070Y-103875150D01*
X154925072Y-103875150D01*
X155108521Y-103861035D01*
X155108525Y-103861034D01*
X155114663Y-103860562D01*
X155120595Y-103858906D01*
X155120599Y-103858905D01*
X155209200Y-103834167D01*
X155303738Y-103807771D01*
X155478958Y-103719261D01*
X155498968Y-103703628D01*
X155628788Y-103602201D01*
X155628789Y-103602200D01*
X155633649Y-103598403D01*
X155761919Y-103449800D01*
X155858883Y-103279113D01*
X155920847Y-103092843D01*
X155944819Y-102903090D01*
X155945009Y-102901588D01*
X155945010Y-102901578D01*
X155945451Y-102898085D01*
X155945843Y-102870000D01*
X155944467Y-102855956D01*
X156354255Y-102855956D01*
X156370682Y-103051574D01*
X156372381Y-103057499D01*
X156387608Y-103110601D01*
X156424791Y-103240276D01*
X156427610Y-103245761D01*
X156511704Y-103409391D01*
X156511707Y-103409396D01*
X156514522Y-103414873D01*
X156636457Y-103568717D01*
X156641150Y-103572711D01*
X156641151Y-103572712D01*
X156722056Y-103641567D01*
X156785952Y-103695947D01*
X156791330Y-103698953D01*
X156791332Y-103698954D01*
X156827667Y-103719261D01*
X156957312Y-103791717D01*
X157144010Y-103852379D01*
X157338935Y-103875622D01*
X157345070Y-103875150D01*
X157345072Y-103875150D01*
X157528521Y-103861035D01*
X157528525Y-103861034D01*
X157534663Y-103860562D01*
X157540595Y-103858906D01*
X157540599Y-103858905D01*
X157629200Y-103834167D01*
X157723738Y-103807771D01*
X157898958Y-103719261D01*
X157918968Y-103703628D01*
X158048788Y-103602201D01*
X158048789Y-103602200D01*
X158053649Y-103598403D01*
X158181919Y-103449800D01*
X158278883Y-103279113D01*
X158340847Y-103092843D01*
X158364819Y-102903090D01*
X158365009Y-102901588D01*
X158365010Y-102901578D01*
X158365451Y-102898085D01*
X158365767Y-102875475D01*
X158701187Y-102875475D01*
X158719360Y-103083197D01*
X158721262Y-103093984D01*
X158775230Y-103295392D01*
X158778978Y-103305688D01*
X158867098Y-103494665D01*
X158872576Y-103504151D01*
X158900923Y-103544636D01*
X158911400Y-103553011D01*
X158924848Y-103545942D01*
X159587978Y-102882812D01*
X159594356Y-102871132D01*
X160324408Y-102871132D01*
X160324539Y-102872965D01*
X160328790Y-102879580D01*
X160995874Y-103546664D01*
X161007648Y-103553094D01*
X161019664Y-103543798D01*
X161047424Y-103504151D01*
X161052902Y-103494665D01*
X161141022Y-103305688D01*
X161144770Y-103295392D01*
X161198738Y-103093984D01*
X161200640Y-103083197D01*
X161218813Y-102875475D01*
X161218813Y-102864525D01*
X161200640Y-102656803D01*
X161198738Y-102646016D01*
X161144770Y-102444608D01*
X161141022Y-102434312D01*
X161052902Y-102245335D01*
X161047424Y-102235849D01*
X161019077Y-102195364D01*
X161008600Y-102186989D01*
X160995152Y-102194058D01*
X160332022Y-102857188D01*
X160324408Y-102871132D01*
X159594356Y-102871132D01*
X159595592Y-102868868D01*
X159595461Y-102867035D01*
X159591210Y-102860420D01*
X158924126Y-102193336D01*
X158912352Y-102186906D01*
X158900336Y-102196202D01*
X158872576Y-102235849D01*
X158867098Y-102245335D01*
X158778978Y-102434312D01*
X158775230Y-102444608D01*
X158721262Y-102646016D01*
X158719360Y-102656803D01*
X158701187Y-102864525D01*
X158701187Y-102875475D01*
X158365767Y-102875475D01*
X158365843Y-102870000D01*
X158364393Y-102855206D01*
X158347288Y-102680764D01*
X158346687Y-102674631D01*
X158289948Y-102486703D01*
X158243868Y-102400039D01*
X158200682Y-102318817D01*
X158200680Y-102318814D01*
X158197788Y-102313375D01*
X158193898Y-102308605D01*
X158193895Y-102308601D01*
X158077606Y-102166017D01*
X158077604Y-102166015D01*
X158073717Y-102161249D01*
X157922460Y-102036118D01*
X157749780Y-101942750D01*
X157562253Y-101884701D01*
X157556131Y-101884058D01*
X157556128Y-101884057D01*
X157373151Y-101864826D01*
X157373149Y-101864826D01*
X157367022Y-101864182D01*
X157247685Y-101875042D01*
X157177665Y-101881414D01*
X157177664Y-101881414D01*
X157171524Y-101881973D01*
X156983205Y-101937399D01*
X156809237Y-102028346D01*
X156804439Y-102032203D01*
X156804437Y-102032205D01*
X156661049Y-102147493D01*
X156661045Y-102147497D01*
X156656249Y-102151353D01*
X156652290Y-102156071D01*
X156652289Y-102156072D01*
X156621021Y-102193336D01*
X156530065Y-102301732D01*
X156527102Y-102307121D01*
X156527099Y-102307126D01*
X156451518Y-102444608D01*
X156435494Y-102473756D01*
X156433633Y-102479623D01*
X156433632Y-102479625D01*
X156377999Y-102655003D01*
X156376137Y-102660873D01*
X156354255Y-102855956D01*
X155944467Y-102855956D01*
X155944393Y-102855206D01*
X155927288Y-102680764D01*
X155926687Y-102674631D01*
X155869948Y-102486703D01*
X155823868Y-102400039D01*
X155780682Y-102318817D01*
X155780680Y-102318814D01*
X155777788Y-102313375D01*
X155773898Y-102308605D01*
X155773895Y-102308601D01*
X155657606Y-102166017D01*
X155657604Y-102166015D01*
X155653717Y-102161249D01*
X155502460Y-102036118D01*
X155329780Y-101942750D01*
X155142253Y-101884701D01*
X155136131Y-101884058D01*
X155136128Y-101884057D01*
X154953151Y-101864826D01*
X154953149Y-101864826D01*
X154947022Y-101864182D01*
X154827685Y-101875042D01*
X154757665Y-101881414D01*
X154757664Y-101881414D01*
X154751524Y-101881973D01*
X154563205Y-101937399D01*
X154389237Y-102028346D01*
X154384439Y-102032203D01*
X154384437Y-102032205D01*
X154241049Y-102147493D01*
X154241045Y-102147497D01*
X154236249Y-102151353D01*
X154232290Y-102156071D01*
X154232289Y-102156072D01*
X154201021Y-102193336D01*
X154110065Y-102301732D01*
X154107102Y-102307121D01*
X154107099Y-102307126D01*
X154031518Y-102444608D01*
X154015494Y-102473756D01*
X154013633Y-102479623D01*
X154013632Y-102479625D01*
X153957999Y-102655003D01*
X153956137Y-102660873D01*
X153934255Y-102855956D01*
X149218779Y-102855956D01*
X149218779Y-102044934D01*
X149211668Y-102009182D01*
X149206436Y-101982874D01*
X149206435Y-101982872D01*
X149204014Y-101970699D01*
X149184122Y-101940928D01*
X149154657Y-101896832D01*
X149147764Y-101886516D01*
X149063581Y-101830266D01*
X149019008Y-101821400D01*
X159276989Y-101821400D01*
X159284058Y-101834848D01*
X159947188Y-102497978D01*
X159961132Y-102505592D01*
X159962965Y-102505461D01*
X159969580Y-102501210D01*
X160372357Y-102098433D01*
X161559000Y-102098433D01*
X161559001Y-103641566D01*
X161566112Y-103677318D01*
X161568412Y-103688880D01*
X161573766Y-103715801D01*
X161580661Y-103726120D01*
X161580662Y-103726122D01*
X161609514Y-103769301D01*
X161630016Y-103799984D01*
X161714199Y-103856234D01*
X161788433Y-103871000D01*
X162559875Y-103871000D01*
X163331566Y-103870999D01*
X163367318Y-103863888D01*
X163393626Y-103858656D01*
X163393628Y-103858655D01*
X163405801Y-103856234D01*
X163416121Y-103849339D01*
X163416122Y-103849338D01*
X163479668Y-103806877D01*
X163489984Y-103799984D01*
X163546234Y-103715801D01*
X163561000Y-103641567D01*
X163560999Y-102855206D01*
X164040501Y-102855206D01*
X164057806Y-103061278D01*
X164114807Y-103260066D01*
X164117625Y-103265548D01*
X164117626Y-103265552D01*
X164206514Y-103438509D01*
X164206517Y-103438513D01*
X164209334Y-103443995D01*
X164337786Y-103606061D01*
X164342479Y-103610055D01*
X164342480Y-103610056D01*
X164452425Y-103703626D01*
X164495271Y-103740091D01*
X164675789Y-103840980D01*
X164872466Y-103904884D01*
X165077809Y-103929370D01*
X165083944Y-103928898D01*
X165083946Y-103928898D01*
X165277856Y-103913977D01*
X165277860Y-103913976D01*
X165283998Y-103913504D01*
X165483178Y-103857892D01*
X165488682Y-103855112D01*
X165488684Y-103855111D01*
X165662262Y-103767431D01*
X165662264Y-103767430D01*
X165667763Y-103764652D01*
X165830722Y-103637334D01*
X165834748Y-103632670D01*
X165834751Y-103632667D01*
X165961819Y-103485457D01*
X165961820Y-103485455D01*
X165965848Y-103480789D01*
X166022988Y-103380205D01*
X166064950Y-103306340D01*
X166064952Y-103306336D01*
X166067995Y-103300979D01*
X166133270Y-103104753D01*
X166159189Y-102899586D01*
X166159602Y-102870000D01*
X166158152Y-102855206D01*
X176740501Y-102855206D01*
X176757806Y-103061278D01*
X176814807Y-103260066D01*
X176817625Y-103265548D01*
X176817626Y-103265552D01*
X176906514Y-103438509D01*
X176906517Y-103438513D01*
X176909334Y-103443995D01*
X177037786Y-103606061D01*
X177042479Y-103610055D01*
X177042480Y-103610056D01*
X177152425Y-103703626D01*
X177195271Y-103740091D01*
X177375789Y-103840980D01*
X177572466Y-103904884D01*
X177777809Y-103929370D01*
X177783944Y-103928898D01*
X177783946Y-103928898D01*
X177977856Y-103913977D01*
X177977860Y-103913976D01*
X177983998Y-103913504D01*
X178183178Y-103857892D01*
X178188682Y-103855112D01*
X178188684Y-103855111D01*
X178362262Y-103767431D01*
X178362264Y-103767430D01*
X178367763Y-103764652D01*
X178530722Y-103637334D01*
X178534748Y-103632670D01*
X178534751Y-103632667D01*
X178661819Y-103485457D01*
X178661820Y-103485455D01*
X178665848Y-103480789D01*
X178722988Y-103380205D01*
X178764950Y-103306340D01*
X178764952Y-103306336D01*
X178767995Y-103300979D01*
X178833270Y-103104753D01*
X178859189Y-102899586D01*
X178859602Y-102870000D01*
X178858152Y-102855206D01*
X178840023Y-102670322D01*
X178839422Y-102664189D01*
X178779651Y-102466217D01*
X178701277Y-102318817D01*
X178685459Y-102289067D01*
X178685457Y-102289064D01*
X178682565Y-102283625D01*
X178678674Y-102278855D01*
X178678672Y-102278851D01*
X178555758Y-102128143D01*
X178555755Y-102128140D01*
X178551863Y-102123368D01*
X178544966Y-102117662D01*
X178397271Y-101995478D01*
X178397266Y-101995475D01*
X178392522Y-101991550D01*
X178387103Y-101988620D01*
X178387100Y-101988618D01*
X178216032Y-101896122D01*
X178216027Y-101896120D01*
X178210612Y-101893192D01*
X178013063Y-101832040D01*
X178006938Y-101831396D01*
X178006937Y-101831396D01*
X177813526Y-101811068D01*
X177813524Y-101811068D01*
X177807397Y-101810424D01*
X177686787Y-101821400D01*
X177607591Y-101828607D01*
X177607590Y-101828607D01*
X177601450Y-101829166D01*
X177403066Y-101887554D01*
X177397601Y-101890411D01*
X177225261Y-101980508D01*
X177225257Y-101980511D01*
X177219801Y-101983363D01*
X177058635Y-102112943D01*
X176925708Y-102271360D01*
X176826082Y-102452578D01*
X176763553Y-102649696D01*
X176762867Y-102655813D01*
X176762866Y-102655817D01*
X176762589Y-102658287D01*
X176740501Y-102855206D01*
X166158152Y-102855206D01*
X166140023Y-102670322D01*
X166139422Y-102664189D01*
X166079651Y-102466217D01*
X166001277Y-102318817D01*
X165985459Y-102289067D01*
X165985457Y-102289064D01*
X165982565Y-102283625D01*
X165978674Y-102278855D01*
X165978672Y-102278851D01*
X165855758Y-102128143D01*
X165855755Y-102128140D01*
X165851863Y-102123368D01*
X165844966Y-102117662D01*
X165697271Y-101995478D01*
X165697266Y-101995475D01*
X165692522Y-101991550D01*
X165687103Y-101988620D01*
X165687100Y-101988618D01*
X165516032Y-101896122D01*
X165516027Y-101896120D01*
X165510612Y-101893192D01*
X165313063Y-101832040D01*
X165306938Y-101831396D01*
X165306937Y-101831396D01*
X165113526Y-101811068D01*
X165113524Y-101811068D01*
X165107397Y-101810424D01*
X164986787Y-101821400D01*
X164907591Y-101828607D01*
X164907590Y-101828607D01*
X164901450Y-101829166D01*
X164703066Y-101887554D01*
X164697601Y-101890411D01*
X164525261Y-101980508D01*
X164525257Y-101980511D01*
X164519801Y-101983363D01*
X164358635Y-102112943D01*
X164225708Y-102271360D01*
X164126082Y-102452578D01*
X164063553Y-102649696D01*
X164062867Y-102655813D01*
X164062866Y-102655817D01*
X164062589Y-102658287D01*
X164040501Y-102855206D01*
X163560999Y-102855206D01*
X163560999Y-102098434D01*
X163551589Y-102051123D01*
X163548656Y-102036374D01*
X163548655Y-102036372D01*
X163546234Y-102024199D01*
X163524419Y-101991550D01*
X163496877Y-101950332D01*
X163489984Y-101940016D01*
X163405801Y-101883766D01*
X163331567Y-101869000D01*
X162560125Y-101869000D01*
X161788434Y-101869001D01*
X161752682Y-101876112D01*
X161726374Y-101881344D01*
X161726372Y-101881345D01*
X161714199Y-101883766D01*
X161703879Y-101890661D01*
X161703878Y-101890662D01*
X161643485Y-101931016D01*
X161630016Y-101940016D01*
X161573766Y-102024199D01*
X161559000Y-102098433D01*
X160372357Y-102098433D01*
X160636664Y-101834126D01*
X160643094Y-101822352D01*
X160633798Y-101810336D01*
X160594151Y-101782576D01*
X160584665Y-101777098D01*
X160395688Y-101688978D01*
X160385392Y-101685230D01*
X160183984Y-101631262D01*
X160173197Y-101629360D01*
X159965475Y-101611187D01*
X159954525Y-101611187D01*
X159746803Y-101629360D01*
X159736016Y-101631262D01*
X159534608Y-101685230D01*
X159524312Y-101688978D01*
X159335335Y-101777098D01*
X159325849Y-101782576D01*
X159285364Y-101810923D01*
X159276989Y-101821400D01*
X149019008Y-101821400D01*
X148989347Y-101815500D01*
X148164414Y-101815500D01*
X147339214Y-101815501D01*
X147304769Y-101822352D01*
X147277154Y-101827844D01*
X147277152Y-101827845D01*
X147264979Y-101830266D01*
X147254659Y-101837161D01*
X147254658Y-101837162D01*
X147222108Y-101858912D01*
X147180796Y-101886516D01*
X147124546Y-101970699D01*
X147109780Y-102044933D01*
X147109780Y-102306544D01*
X147089778Y-102374665D01*
X147036122Y-102421158D01*
X146965848Y-102431262D01*
X146901268Y-102401768D01*
X146869585Y-102359794D01*
X146803694Y-102218489D01*
X146798211Y-102208994D01*
X146761771Y-102156952D01*
X146751292Y-102148576D01*
X146737846Y-102155644D01*
X146036302Y-102857188D01*
X146028688Y-102871132D01*
X145298636Y-102871132D01*
X145299872Y-102868868D01*
X145299741Y-102867035D01*
X145295490Y-102860420D01*
X144589993Y-102154923D01*
X144578218Y-102148493D01*
X144566203Y-102157789D01*
X144530349Y-102208994D01*
X144524866Y-102218489D01*
X144432790Y-102415947D01*
X144429044Y-102426239D01*
X144372655Y-102636688D01*
X144370752Y-102647481D01*
X144351763Y-102864525D01*
X144351763Y-102875475D01*
X142859526Y-102875475D01*
X142859602Y-102870000D01*
X142858152Y-102855206D01*
X142840023Y-102670322D01*
X142839422Y-102664189D01*
X142779651Y-102466217D01*
X142701277Y-102318817D01*
X142685459Y-102289067D01*
X142685457Y-102289064D01*
X142682565Y-102283625D01*
X142678674Y-102278855D01*
X142678672Y-102278851D01*
X142555758Y-102128143D01*
X142555755Y-102128140D01*
X142551863Y-102123368D01*
X142544966Y-102117662D01*
X142397271Y-101995478D01*
X142397266Y-101995475D01*
X142392522Y-101991550D01*
X142387103Y-101988620D01*
X142387100Y-101988618D01*
X142216032Y-101896122D01*
X142216027Y-101896120D01*
X142210612Y-101893192D01*
X142013063Y-101832040D01*
X142006938Y-101831396D01*
X142006937Y-101831396D01*
X141813526Y-101811068D01*
X141813524Y-101811068D01*
X141807397Y-101810424D01*
X141686787Y-101821400D01*
X141607591Y-101828607D01*
X141607590Y-101828607D01*
X141601450Y-101829166D01*
X141403066Y-101887554D01*
X141397601Y-101890411D01*
X141225261Y-101980508D01*
X141225257Y-101980511D01*
X141219801Y-101983363D01*
X141058635Y-102112943D01*
X140925708Y-102271360D01*
X140826082Y-102452578D01*
X140763553Y-102649696D01*
X140762867Y-102655813D01*
X140762866Y-102655817D01*
X140762589Y-102658287D01*
X140740501Y-102855206D01*
X130158152Y-102855206D01*
X130140023Y-102670322D01*
X130139422Y-102664189D01*
X130079651Y-102466217D01*
X130001277Y-102318817D01*
X129985459Y-102289067D01*
X129985457Y-102289064D01*
X129982565Y-102283625D01*
X129978674Y-102278855D01*
X129978672Y-102278851D01*
X129855758Y-102128143D01*
X129855755Y-102128140D01*
X129851863Y-102123368D01*
X129844966Y-102117662D01*
X129697271Y-101995478D01*
X129697266Y-101995475D01*
X129692522Y-101991550D01*
X129687103Y-101988620D01*
X129687100Y-101988618D01*
X129516032Y-101896122D01*
X129516027Y-101896120D01*
X129510612Y-101893192D01*
X129313063Y-101832040D01*
X129306938Y-101831396D01*
X129306937Y-101831396D01*
X129113526Y-101811068D01*
X129113524Y-101811068D01*
X129107397Y-101810424D01*
X128986787Y-101821400D01*
X128907591Y-101828607D01*
X128907590Y-101828607D01*
X128901450Y-101829166D01*
X128703066Y-101887554D01*
X128697601Y-101890411D01*
X128525261Y-101980508D01*
X128525257Y-101980511D01*
X128519801Y-101983363D01*
X128358635Y-102112943D01*
X128225708Y-102271360D01*
X128126082Y-102452578D01*
X128063553Y-102649696D01*
X128062867Y-102655813D01*
X128062866Y-102655817D01*
X128062589Y-102658287D01*
X128040501Y-102855206D01*
X122174500Y-102855206D01*
X122174500Y-98972074D01*
X122932145Y-98972074D01*
X122934447Y-99060000D01*
X122940581Y-99294234D01*
X122985990Y-99613290D01*
X123067768Y-99925011D01*
X123184834Y-100225268D01*
X123335634Y-100510080D01*
X123337684Y-100513063D01*
X123337686Y-100513066D01*
X123516113Y-100772679D01*
X123516119Y-100772686D01*
X123518170Y-100775671D01*
X123730022Y-101018523D01*
X123968384Y-101235415D01*
X124230094Y-101423473D01*
X124511685Y-101580205D01*
X124809425Y-101703532D01*
X124812919Y-101704527D01*
X124812921Y-101704528D01*
X125115865Y-101790824D01*
X125115870Y-101790825D01*
X125119366Y-101791821D01*
X125299994Y-101821400D01*
X125433819Y-101843315D01*
X125433826Y-101843316D01*
X125437400Y-101843901D01*
X125759313Y-101859083D01*
X125763611Y-101858790D01*
X126077205Y-101837411D01*
X126077212Y-101837410D01*
X126080837Y-101837163D01*
X126084413Y-101836500D01*
X126084415Y-101836500D01*
X126373141Y-101782988D01*
X144942856Y-101782988D01*
X144949924Y-101796434D01*
X145651468Y-102497978D01*
X145665412Y-102505592D01*
X145667245Y-102505461D01*
X145673860Y-102501210D01*
X146379357Y-101795713D01*
X146385787Y-101783938D01*
X146376491Y-101771923D01*
X146325286Y-101736069D01*
X146315791Y-101730586D01*
X146118333Y-101638510D01*
X146108041Y-101634764D01*
X145897592Y-101578375D01*
X145886799Y-101576472D01*
X145669755Y-101557483D01*
X145658805Y-101557483D01*
X145441761Y-101576472D01*
X145430968Y-101578375D01*
X145220519Y-101634764D01*
X145210227Y-101638510D01*
X145012769Y-101730586D01*
X145003274Y-101736069D01*
X144951232Y-101772509D01*
X144942856Y-101782988D01*
X126373141Y-101782988D01*
X126394146Y-101779095D01*
X126394150Y-101779094D01*
X126397711Y-101778434D01*
X126705735Y-101683673D01*
X127000827Y-101554138D01*
X127279074Y-101391543D01*
X127536788Y-101198045D01*
X127770555Y-100976209D01*
X127977276Y-100728974D01*
X128154209Y-100459618D01*
X128270464Y-100228473D01*
X128297385Y-100174947D01*
X128297388Y-100174939D01*
X128299012Y-100171711D01*
X128300257Y-100168309D01*
X128408515Y-99872480D01*
X128408518Y-99872471D01*
X128409763Y-99869068D01*
X128410608Y-99865546D01*
X128410611Y-99865538D01*
X128484149Y-99559231D01*
X128484150Y-99559227D01*
X128484996Y-99555702D01*
X128516637Y-99294234D01*
X128523376Y-99238544D01*
X128523376Y-99238538D01*
X128523712Y-99235765D01*
X128529236Y-99060000D01*
X128524166Y-98972074D01*
X178812145Y-98972074D01*
X178814447Y-99060000D01*
X178820581Y-99294234D01*
X178865990Y-99613290D01*
X178947768Y-99925011D01*
X179064834Y-100225268D01*
X179215634Y-100510080D01*
X179217684Y-100513063D01*
X179217686Y-100513066D01*
X179396113Y-100772679D01*
X179396119Y-100772686D01*
X179398170Y-100775671D01*
X179610022Y-101018523D01*
X179848384Y-101235415D01*
X180110094Y-101423473D01*
X180391685Y-101580205D01*
X180689425Y-101703532D01*
X180692919Y-101704527D01*
X180692921Y-101704528D01*
X180995865Y-101790824D01*
X180995870Y-101790825D01*
X180999366Y-101791821D01*
X181179994Y-101821400D01*
X181313819Y-101843315D01*
X181313826Y-101843316D01*
X181317400Y-101843901D01*
X181639313Y-101859083D01*
X181643611Y-101858790D01*
X181957205Y-101837411D01*
X181957212Y-101837410D01*
X181960837Y-101837163D01*
X181964413Y-101836500D01*
X181964415Y-101836500D01*
X182274146Y-101779095D01*
X182274150Y-101779094D01*
X182277711Y-101778434D01*
X182585735Y-101683673D01*
X182880827Y-101554138D01*
X183159074Y-101391543D01*
X183416788Y-101198045D01*
X183650555Y-100976209D01*
X183857276Y-100728974D01*
X184034209Y-100459618D01*
X184150464Y-100228473D01*
X184177385Y-100174947D01*
X184177388Y-100174939D01*
X184179012Y-100171711D01*
X184180257Y-100168309D01*
X184288515Y-99872480D01*
X184288518Y-99872471D01*
X184289763Y-99869068D01*
X184290608Y-99865546D01*
X184290611Y-99865538D01*
X184364149Y-99559231D01*
X184364150Y-99559227D01*
X184364996Y-99555702D01*
X184396637Y-99294234D01*
X184403376Y-99238544D01*
X184403376Y-99238538D01*
X184403712Y-99235765D01*
X184409236Y-99060000D01*
X184404166Y-98972074D01*
X184390894Y-98741884D01*
X184390893Y-98741879D01*
X184390685Y-98738264D01*
X184335277Y-98420792D01*
X184311068Y-98339062D01*
X184297596Y-98293584D01*
X184243747Y-98111793D01*
X184242326Y-98108462D01*
X184242323Y-98108453D01*
X184118731Y-97818695D01*
X184117309Y-97815361D01*
X183957637Y-97535427D01*
X183766848Y-97275700D01*
X183547472Y-97039623D01*
X183544718Y-97037271D01*
X183544714Y-97037267D01*
X183440749Y-96948473D01*
X183302416Y-96830325D01*
X183299413Y-96828307D01*
X183299405Y-96828301D01*
X183133176Y-96716601D01*
X183034927Y-96650580D01*
X183031718Y-96648924D01*
X183031710Y-96648919D01*
X182751772Y-96504433D01*
X182751773Y-96504433D01*
X182748552Y-96502771D01*
X182745171Y-96501493D01*
X182745161Y-96501489D01*
X182559126Y-96431193D01*
X182447086Y-96388856D01*
X182134525Y-96310346D01*
X181999727Y-96292599D01*
X181818615Y-96268755D01*
X181818607Y-96268754D01*
X181815011Y-96268281D01*
X181681144Y-96266178D01*
X181496422Y-96263276D01*
X181496418Y-96263276D01*
X181492780Y-96263219D01*
X181489166Y-96263580D01*
X181489160Y-96263580D01*
X181264221Y-96286032D01*
X181172103Y-96295227D01*
X180857230Y-96363881D01*
X180853803Y-96365054D01*
X180853797Y-96365056D01*
X180555765Y-96467095D01*
X180555760Y-96467097D01*
X180552334Y-96468270D01*
X180549066Y-96469829D01*
X180549058Y-96469832D01*
X180400965Y-96540469D01*
X180261458Y-96607011D01*
X179988455Y-96778265D01*
X179985621Y-96780535D01*
X179985616Y-96780539D01*
X179920530Y-96832683D01*
X179736946Y-96979762D01*
X179510262Y-97208832D01*
X179311410Y-97462438D01*
X179143024Y-97737219D01*
X179141497Y-97740509D01*
X179141492Y-97740518D01*
X179059456Y-97917250D01*
X179007336Y-98029532D01*
X178906146Y-98335504D01*
X178905410Y-98339059D01*
X178905409Y-98339062D01*
X178887744Y-98424365D01*
X178840793Y-98651079D01*
X178812145Y-98972074D01*
X128524166Y-98972074D01*
X128510894Y-98741884D01*
X128510893Y-98741879D01*
X128510685Y-98738264D01*
X128455277Y-98420792D01*
X128431068Y-98339062D01*
X128417596Y-98293584D01*
X128363747Y-98111793D01*
X128362326Y-98108462D01*
X128362323Y-98108453D01*
X128238731Y-97818695D01*
X128237309Y-97815361D01*
X128077637Y-97535427D01*
X127886848Y-97275700D01*
X127667472Y-97039623D01*
X127664718Y-97037271D01*
X127664714Y-97037267D01*
X127560749Y-96948473D01*
X127422416Y-96830325D01*
X127419413Y-96828307D01*
X127419405Y-96828301D01*
X127253176Y-96716601D01*
X127154927Y-96650580D01*
X127151718Y-96648924D01*
X127151710Y-96648919D01*
X126871772Y-96504433D01*
X126871773Y-96504433D01*
X126868552Y-96502771D01*
X126865171Y-96501493D01*
X126865161Y-96501489D01*
X126679126Y-96431193D01*
X126567086Y-96388856D01*
X126254525Y-96310346D01*
X126119727Y-96292599D01*
X125938615Y-96268755D01*
X125938607Y-96268754D01*
X125935011Y-96268281D01*
X125801144Y-96266178D01*
X125616422Y-96263276D01*
X125616418Y-96263276D01*
X125612780Y-96263219D01*
X125609166Y-96263580D01*
X125609160Y-96263580D01*
X125384221Y-96286032D01*
X125292103Y-96295227D01*
X124977230Y-96363881D01*
X124973803Y-96365054D01*
X124973797Y-96365056D01*
X124675765Y-96467095D01*
X124675760Y-96467097D01*
X124672334Y-96468270D01*
X124669066Y-96469829D01*
X124669058Y-96469832D01*
X124520965Y-96540469D01*
X124381458Y-96607011D01*
X124108455Y-96778265D01*
X124105621Y-96780535D01*
X124105616Y-96780539D01*
X124040530Y-96832683D01*
X123856946Y-96979762D01*
X123630262Y-97208832D01*
X123431410Y-97462438D01*
X123263024Y-97737219D01*
X123261497Y-97740509D01*
X123261492Y-97740518D01*
X123179456Y-97917250D01*
X123127336Y-98029532D01*
X123026146Y-98335504D01*
X123025410Y-98339059D01*
X123025409Y-98339062D01*
X123007744Y-98424365D01*
X122960793Y-98651079D01*
X122932145Y-98972074D01*
X122174500Y-98972074D01*
X122174500Y-95630500D01*
X122194502Y-95562379D01*
X122248158Y-95515886D01*
X122300500Y-95504500D01*
X185039500Y-95504500D01*
X185107621Y-95524502D01*
G37*
%TD.AperFunction*%
%TD*%
M02*
