M48
; DRILL file {KiCad 6.0.11+dfsg-1} date Sun 16 Mar 2025 05:40:38 PM EDT
; FORMAT={-:-/ absolute / inch / decimal}
; #@! TF.CreationDate,2025-03-16T17:40:38-04:00
; #@! TF.GenerationSoftware,Kicad,Pcbnew,6.0.11+dfsg-1
; #@! TF.FileFunction,Plated,1,2,PTH
FMAT,2
INCH
; #@! TA.AperFunction,Plated,PTH,ViaDrill
T1C0.0157
; #@! TA.AperFunction,Plated,PTH,ComponentDrill
T2C0.0300
; #@! TA.AperFunction,Plated,PTH,ComponentDrill
T3C0.0315
; #@! TA.AperFunction,Plated,PTH,ComponentDrill
T4C0.0378
; #@! TA.AperFunction,Plated,PTH,ComponentDrill
T5C0.0433
%
G90
G05
T1
X5.275Y-4.8
X5.35Y-4.55
X5.4Y-4.225
X5.45Y-4.875
X5.5Y-4.575
X5.5Y-5.15
X5.55Y-4.425
X5.55Y-4.725
X5.6Y-4.225
X5.6305Y-4.5805
X5.65Y-5.15
X5.675Y-4.425
X5.7Y-4.825
X5.7Y-5.525
X5.725Y-5.25
X5.8236Y-4.7736
X5.825Y-4.525
X5.85Y-5.375
X5.85Y-5.525
X5.9Y-5.25
X5.925Y-5.375
X5.975Y-5.375
X6.025Y-5.475
X6.025Y-5.625
X6.05Y-5.275
X6.05Y-5.375
X6.075Y-5.2
X6.0805Y-5.1
X6.1Y-5.7
X6.15Y-4.525
X6.15Y-4.8
X6.15Y-5.4
X6.1625Y-5.335
X6.175Y-5.625
X6.175Y-5.8
X6.2Y-4.95
X6.25Y-4.85
X6.3Y-5.55
X6.4Y-4.55
X6.4Y-5.15
X6.5Y-5.15
X6.55Y-4.55
X6.625Y-4.325
X6.675Y-4.875
X6.725Y-4.55
T2
X6.6Y-5.5484
X6.6Y-5.6484
T3
X5.0827Y-4.05
X5.25Y-5.1
X5.25Y-5.6
X5.5827Y-4.05
X5.6961Y-5.7
X5.7348Y-4.05
X5.7945Y-5.7
X5.8332Y-4.05
X6.5Y-4.05
X6.8Y-5.1
X6.8Y-5.6
X7.0Y-4.05
T4
X5.0Y-4.45
X5.0106Y-5.1
X5.1024Y-4.45
X5.113Y-5.1
X6.1Y-4.05
X6.1953Y-4.05
X6.2976Y-4.05
X6.4Y-4.05
X6.6Y-5.7484
X6.65Y-5.3508
X6.65Y-5.4531
X6.8976Y-4.45
X6.95Y-5.1
X7.0Y-4.45
X7.0524Y-5.1
T5
X5.4614Y-5.022
X5.4614Y-5.278
X5.6386Y-5.022
X5.6386Y-5.278
X6.3614Y-5.022
X6.3614Y-5.278
X6.5386Y-5.022
X6.5386Y-5.278
T0
M30
