%TF.GenerationSoftware,KiCad,Pcbnew,6.0.11+dfsg-1*%
%TF.CreationDate,2025-03-15T00:22:14-04:00*%
%TF.ProjectId,quadcopter_boostbuck_small,71756164-636f-4707-9465-725f626f6f73,rev?*%
%TF.SameCoordinates,Original*%
%TF.FileFunction,Soldermask,Top*%
%TF.FilePolarity,Negative*%
%FSLAX46Y46*%
G04 Gerber Fmt 4.6, Leading zero omitted, Abs format (unit mm)*
G04 Created by KiCad (PCBNEW 6.0.11+dfsg-1) date 2025-03-15 00:22:14*
%MOMM*%
%LPD*%
G01*
G04 APERTURE LIST*
G04 Aperture macros list*
%AMRoundRect*
0 Rectangle with rounded corners*
0 $1 Rounding radius*
0 $2 $3 $4 $5 $6 $7 $8 $9 X,Y pos of 4 corners*
0 Add a 4 corners polygon primitive as box body*
4,1,4,$2,$3,$4,$5,$6,$7,$8,$9,$2,$3,0*
0 Add four circle primitives for the rounded corners*
1,1,$1+$1,$2,$3*
1,1,$1+$1,$4,$5*
1,1,$1+$1,$6,$7*
1,1,$1+$1,$8,$9*
0 Add four rect primitives between the rounded corners*
20,1,$1+$1,$2,$3,$4,$5,0*
20,1,$1+$1,$4,$5,$6,$7,0*
20,1,$1+$1,$6,$7,$8,$9,0*
20,1,$1+$1,$8,$9,$2,$3,0*%
G04 Aperture macros list end*
%ADD10RoundRect,0.218750X0.256250X-0.218750X0.256250X0.218750X-0.256250X0.218750X-0.256250X-0.218750X0*%
%ADD11RoundRect,0.225000X0.225000X0.250000X-0.225000X0.250000X-0.225000X-0.250000X0.225000X-0.250000X0*%
%ADD12RoundRect,0.200000X0.275000X-0.200000X0.275000X0.200000X-0.275000X0.200000X-0.275000X-0.200000X0*%
%ADD13RoundRect,0.225000X0.250000X-0.225000X0.250000X0.225000X-0.250000X0.225000X-0.250000X-0.225000X0*%
%ADD14RoundRect,0.200000X-0.275000X0.200000X-0.275000X-0.200000X0.275000X-0.200000X0.275000X0.200000X0*%
%ADD15RoundRect,0.200000X-0.200000X-0.275000X0.200000X-0.275000X0.200000X0.275000X-0.200000X0.275000X0*%
%ADD16RoundRect,0.225000X-0.225000X-0.250000X0.225000X-0.250000X0.225000X0.250000X-0.225000X0.250000X0*%
%ADD17R,1.526000X0.435000*%
%ADD18R,1.493000X1.493000*%
%ADD19C,1.524000*%
G04 APERTURE END LIST*
D10*
%TO.C,L1*%
X170235011Y-101752500D03*
X170235011Y-100177500D03*
%TD*%
D11*
%TO.C,R4*%
X186905000Y-98730000D03*
X185355000Y-98730000D03*
%TD*%
D12*
%TO.C,R1*%
X168581170Y-99112692D03*
X168581170Y-97462692D03*
%TD*%
D13*
%TO.C,C5*%
X188670000Y-98870000D03*
X188670000Y-97320000D03*
%TD*%
%TO.C,C1*%
X170073670Y-98402692D03*
X170073670Y-96852692D03*
%TD*%
D14*
%TO.C,R3*%
X183667500Y-98940000D03*
X183667500Y-100590000D03*
%TD*%
D15*
%TO.C,R5*%
X185415000Y-96812500D03*
X187065000Y-96812500D03*
%TD*%
D13*
%TO.C,C2*%
X185260000Y-102045000D03*
X185260000Y-100495000D03*
%TD*%
D16*
%TO.C,C3*%
X180575000Y-100635000D03*
X182125000Y-100635000D03*
%TD*%
D17*
%TO.C,1*%
X172548000Y-96838000D03*
X172548000Y-97472000D03*
X172548000Y-98108000D03*
X172548000Y-98742000D03*
X172548000Y-99378000D03*
X172548000Y-100012000D03*
X172548000Y-100648000D03*
X172548000Y-101282000D03*
X177972000Y-101282000D03*
X177972000Y-100648000D03*
X177972000Y-100012000D03*
X177972000Y-99378000D03*
X177972000Y-98742000D03*
X177972000Y-98108000D03*
X177972000Y-97472000D03*
X177972000Y-96838000D03*
%TD*%
D16*
%TO.C,C6*%
X177025000Y-102870000D03*
X178575000Y-102870000D03*
%TD*%
D14*
%TO.C,R2*%
X186955000Y-100445000D03*
X186955000Y-102095000D03*
%TD*%
D18*
%TO.C,U1*%
X190500000Y-102195000D03*
D19*
X190500000Y-99655000D03*
X190500000Y-97115000D03*
%TD*%
D16*
%TO.C,C4*%
X180575000Y-99130000D03*
X182125000Y-99130000D03*
%TD*%
M02*
