%TF.GenerationSoftware,KiCad,Pcbnew,6.0.11+dfsg-1*%
%TF.CreationDate,2025-03-15T00:22:14-04:00*%
%TF.ProjectId,quadcopter_boostbuck_small,71756164-636f-4707-9465-725f626f6f73,rev?*%
%TF.SameCoordinates,Original*%
%TF.FileFunction,Copper,L1,Top*%
%TF.FilePolarity,Positive*%
%FSLAX46Y46*%
G04 Gerber Fmt 4.6, Leading zero omitted, Abs format (unit mm)*
G04 Created by KiCad (PCBNEW 6.0.11+dfsg-1) date 2025-03-15 00:22:14*
%MOMM*%
%LPD*%
G01*
G04 APERTURE LIST*
G04 Aperture macros list*
%AMRoundRect*
0 Rectangle with rounded corners*
0 $1 Rounding radius*
0 $2 $3 $4 $5 $6 $7 $8 $9 X,Y pos of 4 corners*
0 Add a 4 corners polygon primitive as box body*
4,1,4,$2,$3,$4,$5,$6,$7,$8,$9,$2,$3,0*
0 Add four circle primitives for the rounded corners*
1,1,$1+$1,$2,$3*
1,1,$1+$1,$4,$5*
1,1,$1+$1,$6,$7*
1,1,$1+$1,$8,$9*
0 Add four rect primitives between the rounded corners*
20,1,$1+$1,$2,$3,$4,$5,0*
20,1,$1+$1,$4,$5,$6,$7,0*
20,1,$1+$1,$6,$7,$8,$9,0*
20,1,$1+$1,$8,$9,$2,$3,0*%
G04 Aperture macros list end*
%TA.AperFunction,SMDPad,CuDef*%
%ADD10RoundRect,0.218750X0.256250X-0.218750X0.256250X0.218750X-0.256250X0.218750X-0.256250X-0.218750X0*%
%TD*%
%TA.AperFunction,SMDPad,CuDef*%
%ADD11RoundRect,0.225000X0.225000X0.250000X-0.225000X0.250000X-0.225000X-0.250000X0.225000X-0.250000X0*%
%TD*%
%TA.AperFunction,SMDPad,CuDef*%
%ADD12RoundRect,0.200000X0.275000X-0.200000X0.275000X0.200000X-0.275000X0.200000X-0.275000X-0.200000X0*%
%TD*%
%TA.AperFunction,SMDPad,CuDef*%
%ADD13RoundRect,0.225000X0.250000X-0.225000X0.250000X0.225000X-0.250000X0.225000X-0.250000X-0.225000X0*%
%TD*%
%TA.AperFunction,SMDPad,CuDef*%
%ADD14RoundRect,0.200000X-0.275000X0.200000X-0.275000X-0.200000X0.275000X-0.200000X0.275000X0.200000X0*%
%TD*%
%TA.AperFunction,SMDPad,CuDef*%
%ADD15RoundRect,0.200000X-0.200000X-0.275000X0.200000X-0.275000X0.200000X0.275000X-0.200000X0.275000X0*%
%TD*%
%TA.AperFunction,SMDPad,CuDef*%
%ADD16RoundRect,0.225000X-0.225000X-0.250000X0.225000X-0.250000X0.225000X0.250000X-0.225000X0.250000X0*%
%TD*%
%TA.AperFunction,SMDPad,CuDef*%
%ADD17R,1.526000X0.435000*%
%TD*%
%TA.AperFunction,ComponentPad*%
%ADD18R,1.493000X1.493000*%
%TD*%
%TA.AperFunction,ComponentPad*%
%ADD19C,1.524000*%
%TD*%
%TA.AperFunction,Conductor*%
%ADD20C,0.250000*%
%TD*%
G04 APERTURE END LIST*
D10*
%TO.P,L1,1,1*%
%TO.N,Net-(1-Pad6)*%
X170235011Y-101752500D03*
%TO.P,L1,2,2*%
%TO.N,Net-(1-Pad5)*%
X170235011Y-100177500D03*
%TD*%
D11*
%TO.P,R4,1*%
%TO.N,v_out*%
X186905000Y-98730000D03*
%TO.P,R4,2*%
%TO.N,fb*%
X185355000Y-98730000D03*
%TD*%
D12*
%TO.P,R1,1*%
%TO.N,+BATT*%
X168581170Y-99112692D03*
%TO.P,R1,2*%
%TO.N,Net-(1-Pad2)*%
X168581170Y-97462692D03*
%TD*%
D13*
%TO.P,C5,1*%
%TO.N,v_out*%
X188670000Y-98870000D03*
%TO.P,C5,2*%
%TO.N,GND*%
X188670000Y-97320000D03*
%TD*%
%TO.P,C1,1*%
%TO.N,Net-(1-Pad2)*%
X170073670Y-98402692D03*
%TO.P,C1,2*%
%TO.N,GND*%
X170073670Y-96852692D03*
%TD*%
D14*
%TO.P,R3,1*%
%TO.N,Net-(C4-Pad2)*%
X183667500Y-98940000D03*
%TO.P,R3,2*%
%TO.N,fb*%
X183667500Y-100590000D03*
%TD*%
D15*
%TO.P,R5,1*%
%TO.N,fb*%
X185415000Y-96812500D03*
%TO.P,R5,2*%
%TO.N,GND*%
X187065000Y-96812500D03*
%TD*%
D13*
%TO.P,C2,1*%
%TO.N,Net-(C2-Pad1)*%
X185260000Y-102045000D03*
%TO.P,C2,2*%
%TO.N,fb*%
X185260000Y-100495000D03*
%TD*%
D16*
%TO.P,C3,1*%
%TO.N,vc*%
X180575000Y-100635000D03*
%TO.P,C3,2*%
%TO.N,fb*%
X182125000Y-100635000D03*
%TD*%
D17*
%TO.P,1,1,GND_1*%
%TO.N,GND*%
X172548000Y-96838000D03*
%TO.P,1,2,RUN/SS*%
%TO.N,Net-(1-Pad2)*%
X172548000Y-97472000D03*
%TO.P,1,3,GND_2*%
%TO.N,GND*%
X172548000Y-98108000D03*
%TO.P,1,4,PGND1*%
X172548000Y-98742000D03*
%TO.P,1,5,SW1*%
%TO.N,Net-(1-Pad5)*%
X172548000Y-99378000D03*
%TO.P,1,6,SW2*%
%TO.N,Net-(1-Pad6)*%
X172548000Y-100012000D03*
%TO.P,1,7,PGND2*%
%TO.N,GND*%
X172548000Y-100648000D03*
%TO.P,1,8,GND_3*%
X172548000Y-101282000D03*
%TO.P,1,9,GND_4*%
X177972000Y-101282000D03*
%TO.P,1,10,PWM*%
%TO.N,+BATT*%
X177972000Y-100648000D03*
%TO.P,1,11,VOUT*%
%TO.N,v_out*%
X177972000Y-100012000D03*
%TO.P,1,12,PVIN*%
%TO.N,+BATT*%
X177972000Y-99378000D03*
%TO.P,1,13,VIN*%
X177972000Y-98742000D03*
%TO.P,1,14,VC*%
%TO.N,vc*%
X177972000Y-98108000D03*
%TO.P,1,15,FB*%
%TO.N,fb*%
X177972000Y-97472000D03*
%TO.P,1,16,GND_5*%
%TO.N,GND*%
X177972000Y-96838000D03*
%TD*%
D16*
%TO.P,C6,1*%
%TO.N,+BATT*%
X177025000Y-102870000D03*
%TO.P,C6,2*%
%TO.N,GND*%
X178575000Y-102870000D03*
%TD*%
D14*
%TO.P,R2,1*%
%TO.N,v_out*%
X186955000Y-100445000D03*
%TO.P,R2,2*%
%TO.N,Net-(C2-Pad1)*%
X186955000Y-102095000D03*
%TD*%
D18*
%TO.P,U1,1*%
%TO.N,+BATT*%
X190500000Y-102195000D03*
D19*
%TO.P,U1,2*%
%TO.N,GND*%
X190500000Y-99655000D03*
%TO.P,U1,3*%
%TO.N,v_out*%
X190500000Y-97115000D03*
%TD*%
D16*
%TO.P,C4,1*%
%TO.N,vc*%
X180575000Y-99130000D03*
%TO.P,C4,2*%
%TO.N,Net-(C4-Pad2)*%
X182125000Y-99130000D03*
%TD*%
D20*
%TO.N,GND*%
X190500000Y-99655000D02*
X191770000Y-98385000D01*
X178575000Y-101885000D02*
X177972000Y-101282000D01*
X191770000Y-96520000D02*
X191135000Y-95885000D01*
X191770000Y-98385000D02*
X191770000Y-96520000D01*
X172548000Y-98108000D02*
X173673000Y-98108000D01*
X189230000Y-95885000D02*
X188670000Y-96445000D01*
X178575000Y-102870000D02*
X178575000Y-101885000D01*
X188670000Y-96445000D02*
X188670000Y-97320000D01*
X191135000Y-95885000D02*
X189230000Y-95885000D01*
X173673000Y-98108000D02*
X173990000Y-98425000D01*
%TO.N,Net-(1-Pad2)*%
X169521170Y-98402692D02*
X168581170Y-97462692D01*
X172548000Y-97472000D02*
X171004362Y-97472000D01*
X170073670Y-98402692D02*
X170250670Y-98579692D01*
X170073670Y-98402692D02*
X169521170Y-98402692D01*
X171004362Y-97472000D02*
X170073670Y-98402692D01*
%TO.N,Net-(1-Pad5)*%
X171034511Y-99378000D02*
X170235011Y-100177500D01*
X172548000Y-99378000D02*
X171034511Y-99378000D01*
%TO.N,Net-(1-Pad6)*%
X171553500Y-100012000D02*
X172548000Y-100012000D01*
X171460000Y-100105500D02*
X171553500Y-100012000D01*
X170235011Y-101752500D02*
X171460000Y-100527511D01*
X171460000Y-100527511D02*
X171460000Y-100105500D01*
%TO.N,+BATT*%
X168581170Y-99112692D02*
X168581170Y-101906170D01*
X177025000Y-102870000D02*
X176530000Y-102375000D01*
X168581170Y-101906170D02*
X169545000Y-102870000D01*
X188595000Y-104140000D02*
X178295000Y-104140000D01*
X178295000Y-104140000D02*
X177025000Y-102870000D01*
X176530000Y-102375000D02*
X176530000Y-100965000D01*
X169545000Y-102870000D02*
X177025000Y-102870000D01*
X176530000Y-100965000D02*
X176847000Y-100648000D01*
X176975500Y-99378000D02*
X177972000Y-99378000D01*
X188595000Y-104100000D02*
X188595000Y-104140000D01*
X177972000Y-99378000D02*
X177972000Y-98742000D01*
X176847000Y-100648000D02*
X176847000Y-99506500D01*
X176847000Y-100648000D02*
X177972000Y-100648000D01*
X176847000Y-99506500D02*
X176975500Y-99378000D01*
X190500000Y-102195000D02*
X188595000Y-104100000D01*
%TO.N,v_out*%
X188530000Y-98730000D02*
X188670000Y-98870000D01*
X184452183Y-101600000D02*
X184782183Y-101270000D01*
X179705000Y-100330000D02*
X179705000Y-101600000D01*
X188745000Y-98870000D02*
X190500000Y-97115000D01*
X177972000Y-100012000D02*
X178065500Y-100105500D01*
X184782183Y-101270000D02*
X186130000Y-101270000D01*
X186905000Y-98730000D02*
X188530000Y-98730000D01*
X186955000Y-100445000D02*
X186955000Y-98780000D01*
X179705000Y-101600000D02*
X184452183Y-101600000D01*
X178065500Y-100105500D02*
X178435000Y-100105500D01*
X188670000Y-98870000D02*
X188745000Y-98870000D01*
X186130000Y-101270000D02*
X186955000Y-100445000D01*
X179387000Y-100012000D02*
X179705000Y-100330000D01*
X186955000Y-98780000D02*
X186905000Y-98730000D01*
X177972000Y-100012000D02*
X179387000Y-100012000D01*
%TO.N,vc*%
X179553000Y-98108000D02*
X177972000Y-98108000D01*
X180575000Y-99130000D02*
X179553000Y-98108000D01*
X180575000Y-100635000D02*
X180575000Y-99130000D01*
%TO.N,fb*%
X183762500Y-100495000D02*
X183667500Y-100590000D01*
X183667500Y-100590000D02*
X182170000Y-100590000D01*
X185260000Y-100495000D02*
X183762500Y-100495000D01*
X185355000Y-100400000D02*
X185260000Y-100495000D01*
X185415000Y-98670000D02*
X185355000Y-98730000D01*
X180340000Y-97790000D02*
X184437500Y-97790000D01*
X185415000Y-96812500D02*
X185415000Y-98670000D01*
X184437500Y-97790000D02*
X185415000Y-96812500D01*
X182170000Y-100590000D02*
X182125000Y-100635000D01*
X185355000Y-98730000D02*
X185355000Y-100400000D01*
X177972000Y-97472000D02*
X180022000Y-97472000D01*
X180022000Y-97472000D02*
X180340000Y-97790000D01*
%TO.N,Net-(C2-Pad1)*%
X186905000Y-102045000D02*
X186955000Y-102095000D01*
X185260000Y-102045000D02*
X186905000Y-102045000D01*
%TO.N,Net-(C4-Pad2)*%
X183477500Y-99130000D02*
X183667500Y-98940000D01*
X182125000Y-99130000D02*
X183477500Y-99130000D01*
%TD*%
%TA.AperFunction,Conductor*%
%TO.N,GND*%
G36*
X191839459Y-97589350D02*
G01*
X191885525Y-97643373D01*
X191896500Y-97694804D01*
X191896500Y-99076379D01*
X191876498Y-99144500D01*
X191822842Y-99190993D01*
X191752568Y-99201097D01*
X191687988Y-99171603D01*
X191656305Y-99129629D01*
X191606377Y-99022559D01*
X191600897Y-99013068D01*
X191570206Y-98969235D01*
X191559729Y-98960860D01*
X191546282Y-98967928D01*
X190872022Y-99642188D01*
X190864408Y-99656132D01*
X190864539Y-99657965D01*
X190868790Y-99664580D01*
X191547003Y-100342793D01*
X191558777Y-100349223D01*
X191570793Y-100339926D01*
X191600897Y-100296932D01*
X191606377Y-100287441D01*
X191656305Y-100180371D01*
X191703223Y-100127086D01*
X191771500Y-100107625D01*
X191839460Y-100128167D01*
X191885525Y-100182190D01*
X191896500Y-100233621D01*
X191896500Y-101089616D01*
X191876498Y-101157737D01*
X191822842Y-101204230D01*
X191752568Y-101214334D01*
X191687988Y-101184840D01*
X191669674Y-101165181D01*
X191615142Y-101092419D01*
X191609761Y-101085239D01*
X191493205Y-100997885D01*
X191356816Y-100946755D01*
X191294634Y-100940000D01*
X191276095Y-100940000D01*
X191207974Y-100919998D01*
X191161481Y-100866342D01*
X191151377Y-100796068D01*
X191177674Y-100735328D01*
X191194140Y-100714729D01*
X191187071Y-100701281D01*
X190512812Y-100027022D01*
X190498868Y-100019408D01*
X190497035Y-100019539D01*
X190490420Y-100023790D01*
X189812207Y-100702003D01*
X189805777Y-100713777D01*
X189823666Y-100736899D01*
X189849529Y-100803017D01*
X189835541Y-100872622D01*
X189786143Y-100923615D01*
X189724009Y-100940000D01*
X189705366Y-100940000D01*
X189643184Y-100946755D01*
X189506795Y-100997885D01*
X189390239Y-101085239D01*
X189302885Y-101201795D01*
X189251755Y-101338184D01*
X189245000Y-101400366D01*
X189245000Y-102501905D01*
X189224998Y-102570026D01*
X189208095Y-102591001D01*
X188329499Y-103469596D01*
X188267187Y-103503621D01*
X188240404Y-103506500D01*
X179618641Y-103506500D01*
X179550520Y-103486498D01*
X179504027Y-103432842D01*
X179493923Y-103362568D01*
X179499048Y-103340832D01*
X179520491Y-103276186D01*
X179523358Y-103262810D01*
X179532672Y-103171903D01*
X179533000Y-103165487D01*
X179533000Y-103142115D01*
X179528525Y-103126876D01*
X179527135Y-103125671D01*
X179519452Y-103124000D01*
X178447000Y-103124000D01*
X178378879Y-103103998D01*
X178332386Y-103050342D01*
X178321000Y-102998000D01*
X178321000Y-102742000D01*
X178341002Y-102673879D01*
X178394658Y-102627386D01*
X178447000Y-102616000D01*
X179514885Y-102616000D01*
X179530124Y-102611525D01*
X179531329Y-102610135D01*
X179533000Y-102602452D01*
X179533000Y-102574562D01*
X179532663Y-102568047D01*
X179523106Y-102475943D01*
X179520212Y-102462544D01*
X179498860Y-102398544D01*
X179496276Y-102327595D01*
X179532459Y-102266511D01*
X179595924Y-102234686D01*
X179624970Y-102233908D01*
X179624970Y-102233500D01*
X179633207Y-102233500D01*
X179656816Y-102235732D01*
X179657119Y-102235790D01*
X179657123Y-102235790D01*
X179664906Y-102237275D01*
X179720951Y-102233749D01*
X179728862Y-102233500D01*
X184154054Y-102233500D01*
X184222175Y-102253502D01*
X184268668Y-102307158D01*
X184279381Y-102346497D01*
X184286401Y-102414162D01*
X184286402Y-102414167D01*
X184287113Y-102421019D01*
X184289295Y-102427559D01*
X184303115Y-102468981D01*
X184341244Y-102583268D01*
X184431248Y-102728713D01*
X184552298Y-102849552D01*
X184697899Y-102939302D01*
X184860243Y-102993149D01*
X184867080Y-102993849D01*
X184867082Y-102993850D01*
X184907588Y-102998000D01*
X184961268Y-103003500D01*
X185558732Y-103003500D01*
X185561978Y-103003163D01*
X185561982Y-103003163D01*
X185611740Y-102998000D01*
X185661019Y-102992887D01*
X185695737Y-102981304D01*
X185816324Y-102941073D01*
X185816326Y-102941072D01*
X185823268Y-102938756D01*
X185968713Y-102848752D01*
X186011013Y-102806378D01*
X186073295Y-102772299D01*
X186144115Y-102777302D01*
X186189281Y-102806301D01*
X186239619Y-102856639D01*
X186386301Y-102945472D01*
X186393548Y-102947743D01*
X186393550Y-102947744D01*
X186459836Y-102968517D01*
X186549938Y-102996753D01*
X186623365Y-103003500D01*
X186626263Y-103003500D01*
X186955860Y-103003499D01*
X187286634Y-103003499D01*
X187289492Y-103003236D01*
X187289501Y-103003236D01*
X187325004Y-102999974D01*
X187360062Y-102996753D01*
X187366447Y-102994752D01*
X187516450Y-102947744D01*
X187516452Y-102947743D01*
X187523699Y-102945472D01*
X187670381Y-102856639D01*
X187791639Y-102735381D01*
X187880472Y-102588699D01*
X187884903Y-102574562D01*
X187915808Y-102475943D01*
X187931753Y-102425062D01*
X187938500Y-102351635D01*
X187938499Y-101838366D01*
X187931753Y-101764938D01*
X187898756Y-101659644D01*
X187882744Y-101608550D01*
X187882743Y-101608548D01*
X187880472Y-101601301D01*
X187791639Y-101454619D01*
X187696115Y-101359095D01*
X187662089Y-101296783D01*
X187667154Y-101225968D01*
X187696115Y-101180905D01*
X187791639Y-101085381D01*
X187880472Y-100938699D01*
X187884786Y-100924935D01*
X187907938Y-100851055D01*
X187931753Y-100775062D01*
X187938500Y-100701635D01*
X187938499Y-100188366D01*
X187937765Y-100180371D01*
X187932364Y-100121592D01*
X187931753Y-100114938D01*
X187901816Y-100019408D01*
X187882744Y-99958550D01*
X187882743Y-99958548D01*
X187880472Y-99951301D01*
X187850024Y-99901024D01*
X187834601Y-99875558D01*
X187816422Y-99806928D01*
X187838233Y-99739365D01*
X187893109Y-99694319D01*
X187963627Y-99686092D01*
X188008493Y-99703027D01*
X188078802Y-99746366D01*
X188107899Y-99764302D01*
X188270243Y-99818149D01*
X188277080Y-99818849D01*
X188277082Y-99818850D01*
X188318401Y-99823083D01*
X188371268Y-99828500D01*
X188968732Y-99828500D01*
X188971978Y-99828163D01*
X188971982Y-99828163D01*
X189006083Y-99824625D01*
X189071019Y-99817887D01*
X189088946Y-99811906D01*
X189159896Y-99809321D01*
X189220980Y-99845504D01*
X189250530Y-99898818D01*
X189300609Y-100085715D01*
X189304355Y-100096007D01*
X189393623Y-100287441D01*
X189399103Y-100296932D01*
X189429794Y-100340765D01*
X189440271Y-100349140D01*
X189453718Y-100342072D01*
X191187793Y-98607997D01*
X191194223Y-98596223D01*
X191184926Y-98584207D01*
X191141931Y-98554102D01*
X191132445Y-98548624D01*
X191027035Y-98499471D01*
X190973750Y-98452554D01*
X190954289Y-98384277D01*
X190974831Y-98316317D01*
X191027035Y-98271081D01*
X191132690Y-98221814D01*
X191132695Y-98221811D01*
X191137677Y-98219488D01*
X191296258Y-98108448D01*
X191315270Y-98095136D01*
X191315273Y-98095134D01*
X191319781Y-98091977D01*
X191476977Y-97934781D01*
X191485848Y-97922113D01*
X191601331Y-97757185D01*
X191601332Y-97757183D01*
X191604488Y-97752676D01*
X191606811Y-97747694D01*
X191606814Y-97747689D01*
X191656305Y-97641554D01*
X191703222Y-97588269D01*
X191771500Y-97568808D01*
X191839459Y-97589350D01*
G37*
%TD.AperFunction*%
%TA.AperFunction,Conductor*%
G36*
X191838621Y-95143502D02*
G01*
X191885114Y-95197158D01*
X191896500Y-95249500D01*
X191896500Y-96535196D01*
X191876498Y-96603317D01*
X191822842Y-96649810D01*
X191752568Y-96659914D01*
X191687988Y-96630420D01*
X191656305Y-96588446D01*
X191645928Y-96566191D01*
X191622479Y-96515905D01*
X191606814Y-96482311D01*
X191606809Y-96482302D01*
X191604488Y-96477324D01*
X191601331Y-96472815D01*
X191480136Y-96299730D01*
X191480134Y-96299727D01*
X191476977Y-96295219D01*
X191319781Y-96138023D01*
X191315273Y-96134866D01*
X191315270Y-96134864D01*
X191187616Y-96045480D01*
X191137677Y-96010512D01*
X191132695Y-96008189D01*
X191132690Y-96008186D01*
X190941178Y-95918883D01*
X190941177Y-95918882D01*
X190936196Y-95916560D01*
X190930888Y-95915138D01*
X190930886Y-95915137D01*
X190825982Y-95887028D01*
X190721463Y-95859022D01*
X190500000Y-95839647D01*
X190278537Y-95859022D01*
X190174018Y-95887028D01*
X190069114Y-95915137D01*
X190069112Y-95915138D01*
X190063804Y-95916560D01*
X190058823Y-95918882D01*
X190058822Y-95918883D01*
X189867311Y-96008186D01*
X189867306Y-96008189D01*
X189862324Y-96010512D01*
X189857817Y-96013668D01*
X189857815Y-96013669D01*
X189684730Y-96134864D01*
X189684727Y-96134866D01*
X189680219Y-96138023D01*
X189523023Y-96295219D01*
X189519865Y-96299729D01*
X189519860Y-96299735D01*
X189439373Y-96414683D01*
X189383916Y-96459012D01*
X189313297Y-96466321D01*
X189270045Y-96449674D01*
X189238118Y-96429995D01*
X189224939Y-96423849D01*
X189076186Y-96374509D01*
X189062810Y-96371642D01*
X188971903Y-96362328D01*
X188965486Y-96362000D01*
X188942115Y-96362000D01*
X188926876Y-96366475D01*
X188925671Y-96367865D01*
X188924000Y-96375548D01*
X188924000Y-97448000D01*
X188903998Y-97516121D01*
X188850342Y-97562614D01*
X188798000Y-97574000D01*
X188542000Y-97574000D01*
X188473879Y-97553998D01*
X188427386Y-97500342D01*
X188416000Y-97448000D01*
X188416000Y-96380115D01*
X188411525Y-96364876D01*
X188410135Y-96363671D01*
X188402452Y-96362000D01*
X188374562Y-96362000D01*
X188368047Y-96362337D01*
X188275943Y-96371894D01*
X188262544Y-96374788D01*
X188106945Y-96426699D01*
X188105890Y-96423538D01*
X188050438Y-96432188D01*
X187985509Y-96403468D01*
X187946644Y-96344944D01*
X187917285Y-96251257D01*
X187911079Y-96237512D01*
X187830176Y-96103926D01*
X187820869Y-96092057D01*
X187710443Y-95981631D01*
X187698574Y-95972324D01*
X187564988Y-95891421D01*
X187551243Y-95885215D01*
X187401356Y-95838244D01*
X187388306Y-95835631D01*
X187333414Y-95830587D01*
X187321876Y-95833975D01*
X187320671Y-95835365D01*
X187319000Y-95843048D01*
X187319000Y-96940500D01*
X187298998Y-97008621D01*
X187245342Y-97055114D01*
X187193000Y-97066500D01*
X186937000Y-97066500D01*
X186868879Y-97046498D01*
X186822386Y-96992842D01*
X186811000Y-96940500D01*
X186811000Y-95847616D01*
X186806525Y-95832377D01*
X186805135Y-95831172D01*
X186800706Y-95830209D01*
X186741685Y-95835632D01*
X186728649Y-95838243D01*
X186578757Y-95885215D01*
X186565012Y-95891421D01*
X186431426Y-95972324D01*
X186419557Y-95981631D01*
X186329449Y-96071739D01*
X186267137Y-96105765D01*
X186196322Y-96100700D01*
X186151259Y-96071739D01*
X186055381Y-95975861D01*
X185908699Y-95887028D01*
X185901452Y-95884757D01*
X185901450Y-95884756D01*
X185819332Y-95859022D01*
X185745062Y-95835747D01*
X185671635Y-95829000D01*
X185668737Y-95829000D01*
X185414335Y-95829001D01*
X185158366Y-95829001D01*
X185155508Y-95829264D01*
X185155499Y-95829264D01*
X185121619Y-95832377D01*
X185084938Y-95835747D01*
X185078560Y-95837746D01*
X185078559Y-95837746D01*
X184928550Y-95884756D01*
X184928548Y-95884757D01*
X184921301Y-95887028D01*
X184774619Y-95975861D01*
X184653361Y-96097119D01*
X184564528Y-96243801D01*
X184562257Y-96251048D01*
X184562256Y-96251050D01*
X184541483Y-96317336D01*
X184513247Y-96407438D01*
X184506500Y-96480865D01*
X184506501Y-96649810D01*
X184506501Y-96772904D01*
X184486499Y-96841024D01*
X184469596Y-96862000D01*
X184211999Y-97119596D01*
X184149687Y-97153621D01*
X184122904Y-97156500D01*
X180654595Y-97156500D01*
X180586474Y-97136498D01*
X180565500Y-97119595D01*
X180525652Y-97079747D01*
X180518112Y-97071461D01*
X180514000Y-97064982D01*
X180505213Y-97056730D01*
X180464348Y-97018356D01*
X180461506Y-97015601D01*
X180441770Y-96995865D01*
X180438573Y-96993385D01*
X180429551Y-96985680D01*
X180411781Y-96968993D01*
X180397321Y-96955414D01*
X180390375Y-96951595D01*
X180390372Y-96951593D01*
X180379566Y-96945652D01*
X180363047Y-96934801D01*
X180362583Y-96934441D01*
X180347041Y-96922386D01*
X180339772Y-96919241D01*
X180339768Y-96919238D01*
X180306463Y-96904826D01*
X180295813Y-96899609D01*
X180257060Y-96878305D01*
X180237437Y-96873267D01*
X180218734Y-96866863D01*
X180207420Y-96861967D01*
X180207419Y-96861967D01*
X180200145Y-96858819D01*
X180192322Y-96857580D01*
X180192312Y-96857577D01*
X180156476Y-96851901D01*
X180144856Y-96849495D01*
X180109711Y-96840472D01*
X180109710Y-96840472D01*
X180102030Y-96838500D01*
X180081776Y-96838500D01*
X180062065Y-96836949D01*
X180049886Y-96835020D01*
X180042057Y-96833780D01*
X180034165Y-96834526D01*
X179998039Y-96837941D01*
X179986181Y-96838500D01*
X179369000Y-96838500D01*
X179300879Y-96818498D01*
X179254386Y-96764842D01*
X179243000Y-96712501D01*
X179242999Y-96575832D01*
X179242629Y-96569010D01*
X179237105Y-96518148D01*
X179233479Y-96502896D01*
X179188324Y-96382446D01*
X179179786Y-96366851D01*
X179103285Y-96264776D01*
X179090724Y-96252215D01*
X178988649Y-96175714D01*
X178973054Y-96167176D01*
X178852606Y-96122022D01*
X178837351Y-96118395D01*
X178786486Y-96112869D01*
X178779672Y-96112500D01*
X178207615Y-96112500D01*
X178192376Y-96116975D01*
X178191171Y-96118365D01*
X178189500Y-96126048D01*
X178189500Y-96620000D01*
X178169498Y-96688121D01*
X178115842Y-96734614D01*
X178063500Y-96746000D01*
X177880500Y-96746000D01*
X177812379Y-96725998D01*
X177765886Y-96672342D01*
X177754500Y-96620000D01*
X177754500Y-96130616D01*
X177750025Y-96115377D01*
X177748635Y-96114172D01*
X177740952Y-96112501D01*
X177164331Y-96112501D01*
X177157510Y-96112871D01*
X177106648Y-96118395D01*
X177091396Y-96122021D01*
X176970946Y-96167176D01*
X176955351Y-96175714D01*
X176853276Y-96252215D01*
X176840715Y-96264776D01*
X176764214Y-96366851D01*
X176755676Y-96382446D01*
X176710522Y-96502894D01*
X176706895Y-96518149D01*
X176701369Y-96569014D01*
X176701000Y-96575828D01*
X176701000Y-96602385D01*
X176705475Y-96617624D01*
X176706865Y-96618829D01*
X176714548Y-96620500D01*
X176828767Y-96620500D01*
X176896888Y-96640502D01*
X176943381Y-96694158D01*
X176953485Y-96764432D01*
X176923991Y-96829012D01*
X176904332Y-96847326D01*
X176845739Y-96891239D01*
X176758385Y-97007795D01*
X176758362Y-97007855D01*
X176711275Y-97054833D01*
X176706689Y-97056730D01*
X176702672Y-97061365D01*
X176701001Y-97069048D01*
X176701001Y-97100170D01*
X176701370Y-97106987D01*
X176704855Y-97139066D01*
X176704855Y-97166277D01*
X176700500Y-97206366D01*
X176700500Y-97737634D01*
X176704711Y-97776395D01*
X176704711Y-97803605D01*
X176700500Y-97842366D01*
X176700500Y-98373634D01*
X176702317Y-98390353D01*
X176704602Y-98411390D01*
X176704602Y-98438607D01*
X176700941Y-98472311D01*
X176700500Y-98476366D01*
X176700500Y-98730550D01*
X176680498Y-98798671D01*
X176648564Y-98832484D01*
X176632118Y-98844433D01*
X176622201Y-98850947D01*
X176590960Y-98869422D01*
X176590955Y-98869426D01*
X176584137Y-98873458D01*
X176569813Y-98887782D01*
X176554781Y-98900621D01*
X176538393Y-98912528D01*
X176510212Y-98946593D01*
X176502222Y-98955373D01*
X176454747Y-99002848D01*
X176446461Y-99010388D01*
X176439982Y-99014500D01*
X176434557Y-99020277D01*
X176393357Y-99064151D01*
X176390602Y-99066993D01*
X176370865Y-99086730D01*
X176368385Y-99089927D01*
X176360682Y-99098947D01*
X176330414Y-99131179D01*
X176326595Y-99138125D01*
X176326593Y-99138128D01*
X176320652Y-99148934D01*
X176309801Y-99165453D01*
X176297386Y-99181459D01*
X176294241Y-99188728D01*
X176294238Y-99188732D01*
X176279826Y-99222037D01*
X176274609Y-99232687D01*
X176253305Y-99271440D01*
X176251334Y-99279115D01*
X176251334Y-99279116D01*
X176248267Y-99291062D01*
X176241863Y-99309766D01*
X176233819Y-99328355D01*
X176232580Y-99336178D01*
X176232577Y-99336188D01*
X176226901Y-99372024D01*
X176224495Y-99383644D01*
X176220599Y-99398819D01*
X176213500Y-99426470D01*
X176213500Y-99446724D01*
X176211949Y-99466434D01*
X176208780Y-99486443D01*
X176209526Y-99494335D01*
X176212941Y-99530461D01*
X176213500Y-99542319D01*
X176213500Y-100333405D01*
X176193498Y-100401526D01*
X176176595Y-100422500D01*
X176137747Y-100461348D01*
X176129461Y-100468888D01*
X176122982Y-100473000D01*
X176117557Y-100478777D01*
X176076356Y-100522652D01*
X176073601Y-100525494D01*
X176053865Y-100545230D01*
X176051385Y-100548427D01*
X176043682Y-100557447D01*
X176013414Y-100589679D01*
X176009595Y-100596625D01*
X176009593Y-100596628D01*
X176003652Y-100607434D01*
X175992801Y-100623953D01*
X175980386Y-100639959D01*
X175977241Y-100647228D01*
X175977238Y-100647232D01*
X175962826Y-100680537D01*
X175957609Y-100691187D01*
X175936305Y-100729940D01*
X175934334Y-100737615D01*
X175934334Y-100737616D01*
X175931267Y-100749562D01*
X175924863Y-100768266D01*
X175924806Y-100768399D01*
X175916819Y-100786855D01*
X175915580Y-100794678D01*
X175915577Y-100794688D01*
X175909901Y-100830524D01*
X175907495Y-100842144D01*
X175901070Y-100867171D01*
X175896500Y-100884970D01*
X175896500Y-100905224D01*
X175894949Y-100924934D01*
X175891780Y-100944943D01*
X175892526Y-100952835D01*
X175895941Y-100988961D01*
X175896500Y-101000819D01*
X175896500Y-102110500D01*
X175876498Y-102178621D01*
X175822842Y-102225114D01*
X175770500Y-102236500D01*
X173487401Y-102236500D01*
X173419280Y-102216498D01*
X173372787Y-102162842D01*
X173362683Y-102092568D01*
X173392177Y-102027988D01*
X173443171Y-101992518D01*
X173549054Y-101952824D01*
X173564649Y-101944286D01*
X173666724Y-101867785D01*
X173679285Y-101855224D01*
X173755786Y-101753149D01*
X173764324Y-101737554D01*
X173809478Y-101617106D01*
X173813105Y-101601851D01*
X173818631Y-101550986D01*
X173819000Y-101544172D01*
X173819000Y-101517615D01*
X173814525Y-101502376D01*
X173813135Y-101501171D01*
X173805452Y-101499500D01*
X172456500Y-101499500D01*
X172388379Y-101479498D01*
X172341886Y-101425842D01*
X172330500Y-101373500D01*
X172330500Y-100864000D01*
X172350502Y-100795879D01*
X172404158Y-100749386D01*
X172456500Y-100738000D01*
X172639826Y-100738000D01*
X172707947Y-100758002D01*
X172754440Y-100811658D01*
X172762181Y-100865500D01*
X172765500Y-100865500D01*
X172765500Y-101046385D01*
X172769975Y-101061624D01*
X172771365Y-101062829D01*
X172779048Y-101064500D01*
X173800884Y-101064500D01*
X173816123Y-101060025D01*
X173817328Y-101058635D01*
X173818999Y-101050952D01*
X173818999Y-101019831D01*
X173818629Y-101013007D01*
X173814893Y-100978605D01*
X173814893Y-100951393D01*
X173818631Y-100916986D01*
X173819000Y-100910172D01*
X173819000Y-100883615D01*
X173814525Y-100868376D01*
X173813135Y-100867171D01*
X173805452Y-100865500D01*
X173688565Y-100865500D01*
X173620444Y-100845498D01*
X173573951Y-100791842D01*
X173563847Y-100721568D01*
X173593341Y-100656988D01*
X173613000Y-100638674D01*
X173667080Y-100598143D01*
X173667081Y-100598142D01*
X173674261Y-100592761D01*
X173761615Y-100476205D01*
X173762213Y-100476653D01*
X173807418Y-100431550D01*
X173813523Y-100429025D01*
X173817328Y-100424635D01*
X173818999Y-100416952D01*
X173818999Y-100385831D01*
X173818629Y-100379007D01*
X173815037Y-100345929D01*
X173815037Y-100318718D01*
X173819131Y-100281033D01*
X173819131Y-100281029D01*
X173819500Y-100277634D01*
X173819500Y-99746366D01*
X173815398Y-99708606D01*
X173815398Y-99681392D01*
X173817225Y-99664580D01*
X173819500Y-99643634D01*
X173819500Y-99112366D01*
X173815037Y-99071283D01*
X173815037Y-99044068D01*
X173818631Y-99010986D01*
X173819000Y-99004171D01*
X173819000Y-98977615D01*
X173814525Y-98962376D01*
X173788830Y-98940111D01*
X173789167Y-98939722D01*
X173776282Y-98932687D01*
X173761941Y-98913551D01*
X173761615Y-98913795D01*
X173739270Y-98883980D01*
X173674261Y-98797239D01*
X173667080Y-98791857D01*
X173613000Y-98751326D01*
X173570485Y-98694466D01*
X173565460Y-98623648D01*
X173599519Y-98561355D01*
X173661851Y-98527365D01*
X173688565Y-98524500D01*
X173800884Y-98524500D01*
X173816123Y-98520025D01*
X173817328Y-98518635D01*
X173818999Y-98510952D01*
X173818999Y-98479831D01*
X173818629Y-98473007D01*
X173814893Y-98438604D01*
X173814893Y-98411391D01*
X173818631Y-98376983D01*
X173819000Y-98370172D01*
X173819000Y-98343615D01*
X173814525Y-98328376D01*
X173813135Y-98327171D01*
X173805452Y-98325500D01*
X173688565Y-98325500D01*
X173620444Y-98305498D01*
X173573951Y-98251842D01*
X173563847Y-98181568D01*
X173593341Y-98116988D01*
X173613000Y-98098674D01*
X173667080Y-98058143D01*
X173667081Y-98058142D01*
X173674261Y-98052761D01*
X173761615Y-97936205D01*
X173762213Y-97936653D01*
X173807418Y-97891550D01*
X173813523Y-97889025D01*
X173817328Y-97884635D01*
X173818999Y-97876952D01*
X173818999Y-97845831D01*
X173818629Y-97839007D01*
X173815037Y-97805929D01*
X173815037Y-97778718D01*
X173819131Y-97741033D01*
X173819131Y-97741029D01*
X173819500Y-97737634D01*
X173819500Y-97206366D01*
X173815146Y-97166282D01*
X173815146Y-97139068D01*
X173818631Y-97106988D01*
X173819000Y-97100171D01*
X173819000Y-97073615D01*
X173814525Y-97058376D01*
X173788830Y-97036111D01*
X173789409Y-97035442D01*
X173777516Y-97028947D01*
X173761646Y-97007772D01*
X173761615Y-97007795D01*
X173679642Y-96898419D01*
X173674261Y-96891239D01*
X173615668Y-96847326D01*
X173573153Y-96790467D01*
X173568127Y-96719648D01*
X173602187Y-96657355D01*
X173664518Y-96623365D01*
X173691233Y-96620500D01*
X173800884Y-96620500D01*
X173816123Y-96616025D01*
X173817328Y-96614635D01*
X173818999Y-96606952D01*
X173818999Y-96575831D01*
X173818629Y-96569010D01*
X173813105Y-96518148D01*
X173809479Y-96502896D01*
X173764324Y-96382446D01*
X173755786Y-96366851D01*
X173679285Y-96264776D01*
X173666724Y-96252215D01*
X173564649Y-96175714D01*
X173549054Y-96167176D01*
X173428606Y-96122022D01*
X173413351Y-96118395D01*
X173362486Y-96112869D01*
X173355672Y-96112500D01*
X172783615Y-96112500D01*
X172768376Y-96116975D01*
X172767171Y-96118365D01*
X172765500Y-96126048D01*
X172765500Y-96620000D01*
X172745498Y-96688121D01*
X172691842Y-96734614D01*
X172639500Y-96746000D01*
X172456500Y-96746000D01*
X172388379Y-96725998D01*
X172341886Y-96672342D01*
X172330500Y-96620000D01*
X172330500Y-96130616D01*
X172326025Y-96115377D01*
X172324635Y-96114172D01*
X172316952Y-96112501D01*
X171740331Y-96112501D01*
X171733510Y-96112871D01*
X171682648Y-96118395D01*
X171667396Y-96122021D01*
X171546946Y-96167176D01*
X171531351Y-96175714D01*
X171429276Y-96252215D01*
X171416715Y-96264776D01*
X171340214Y-96366851D01*
X171331676Y-96382446D01*
X171287631Y-96499935D01*
X171244989Y-96556699D01*
X171178428Y-96581399D01*
X171109079Y-96566191D01*
X171058961Y-96515905D01*
X171046488Y-96482302D01*
X171043883Y-96470238D01*
X170994289Y-96321585D01*
X170988115Y-96308406D01*
X170905882Y-96175519D01*
X170896846Y-96164118D01*
X170786241Y-96053706D01*
X170774830Y-96044694D01*
X170641790Y-95962688D01*
X170628609Y-95956541D01*
X170479856Y-95907201D01*
X170466480Y-95904334D01*
X170375573Y-95895020D01*
X170369156Y-95894692D01*
X170345785Y-95894692D01*
X170330546Y-95899167D01*
X170329341Y-95900557D01*
X170327670Y-95908240D01*
X170327670Y-96980692D01*
X170307668Y-97048813D01*
X170254012Y-97095306D01*
X170201670Y-97106692D01*
X169945670Y-97106692D01*
X169877549Y-97086690D01*
X169831056Y-97033034D01*
X169819670Y-96980692D01*
X169819670Y-95912807D01*
X169815195Y-95897568D01*
X169813805Y-95896363D01*
X169806122Y-95894692D01*
X169778232Y-95894692D01*
X169771717Y-95895029D01*
X169679613Y-95904586D01*
X169666214Y-95907480D01*
X169517563Y-95957073D01*
X169504384Y-95963247D01*
X169371497Y-96045480D01*
X169360096Y-96054516D01*
X169249684Y-96165121D01*
X169240672Y-96176532D01*
X169158666Y-96309572D01*
X169152519Y-96322753D01*
X169102430Y-96473765D01*
X169061999Y-96532124D01*
X168996435Y-96559361D01*
X168971311Y-96559568D01*
X168912805Y-96554192D01*
X168909907Y-96554192D01*
X168580310Y-96554193D01*
X168249536Y-96554193D01*
X168246678Y-96554456D01*
X168246669Y-96554456D01*
X168211166Y-96557718D01*
X168176108Y-96560939D01*
X168169730Y-96562938D01*
X168169729Y-96562938D01*
X168019720Y-96609948D01*
X168019718Y-96609949D01*
X168012471Y-96612220D01*
X167865789Y-96701053D01*
X167744531Y-96822311D01*
X167740595Y-96828810D01*
X167738652Y-96831288D01*
X167680878Y-96872551D01*
X167609967Y-96876029D01*
X167548432Y-96840617D01*
X167515811Y-96777559D01*
X167513500Y-96753539D01*
X167513500Y-95249500D01*
X167533502Y-95181379D01*
X167587158Y-95134886D01*
X167639500Y-95123500D01*
X191770500Y-95123500D01*
X191838621Y-95143502D01*
G37*
%TD.AperFunction*%
%TA.AperFunction,Conductor*%
G36*
X172707947Y-98218002D02*
G01*
X172754440Y-98271658D01*
X172762181Y-98325500D01*
X172765500Y-98325500D01*
X172765500Y-98524500D01*
X172760837Y-98524500D01*
X172760827Y-98561531D01*
X172722427Y-98621247D01*
X172657838Y-98650722D01*
X172639940Y-98652000D01*
X172456500Y-98652000D01*
X172388379Y-98631998D01*
X172341886Y-98578342D01*
X172330500Y-98526000D01*
X172330500Y-98324000D01*
X172350502Y-98255879D01*
X172404158Y-98209386D01*
X172456500Y-98198000D01*
X172639826Y-98198000D01*
X172707947Y-98218002D01*
G37*
%TD.AperFunction*%
%TD*%
M02*
