%TF.GenerationSoftware,KiCad,Pcbnew,6.0.11+dfsg-1*%
%TF.CreationDate,2025-04-04T15:59:19-04:00*%
%TF.ProjectId,quadcopter_boostbuck_small,71756164-636f-4707-9465-725f626f6f73,rev?*%
%TF.SameCoordinates,Original*%
%TF.FileFunction,Soldermask,Top*%
%TF.FilePolarity,Negative*%
%FSLAX46Y46*%
G04 Gerber Fmt 4.6, Leading zero omitted, Abs format (unit mm)*
G04 Created by KiCad (PCBNEW 6.0.11+dfsg-1) date 2025-04-04 15:59:19*
%MOMM*%
%LPD*%
G01*
G04 APERTURE LIST*
G04 Aperture macros list*
%AMRoundRect*
0 Rectangle with rounded corners*
0 $1 Rounding radius*
0 $2 $3 $4 $5 $6 $7 $8 $9 X,Y pos of 4 corners*
0 Add a 4 corners polygon primitive as box body*
4,1,4,$2,$3,$4,$5,$6,$7,$8,$9,$2,$3,0*
0 Add four circle primitives for the rounded corners*
1,1,$1+$1,$2,$3*
1,1,$1+$1,$4,$5*
1,1,$1+$1,$6,$7*
1,1,$1+$1,$8,$9*
0 Add four rect primitives between the rounded corners*
20,1,$1+$1,$2,$3,$4,$5,0*
20,1,$1+$1,$4,$5,$6,$7,0*
20,1,$1+$1,$6,$7,$8,$9,0*
20,1,$1+$1,$8,$9,$2,$3,0*%
G04 Aperture macros list end*
%ADD10RoundRect,0.218750X0.256250X-0.218750X0.256250X0.218750X-0.256250X0.218750X-0.256250X-0.218750X0*%
%ADD11RoundRect,0.225000X0.225000X0.250000X-0.225000X0.250000X-0.225000X-0.250000X0.225000X-0.250000X0*%
%ADD12RoundRect,0.200000X0.275000X-0.200000X0.275000X0.200000X-0.275000X0.200000X-0.275000X-0.200000X0*%
%ADD13RoundRect,0.225000X0.250000X-0.225000X0.250000X0.225000X-0.250000X0.225000X-0.250000X-0.225000X0*%
%ADD14RoundRect,0.200000X-0.275000X0.200000X-0.275000X-0.200000X0.275000X-0.200000X0.275000X0.200000X0*%
%ADD15RoundRect,0.200000X-0.200000X-0.275000X0.200000X-0.275000X0.200000X0.275000X-0.200000X0.275000X0*%
%ADD16RoundRect,0.225000X-0.225000X-0.250000X0.225000X-0.250000X0.225000X0.250000X-0.225000X0.250000X0*%
%ADD17R,1.526000X0.435000*%
%ADD18R,1.493000X1.493000*%
%ADD19C,1.524000*%
G04 APERTURE END LIST*
D10*
%TO.C,L1*%
X18597011Y-22377500D03*
X18597011Y-20802500D03*
%TD*%
D11*
%TO.C,R4*%
X35267000Y-19355000D03*
X33717000Y-19355000D03*
%TD*%
D12*
%TO.C,R1*%
X16943170Y-19737692D03*
X16943170Y-18087692D03*
%TD*%
D13*
%TO.C,C5*%
X37032000Y-19495000D03*
X37032000Y-17945000D03*
%TD*%
%TO.C,C1*%
X18435670Y-19027692D03*
X18435670Y-17477692D03*
%TD*%
D14*
%TO.C,R3*%
X32029500Y-19565000D03*
X32029500Y-21215000D03*
%TD*%
D15*
%TO.C,R5*%
X33777000Y-17437500D03*
X35427000Y-17437500D03*
%TD*%
D13*
%TO.C,C2*%
X33622000Y-22670000D03*
X33622000Y-21120000D03*
%TD*%
D16*
%TO.C,C3*%
X28937000Y-21260000D03*
X30487000Y-21260000D03*
%TD*%
D17*
%TO.C,1*%
X20910000Y-17463000D03*
X20910000Y-18097000D03*
X20910000Y-18733000D03*
X20910000Y-19367000D03*
X20910000Y-20003000D03*
X20910000Y-20637000D03*
X20910000Y-21273000D03*
X20910000Y-21907000D03*
X26334000Y-21907000D03*
X26334000Y-21273000D03*
X26334000Y-20637000D03*
X26334000Y-20003000D03*
X26334000Y-19367000D03*
X26334000Y-18733000D03*
X26334000Y-18097000D03*
X26334000Y-17463000D03*
%TD*%
D16*
%TO.C,C6*%
X25387000Y-23495000D03*
X26937000Y-23495000D03*
%TD*%
D14*
%TO.C,R2*%
X35317000Y-21070000D03*
X35317000Y-22720000D03*
%TD*%
D18*
%TO.C,U1*%
X38862000Y-22820000D03*
D19*
X38862000Y-20280000D03*
X38862000Y-17740000D03*
%TD*%
D16*
%TO.C,C4*%
X28937000Y-19755000D03*
X30487000Y-19755000D03*
%TD*%
M02*
