M48
; DRILL file {KiCad 6.0.11+dfsg-1} date Thu 24 Apr 2025 02:51:16 PM EDT
; FORMAT={-:-/ absolute / inch / decimal}
; #@! TF.CreationDate,2025-04-24T14:51:16-04:00
; #@! TF.GenerationSoftware,Kicad,Pcbnew,6.0.11+dfsg-1
; #@! TF.FileFunction,Plated,1,2,PTH
FMAT,2
INCH
; #@! TA.AperFunction,Plated,PTH,ViaDrill
T1C0.0236
; #@! TA.AperFunction,Plated,PTH,ComponentDrill
T2C0.0300
; #@! TA.AperFunction,Plated,PTH,ComponentDrill
T3C0.0378
; #@! TA.AperFunction,Plated,PTH,ComponentDrill
T4C0.0523
%
G90
G05
T1
X0.7Y-1.7
X0.785Y-1.025
X0.845Y-0.965
X0.865Y-1.335
X0.91Y-1.175
X0.975Y-0.625
X0.985Y-0.705
X1.105Y-1.27
X1.165Y-1.435
X1.2Y-1.555
X1.235Y-1.64
X1.3Y-1.94
X1.335Y-1.555
X1.4238Y-1.2421
X1.655Y-0.645
X1.68Y-1.185
X1.705Y-1.605
X1.745Y-0.81
T2
X0.7384Y-1.86
X0.8384Y-1.86
T3
X0.7408Y-1.96
X0.765Y-1.5519
X0.765Y-1.6542
X0.7775Y-0.5858
X0.7775Y-0.6881
X0.8431Y-1.96
X0.9384Y-1.86
X1.05Y-1.4158
X1.05Y-1.5181
X1.675Y-1.415
X1.675Y-1.5174
X1.68Y-0.7176
X1.68Y-0.8129
X1.68Y-0.9153
X1.68Y-1.0176
X1.91Y-1.6369
X1.91Y-1.7392
X1.9172Y-0.5758
X1.9172Y-0.6781
T4
X1.9Y-0.9493
X1.9Y-1.2307
T0
M30
