%TF.GenerationSoftware,KiCad,Pcbnew,6.0.11+dfsg-1*%
%TF.CreationDate,2025-04-22T20:22:31-04:00*%
%TF.ProjectId,home_copter,686f6d65-5f63-46f7-9074-65722e6b6963,rev?*%
%TF.SameCoordinates,Original*%
%TF.FileFunction,Copper,L2,Bot*%
%TF.FilePolarity,Positive*%
%FSLAX46Y46*%
G04 Gerber Fmt 4.6, Leading zero omitted, Abs format (unit mm)*
G04 Created by KiCad (PCBNEW 6.0.11+dfsg-1) date 2025-04-22 20:22:31*
%MOMM*%
%LPD*%
G01*
G04 APERTURE LIST*
%TA.AperFunction,ComponentPad*%
%ADD10R,1.493000X1.493000*%
%TD*%
%TA.AperFunction,ComponentPad*%
%ADD11C,1.524000*%
%TD*%
%TA.AperFunction,ComponentPad*%
%ADD12C,1.493000*%
%TD*%
%TA.AperFunction,ComponentPad*%
%ADD13R,1.600000X1.600000*%
%TD*%
%TA.AperFunction,ComponentPad*%
%ADD14C,1.600000*%
%TD*%
%TA.AperFunction,ComponentPad*%
%ADD15C,1.993000*%
%TD*%
%TA.AperFunction,ViaPad*%
%ADD16C,1.100000*%
%TD*%
%TA.AperFunction,Conductor*%
%ADD17C,0.250000*%
%TD*%
G04 APERTURE END LIST*
D10*
%TO.P,U6,1*%
%TO.N,unconnected-(U6-Pad1)*%
X30567000Y-48895000D03*
D11*
%TO.P,U6,2*%
%TO.N,+BATT*%
X28027000Y-48895000D03*
%TO.P,U6,3*%
%TO.N,Net-(U6-Pad3)*%
X25487000Y-48895000D03*
%TD*%
D10*
%TO.P,U15,1*%
%TO.N,+BATT*%
X47371000Y-42271000D03*
D12*
%TO.P,U15,2*%
%TO.N,Net-(D7-Pad2)*%
X47371000Y-39671000D03*
%TD*%
D10*
%TO.P,U11,1*%
%TO.N,+BATT*%
X19431000Y-42017000D03*
D12*
%TO.P,U11,2*%
%TO.N,Net-(D5-Pad2)*%
X19431000Y-39417000D03*
%TD*%
D13*
%TO.P,C5,1*%
%TO.N,+BATT*%
X20701000Y-31115000D03*
D14*
%TO.P,C5,2*%
%TO.N,GND*%
X20701000Y-28615000D03*
%TD*%
D10*
%TO.P,U14,1*%
%TO.N,+BATT*%
X48095000Y-14625000D03*
D12*
%TO.P,U14,2*%
%TO.N,Net-(D6-Pad2)*%
X48095000Y-17225000D03*
%TD*%
D10*
%TO.P,U10,1*%
%TO.N,+BATT*%
X19748000Y-14879000D03*
D12*
%TO.P,U10,2*%
%TO.N,Net-(D4-Pad2)*%
X19748000Y-17479000D03*
%TD*%
D13*
%TO.P,C3,1*%
%TO.N,+3V3*%
X47371000Y-47625000D03*
D14*
%TO.P,C3,2*%
%TO.N,GND*%
X44871000Y-47625000D03*
%TD*%
D15*
%TO.P,U4,8,8*%
%TO.N,unconnected-(U4-Pad8)*%
X46990000Y-31388000D03*
%TO.P,U4,9,9*%
%TO.N,unconnected-(U4-Pad9)*%
X46990000Y-24238000D03*
%TD*%
D10*
%TO.P,U7,1*%
%TO.N,GND*%
X19919000Y-48895000D03*
D12*
%TO.P,U7,2*%
%TO.N,Net-(U6-Pad3)*%
X22519000Y-48895000D03*
%TD*%
D16*
%TO.N,GND*%
X33655000Y-48641000D03*
X29591000Y-36449000D03*
X33909000Y-39497000D03*
X21971000Y-33909000D03*
X43307000Y-34163000D03*
X21463000Y-24511000D03*
X26289000Y-35941000D03*
X24765000Y-15875000D03*
X19939000Y-26035000D03*
X19685000Y-45085000D03*
X42545000Y-16129000D03*
X39243000Y-38989000D03*
%TO.N,pwm_frontright*%
X40513000Y-30861000D03*
X41021000Y-21463000D03*
%TO.N,+3V3*%
X25019000Y-27813000D03*
X25019000Y-17907000D03*
%TD*%
D17*
%TO.N,pwm_frontright*%
X40513000Y-21971000D02*
X41021000Y-21463000D01*
X40513000Y-30861000D02*
X40513000Y-21971000D01*
%TO.N,+3V3*%
X25019000Y-27813000D02*
X25019000Y-17907000D01*
%TD*%
%TA.AperFunction,Conductor*%
%TO.N,GND*%
G36*
X26003208Y-12821322D02*
G01*
X26033648Y-12874045D01*
X26035000Y-12889500D01*
X26035000Y-18415000D01*
X27216000Y-18415000D01*
X27273208Y-18435822D01*
X27303648Y-18488545D01*
X27305000Y-18504000D01*
X27305000Y-19685000D01*
X41275000Y-19685000D01*
X41275000Y-17211714D01*
X47143511Y-17211714D01*
X47143875Y-17216049D01*
X47157298Y-17375899D01*
X47159051Y-17396779D01*
X47210241Y-17575301D01*
X47295132Y-17740480D01*
X47297838Y-17743894D01*
X47398747Y-17871209D01*
X47410489Y-17886024D01*
X47462351Y-17930162D01*
X47548605Y-18003571D01*
X47548608Y-18003573D01*
X47551919Y-18006391D01*
X47595623Y-18030816D01*
X47710237Y-18094872D01*
X47710242Y-18094874D01*
X47714035Y-18096994D01*
X47718166Y-18098336D01*
X47718170Y-18098338D01*
X47886522Y-18153039D01*
X47886524Y-18153039D01*
X47890662Y-18154384D01*
X48075072Y-18176373D01*
X48079401Y-18176040D01*
X48079405Y-18176040D01*
X48255906Y-18162459D01*
X48255911Y-18162458D01*
X48260240Y-18162125D01*
X48351615Y-18136613D01*
X48434922Y-18113354D01*
X48434925Y-18113353D01*
X48439115Y-18112183D01*
X48604883Y-18028447D01*
X48636723Y-18003571D01*
X48747798Y-17916791D01*
X48747802Y-17916787D01*
X48751230Y-17914109D01*
X48754944Y-17909806D01*
X48869738Y-17776816D01*
X48869740Y-17776813D01*
X48872580Y-17773523D01*
X48874726Y-17769745D01*
X48874729Y-17769741D01*
X48962165Y-17615825D01*
X48962167Y-17615821D01*
X48964313Y-17612043D01*
X48973186Y-17585372D01*
X49014430Y-17461389D01*
X49022935Y-17435822D01*
X49046211Y-17251570D01*
X49046582Y-17225000D01*
X49046291Y-17222027D01*
X49039453Y-17152290D01*
X49028459Y-17040170D01*
X48974781Y-16862380D01*
X48972737Y-16858536D01*
X48972735Y-16858531D01*
X48889636Y-16702246D01*
X48887593Y-16698403D01*
X48770215Y-16554483D01*
X48720866Y-16513658D01*
X48630466Y-16438872D01*
X48630461Y-16438869D01*
X48627118Y-16436103D01*
X48463753Y-16347772D01*
X48443434Y-16341482D01*
X48406682Y-16330106D01*
X48286342Y-16292854D01*
X48282013Y-16292399D01*
X48282008Y-16292398D01*
X48105977Y-16273896D01*
X48105972Y-16273896D01*
X48101643Y-16273441D01*
X47997590Y-16282911D01*
X47921028Y-16289878D01*
X47921025Y-16289879D01*
X47916691Y-16290273D01*
X47738531Y-16342709D01*
X47573949Y-16428750D01*
X47429213Y-16545121D01*
X47309837Y-16687388D01*
X47307738Y-16691206D01*
X47267811Y-16763833D01*
X47220367Y-16850132D01*
X47164212Y-17027155D01*
X47163727Y-17031482D01*
X47163726Y-17031485D01*
X47147998Y-17171706D01*
X47143511Y-17211714D01*
X41275000Y-17211714D01*
X41275000Y-15852953D01*
X49964707Y-15852953D01*
X49964881Y-15855972D01*
X49964881Y-15855979D01*
X49977831Y-16080560D01*
X49981194Y-16138878D01*
X49981779Y-16141858D01*
X49981779Y-16141861D01*
X49994619Y-16207306D01*
X50036332Y-16419920D01*
X50037312Y-16422783D01*
X50037313Y-16422786D01*
X50070061Y-16518433D01*
X50129102Y-16690878D01*
X50257787Y-16946740D01*
X50337448Y-17062648D01*
X50410796Y-17169369D01*
X50420006Y-17182770D01*
X50612756Y-17394600D01*
X50716678Y-17481492D01*
X50818947Y-17567002D01*
X50832472Y-17578311D01*
X51075088Y-17730503D01*
X51077845Y-17731748D01*
X51077849Y-17731750D01*
X51333351Y-17847114D01*
X51333358Y-17847117D01*
X51336114Y-17848361D01*
X51610719Y-17929703D01*
X51893824Y-17973024D01*
X51896851Y-17973072D01*
X51896856Y-17973072D01*
X52040088Y-17975322D01*
X52180189Y-17977523D01*
X52464514Y-17943115D01*
X52591481Y-17909806D01*
X52738605Y-17871209D01*
X52738609Y-17871208D01*
X52741539Y-17870439D01*
X52744337Y-17869280D01*
X52744343Y-17869278D01*
X52898154Y-17805567D01*
X53006138Y-17760839D01*
X53135069Y-17685498D01*
X53250794Y-17617874D01*
X53250798Y-17617871D01*
X53253415Y-17616342D01*
X53264160Y-17607917D01*
X53476401Y-17441499D01*
X53476405Y-17441496D01*
X53478793Y-17439623D01*
X53592836Y-17321940D01*
X53675992Y-17236130D01*
X53675996Y-17236125D01*
X53678102Y-17233952D01*
X53847655Y-17003134D01*
X53984313Y-16751441D01*
X53985385Y-16748605D01*
X54084479Y-16486360D01*
X54084480Y-16486355D01*
X54085548Y-16483530D01*
X54096410Y-16436103D01*
X54148812Y-16207306D01*
X54148812Y-16207303D01*
X54149487Y-16204358D01*
X54174946Y-15919092D01*
X54175408Y-15875000D01*
X54155928Y-15589263D01*
X54151408Y-15567436D01*
X54098464Y-15311778D01*
X54098463Y-15311775D01*
X54097850Y-15308814D01*
X54039788Y-15144850D01*
X54003261Y-15041702D01*
X54003260Y-15041699D01*
X54002248Y-15038842D01*
X53990447Y-15015977D01*
X53872280Y-14787032D01*
X53872276Y-14787025D01*
X53870891Y-14784342D01*
X53706209Y-14550024D01*
X53704149Y-14547807D01*
X53704144Y-14547801D01*
X53513315Y-14342445D01*
X53513314Y-14342444D01*
X53511251Y-14340224D01*
X53289623Y-14158823D01*
X53287050Y-14157246D01*
X53287044Y-14157242D01*
X53048009Y-14010762D01*
X53048006Y-14010761D01*
X53045427Y-14009180D01*
X52783182Y-13894062D01*
X52780277Y-13893234D01*
X52780270Y-13893232D01*
X52510649Y-13816429D01*
X52510650Y-13816429D01*
X52507739Y-13815600D01*
X52386796Y-13798387D01*
X52227200Y-13775673D01*
X52227192Y-13775672D01*
X52224196Y-13775246D01*
X52221167Y-13775230D01*
X52221165Y-13775230D01*
X52107333Y-13774634D01*
X51937800Y-13773747D01*
X51653851Y-13811129D01*
X51581296Y-13830978D01*
X51380518Y-13885904D01*
X51380514Y-13885905D01*
X51377602Y-13886702D01*
X51114165Y-13999068D01*
X50868415Y-14146146D01*
X50802019Y-14199339D01*
X50647267Y-14323318D01*
X50647261Y-14323323D01*
X50644900Y-14325215D01*
X50447755Y-14532962D01*
X50280629Y-14765543D01*
X50279211Y-14768221D01*
X50279208Y-14768226D01*
X50178743Y-14957971D01*
X50146614Y-15018653D01*
X50048190Y-15287610D01*
X50047547Y-15290561D01*
X50047546Y-15290563D01*
X50035665Y-15345056D01*
X49987178Y-15567436D01*
X49986941Y-15570449D01*
X49986940Y-15570455D01*
X49967668Y-15815335D01*
X49966829Y-15826000D01*
X49964707Y-15852953D01*
X41275000Y-15852953D01*
X41275000Y-15391248D01*
X47148000Y-15391248D01*
X47159633Y-15449731D01*
X47203948Y-15516052D01*
X47270269Y-15560367D01*
X47278869Y-15562078D01*
X47278870Y-15562078D01*
X47290916Y-15564474D01*
X47328752Y-15572000D01*
X48861248Y-15572000D01*
X48899084Y-15564474D01*
X48911130Y-15562078D01*
X48911131Y-15562078D01*
X48919731Y-15560367D01*
X48986052Y-15516052D01*
X49030367Y-15449731D01*
X49042000Y-15391248D01*
X49042000Y-13858752D01*
X49038669Y-13842007D01*
X49032078Y-13808870D01*
X49032078Y-13808869D01*
X49030367Y-13800269D01*
X48986052Y-13733948D01*
X48919731Y-13689633D01*
X48911131Y-13687922D01*
X48911130Y-13687922D01*
X48865531Y-13678852D01*
X48865532Y-13678852D01*
X48861248Y-13678000D01*
X47328752Y-13678000D01*
X47324468Y-13678852D01*
X47324469Y-13678852D01*
X47278870Y-13687922D01*
X47278869Y-13687922D01*
X47270269Y-13689633D01*
X47203948Y-13733948D01*
X47159633Y-13800269D01*
X47157922Y-13808869D01*
X47157922Y-13808870D01*
X47151331Y-13842007D01*
X47148000Y-13858752D01*
X47148000Y-15391248D01*
X41275000Y-15391248D01*
X41275000Y-12889500D01*
X41295822Y-12832292D01*
X41348545Y-12801852D01*
X41364000Y-12800500D01*
X54267000Y-12800500D01*
X54324208Y-12821322D01*
X54354648Y-12874045D01*
X54356000Y-12889500D01*
X54356000Y-18860500D01*
X54335178Y-18917708D01*
X54282455Y-18948148D01*
X54267000Y-18949500D01*
X50132346Y-18949500D01*
X50120942Y-18957785D01*
X50118429Y-18958602D01*
X50116292Y-18960155D01*
X50102888Y-18964510D01*
X50094604Y-18975911D01*
X50092465Y-18977465D01*
X50090911Y-18979604D01*
X50079510Y-18987888D01*
X50075155Y-19001292D01*
X50073602Y-19003429D01*
X50072785Y-19005942D01*
X50064500Y-19017346D01*
X50064500Y-45117654D01*
X50072785Y-45129058D01*
X50073602Y-45131571D01*
X50075155Y-45133708D01*
X50079510Y-45147112D01*
X50090911Y-45155396D01*
X50092465Y-45157535D01*
X50094604Y-45159089D01*
X50102888Y-45170490D01*
X50116292Y-45174845D01*
X50118429Y-45176398D01*
X50120942Y-45177215D01*
X50132346Y-45185500D01*
X54267000Y-45185500D01*
X54324208Y-45206322D01*
X54354648Y-45259045D01*
X54356000Y-45274500D01*
X54356000Y-50965000D01*
X54335178Y-51022208D01*
X54282455Y-51052648D01*
X54267000Y-51054000D01*
X13043000Y-51054000D01*
X12985792Y-51033178D01*
X12955352Y-50980455D01*
X12954000Y-50965000D01*
X12954000Y-48237953D01*
X13134707Y-48237953D01*
X13134881Y-48240972D01*
X13134881Y-48240979D01*
X13146379Y-48440381D01*
X13151194Y-48523878D01*
X13151779Y-48526858D01*
X13151779Y-48526861D01*
X13164619Y-48592306D01*
X13206332Y-48804920D01*
X13207312Y-48807783D01*
X13207313Y-48807786D01*
X13234034Y-48885830D01*
X13299102Y-49075878D01*
X13427787Y-49331740D01*
X13590006Y-49567770D01*
X13617572Y-49598065D01*
X13769355Y-49764872D01*
X13782756Y-49779600D01*
X14002472Y-49963311D01*
X14245088Y-50115503D01*
X14247845Y-50116748D01*
X14247849Y-50116750D01*
X14503351Y-50232114D01*
X14503358Y-50232117D01*
X14506114Y-50233361D01*
X14780719Y-50314703D01*
X15063824Y-50358024D01*
X15066851Y-50358072D01*
X15066856Y-50358072D01*
X15210088Y-50360322D01*
X15350189Y-50362523D01*
X15634514Y-50328115D01*
X15717375Y-50306377D01*
X15908605Y-50256209D01*
X15908609Y-50256208D01*
X15911539Y-50255439D01*
X15914337Y-50254280D01*
X15914343Y-50254278D01*
X16068154Y-50190567D01*
X16176138Y-50145839D01*
X16271351Y-50090201D01*
X16420794Y-50002874D01*
X16420798Y-50002871D01*
X16423415Y-50001342D01*
X16601195Y-49861945D01*
X16646401Y-49826499D01*
X16646405Y-49826496D01*
X16648793Y-49824623D01*
X16750440Y-49719731D01*
X16811395Y-49656831D01*
X18972500Y-49656831D01*
X18973352Y-49665481D01*
X18982395Y-49710942D01*
X18988972Y-49726821D01*
X19023437Y-49778402D01*
X19035598Y-49790563D01*
X19087179Y-49825028D01*
X19103058Y-49831605D01*
X19148519Y-49840648D01*
X19157169Y-49841500D01*
X19649306Y-49841500D01*
X19661329Y-49837124D01*
X19665000Y-49830766D01*
X19665000Y-49825806D01*
X20173000Y-49825806D01*
X20177376Y-49837829D01*
X20183734Y-49841500D01*
X20680831Y-49841500D01*
X20689481Y-49840648D01*
X20734942Y-49831605D01*
X20750821Y-49825028D01*
X20802402Y-49790563D01*
X20814563Y-49778402D01*
X20849028Y-49726821D01*
X20855605Y-49710942D01*
X20864648Y-49665481D01*
X20865500Y-49656831D01*
X20865500Y-49164694D01*
X20861124Y-49152671D01*
X20854766Y-49149000D01*
X20188694Y-49149000D01*
X20176671Y-49153376D01*
X20173000Y-49159734D01*
X20173000Y-49825806D01*
X19665000Y-49825806D01*
X19665000Y-49164694D01*
X19660624Y-49152671D01*
X19654266Y-49149000D01*
X18988194Y-49149000D01*
X18976171Y-49153376D01*
X18972500Y-49159734D01*
X18972500Y-49656831D01*
X16811395Y-49656831D01*
X16845992Y-49621130D01*
X16845996Y-49621125D01*
X16848102Y-49618952D01*
X17017655Y-49388134D01*
X17154313Y-49136441D01*
X17163017Y-49113407D01*
X17250567Y-48881714D01*
X21567511Y-48881714D01*
X21567875Y-48886049D01*
X21570686Y-48919519D01*
X21583051Y-49066779D01*
X21634241Y-49245301D01*
X21719132Y-49410480D01*
X21721838Y-49413894D01*
X21755048Y-49455794D01*
X21834489Y-49556024D01*
X21864877Y-49581886D01*
X21972605Y-49673571D01*
X21972608Y-49673573D01*
X21975919Y-49676391D01*
X22029550Y-49706364D01*
X22134237Y-49764872D01*
X22134242Y-49764874D01*
X22138035Y-49766994D01*
X22142166Y-49768336D01*
X22142170Y-49768338D01*
X22310522Y-49823039D01*
X22310524Y-49823039D01*
X22314662Y-49824384D01*
X22499072Y-49846373D01*
X22503401Y-49846040D01*
X22503405Y-49846040D01*
X22679906Y-49832459D01*
X22679911Y-49832458D01*
X22684240Y-49832125D01*
X22766955Y-49809031D01*
X22858922Y-49783354D01*
X22858925Y-49783353D01*
X22863115Y-49782183D01*
X23028883Y-49698447D01*
X23076496Y-49661248D01*
X23171798Y-49586791D01*
X23171802Y-49586787D01*
X23175230Y-49584109D01*
X23187699Y-49569664D01*
X23293738Y-49446816D01*
X23293740Y-49446813D01*
X23296580Y-49443523D01*
X23298726Y-49439745D01*
X23298729Y-49439741D01*
X23386165Y-49285825D01*
X23386167Y-49285821D01*
X23388313Y-49282043D01*
X23397340Y-49254909D01*
X23445560Y-49109955D01*
X23446935Y-49105822D01*
X23470211Y-48921570D01*
X23470582Y-48895000D01*
X23469258Y-48881496D01*
X24519937Y-48881496D01*
X24535732Y-49069590D01*
X24587760Y-49251034D01*
X24674040Y-49418917D01*
X24676746Y-49422331D01*
X24780006Y-49552613D01*
X24791285Y-49566844D01*
X24827970Y-49598065D01*
X24922499Y-49678515D01*
X24935030Y-49689180D01*
X24938822Y-49691299D01*
X24938823Y-49691300D01*
X25096002Y-49779145D01*
X25096007Y-49779147D01*
X25099800Y-49781267D01*
X25103937Y-49782611D01*
X25103939Y-49782612D01*
X25275171Y-49838248D01*
X25279317Y-49839595D01*
X25283644Y-49840111D01*
X25295292Y-49841500D01*
X25466745Y-49861945D01*
X25471074Y-49861612D01*
X25471078Y-49861612D01*
X25650609Y-49847798D01*
X25650613Y-49847797D01*
X25654945Y-49847464D01*
X25659133Y-49846295D01*
X25659137Y-49846294D01*
X25774529Y-49814075D01*
X25836748Y-49796703D01*
X25840631Y-49794741D01*
X25840635Y-49794740D01*
X25989128Y-49719731D01*
X26005229Y-49711598D01*
X26153970Y-49595388D01*
X26277307Y-49452501D01*
X26370542Y-49288378D01*
X26371915Y-49284252D01*
X26428748Y-49113407D01*
X26428749Y-49113402D01*
X26430123Y-49109272D01*
X26453780Y-48922005D01*
X26454157Y-48895000D01*
X26452833Y-48881496D01*
X27059937Y-48881496D01*
X27075732Y-49069590D01*
X27127760Y-49251034D01*
X27214040Y-49418917D01*
X27216746Y-49422331D01*
X27320006Y-49552613D01*
X27331285Y-49566844D01*
X27367970Y-49598065D01*
X27462499Y-49678515D01*
X27475030Y-49689180D01*
X27478822Y-49691299D01*
X27478823Y-49691300D01*
X27636002Y-49779145D01*
X27636007Y-49779147D01*
X27639800Y-49781267D01*
X27643937Y-49782611D01*
X27643939Y-49782612D01*
X27815171Y-49838248D01*
X27819317Y-49839595D01*
X27823644Y-49840111D01*
X27835292Y-49841500D01*
X28006745Y-49861945D01*
X28011074Y-49861612D01*
X28011078Y-49861612D01*
X28190609Y-49847798D01*
X28190613Y-49847797D01*
X28194945Y-49847464D01*
X28199133Y-49846295D01*
X28199137Y-49846294D01*
X28314529Y-49814075D01*
X28376748Y-49796703D01*
X28380631Y-49794741D01*
X28380635Y-49794740D01*
X28529128Y-49719731D01*
X28545229Y-49711598D01*
X28609674Y-49661248D01*
X29620000Y-49661248D01*
X29631633Y-49719731D01*
X29675948Y-49786052D01*
X29683241Y-49790925D01*
X29733673Y-49824623D01*
X29742269Y-49830367D01*
X29750869Y-49832078D01*
X29750870Y-49832078D01*
X29776239Y-49837124D01*
X29800752Y-49842000D01*
X31333248Y-49842000D01*
X31357761Y-49837124D01*
X31383130Y-49832078D01*
X31383131Y-49832078D01*
X31391731Y-49830367D01*
X31400328Y-49824623D01*
X31450759Y-49790925D01*
X31458052Y-49786052D01*
X31502367Y-49719731D01*
X31514000Y-49661248D01*
X31514000Y-48489182D01*
X44372215Y-48489182D01*
X44372787Y-48491316D01*
X44375308Y-48493594D01*
X44464916Y-48543675D01*
X44472853Y-48547142D01*
X44651080Y-48605051D01*
X44659553Y-48606914D01*
X44845640Y-48629104D01*
X44854289Y-48629286D01*
X45041152Y-48614907D01*
X45049680Y-48613403D01*
X45230179Y-48563006D01*
X45238261Y-48559872D01*
X45362713Y-48497007D01*
X45371472Y-48487680D01*
X45371538Y-48486491D01*
X45368940Y-48482150D01*
X45331538Y-48444748D01*
X46370500Y-48444748D01*
X46382133Y-48503231D01*
X46426448Y-48569552D01*
X46492769Y-48613867D01*
X46501369Y-48615578D01*
X46501370Y-48615578D01*
X46534507Y-48622169D01*
X46551252Y-48625500D01*
X48190748Y-48625500D01*
X48207493Y-48622169D01*
X48240630Y-48615578D01*
X48240631Y-48615578D01*
X48249231Y-48613867D01*
X48315552Y-48569552D01*
X48359867Y-48503231D01*
X48371500Y-48444748D01*
X48371500Y-48237953D01*
X49964707Y-48237953D01*
X49964881Y-48240972D01*
X49964881Y-48240979D01*
X49976379Y-48440381D01*
X49981194Y-48523878D01*
X49981779Y-48526858D01*
X49981779Y-48526861D01*
X49994619Y-48592306D01*
X50036332Y-48804920D01*
X50037312Y-48807783D01*
X50037313Y-48807786D01*
X50064034Y-48885830D01*
X50129102Y-49075878D01*
X50257787Y-49331740D01*
X50420006Y-49567770D01*
X50447572Y-49598065D01*
X50599355Y-49764872D01*
X50612756Y-49779600D01*
X50832472Y-49963311D01*
X51075088Y-50115503D01*
X51077845Y-50116748D01*
X51077849Y-50116750D01*
X51333351Y-50232114D01*
X51333358Y-50232117D01*
X51336114Y-50233361D01*
X51610719Y-50314703D01*
X51893824Y-50358024D01*
X51896851Y-50358072D01*
X51896856Y-50358072D01*
X52040088Y-50360322D01*
X52180189Y-50362523D01*
X52464514Y-50328115D01*
X52547375Y-50306377D01*
X52738605Y-50256209D01*
X52738609Y-50256208D01*
X52741539Y-50255439D01*
X52744337Y-50254280D01*
X52744343Y-50254278D01*
X52898154Y-50190567D01*
X53006138Y-50145839D01*
X53101351Y-50090201D01*
X53250794Y-50002874D01*
X53250798Y-50002871D01*
X53253415Y-50001342D01*
X53431195Y-49861945D01*
X53476401Y-49826499D01*
X53476405Y-49826496D01*
X53478793Y-49824623D01*
X53580440Y-49719731D01*
X53675992Y-49621130D01*
X53675996Y-49621125D01*
X53678102Y-49618952D01*
X53847655Y-49388134D01*
X53984313Y-49136441D01*
X53993017Y-49113407D01*
X54084479Y-48871360D01*
X54084480Y-48871355D01*
X54085548Y-48868530D01*
X54123466Y-48702973D01*
X54148812Y-48592306D01*
X54148812Y-48592303D01*
X54149487Y-48589358D01*
X54151839Y-48563006D01*
X54174792Y-48305823D01*
X54174793Y-48305811D01*
X54174946Y-48304092D01*
X54175408Y-48260000D01*
X54155928Y-47974263D01*
X54151353Y-47952171D01*
X54098464Y-47696778D01*
X54098463Y-47696775D01*
X54097850Y-47693814D01*
X54039788Y-47529850D01*
X54003261Y-47426702D01*
X54003260Y-47426699D01*
X54002248Y-47423842D01*
X53917735Y-47260100D01*
X53872280Y-47172032D01*
X53872276Y-47172025D01*
X53870891Y-47169342D01*
X53706209Y-46935024D01*
X53704149Y-46932807D01*
X53704144Y-46932801D01*
X53513315Y-46727445D01*
X53513314Y-46727444D01*
X53511251Y-46725224D01*
X53481343Y-46700744D01*
X53291961Y-46545737D01*
X53289623Y-46543823D01*
X53287050Y-46542246D01*
X53287044Y-46542242D01*
X53048009Y-46395762D01*
X53048006Y-46395761D01*
X53045427Y-46394180D01*
X52783182Y-46279062D01*
X52780277Y-46278234D01*
X52780270Y-46278232D01*
X52510649Y-46201429D01*
X52510650Y-46201429D01*
X52507739Y-46200600D01*
X52386796Y-46183387D01*
X52227200Y-46160673D01*
X52227192Y-46160672D01*
X52224196Y-46160246D01*
X52221167Y-46160230D01*
X52221165Y-46160230D01*
X52107333Y-46159634D01*
X51937800Y-46158747D01*
X51653851Y-46196129D01*
X51581296Y-46215978D01*
X51380518Y-46270904D01*
X51380514Y-46270905D01*
X51377602Y-46271702D01*
X51114165Y-46384068D01*
X50868415Y-46531146D01*
X50802019Y-46584339D01*
X50647267Y-46708318D01*
X50647261Y-46708323D01*
X50644900Y-46710215D01*
X50447755Y-46917962D01*
X50445984Y-46920427D01*
X50297176Y-47127516D01*
X50280629Y-47150543D01*
X50279211Y-47153221D01*
X50279208Y-47153226D01*
X50229950Y-47246259D01*
X50146614Y-47403653D01*
X50145573Y-47406498D01*
X50065795Y-47624503D01*
X50048190Y-47672610D01*
X50047547Y-47675561D01*
X50047546Y-47675563D01*
X50035665Y-47730056D01*
X49987178Y-47952436D01*
X49986941Y-47955449D01*
X49986940Y-47955455D01*
X49976474Y-48088447D01*
X49967668Y-48200335D01*
X49964707Y-48237953D01*
X48371500Y-48237953D01*
X48371500Y-46805252D01*
X48359867Y-46746769D01*
X48315552Y-46680448D01*
X48249231Y-46636133D01*
X48240631Y-46634422D01*
X48240630Y-46634422D01*
X48195031Y-46625352D01*
X48195032Y-46625352D01*
X48190748Y-46624500D01*
X46551252Y-46624500D01*
X46546968Y-46625352D01*
X46546969Y-46625352D01*
X46501370Y-46634422D01*
X46501369Y-46634422D01*
X46492769Y-46636133D01*
X46426448Y-46680448D01*
X46382133Y-46746769D01*
X46370500Y-46805252D01*
X46370500Y-48444748D01*
X45331538Y-48444748D01*
X44882096Y-47995306D01*
X44870503Y-47989900D01*
X44863409Y-47991801D01*
X44377621Y-48477589D01*
X44372215Y-48489182D01*
X31514000Y-48489182D01*
X31514000Y-48128752D01*
X31507477Y-48095960D01*
X31504078Y-48078870D01*
X31504078Y-48078869D01*
X31502367Y-48070269D01*
X31458052Y-48003948D01*
X31391731Y-47959633D01*
X31383131Y-47957922D01*
X31383130Y-47957922D01*
X31337531Y-47948852D01*
X31337532Y-47948852D01*
X31333248Y-47948000D01*
X29800752Y-47948000D01*
X29796468Y-47948852D01*
X29796469Y-47948852D01*
X29750870Y-47957922D01*
X29750869Y-47957922D01*
X29742269Y-47959633D01*
X29675948Y-48003948D01*
X29631633Y-48070269D01*
X29629922Y-48078869D01*
X29629922Y-48078870D01*
X29626523Y-48095960D01*
X29620000Y-48128752D01*
X29620000Y-49661248D01*
X28609674Y-49661248D01*
X28693970Y-49595388D01*
X28817307Y-49452501D01*
X28910542Y-49288378D01*
X28911915Y-49284252D01*
X28968748Y-49113407D01*
X28968749Y-49113402D01*
X28970123Y-49109272D01*
X28993780Y-48922005D01*
X28994157Y-48895000D01*
X28975738Y-48707145D01*
X28921181Y-48526445D01*
X28919137Y-48522600D01*
X28919135Y-48522596D01*
X28842928Y-48379271D01*
X28832566Y-48359783D01*
X28826550Y-48352406D01*
X28730744Y-48234938D01*
X28713266Y-48213508D01*
X28663597Y-48172418D01*
X28571175Y-48095960D01*
X28571170Y-48095957D01*
X28567827Y-48093191D01*
X28401788Y-48003414D01*
X28391674Y-48000283D01*
X28358132Y-47989900D01*
X28221474Y-47947597D01*
X28127613Y-47937732D01*
X28038086Y-47928322D01*
X28038081Y-47928322D01*
X28033752Y-47927867D01*
X27928352Y-47937459D01*
X27850110Y-47944579D01*
X27850107Y-47944580D01*
X27845773Y-47944974D01*
X27664697Y-47998268D01*
X27497420Y-48085718D01*
X27350316Y-48203993D01*
X27228986Y-48348588D01*
X27226887Y-48352406D01*
X27148699Y-48494630D01*
X27138052Y-48513996D01*
X27136737Y-48518142D01*
X27136736Y-48518144D01*
X27082292Y-48689773D01*
X27082291Y-48689778D01*
X27080978Y-48693917D01*
X27080493Y-48698237D01*
X27080493Y-48698239D01*
X27068205Y-48807786D01*
X27059937Y-48881496D01*
X26452833Y-48881496D01*
X26435738Y-48707145D01*
X26381181Y-48526445D01*
X26379137Y-48522600D01*
X26379135Y-48522596D01*
X26302928Y-48379271D01*
X26292566Y-48359783D01*
X26286550Y-48352406D01*
X26190744Y-48234938D01*
X26173266Y-48213508D01*
X26123597Y-48172418D01*
X26031175Y-48095960D01*
X26031170Y-48095957D01*
X26027827Y-48093191D01*
X25861788Y-48003414D01*
X25851674Y-48000283D01*
X25818132Y-47989900D01*
X25681474Y-47947597D01*
X25587613Y-47937732D01*
X25498086Y-47928322D01*
X25498081Y-47928322D01*
X25493752Y-47927867D01*
X25388352Y-47937459D01*
X25310110Y-47944579D01*
X25310107Y-47944580D01*
X25305773Y-47944974D01*
X25124697Y-47998268D01*
X24957420Y-48085718D01*
X24810316Y-48203993D01*
X24688986Y-48348588D01*
X24686887Y-48352406D01*
X24608699Y-48494630D01*
X24598052Y-48513996D01*
X24596737Y-48518142D01*
X24596736Y-48518144D01*
X24542292Y-48689773D01*
X24542291Y-48689778D01*
X24540978Y-48693917D01*
X24540493Y-48698237D01*
X24540493Y-48698239D01*
X24528205Y-48807786D01*
X24519937Y-48881496D01*
X23469258Y-48881496D01*
X23452459Y-48710170D01*
X23398781Y-48532380D01*
X23396737Y-48528536D01*
X23396735Y-48528531D01*
X23346436Y-48433933D01*
X23311593Y-48368403D01*
X23194215Y-48224483D01*
X23144866Y-48183658D01*
X23054466Y-48108872D01*
X23054461Y-48108869D01*
X23051118Y-48106103D01*
X22887753Y-48017772D01*
X22867434Y-48011482D01*
X22747198Y-47974263D01*
X22710342Y-47962854D01*
X22706013Y-47962399D01*
X22706008Y-47962398D01*
X22529977Y-47943896D01*
X22529972Y-47943896D01*
X22525643Y-47943441D01*
X22429717Y-47952171D01*
X22345028Y-47959878D01*
X22345025Y-47959879D01*
X22340691Y-47960273D01*
X22162531Y-48012709D01*
X21997949Y-48098750D01*
X21853213Y-48215121D01*
X21733837Y-48357388D01*
X21731738Y-48361206D01*
X21649838Y-48510181D01*
X21644367Y-48520132D01*
X21643052Y-48524278D01*
X21643051Y-48524280D01*
X21607190Y-48637329D01*
X21588212Y-48697155D01*
X21587727Y-48701482D01*
X21587726Y-48701485D01*
X21567996Y-48877389D01*
X21567511Y-48881714D01*
X17250567Y-48881714D01*
X17254479Y-48871360D01*
X17254480Y-48871355D01*
X17255548Y-48868530D01*
X17293466Y-48702973D01*
X17311254Y-48625306D01*
X18972500Y-48625306D01*
X18976876Y-48637329D01*
X18983234Y-48641000D01*
X19649306Y-48641000D01*
X19661329Y-48636624D01*
X19665000Y-48630266D01*
X19665000Y-48625306D01*
X20173000Y-48625306D01*
X20177376Y-48637329D01*
X20183734Y-48641000D01*
X20849806Y-48641000D01*
X20861829Y-48636624D01*
X20865500Y-48630266D01*
X20865500Y-48133169D01*
X20864648Y-48124519D01*
X20855605Y-48079058D01*
X20849028Y-48063179D01*
X20814563Y-48011598D01*
X20802402Y-47999437D01*
X20750821Y-47964972D01*
X20734942Y-47958395D01*
X20689481Y-47949352D01*
X20680831Y-47948500D01*
X20188694Y-47948500D01*
X20176671Y-47952876D01*
X20173000Y-47959234D01*
X20173000Y-48625306D01*
X19665000Y-48625306D01*
X19665000Y-47964194D01*
X19660624Y-47952171D01*
X19654266Y-47948500D01*
X19157169Y-47948500D01*
X19148519Y-47949352D01*
X19103058Y-47958395D01*
X19087179Y-47964972D01*
X19035598Y-47999437D01*
X19023437Y-48011598D01*
X18988972Y-48063179D01*
X18982395Y-48079058D01*
X18973352Y-48124519D01*
X18972500Y-48133169D01*
X18972500Y-48625306D01*
X17311254Y-48625306D01*
X17318812Y-48592306D01*
X17318812Y-48592303D01*
X17319487Y-48589358D01*
X17321839Y-48563006D01*
X17344792Y-48305823D01*
X17344793Y-48305811D01*
X17344946Y-48304092D01*
X17345408Y-48260000D01*
X17325928Y-47974263D01*
X17321353Y-47952171D01*
X17268464Y-47696778D01*
X17268463Y-47696775D01*
X17267850Y-47693814D01*
X17240048Y-47615304D01*
X43866623Y-47615304D01*
X43882304Y-47802051D01*
X43883871Y-47810583D01*
X43935523Y-47990716D01*
X43938716Y-47998781D01*
X43999196Y-48116464D01*
X44008582Y-48125155D01*
X44009943Y-48125222D01*
X44014039Y-48122751D01*
X44500694Y-47636096D01*
X44505636Y-47625497D01*
X45235900Y-47625497D01*
X45237801Y-47632591D01*
X45723510Y-48118300D01*
X45735103Y-48123706D01*
X45737400Y-48123090D01*
X45739498Y-48120785D01*
X45786818Y-48037486D01*
X45790339Y-48029579D01*
X45849492Y-47851756D01*
X45851414Y-47843297D01*
X45875136Y-47655522D01*
X45875482Y-47650571D01*
X45875804Y-47627492D01*
X45875596Y-47622521D01*
X45857127Y-47434163D01*
X45855442Y-47425653D01*
X45801280Y-47246259D01*
X45797974Y-47238237D01*
X45742510Y-47133926D01*
X45733002Y-47125364D01*
X45731302Y-47125305D01*
X45727694Y-47127516D01*
X45241306Y-47613904D01*
X45235900Y-47625497D01*
X44505636Y-47625497D01*
X44506100Y-47624503D01*
X44504199Y-47617409D01*
X44018295Y-47131505D01*
X44006702Y-47126099D01*
X44004732Y-47126627D01*
X44002275Y-47129365D01*
X43949515Y-47225337D01*
X43946101Y-47233300D01*
X43889433Y-47411938D01*
X43887634Y-47420404D01*
X43866744Y-47606645D01*
X43866623Y-47615304D01*
X17240048Y-47615304D01*
X17209788Y-47529850D01*
X17173261Y-47426702D01*
X17173260Y-47426699D01*
X17172248Y-47423842D01*
X17087735Y-47260100D01*
X17042280Y-47172032D01*
X17042276Y-47172025D01*
X17040891Y-47169342D01*
X16876209Y-46935024D01*
X16874149Y-46932807D01*
X16874144Y-46932801D01*
X16717599Y-46764339D01*
X44371060Y-46764339D01*
X44373402Y-46768192D01*
X44859904Y-47254694D01*
X44871497Y-47260100D01*
X44878591Y-47258199D01*
X45364647Y-46772143D01*
X45370053Y-46760550D01*
X45369568Y-46758742D01*
X45366618Y-46756113D01*
X45264215Y-46700744D01*
X45256237Y-46697390D01*
X45077211Y-46641973D01*
X45068717Y-46640229D01*
X44882348Y-46620640D01*
X44873679Y-46620580D01*
X44687049Y-46637564D01*
X44678534Y-46639189D01*
X44498755Y-46692102D01*
X44490725Y-46695346D01*
X44379751Y-46753362D01*
X44371124Y-46762810D01*
X44371060Y-46764339D01*
X16717599Y-46764339D01*
X16683315Y-46727445D01*
X16683314Y-46727444D01*
X16681251Y-46725224D01*
X16651343Y-46700744D01*
X16461961Y-46545737D01*
X16459623Y-46543823D01*
X16457050Y-46542246D01*
X16457044Y-46542242D01*
X16218009Y-46395762D01*
X16218006Y-46395761D01*
X16215427Y-46394180D01*
X15953182Y-46279062D01*
X15950277Y-46278234D01*
X15950270Y-46278232D01*
X15680649Y-46201429D01*
X15680650Y-46201429D01*
X15677739Y-46200600D01*
X15556796Y-46183387D01*
X15397200Y-46160673D01*
X15397192Y-46160672D01*
X15394196Y-46160246D01*
X15391167Y-46160230D01*
X15391165Y-46160230D01*
X15277333Y-46159634D01*
X15107800Y-46158747D01*
X14823851Y-46196129D01*
X14751296Y-46215978D01*
X14550518Y-46270904D01*
X14550514Y-46270905D01*
X14547602Y-46271702D01*
X14284165Y-46384068D01*
X14038415Y-46531146D01*
X13972019Y-46584339D01*
X13817267Y-46708318D01*
X13817261Y-46708323D01*
X13814900Y-46710215D01*
X13617755Y-46917962D01*
X13615984Y-46920427D01*
X13467176Y-47127516D01*
X13450629Y-47150543D01*
X13449211Y-47153221D01*
X13449208Y-47153226D01*
X13399950Y-47246259D01*
X13316614Y-47403653D01*
X13315573Y-47406498D01*
X13235795Y-47624503D01*
X13218190Y-47672610D01*
X13217547Y-47675561D01*
X13217546Y-47675563D01*
X13205665Y-47730056D01*
X13157178Y-47952436D01*
X13156941Y-47955449D01*
X13156940Y-47955455D01*
X13146474Y-48088447D01*
X13137668Y-48200335D01*
X13134707Y-48237953D01*
X12954000Y-48237953D01*
X12954000Y-45274500D01*
X12974822Y-45217292D01*
X13027545Y-45186852D01*
X13043000Y-45185500D01*
X17177654Y-45185500D01*
X17189058Y-45177215D01*
X17191571Y-45176398D01*
X17193708Y-45174845D01*
X17207112Y-45170490D01*
X17215396Y-45159089D01*
X17217535Y-45157535D01*
X17219089Y-45155396D01*
X17230490Y-45147112D01*
X17234845Y-45133708D01*
X17236398Y-45131571D01*
X17237215Y-45129058D01*
X17245500Y-45117654D01*
X17245500Y-43037248D01*
X46424000Y-43037248D01*
X46435633Y-43095731D01*
X46479948Y-43162052D01*
X46546269Y-43206367D01*
X46554869Y-43208078D01*
X46554870Y-43208078D01*
X46588007Y-43214669D01*
X46604752Y-43218000D01*
X48137248Y-43218000D01*
X48153993Y-43214669D01*
X48187130Y-43208078D01*
X48187131Y-43208078D01*
X48195731Y-43206367D01*
X48262052Y-43162052D01*
X48306367Y-43095731D01*
X48318000Y-43037248D01*
X48318000Y-41504752D01*
X48306367Y-41446269D01*
X48262052Y-41379948D01*
X48195731Y-41335633D01*
X48187131Y-41333922D01*
X48187130Y-41333922D01*
X48141531Y-41324852D01*
X48141532Y-41324852D01*
X48137248Y-41324000D01*
X46604752Y-41324000D01*
X46600468Y-41324852D01*
X46600469Y-41324852D01*
X46554870Y-41333922D01*
X46554869Y-41333922D01*
X46546269Y-41335633D01*
X46479948Y-41379948D01*
X46435633Y-41446269D01*
X46424000Y-41504752D01*
X46424000Y-43037248D01*
X17245500Y-43037248D01*
X17245500Y-42783248D01*
X18484000Y-42783248D01*
X18495633Y-42841731D01*
X18539948Y-42908052D01*
X18606269Y-42952367D01*
X18614869Y-42954078D01*
X18614870Y-42954078D01*
X18648007Y-42960669D01*
X18664752Y-42964000D01*
X20197248Y-42964000D01*
X20213993Y-42960669D01*
X20247130Y-42954078D01*
X20247131Y-42954078D01*
X20255731Y-42952367D01*
X20322052Y-42908052D01*
X20366367Y-42841731D01*
X20378000Y-42783248D01*
X20378000Y-41250752D01*
X20366367Y-41192269D01*
X20322052Y-41125948D01*
X20255731Y-41081633D01*
X20247131Y-41079922D01*
X20247130Y-41079922D01*
X20201531Y-41070852D01*
X20201532Y-41070852D01*
X20197248Y-41070000D01*
X18664752Y-41070000D01*
X18660468Y-41070852D01*
X18660469Y-41070852D01*
X18614870Y-41079922D01*
X18614869Y-41079922D01*
X18606269Y-41081633D01*
X18539948Y-41125948D01*
X18495633Y-41192269D01*
X18484000Y-41250752D01*
X18484000Y-42783248D01*
X17245500Y-42783248D01*
X17245500Y-39403714D01*
X18479511Y-39403714D01*
X18479875Y-39408049D01*
X18485706Y-39477485D01*
X18495051Y-39588779D01*
X18546241Y-39767301D01*
X18631132Y-39932480D01*
X18633838Y-39935894D01*
X18733650Y-40061825D01*
X18746489Y-40078024D01*
X18779489Y-40106109D01*
X18884605Y-40195571D01*
X18884608Y-40195573D01*
X18887919Y-40198391D01*
X18931623Y-40222816D01*
X19046237Y-40286872D01*
X19046242Y-40286874D01*
X19050035Y-40288994D01*
X19054166Y-40290336D01*
X19054170Y-40290338D01*
X19222522Y-40345039D01*
X19222524Y-40345039D01*
X19226662Y-40346384D01*
X19411072Y-40368373D01*
X19415401Y-40368040D01*
X19415405Y-40368040D01*
X19591906Y-40354459D01*
X19591911Y-40354458D01*
X19596240Y-40354125D01*
X19687615Y-40328613D01*
X19770922Y-40305354D01*
X19770925Y-40305353D01*
X19775115Y-40304183D01*
X19940883Y-40220447D01*
X19972723Y-40195571D01*
X20083798Y-40108791D01*
X20083802Y-40108787D01*
X20087230Y-40106109D01*
X20111472Y-40078024D01*
X20205738Y-39968816D01*
X20205740Y-39968813D01*
X20208580Y-39965523D01*
X20210726Y-39961745D01*
X20210729Y-39961741D01*
X20298165Y-39807825D01*
X20298167Y-39807821D01*
X20300313Y-39804043D01*
X20348991Y-39657714D01*
X46419511Y-39657714D01*
X46435051Y-39842779D01*
X46486241Y-40021301D01*
X46571132Y-40186480D01*
X46580573Y-40198391D01*
X46665351Y-40305354D01*
X46686489Y-40332024D01*
X46729199Y-40368373D01*
X46824605Y-40449571D01*
X46824608Y-40449573D01*
X46827919Y-40452391D01*
X46881550Y-40482364D01*
X46986237Y-40540872D01*
X46986242Y-40540874D01*
X46990035Y-40542994D01*
X46994166Y-40544336D01*
X46994170Y-40544338D01*
X47162522Y-40599039D01*
X47162524Y-40599039D01*
X47166662Y-40600384D01*
X47351072Y-40622373D01*
X47355401Y-40622040D01*
X47355405Y-40622040D01*
X47531906Y-40608459D01*
X47531911Y-40608458D01*
X47536240Y-40608125D01*
X47618955Y-40585031D01*
X47710922Y-40559354D01*
X47710925Y-40559353D01*
X47715115Y-40558183D01*
X47880883Y-40474447D01*
X47912723Y-40449571D01*
X48023798Y-40362791D01*
X48023802Y-40362787D01*
X48027230Y-40360109D01*
X48032395Y-40354125D01*
X48145738Y-40222816D01*
X48145740Y-40222813D01*
X48148580Y-40219523D01*
X48150726Y-40215745D01*
X48150729Y-40215741D01*
X48238165Y-40061825D01*
X48238167Y-40061821D01*
X48240313Y-40058043D01*
X48269996Y-39968816D01*
X48297560Y-39885955D01*
X48298935Y-39881822D01*
X48322211Y-39697570D01*
X48322582Y-39671000D01*
X48304459Y-39486170D01*
X48250781Y-39308380D01*
X48248737Y-39304536D01*
X48248735Y-39304531D01*
X48165636Y-39148246D01*
X48163593Y-39144403D01*
X48046215Y-39000483D01*
X47996866Y-38959658D01*
X47906466Y-38884872D01*
X47906461Y-38884869D01*
X47903118Y-38882103D01*
X47739753Y-38793772D01*
X47719434Y-38787482D01*
X47682682Y-38776106D01*
X47562342Y-38738854D01*
X47558013Y-38738399D01*
X47558008Y-38738398D01*
X47381977Y-38719896D01*
X47381972Y-38719896D01*
X47377643Y-38719441D01*
X47273590Y-38728911D01*
X47197028Y-38735878D01*
X47197025Y-38735879D01*
X47192691Y-38736273D01*
X47014531Y-38788709D01*
X46849949Y-38874750D01*
X46705213Y-38991121D01*
X46585837Y-39133388D01*
X46583738Y-39137206D01*
X46531531Y-39232170D01*
X46496367Y-39296132D01*
X46440212Y-39473155D01*
X46439727Y-39477482D01*
X46439726Y-39477485D01*
X46427730Y-39584437D01*
X46419511Y-39657714D01*
X20348991Y-39657714D01*
X20358935Y-39627822D01*
X20382211Y-39443570D01*
X20382582Y-39417000D01*
X20364459Y-39232170D01*
X20310781Y-39054380D01*
X20308737Y-39050536D01*
X20308735Y-39050531D01*
X20225636Y-38894246D01*
X20223593Y-38890403D01*
X20106215Y-38746483D01*
X20056866Y-38705658D01*
X19966466Y-38630872D01*
X19966461Y-38630869D01*
X19963118Y-38628103D01*
X19799753Y-38539772D01*
X19779434Y-38533482D01*
X19742682Y-38522106D01*
X19622342Y-38484854D01*
X19618013Y-38484399D01*
X19618008Y-38484398D01*
X19441977Y-38465896D01*
X19441972Y-38465896D01*
X19437643Y-38465441D01*
X19333590Y-38474911D01*
X19257028Y-38481878D01*
X19257025Y-38481879D01*
X19252691Y-38482273D01*
X19074531Y-38534709D01*
X18909949Y-38620750D01*
X18765213Y-38737121D01*
X18645837Y-38879388D01*
X18556367Y-39042132D01*
X18500212Y-39219155D01*
X18499727Y-39223482D01*
X18499726Y-39223485D01*
X18490636Y-39304531D01*
X18479511Y-39403714D01*
X17245500Y-39403714D01*
X17245500Y-31934748D01*
X19700500Y-31934748D01*
X19712133Y-31993231D01*
X19756448Y-32059552D01*
X19822769Y-32103867D01*
X19831369Y-32105578D01*
X19831370Y-32105578D01*
X19864507Y-32112169D01*
X19881252Y-32115500D01*
X21520748Y-32115500D01*
X21537493Y-32112169D01*
X21570630Y-32105578D01*
X21570631Y-32105578D01*
X21579231Y-32103867D01*
X21645552Y-32059552D01*
X21689867Y-31993231D01*
X21701500Y-31934748D01*
X21701500Y-30850455D01*
X39757825Y-30850455D01*
X39758310Y-30855402D01*
X39758310Y-30855406D01*
X39761198Y-30884856D01*
X39774255Y-31018025D01*
X39786047Y-31053472D01*
X39825806Y-31172992D01*
X39827402Y-31177791D01*
X39914624Y-31321812D01*
X39918085Y-31325396D01*
X40028131Y-31439352D01*
X40028135Y-31439355D01*
X40031586Y-31442929D01*
X40035745Y-31445651D01*
X40035748Y-31445653D01*
X40065509Y-31465128D01*
X40172475Y-31535125D01*
X40330289Y-31593815D01*
X40335217Y-31594473D01*
X40335219Y-31594473D01*
X40394792Y-31602421D01*
X40497183Y-31616083D01*
X40502129Y-31615633D01*
X40502133Y-31615633D01*
X40659910Y-31601274D01*
X40659911Y-31601274D01*
X40664864Y-31600823D01*
X40741096Y-31576054D01*
X40820259Y-31550333D01*
X40820263Y-31550331D01*
X40824997Y-31548793D01*
X40829274Y-31546243D01*
X40829277Y-31546242D01*
X40965345Y-31465128D01*
X40969623Y-31462578D01*
X41080983Y-31356532D01*
X45788284Y-31356532D01*
X45788551Y-31360608D01*
X45788551Y-31360613D01*
X45799811Y-31532401D01*
X45802672Y-31576054D01*
X45856824Y-31789279D01*
X45858532Y-31792984D01*
X45923887Y-31934748D01*
X45948927Y-31989064D01*
X46075895Y-32168720D01*
X46233476Y-32322229D01*
X46236859Y-32324490D01*
X46236861Y-32324491D01*
X46413002Y-32442185D01*
X46413006Y-32442187D01*
X46416394Y-32444451D01*
X46618522Y-32531292D01*
X46833091Y-32579844D01*
X46837172Y-32580004D01*
X46837177Y-32580005D01*
X47048836Y-32588321D01*
X47048839Y-32588321D01*
X47052915Y-32588481D01*
X47056948Y-32587896D01*
X47056952Y-32587896D01*
X47189179Y-32568723D01*
X47270631Y-32556913D01*
X47478950Y-32486199D01*
X47518045Y-32464305D01*
X47667340Y-32380695D01*
X47667342Y-32380694D01*
X47670893Y-32378705D01*
X47840033Y-32238033D01*
X47980705Y-32068893D01*
X48088199Y-31876950D01*
X48158913Y-31668631D01*
X48190481Y-31450915D01*
X48192128Y-31388000D01*
X48171998Y-31168930D01*
X48139436Y-31053472D01*
X48113391Y-30961123D01*
X48113389Y-30961118D01*
X48112283Y-30957196D01*
X48014983Y-30759890D01*
X47883355Y-30583619D01*
X47721809Y-30434288D01*
X47535755Y-30316896D01*
X47531974Y-30315388D01*
X47531969Y-30315385D01*
X47401272Y-30263243D01*
X47331423Y-30235376D01*
X47115657Y-30192457D01*
X46895682Y-30189578D01*
X46678866Y-30226834D01*
X46675038Y-30228246D01*
X46675035Y-30228247D01*
X46481573Y-30299619D01*
X46472471Y-30302977D01*
X46283407Y-30415458D01*
X46213841Y-30476466D01*
X46152290Y-30530445D01*
X46118007Y-30560510D01*
X45981811Y-30733274D01*
X45979911Y-30736886D01*
X45979910Y-30736887D01*
X45916079Y-30858211D01*
X45879379Y-30927966D01*
X45878170Y-30931860D01*
X45849950Y-31022743D01*
X45814141Y-31138064D01*
X45813661Y-31142120D01*
X45789966Y-31342322D01*
X45788284Y-31356532D01*
X41080983Y-31356532D01*
X41091554Y-31346465D01*
X41105553Y-31325396D01*
X41181978Y-31210367D01*
X41181979Y-31210365D01*
X41184731Y-31206223D01*
X41200389Y-31165004D01*
X41242755Y-31053472D01*
X41244521Y-31048823D01*
X41267955Y-30882088D01*
X41268249Y-30861000D01*
X41249481Y-30693676D01*
X41194108Y-30534668D01*
X41166108Y-30489858D01*
X41107522Y-30396100D01*
X41107520Y-30396097D01*
X41104884Y-30391879D01*
X41046240Y-30332825D01*
X40989752Y-30275940D01*
X40989749Y-30275938D01*
X40986242Y-30272406D01*
X40879812Y-30204864D01*
X40842666Y-30156630D01*
X40838500Y-30129719D01*
X40838500Y-24206532D01*
X45788284Y-24206532D01*
X45802672Y-24426054D01*
X45856824Y-24639279D01*
X45948927Y-24839064D01*
X46075895Y-25018720D01*
X46233476Y-25172229D01*
X46236859Y-25174490D01*
X46236861Y-25174491D01*
X46413002Y-25292185D01*
X46413006Y-25292187D01*
X46416394Y-25294451D01*
X46618522Y-25381292D01*
X46833091Y-25429844D01*
X46837172Y-25430004D01*
X46837177Y-25430005D01*
X47048836Y-25438321D01*
X47048839Y-25438321D01*
X47052915Y-25438481D01*
X47056948Y-25437896D01*
X47056952Y-25437896D01*
X47189179Y-25418723D01*
X47270631Y-25406913D01*
X47478950Y-25336199D01*
X47518045Y-25314305D01*
X47667340Y-25230695D01*
X47667342Y-25230694D01*
X47670893Y-25228705D01*
X47840033Y-25088033D01*
X47980705Y-24918893D01*
X48088199Y-24726950D01*
X48158913Y-24518631D01*
X48190481Y-24300915D01*
X48192128Y-24238000D01*
X48171998Y-24018930D01*
X48112283Y-23807196D01*
X48014983Y-23609890D01*
X47883355Y-23433619D01*
X47721809Y-23284288D01*
X47535755Y-23166896D01*
X47531974Y-23165388D01*
X47531969Y-23165385D01*
X47434061Y-23126324D01*
X47331423Y-23085376D01*
X47115657Y-23042457D01*
X46895682Y-23039578D01*
X46678866Y-23076834D01*
X46675038Y-23078246D01*
X46675035Y-23078247D01*
X46476298Y-23151565D01*
X46472471Y-23152977D01*
X46283407Y-23265458D01*
X46118007Y-23410510D01*
X45981811Y-23583274D01*
X45979911Y-23586886D01*
X45979910Y-23586887D01*
X45965883Y-23613549D01*
X45879379Y-23777966D01*
X45814141Y-23988064D01*
X45788284Y-24206532D01*
X40838500Y-24206532D01*
X40838500Y-22297507D01*
X40859322Y-22240299D01*
X40912045Y-22209859D01*
X40939270Y-22209289D01*
X40984083Y-22215268D01*
X41005183Y-22218083D01*
X41010129Y-22217633D01*
X41010133Y-22217633D01*
X41167910Y-22203274D01*
X41167911Y-22203274D01*
X41172864Y-22202823D01*
X41212938Y-22189802D01*
X41328259Y-22152333D01*
X41328263Y-22152331D01*
X41332997Y-22150793D01*
X41337274Y-22148243D01*
X41337277Y-22148242D01*
X41473345Y-22067128D01*
X41477623Y-22064578D01*
X41599554Y-21948465D01*
X41603722Y-21942193D01*
X41689978Y-21812367D01*
X41689979Y-21812365D01*
X41692731Y-21808223D01*
X41696185Y-21799132D01*
X41750755Y-21655472D01*
X41752521Y-21650823D01*
X41775955Y-21484088D01*
X41776249Y-21463000D01*
X41757481Y-21295676D01*
X41702108Y-21136668D01*
X41612884Y-20993879D01*
X41554240Y-20934825D01*
X41497752Y-20877940D01*
X41497749Y-20877938D01*
X41494242Y-20874406D01*
X41352079Y-20784187D01*
X41295794Y-20764145D01*
X41198148Y-20729374D01*
X41198143Y-20729373D01*
X41193462Y-20727706D01*
X41188525Y-20727117D01*
X41188524Y-20727117D01*
X41031216Y-20708358D01*
X41031212Y-20708358D01*
X41026273Y-20707769D01*
X40915934Y-20719366D01*
X40863776Y-20724848D01*
X40863774Y-20724848D01*
X40858821Y-20725369D01*
X40854112Y-20726972D01*
X40854108Y-20726973D01*
X40727295Y-20770144D01*
X40699431Y-20779630D01*
X40695198Y-20782234D01*
X40695194Y-20782236D01*
X40560262Y-20865247D01*
X40560259Y-20865249D01*
X40556022Y-20867856D01*
X40545725Y-20877940D01*
X40439282Y-20982176D01*
X40439279Y-20982180D01*
X40435724Y-20985661D01*
X40344515Y-21127190D01*
X40286927Y-21285409D01*
X40265825Y-21452455D01*
X40266310Y-21457402D01*
X40266310Y-21457406D01*
X40269198Y-21486856D01*
X40282255Y-21620025D01*
X40283824Y-21624740D01*
X40283825Y-21624747D01*
X40294288Y-21656200D01*
X40292588Y-21717056D01*
X40270652Y-21747471D01*
X40270776Y-21747575D01*
X40269355Y-21749268D01*
X40267046Y-21752470D01*
X40259806Y-21758545D01*
X40255913Y-21765288D01*
X40240156Y-21792581D01*
X40235992Y-21799117D01*
X40213446Y-21831316D01*
X40211431Y-21838838D01*
X40208602Y-21844903D01*
X40206307Y-21851209D01*
X40202412Y-21857955D01*
X40201060Y-21865625D01*
X40201059Y-21865627D01*
X40195590Y-21896647D01*
X40193911Y-21904221D01*
X40183736Y-21942193D01*
X40184415Y-21949950D01*
X40187161Y-21981339D01*
X40187500Y-21989096D01*
X40187500Y-30130307D01*
X40166678Y-30187515D01*
X40145135Y-30206110D01*
X40052268Y-30263243D01*
X40052263Y-30263247D01*
X40048022Y-30265856D01*
X39997445Y-30315385D01*
X39931282Y-30380176D01*
X39931279Y-30380180D01*
X39927724Y-30383661D01*
X39836515Y-30525190D01*
X39778927Y-30683409D01*
X39757825Y-30850455D01*
X21701500Y-30850455D01*
X21701500Y-30295252D01*
X21689867Y-30236769D01*
X21645552Y-30170448D01*
X21579231Y-30126133D01*
X21570631Y-30124422D01*
X21570630Y-30124422D01*
X21525031Y-30115352D01*
X21525032Y-30115352D01*
X21520748Y-30114500D01*
X19881252Y-30114500D01*
X19876968Y-30115352D01*
X19876969Y-30115352D01*
X19831370Y-30124422D01*
X19831369Y-30124422D01*
X19822769Y-30126133D01*
X19756448Y-30170448D01*
X19712133Y-30236769D01*
X19700500Y-30295252D01*
X19700500Y-31934748D01*
X17245500Y-31934748D01*
X17245500Y-29479182D01*
X20202215Y-29479182D01*
X20202787Y-29481316D01*
X20205308Y-29483594D01*
X20294916Y-29533675D01*
X20302853Y-29537142D01*
X20481080Y-29595051D01*
X20489553Y-29596914D01*
X20675640Y-29619104D01*
X20684289Y-29619286D01*
X20871152Y-29604907D01*
X20879680Y-29603403D01*
X21060179Y-29553006D01*
X21068261Y-29549872D01*
X21192713Y-29487007D01*
X21201472Y-29477680D01*
X21201538Y-29476491D01*
X21198940Y-29472150D01*
X20712096Y-28985306D01*
X20700503Y-28979900D01*
X20693409Y-28981801D01*
X20207621Y-29467589D01*
X20202215Y-29479182D01*
X17245500Y-29479182D01*
X17245500Y-28605304D01*
X19696623Y-28605304D01*
X19712304Y-28792051D01*
X19713871Y-28800583D01*
X19765523Y-28980716D01*
X19768716Y-28988781D01*
X19829196Y-29106464D01*
X19838582Y-29115155D01*
X19839943Y-29115222D01*
X19844039Y-29112751D01*
X20330694Y-28626096D01*
X20335636Y-28615497D01*
X21065900Y-28615497D01*
X21067801Y-28622591D01*
X21553510Y-29108300D01*
X21565103Y-29113706D01*
X21567400Y-29113090D01*
X21569498Y-29110785D01*
X21616818Y-29027486D01*
X21620339Y-29019579D01*
X21679492Y-28841756D01*
X21681414Y-28833297D01*
X21705136Y-28645522D01*
X21705482Y-28640571D01*
X21705804Y-28617492D01*
X21705596Y-28612521D01*
X21687127Y-28424163D01*
X21685442Y-28415653D01*
X21631280Y-28236259D01*
X21627974Y-28228237D01*
X21572510Y-28123926D01*
X21563002Y-28115364D01*
X21561302Y-28115305D01*
X21557694Y-28117516D01*
X21071306Y-28603904D01*
X21065900Y-28615497D01*
X20335636Y-28615497D01*
X20336100Y-28614503D01*
X20334199Y-28607409D01*
X19848295Y-28121505D01*
X19836702Y-28116099D01*
X19834732Y-28116627D01*
X19832275Y-28119365D01*
X19779515Y-28215337D01*
X19776101Y-28223300D01*
X19719433Y-28401938D01*
X19717634Y-28410404D01*
X19696744Y-28596645D01*
X19696623Y-28605304D01*
X17245500Y-28605304D01*
X17245500Y-27754339D01*
X20201060Y-27754339D01*
X20203402Y-27758192D01*
X20689904Y-28244694D01*
X20701497Y-28250100D01*
X20708591Y-28248199D01*
X21154335Y-27802455D01*
X24263825Y-27802455D01*
X24264310Y-27807402D01*
X24264310Y-27807406D01*
X24267198Y-27836856D01*
X24280255Y-27970025D01*
X24292047Y-28005472D01*
X24330646Y-28121505D01*
X24333402Y-28129791D01*
X24420624Y-28273812D01*
X24424085Y-28277396D01*
X24534131Y-28391352D01*
X24534135Y-28391355D01*
X24537586Y-28394929D01*
X24541745Y-28397651D01*
X24541748Y-28397653D01*
X24674312Y-28484401D01*
X24678475Y-28487125D01*
X24836289Y-28545815D01*
X24841217Y-28546473D01*
X24841219Y-28546473D01*
X24900792Y-28554421D01*
X25003183Y-28568083D01*
X25008129Y-28567633D01*
X25008133Y-28567633D01*
X25165910Y-28553274D01*
X25165911Y-28553274D01*
X25170864Y-28552823D01*
X25210938Y-28539802D01*
X25326259Y-28502333D01*
X25326263Y-28502331D01*
X25330997Y-28500793D01*
X25335274Y-28498243D01*
X25335277Y-28498242D01*
X25471345Y-28417128D01*
X25475623Y-28414578D01*
X25597554Y-28298465D01*
X25611553Y-28277396D01*
X25687978Y-28162367D01*
X25687979Y-28162365D01*
X25690731Y-28158223D01*
X25707012Y-28115364D01*
X25748755Y-28005472D01*
X25750521Y-28000823D01*
X25773955Y-27834088D01*
X25774249Y-27813000D01*
X25755481Y-27645676D01*
X25700108Y-27486668D01*
X25610884Y-27343879D01*
X25552240Y-27284825D01*
X25495752Y-27227940D01*
X25495749Y-27227938D01*
X25492242Y-27224406D01*
X25385812Y-27156864D01*
X25348666Y-27108630D01*
X25344500Y-27081719D01*
X25344500Y-18637302D01*
X25365322Y-18580094D01*
X25387926Y-18560856D01*
X25475623Y-18508578D01*
X25597554Y-18392465D01*
X25611553Y-18371396D01*
X25687978Y-18256367D01*
X25687979Y-18256365D01*
X25690731Y-18252223D01*
X25719544Y-18176373D01*
X25748755Y-18099472D01*
X25750521Y-18094823D01*
X25773955Y-17928088D01*
X25774028Y-17922848D01*
X25774210Y-17909806D01*
X25774210Y-17909804D01*
X25774249Y-17907000D01*
X25755481Y-17739676D01*
X25700108Y-17580668D01*
X25651628Y-17503083D01*
X25613522Y-17442100D01*
X25613520Y-17442097D01*
X25610884Y-17437879D01*
X25549335Y-17375899D01*
X25495752Y-17321940D01*
X25495749Y-17321938D01*
X25492242Y-17318406D01*
X25399698Y-17259676D01*
X25354282Y-17230854D01*
X25354280Y-17230853D01*
X25350079Y-17228187D01*
X25262176Y-17196886D01*
X25196148Y-17173374D01*
X25196143Y-17173373D01*
X25191462Y-17171706D01*
X25186525Y-17171117D01*
X25186524Y-17171117D01*
X25029216Y-17152358D01*
X25029212Y-17152358D01*
X25024273Y-17151769D01*
X24913934Y-17163366D01*
X24861776Y-17168848D01*
X24861774Y-17168848D01*
X24856821Y-17169369D01*
X24852112Y-17170972D01*
X24852108Y-17170973D01*
X24745138Y-17207389D01*
X24697431Y-17223630D01*
X24693198Y-17226234D01*
X24693194Y-17226236D01*
X24558262Y-17309247D01*
X24558259Y-17309249D01*
X24554022Y-17311856D01*
X24543725Y-17321940D01*
X24437282Y-17426176D01*
X24437279Y-17426180D01*
X24433724Y-17429661D01*
X24342515Y-17571190D01*
X24284927Y-17729409D01*
X24263825Y-17896455D01*
X24264310Y-17901402D01*
X24264310Y-17901406D01*
X24271287Y-17972565D01*
X24280255Y-18064025D01*
X24333402Y-18223791D01*
X24420624Y-18367812D01*
X24424085Y-18371396D01*
X24534131Y-18485352D01*
X24534135Y-18485355D01*
X24537586Y-18488929D01*
X24541745Y-18491651D01*
X24541748Y-18491653D01*
X24653233Y-18564607D01*
X24689702Y-18613356D01*
X24693500Y-18639079D01*
X24693500Y-27082307D01*
X24672678Y-27139515D01*
X24651135Y-27158110D01*
X24558268Y-27215243D01*
X24558263Y-27215247D01*
X24554022Y-27217856D01*
X24543725Y-27227940D01*
X24437282Y-27332176D01*
X24437279Y-27332180D01*
X24433724Y-27335661D01*
X24342515Y-27477190D01*
X24284927Y-27635409D01*
X24284303Y-27640345D01*
X24284303Y-27640347D01*
X24278619Y-27685346D01*
X24263825Y-27802455D01*
X21154335Y-27802455D01*
X21194647Y-27762143D01*
X21200053Y-27750550D01*
X21199568Y-27748742D01*
X21196618Y-27746113D01*
X21094215Y-27690744D01*
X21086237Y-27687390D01*
X20907211Y-27631973D01*
X20898717Y-27630229D01*
X20712348Y-27610640D01*
X20703679Y-27610580D01*
X20517049Y-27627564D01*
X20508534Y-27629189D01*
X20328755Y-27682102D01*
X20320725Y-27685346D01*
X20209751Y-27743362D01*
X20201124Y-27752810D01*
X20201060Y-27754339D01*
X17245500Y-27754339D01*
X17245500Y-19017346D01*
X17237215Y-19005942D01*
X17236398Y-19003429D01*
X17234845Y-19001292D01*
X17230490Y-18987888D01*
X17219089Y-18979604D01*
X17217535Y-18977465D01*
X17215396Y-18975911D01*
X17207112Y-18964510D01*
X17193708Y-18960155D01*
X17191571Y-18958602D01*
X17189058Y-18957785D01*
X17177654Y-18949500D01*
X13043000Y-18949500D01*
X12985792Y-18928678D01*
X12955352Y-18875955D01*
X12954000Y-18860500D01*
X12954000Y-15852953D01*
X13134707Y-15852953D01*
X13134881Y-15855972D01*
X13134881Y-15855979D01*
X13147831Y-16080560D01*
X13151194Y-16138878D01*
X13151779Y-16141858D01*
X13151779Y-16141861D01*
X13164619Y-16207306D01*
X13206332Y-16419920D01*
X13207312Y-16422783D01*
X13207313Y-16422786D01*
X13240061Y-16518433D01*
X13299102Y-16690878D01*
X13427787Y-16946740D01*
X13507448Y-17062648D01*
X13580796Y-17169369D01*
X13590006Y-17182770D01*
X13782756Y-17394600D01*
X13886678Y-17481492D01*
X13988947Y-17567002D01*
X14002472Y-17578311D01*
X14245088Y-17730503D01*
X14247845Y-17731748D01*
X14247849Y-17731750D01*
X14503351Y-17847114D01*
X14503358Y-17847117D01*
X14506114Y-17848361D01*
X14780719Y-17929703D01*
X15063824Y-17973024D01*
X15066851Y-17973072D01*
X15066856Y-17973072D01*
X15210088Y-17975322D01*
X15350189Y-17977523D01*
X15634514Y-17943115D01*
X15761481Y-17909806D01*
X15908605Y-17871209D01*
X15908609Y-17871208D01*
X15911539Y-17870439D01*
X15914337Y-17869280D01*
X15914343Y-17869278D01*
X16068154Y-17805567D01*
X16176138Y-17760839D01*
X16305069Y-17685498D01*
X16420794Y-17617874D01*
X16420798Y-17617871D01*
X16423415Y-17616342D01*
X16434160Y-17607917D01*
X16615518Y-17465714D01*
X18796511Y-17465714D01*
X18796875Y-17470049D01*
X18806559Y-17585372D01*
X18812051Y-17650779D01*
X18863241Y-17829301D01*
X18948132Y-17994480D01*
X18957573Y-18006391D01*
X19042351Y-18113354D01*
X19063489Y-18140024D01*
X19106199Y-18176373D01*
X19201605Y-18257571D01*
X19201608Y-18257573D01*
X19204919Y-18260391D01*
X19258550Y-18290364D01*
X19363237Y-18348872D01*
X19363242Y-18348874D01*
X19367035Y-18350994D01*
X19371166Y-18352336D01*
X19371170Y-18352338D01*
X19539522Y-18407039D01*
X19539524Y-18407039D01*
X19543662Y-18408384D01*
X19728072Y-18430373D01*
X19732401Y-18430040D01*
X19732405Y-18430040D01*
X19908906Y-18416459D01*
X19908911Y-18416458D01*
X19913240Y-18416125D01*
X20012821Y-18388322D01*
X20087922Y-18367354D01*
X20087925Y-18367353D01*
X20092115Y-18366183D01*
X20257883Y-18282447D01*
X20296568Y-18252223D01*
X20400798Y-18170791D01*
X20400802Y-18170787D01*
X20404230Y-18168109D01*
X20409395Y-18162125D01*
X20522738Y-18030816D01*
X20522740Y-18030813D01*
X20525580Y-18027523D01*
X20527726Y-18023745D01*
X20527729Y-18023741D01*
X20615165Y-17869825D01*
X20615167Y-17869821D01*
X20617313Y-17866043D01*
X20623196Y-17848361D01*
X20674560Y-17693955D01*
X20675935Y-17689822D01*
X20699211Y-17505570D01*
X20699582Y-17479000D01*
X20681459Y-17294170D01*
X20627781Y-17116380D01*
X20625737Y-17112536D01*
X20625735Y-17112531D01*
X20542636Y-16956246D01*
X20540593Y-16952403D01*
X20423215Y-16808483D01*
X20369242Y-16763833D01*
X20283466Y-16692872D01*
X20283461Y-16692869D01*
X20280118Y-16690103D01*
X20116753Y-16601772D01*
X20096434Y-16595482D01*
X20059682Y-16584106D01*
X19939342Y-16546854D01*
X19935013Y-16546399D01*
X19935008Y-16546398D01*
X19758977Y-16527896D01*
X19758972Y-16527896D01*
X19754643Y-16527441D01*
X19650590Y-16536911D01*
X19574028Y-16543878D01*
X19574025Y-16543879D01*
X19569691Y-16544273D01*
X19391531Y-16596709D01*
X19226949Y-16682750D01*
X19082213Y-16799121D01*
X18962837Y-16941388D01*
X18960738Y-16945206D01*
X18908531Y-17040170D01*
X18873367Y-17104132D01*
X18872052Y-17108278D01*
X18872051Y-17108280D01*
X18818529Y-17277003D01*
X18817212Y-17281155D01*
X18816727Y-17285482D01*
X18816726Y-17285485D01*
X18800555Y-17429661D01*
X18796511Y-17465714D01*
X16615518Y-17465714D01*
X16646401Y-17441499D01*
X16646405Y-17441496D01*
X16648793Y-17439623D01*
X16762836Y-17321940D01*
X16845992Y-17236130D01*
X16845996Y-17236125D01*
X16848102Y-17233952D01*
X17017655Y-17003134D01*
X17154313Y-16751441D01*
X17155385Y-16748605D01*
X17254479Y-16486360D01*
X17254480Y-16486355D01*
X17255548Y-16483530D01*
X17266410Y-16436103D01*
X17318812Y-16207306D01*
X17318812Y-16207303D01*
X17319487Y-16204358D01*
X17344946Y-15919092D01*
X17345408Y-15875000D01*
X17329745Y-15645248D01*
X18801000Y-15645248D01*
X18812633Y-15703731D01*
X18856948Y-15770052D01*
X18923269Y-15814367D01*
X18931869Y-15816078D01*
X18931870Y-15816078D01*
X18965007Y-15822669D01*
X18981752Y-15826000D01*
X20514248Y-15826000D01*
X20530993Y-15822669D01*
X20564130Y-15816078D01*
X20564131Y-15816078D01*
X20572731Y-15814367D01*
X20639052Y-15770052D01*
X20683367Y-15703731D01*
X20695000Y-15645248D01*
X20695000Y-14112752D01*
X20683367Y-14054269D01*
X20639052Y-13987948D01*
X20572731Y-13943633D01*
X20564131Y-13941922D01*
X20564130Y-13941922D01*
X20518531Y-13932852D01*
X20518532Y-13932852D01*
X20514248Y-13932000D01*
X18981752Y-13932000D01*
X18977468Y-13932852D01*
X18977469Y-13932852D01*
X18931870Y-13941922D01*
X18931869Y-13941922D01*
X18923269Y-13943633D01*
X18856948Y-13987948D01*
X18812633Y-14054269D01*
X18801000Y-14112752D01*
X18801000Y-15645248D01*
X17329745Y-15645248D01*
X17325928Y-15589263D01*
X17321408Y-15567436D01*
X17268464Y-15311778D01*
X17268463Y-15311775D01*
X17267850Y-15308814D01*
X17209788Y-15144850D01*
X17173261Y-15041702D01*
X17173260Y-15041699D01*
X17172248Y-15038842D01*
X17160447Y-15015977D01*
X17042280Y-14787032D01*
X17042276Y-14787025D01*
X17040891Y-14784342D01*
X16876209Y-14550024D01*
X16874149Y-14547807D01*
X16874144Y-14547801D01*
X16683315Y-14342445D01*
X16683314Y-14342444D01*
X16681251Y-14340224D01*
X16459623Y-14158823D01*
X16457050Y-14157246D01*
X16457044Y-14157242D01*
X16218009Y-14010762D01*
X16218006Y-14010761D01*
X16215427Y-14009180D01*
X15953182Y-13894062D01*
X15950277Y-13893234D01*
X15950270Y-13893232D01*
X15680649Y-13816429D01*
X15680650Y-13816429D01*
X15677739Y-13815600D01*
X15556796Y-13798387D01*
X15397200Y-13775673D01*
X15397192Y-13775672D01*
X15394196Y-13775246D01*
X15391167Y-13775230D01*
X15391165Y-13775230D01*
X15277333Y-13774634D01*
X15107800Y-13773747D01*
X14823851Y-13811129D01*
X14751296Y-13830978D01*
X14550518Y-13885904D01*
X14550514Y-13885905D01*
X14547602Y-13886702D01*
X14284165Y-13999068D01*
X14038415Y-14146146D01*
X13972019Y-14199339D01*
X13817267Y-14323318D01*
X13817261Y-14323323D01*
X13814900Y-14325215D01*
X13617755Y-14532962D01*
X13450629Y-14765543D01*
X13449211Y-14768221D01*
X13449208Y-14768226D01*
X13348743Y-14957971D01*
X13316614Y-15018653D01*
X13218190Y-15287610D01*
X13217547Y-15290561D01*
X13217546Y-15290563D01*
X13205665Y-15345056D01*
X13157178Y-15567436D01*
X13156941Y-15570449D01*
X13156940Y-15570455D01*
X13137668Y-15815335D01*
X13136829Y-15826000D01*
X13134707Y-15852953D01*
X12954000Y-15852953D01*
X12954000Y-12889500D01*
X12974822Y-12832292D01*
X13027545Y-12801852D01*
X13043000Y-12800500D01*
X25946000Y-12800500D01*
X26003208Y-12821322D01*
G37*
%TD.AperFunction*%
%TD*%
M02*
