M48
; DRILL file {KiCad 6.0.11+dfsg-1} date Tue 22 Apr 2025 08:22:35 PM EDT
; FORMAT={-:-/ absolute / inch / decimal}
; #@! TF.CreationDate,2025-04-22T20:22:35-04:00
; #@! TF.GenerationSoftware,Kicad,Pcbnew,6.0.11+dfsg-1
; #@! TF.FileFunction,Plated,1,2,PTH
FMAT,2
INCH
; #@! TA.AperFunction,Plated,PTH,ViaDrill
T1C0.0236
; #@! TA.AperFunction,Plated,PTH,ComponentDrill
T2C0.0300
; #@! TA.AperFunction,Plated,PTH,ComponentDrill
T3C0.0315
; #@! TA.AperFunction,Plated,PTH,ComponentDrill
T4C0.0378
; #@! TA.AperFunction,Plated,PTH,ComponentDrill
T5C0.0523
%
G90
G05
T1
X0.775Y-1.775
X0.785Y-1.025
X0.845Y-0.965
X0.865Y-1.335
X0.975Y-0.625
X0.985Y-0.705
X0.985Y-1.095
X1.035Y-1.415
X1.165Y-1.435
X1.325Y-1.915
X1.335Y-1.555
X1.545Y-1.535
X1.595Y-1.215
X1.615Y-0.845
X1.675Y-0.635
X1.705Y-1.345
T2
X1.0034Y-1.925
X1.1034Y-1.925
T3
X0.815Y-1.1266
X0.815Y-1.225
X1.7666Y-1.875
X1.865Y-1.875
T4
X0.765Y-1.5519
X0.765Y-1.6542
X0.7775Y-0.5858
X0.7775Y-0.6881
X0.7842Y-1.925
X0.8866Y-1.925
X1.2034Y-1.925
X1.865Y-1.5619
X1.865Y-1.6642
X1.8935Y-0.5758
X1.8935Y-0.6781
T5
X1.85Y-0.9543
X1.85Y-1.2357
T0
M30
