%TF.GenerationSoftware,KiCad,Pcbnew,6.0.11+dfsg-1*%
%TF.CreationDate,2025-04-24T23:53:41-04:00*%
%TF.ProjectId,home_copter,686f6d65-5f63-46f7-9074-65722e6b6963,rev?*%
%TF.SameCoordinates,Original*%
%TF.FileFunction,Legend,Top*%
%TF.FilePolarity,Positive*%
%FSLAX46Y46*%
G04 Gerber Fmt 4.6, Leading zero omitted, Abs format (unit mm)*
G04 Created by KiCad (PCBNEW 6.0.11+dfsg-1) date 2025-04-24 23:53:41*
%MOMM*%
%LPD*%
G01*
G04 APERTURE LIST*
%ADD10C,0.200000*%
%ADD11C,0.127000*%
%ADD12C,0.120000*%
%ADD13C,0.100000*%
G04 APERTURE END LIST*
D10*
%TO.C,R13*%
X41244619Y-50688714D02*
X41482714Y-51355380D01*
X41720809Y-50688714D01*
X42530333Y-51355380D02*
X42530333Y-50831571D01*
X42482714Y-50736333D01*
X42387476Y-50688714D01*
X42197000Y-50688714D01*
X42101761Y-50736333D01*
X42530333Y-51307761D02*
X42435095Y-51355380D01*
X42197000Y-51355380D01*
X42101761Y-51307761D01*
X42054142Y-51212523D01*
X42054142Y-51117285D01*
X42101761Y-51022047D01*
X42197000Y-50974428D01*
X42435095Y-50974428D01*
X42530333Y-50926809D01*
X43149380Y-51355380D02*
X43054142Y-51307761D01*
X43006523Y-51212523D01*
X43006523Y-50355380D01*
%TO.C,R7*%
X32019714Y-36897380D02*
X32686380Y-36659285D01*
X32019714Y-36421190D01*
X32686380Y-35611666D02*
X32162571Y-35611666D01*
X32067333Y-35659285D01*
X32019714Y-35754523D01*
X32019714Y-35945000D01*
X32067333Y-36040238D01*
X32638761Y-35611666D02*
X32686380Y-35706904D01*
X32686380Y-35945000D01*
X32638761Y-36040238D01*
X32543523Y-36087857D01*
X32448285Y-36087857D01*
X32353047Y-36040238D01*
X32305428Y-35945000D01*
X32305428Y-35706904D01*
X32257809Y-35611666D01*
X32686380Y-34992619D02*
X32638761Y-35087857D01*
X32543523Y-35135476D01*
X31686380Y-35135476D01*
%TO.C,R6*%
X37020714Y-35111380D02*
X37687380Y-34873285D01*
X37020714Y-34635190D01*
X37687380Y-33825666D02*
X37163571Y-33825666D01*
X37068333Y-33873285D01*
X37020714Y-33968523D01*
X37020714Y-34159000D01*
X37068333Y-34254238D01*
X37639761Y-33825666D02*
X37687380Y-33920904D01*
X37687380Y-34159000D01*
X37639761Y-34254238D01*
X37544523Y-34301857D01*
X37449285Y-34301857D01*
X37354047Y-34254238D01*
X37306428Y-34159000D01*
X37306428Y-33920904D01*
X37258809Y-33825666D01*
X37687380Y-33206619D02*
X37639761Y-33301857D01*
X37544523Y-33349476D01*
X36687380Y-33349476D01*
D11*
%TO.C,U1*%
X34600000Y-34945000D02*
X35155000Y-34945000D01*
X32710000Y-37445000D02*
X32155000Y-37445000D01*
X32155000Y-34945000D02*
X32155000Y-35000000D01*
X35155000Y-37445000D02*
X34600000Y-37445000D01*
X35155000Y-34945000D02*
X35155000Y-35000000D01*
X32155000Y-34945000D02*
X32710000Y-34945000D01*
X32155000Y-37445000D02*
X32155000Y-37390000D01*
X35155000Y-37445000D02*
X35155000Y-37390000D01*
D10*
X31723000Y-34671000D02*
G75*
G03*
X31723000Y-34671000I-100000J0D01*
G01*
%TO.C,U2*%
X40255000Y-13925000D02*
X40255000Y-19325000D01*
X27055000Y-13925000D02*
X40255000Y-13925000D01*
D12*
X40259000Y-30353000D02*
X40259000Y-30480000D01*
D10*
X27055000Y-19325000D02*
X27055000Y-13925000D01*
D13*
X26555000Y-20925000D02*
X26555000Y-20925000D01*
D12*
X27051000Y-30353000D02*
X27051000Y-29337000D01*
X27051000Y-30353000D02*
X27051000Y-30480000D01*
D13*
X26455000Y-20925000D02*
X26455000Y-20925000D01*
D12*
X40259000Y-30353000D02*
X40259000Y-29337000D01*
D13*
X26555000Y-20925000D02*
G75*
G03*
X26455000Y-20925000I-50000J0D01*
G01*
X26455000Y-20925000D02*
G75*
G03*
X26555000Y-20925000I50000J0D01*
G01*
D12*
%TO.C,C14*%
X35469233Y-49977000D02*
X35761767Y-49977000D01*
X35469233Y-48957000D02*
X35761767Y-48957000D01*
%TO.C,D2*%
X28602000Y-35394000D02*
X30072000Y-35394000D01*
X28602000Y-33109000D02*
X28602000Y-35394000D01*
X30072000Y-35394000D02*
X30072000Y-33109000D01*
%TO.C,C11*%
X32244420Y-38991000D02*
X32525580Y-38991000D01*
X32244420Y-37971000D02*
X32525580Y-37971000D01*
%TO.C,D3*%
X42416000Y-48665000D02*
X42416000Y-47195000D01*
X40131000Y-48665000D02*
X42416000Y-48665000D01*
X42416000Y-47195000D02*
X40131000Y-47195000D01*
%TO.C,R4*%
X36688500Y-33384258D02*
X36688500Y-32909742D01*
X37733500Y-33384258D02*
X37733500Y-32909742D01*
%TO.C,R2*%
X31385742Y-32907500D02*
X31860258Y-32907500D01*
X31385742Y-31862500D02*
X31860258Y-31862500D01*
%TO.C,R11*%
X42513580Y-43864000D02*
X42232420Y-43864000D01*
X42513580Y-44884000D02*
X42232420Y-44884000D01*
D10*
%TO.C,U12*%
X47063000Y-21770000D02*
X46663000Y-21770000D01*
X46663000Y-18870000D02*
X47063000Y-18870000D01*
X47063000Y-18870000D02*
X47063000Y-21770000D01*
X45013000Y-18820000D02*
X46313000Y-18820000D01*
X46663000Y-21770000D02*
X46663000Y-18870000D01*
D12*
%TO.C,R5*%
X26385500Y-45894258D02*
X26385500Y-45419742D01*
X25340500Y-45894258D02*
X25340500Y-45419742D01*
%TO.C,R10*%
X40611742Y-46420500D02*
X41086258Y-46420500D01*
X40611742Y-45375500D02*
X41086258Y-45375500D01*
D10*
%TO.C,D5*%
X21025000Y-42021000D02*
X23425000Y-42021000D01*
X21025000Y-43646000D02*
X21025000Y-39121000D01*
X23425000Y-42921000D02*
X23425000Y-39121000D01*
D12*
%TO.C,R14*%
X24557258Y-20461500D02*
X24082742Y-20461500D01*
X24557258Y-19416500D02*
X24082742Y-19416500D01*
%TO.C,R15*%
X23986258Y-35418500D02*
X23511742Y-35418500D01*
X23986258Y-36463500D02*
X23511742Y-36463500D01*
D10*
%TO.C,D7*%
X44520000Y-44180000D02*
X46920000Y-44180000D01*
X46920000Y-45080000D02*
X46920000Y-41280000D01*
X44520000Y-45805000D02*
X44520000Y-41280000D01*
%TO.C,D4*%
X21342000Y-13975000D02*
X21342000Y-17775000D01*
X23742000Y-14875000D02*
X21342000Y-14875000D01*
X23742000Y-13250000D02*
X23742000Y-17775000D01*
D12*
%TO.C,C18*%
X41273000Y-33006420D02*
X41273000Y-33287580D01*
X42293000Y-33006420D02*
X42293000Y-33287580D01*
%TO.C,C16*%
X38676420Y-49977000D02*
X38957580Y-49977000D01*
X38676420Y-48957000D02*
X38957580Y-48957000D01*
D10*
%TO.C,U13*%
X47571000Y-40058000D02*
X47171000Y-40058000D01*
X47171000Y-37158000D02*
X47571000Y-37158000D01*
X47171000Y-40058000D02*
X47171000Y-37158000D01*
X47571000Y-37158000D02*
X47571000Y-40058000D01*
X45521000Y-37108000D02*
X46821000Y-37108000D01*
D12*
%TO.C,C10*%
X35573580Y-37971000D02*
X35292420Y-37971000D01*
X35573580Y-38991000D02*
X35292420Y-38991000D01*
%TO.C,R18*%
X42688742Y-14971500D02*
X43163258Y-14971500D01*
X42688742Y-16016500D02*
X43163258Y-16016500D01*
%TO.C,C7*%
X26877000Y-44019580D02*
X26877000Y-43738420D01*
X27897000Y-44019580D02*
X27897000Y-43738420D01*
%TO.C,C12*%
X38815000Y-43471420D02*
X38815000Y-43752580D01*
X39835000Y-43471420D02*
X39835000Y-43752580D01*
%TO.C,C2*%
X27307000Y-33160580D02*
X27307000Y-32879420D01*
X26287000Y-33160580D02*
X26287000Y-32879420D01*
%TO.C,R13*%
X42164258Y-49945500D02*
X41689742Y-49945500D01*
X42164258Y-48900500D02*
X41689742Y-48900500D01*
D10*
%TO.C,D8*%
X48636000Y-33598000D02*
X44836000Y-33598000D01*
X47736000Y-35998000D02*
X47736000Y-33598000D01*
X49361000Y-35998000D02*
X44836000Y-35998000D01*
D12*
%TO.C,R20*%
X42688742Y-14492500D02*
X43163258Y-14492500D01*
X42688742Y-13447500D02*
X43163258Y-13447500D01*
%TO.C,R9*%
X40781500Y-33384258D02*
X40781500Y-32909742D01*
X39736500Y-33384258D02*
X39736500Y-32909742D01*
%TO.C,R1*%
X34654258Y-33386500D02*
X34179742Y-33386500D01*
X34654258Y-34431500D02*
X34179742Y-34431500D01*
%TO.C,R8*%
X37278500Y-43849258D02*
X37278500Y-43374742D01*
X38323500Y-43849258D02*
X38323500Y-43374742D01*
%TO.C,R7*%
X30231500Y-35977742D02*
X30231500Y-36452258D01*
X31276500Y-35977742D02*
X31276500Y-36452258D01*
%TO.C,R12*%
X42694500Y-46371742D02*
X42694500Y-46846258D01*
X43739500Y-46371742D02*
X43739500Y-46846258D01*
D10*
%TO.C,U9*%
X19993000Y-34999000D02*
X20393000Y-34999000D01*
X22043000Y-37949000D02*
X20743000Y-37949000D01*
X20393000Y-37899000D02*
X19993000Y-37899000D01*
X19993000Y-37899000D02*
X19993000Y-34999000D01*
X20393000Y-34999000D02*
X20393000Y-37899000D01*
D12*
%TO.C,C1*%
X23902580Y-25021000D02*
X23621420Y-25021000D01*
X23902580Y-24001000D02*
X23621420Y-24001000D01*
%TO.C,R17*%
X23986258Y-37987500D02*
X23511742Y-37987500D01*
X23986258Y-36942500D02*
X23511742Y-36942500D01*
%TO.C,C4*%
X23889580Y-26545000D02*
X23608420Y-26545000D01*
X23889580Y-25525000D02*
X23608420Y-25525000D01*
%TO.C,C15*%
X37660420Y-46408000D02*
X37941580Y-46408000D01*
X37660420Y-45388000D02*
X37941580Y-45388000D01*
%TO.C,C17*%
X42513580Y-43360000D02*
X42232420Y-43360000D01*
X42513580Y-42340000D02*
X42232420Y-42340000D01*
%TO.C,R6*%
X39237500Y-33364258D02*
X39237500Y-32889742D01*
X38192500Y-33364258D02*
X38192500Y-32889742D01*
D13*
%TO.C,U4*%
X51010000Y-31386000D02*
X51010000Y-23986000D01*
X45510000Y-23986000D02*
X46960000Y-23986000D01*
D10*
X44560000Y-28886000D02*
X44560000Y-28886000D01*
X44560000Y-29086000D02*
X44560000Y-29086000D01*
D13*
X45510000Y-25736000D02*
X45510000Y-23986000D01*
X49560000Y-31386000D02*
X51010000Y-31386000D01*
X46960000Y-31386000D02*
X45510000Y-31386000D01*
X45510000Y-31386000D02*
X45510000Y-29636000D01*
X51010000Y-23986000D02*
X49560000Y-23986000D01*
D10*
X44560000Y-29086000D02*
G75*
G03*
X44560000Y-28886000I0J100000D01*
G01*
X44560000Y-28886000D02*
G75*
G03*
X44560000Y-29086000I0J-100000D01*
G01*
D12*
%TO.C,C13*%
X37660420Y-47932000D02*
X37941580Y-47932000D01*
X37660420Y-46912000D02*
X37941580Y-46912000D01*
%TO.C,C9*%
X19958267Y-27430000D02*
X19665733Y-27430000D01*
X19958267Y-28450000D02*
X19665733Y-28450000D01*
%TO.C,C6*%
X24460580Y-23497000D02*
X24179420Y-23497000D01*
X24460580Y-22477000D02*
X24179420Y-22477000D01*
%TO.C,R21*%
X39386742Y-38339500D02*
X39861258Y-38339500D01*
X39386742Y-39384500D02*
X39861258Y-39384500D01*
%TO.C,R16*%
X24557258Y-20940500D02*
X24082742Y-20940500D01*
X24557258Y-21985500D02*
X24082742Y-21985500D01*
%TO.C,R3*%
X24242500Y-29798742D02*
X24242500Y-30273258D01*
X25287500Y-29798742D02*
X25287500Y-30273258D01*
%TO.C,D1*%
X39524000Y-34710000D02*
X39524000Y-36995000D01*
X40994000Y-34710000D02*
X39524000Y-34710000D01*
X40994000Y-36995000D02*
X40994000Y-34710000D01*
D10*
%TO.C,U8*%
X20710000Y-21897000D02*
X20310000Y-21897000D01*
X20310000Y-21897000D02*
X20310000Y-18997000D01*
X20310000Y-18997000D02*
X20710000Y-18997000D01*
X22360000Y-21947000D02*
X21060000Y-21947000D01*
X20710000Y-18997000D02*
X20710000Y-21897000D01*
%TO.C,D6*%
X47104000Y-12996000D02*
X47104000Y-17521000D01*
X44704000Y-13721000D02*
X44704000Y-17521000D01*
X47104000Y-14621000D02*
X44704000Y-14621000D01*
%TO.C,U3*%
X33559000Y-48356000D02*
X30359000Y-48356000D01*
X33559000Y-43466000D02*
X33559000Y-48356000D01*
X30359000Y-48356000D02*
X30359000Y-43466000D01*
X30359000Y-43466000D02*
X33559000Y-43466000D01*
X28484000Y-43121000D02*
X30009000Y-43121000D01*
D12*
%TO.C,C8*%
X21062733Y-23497000D02*
X21355267Y-23497000D01*
X21062733Y-22477000D02*
X21355267Y-22477000D01*
%TO.C,L1*%
X26877000Y-47089779D02*
X26877000Y-46764221D01*
X27897000Y-47089779D02*
X27897000Y-46764221D01*
%TO.C,R19*%
X39386742Y-40908500D02*
X39861258Y-40908500D01*
X39386742Y-39863500D02*
X39861258Y-39863500D01*
%TD*%
M02*
