%TF.GenerationSoftware,KiCad,Pcbnew,6.0.11+dfsg-1*%
%TF.CreationDate,2025-05-30T09:37:29-04:00*%
%TF.ProjectId,s3_cam,73335f63-616d-42e6-9b69-6361645f7063,rev?*%
%TF.SameCoordinates,Original*%
%TF.FileFunction,Soldermask,Top*%
%TF.FilePolarity,Negative*%
%FSLAX46Y46*%
G04 Gerber Fmt 4.6, Leading zero omitted, Abs format (unit mm)*
G04 Created by KiCad (PCBNEW 6.0.11+dfsg-1) date 2025-05-30 09:37:29*
%MOMM*%
%LPD*%
G01*
G04 APERTURE LIST*
G04 Aperture macros list*
%AMRoundRect*
0 Rectangle with rounded corners*
0 $1 Rounding radius*
0 $2 $3 $4 $5 $6 $7 $8 $9 X,Y pos of 4 corners*
0 Add a 4 corners polygon primitive as box body*
4,1,4,$2,$3,$4,$5,$6,$7,$8,$9,$2,$3,0*
0 Add four circle primitives for the rounded corners*
1,1,$1+$1,$2,$3*
1,1,$1+$1,$4,$5*
1,1,$1+$1,$6,$7*
1,1,$1+$1,$8,$9*
0 Add four rect primitives between the rounded corners*
20,1,$1+$1,$2,$3,$4,$5,0*
20,1,$1+$1,$4,$5,$6,$7,0*
20,1,$1+$1,$6,$7,$8,$9,0*
20,1,$1+$1,$8,$9,$2,$3,0*%
G04 Aperture macros list end*
%ADD10R,1.493000X1.493000*%
%ADD11C,1.493000*%
%ADD12RoundRect,0.225000X0.225000X0.250000X-0.225000X0.250000X-0.225000X-0.250000X0.225000X-0.250000X0*%
%ADD13RoundRect,0.200000X-0.275000X0.200000X-0.275000X-0.200000X0.275000X-0.200000X0.275000X0.200000X0*%
%ADD14R,1.250000X0.600000*%
%ADD15RoundRect,0.225000X-0.225000X-0.250000X0.225000X-0.250000X0.225000X0.250000X-0.225000X0.250000X0*%
%ADD16RoundRect,0.225000X-0.250000X0.225000X-0.250000X-0.225000X0.250000X-0.225000X0.250000X0.225000X0*%
%ADD17RoundRect,0.218750X-0.218750X-0.256250X0.218750X-0.256250X0.218750X0.256250X-0.218750X0.256250X0*%
%ADD18RoundRect,0.200000X0.200000X0.275000X-0.200000X0.275000X-0.200000X-0.275000X0.200000X-0.275000X0*%
%ADD19RoundRect,0.200000X-0.200000X-0.275000X0.200000X-0.275000X0.200000X0.275000X-0.200000X0.275000X0*%
%ADD20RoundRect,0.218750X0.256250X-0.218750X0.256250X0.218750X-0.256250X0.218750X-0.256250X-0.218750X0*%
%ADD21R,2.300000X2.650000*%
%ADD22R,1.400000X0.300000*%
%ADD23RoundRect,0.200000X0.275000X-0.200000X0.275000X0.200000X-0.275000X0.200000X-0.275000X-0.200000X0*%
%ADD24R,1.400000X0.400000*%
%ADD25R,2.000000X1.900000*%
%ADD26C,1.993000*%
%ADD27R,1.100000X1.880000*%
%ADD28R,2.160000X0.900000*%
%ADD29R,2.160000X0.884000*%
%ADD30R,0.900000X1.966000*%
%ADD31R,0.900000X0.900000*%
%ADD32C,1.000000*%
G04 APERTURE END LIST*
D10*
%TO.C,U9*%
X137160000Y-123190000D03*
D11*
X139760000Y-123190000D03*
X142360000Y-123190000D03*
X144780000Y-123190000D03*
%TD*%
D12*
%TO.C,C6*%
X147307000Y-128016000D03*
X148857000Y-128016000D03*
%TD*%
D13*
%TO.C,R21*%
X176296000Y-123655000D03*
X176296000Y-125305000D03*
%TD*%
%TO.C,R8*%
X174772000Y-123655000D03*
X174772000Y-125305000D03*
%TD*%
%TO.C,R15*%
X176276000Y-120642000D03*
X176276000Y-122292000D03*
%TD*%
D14*
%TO.C,U8*%
X170454000Y-122494000D03*
X170454000Y-123444000D03*
X170454000Y-124394000D03*
X172954000Y-124394000D03*
X172954000Y-123444000D03*
X172954000Y-122494000D03*
%TD*%
D15*
%TO.C,C8*%
X174739000Y-126746000D03*
X176289000Y-126746000D03*
%TD*%
D16*
%TO.C,C14*%
X177800000Y-120645000D03*
X177800000Y-122195000D03*
%TD*%
D17*
%TO.C,L3*%
X171678500Y-120650000D03*
X173253500Y-120650000D03*
%TD*%
D16*
%TO.C,C11*%
X174752000Y-120637000D03*
X174752000Y-122187000D03*
%TD*%
D18*
%TO.C,R1*%
X164008000Y-115316000D03*
X165658000Y-115316000D03*
%TD*%
D12*
%TO.C,C16*%
X170447000Y-111506000D03*
X168897000Y-111506000D03*
%TD*%
D14*
%TO.C,U6*%
X150094000Y-124272000D03*
X150094000Y-125222000D03*
X150094000Y-126172000D03*
X147594000Y-126172000D03*
X147594000Y-125222000D03*
X147594000Y-124272000D03*
%TD*%
D19*
%TO.C,R16*%
X155913000Y-118852000D03*
X157563000Y-118852000D03*
%TD*%
D10*
%TO.C,U4*%
X140442000Y-106172000D03*
D11*
X137842000Y-106172000D03*
%TD*%
D12*
%TO.C,C1*%
X165608000Y-116840000D03*
X164058000Y-116840000D03*
%TD*%
D13*
%TO.C,R9*%
X153436000Y-124035000D03*
X153436000Y-122385000D03*
%TD*%
D20*
%TO.C,D4*%
X167672500Y-123911500D03*
X167672500Y-122336500D03*
%TD*%
D17*
%TO.C,D2*%
X145156000Y-119047000D03*
X146731000Y-119047000D03*
%TD*%
D19*
%TO.C,R17*%
X156675000Y-120630000D03*
X158325000Y-120630000D03*
%TD*%
D12*
%TO.C,C15*%
X171945000Y-118872000D03*
X173495000Y-118872000D03*
%TD*%
D19*
%TO.C,R2*%
X139383000Y-102618000D03*
X141033000Y-102618000D03*
%TD*%
D21*
%TO.C,U1*%
X174260000Y-99155000D03*
X174260000Y-114205000D03*
D22*
X173010000Y-100930000D03*
X173010000Y-101430000D03*
X173010000Y-101930000D03*
X173010000Y-102430000D03*
X173010000Y-102930000D03*
X173010000Y-103430000D03*
X173010000Y-103930000D03*
X173010000Y-104430000D03*
X173010000Y-104930000D03*
X173010000Y-105430000D03*
X173010000Y-105930000D03*
X173010000Y-106430000D03*
X173010000Y-106930000D03*
X173010000Y-107430000D03*
X173010000Y-107930000D03*
X173010000Y-108430000D03*
X173010000Y-108930000D03*
X173010000Y-109430000D03*
X173010000Y-109930000D03*
X173010000Y-110430000D03*
X173010000Y-110930000D03*
X173010000Y-111430000D03*
X173010000Y-111930000D03*
X173010000Y-112430000D03*
%TD*%
D23*
%TO.C,R14*%
X166128500Y-126977000D03*
X166128500Y-125327000D03*
%TD*%
D12*
%TO.C,C3*%
X140983000Y-98046000D03*
X139433000Y-98046000D03*
%TD*%
D24*
%TO.C,U2*%
X139456000Y-113508000D03*
X139456000Y-114158000D03*
X139456000Y-114808000D03*
X139456000Y-115458000D03*
X139456000Y-116108000D03*
D25*
X136906000Y-113608000D03*
X136906000Y-116008000D03*
D26*
X136906000Y-111233000D03*
X136906000Y-118383000D03*
%TD*%
D12*
%TO.C,C2*%
X140983000Y-104142000D03*
X139433000Y-104142000D03*
%TD*%
D20*
%TO.C,D3*%
X156464000Y-122402500D03*
X156464000Y-123977500D03*
%TD*%
D10*
%TO.C,U3*%
X164599000Y-118872000D03*
D11*
X167199000Y-118872000D03*
%TD*%
D19*
%TO.C,R5*%
X159723000Y-118852000D03*
X161373000Y-118852000D03*
%TD*%
D13*
%TO.C,R3*%
X143530000Y-119083000D03*
X143530000Y-120733000D03*
%TD*%
D12*
%TO.C,C18*%
X166357000Y-107188000D03*
X167907000Y-107188000D03*
%TD*%
%TO.C,C4*%
X140983000Y-99566000D03*
X139433000Y-99566000D03*
%TD*%
D13*
%TO.C,R22*%
X142006000Y-119083000D03*
X142006000Y-120733000D03*
%TD*%
%TO.C,R10*%
X153436000Y-127083000D03*
X153436000Y-125433000D03*
%TD*%
D12*
%TO.C,C17*%
X166357000Y-105664000D03*
X167907000Y-105664000D03*
%TD*%
D13*
%TO.C,R6*%
X151912000Y-127083000D03*
X151912000Y-125433000D03*
%TD*%
D16*
%TO.C,C10*%
X163100500Y-122357000D03*
X163100500Y-123907000D03*
%TD*%
%TO.C,C9*%
X151892000Y-123965000D03*
X151892000Y-122415000D03*
%TD*%
%TO.C,C13*%
X166148500Y-122357000D03*
X166148500Y-123907000D03*
%TD*%
D14*
%TO.C,U7*%
X158802500Y-124206000D03*
X158802500Y-125156000D03*
X158802500Y-126106000D03*
X161302500Y-126106000D03*
X161302500Y-125156000D03*
X161302500Y-124206000D03*
%TD*%
D12*
%TO.C,C5*%
X140983000Y-101094000D03*
X139433000Y-101094000D03*
%TD*%
D23*
%TO.C,R23*%
X165862000Y-108649000D03*
X165862000Y-110299000D03*
%TD*%
D17*
%TO.C,L1*%
X150393500Y-122428000D03*
X148818500Y-122428000D03*
%TD*%
D13*
%TO.C,R13*%
X164644500Y-125367000D03*
X164644500Y-127017000D03*
%TD*%
D19*
%TO.C,R20*%
X171895000Y-117348000D03*
X173545000Y-117348000D03*
%TD*%
D27*
%TO.C,D1*%
X138895000Y-127000000D03*
X143045000Y-127000000D03*
%TD*%
D13*
%TO.C,R18*%
X156484000Y-127083000D03*
X156484000Y-125433000D03*
%TD*%
D16*
%TO.C,C12*%
X154940000Y-123973000D03*
X154940000Y-122423000D03*
%TD*%
D17*
%TO.C,L2*%
X160027000Y-122362000D03*
X161602000Y-122362000D03*
%TD*%
D13*
%TO.C,R12*%
X164644500Y-122319000D03*
X164644500Y-123969000D03*
%TD*%
D23*
%TO.C,R11*%
X154920000Y-125393000D03*
X154920000Y-127043000D03*
%TD*%
D18*
%TO.C,R4*%
X146748500Y-120618000D03*
X145098500Y-120618000D03*
%TD*%
D12*
%TO.C,C7*%
X160287000Y-127762000D03*
X158737000Y-127762000D03*
%TD*%
D13*
%TO.C,R19*%
X167692500Y-125367000D03*
X167692500Y-127017000D03*
%TD*%
D28*
%TO.C,U5*%
X143425000Y-98495000D03*
D29*
X143425000Y-99757000D03*
D28*
X143425000Y-101035000D03*
D29*
X143425000Y-102297000D03*
D28*
X143425000Y-103575000D03*
D29*
X143425000Y-104837000D03*
D28*
X143425000Y-106115000D03*
X143425000Y-107385000D03*
X143425000Y-108655000D03*
X143425000Y-109925000D03*
X143425000Y-111195000D03*
X143425000Y-112465000D03*
X143425000Y-113735000D03*
X143425000Y-115005000D03*
D30*
X145520000Y-116488000D03*
X146790000Y-116488000D03*
X148060000Y-116488000D03*
X149330000Y-116488000D03*
X150600000Y-116488000D03*
X151870000Y-116488000D03*
X153140000Y-116488000D03*
X154410000Y-116488000D03*
X155680000Y-116488000D03*
X156950000Y-116488000D03*
X158220000Y-116488000D03*
X159490000Y-116488000D03*
D28*
X161585000Y-115005000D03*
X161585000Y-113735000D03*
X161585000Y-112465000D03*
X161585000Y-111195000D03*
X161585000Y-109925000D03*
X161585000Y-108655000D03*
X161585000Y-107385000D03*
X161585000Y-106115000D03*
X161585000Y-104845000D03*
X161585000Y-103575000D03*
X161585000Y-102305000D03*
X161585000Y-101035000D03*
X161585000Y-99765000D03*
X161585000Y-98495000D03*
D31*
X151005000Y-106215000D03*
X151005000Y-104815000D03*
X149605000Y-104815000D03*
X149605000Y-106215000D03*
X149605000Y-107615000D03*
X151005000Y-107615000D03*
X152405000Y-107615000D03*
X152405000Y-106215000D03*
X152405000Y-104815000D03*
%TD*%
D13*
%TO.C,R7*%
X163100500Y-125410000D03*
X163100500Y-127060000D03*
%TD*%
D32*
X169418000Y-126238000D03*
X158242000Y-122428000D03*
X163830000Y-98806000D03*
X167132000Y-108204000D03*
X178054000Y-125984000D03*
X137922000Y-108458000D03*
X138176000Y-101600000D03*
X155194000Y-120396000D03*
X171196000Y-114808000D03*
X170946500Y-117856000D03*
X169265891Y-106936094D03*
X165608000Y-114046000D03*
X167894000Y-116332000D03*
X169418000Y-120142000D03*
X167894000Y-113538000D03*
X175006000Y-117602000D03*
M02*
