%TF.GenerationSoftware,KiCad,Pcbnew,6.0.11+dfsg-1*%
%TF.CreationDate,2025-05-30T09:37:29-04:00*%
%TF.ProjectId,s3_cam,73335f63-616d-42e6-9b69-6361645f7063,rev?*%
%TF.SameCoordinates,Original*%
%TF.FileFunction,Copper,L1,Top*%
%TF.FilePolarity,Positive*%
%FSLAX46Y46*%
G04 Gerber Fmt 4.6, Leading zero omitted, Abs format (unit mm)*
G04 Created by KiCad (PCBNEW 6.0.11+dfsg-1) date 2025-05-30 09:37:29*
%MOMM*%
%LPD*%
G01*
G04 APERTURE LIST*
G04 Aperture macros list*
%AMRoundRect*
0 Rectangle with rounded corners*
0 $1 Rounding radius*
0 $2 $3 $4 $5 $6 $7 $8 $9 X,Y pos of 4 corners*
0 Add a 4 corners polygon primitive as box body*
4,1,4,$2,$3,$4,$5,$6,$7,$8,$9,$2,$3,0*
0 Add four circle primitives for the rounded corners*
1,1,$1+$1,$2,$3*
1,1,$1+$1,$4,$5*
1,1,$1+$1,$6,$7*
1,1,$1+$1,$8,$9*
0 Add four rect primitives between the rounded corners*
20,1,$1+$1,$2,$3,$4,$5,0*
20,1,$1+$1,$4,$5,$6,$7,0*
20,1,$1+$1,$6,$7,$8,$9,0*
20,1,$1+$1,$8,$9,$2,$3,0*%
G04 Aperture macros list end*
%TA.AperFunction,ComponentPad*%
%ADD10R,1.493000X1.493000*%
%TD*%
%TA.AperFunction,ComponentPad*%
%ADD11C,1.493000*%
%TD*%
%TA.AperFunction,SMDPad,CuDef*%
%ADD12RoundRect,0.225000X0.225000X0.250000X-0.225000X0.250000X-0.225000X-0.250000X0.225000X-0.250000X0*%
%TD*%
%TA.AperFunction,SMDPad,CuDef*%
%ADD13RoundRect,0.200000X-0.275000X0.200000X-0.275000X-0.200000X0.275000X-0.200000X0.275000X0.200000X0*%
%TD*%
%TA.AperFunction,SMDPad,CuDef*%
%ADD14R,1.250000X0.600000*%
%TD*%
%TA.AperFunction,SMDPad,CuDef*%
%ADD15RoundRect,0.225000X-0.225000X-0.250000X0.225000X-0.250000X0.225000X0.250000X-0.225000X0.250000X0*%
%TD*%
%TA.AperFunction,SMDPad,CuDef*%
%ADD16RoundRect,0.225000X-0.250000X0.225000X-0.250000X-0.225000X0.250000X-0.225000X0.250000X0.225000X0*%
%TD*%
%TA.AperFunction,SMDPad,CuDef*%
%ADD17RoundRect,0.218750X-0.218750X-0.256250X0.218750X-0.256250X0.218750X0.256250X-0.218750X0.256250X0*%
%TD*%
%TA.AperFunction,SMDPad,CuDef*%
%ADD18RoundRect,0.200000X0.200000X0.275000X-0.200000X0.275000X-0.200000X-0.275000X0.200000X-0.275000X0*%
%TD*%
%TA.AperFunction,SMDPad,CuDef*%
%ADD19RoundRect,0.200000X-0.200000X-0.275000X0.200000X-0.275000X0.200000X0.275000X-0.200000X0.275000X0*%
%TD*%
%TA.AperFunction,SMDPad,CuDef*%
%ADD20RoundRect,0.218750X0.256250X-0.218750X0.256250X0.218750X-0.256250X0.218750X-0.256250X-0.218750X0*%
%TD*%
%TA.AperFunction,SMDPad,CuDef*%
%ADD21R,2.300000X2.650000*%
%TD*%
%TA.AperFunction,SMDPad,CuDef*%
%ADD22R,1.400000X0.300000*%
%TD*%
%TA.AperFunction,SMDPad,CuDef*%
%ADD23RoundRect,0.200000X0.275000X-0.200000X0.275000X0.200000X-0.275000X0.200000X-0.275000X-0.200000X0*%
%TD*%
%TA.AperFunction,SMDPad,CuDef*%
%ADD24R,1.400000X0.400000*%
%TD*%
%TA.AperFunction,SMDPad,CuDef*%
%ADD25R,2.000000X1.900000*%
%TD*%
%TA.AperFunction,ComponentPad*%
%ADD26C,1.993000*%
%TD*%
%TA.AperFunction,SMDPad,CuDef*%
%ADD27R,1.100000X1.880000*%
%TD*%
%TA.AperFunction,SMDPad,CuDef*%
%ADD28R,2.160000X0.900000*%
%TD*%
%TA.AperFunction,SMDPad,CuDef*%
%ADD29R,2.160000X0.884000*%
%TD*%
%TA.AperFunction,SMDPad,CuDef*%
%ADD30R,0.900000X1.966000*%
%TD*%
%TA.AperFunction,SMDPad,CuDef*%
%ADD31R,0.900000X0.900000*%
%TD*%
%TA.AperFunction,ViaPad*%
%ADD32C,1.000000*%
%TD*%
%TA.AperFunction,Conductor*%
%ADD33C,0.250000*%
%TD*%
%TA.AperFunction,Conductor*%
%ADD34C,0.200000*%
%TD*%
G04 APERTURE END LIST*
D10*
%TO.P,U9,1*%
%TO.N,GND*%
X137160000Y-123190000D03*
D11*
%TO.P,U9,2*%
%TO.N,IO12*%
X139760000Y-123190000D03*
%TO.P,U9,3*%
%TO.N,IO13*%
X142360000Y-123190000D03*
%TO.P,U9,4*%
%TO.N,+3V3*%
X144780000Y-123190000D03*
%TD*%
D12*
%TO.P,C6,2*%
%TO.N,GND*%
X147307000Y-128016000D03*
%TO.P,C6,1*%
%TO.N,VBUS*%
X148857000Y-128016000D03*
%TD*%
D13*
%TO.P,R21,1*%
%TO.N,Net-(C11-Pad2)*%
X176296000Y-123655000D03*
%TO.P,R21,2*%
%TO.N,GND*%
X176296000Y-125305000D03*
%TD*%
%TO.P,R8,1*%
%TO.N,Net-(R8-Pad1)*%
X174772000Y-123655000D03*
%TO.P,R8,2*%
%TO.N,VBUS*%
X174772000Y-125305000D03*
%TD*%
%TO.P,R15,1*%
%TO.N,+1V2*%
X176276000Y-120642000D03*
%TO.P,R15,2*%
%TO.N,Net-(C11-Pad2)*%
X176276000Y-122292000D03*
%TD*%
D14*
%TO.P,U8,1,EN*%
%TO.N,VBUS*%
X170454000Y-122494000D03*
%TO.P,U8,2,GND*%
%TO.N,GND*%
X170454000Y-123444000D03*
%TO.P,U8,3,SW*%
%TO.N,Net-(L3-Pad1)*%
X170454000Y-124394000D03*
%TO.P,U8,4,VIN*%
%TO.N,VBUS*%
X172954000Y-124394000D03*
%TO.P,U8,5,PG*%
%TO.N,Net-(R8-Pad1)*%
X172954000Y-123444000D03*
%TO.P,U8,6,FB*%
%TO.N,Net-(C11-Pad2)*%
X172954000Y-122494000D03*
%TD*%
D15*
%TO.P,C8,1*%
%TO.N,VBUS*%
X174739000Y-126746000D03*
%TO.P,C8,2*%
%TO.N,GND*%
X176289000Y-126746000D03*
%TD*%
D16*
%TO.P,C14,1*%
%TO.N,+1V2*%
X177800000Y-120645000D03*
%TO.P,C14,2*%
%TO.N,GND*%
X177800000Y-122195000D03*
%TD*%
D17*
%TO.P,L3,1,1*%
%TO.N,Net-(L3-Pad1)*%
X171678500Y-120650000D03*
%TO.P,L3,2,2*%
%TO.N,+1V2*%
X173253500Y-120650000D03*
%TD*%
D16*
%TO.P,C11,1*%
%TO.N,+1V2*%
X174752000Y-120637000D03*
%TO.P,C11,2*%
%TO.N,Net-(C11-Pad2)*%
X174752000Y-122187000D03*
%TD*%
D18*
%TO.P,R1,2*%
%TO.N,IO0_BOOT*%
X164008000Y-115316000D03*
%TO.P,R1,1*%
%TO.N,+3V3*%
X165658000Y-115316000D03*
%TD*%
D12*
%TO.P,C16,1*%
%TO.N,+2V8*%
X170447000Y-111506000D03*
%TO.P,C16,2*%
%TO.N,GND*%
X168897000Y-111506000D03*
%TD*%
D14*
%TO.P,U6,6,FB*%
%TO.N,Net-(C9-Pad2)*%
X150094000Y-124272000D03*
%TO.P,U6,5,PG*%
%TO.N,Net-(R6-Pad1)*%
X150094000Y-125222000D03*
%TO.P,U6,4,VIN*%
%TO.N,VBUS*%
X150094000Y-126172000D03*
%TO.P,U6,3,SW*%
%TO.N,Net-(L1-Pad1)*%
X147594000Y-126172000D03*
%TO.P,U6,2,GND*%
%TO.N,GND*%
X147594000Y-125222000D03*
%TO.P,U6,1,EN*%
%TO.N,VBUS*%
X147594000Y-124272000D03*
%TD*%
D19*
%TO.P,R16,1*%
%TO.N,+3V3*%
X155913000Y-118852000D03*
%TO.P,R16,2*%
%TO.N,SIO_D*%
X157563000Y-118852000D03*
%TD*%
D10*
%TO.P,U4,1*%
%TO.N,RESET*%
X140442000Y-106172000D03*
D11*
%TO.P,U4,2*%
%TO.N,GND*%
X137842000Y-106172000D03*
%TD*%
D12*
%TO.P,C1,1*%
%TO.N,GND*%
X165608000Y-116840000D03*
%TO.P,C1,2*%
%TO.N,IO0_BOOT*%
X164058000Y-116840000D03*
%TD*%
D13*
%TO.P,R9,2*%
%TO.N,Net-(C9-Pad2)*%
X153436000Y-124035000D03*
%TO.P,R9,1*%
%TO.N,+3V3*%
X153436000Y-122385000D03*
%TD*%
D20*
%TO.P,D4,1,K*%
%TO.N,Net-(D4-Pad1)*%
X167672500Y-123911500D03*
%TO.P,D4,2,A*%
%TO.N,+2V8*%
X167672500Y-122336500D03*
%TD*%
D17*
%TO.P,D2,1,K*%
%TO.N,Net-(D2-Pad1)*%
X145156000Y-119047000D03*
%TO.P,D2,2,A*%
%TO.N,Net-(D2-Pad2)*%
X146731000Y-119047000D03*
%TD*%
D19*
%TO.P,R17,1*%
%TO.N,+3V3*%
X156675000Y-120630000D03*
%TO.P,R17,2*%
%TO.N,SIO_C*%
X158325000Y-120630000D03*
%TD*%
D12*
%TO.P,C15,2*%
%TO.N,GND*%
X171945000Y-118872000D03*
%TO.P,C15,1*%
%TO.N,OV_RESET*%
X173495000Y-118872000D03*
%TD*%
D19*
%TO.P,R2,1*%
%TO.N,+3V3*%
X139383000Y-102618000D03*
%TO.P,R2,2*%
%TO.N,RESET*%
X141033000Y-102618000D03*
%TD*%
D21*
%TO.P,U1,26,MP2*%
%TO.N,unconnected-(U1-Pad26)*%
X174260000Y-99155000D03*
%TO.P,U1,25,MP1*%
%TO.N,unconnected-(U1-Pad25)*%
X174260000Y-114205000D03*
D22*
%TO.P,U1,24,Y0*%
%TO.N,Y0*%
X173010000Y-100930000D03*
%TO.P,U1,23,Y1*%
%TO.N,Y1*%
X173010000Y-101430000D03*
%TO.P,U1,22,Y4*%
%TO.N,Y4*%
X173010000Y-101930000D03*
%TO.P,U1,21,Y3*%
%TO.N,Y3*%
X173010000Y-102430000D03*
%TO.P,U1,20,Y5*%
%TO.N,Y5*%
X173010000Y-102930000D03*
%TO.P,U1,19,Y2*%
%TO.N,Y2*%
X173010000Y-103430000D03*
%TO.P,U1,18,Y6*%
%TO.N,Y6*%
X173010000Y-103930000D03*
%TO.P,U1,17,PCLK*%
%TO.N,PCLK*%
X173010000Y-104430000D03*
%TO.P,U1,16,Y7*%
%TO.N,Y7*%
X173010000Y-104930000D03*
%TO.P,U1,15,DGND*%
%TO.N,GND*%
X173010000Y-105430000D03*
%TO.P,U1,14,Y8*%
%TO.N,Y8*%
X173010000Y-105930000D03*
%TO.P,U1,13,XCLK*%
%TO.N,XCLK*%
X173010000Y-106430000D03*
%TO.P,U1,12,Y9*%
%TO.N,Y9*%
X173010000Y-106930000D03*
%TO.P,U1,11,DOVDD*%
%TO.N,+3V3*%
X173010000Y-107430000D03*
%TO.P,U1,10,DVDD*%
%TO.N,+1V2*%
X173010000Y-107930000D03*
%TO.P,U1,9,HREF*%
%TO.N,HREF*%
X173010000Y-108430000D03*
%TO.P,U1,8,PWDN*%
%TO.N,PWDN*%
X173010000Y-108930000D03*
%TO.P,U1,7,VSYNC*%
%TO.N,VSYNC*%
X173010000Y-109430000D03*
%TO.P,U1,6,RESET*%
%TO.N,OV_RESET*%
X173010000Y-109930000D03*
%TO.P,U1,5,SIO_C*%
%TO.N,SIO_C*%
X173010000Y-110430000D03*
%TO.P,U1,4,AVDD*%
%TO.N,+2V8*%
X173010000Y-110930000D03*
%TO.P,U1,3,SIO_D*%
%TO.N,SIO_D*%
X173010000Y-111430000D03*
%TO.P,U1,2,AGND*%
%TO.N,GND*%
X173010000Y-111930000D03*
%TO.P,U1,1,STROBE*%
%TO.N,unconnected-(U1-Pad1)*%
X173010000Y-112430000D03*
%TD*%
D23*
%TO.P,R14,1*%
%TO.N,Net-(R13-Pad2)*%
X166128500Y-126977000D03*
%TO.P,R14,2*%
%TO.N,GND*%
X166128500Y-125327000D03*
%TD*%
D12*
%TO.P,C3,1*%
%TO.N,+3V3*%
X140983000Y-98046000D03*
%TO.P,C3,2*%
%TO.N,GND*%
X139433000Y-98046000D03*
%TD*%
D24*
%TO.P,U2,1,+5V*%
%TO.N,Net-(D1-Pad2)*%
X139456000Y-113508000D03*
%TO.P,U2,2,D-*%
%TO.N,USB_JTAG_D-*%
X139456000Y-114158000D03*
%TO.P,U2,3,D+*%
%TO.N,USB_JTAG_D+*%
X139456000Y-114808000D03*
%TO.P,U2,4,ID*%
%TO.N,unconnected-(U2-Pad4)*%
X139456000Y-115458000D03*
%TO.P,U2,5,GND*%
%TO.N,GND*%
X139456000Y-116108000D03*
D25*
%TO.P,U2,6,6*%
%TO.N,unconnected-(U2-Pad6)*%
X136906000Y-113608000D03*
%TO.P,U2,7,7*%
%TO.N,unconnected-(U2-Pad7)*%
X136906000Y-116008000D03*
D26*
%TO.P,U2,8,8*%
%TO.N,unconnected-(U2-Pad8)*%
X136906000Y-111233000D03*
%TO.P,U2,9,9*%
%TO.N,unconnected-(U2-Pad9)*%
X136906000Y-118383000D03*
%TD*%
D12*
%TO.P,C2,1*%
%TO.N,RESET*%
X140983000Y-104142000D03*
%TO.P,C2,2*%
%TO.N,GND*%
X139433000Y-104142000D03*
%TD*%
D20*
%TO.P,D3,2,A*%
%TO.N,+3V3*%
X156464000Y-122402500D03*
%TO.P,D3,1,K*%
%TO.N,Net-(D3-Pad1)*%
X156464000Y-123977500D03*
%TD*%
D10*
%TO.P,U3,1*%
%TO.N,IO0_BOOT*%
X164599000Y-118872000D03*
D11*
%TO.P,U3,2*%
%TO.N,GND*%
X167199000Y-118872000D03*
%TD*%
D19*
%TO.P,R5,1*%
%TO.N,Net-(R5-Pad1)*%
X159723000Y-118852000D03*
%TO.P,R5,2*%
%TO.N,GND*%
X161373000Y-118852000D03*
%TD*%
D13*
%TO.P,R3,1*%
%TO.N,Net-(D2-Pad1)*%
X143530000Y-119083000D03*
%TO.P,R3,2*%
%TO.N,GND*%
X143530000Y-120733000D03*
%TD*%
D12*
%TO.P,C18,2*%
%TO.N,GND*%
X166357000Y-107188000D03*
%TO.P,C18,1*%
%TO.N,+1V2*%
X167907000Y-107188000D03*
%TD*%
%TO.P,C4,1*%
%TO.N,+3V3*%
X140983000Y-99566000D03*
%TO.P,C4,2*%
%TO.N,GND*%
X139433000Y-99566000D03*
%TD*%
D13*
%TO.P,R22,1*%
%TO.N,Net-(R22-Pad1)*%
X142006000Y-119083000D03*
%TO.P,R22,2*%
%TO.N,GND*%
X142006000Y-120733000D03*
%TD*%
%TO.P,R10,2*%
%TO.N,Net-(R10-Pad2)*%
X153436000Y-127083000D03*
%TO.P,R10,1*%
%TO.N,Net-(C9-Pad2)*%
X153436000Y-125433000D03*
%TD*%
D12*
%TO.P,C17,2*%
%TO.N,GND*%
X166357000Y-105664000D03*
%TO.P,C17,1*%
%TO.N,+3V3*%
X167907000Y-105664000D03*
%TD*%
D13*
%TO.P,R6,2*%
%TO.N,VBUS*%
X151912000Y-127083000D03*
%TO.P,R6,1*%
%TO.N,Net-(R6-Pad1)*%
X151912000Y-125433000D03*
%TD*%
D16*
%TO.P,C10,1*%
%TO.N,+2V8*%
X163100500Y-122357000D03*
%TO.P,C10,2*%
%TO.N,Net-(C10-Pad2)*%
X163100500Y-123907000D03*
%TD*%
%TO.P,C9,2*%
%TO.N,Net-(C9-Pad2)*%
X151892000Y-123965000D03*
%TO.P,C9,1*%
%TO.N,+3V3*%
X151892000Y-122415000D03*
%TD*%
%TO.P,C13,1*%
%TO.N,+2V8*%
X166148500Y-122357000D03*
%TO.P,C13,2*%
%TO.N,GND*%
X166148500Y-123907000D03*
%TD*%
D14*
%TO.P,U7,1,EN*%
%TO.N,VBUS*%
X158802500Y-124206000D03*
%TO.P,U7,2,GND*%
%TO.N,GND*%
X158802500Y-125156000D03*
%TO.P,U7,3,SW*%
%TO.N,Net-(L2-Pad1)*%
X158802500Y-126106000D03*
%TO.P,U7,4,VIN*%
%TO.N,VBUS*%
X161302500Y-126106000D03*
%TO.P,U7,5,PG*%
%TO.N,Net-(R7-Pad1)*%
X161302500Y-125156000D03*
%TO.P,U7,6,FB*%
%TO.N,Net-(C10-Pad2)*%
X161302500Y-124206000D03*
%TD*%
D12*
%TO.P,C5,1*%
%TO.N,+3V3*%
X140983000Y-101094000D03*
%TO.P,C5,2*%
%TO.N,GND*%
X139433000Y-101094000D03*
%TD*%
D23*
%TO.P,R23,2*%
%TO.N,GND*%
X165862000Y-108649000D03*
%TO.P,R23,1*%
%TO.N,PWDN*%
X165862000Y-110299000D03*
%TD*%
D17*
%TO.P,L1,2,2*%
%TO.N,+3V3*%
X150393500Y-122428000D03*
%TO.P,L1,1,1*%
%TO.N,Net-(L1-Pad1)*%
X148818500Y-122428000D03*
%TD*%
D13*
%TO.P,R13,1*%
%TO.N,Net-(C10-Pad2)*%
X164644500Y-125367000D03*
%TO.P,R13,2*%
%TO.N,Net-(R13-Pad2)*%
X164644500Y-127017000D03*
%TD*%
D19*
%TO.P,R20,1*%
%TO.N,+3V3*%
X171895000Y-117348000D03*
%TO.P,R20,2*%
%TO.N,OV_RESET*%
X173545000Y-117348000D03*
%TD*%
D27*
%TO.P,D1,2,A*%
%TO.N,Net-(D1-Pad2)*%
X138895000Y-127000000D03*
%TO.P,D1,1,K*%
%TO.N,VBUS*%
X143045000Y-127000000D03*
%TD*%
D13*
%TO.P,R18,2*%
%TO.N,GND*%
X156484000Y-127083000D03*
%TO.P,R18,1*%
%TO.N,Net-(D3-Pad1)*%
X156484000Y-125433000D03*
%TD*%
D16*
%TO.P,C12,2*%
%TO.N,GND*%
X154940000Y-123973000D03*
%TO.P,C12,1*%
%TO.N,+3V3*%
X154940000Y-122423000D03*
%TD*%
D17*
%TO.P,L2,1,1*%
%TO.N,Net-(L2-Pad1)*%
X160027000Y-122362000D03*
%TO.P,L2,2,2*%
%TO.N,+2V8*%
X161602000Y-122362000D03*
%TD*%
D13*
%TO.P,R12,1*%
%TO.N,+2V8*%
X164644500Y-122319000D03*
%TO.P,R12,2*%
%TO.N,Net-(C10-Pad2)*%
X164644500Y-123969000D03*
%TD*%
D23*
%TO.P,R11,2*%
%TO.N,GND*%
X154920000Y-125393000D03*
%TO.P,R11,1*%
%TO.N,Net-(R10-Pad2)*%
X154920000Y-127043000D03*
%TD*%
D18*
%TO.P,R4,1*%
%TO.N,Net-(D2-Pad2)*%
X146748500Y-120618000D03*
%TO.P,R4,2*%
%TO.N,GND*%
X145098500Y-120618000D03*
%TD*%
D12*
%TO.P,C7,1*%
%TO.N,VBUS*%
X160287000Y-127762000D03*
%TO.P,C7,2*%
%TO.N,GND*%
X158737000Y-127762000D03*
%TD*%
D13*
%TO.P,R19,1*%
%TO.N,Net-(D4-Pad1)*%
X167692500Y-125367000D03*
%TO.P,R19,2*%
%TO.N,GND*%
X167692500Y-127017000D03*
%TD*%
D28*
%TO.P,U5,1,GND_1*%
%TO.N,GND*%
X143425000Y-98495000D03*
D29*
%TO.P,U5,2,3V3*%
%TO.N,+3V3*%
X143425000Y-99757000D03*
D28*
%TO.P,U5,3,EN*%
%TO.N,RESET*%
X143425000Y-101035000D03*
D29*
%TO.P,U5,4,IO4*%
%TO.N,unconnected-(U5-Pad4)*%
X143425000Y-102297000D03*
D28*
%TO.P,U5,5,IO5*%
%TO.N,unconnected-(U5-Pad5)*%
X143425000Y-103575000D03*
D29*
%TO.P,U5,6,IO6*%
%TO.N,unconnected-(U5-Pad6)*%
X143425000Y-104837000D03*
D28*
%TO.P,U5,7,IO7*%
%TO.N,unconnected-(U5-Pad7)*%
X143425000Y-106115000D03*
%TO.P,U5,8,IO15*%
%TO.N,unconnected-(U5-Pad8)*%
X143425000Y-107385000D03*
%TO.P,U5,9,IO16*%
%TO.N,unconnected-(U5-Pad9)*%
X143425000Y-108655000D03*
%TO.P,U5,10,IO17*%
%TO.N,unconnected-(U5-Pad10)*%
X143425000Y-109925000D03*
%TO.P,U5,11,IO18*%
%TO.N,unconnected-(U5-Pad11)*%
X143425000Y-111195000D03*
%TO.P,U5,12,IO8*%
%TO.N,unconnected-(U5-Pad12)*%
X143425000Y-112465000D03*
%TO.P,U5,13,IO19*%
%TO.N,USB_JTAG_D-*%
X143425000Y-113735000D03*
%TO.P,U5,14,IO20*%
%TO.N,USB_JTAG_D+*%
X143425000Y-115005000D03*
D30*
%TO.P,U5,15,IO3*%
%TO.N,Net-(R22-Pad1)*%
X145520000Y-116488000D03*
%TO.P,U5,16,IO46*%
%TO.N,Net-(D2-Pad2)*%
X146790000Y-116488000D03*
%TO.P,U5,17,IO9*%
%TO.N,unconnected-(U5-Pad17)*%
X148060000Y-116488000D03*
%TO.P,U5,18,IO10*%
%TO.N,unconnected-(U5-Pad18)*%
X149330000Y-116488000D03*
%TO.P,U5,19,IO11*%
%TO.N,unconnected-(U5-Pad19)*%
X150600000Y-116488000D03*
%TO.P,U5,20,IO12*%
%TO.N,IO12*%
X151870000Y-116488000D03*
%TO.P,U5,21,IO13*%
%TO.N,IO13*%
X153140000Y-116488000D03*
%TO.P,U5,22,IO14*%
%TO.N,unconnected-(U5-Pad22)*%
X154410000Y-116488000D03*
%TO.P,U5,23,IO21*%
%TO.N,unconnected-(U5-Pad23)*%
X155680000Y-116488000D03*
%TO.P,U5,24,IO47*%
%TO.N,SIO_D*%
X156950000Y-116488000D03*
%TO.P,U5,25,IO48*%
%TO.N,SIO_C*%
X158220000Y-116488000D03*
%TO.P,U5,26,IO45*%
%TO.N,Net-(R5-Pad1)*%
X159490000Y-116488000D03*
D28*
%TO.P,U5,27,IO0*%
%TO.N,IO0_BOOT*%
X161585000Y-115005000D03*
%TO.P,U5,28,IO35*%
%TO.N,VSYNC*%
X161585000Y-113735000D03*
%TO.P,U5,29,IO36*%
%TO.N,HREF*%
X161585000Y-112465000D03*
%TO.P,U5,30,IO37*%
%TO.N,Y9*%
X161585000Y-111195000D03*
%TO.P,U5,31,IO38*%
%TO.N,XCLK*%
X161585000Y-109925000D03*
%TO.P,U5,32,IO39*%
%TO.N,Y8*%
X161585000Y-108655000D03*
%TO.P,U5,33,IO40*%
%TO.N,Y7*%
X161585000Y-107385000D03*
%TO.P,U5,34,IO41*%
%TO.N,PCLK*%
X161585000Y-106115000D03*
%TO.P,U5,35,IO42*%
%TO.N,Y6*%
X161585000Y-104845000D03*
%TO.P,U5,36,RXD0*%
%TO.N,Y2*%
X161585000Y-103575000D03*
%TO.P,U5,37,TXD0*%
%TO.N,Y5*%
X161585000Y-102305000D03*
%TO.P,U5,38,IO2*%
%TO.N,Y3*%
X161585000Y-101035000D03*
%TO.P,U5,39,IO1*%
%TO.N,Y4*%
X161585000Y-99765000D03*
%TO.P,U5,40,GND_2*%
%TO.N,GND*%
X161585000Y-98495000D03*
D31*
%TO.P,U5,41,GND_3*%
X151005000Y-106215000D03*
%TO.P,U5,42,GND_4*%
X151005000Y-104815000D03*
%TO.P,U5,43,GND_5*%
X149605000Y-104815000D03*
%TO.P,U5,44,GND_6*%
X149605000Y-106215000D03*
%TO.P,U5,45,GND_7*%
X149605000Y-107615000D03*
%TO.P,U5,46,GND_8*%
X151005000Y-107615000D03*
%TO.P,U5,47,GND_9*%
X152405000Y-107615000D03*
%TO.P,U5,48,GND_10*%
X152405000Y-106215000D03*
%TO.P,U5,49,GND_11*%
X152405000Y-104815000D03*
%TD*%
D13*
%TO.P,R7,1*%
%TO.N,Net-(R7-Pad1)*%
X163100500Y-125410000D03*
%TO.P,R7,2*%
%TO.N,VBUS*%
X163100500Y-127060000D03*
%TD*%
D32*
%TO.N,GND*%
X169418000Y-126238000D03*
X158242000Y-122428000D03*
X163830000Y-98806000D03*
X167132000Y-108204000D03*
X178054000Y-125984000D03*
X137922000Y-108458000D03*
%TO.N,+3V3*%
X138176000Y-101600000D03*
X155194000Y-120396000D03*
%TO.N,GND*%
X171196000Y-114808000D03*
%TO.N,+3V3*%
X170946500Y-117856000D03*
X169265891Y-106936094D03*
X165608000Y-114046000D03*
%TO.N,GND*%
X167894000Y-116332000D03*
X169418000Y-120142000D03*
%TO.N,OV_RESET*%
X167894000Y-113538000D03*
X175006000Y-117602000D03*
%TD*%
D33*
%TO.N,VBUS*%
X163100500Y-127060000D02*
X163782500Y-127742000D01*
X163782500Y-127742000D02*
X169080727Y-127742000D01*
X169080727Y-127742000D02*
X170076727Y-126746000D01*
X170076727Y-126746000D02*
X174739000Y-126746000D01*
X160287000Y-127762000D02*
X160287000Y-127121500D01*
X160287000Y-127121500D02*
X160677500Y-126731000D01*
X151912000Y-127083000D02*
X152637000Y-127808000D01*
X152637000Y-127808000D02*
X156976462Y-127808000D01*
X156976462Y-127808000D02*
X158020500Y-126763962D01*
X148857000Y-128016000D02*
X148857000Y-127013000D01*
X148857000Y-127013000D02*
X148844000Y-127000000D01*
%TO.N,+3V3*%
X140983000Y-99566000D02*
X141174000Y-99757000D01*
X141174000Y-99757000D02*
X143425000Y-99757000D01*
%TO.N,RESET*%
X141033000Y-102618000D02*
X142616000Y-101035000D01*
X142616000Y-101035000D02*
X143425000Y-101035000D01*
%TO.N,IO12*%
X139760000Y-123190000D02*
X141224000Y-121726000D01*
X141224000Y-121726000D02*
X141224000Y-121666000D01*
X141224000Y-121666000D02*
X147574000Y-121666000D01*
X147574000Y-121666000D02*
X151870000Y-117370000D01*
X151870000Y-117370000D02*
X151870000Y-116488000D01*
%TO.N,IO13*%
X142360000Y-123190000D02*
X143431500Y-122118500D01*
X143431500Y-122118500D02*
X147884021Y-122118500D01*
X147884021Y-122118500D02*
X149606521Y-120396000D01*
X149606521Y-120396000D02*
X151892000Y-120396000D01*
X151892000Y-120396000D02*
X153140000Y-119148000D01*
X153140000Y-119148000D02*
X153140000Y-116488000D01*
%TO.N,VBUS*%
X143045000Y-127000000D02*
X146304000Y-127000000D01*
X146304000Y-127000000D02*
X146558000Y-126746000D01*
%TO.N,Net-(D1-Pad2)*%
X139456000Y-113508000D02*
X138460000Y-113508000D01*
X138231000Y-113737000D02*
X138231000Y-117283000D01*
X138460000Y-113508000D02*
X138231000Y-113737000D01*
X138231000Y-117283000D02*
X138430000Y-117482000D01*
X138430000Y-117482000D02*
X138430000Y-119126000D01*
X138430000Y-119126000D02*
X135890000Y-121666000D01*
X135890000Y-121666000D02*
X135890000Y-124460000D01*
X135890000Y-124460000D02*
X138430000Y-127000000D01*
X138430000Y-127000000D02*
X138895000Y-127000000D01*
%TO.N,+3V3*%
X156464000Y-122402500D02*
X156464000Y-120841000D01*
X156464000Y-120841000D02*
X156675000Y-120630000D01*
%TO.N,GND*%
X170454000Y-123444000D02*
X171329000Y-123444000D01*
X168367395Y-123099000D02*
X166956500Y-123099000D01*
X171329000Y-123444000D02*
X171508000Y-123265000D01*
X171508000Y-123265000D02*
X171508000Y-121973000D01*
X166956500Y-123099000D02*
X166148500Y-123907000D01*
X171508000Y-121973000D02*
X171404000Y-121869000D01*
X171404000Y-121869000D02*
X169597395Y-121869000D01*
X169597395Y-121869000D02*
X168367395Y-123099000D01*
%TO.N,VBUS*%
X158020500Y-126763962D02*
X158020500Y-126731000D01*
%TO.N,GND*%
X156484000Y-127083000D02*
X156889000Y-127083000D01*
X159677500Y-125156000D02*
X158802500Y-125156000D01*
X156889000Y-127083000D02*
X157402500Y-126569500D01*
X157402500Y-126569500D02*
X157402500Y-123775500D01*
X157402500Y-123775500D02*
X157800000Y-123378000D01*
X157800000Y-123378000D02*
X159549500Y-123378000D01*
X159549500Y-123378000D02*
X159752500Y-123581000D01*
X159752500Y-125081000D02*
X159677500Y-125156000D01*
X159752500Y-123581000D02*
X159752500Y-125081000D01*
%TO.N,+2V8*%
X170979999Y-119850000D02*
X168493499Y-122336500D01*
X168493499Y-122336500D02*
X167672500Y-122336500D01*
%TO.N,VBUS*%
X170485000Y-125019000D02*
X169469000Y-125019000D01*
X172329000Y-125019000D02*
X170485000Y-125019000D01*
X160677500Y-126731000D02*
X158257000Y-126731000D01*
X158257000Y-126731000D02*
X158020500Y-126731000D01*
X158053462Y-126731000D02*
X158257000Y-126731000D01*
X146558000Y-126746000D02*
X146558000Y-125730000D01*
X146558000Y-125730000D02*
X146558000Y-124714000D01*
%TO.N,+3V3*%
X140983000Y-99566000D02*
X140983000Y-98046000D01*
X140983000Y-101094000D02*
X140983000Y-99566000D01*
X139383000Y-102362000D02*
X139459000Y-102362000D01*
X139459000Y-102618000D02*
X140983000Y-101094000D01*
%TO.N,VSYNC*%
X173010000Y-109430000D02*
X168700000Y-109430000D01*
X164395000Y-113735000D02*
X161585000Y-113735000D01*
X168700000Y-109430000D02*
X164395000Y-113735000D01*
%TO.N,PWDN*%
X168209123Y-108930000D02*
X173010000Y-108930000D01*
X168160562Y-108978561D02*
X168209123Y-108930000D01*
X165862000Y-110299000D02*
X166840123Y-110299000D01*
X166840123Y-110299000D02*
X168160562Y-108978561D01*
%TO.N,HREF*%
X173010000Y-108430000D02*
X168072727Y-108430000D01*
X168072727Y-108430000D02*
X166928727Y-109574000D01*
X162478538Y-112465000D02*
X161585000Y-112465000D01*
X166928727Y-109574000D02*
X165369538Y-109574000D01*
X165369538Y-109574000D02*
X162478538Y-112465000D01*
%TO.N,GND*%
X167132000Y-108204000D02*
X166307000Y-108204000D01*
X166307000Y-108204000D02*
X165862000Y-108649000D01*
X166357000Y-107188000D02*
X166357000Y-107429000D01*
X166357000Y-107429000D02*
X167132000Y-108204000D01*
%TO.N,RESET*%
X141033000Y-102362000D02*
X141033000Y-102299000D01*
X140983000Y-104142000D02*
X140983000Y-102668000D01*
X140983000Y-102412000D02*
X141033000Y-102362000D01*
X140442000Y-106172000D02*
X140442000Y-104427000D01*
X140442000Y-104427000D02*
X140983000Y-103886000D01*
%TO.N,+3V3*%
X138176000Y-101600000D02*
X138621000Y-101600000D01*
X138621000Y-101856000D02*
X139383000Y-102618000D01*
%TO.N,Net-(R22-Pad1)*%
X142006000Y-119083000D02*
X144601000Y-116488000D01*
X144601000Y-116488000D02*
X145520000Y-116488000D01*
%TO.N,Net-(D2-Pad1)*%
X145156000Y-119047000D02*
X143566000Y-119047000D01*
X143566000Y-119047000D02*
X143530000Y-119083000D01*
%TO.N,Net-(D2-Pad2)*%
X146748500Y-120618000D02*
X146790000Y-120576500D01*
X146790000Y-120576500D02*
X146790000Y-116488000D01*
%TO.N,+3V3*%
X156441000Y-120396000D02*
X156675000Y-120630000D01*
X155194000Y-120396000D02*
X156441000Y-120396000D01*
X170946500Y-117856000D02*
X171387000Y-117856000D01*
X171387000Y-117856000D02*
X171895000Y-117348000D01*
X169265891Y-106936094D02*
X169759797Y-107430000D01*
X169759797Y-107430000D02*
X173010000Y-107430000D01*
X169265891Y-106936094D02*
X169179094Y-106936094D01*
X169179094Y-106936094D02*
X167907000Y-105664000D01*
X165658000Y-115316000D02*
X165658000Y-114096000D01*
X165658000Y-114096000D02*
X165608000Y-114046000D01*
%TO.N,Y4*%
X173010000Y-101930000D02*
X171531584Y-101930000D01*
X171531584Y-101930000D02*
X170415584Y-100814000D01*
X170415584Y-100814000D02*
X165076000Y-100814000D01*
X165076000Y-100814000D02*
X164027000Y-99765000D01*
X164027000Y-99765000D02*
X161585000Y-99765000D01*
%TO.N,Y3*%
X170229188Y-101264000D02*
X164846000Y-101264000D01*
X171395188Y-102430000D02*
X170229188Y-101264000D01*
X173010000Y-102430000D02*
X171395188Y-102430000D01*
X164846000Y-101264000D02*
X164617000Y-101035000D01*
X164617000Y-101035000D02*
X161585000Y-101035000D01*
%TO.N,Y5*%
X173010000Y-102930000D02*
X171258792Y-102930000D01*
X171258792Y-102930000D02*
X170042792Y-101714000D01*
X170042792Y-101714000D02*
X163970000Y-101714000D01*
X163970000Y-101714000D02*
X163379000Y-102305000D01*
X163379000Y-102305000D02*
X161585000Y-102305000D01*
%TO.N,Y2*%
X173010000Y-103430000D02*
X171122396Y-103430000D01*
X171122396Y-103430000D02*
X169856396Y-102164000D01*
X169856396Y-102164000D02*
X164536000Y-102164000D01*
X164536000Y-102164000D02*
X163125000Y-103575000D01*
X163125000Y-103575000D02*
X161585000Y-103575000D01*
%TO.N,Y6*%
X161585000Y-104845000D02*
X162614208Y-104845000D01*
X162614208Y-104845000D02*
X164845208Y-102614000D01*
X164845208Y-102614000D02*
X169670000Y-102614000D01*
X169670000Y-102614000D02*
X170986000Y-103930000D01*
X170986000Y-103930000D02*
X173010000Y-103930000D01*
%TO.N,PCLK*%
X173010000Y-104430000D02*
X170601188Y-104430000D01*
X170601188Y-104430000D02*
X169235188Y-103064000D01*
X163322000Y-104773604D02*
X163322000Y-105664000D01*
X169235188Y-103064000D02*
X165031604Y-103064000D01*
X165031604Y-103064000D02*
X163322000Y-104773604D01*
X163322000Y-105664000D02*
X162871000Y-106115000D01*
X162871000Y-106115000D02*
X161585000Y-106115000D01*
%TO.N,Y7*%
X173010000Y-104930000D02*
X170464792Y-104930000D01*
X169048792Y-103514000D02*
X165218000Y-103514000D01*
X170464792Y-104930000D02*
X169048792Y-103514000D01*
X165218000Y-103514000D02*
X163830000Y-104902000D01*
X163830000Y-104902000D02*
X163830000Y-106680000D01*
X163830000Y-106680000D02*
X163125000Y-107385000D01*
X163125000Y-107385000D02*
X161585000Y-107385000D01*
%TO.N,Y8*%
X173010000Y-105930000D02*
X170828396Y-105930000D01*
X170828396Y-105930000D02*
X168862396Y-103964000D01*
X165527208Y-103964000D02*
X164338000Y-105153208D01*
X168862396Y-103964000D02*
X165527208Y-103964000D01*
X164338000Y-105153208D02*
X164338000Y-106934000D01*
X164338000Y-106934000D02*
X162617000Y-108655000D01*
X162617000Y-108655000D02*
X161585000Y-108655000D01*
%TO.N,XCLK*%
X173010000Y-106430000D02*
X170692000Y-106430000D01*
X165713604Y-104414000D02*
X164839373Y-105288231D01*
X170692000Y-106430000D02*
X168676000Y-104414000D01*
X168676000Y-104414000D02*
X165713604Y-104414000D01*
X163888000Y-108966000D02*
X162929000Y-109925000D01*
X164839373Y-105288231D02*
X164839373Y-107435373D01*
X162929000Y-109925000D02*
X161585000Y-109925000D01*
X164839373Y-107435373D02*
X163888000Y-108386746D01*
X163888000Y-108386746D02*
X163888000Y-108966000D01*
%TO.N,Y9*%
X173010000Y-106930000D02*
X170425817Y-106930000D01*
X168402000Y-104902000D02*
X168364000Y-104864000D01*
X168364000Y-104864000D02*
X165900000Y-104864000D01*
X164338000Y-109728000D02*
X162871000Y-111195000D01*
X170425817Y-106930000D02*
X168402000Y-104906183D01*
X164338000Y-108573142D02*
X164338000Y-109728000D01*
X168402000Y-104906183D02*
X168402000Y-104902000D01*
X165900000Y-104864000D02*
X165354000Y-105410000D01*
X165354000Y-105410000D02*
X165354000Y-107557142D01*
X162871000Y-111195000D02*
X161585000Y-111195000D01*
X165354000Y-107557142D02*
X164338000Y-108573142D01*
%TO.N,+3V3*%
X167907000Y-105664000D02*
X168148000Y-105664000D01*
%TO.N,+1V2*%
X168148000Y-107188000D02*
X168910000Y-107950000D01*
X167907000Y-107188000D02*
X168148000Y-107188000D01*
X168910000Y-107950000D02*
X168930000Y-107930000D01*
X168930000Y-107930000D02*
X173010000Y-107930000D01*
%TO.N,IO0_BOOT*%
X164008000Y-115316000D02*
X163697000Y-115005000D01*
X163697000Y-115005000D02*
X161585000Y-115005000D01*
X164058000Y-116840000D02*
X164058000Y-115366000D01*
X164058000Y-115366000D02*
X164008000Y-115316000D01*
X164599000Y-118872000D02*
X164599000Y-117381000D01*
X164599000Y-117381000D02*
X164058000Y-116840000D01*
%TO.N,OV_RESET*%
X167894000Y-110998000D02*
X167894000Y-113538000D01*
X169573787Y-110490000D02*
X168402000Y-110490000D01*
X168402000Y-110490000D02*
X167894000Y-110998000D01*
X170083787Y-109980000D02*
X169820183Y-110243604D01*
X171450000Y-109980000D02*
X170083787Y-109980000D01*
X175006000Y-117602000D02*
X173799000Y-117602000D01*
X171500000Y-109930000D02*
X171450000Y-109980000D01*
X173010000Y-109930000D02*
X171500000Y-109930000D01*
X169820183Y-110243604D02*
X169573787Y-110490000D01*
X173799000Y-117602000D02*
X173545000Y-117348000D01*
%TO.N,SIO_C*%
X169672000Y-111028183D02*
X170270183Y-110430000D01*
X170270183Y-110430000D02*
X173010000Y-110430000D01*
%TO.N,OV_RESET*%
X173495000Y-118872000D02*
X173495000Y-117398000D01*
X173495000Y-117398000D02*
X173545000Y-117348000D01*
%TO.N,Net-(R5-Pad1)*%
X159723000Y-118852000D02*
X159723000Y-116721000D01*
X159723000Y-116721000D02*
X159490000Y-116488000D01*
%TO.N,+3V3*%
X156675000Y-120630000D02*
X156675000Y-119614000D01*
X156675000Y-119614000D02*
X155913000Y-118852000D01*
%TO.N,SIO_C*%
X158325000Y-120630000D02*
X158325000Y-116593000D01*
X158325000Y-116593000D02*
X158220000Y-116488000D01*
%TO.N,SIO_D*%
X157563000Y-118852000D02*
X157563000Y-118701000D01*
X157563000Y-118701000D02*
X156950000Y-118088000D01*
X156950000Y-118088000D02*
X156950000Y-116488000D01*
X173010000Y-111430000D02*
X172010000Y-111430000D01*
X157752000Y-121430000D02*
X157563000Y-121241000D01*
X172010000Y-111430000D02*
X170122000Y-113318000D01*
X170122000Y-118168000D02*
X166860000Y-121430000D01*
X170122000Y-113318000D02*
X170122000Y-118168000D01*
X166860000Y-121430000D02*
X157752000Y-121430000D01*
X157563000Y-121241000D02*
X157563000Y-118852000D01*
%TO.N,SIO_C*%
X169672000Y-117914330D02*
X166956330Y-120630000D01*
X169672000Y-111028183D02*
X169672000Y-117914330D01*
X166956330Y-120630000D02*
X158325000Y-120630000D01*
%TO.N,+2V8*%
X173010000Y-110930000D02*
X171023000Y-110930000D01*
X171023000Y-110930000D02*
X170447000Y-111506000D01*
X170979999Y-119850000D02*
X175552000Y-119850000D01*
X177292000Y-118110000D02*
X177292000Y-112268000D01*
X175954000Y-110930000D02*
X173010000Y-110930000D01*
X175552000Y-119850000D02*
X177292000Y-118110000D01*
X177292000Y-112268000D02*
X175954000Y-110930000D01*
%TO.N,+1V2*%
X177800000Y-120645000D02*
X177800000Y-111720000D01*
X174010000Y-107930000D02*
X173010000Y-107930000D01*
X177800000Y-111720000D02*
X174010000Y-107930000D01*
%TO.N,VBUS*%
X147571000Y-124249000D02*
X147594000Y-124272000D01*
D34*
%TO.N,USB_JTAG_D+*%
X139456000Y-114808000D02*
X143228000Y-114808000D01*
X143228000Y-114808000D02*
X143425000Y-115005000D01*
%TO.N,USB_JTAG_D-*%
X140096000Y-114158000D02*
X140208000Y-114046000D01*
X139456000Y-114158000D02*
X140096000Y-114158000D01*
X140208000Y-114046000D02*
X143114000Y-114046000D01*
X143114000Y-114046000D02*
X143425000Y-113735000D01*
D33*
%TO.N,GND*%
X167692500Y-127017000D02*
X167692500Y-126891000D01*
X167692500Y-126891000D02*
X166128500Y-125327000D01*
X148590000Y-125101000D02*
X148590000Y-123698000D01*
X148469000Y-125222000D02*
X148590000Y-125101000D01*
X147594000Y-125222000D02*
X148469000Y-125222000D01*
%TO.N,Net-(L2-Pad1)*%
X158802500Y-126106000D02*
X159610500Y-126106000D01*
X159610500Y-126106000D02*
X160306500Y-125410000D01*
X160306500Y-125410000D02*
X160306500Y-122641500D01*
X160306500Y-122641500D02*
X160027000Y-122362000D01*
%TO.N,GND*%
X156484000Y-127083000D02*
X156484000Y-126957000D01*
X156484000Y-126957000D02*
X154920000Y-125393000D01*
%TO.N,VBUS*%
X172954000Y-124394000D02*
X173861000Y-124394000D01*
X174739000Y-125338000D02*
X174772000Y-125305000D01*
%TO.N,Net-(R8-Pad1)*%
X174561000Y-123444000D02*
X174772000Y-123655000D01*
%TO.N,Net-(C11-Pad2)*%
X174445000Y-122494000D02*
X174752000Y-122187000D01*
%TO.N,Net-(L3-Pad1)*%
X170454000Y-124394000D02*
X171262000Y-124394000D01*
%TO.N,VBUS*%
X173861000Y-124394000D02*
X174772000Y-125305000D01*
X174739000Y-126746000D02*
X174739000Y-125338000D01*
%TO.N,Net-(C11-Pad2)*%
X176276000Y-122292000D02*
X176276000Y-123635000D01*
%TO.N,Net-(L3-Pad1)*%
X171958000Y-120929500D02*
X171678500Y-120650000D01*
%TO.N,+1V2*%
X177795000Y-120650000D02*
X177800000Y-120645000D01*
%TO.N,Net-(R8-Pad1)*%
X172954000Y-123444000D02*
X174561000Y-123444000D01*
%TO.N,Net-(L3-Pad1)*%
X171958000Y-123698000D02*
X171958000Y-120929500D01*
%TO.N,VBUS*%
X169164000Y-123190000D02*
X169860000Y-122494000D01*
%TO.N,Net-(C11-Pad2)*%
X176171000Y-122187000D02*
X176276000Y-122292000D01*
X172954000Y-122494000D02*
X174445000Y-122494000D01*
%TO.N,VBUS*%
X169860000Y-122494000D02*
X170454000Y-122494000D01*
%TO.N,Net-(C11-Pad2)*%
X174752000Y-122187000D02*
X176171000Y-122187000D01*
%TO.N,VBUS*%
X172954000Y-124394000D02*
X172329000Y-125019000D01*
X169469000Y-125019000D02*
X169164000Y-124714000D01*
%TO.N,Net-(L3-Pad1)*%
X171262000Y-124394000D02*
X171958000Y-123698000D01*
%TO.N,Net-(C11-Pad2)*%
X176276000Y-123635000D02*
X176296000Y-123655000D01*
%TO.N,+1V2*%
X173253500Y-120650000D02*
X177795000Y-120650000D01*
%TO.N,Net-(D3-Pad1)*%
X156484000Y-125433000D02*
X156484000Y-123997500D01*
X156484000Y-123997500D02*
X156464000Y-123977500D01*
%TO.N,Net-(R6-Pad1)*%
X150094000Y-125222000D02*
X151701000Y-125222000D01*
X151701000Y-125222000D02*
X151912000Y-125433000D01*
%TO.N,VBUS*%
X169164000Y-124714000D02*
X169164000Y-123190000D01*
%TO.N,Net-(R10-Pad2)*%
X153436000Y-127083000D02*
X154880000Y-127083000D01*
X154880000Y-127083000D02*
X154920000Y-127043000D01*
%TO.N,Net-(D4-Pad1)*%
X167692500Y-125367000D02*
X167692500Y-123931500D01*
X167692500Y-123931500D02*
X167672500Y-123911500D01*
%TO.N,Net-(R13-Pad2)*%
X164644500Y-127017000D02*
X166088500Y-127017000D01*
X166088500Y-127017000D02*
X166128500Y-126977000D01*
%TO.N,VBUS*%
X161302500Y-126106000D02*
X160677500Y-126731000D01*
X158020500Y-126731000D02*
X157852500Y-126563000D01*
X157852500Y-126563000D02*
X157852500Y-124562000D01*
X157852500Y-124562000D02*
X158208500Y-124206000D01*
X158208500Y-124206000D02*
X158802500Y-124206000D01*
X163100500Y-127060000D02*
X162256500Y-127060000D01*
X162256500Y-127060000D02*
X161302500Y-126106000D01*
X163074500Y-127086000D02*
X163100500Y-127060000D01*
%TO.N,Net-(R7-Pad1)*%
X161302500Y-125156000D02*
X162846500Y-125156000D01*
X162846500Y-125156000D02*
X163100500Y-125410000D01*
%TO.N,Net-(C10-Pad2)*%
X164644500Y-123969000D02*
X164644500Y-125367000D01*
X163100500Y-123907000D02*
X164582500Y-123907000D01*
X164582500Y-123907000D02*
X164644500Y-123969000D01*
X161302500Y-124206000D02*
X162801500Y-124206000D01*
X162801500Y-124206000D02*
X163100500Y-123907000D01*
%TO.N,+2V8*%
X161602000Y-122362000D02*
X167647000Y-122362000D01*
X167647000Y-122362000D02*
X167672500Y-122336500D01*
%TO.N,+3V3*%
X150393500Y-122428000D02*
X156438500Y-122428000D01*
X156438500Y-122428000D02*
X156464000Y-122402500D01*
%TO.N,Net-(R10-Pad2)*%
X153436000Y-127083000D02*
X153436000Y-126957000D01*
%TO.N,Net-(C9-Pad2)*%
X153436000Y-124035000D02*
X153436000Y-125433000D01*
X151892000Y-123965000D02*
X153366000Y-123965000D01*
X153366000Y-123965000D02*
X153436000Y-124035000D01*
X150094000Y-124272000D02*
X151585000Y-124272000D01*
X151585000Y-124272000D02*
X151892000Y-123965000D01*
%TO.N,Net-(L1-Pad1)*%
X147594000Y-126172000D02*
X148656000Y-126172000D01*
X148656000Y-126172000D02*
X149144000Y-125684000D01*
X149144000Y-125684000D02*
X149144000Y-122753500D01*
X149144000Y-122753500D02*
X148818500Y-122428000D01*
%TO.N,VBUS*%
X150094000Y-126172000D02*
X149672000Y-126172000D01*
X146558000Y-124714000D02*
X147000000Y-124272000D01*
X149672000Y-126172000D02*
X148844000Y-127000000D01*
X148844000Y-127000000D02*
X146812000Y-127000000D01*
X146812000Y-127000000D02*
X146558000Y-126746000D01*
X147000000Y-124272000D02*
X147594000Y-124272000D01*
X151912000Y-127083000D02*
X151005000Y-127083000D01*
X151005000Y-127083000D02*
X150094000Y-126172000D01*
X151879000Y-127116000D02*
X151912000Y-127083000D01*
%TD*%
%TA.AperFunction,Conductor*%
%TO.N,GND*%
G36*
X178828691Y-96739407D02*
G01*
X178864655Y-96788907D01*
X178869500Y-96819500D01*
X178869500Y-121553161D01*
X178850593Y-121611352D01*
X178801093Y-121647316D01*
X178739907Y-121647316D01*
X178690407Y-121611352D01*
X178686315Y-121605256D01*
X178631384Y-121516488D01*
X178624289Y-121507537D01*
X178511461Y-121394905D01*
X178502497Y-121387826D01*
X178381092Y-121312992D01*
X178341477Y-121266362D01*
X178336836Y-121205353D01*
X178363036Y-121158712D01*
X178398528Y-121123220D01*
X178402605Y-121115220D01*
X178456183Y-121010066D01*
X178456183Y-121010065D01*
X178459719Y-121003126D01*
X178461100Y-120994411D01*
X178474891Y-120907334D01*
X178474891Y-120907332D01*
X178475500Y-120903488D01*
X178475500Y-120386512D01*
X178472037Y-120364647D01*
X178460938Y-120294569D01*
X178460938Y-120294568D01*
X178459719Y-120286874D01*
X178432984Y-120234403D01*
X178402064Y-120173719D01*
X178402063Y-120173717D01*
X178398528Y-120166780D01*
X178303220Y-120071472D01*
X178296283Y-120067937D01*
X178296281Y-120067936D01*
X178183126Y-120010281D01*
X178184260Y-120008055D01*
X178144412Y-119979108D01*
X178125500Y-119920911D01*
X178125500Y-111738522D01*
X178125877Y-111729893D01*
X178128508Y-111699822D01*
X178129263Y-111691193D01*
X178119205Y-111653657D01*
X178117337Y-111645231D01*
X178114631Y-111629885D01*
X178110588Y-111606955D01*
X178106255Y-111599450D01*
X178104262Y-111593973D01*
X178101795Y-111588682D01*
X178099553Y-111580316D01*
X178077264Y-111548484D01*
X178072628Y-111541206D01*
X178072016Y-111540145D01*
X178062847Y-111524264D01*
X178057524Y-111515044D01*
X178057523Y-111515042D01*
X178053194Y-111507545D01*
X178023436Y-111482575D01*
X178017068Y-111476741D01*
X174253269Y-107712943D01*
X174247434Y-107706575D01*
X174222455Y-107676806D01*
X174188792Y-107657371D01*
X174181511Y-107652732D01*
X174179056Y-107651013D01*
X174149684Y-107630446D01*
X174141316Y-107628204D01*
X174136029Y-107625738D01*
X174130544Y-107623742D01*
X174123045Y-107619412D01*
X174114519Y-107617909D01*
X174114517Y-107617908D01*
X174084784Y-107612666D01*
X174076349Y-107610796D01*
X174047174Y-107602978D01*
X174038807Y-107600736D01*
X174030177Y-107601491D01*
X174018128Y-107602545D01*
X173958511Y-107588781D01*
X173918370Y-107542604D01*
X173910500Y-107503922D01*
X173910500Y-107260252D01*
X173898867Y-107201769D01*
X173902164Y-107201113D01*
X173898797Y-107158336D01*
X173898867Y-107158231D01*
X173910500Y-107099748D01*
X173910500Y-106760252D01*
X173898867Y-106701769D01*
X173902164Y-106701113D01*
X173898797Y-106658336D01*
X173898867Y-106658231D01*
X173910500Y-106599748D01*
X173910500Y-106260252D01*
X173898867Y-106201769D01*
X173902164Y-106201113D01*
X173898797Y-106158336D01*
X173898867Y-106158231D01*
X173910500Y-106099748D01*
X173911356Y-106099918D01*
X173934130Y-106047849D01*
X173960594Y-106026770D01*
X173962105Y-106025943D01*
X174067256Y-105947137D01*
X174077137Y-105937256D01*
X174155941Y-105832108D01*
X174162649Y-105819855D01*
X174209072Y-105696022D01*
X174211923Y-105684033D01*
X174217711Y-105630748D01*
X174218000Y-105625414D01*
X174218000Y-105595680D01*
X174213878Y-105582995D01*
X174209757Y-105580000D01*
X173734825Y-105580000D01*
X173731420Y-105579833D01*
X173729748Y-105579500D01*
X172290252Y-105579500D01*
X172288580Y-105579833D01*
X172285175Y-105580000D01*
X171817681Y-105580000D01*
X171780974Y-105591927D01*
X171770334Y-105599656D01*
X171739746Y-105604500D01*
X171004230Y-105604500D01*
X170946039Y-105585593D01*
X170934226Y-105575504D01*
X170783226Y-105424504D01*
X170755449Y-105369987D01*
X170765020Y-105309555D01*
X170808285Y-105266290D01*
X170853230Y-105255500D01*
X171744354Y-105255500D01*
X171802544Y-105274407D01*
X171810242Y-105280000D01*
X172285175Y-105280000D01*
X172288580Y-105280167D01*
X172290252Y-105280500D01*
X173729748Y-105280500D01*
X173731420Y-105280167D01*
X173734825Y-105280000D01*
X174202319Y-105280000D01*
X174215004Y-105275878D01*
X174217999Y-105271757D01*
X174217999Y-105234589D01*
X174217710Y-105229249D01*
X174211922Y-105175965D01*
X174209073Y-105163980D01*
X174162649Y-105040145D01*
X174155941Y-105027892D01*
X174077137Y-104922744D01*
X174067256Y-104912863D01*
X173962105Y-104834057D01*
X173960594Y-104833230D01*
X173959615Y-104832191D01*
X173956462Y-104829828D01*
X173956872Y-104829281D01*
X173918631Y-104788701D01*
X173910748Y-104760203D01*
X173910500Y-104760252D01*
X173909831Y-104756887D01*
X173909830Y-104756883D01*
X173905482Y-104735022D01*
X173898867Y-104701769D01*
X173902164Y-104701113D01*
X173898797Y-104658336D01*
X173898867Y-104658231D01*
X173910500Y-104599748D01*
X173910500Y-104260252D01*
X173898867Y-104201769D01*
X173902164Y-104201113D01*
X173898797Y-104158336D01*
X173898867Y-104158231D01*
X173910500Y-104099748D01*
X173910500Y-103760252D01*
X173898867Y-103701769D01*
X173902164Y-103701113D01*
X173898797Y-103658336D01*
X173898867Y-103658231D01*
X173910500Y-103599748D01*
X173910500Y-103260252D01*
X173898867Y-103201769D01*
X173902164Y-103201113D01*
X173898797Y-103158336D01*
X173898867Y-103158231D01*
X173910500Y-103099748D01*
X173910500Y-102760252D01*
X173898867Y-102701769D01*
X173902164Y-102701113D01*
X173898797Y-102658336D01*
X173898867Y-102658231D01*
X173910500Y-102599748D01*
X173910500Y-102260252D01*
X173898867Y-102201769D01*
X173902164Y-102201113D01*
X173898797Y-102158336D01*
X173898867Y-102158231D01*
X173910500Y-102099748D01*
X173910500Y-101760252D01*
X173898867Y-101701769D01*
X173902164Y-101701113D01*
X173898797Y-101658336D01*
X173898867Y-101658231D01*
X173910500Y-101599748D01*
X173910500Y-101260252D01*
X173898867Y-101201769D01*
X173902164Y-101201113D01*
X173898797Y-101158336D01*
X173898867Y-101158231D01*
X173910500Y-101099748D01*
X173910500Y-100779500D01*
X173929407Y-100721309D01*
X173978907Y-100685345D01*
X174009500Y-100680500D01*
X175429748Y-100680500D01*
X175455995Y-100675279D01*
X175478666Y-100670770D01*
X175478668Y-100670769D01*
X175488231Y-100668867D01*
X175554552Y-100624552D01*
X175598867Y-100558231D01*
X175602221Y-100541373D01*
X175609552Y-100504512D01*
X175610500Y-100499748D01*
X175610500Y-97810252D01*
X175603751Y-97776320D01*
X175600770Y-97761334D01*
X175600769Y-97761332D01*
X175598867Y-97751769D01*
X175554552Y-97685448D01*
X175488231Y-97641133D01*
X175478668Y-97639231D01*
X175478666Y-97639230D01*
X175455995Y-97634721D01*
X175429748Y-97629500D01*
X173090252Y-97629500D01*
X173064005Y-97634721D01*
X173041334Y-97639230D01*
X173041332Y-97639231D01*
X173031769Y-97641133D01*
X172965448Y-97685448D01*
X172921133Y-97751769D01*
X172919231Y-97761332D01*
X172919230Y-97761334D01*
X172916249Y-97776320D01*
X172909500Y-97810252D01*
X172909500Y-100480500D01*
X172890593Y-100538691D01*
X172841093Y-100574655D01*
X172810500Y-100579500D01*
X172290252Y-100579500D01*
X172264005Y-100584721D01*
X172241334Y-100589230D01*
X172241332Y-100589231D01*
X172231769Y-100591133D01*
X172165448Y-100635448D01*
X172121133Y-100701769D01*
X172109500Y-100760252D01*
X172109500Y-101099748D01*
X172116184Y-101133349D01*
X172121133Y-101158231D01*
X172117836Y-101158887D01*
X172121203Y-101201664D01*
X172121133Y-101201769D01*
X172109500Y-101260252D01*
X172109500Y-101505500D01*
X172090593Y-101563691D01*
X172041093Y-101599655D01*
X172010500Y-101604500D01*
X171707419Y-101604500D01*
X171649228Y-101585593D01*
X171637415Y-101575504D01*
X170658853Y-100596943D01*
X170653018Y-100590575D01*
X170648570Y-100585274D01*
X170628039Y-100560806D01*
X170594376Y-100541371D01*
X170587095Y-100536732D01*
X170578742Y-100530883D01*
X170555268Y-100514446D01*
X170546900Y-100512204D01*
X170541613Y-100509738D01*
X170536128Y-100507742D01*
X170528629Y-100503412D01*
X170520103Y-100501909D01*
X170520101Y-100501908D01*
X170490368Y-100496666D01*
X170481933Y-100494796D01*
X170452758Y-100486978D01*
X170444391Y-100484736D01*
X170435762Y-100485491D01*
X170405679Y-100488123D01*
X170397050Y-100488500D01*
X165251834Y-100488500D01*
X165193643Y-100469593D01*
X165181830Y-100459504D01*
X164270269Y-99547943D01*
X164264434Y-99541575D01*
X164239455Y-99511806D01*
X164205792Y-99492371D01*
X164198511Y-99487732D01*
X164196056Y-99486013D01*
X164166684Y-99465446D01*
X164158316Y-99463204D01*
X164153029Y-99460738D01*
X164147544Y-99458742D01*
X164140045Y-99454412D01*
X164131519Y-99452909D01*
X164131517Y-99452908D01*
X164101784Y-99447666D01*
X164093349Y-99445796D01*
X164064174Y-99437978D01*
X164055807Y-99435736D01*
X164047178Y-99436491D01*
X164017095Y-99439123D01*
X164008466Y-99439500D01*
X163127192Y-99439500D01*
X163069001Y-99420593D01*
X163033037Y-99371093D01*
X163033037Y-99309907D01*
X163047971Y-99281127D01*
X163110943Y-99197104D01*
X163117649Y-99184855D01*
X163164072Y-99061022D01*
X163166923Y-99049033D01*
X163172711Y-98995748D01*
X163173000Y-98990414D01*
X163173000Y-98764680D01*
X163168878Y-98751995D01*
X163164757Y-98749000D01*
X160012681Y-98749000D01*
X159999996Y-98753122D01*
X159997001Y-98757243D01*
X159997001Y-98990411D01*
X159997290Y-98995751D01*
X160003078Y-99049035D01*
X160005927Y-99061020D01*
X160052351Y-99184855D01*
X160059059Y-99197108D01*
X160137863Y-99302256D01*
X160147744Y-99312137D01*
X160252895Y-99390943D01*
X160253045Y-99391025D01*
X160253142Y-99391128D01*
X160258538Y-99395172D01*
X160257836Y-99396109D01*
X160295005Y-99435555D01*
X160304500Y-99477861D01*
X160304500Y-100234748D01*
X160316133Y-100293231D01*
X160321552Y-100301341D01*
X160350723Y-100344998D01*
X160367332Y-100403886D01*
X160350723Y-100455002D01*
X160333686Y-100480500D01*
X160316133Y-100506769D01*
X160314231Y-100516332D01*
X160314230Y-100516334D01*
X160312065Y-100527218D01*
X160304500Y-100565252D01*
X160304500Y-101504748D01*
X160316133Y-101563231D01*
X160321552Y-101571341D01*
X160350723Y-101614998D01*
X160367332Y-101673886D01*
X160350723Y-101725002D01*
X160330353Y-101755488D01*
X160316133Y-101776769D01*
X160304500Y-101835252D01*
X160304500Y-102774748D01*
X160316133Y-102833231D01*
X160321552Y-102841341D01*
X160350723Y-102884998D01*
X160367332Y-102943886D01*
X160350723Y-102995002D01*
X160316133Y-103046769D01*
X160304500Y-103105252D01*
X160304500Y-104044748D01*
X160316133Y-104103231D01*
X160321552Y-104111341D01*
X160350723Y-104154998D01*
X160367332Y-104213886D01*
X160350723Y-104265002D01*
X160316133Y-104316769D01*
X160304500Y-104375252D01*
X160304500Y-105314748D01*
X160316133Y-105373231D01*
X160321552Y-105381341D01*
X160350723Y-105424998D01*
X160367332Y-105483886D01*
X160350723Y-105535002D01*
X160316133Y-105586769D01*
X160314231Y-105596332D01*
X160314230Y-105596334D01*
X160312606Y-105604500D01*
X160304500Y-105645252D01*
X160304500Y-106584748D01*
X160316133Y-106643231D01*
X160321552Y-106651341D01*
X160350723Y-106694998D01*
X160367332Y-106753886D01*
X160350723Y-106805002D01*
X160321571Y-106848631D01*
X160316133Y-106856769D01*
X160304500Y-106915252D01*
X160304500Y-107854748D01*
X160316133Y-107913231D01*
X160321552Y-107921341D01*
X160350723Y-107964998D01*
X160367332Y-108023886D01*
X160350723Y-108075002D01*
X160316133Y-108126769D01*
X160304500Y-108185252D01*
X160304500Y-109124748D01*
X160316133Y-109183231D01*
X160321552Y-109191341D01*
X160350723Y-109234998D01*
X160367332Y-109293886D01*
X160350723Y-109345002D01*
X160316133Y-109396769D01*
X160304500Y-109455252D01*
X160304500Y-110394748D01*
X160305448Y-110399512D01*
X160312077Y-110432838D01*
X160316133Y-110453231D01*
X160321552Y-110461341D01*
X160350723Y-110504998D01*
X160367332Y-110563886D01*
X160350723Y-110615002D01*
X160316133Y-110666769D01*
X160314231Y-110676332D01*
X160314230Y-110676334D01*
X160310934Y-110692907D01*
X160304500Y-110725252D01*
X160304500Y-111664748D01*
X160305448Y-111669512D01*
X160314132Y-111713169D01*
X160316133Y-111723231D01*
X160321552Y-111731341D01*
X160350723Y-111774998D01*
X160367332Y-111833886D01*
X160350723Y-111885002D01*
X160321552Y-111928659D01*
X160316133Y-111936769D01*
X160304500Y-111995252D01*
X160304500Y-112934748D01*
X160308404Y-112954375D01*
X160313934Y-112982174D01*
X160316133Y-112993231D01*
X160321552Y-113001341D01*
X160350723Y-113044998D01*
X160367332Y-113103886D01*
X160350723Y-113155002D01*
X160345080Y-113163448D01*
X160316133Y-113206769D01*
X160314231Y-113216332D01*
X160314230Y-113216334D01*
X160309854Y-113238338D01*
X160304500Y-113265252D01*
X160304500Y-114204748D01*
X160316133Y-114263231D01*
X160321552Y-114271341D01*
X160350723Y-114314998D01*
X160367332Y-114373886D01*
X160350723Y-114425002D01*
X160316133Y-114476769D01*
X160304500Y-114535252D01*
X160304500Y-115363263D01*
X160285593Y-115421454D01*
X160236093Y-115457418D01*
X160174907Y-115457418D01*
X160123185Y-115418265D01*
X160089971Y-115368558D01*
X160084552Y-115360448D01*
X160018231Y-115316133D01*
X160008668Y-115314231D01*
X160008666Y-115314230D01*
X159985995Y-115309721D01*
X159959748Y-115304500D01*
X159020252Y-115304500D01*
X158994005Y-115309721D01*
X158971334Y-115314230D01*
X158971332Y-115314231D01*
X158961769Y-115316133D01*
X158953659Y-115321552D01*
X158910002Y-115350723D01*
X158851114Y-115367332D01*
X158799998Y-115350723D01*
X158756341Y-115321552D01*
X158748231Y-115316133D01*
X158738668Y-115314231D01*
X158738666Y-115314230D01*
X158715995Y-115309721D01*
X158689748Y-115304500D01*
X157750252Y-115304500D01*
X157724005Y-115309721D01*
X157701334Y-115314230D01*
X157701332Y-115314231D01*
X157691769Y-115316133D01*
X157683659Y-115321552D01*
X157640002Y-115350723D01*
X157581114Y-115367332D01*
X157529998Y-115350723D01*
X157486341Y-115321552D01*
X157478231Y-115316133D01*
X157468668Y-115314231D01*
X157468666Y-115314230D01*
X157445995Y-115309721D01*
X157419748Y-115304500D01*
X156480252Y-115304500D01*
X156454005Y-115309721D01*
X156431334Y-115314230D01*
X156431332Y-115314231D01*
X156421769Y-115316133D01*
X156413659Y-115321552D01*
X156370002Y-115350723D01*
X156311114Y-115367332D01*
X156259998Y-115350723D01*
X156216341Y-115321552D01*
X156208231Y-115316133D01*
X156198668Y-115314231D01*
X156198666Y-115314230D01*
X156175995Y-115309721D01*
X156149748Y-115304500D01*
X155210252Y-115304500D01*
X155184005Y-115309721D01*
X155161334Y-115314230D01*
X155161332Y-115314231D01*
X155151769Y-115316133D01*
X155143659Y-115321552D01*
X155100002Y-115350723D01*
X155041114Y-115367332D01*
X154989998Y-115350723D01*
X154946341Y-115321552D01*
X154938231Y-115316133D01*
X154928668Y-115314231D01*
X154928666Y-115314230D01*
X154905995Y-115309721D01*
X154879748Y-115304500D01*
X153940252Y-115304500D01*
X153914005Y-115309721D01*
X153891334Y-115314230D01*
X153891332Y-115314231D01*
X153881769Y-115316133D01*
X153873659Y-115321552D01*
X153830002Y-115350723D01*
X153771114Y-115367332D01*
X153719998Y-115350723D01*
X153676341Y-115321552D01*
X153668231Y-115316133D01*
X153658668Y-115314231D01*
X153658666Y-115314230D01*
X153635995Y-115309721D01*
X153609748Y-115304500D01*
X152670252Y-115304500D01*
X152644005Y-115309721D01*
X152621334Y-115314230D01*
X152621332Y-115314231D01*
X152611769Y-115316133D01*
X152603659Y-115321552D01*
X152560002Y-115350723D01*
X152501114Y-115367332D01*
X152449998Y-115350723D01*
X152406341Y-115321552D01*
X152398231Y-115316133D01*
X152388668Y-115314231D01*
X152388666Y-115314230D01*
X152365995Y-115309721D01*
X152339748Y-115304500D01*
X151400252Y-115304500D01*
X151374005Y-115309721D01*
X151351334Y-115314230D01*
X151351332Y-115314231D01*
X151341769Y-115316133D01*
X151333659Y-115321552D01*
X151290002Y-115350723D01*
X151231114Y-115367332D01*
X151179998Y-115350723D01*
X151136341Y-115321552D01*
X151128231Y-115316133D01*
X151118668Y-115314231D01*
X151118666Y-115314230D01*
X151095995Y-115309721D01*
X151069748Y-115304500D01*
X150130252Y-115304500D01*
X150104005Y-115309721D01*
X150081334Y-115314230D01*
X150081332Y-115314231D01*
X150071769Y-115316133D01*
X150063659Y-115321552D01*
X150020002Y-115350723D01*
X149961114Y-115367332D01*
X149909998Y-115350723D01*
X149866341Y-115321552D01*
X149858231Y-115316133D01*
X149848668Y-115314231D01*
X149848666Y-115314230D01*
X149825995Y-115309721D01*
X149799748Y-115304500D01*
X148860252Y-115304500D01*
X148834005Y-115309721D01*
X148811334Y-115314230D01*
X148811332Y-115314231D01*
X148801769Y-115316133D01*
X148793659Y-115321552D01*
X148750002Y-115350723D01*
X148691114Y-115367332D01*
X148639998Y-115350723D01*
X148596341Y-115321552D01*
X148588231Y-115316133D01*
X148578668Y-115314231D01*
X148578666Y-115314230D01*
X148555995Y-115309721D01*
X148529748Y-115304500D01*
X147590252Y-115304500D01*
X147564005Y-115309721D01*
X147541334Y-115314230D01*
X147541332Y-115314231D01*
X147531769Y-115316133D01*
X147523659Y-115321552D01*
X147480002Y-115350723D01*
X147421114Y-115367332D01*
X147369998Y-115350723D01*
X147326341Y-115321552D01*
X147318231Y-115316133D01*
X147308668Y-115314231D01*
X147308666Y-115314230D01*
X147285995Y-115309721D01*
X147259748Y-115304500D01*
X146320252Y-115304500D01*
X146294005Y-115309721D01*
X146271334Y-115314230D01*
X146271332Y-115314231D01*
X146261769Y-115316133D01*
X146253659Y-115321552D01*
X146210002Y-115350723D01*
X146151114Y-115367332D01*
X146099998Y-115350723D01*
X146056341Y-115321552D01*
X146048231Y-115316133D01*
X146038668Y-115314231D01*
X146038666Y-115314230D01*
X146015995Y-115309721D01*
X145989748Y-115304500D01*
X145050252Y-115304500D01*
X145024005Y-115309721D01*
X145001334Y-115314230D01*
X145001332Y-115314231D01*
X144991769Y-115316133D01*
X144925448Y-115360448D01*
X144920029Y-115368558D01*
X144886815Y-115418265D01*
X144838765Y-115456144D01*
X144777626Y-115458546D01*
X144726753Y-115424552D01*
X144705500Y-115363263D01*
X144705500Y-114535252D01*
X144693867Y-114476769D01*
X144659277Y-114425002D01*
X144642668Y-114366114D01*
X144659277Y-114314998D01*
X144688448Y-114271341D01*
X144693867Y-114263231D01*
X144705500Y-114204748D01*
X144705500Y-113265252D01*
X144700146Y-113238338D01*
X144695770Y-113216334D01*
X144695769Y-113216332D01*
X144693867Y-113206769D01*
X144664920Y-113163448D01*
X144659277Y-113155002D01*
X144642668Y-113096114D01*
X144659277Y-113044998D01*
X144688448Y-113001341D01*
X144693867Y-112993231D01*
X144696067Y-112982174D01*
X144701596Y-112954375D01*
X144705500Y-112934748D01*
X144705500Y-111995252D01*
X144693867Y-111936769D01*
X144688448Y-111928659D01*
X144659277Y-111885002D01*
X144642668Y-111826114D01*
X144659277Y-111774998D01*
X144688448Y-111731341D01*
X144693867Y-111723231D01*
X144695869Y-111713169D01*
X144704552Y-111669512D01*
X144705500Y-111664748D01*
X144705500Y-110725252D01*
X144699066Y-110692907D01*
X144695770Y-110676334D01*
X144695769Y-110676332D01*
X144693867Y-110666769D01*
X144659277Y-110615002D01*
X144642668Y-110556114D01*
X144659277Y-110504998D01*
X144688448Y-110461341D01*
X144693867Y-110453231D01*
X144697924Y-110432838D01*
X144704552Y-110399512D01*
X144705500Y-110394748D01*
X144705500Y-109455252D01*
X144693867Y-109396769D01*
X144659277Y-109345002D01*
X144642668Y-109286114D01*
X144659277Y-109234998D01*
X144688448Y-109191341D01*
X144693867Y-109183231D01*
X144705500Y-109124748D01*
X144705500Y-108185252D01*
X144693867Y-108126769D01*
X144682937Y-108110411D01*
X148647001Y-108110411D01*
X148647290Y-108115751D01*
X148653078Y-108169035D01*
X148655927Y-108181020D01*
X148702351Y-108304855D01*
X148709059Y-108317108D01*
X148787863Y-108422256D01*
X148797744Y-108432137D01*
X148902892Y-108510941D01*
X148915145Y-108517649D01*
X149038978Y-108564072D01*
X149050967Y-108566923D01*
X149104252Y-108572711D01*
X149109586Y-108573000D01*
X149335320Y-108573000D01*
X149348005Y-108568878D01*
X149351000Y-108564757D01*
X149351000Y-108557319D01*
X149859000Y-108557319D01*
X149863122Y-108570004D01*
X149867243Y-108572999D01*
X150100411Y-108572999D01*
X150105751Y-108572710D01*
X150159035Y-108566922D01*
X150171020Y-108564073D01*
X150270248Y-108526874D01*
X150331373Y-108524151D01*
X150339752Y-108526874D01*
X150438978Y-108564072D01*
X150450967Y-108566923D01*
X150504252Y-108572711D01*
X150509586Y-108573000D01*
X150735320Y-108573000D01*
X150748005Y-108568878D01*
X150751000Y-108564757D01*
X150751000Y-108557319D01*
X151259000Y-108557319D01*
X151263122Y-108570004D01*
X151267243Y-108572999D01*
X151500411Y-108572999D01*
X151505751Y-108572710D01*
X151559035Y-108566922D01*
X151571020Y-108564073D01*
X151670248Y-108526874D01*
X151731373Y-108524151D01*
X151739752Y-108526874D01*
X151838978Y-108564072D01*
X151850967Y-108566923D01*
X151904252Y-108572711D01*
X151909586Y-108573000D01*
X152135320Y-108573000D01*
X152148005Y-108568878D01*
X152151000Y-108564757D01*
X152151000Y-108557319D01*
X152659000Y-108557319D01*
X152663122Y-108570004D01*
X152667243Y-108572999D01*
X152900411Y-108572999D01*
X152905751Y-108572710D01*
X152959035Y-108566922D01*
X152971020Y-108564073D01*
X153094855Y-108517649D01*
X153107108Y-108510941D01*
X153212256Y-108432137D01*
X153222137Y-108422256D01*
X153300941Y-108317108D01*
X153307649Y-108304855D01*
X153354072Y-108181022D01*
X153356923Y-108169033D01*
X153362711Y-108115748D01*
X153363000Y-108110414D01*
X153363000Y-107884680D01*
X153358878Y-107871995D01*
X153354757Y-107869000D01*
X152674680Y-107869000D01*
X152661995Y-107873122D01*
X152659000Y-107877243D01*
X152659000Y-108557319D01*
X152151000Y-108557319D01*
X152151000Y-107884680D01*
X152146878Y-107871995D01*
X152142757Y-107869000D01*
X151274680Y-107869000D01*
X151261995Y-107873122D01*
X151259000Y-107877243D01*
X151259000Y-108557319D01*
X150751000Y-108557319D01*
X150751000Y-107884680D01*
X150746878Y-107871995D01*
X150742757Y-107869000D01*
X149874680Y-107869000D01*
X149861995Y-107873122D01*
X149859000Y-107877243D01*
X149859000Y-108557319D01*
X149351000Y-108557319D01*
X149351000Y-107884680D01*
X149346878Y-107871995D01*
X149342757Y-107869000D01*
X148662681Y-107869000D01*
X148649996Y-107873122D01*
X148647001Y-107877243D01*
X148647001Y-108110411D01*
X144682937Y-108110411D01*
X144659277Y-108075002D01*
X144642668Y-108016114D01*
X144659277Y-107964998D01*
X144688448Y-107921341D01*
X144693867Y-107913231D01*
X144705500Y-107854748D01*
X144705500Y-107345320D01*
X148647000Y-107345320D01*
X148651122Y-107358005D01*
X148655243Y-107361000D01*
X149335320Y-107361000D01*
X149348005Y-107356878D01*
X149351000Y-107352757D01*
X149351000Y-107345320D01*
X149859000Y-107345320D01*
X149863122Y-107358005D01*
X149867243Y-107361000D01*
X150735320Y-107361000D01*
X150748005Y-107356878D01*
X150751000Y-107352757D01*
X150751000Y-107345320D01*
X151259000Y-107345320D01*
X151263122Y-107358005D01*
X151267243Y-107361000D01*
X152135320Y-107361000D01*
X152148005Y-107356878D01*
X152151000Y-107352757D01*
X152151000Y-107345320D01*
X152659000Y-107345320D01*
X152663122Y-107358005D01*
X152667243Y-107361000D01*
X153347319Y-107361000D01*
X153360004Y-107356878D01*
X153362999Y-107352757D01*
X153362999Y-107119589D01*
X153362710Y-107114249D01*
X153356922Y-107060965D01*
X153354073Y-107048980D01*
X153316874Y-106949752D01*
X153314151Y-106888627D01*
X153316874Y-106880248D01*
X153354072Y-106781022D01*
X153356923Y-106769033D01*
X153362711Y-106715748D01*
X153363000Y-106710414D01*
X153363000Y-106484680D01*
X153358878Y-106471995D01*
X153354757Y-106469000D01*
X152674680Y-106469000D01*
X152661995Y-106473122D01*
X152659000Y-106477243D01*
X152659000Y-107345320D01*
X152151000Y-107345320D01*
X152151000Y-106484680D01*
X152146878Y-106471995D01*
X152142757Y-106469000D01*
X151274680Y-106469000D01*
X151261995Y-106473122D01*
X151259000Y-106477243D01*
X151259000Y-107345320D01*
X150751000Y-107345320D01*
X150751000Y-106484680D01*
X150746878Y-106471995D01*
X150742757Y-106469000D01*
X149874680Y-106469000D01*
X149861995Y-106473122D01*
X149859000Y-106477243D01*
X149859000Y-107345320D01*
X149351000Y-107345320D01*
X149351000Y-106484680D01*
X149346878Y-106471995D01*
X149342757Y-106469000D01*
X148662681Y-106469000D01*
X148649996Y-106473122D01*
X148647001Y-106477243D01*
X148647001Y-106710411D01*
X148647290Y-106715751D01*
X148653078Y-106769035D01*
X148655927Y-106781020D01*
X148693126Y-106880248D01*
X148695849Y-106941373D01*
X148693126Y-106949752D01*
X148655928Y-107048978D01*
X148653077Y-107060967D01*
X148647289Y-107114252D01*
X148647000Y-107119586D01*
X148647000Y-107345320D01*
X144705500Y-107345320D01*
X144705500Y-106915252D01*
X144693867Y-106856769D01*
X144688429Y-106848631D01*
X144659277Y-106805002D01*
X144642668Y-106746114D01*
X144659277Y-106694998D01*
X144688448Y-106651341D01*
X144693867Y-106643231D01*
X144705500Y-106584748D01*
X144705500Y-105945320D01*
X148647000Y-105945320D01*
X148651122Y-105958005D01*
X148655243Y-105961000D01*
X149335320Y-105961000D01*
X149348005Y-105956878D01*
X149351000Y-105952757D01*
X149351000Y-105945320D01*
X149859000Y-105945320D01*
X149863122Y-105958005D01*
X149867243Y-105961000D01*
X150735320Y-105961000D01*
X150748005Y-105956878D01*
X150751000Y-105952757D01*
X150751000Y-105945320D01*
X151259000Y-105945320D01*
X151263122Y-105958005D01*
X151267243Y-105961000D01*
X152135320Y-105961000D01*
X152148005Y-105956878D01*
X152151000Y-105952757D01*
X152151000Y-105945320D01*
X152659000Y-105945320D01*
X152663122Y-105958005D01*
X152667243Y-105961000D01*
X153347319Y-105961000D01*
X153360004Y-105956878D01*
X153362999Y-105952757D01*
X153362999Y-105719589D01*
X153362710Y-105714249D01*
X153356922Y-105660965D01*
X153354073Y-105648980D01*
X153316874Y-105549752D01*
X153314151Y-105488627D01*
X153316874Y-105480248D01*
X153354072Y-105381022D01*
X153356923Y-105369033D01*
X153362711Y-105315748D01*
X153363000Y-105310414D01*
X153363000Y-105084680D01*
X153358878Y-105071995D01*
X153354757Y-105069000D01*
X152674680Y-105069000D01*
X152661995Y-105073122D01*
X152659000Y-105077243D01*
X152659000Y-105945320D01*
X152151000Y-105945320D01*
X152151000Y-105084680D01*
X152146878Y-105071995D01*
X152142757Y-105069000D01*
X151274680Y-105069000D01*
X151261995Y-105073122D01*
X151259000Y-105077243D01*
X151259000Y-105945320D01*
X150751000Y-105945320D01*
X150751000Y-105084680D01*
X150746878Y-105071995D01*
X150742757Y-105069000D01*
X149874680Y-105069000D01*
X149861995Y-105073122D01*
X149859000Y-105077243D01*
X149859000Y-105945320D01*
X149351000Y-105945320D01*
X149351000Y-105084680D01*
X149346878Y-105071995D01*
X149342757Y-105069000D01*
X148662681Y-105069000D01*
X148649996Y-105073122D01*
X148647001Y-105077243D01*
X148647001Y-105310411D01*
X148647290Y-105315751D01*
X148653078Y-105369035D01*
X148655927Y-105381020D01*
X148693126Y-105480248D01*
X148695849Y-105541373D01*
X148693126Y-105549752D01*
X148655928Y-105648978D01*
X148653077Y-105660967D01*
X148647289Y-105714252D01*
X148647000Y-105719586D01*
X148647000Y-105945320D01*
X144705500Y-105945320D01*
X144705500Y-105645252D01*
X144697394Y-105604500D01*
X144695770Y-105596334D01*
X144695769Y-105596332D01*
X144693867Y-105586769D01*
X144653931Y-105527001D01*
X144637322Y-105468114D01*
X144653931Y-105416998D01*
X144655370Y-105414845D01*
X144693867Y-105357231D01*
X144705500Y-105298748D01*
X144705500Y-104545320D01*
X148647000Y-104545320D01*
X148651122Y-104558005D01*
X148655243Y-104561000D01*
X149335320Y-104561000D01*
X149348005Y-104556878D01*
X149351000Y-104552757D01*
X149351000Y-104545320D01*
X149859000Y-104545320D01*
X149863122Y-104558005D01*
X149867243Y-104561000D01*
X150735320Y-104561000D01*
X150748005Y-104556878D01*
X150751000Y-104552757D01*
X150751000Y-104545320D01*
X151259000Y-104545320D01*
X151263122Y-104558005D01*
X151267243Y-104561000D01*
X152135320Y-104561000D01*
X152148005Y-104556878D01*
X152151000Y-104552757D01*
X152151000Y-104545320D01*
X152659000Y-104545320D01*
X152663122Y-104558005D01*
X152667243Y-104561000D01*
X153347319Y-104561000D01*
X153360004Y-104556878D01*
X153362999Y-104552757D01*
X153362999Y-104319589D01*
X153362710Y-104314249D01*
X153356922Y-104260965D01*
X153354073Y-104248980D01*
X153307649Y-104125145D01*
X153300941Y-104112892D01*
X153222137Y-104007744D01*
X153212256Y-103997863D01*
X153107108Y-103919059D01*
X153094855Y-103912351D01*
X152971022Y-103865928D01*
X152959033Y-103863077D01*
X152905748Y-103857289D01*
X152900414Y-103857000D01*
X152674680Y-103857000D01*
X152661995Y-103861122D01*
X152659000Y-103865243D01*
X152659000Y-104545320D01*
X152151000Y-104545320D01*
X152151000Y-103872681D01*
X152146878Y-103859996D01*
X152142757Y-103857001D01*
X151909589Y-103857001D01*
X151904249Y-103857290D01*
X151850965Y-103863078D01*
X151838980Y-103865927D01*
X151739752Y-103903126D01*
X151678627Y-103905849D01*
X151670248Y-103903126D01*
X151571022Y-103865928D01*
X151559033Y-103863077D01*
X151505748Y-103857289D01*
X151500414Y-103857000D01*
X151274680Y-103857000D01*
X151261995Y-103861122D01*
X151259000Y-103865243D01*
X151259000Y-104545320D01*
X150751000Y-104545320D01*
X150751000Y-103872681D01*
X150746878Y-103859996D01*
X150742757Y-103857001D01*
X150509589Y-103857001D01*
X150504249Y-103857290D01*
X150450965Y-103863078D01*
X150438980Y-103865927D01*
X150339752Y-103903126D01*
X150278627Y-103905849D01*
X150270248Y-103903126D01*
X150171022Y-103865928D01*
X150159033Y-103863077D01*
X150105748Y-103857289D01*
X150100414Y-103857000D01*
X149874680Y-103857000D01*
X149861995Y-103861122D01*
X149859000Y-103865243D01*
X149859000Y-104545320D01*
X149351000Y-104545320D01*
X149351000Y-103872681D01*
X149346878Y-103859996D01*
X149342757Y-103857001D01*
X149109589Y-103857001D01*
X149104249Y-103857290D01*
X149050965Y-103863078D01*
X149038980Y-103865927D01*
X148915145Y-103912351D01*
X148902892Y-103919059D01*
X148797744Y-103997863D01*
X148787863Y-104007744D01*
X148709059Y-104112892D01*
X148702351Y-104125145D01*
X148655928Y-104248978D01*
X148653077Y-104260967D01*
X148647289Y-104314252D01*
X148647000Y-104319586D01*
X148647000Y-104545320D01*
X144705500Y-104545320D01*
X144705500Y-104375252D01*
X144693867Y-104316769D01*
X144659277Y-104265002D01*
X144642668Y-104206114D01*
X144659277Y-104154998D01*
X144688448Y-104111341D01*
X144693867Y-104103231D01*
X144705500Y-104044748D01*
X144705500Y-103105252D01*
X144693867Y-103046769D01*
X144653931Y-102987001D01*
X144637322Y-102928114D01*
X144653931Y-102876998D01*
X144693867Y-102817231D01*
X144705500Y-102758748D01*
X144705500Y-101835252D01*
X144693867Y-101776769D01*
X144679647Y-101755488D01*
X144659277Y-101725002D01*
X144642668Y-101666114D01*
X144659277Y-101614998D01*
X144688448Y-101571341D01*
X144693867Y-101563231D01*
X144705500Y-101504748D01*
X144705500Y-100565252D01*
X144697935Y-100527218D01*
X144695770Y-100516334D01*
X144695769Y-100516332D01*
X144693867Y-100506769D01*
X144653931Y-100447001D01*
X144637322Y-100388114D01*
X144653931Y-100336998D01*
X144693867Y-100277231D01*
X144697680Y-100258065D01*
X144702317Y-100234748D01*
X144705500Y-100218748D01*
X144705500Y-99477861D01*
X144724407Y-99419670D01*
X144751772Y-99395586D01*
X144751462Y-99395172D01*
X144756723Y-99391229D01*
X144756955Y-99391025D01*
X144757105Y-99390943D01*
X144862256Y-99312137D01*
X144872137Y-99302256D01*
X144950941Y-99197108D01*
X144957649Y-99184855D01*
X145004072Y-99061022D01*
X145006923Y-99049033D01*
X145012711Y-98995748D01*
X145013000Y-98990414D01*
X145013000Y-98764680D01*
X145008878Y-98751995D01*
X145004757Y-98749000D01*
X141852681Y-98749000D01*
X141839996Y-98753122D01*
X141837001Y-98757243D01*
X141837001Y-98990411D01*
X141837290Y-98995751D01*
X141843078Y-99049035D01*
X141845927Y-99061020D01*
X141892351Y-99184855D01*
X141899059Y-99197108D01*
X141956033Y-99273128D01*
X141975801Y-99331032D01*
X141957759Y-99389496D01*
X141908798Y-99426190D01*
X141876812Y-99431500D01*
X141732500Y-99431500D01*
X141674309Y-99412593D01*
X141638345Y-99363093D01*
X141633500Y-99332500D01*
X141633500Y-99282512D01*
X141632014Y-99273128D01*
X141618938Y-99190569D01*
X141618938Y-99190568D01*
X141617719Y-99182874D01*
X141582881Y-99114500D01*
X141560064Y-99069719D01*
X141560063Y-99069717D01*
X141556528Y-99062780D01*
X141461220Y-98967472D01*
X141454283Y-98963937D01*
X141454281Y-98963936D01*
X141406639Y-98939661D01*
X141362554Y-98917199D01*
X141319290Y-98873935D01*
X141308500Y-98828990D01*
X141308500Y-98783010D01*
X141327407Y-98724819D01*
X141362554Y-98694801D01*
X141406639Y-98672339D01*
X141454281Y-98648064D01*
X141454283Y-98648063D01*
X141461220Y-98644528D01*
X141556528Y-98549220D01*
X141562721Y-98537067D01*
X141573481Y-98515949D01*
X166164900Y-98515949D01*
X166166118Y-98537067D01*
X166178820Y-98757355D01*
X166231980Y-98993247D01*
X166233510Y-98997015D01*
X166260215Y-99062780D01*
X166322954Y-99217288D01*
X166325078Y-99220754D01*
X166325080Y-99220758D01*
X166375942Y-99303757D01*
X166449298Y-99423462D01*
X166451957Y-99426532D01*
X166451958Y-99426533D01*
X166557127Y-99547943D01*
X166607619Y-99606233D01*
X166793665Y-99760692D01*
X167002440Y-99882690D01*
X167228337Y-99968952D01*
X167232312Y-99969761D01*
X167232313Y-99969761D01*
X167461307Y-100016350D01*
X167461311Y-100016350D01*
X167465290Y-100017160D01*
X167469350Y-100017309D01*
X167469351Y-100017309D01*
X167512249Y-100018882D01*
X167706935Y-100026021D01*
X167710953Y-100025506D01*
X167710959Y-100025506D01*
X167942750Y-99995813D01*
X167942756Y-99995812D01*
X167946782Y-99995296D01*
X167950675Y-99994128D01*
X167950680Y-99994127D01*
X168116636Y-99944337D01*
X168178390Y-99925810D01*
X168334184Y-99849488D01*
X168391893Y-99821217D01*
X168391896Y-99821215D01*
X168395540Y-99819430D01*
X168592399Y-99679012D01*
X168763680Y-99508327D01*
X168766050Y-99505028D01*
X168766054Y-99505024D01*
X168902414Y-99315259D01*
X168902416Y-99315256D01*
X168904785Y-99311959D01*
X168906583Y-99308321D01*
X168906586Y-99308316D01*
X169010121Y-99098828D01*
X169010123Y-99098823D01*
X169011922Y-99095183D01*
X169042133Y-98995748D01*
X169081035Y-98867707D01*
X169081036Y-98867701D01*
X169082216Y-98863818D01*
X169083075Y-98857298D01*
X169098772Y-98738065D01*
X169113778Y-98624080D01*
X169115540Y-98552000D01*
X169115324Y-98549371D01*
X169096060Y-98315052D01*
X169096059Y-98315048D01*
X169095727Y-98311006D01*
X169092963Y-98300000D01*
X169037810Y-98080430D01*
X169036819Y-98076484D01*
X168940398Y-97854732D01*
X168809055Y-97651706D01*
X168646316Y-97472858D01*
X168643130Y-97470342D01*
X168643127Y-97470339D01*
X168459739Y-97325508D01*
X168459733Y-97325504D01*
X168456551Y-97322991D01*
X168271623Y-97220905D01*
X168248416Y-97208094D01*
X168248415Y-97208093D01*
X168244858Y-97206130D01*
X168241035Y-97204776D01*
X168241030Y-97204774D01*
X168020744Y-97126767D01*
X168020742Y-97126767D01*
X168016920Y-97125413D01*
X167778861Y-97083008D01*
X167774800Y-97082958D01*
X167774796Y-97082958D01*
X167663994Y-97081605D01*
X167537072Y-97080054D01*
X167298047Y-97116630D01*
X167174278Y-97157084D01*
X167072062Y-97190493D01*
X167072058Y-97190495D01*
X167068205Y-97191754D01*
X167064605Y-97193628D01*
X166857325Y-97301531D01*
X166857322Y-97301533D01*
X166853720Y-97303408D01*
X166850477Y-97305843D01*
X166850472Y-97305846D01*
X166744967Y-97385062D01*
X166660350Y-97448594D01*
X166657545Y-97451529D01*
X166657543Y-97451531D01*
X166610185Y-97501089D01*
X166493290Y-97623413D01*
X166490998Y-97626773D01*
X166362523Y-97815110D01*
X166357025Y-97823169D01*
X166355317Y-97826849D01*
X166355314Y-97826854D01*
X166307910Y-97928978D01*
X166255216Y-98042499D01*
X166254130Y-98046415D01*
X166230762Y-98130679D01*
X166190596Y-98275511D01*
X166190163Y-98279559D01*
X166190163Y-98279561D01*
X166186370Y-98315052D01*
X166164900Y-98515949D01*
X141573481Y-98515949D01*
X141614183Y-98436066D01*
X141614183Y-98436065D01*
X141617719Y-98429126D01*
X141631160Y-98344266D01*
X141632891Y-98333334D01*
X141632891Y-98333332D01*
X141633500Y-98329488D01*
X141633500Y-98225320D01*
X141837000Y-98225320D01*
X141841122Y-98238005D01*
X141845243Y-98241000D01*
X143155320Y-98241000D01*
X143168005Y-98236878D01*
X143171000Y-98232757D01*
X143171000Y-98225320D01*
X143679000Y-98225320D01*
X143683122Y-98238005D01*
X143687243Y-98241000D01*
X144997319Y-98241000D01*
X145010004Y-98236878D01*
X145012999Y-98232757D01*
X145012999Y-98225320D01*
X159997000Y-98225320D01*
X160001122Y-98238005D01*
X160005243Y-98241000D01*
X161315320Y-98241000D01*
X161328005Y-98236878D01*
X161331000Y-98232757D01*
X161331000Y-98225320D01*
X161839000Y-98225320D01*
X161843122Y-98238005D01*
X161847243Y-98241000D01*
X163157319Y-98241000D01*
X163170004Y-98236878D01*
X163172999Y-98232757D01*
X163172999Y-97999589D01*
X163172710Y-97994249D01*
X163166922Y-97940965D01*
X163164073Y-97928980D01*
X163117649Y-97805145D01*
X163110941Y-97792892D01*
X163032137Y-97687744D01*
X163022256Y-97677863D01*
X162917108Y-97599059D01*
X162904855Y-97592351D01*
X162781022Y-97545928D01*
X162769033Y-97543077D01*
X162715748Y-97537289D01*
X162710414Y-97537000D01*
X161854680Y-97537000D01*
X161841995Y-97541122D01*
X161839000Y-97545243D01*
X161839000Y-98225320D01*
X161331000Y-98225320D01*
X161331000Y-97552681D01*
X161326878Y-97539996D01*
X161322757Y-97537001D01*
X160459589Y-97537001D01*
X160454249Y-97537290D01*
X160400965Y-97543078D01*
X160388980Y-97545927D01*
X160265145Y-97592351D01*
X160252892Y-97599059D01*
X160147744Y-97677863D01*
X160137863Y-97687744D01*
X160059059Y-97792892D01*
X160052351Y-97805145D01*
X160005928Y-97928978D01*
X160003077Y-97940967D01*
X159997289Y-97994252D01*
X159997000Y-97999586D01*
X159997000Y-98225320D01*
X145012999Y-98225320D01*
X145012999Y-97999589D01*
X145012710Y-97994249D01*
X145006922Y-97940965D01*
X145004073Y-97928980D01*
X144957649Y-97805145D01*
X144950941Y-97792892D01*
X144872137Y-97687744D01*
X144862256Y-97677863D01*
X144757108Y-97599059D01*
X144744855Y-97592351D01*
X144621022Y-97545928D01*
X144609033Y-97543077D01*
X144555748Y-97537289D01*
X144550414Y-97537000D01*
X143694680Y-97537000D01*
X143681995Y-97541122D01*
X143679000Y-97545243D01*
X143679000Y-98225320D01*
X143171000Y-98225320D01*
X143171000Y-97552681D01*
X143166878Y-97539996D01*
X143162757Y-97537001D01*
X142299589Y-97537001D01*
X142294249Y-97537290D01*
X142240965Y-97543078D01*
X142228980Y-97545927D01*
X142105145Y-97592351D01*
X142092892Y-97599059D01*
X141987744Y-97677863D01*
X141977863Y-97687744D01*
X141899059Y-97792892D01*
X141892351Y-97805145D01*
X141845928Y-97928978D01*
X141843077Y-97940967D01*
X141837289Y-97994252D01*
X141837000Y-97999586D01*
X141837000Y-98225320D01*
X141633500Y-98225320D01*
X141633500Y-97762512D01*
X141632891Y-97758666D01*
X141618938Y-97670569D01*
X141618938Y-97670568D01*
X141617719Y-97662874D01*
X141606684Y-97641217D01*
X141560064Y-97549719D01*
X141560063Y-97549717D01*
X141556528Y-97542780D01*
X141461220Y-97447472D01*
X141454283Y-97443937D01*
X141454281Y-97443936D01*
X141348066Y-97389817D01*
X141348065Y-97389817D01*
X141341126Y-97386281D01*
X141333432Y-97385062D01*
X141333431Y-97385062D01*
X141245334Y-97371109D01*
X141245332Y-97371109D01*
X141241488Y-97370500D01*
X140724512Y-97370500D01*
X140720668Y-97371109D01*
X140720666Y-97371109D01*
X140632569Y-97385062D01*
X140632568Y-97385062D01*
X140624874Y-97386281D01*
X140617935Y-97389817D01*
X140617934Y-97389817D01*
X140511719Y-97443936D01*
X140511717Y-97443937D01*
X140504780Y-97447472D01*
X140469369Y-97482883D01*
X140414852Y-97510660D01*
X140354420Y-97501089D01*
X140315180Y-97464974D01*
X140239383Y-97342488D01*
X140232289Y-97333537D01*
X140119461Y-97220905D01*
X140110497Y-97213826D01*
X139974782Y-97130170D01*
X139964432Y-97125344D01*
X139812783Y-97075044D01*
X139802277Y-97072792D01*
X139709229Y-97063259D01*
X139704171Y-97063000D01*
X139702680Y-97063000D01*
X139689995Y-97067122D01*
X139687000Y-97071243D01*
X139687000Y-101249000D01*
X139668093Y-101307191D01*
X139618593Y-101343155D01*
X139588000Y-101348000D01*
X139278000Y-101348000D01*
X139219809Y-101329093D01*
X139183845Y-101279593D01*
X139179000Y-101249000D01*
X139179000Y-99835680D01*
X139174878Y-99822995D01*
X139170757Y-99820000D01*
X138490680Y-99820000D01*
X138477995Y-99824122D01*
X138475000Y-99828243D01*
X138475000Y-99862135D01*
X138475265Y-99867262D01*
X138485047Y-99961525D01*
X138487320Y-99972054D01*
X138537879Y-100123600D01*
X138542726Y-100133947D01*
X138629642Y-100274401D01*
X138628321Y-100275218D01*
X138647154Y-100325870D01*
X138630697Y-100384800D01*
X138625933Y-100391368D01*
X138625826Y-100391503D01*
X138542170Y-100527218D01*
X138537344Y-100537568D01*
X138487044Y-100689217D01*
X138484792Y-100699723D01*
X138475259Y-100792771D01*
X138475000Y-100797830D01*
X138475000Y-100825866D01*
X138456093Y-100884057D01*
X138406593Y-100920021D01*
X138351882Y-100921883D01*
X138270231Y-100901373D01*
X138270228Y-100901373D01*
X138264441Y-100899919D01*
X138178841Y-100899471D01*
X138100861Y-100899062D01*
X138100859Y-100899062D01*
X138094895Y-100899031D01*
X138089099Y-100900423D01*
X138089095Y-100900423D01*
X137981703Y-100926207D01*
X137930032Y-100938612D01*
X137854701Y-100977493D01*
X137784675Y-101013636D01*
X137784673Y-101013638D01*
X137779369Y-101016375D01*
X137651604Y-101127831D01*
X137648173Y-101132713D01*
X137648172Y-101132714D01*
X137596186Y-101206683D01*
X137554113Y-101266547D01*
X137551945Y-101272108D01*
X137497917Y-101410682D01*
X137492524Y-101424513D01*
X137491745Y-101430428D01*
X137491745Y-101430429D01*
X137487918Y-101459500D01*
X137470394Y-101592611D01*
X137471049Y-101598544D01*
X137471049Y-101598548D01*
X137482445Y-101701769D01*
X137488999Y-101761135D01*
X137547266Y-101920356D01*
X137550591Y-101925305D01*
X137550592Y-101925306D01*
X137572127Y-101957354D01*
X137641830Y-102061083D01*
X137767233Y-102175191D01*
X137916235Y-102256092D01*
X137950610Y-102265110D01*
X138074464Y-102297603D01*
X138074468Y-102297604D01*
X138080233Y-102299116D01*
X138086194Y-102299210D01*
X138086197Y-102299210D01*
X138164965Y-102300447D01*
X138249760Y-102301779D01*
X138255575Y-102300447D01*
X138255577Y-102300447D01*
X138409206Y-102265262D01*
X138409209Y-102265261D01*
X138415029Y-102263928D01*
X138420360Y-102261247D01*
X138420365Y-102261245D01*
X138453303Y-102244678D01*
X138513784Y-102235422D01*
X138567791Y-102263117D01*
X138753504Y-102448830D01*
X138781281Y-102503347D01*
X138782500Y-102518834D01*
X138782501Y-102729500D01*
X138782501Y-102924518D01*
X138797354Y-103018304D01*
X138852323Y-103126186D01*
X138854950Y-103131342D01*
X138854133Y-103131758D01*
X138870915Y-103183411D01*
X138852007Y-103241602D01*
X138824010Y-103267595D01*
X138754488Y-103310616D01*
X138745537Y-103317711D01*
X138632905Y-103430539D01*
X138625826Y-103439503D01*
X138542170Y-103575218D01*
X138537344Y-103585568D01*
X138487044Y-103737217D01*
X138484792Y-103747723D01*
X138475259Y-103840771D01*
X138475000Y-103845830D01*
X138475000Y-103872320D01*
X138479122Y-103885005D01*
X138483243Y-103888000D01*
X139588000Y-103888000D01*
X139646191Y-103906907D01*
X139682155Y-103956407D01*
X139687000Y-103987000D01*
X139687000Y-105109321D01*
X139687498Y-105110854D01*
X139687497Y-105172039D01*
X139651532Y-105221539D01*
X139631231Y-105232908D01*
X139626830Y-105234731D01*
X139617269Y-105236633D01*
X139550948Y-105280948D01*
X139506633Y-105347269D01*
X139495000Y-105405752D01*
X139495000Y-106938248D01*
X139506633Y-106996731D01*
X139550948Y-107063052D01*
X139617269Y-107107367D01*
X139626832Y-107109269D01*
X139626834Y-107109270D01*
X139649505Y-107113779D01*
X139675752Y-107119000D01*
X141208248Y-107119000D01*
X141234495Y-107113779D01*
X141257166Y-107109270D01*
X141257168Y-107109269D01*
X141266731Y-107107367D01*
X141333052Y-107063052D01*
X141377367Y-106996731D01*
X141389000Y-106938248D01*
X141389000Y-105405752D01*
X141377367Y-105347269D01*
X141333052Y-105280948D01*
X141266731Y-105236633D01*
X141257168Y-105234731D01*
X141257166Y-105234730D01*
X141229609Y-105229249D01*
X141208248Y-105225000D01*
X140866500Y-105225000D01*
X140808309Y-105206093D01*
X140772345Y-105156593D01*
X140767500Y-105126000D01*
X140767500Y-104916500D01*
X140786407Y-104858309D01*
X140835907Y-104822345D01*
X140866500Y-104817500D01*
X141241488Y-104817500D01*
X141245332Y-104816891D01*
X141245334Y-104816891D01*
X141333431Y-104802938D01*
X141333432Y-104802938D01*
X141341126Y-104801719D01*
X141348066Y-104798183D01*
X141454281Y-104744064D01*
X141454283Y-104744063D01*
X141461220Y-104740528D01*
X141556528Y-104645220D01*
X141582173Y-104594890D01*
X141614183Y-104532066D01*
X141614183Y-104532065D01*
X141617719Y-104525126D01*
X141633500Y-104425488D01*
X141633500Y-103858512D01*
X141632891Y-103854666D01*
X141618938Y-103766569D01*
X141618938Y-103766568D01*
X141617719Y-103758874D01*
X141588623Y-103701769D01*
X141560064Y-103645719D01*
X141560063Y-103645717D01*
X141556528Y-103638780D01*
X141461220Y-103543472D01*
X141454283Y-103539937D01*
X141454281Y-103539936D01*
X141406639Y-103515661D01*
X141362554Y-103493199D01*
X141319290Y-103449935D01*
X141308500Y-103404990D01*
X141308500Y-103364690D01*
X141327407Y-103306499D01*
X141362555Y-103276480D01*
X141464403Y-103224586D01*
X141464405Y-103224585D01*
X141471342Y-103221050D01*
X141561050Y-103131342D01*
X141564589Y-103124398D01*
X141615110Y-103025244D01*
X141615110Y-103025243D01*
X141618646Y-103018304D01*
X141633500Y-102924519D01*
X141633499Y-102518834D01*
X141652406Y-102460644D01*
X141662495Y-102448831D01*
X141975496Y-102135830D01*
X142030013Y-102108053D01*
X142090445Y-102117624D01*
X142133710Y-102160889D01*
X142144500Y-102205834D01*
X142144500Y-102758748D01*
X142156133Y-102817231D01*
X142196069Y-102876998D01*
X142212678Y-102935886D01*
X142196069Y-102987001D01*
X142156133Y-103046769D01*
X142144500Y-103105252D01*
X142144500Y-104044748D01*
X142156133Y-104103231D01*
X142161552Y-104111341D01*
X142190723Y-104154998D01*
X142207332Y-104213886D01*
X142190723Y-104265002D01*
X142156133Y-104316769D01*
X142144500Y-104375252D01*
X142144500Y-105298748D01*
X142156133Y-105357231D01*
X142194630Y-105414845D01*
X142196069Y-105416998D01*
X142212678Y-105475886D01*
X142196069Y-105527001D01*
X142156133Y-105586769D01*
X142154231Y-105596332D01*
X142154230Y-105596334D01*
X142152606Y-105604500D01*
X142144500Y-105645252D01*
X142144500Y-106584748D01*
X142156133Y-106643231D01*
X142161552Y-106651341D01*
X142190723Y-106694998D01*
X142207332Y-106753886D01*
X142190723Y-106805002D01*
X142161571Y-106848631D01*
X142156133Y-106856769D01*
X142144500Y-106915252D01*
X142144500Y-107854748D01*
X142156133Y-107913231D01*
X142161552Y-107921341D01*
X142190723Y-107964998D01*
X142207332Y-108023886D01*
X142190723Y-108075002D01*
X142156133Y-108126769D01*
X142144500Y-108185252D01*
X142144500Y-109124748D01*
X142156133Y-109183231D01*
X142161552Y-109191341D01*
X142190723Y-109234998D01*
X142207332Y-109293886D01*
X142190723Y-109345002D01*
X142156133Y-109396769D01*
X142144500Y-109455252D01*
X142144500Y-110394748D01*
X142145448Y-110399512D01*
X142152077Y-110432838D01*
X142156133Y-110453231D01*
X142161552Y-110461341D01*
X142190723Y-110504998D01*
X142207332Y-110563886D01*
X142190723Y-110615002D01*
X142156133Y-110666769D01*
X142154231Y-110676332D01*
X142154230Y-110676334D01*
X142150934Y-110692907D01*
X142144500Y-110725252D01*
X142144500Y-111664748D01*
X142145448Y-111669512D01*
X142154132Y-111713169D01*
X142156133Y-111723231D01*
X142161552Y-111731341D01*
X142190723Y-111774998D01*
X142207332Y-111833886D01*
X142190723Y-111885002D01*
X142161552Y-111928659D01*
X142156133Y-111936769D01*
X142144500Y-111995252D01*
X142144500Y-112934748D01*
X142148404Y-112954375D01*
X142153934Y-112982174D01*
X142156133Y-112993231D01*
X142161552Y-113001341D01*
X142190723Y-113044998D01*
X142207332Y-113103886D01*
X142190723Y-113155002D01*
X142185080Y-113163448D01*
X142156133Y-113206769D01*
X142154231Y-113216332D01*
X142154230Y-113216334D01*
X142149854Y-113238338D01*
X142144500Y-113265252D01*
X142144500Y-113646500D01*
X142125593Y-113704691D01*
X142076093Y-113740655D01*
X142045500Y-113745500D01*
X140455500Y-113745500D01*
X140397309Y-113726593D01*
X140361345Y-113677093D01*
X140356500Y-113646500D01*
X140356500Y-113288252D01*
X140344867Y-113229769D01*
X140300552Y-113163448D01*
X140234231Y-113119133D01*
X140224668Y-113117231D01*
X140224666Y-113117230D01*
X140201995Y-113112721D01*
X140175748Y-113107500D01*
X138736252Y-113107500D01*
X138710005Y-113112721D01*
X138687334Y-113117230D01*
X138687332Y-113117231D01*
X138677769Y-113119133D01*
X138611448Y-113163448D01*
X138609700Y-113160832D01*
X138569566Y-113181281D01*
X138554079Y-113182500D01*
X138478534Y-113182500D01*
X138469905Y-113182123D01*
X138439822Y-113179491D01*
X138431193Y-113178736D01*
X138422826Y-113180978D01*
X138393651Y-113188796D01*
X138385216Y-113190666D01*
X138355483Y-113195908D01*
X138355481Y-113195909D01*
X138346955Y-113197412D01*
X138339456Y-113201742D01*
X138333971Y-113203738D01*
X138328684Y-113206204D01*
X138320316Y-113208446D01*
X138290944Y-113229013D01*
X138288489Y-113230732D01*
X138281206Y-113235372D01*
X138254999Y-113250502D01*
X138195153Y-113263224D01*
X138139257Y-113238338D01*
X138108664Y-113185351D01*
X138106500Y-113164766D01*
X138106500Y-112638252D01*
X138101098Y-112611093D01*
X138096770Y-112589334D01*
X138096769Y-112589332D01*
X138094867Y-112579769D01*
X138050552Y-112513448D01*
X137984231Y-112469133D01*
X137974668Y-112467231D01*
X137974666Y-112467230D01*
X137951995Y-112462721D01*
X137925748Y-112457500D01*
X137548811Y-112457500D01*
X137490620Y-112438593D01*
X137454656Y-112389093D01*
X137454656Y-112327907D01*
X137490620Y-112278407D01*
X137500437Y-112272123D01*
X137509297Y-112267161D01*
X137586893Y-112223705D01*
X137634594Y-112184033D01*
X137705075Y-112125414D01*
X137756033Y-112083033D01*
X137896705Y-111913893D01*
X137973998Y-111775878D01*
X138001981Y-111725911D01*
X138001982Y-111725909D01*
X138004199Y-111721950D01*
X138011710Y-111699822D01*
X138073453Y-111517933D01*
X138073454Y-111517930D01*
X138074913Y-111513631D01*
X138098494Y-111351000D01*
X138106061Y-111298814D01*
X138106061Y-111298808D01*
X138106481Y-111295915D01*
X138106563Y-111292809D01*
X138108052Y-111235914D01*
X138108052Y-111235909D01*
X138108128Y-111233000D01*
X138105237Y-111201532D01*
X138090614Y-111042397D01*
X138087998Y-111013930D01*
X138028283Y-110802196D01*
X138016003Y-110777295D01*
X137932994Y-110608967D01*
X137932992Y-110608963D01*
X137930983Y-110604890D01*
X137810591Y-110443666D01*
X137802071Y-110432256D01*
X137802070Y-110432255D01*
X137799355Y-110428619D01*
X137637809Y-110279288D01*
X137615339Y-110265110D01*
X137455592Y-110164317D01*
X137451755Y-110161896D01*
X137247423Y-110080376D01*
X137031657Y-110037457D01*
X136921670Y-110036018D01*
X136816221Y-110034637D01*
X136816217Y-110034637D01*
X136811682Y-110034578D01*
X136807207Y-110035347D01*
X136807206Y-110035347D01*
X136794927Y-110037457D01*
X136594866Y-110071834D01*
X136388471Y-110147977D01*
X136199407Y-110260458D01*
X136195992Y-110263453D01*
X136195989Y-110263455D01*
X136161895Y-110293355D01*
X136034007Y-110405510D01*
X135897811Y-110578274D01*
X135795379Y-110772966D01*
X135730141Y-110983064D01*
X135729607Y-110987574D01*
X135729607Y-110987575D01*
X135705551Y-111190831D01*
X135704284Y-111201532D01*
X135707592Y-111252000D01*
X135718334Y-111415893D01*
X135718672Y-111421054D01*
X135719788Y-111425447D01*
X135719788Y-111425449D01*
X135771708Y-111629885D01*
X135772824Y-111634279D01*
X135864927Y-111834064D01*
X135991895Y-112013720D01*
X136149476Y-112167229D01*
X136153248Y-112169749D01*
X136153250Y-112169751D01*
X136312540Y-112276185D01*
X136350420Y-112324234D01*
X136352822Y-112385373D01*
X136318829Y-112436246D01*
X136257539Y-112457500D01*
X135886252Y-112457500D01*
X135860005Y-112462721D01*
X135837334Y-112467230D01*
X135837332Y-112467231D01*
X135827769Y-112469133D01*
X135761448Y-112513448D01*
X135717133Y-112579769D01*
X135715231Y-112589332D01*
X135715230Y-112589334D01*
X135710902Y-112611093D01*
X135705500Y-112638252D01*
X135705500Y-114577748D01*
X135717133Y-114636231D01*
X135761448Y-114702552D01*
X135796070Y-114725686D01*
X135833947Y-114773736D01*
X135836349Y-114834874D01*
X135802355Y-114885747D01*
X135796076Y-114890310D01*
X135761448Y-114913448D01*
X135717133Y-114979769D01*
X135705500Y-115038252D01*
X135705500Y-116977748D01*
X135706448Y-116982512D01*
X135714414Y-117022560D01*
X135717133Y-117036231D01*
X135761448Y-117102552D01*
X135827769Y-117146867D01*
X135837332Y-117148769D01*
X135837334Y-117148770D01*
X135855409Y-117152365D01*
X135886252Y-117158500D01*
X136262880Y-117158500D01*
X136321071Y-117177407D01*
X136357035Y-117226907D01*
X136357035Y-117288093D01*
X136321071Y-117337593D01*
X136313498Y-117342581D01*
X136199407Y-117410458D01*
X136195992Y-117413453D01*
X136195989Y-117413455D01*
X136079258Y-117515826D01*
X136034007Y-117555510D01*
X135897811Y-117728274D01*
X135795379Y-117922966D01*
X135770164Y-118004170D01*
X135738622Y-118105752D01*
X135730141Y-118133064D01*
X135729607Y-118137574D01*
X135729607Y-118137575D01*
X135705233Y-118343517D01*
X135704284Y-118351532D01*
X135708550Y-118416623D01*
X135718002Y-118560826D01*
X135718672Y-118571054D01*
X135719788Y-118575447D01*
X135719788Y-118575449D01*
X135767076Y-118761647D01*
X135772824Y-118784279D01*
X135864927Y-118984064D01*
X135991895Y-119163720D01*
X136149476Y-119317229D01*
X136153248Y-119319749D01*
X136153250Y-119319751D01*
X136202945Y-119352956D01*
X136332394Y-119439451D01*
X136534522Y-119526292D01*
X136592504Y-119539412D01*
X136744665Y-119573843D01*
X136744670Y-119573844D01*
X136749091Y-119574844D01*
X136859003Y-119579163D01*
X136964382Y-119583303D01*
X136964383Y-119583303D01*
X136968915Y-119583481D01*
X137186631Y-119551913D01*
X137190930Y-119550454D01*
X137190933Y-119550453D01*
X137325233Y-119504865D01*
X137386413Y-119504064D01*
X137436380Y-119539377D01*
X137456047Y-119597316D01*
X137437902Y-119655749D01*
X137427063Y-119668610D01*
X136885072Y-120210602D01*
X135672943Y-121422731D01*
X135666576Y-121428565D01*
X135636806Y-121453545D01*
X135617373Y-121487205D01*
X135612732Y-121494489D01*
X135590446Y-121526316D01*
X135588204Y-121534684D01*
X135585738Y-121539971D01*
X135583742Y-121545456D01*
X135579412Y-121552955D01*
X135577909Y-121561481D01*
X135577908Y-121561483D01*
X135572666Y-121591216D01*
X135570796Y-121599651D01*
X135567661Y-121611352D01*
X135560736Y-121637193D01*
X135561491Y-121645822D01*
X135564123Y-121675905D01*
X135564500Y-121684534D01*
X135564500Y-124441466D01*
X135564123Y-124450095D01*
X135560736Y-124488807D01*
X135562978Y-124497174D01*
X135570796Y-124526349D01*
X135572666Y-124534784D01*
X135577801Y-124563907D01*
X135579412Y-124573045D01*
X135583742Y-124580544D01*
X135585738Y-124586029D01*
X135588204Y-124591316D01*
X135590446Y-124599684D01*
X135605124Y-124620646D01*
X135612732Y-124631511D01*
X135617371Y-124638792D01*
X135636806Y-124672455D01*
X135661886Y-124693500D01*
X135666571Y-124697431D01*
X135672939Y-124703265D01*
X138115504Y-127145831D01*
X138143281Y-127200348D01*
X138144500Y-127215835D01*
X138144500Y-127959748D01*
X138145630Y-127965429D01*
X138151551Y-127995194D01*
X138156133Y-128018231D01*
X138200448Y-128084552D01*
X138266769Y-128128867D01*
X138276332Y-128130769D01*
X138276334Y-128130770D01*
X138297712Y-128135022D01*
X138325252Y-128140500D01*
X139464748Y-128140500D01*
X139492288Y-128135022D01*
X139513666Y-128130770D01*
X139513668Y-128130769D01*
X139523231Y-128128867D01*
X139589552Y-128084552D01*
X139633867Y-128018231D01*
X139638450Y-127995194D01*
X139644370Y-127965429D01*
X139645500Y-127959748D01*
X139645500Y-126040252D01*
X139636870Y-125996864D01*
X139635770Y-125991334D01*
X139635769Y-125991332D01*
X139633867Y-125981769D01*
X139589552Y-125915448D01*
X139523231Y-125871133D01*
X139513668Y-125869231D01*
X139513666Y-125869230D01*
X139489397Y-125864403D01*
X139464748Y-125859500D01*
X138325252Y-125859500D01*
X138300603Y-125864403D01*
X138276334Y-125869230D01*
X138276332Y-125869231D01*
X138266769Y-125871133D01*
X138200448Y-125915448D01*
X138156133Y-125981769D01*
X138154231Y-125991332D01*
X138154230Y-125991334D01*
X138145142Y-126037023D01*
X138115245Y-126090407D01*
X138059680Y-126116023D01*
X137999670Y-126104086D01*
X137978040Y-126087713D01*
X137371827Y-125481500D01*
X136503830Y-124613504D01*
X136476053Y-124558987D01*
X136485624Y-124498555D01*
X136528889Y-124455290D01*
X136573834Y-124444500D01*
X136890320Y-124444500D01*
X136903005Y-124440378D01*
X136906000Y-124436257D01*
X136906000Y-124428819D01*
X137414000Y-124428819D01*
X137418122Y-124441504D01*
X137422243Y-124444499D01*
X137951911Y-124444499D01*
X137957251Y-124444210D01*
X138010535Y-124438422D01*
X138022520Y-124435573D01*
X138146355Y-124389149D01*
X138158608Y-124382441D01*
X138263756Y-124303637D01*
X138273637Y-124293756D01*
X138352441Y-124188608D01*
X138359149Y-124176355D01*
X138405572Y-124052522D01*
X138408423Y-124040533D01*
X138414211Y-123987248D01*
X138414500Y-123981914D01*
X138414500Y-123459680D01*
X138410378Y-123446995D01*
X138406257Y-123444000D01*
X137429680Y-123444000D01*
X137416995Y-123448122D01*
X137414000Y-123452243D01*
X137414000Y-124428819D01*
X136906000Y-124428819D01*
X136906000Y-122920320D01*
X137414000Y-122920320D01*
X137418122Y-122933005D01*
X137422243Y-122936000D01*
X138398819Y-122936000D01*
X138411504Y-122931878D01*
X138414499Y-122927757D01*
X138414499Y-122398089D01*
X138414210Y-122392749D01*
X138408422Y-122339465D01*
X138405573Y-122327480D01*
X138359149Y-122203645D01*
X138352441Y-122191392D01*
X138273637Y-122086244D01*
X138263756Y-122076363D01*
X138158608Y-121997559D01*
X138146355Y-121990851D01*
X138022522Y-121944428D01*
X138010533Y-121941577D01*
X137957248Y-121935789D01*
X137951914Y-121935500D01*
X137429680Y-121935500D01*
X137416995Y-121939622D01*
X137414000Y-121943743D01*
X137414000Y-122920320D01*
X136906000Y-122920320D01*
X136906000Y-121951181D01*
X136901878Y-121938496D01*
X136897757Y-121935501D01*
X136368089Y-121935501D01*
X136362752Y-121935790D01*
X136325623Y-121939823D01*
X136265730Y-121927310D01*
X136224632Y-121881983D01*
X136218024Y-121821156D01*
X136244928Y-121771398D01*
X138647069Y-119369258D01*
X138653424Y-119363435D01*
X138683194Y-119338455D01*
X138694793Y-119318366D01*
X138702628Y-119304794D01*
X138707269Y-119297509D01*
X138714149Y-119287684D01*
X138729553Y-119265684D01*
X138731795Y-119257318D01*
X138734262Y-119252027D01*
X138736255Y-119246550D01*
X138740588Y-119239045D01*
X138747337Y-119200769D01*
X138749206Y-119192337D01*
X138750948Y-119185837D01*
X138759263Y-119154807D01*
X138755877Y-119116103D01*
X138755500Y-119107475D01*
X138755500Y-117500522D01*
X138755877Y-117491893D01*
X138758508Y-117461822D01*
X138759263Y-117453193D01*
X138749205Y-117415657D01*
X138747337Y-117407231D01*
X138743861Y-117387517D01*
X138740588Y-117368955D01*
X138736255Y-117361450D01*
X138734262Y-117355973D01*
X138731795Y-117350682D01*
X138729553Y-117342316D01*
X138707259Y-117310476D01*
X138702628Y-117303206D01*
X138687524Y-117277044D01*
X138687523Y-117277042D01*
X138683194Y-117269545D01*
X138653429Y-117244569D01*
X138647062Y-117238735D01*
X138585497Y-117177170D01*
X138557719Y-117122655D01*
X138556500Y-117107167D01*
X138556500Y-116909889D01*
X138575407Y-116851698D01*
X138624907Y-116815734D01*
X138666192Y-116811468D01*
X138705252Y-116815711D01*
X138710586Y-116816000D01*
X139240320Y-116816000D01*
X139253005Y-116811878D01*
X139256000Y-116807757D01*
X139256000Y-116800319D01*
X139656000Y-116800319D01*
X139660122Y-116813004D01*
X139664243Y-116815999D01*
X140201411Y-116815999D01*
X140206751Y-116815710D01*
X140260035Y-116809922D01*
X140272020Y-116807073D01*
X140395855Y-116760649D01*
X140408108Y-116753941D01*
X140513256Y-116675137D01*
X140523137Y-116665256D01*
X140601941Y-116560108D01*
X140608649Y-116547855D01*
X140655072Y-116424022D01*
X140657923Y-116412033D01*
X140663711Y-116358748D01*
X140664000Y-116353414D01*
X140664000Y-116323680D01*
X140659878Y-116310995D01*
X140655757Y-116308000D01*
X139671680Y-116308000D01*
X139658995Y-116312122D01*
X139656000Y-116316243D01*
X139656000Y-116800319D01*
X139256000Y-116800319D01*
X139256000Y-116007000D01*
X139274907Y-115948809D01*
X139324407Y-115912845D01*
X139355000Y-115908000D01*
X140648319Y-115908000D01*
X140661004Y-115903878D01*
X140663999Y-115899757D01*
X140663999Y-115862589D01*
X140663710Y-115857249D01*
X140657922Y-115803965D01*
X140655073Y-115791980D01*
X140608649Y-115668145D01*
X140601941Y-115655892D01*
X140523137Y-115550744D01*
X140513256Y-115540863D01*
X140408105Y-115462057D01*
X140407955Y-115461975D01*
X140407858Y-115461872D01*
X140402462Y-115457828D01*
X140403164Y-115456891D01*
X140365995Y-115417445D01*
X140356500Y-115375139D01*
X140356500Y-115238252D01*
X140354225Y-115226813D01*
X140361417Y-115166051D01*
X140402951Y-115121122D01*
X140451323Y-115108500D01*
X142045500Y-115108500D01*
X142103691Y-115127407D01*
X142139655Y-115176907D01*
X142144500Y-115207500D01*
X142144500Y-115474748D01*
X142156133Y-115533231D01*
X142200448Y-115599552D01*
X142266769Y-115643867D01*
X142276332Y-115645769D01*
X142276334Y-115645770D01*
X142299005Y-115650279D01*
X142325252Y-115655500D01*
X144524748Y-115655500D01*
X144550995Y-115650279D01*
X144573666Y-115645770D01*
X144573668Y-115645769D01*
X144583231Y-115643867D01*
X144649552Y-115599552D01*
X144688184Y-115541735D01*
X144736235Y-115503856D01*
X144797374Y-115501454D01*
X144848247Y-115535448D01*
X144869500Y-115596737D01*
X144869500Y-116063500D01*
X144850593Y-116121691D01*
X144801093Y-116157655D01*
X144770500Y-116162500D01*
X144619526Y-116162500D01*
X144610898Y-116162123D01*
X144607576Y-116161832D01*
X144572193Y-116158737D01*
X144563830Y-116160978D01*
X144563827Y-116160978D01*
X144534656Y-116168794D01*
X144526229Y-116170663D01*
X144487955Y-116177412D01*
X144480454Y-116181743D01*
X144474960Y-116183742D01*
X144469678Y-116186205D01*
X144461316Y-116188446D01*
X144454223Y-116193413D01*
X144454222Y-116193413D01*
X144429478Y-116210739D01*
X144422219Y-116215364D01*
X144388545Y-116234806D01*
X144382975Y-116241444D01*
X144363575Y-116264564D01*
X144357741Y-116270932D01*
X143259719Y-117368955D01*
X142175170Y-118453504D01*
X142120653Y-118481281D01*
X142105166Y-118482500D01*
X141738220Y-118482501D01*
X141699482Y-118482501D01*
X141695639Y-118483110D01*
X141695634Y-118483110D01*
X141659241Y-118488874D01*
X141605696Y-118497354D01*
X141564856Y-118518163D01*
X141499597Y-118551414D01*
X141499595Y-118551415D01*
X141492658Y-118554950D01*
X141402950Y-118644658D01*
X141399415Y-118651595D01*
X141399414Y-118651597D01*
X141366090Y-118717000D01*
X141345354Y-118757696D01*
X141344135Y-118765390D01*
X141344135Y-118765391D01*
X141331109Y-118847635D01*
X141330500Y-118851481D01*
X141330501Y-119314518D01*
X141331110Y-119318361D01*
X141331110Y-119318366D01*
X141333942Y-119336246D01*
X141345354Y-119408304D01*
X141362197Y-119441360D01*
X141399413Y-119514400D01*
X141402950Y-119521342D01*
X141492658Y-119611050D01*
X141499596Y-119614585D01*
X141499600Y-119614588D01*
X141585964Y-119658593D01*
X141629228Y-119701857D01*
X141638799Y-119762290D01*
X141611021Y-119816806D01*
X141570623Y-119841272D01*
X141443203Y-119881202D01*
X141432403Y-119886079D01*
X141296035Y-119968667D01*
X141286712Y-119975976D01*
X141173976Y-120088712D01*
X141166667Y-120098035D01*
X141084079Y-120234403D01*
X141079202Y-120245203D01*
X141031313Y-120398021D01*
X141029263Y-120408257D01*
X141023938Y-120466206D01*
X141027122Y-120476005D01*
X141031243Y-120479000D01*
X144134820Y-120479000D01*
X144147505Y-120474878D01*
X144150500Y-120470757D01*
X144150500Y-120463000D01*
X144169407Y-120404809D01*
X144218907Y-120368845D01*
X144249500Y-120364000D01*
X145253500Y-120364000D01*
X145311691Y-120382907D01*
X145347655Y-120432407D01*
X145352500Y-120463000D01*
X145352500Y-120773000D01*
X145333593Y-120831191D01*
X145284093Y-120867155D01*
X145253500Y-120872000D01*
X144568680Y-120872000D01*
X144555995Y-120876122D01*
X144553000Y-120880243D01*
X144553000Y-120888000D01*
X144534093Y-120946191D01*
X144484593Y-120982155D01*
X144454000Y-120987000D01*
X141038681Y-120987000D01*
X141025996Y-120991122D01*
X141023462Y-120994609D01*
X141029263Y-121057744D01*
X141031312Y-121067978D01*
X141079202Y-121220797D01*
X141084081Y-121231601D01*
X141092407Y-121245350D01*
X141106379Y-121304919D01*
X141082668Y-121361323D01*
X141061671Y-121378693D01*
X141058740Y-121379760D01*
X141043216Y-121392785D01*
X141029094Y-121402674D01*
X141011545Y-121412806D01*
X141005979Y-121419440D01*
X141005977Y-121419441D01*
X140998522Y-121428325D01*
X140986325Y-121440523D01*
X140970806Y-121453545D01*
X140966477Y-121461044D01*
X140966474Y-121461047D01*
X140960680Y-121471083D01*
X140950782Y-121485219D01*
X140945977Y-121490946D01*
X140937760Y-121500739D01*
X140930829Y-121519783D01*
X140923539Y-121535415D01*
X140913412Y-121552955D01*
X140911908Y-121561483D01*
X140910098Y-121566457D01*
X140887073Y-121602601D01*
X140207749Y-122281925D01*
X140153232Y-122309702D01*
X140108469Y-122306493D01*
X139955971Y-122259286D01*
X139955962Y-122259284D01*
X139951342Y-122257854D01*
X139946532Y-122257348D01*
X139946530Y-122257348D01*
X139771459Y-122238947D01*
X139771457Y-122238947D01*
X139766643Y-122238441D01*
X139705654Y-122243991D01*
X139586511Y-122254834D01*
X139586508Y-122254835D01*
X139581691Y-122255273D01*
X139577049Y-122256639D01*
X139577045Y-122256640D01*
X139408178Y-122306341D01*
X139408175Y-122306342D01*
X139403531Y-122307709D01*
X139365885Y-122327390D01*
X139243246Y-122391503D01*
X139243241Y-122391506D01*
X139238949Y-122393750D01*
X139235173Y-122396786D01*
X139235170Y-122396788D01*
X139097985Y-122507088D01*
X139094213Y-122510121D01*
X139091104Y-122513826D01*
X139091101Y-122513829D01*
X138979284Y-122647088D01*
X138974837Y-122652388D01*
X138972501Y-122656636D01*
X138972501Y-122656637D01*
X138889533Y-122807555D01*
X138885367Y-122815132D01*
X138883904Y-122819745D01*
X138883902Y-122819749D01*
X138846216Y-122938552D01*
X138829212Y-122992155D01*
X138828672Y-122996966D01*
X138828672Y-122996968D01*
X138809644Y-123166617D01*
X138808511Y-123176714D01*
X138810676Y-123202500D01*
X138823384Y-123353830D01*
X138824051Y-123361779D01*
X138825384Y-123366427D01*
X138825384Y-123366428D01*
X138871555Y-123527445D01*
X138875241Y-123540301D01*
X138960132Y-123705480D01*
X139075489Y-123851024D01*
X139079169Y-123854156D01*
X139079171Y-123854158D01*
X139183712Y-123943129D01*
X139216919Y-123971391D01*
X139221141Y-123973751D01*
X139221146Y-123973754D01*
X139324825Y-124031697D01*
X139379035Y-124061994D01*
X139454158Y-124086403D01*
X139551057Y-124117888D01*
X139551060Y-124117889D01*
X139555662Y-124119384D01*
X139740072Y-124141373D01*
X139744894Y-124141002D01*
X139744897Y-124141002D01*
X139920412Y-124127497D01*
X139920417Y-124127496D01*
X139925240Y-124127125D01*
X140104115Y-124077183D01*
X140108433Y-124075002D01*
X140265562Y-123995630D01*
X140265564Y-123995629D01*
X140269883Y-123993447D01*
X140273700Y-123990465D01*
X140412414Y-123882091D01*
X140412418Y-123882087D01*
X140416230Y-123879109D01*
X140425388Y-123868500D01*
X140534416Y-123742189D01*
X140534418Y-123742187D01*
X140537580Y-123738523D01*
X140604573Y-123620593D01*
X140626920Y-123581256D01*
X140626921Y-123581254D01*
X140629313Y-123577043D01*
X140671790Y-123449354D01*
X140686407Y-123405416D01*
X140686408Y-123405414D01*
X140687935Y-123400822D01*
X140711211Y-123216570D01*
X140711582Y-123190000D01*
X140710280Y-123176714D01*
X140699263Y-123064363D01*
X140693459Y-123005170D01*
X140643726Y-122840446D01*
X140645008Y-122779275D01*
X140668497Y-122741829D01*
X141389830Y-122020496D01*
X141444347Y-121992719D01*
X141459834Y-121991500D01*
X142859166Y-121991500D01*
X142917357Y-122010407D01*
X142953321Y-122059907D01*
X142953321Y-122121093D01*
X142929170Y-122160504D01*
X142807749Y-122281925D01*
X142753232Y-122309702D01*
X142708469Y-122306493D01*
X142555971Y-122259286D01*
X142555962Y-122259284D01*
X142551342Y-122257854D01*
X142546532Y-122257348D01*
X142546530Y-122257348D01*
X142371459Y-122238947D01*
X142371457Y-122238947D01*
X142366643Y-122238441D01*
X142305654Y-122243991D01*
X142186511Y-122254834D01*
X142186508Y-122254835D01*
X142181691Y-122255273D01*
X142177049Y-122256639D01*
X142177045Y-122256640D01*
X142008178Y-122306341D01*
X142008175Y-122306342D01*
X142003531Y-122307709D01*
X141965885Y-122327390D01*
X141843246Y-122391503D01*
X141843241Y-122391506D01*
X141838949Y-122393750D01*
X141835173Y-122396786D01*
X141835170Y-122396788D01*
X141697985Y-122507088D01*
X141694213Y-122510121D01*
X141691104Y-122513826D01*
X141691101Y-122513829D01*
X141579284Y-122647088D01*
X141574837Y-122652388D01*
X141572501Y-122656636D01*
X141572501Y-122656637D01*
X141489533Y-122807555D01*
X141485367Y-122815132D01*
X141483904Y-122819745D01*
X141483902Y-122819749D01*
X141446216Y-122938552D01*
X141429212Y-122992155D01*
X141428672Y-122996966D01*
X141428672Y-122996968D01*
X141409644Y-123166617D01*
X141408511Y-123176714D01*
X141410676Y-123202500D01*
X141423384Y-123353830D01*
X141424051Y-123361779D01*
X141425384Y-123366427D01*
X141425384Y-123366428D01*
X141471555Y-123527445D01*
X141475241Y-123540301D01*
X141560132Y-123705480D01*
X141675489Y-123851024D01*
X141679169Y-123854156D01*
X141679171Y-123854158D01*
X141783712Y-123943129D01*
X141816919Y-123971391D01*
X141821141Y-123973751D01*
X141821146Y-123973754D01*
X141924825Y-124031697D01*
X141979035Y-124061994D01*
X142054158Y-124086403D01*
X142151057Y-124117888D01*
X142151060Y-124117889D01*
X142155662Y-124119384D01*
X142340072Y-124141373D01*
X142344894Y-124141002D01*
X142344897Y-124141002D01*
X142520412Y-124127497D01*
X142520417Y-124127496D01*
X142525240Y-124127125D01*
X142704115Y-124077183D01*
X142708433Y-124075002D01*
X142865562Y-123995630D01*
X142865564Y-123995629D01*
X142869883Y-123993447D01*
X142873700Y-123990465D01*
X143012414Y-123882091D01*
X143012418Y-123882087D01*
X143016230Y-123879109D01*
X143025388Y-123868500D01*
X143134416Y-123742189D01*
X143134418Y-123742187D01*
X143137580Y-123738523D01*
X143204573Y-123620593D01*
X143226920Y-123581256D01*
X143226921Y-123581254D01*
X143229313Y-123577043D01*
X143271790Y-123449354D01*
X143286407Y-123405416D01*
X143286408Y-123405414D01*
X143287935Y-123400822D01*
X143311211Y-123216570D01*
X143311582Y-123190000D01*
X143310280Y-123176714D01*
X143299263Y-123064363D01*
X143293459Y-123005170D01*
X143243726Y-122840446D01*
X143245008Y-122779275D01*
X143268497Y-122741829D01*
X143537330Y-122472996D01*
X143591847Y-122445219D01*
X143607334Y-122444000D01*
X143957389Y-122444000D01*
X144015580Y-122462907D01*
X144051544Y-122512407D01*
X144051544Y-122573593D01*
X144033229Y-122606634D01*
X143994837Y-122652388D01*
X143992501Y-122656636D01*
X143992501Y-122656637D01*
X143909533Y-122807555D01*
X143905367Y-122815132D01*
X143903904Y-122819745D01*
X143903902Y-122819749D01*
X143866216Y-122938552D01*
X143849212Y-122992155D01*
X143848672Y-122996966D01*
X143848672Y-122996968D01*
X143829644Y-123166617D01*
X143828511Y-123176714D01*
X143830676Y-123202500D01*
X143843384Y-123353830D01*
X143844051Y-123361779D01*
X143845384Y-123366427D01*
X143845384Y-123366428D01*
X143891555Y-123527445D01*
X143895241Y-123540301D01*
X143980132Y-123705480D01*
X144095489Y-123851024D01*
X144099169Y-123854156D01*
X144099171Y-123854158D01*
X144203712Y-123943129D01*
X144236919Y-123971391D01*
X144241141Y-123973751D01*
X144241146Y-123973754D01*
X144344825Y-124031697D01*
X144399035Y-124061994D01*
X144474158Y-124086403D01*
X144571057Y-124117888D01*
X144571060Y-124117889D01*
X144575662Y-124119384D01*
X144760072Y-124141373D01*
X144764894Y-124141002D01*
X144764897Y-124141002D01*
X144940412Y-124127497D01*
X144940417Y-124127496D01*
X144945240Y-124127125D01*
X145124115Y-124077183D01*
X145128433Y-124075002D01*
X145285562Y-123995630D01*
X145285564Y-123995629D01*
X145289883Y-123993447D01*
X145293700Y-123990465D01*
X145432414Y-123882091D01*
X145432418Y-123882087D01*
X145436230Y-123879109D01*
X145445388Y-123868500D01*
X145554416Y-123742189D01*
X145554418Y-123742187D01*
X145557580Y-123738523D01*
X145624573Y-123620593D01*
X145646920Y-123581256D01*
X145646921Y-123581254D01*
X145649313Y-123577043D01*
X145691790Y-123449354D01*
X145706407Y-123405416D01*
X145706408Y-123405414D01*
X145707935Y-123400822D01*
X145731211Y-123216570D01*
X145731582Y-123190000D01*
X145730280Y-123176714D01*
X145719263Y-123064363D01*
X145713459Y-123005170D01*
X145659781Y-122827380D01*
X145591019Y-122698057D01*
X145574866Y-122667677D01*
X145574864Y-122667673D01*
X145572593Y-122663403D01*
X145569535Y-122659653D01*
X145569530Y-122659646D01*
X145525427Y-122605571D01*
X145503300Y-122548527D01*
X145518930Y-122489371D01*
X145566345Y-122450700D01*
X145602146Y-122444000D01*
X147865487Y-122444000D01*
X147874116Y-122444377D01*
X147912828Y-122447764D01*
X147922326Y-122445219D01*
X147950370Y-122437704D01*
X147958805Y-122435834D01*
X147988538Y-122430592D01*
X147988540Y-122430591D01*
X147997066Y-122429088D01*
X148004565Y-122424758D01*
X148010050Y-122422762D01*
X148015338Y-122420296D01*
X148023705Y-122418054D01*
X148030801Y-122413085D01*
X148038650Y-122409425D01*
X148040143Y-122412627D01*
X148083242Y-122399457D01*
X148141091Y-122419385D01*
X148176178Y-122469510D01*
X148180500Y-122498442D01*
X148180500Y-122717246D01*
X148181109Y-122721090D01*
X148181109Y-122721092D01*
X148194785Y-122807437D01*
X148196049Y-122815420D01*
X148199585Y-122822359D01*
X148199585Y-122822360D01*
X148252267Y-122925753D01*
X148256342Y-122933751D01*
X148350249Y-123027658D01*
X148357186Y-123031193D01*
X148357188Y-123031194D01*
X148439021Y-123072890D01*
X148468580Y-123087951D01*
X148476273Y-123089170D01*
X148476275Y-123089170D01*
X148562908Y-123102891D01*
X148562910Y-123102891D01*
X148566754Y-123103500D01*
X148719500Y-123103500D01*
X148777691Y-123122407D01*
X148813655Y-123171907D01*
X148818500Y-123202500D01*
X148818500Y-124577614D01*
X148799593Y-124635805D01*
X148750093Y-124671769D01*
X148688907Y-124671769D01*
X148640279Y-124636986D01*
X148586137Y-124564744D01*
X148576256Y-124554863D01*
X148471105Y-124476057D01*
X148470955Y-124475975D01*
X148470858Y-124475872D01*
X148465462Y-124471828D01*
X148466164Y-124470891D01*
X148428995Y-124431445D01*
X148419500Y-124389139D01*
X148419500Y-123952252D01*
X148411186Y-123910455D01*
X148409770Y-123903334D01*
X148409769Y-123903332D01*
X148407867Y-123893769D01*
X148363552Y-123827448D01*
X148297231Y-123783133D01*
X148287668Y-123781231D01*
X148287666Y-123781230D01*
X148264995Y-123776721D01*
X148238748Y-123771500D01*
X146949252Y-123771500D01*
X146923005Y-123776721D01*
X146900334Y-123781230D01*
X146900332Y-123781231D01*
X146890769Y-123783133D01*
X146824448Y-123827448D01*
X146780133Y-123893769D01*
X146778231Y-123903332D01*
X146778230Y-123903334D01*
X146776814Y-123910455D01*
X146768500Y-123952252D01*
X146768500Y-124002166D01*
X146749593Y-124060357D01*
X146739504Y-124072169D01*
X146340949Y-124470725D01*
X146334581Y-124476561D01*
X146304806Y-124501545D01*
X146286097Y-124533951D01*
X146285373Y-124535205D01*
X146280732Y-124542489D01*
X146258446Y-124574316D01*
X146256204Y-124582684D01*
X146253738Y-124587971D01*
X146251742Y-124593456D01*
X146247412Y-124600955D01*
X146245909Y-124609481D01*
X146245908Y-124609483D01*
X146240666Y-124639216D01*
X146238796Y-124647651D01*
X146236183Y-124657404D01*
X146228736Y-124685193D01*
X146230517Y-124705549D01*
X146232123Y-124723905D01*
X146232500Y-124732534D01*
X146232500Y-126570166D01*
X146213593Y-126628357D01*
X146203510Y-126640163D01*
X146198177Y-126645497D01*
X146143663Y-126673280D01*
X146128167Y-126674500D01*
X143894500Y-126674500D01*
X143836309Y-126655593D01*
X143800345Y-126606093D01*
X143795500Y-126575500D01*
X143795500Y-126040252D01*
X143786870Y-125996864D01*
X143785770Y-125991334D01*
X143785769Y-125991332D01*
X143783867Y-125981769D01*
X143739552Y-125915448D01*
X143673231Y-125871133D01*
X143663668Y-125869231D01*
X143663666Y-125869230D01*
X143639397Y-125864403D01*
X143614748Y-125859500D01*
X142475252Y-125859500D01*
X142450603Y-125864403D01*
X142426334Y-125869230D01*
X142426332Y-125869231D01*
X142416769Y-125871133D01*
X142350448Y-125915448D01*
X142306133Y-125981769D01*
X142304231Y-125991332D01*
X142304230Y-125991334D01*
X142303130Y-125996864D01*
X142294500Y-126040252D01*
X142294500Y-127959748D01*
X142295630Y-127965429D01*
X142301551Y-127995194D01*
X142306133Y-128018231D01*
X142350448Y-128084552D01*
X142416769Y-128128867D01*
X142426332Y-128130769D01*
X142426334Y-128130770D01*
X142447712Y-128135022D01*
X142475252Y-128140500D01*
X143614748Y-128140500D01*
X143642288Y-128135022D01*
X143663666Y-128130770D01*
X143663668Y-128130769D01*
X143673231Y-128128867D01*
X143739552Y-128084552D01*
X143783867Y-128018231D01*
X143788450Y-127995194D01*
X143794370Y-127965429D01*
X143795500Y-127959748D01*
X143795500Y-127424500D01*
X143814407Y-127366309D01*
X143863907Y-127330345D01*
X143894500Y-127325500D01*
X146285466Y-127325500D01*
X146294094Y-127325877D01*
X146303604Y-127326709D01*
X146326364Y-127328700D01*
X146382684Y-127352606D01*
X146414198Y-127405052D01*
X146411701Y-127458490D01*
X146361045Y-127611214D01*
X146358792Y-127621723D01*
X146349259Y-127714771D01*
X146349000Y-127719830D01*
X146349000Y-127746320D01*
X146353122Y-127759005D01*
X146357243Y-127762000D01*
X147462000Y-127762000D01*
X147520191Y-127780907D01*
X147556155Y-127830407D01*
X147561000Y-127861000D01*
X147561000Y-128983320D01*
X147565122Y-128996005D01*
X147569243Y-128999000D01*
X147578135Y-128999000D01*
X147583262Y-128998735D01*
X147677525Y-128988953D01*
X147688054Y-128986680D01*
X147839600Y-128936121D01*
X147849947Y-128931274D01*
X147985512Y-128847384D01*
X147994463Y-128840289D01*
X148107095Y-128727461D01*
X148114174Y-128718497D01*
X148189008Y-128597092D01*
X148235638Y-128557477D01*
X148296647Y-128552836D01*
X148343288Y-128579036D01*
X148378780Y-128614528D01*
X148385717Y-128618063D01*
X148385719Y-128618064D01*
X148491934Y-128672183D01*
X148498874Y-128675719D01*
X148506568Y-128676938D01*
X148506569Y-128676938D01*
X148594666Y-128690891D01*
X148594668Y-128690891D01*
X148598512Y-128691500D01*
X149115488Y-128691500D01*
X149119332Y-128690891D01*
X149119334Y-128690891D01*
X149207431Y-128676938D01*
X149207432Y-128676938D01*
X149215126Y-128675719D01*
X149222066Y-128672183D01*
X149328281Y-128618064D01*
X149328283Y-128618063D01*
X149335220Y-128614528D01*
X149430528Y-128519220D01*
X149453844Y-128473461D01*
X149488183Y-128406066D01*
X149488183Y-128406065D01*
X149491719Y-128399126D01*
X149498705Y-128355022D01*
X149506891Y-128303334D01*
X149506891Y-128303332D01*
X149507500Y-128299488D01*
X149507500Y-127732512D01*
X149506891Y-127728666D01*
X149492938Y-127640569D01*
X149492938Y-127640568D01*
X149491719Y-127632874D01*
X149463848Y-127578174D01*
X149434064Y-127519719D01*
X149434063Y-127519717D01*
X149430528Y-127512780D01*
X149335220Y-127417472D01*
X149328283Y-127413937D01*
X149328281Y-127413936D01*
X149278377Y-127388509D01*
X149236554Y-127367199D01*
X149193290Y-127323935D01*
X149182500Y-127278990D01*
X149182500Y-127162834D01*
X149201407Y-127104643D01*
X149211496Y-127092830D01*
X149602830Y-126701496D01*
X149657347Y-126673719D01*
X149672834Y-126672500D01*
X150093166Y-126672500D01*
X150151357Y-126691407D01*
X150163170Y-126701496D01*
X150761731Y-127300057D01*
X150767565Y-127306424D01*
X150792545Y-127336194D01*
X150818388Y-127351114D01*
X150826205Y-127355627D01*
X150833489Y-127360268D01*
X150865316Y-127382554D01*
X150873684Y-127384796D01*
X150878971Y-127387262D01*
X150884456Y-127389258D01*
X150891955Y-127393588D01*
X150900481Y-127395091D01*
X150900483Y-127395092D01*
X150930216Y-127400334D01*
X150938650Y-127402204D01*
X150976193Y-127412264D01*
X151014908Y-127408877D01*
X151023537Y-127408500D01*
X151190786Y-127408500D01*
X151248977Y-127427407D01*
X151278995Y-127462554D01*
X151305412Y-127514400D01*
X151305415Y-127514404D01*
X151308950Y-127521342D01*
X151398658Y-127611050D01*
X151405595Y-127614585D01*
X151405597Y-127614586D01*
X151498319Y-127661830D01*
X151511696Y-127668646D01*
X151519390Y-127669865D01*
X151519391Y-127669865D01*
X151601635Y-127682891D01*
X151601637Y-127682891D01*
X151605481Y-127683500D01*
X151644210Y-127683500D01*
X152011165Y-127683499D01*
X152069356Y-127702406D01*
X152081169Y-127712495D01*
X152393731Y-128025057D01*
X152399565Y-128031424D01*
X152424545Y-128061194D01*
X152450956Y-128076442D01*
X152458205Y-128080627D01*
X152465489Y-128085268D01*
X152497316Y-128107554D01*
X152505684Y-128109796D01*
X152510971Y-128112262D01*
X152516456Y-128114258D01*
X152523955Y-128118588D01*
X152532481Y-128120091D01*
X152532483Y-128120092D01*
X152562216Y-128125334D01*
X152570650Y-128127204D01*
X152608193Y-128137264D01*
X152646908Y-128133877D01*
X152655537Y-128133500D01*
X156957928Y-128133500D01*
X156966557Y-128133877D01*
X157005269Y-128137264D01*
X157042812Y-128127204D01*
X157051246Y-128125334D01*
X157080979Y-128120092D01*
X157080981Y-128120091D01*
X157089507Y-128118588D01*
X157097006Y-128114258D01*
X157102491Y-128112262D01*
X157107778Y-128109796D01*
X157116146Y-128107554D01*
X157147973Y-128085268D01*
X157155257Y-128080627D01*
X157162506Y-128076442D01*
X157188917Y-128061194D01*
X157191484Y-128058135D01*
X157779000Y-128058135D01*
X157779265Y-128063262D01*
X157789047Y-128157525D01*
X157791320Y-128168054D01*
X157841879Y-128319600D01*
X157846726Y-128329947D01*
X157930616Y-128465512D01*
X157937711Y-128474463D01*
X158050539Y-128587095D01*
X158059503Y-128594174D01*
X158195218Y-128677830D01*
X158205568Y-128682656D01*
X158357217Y-128732956D01*
X158367723Y-128735208D01*
X158460771Y-128744741D01*
X158465829Y-128745000D01*
X158467320Y-128745000D01*
X158480005Y-128740878D01*
X158483000Y-128736757D01*
X158483000Y-128031680D01*
X158478878Y-128018995D01*
X158474757Y-128016000D01*
X157794680Y-128016000D01*
X157781995Y-128020122D01*
X157779000Y-128024243D01*
X157779000Y-128058135D01*
X157191484Y-128058135D01*
X157213893Y-128031429D01*
X157219727Y-128025061D01*
X157707957Y-127536831D01*
X157762474Y-127509054D01*
X157779000Y-127509057D01*
X157779000Y-127508000D01*
X158892000Y-127508000D01*
X158950191Y-127526907D01*
X158986155Y-127576407D01*
X158991000Y-127607000D01*
X158991000Y-128729320D01*
X158995122Y-128742005D01*
X158999243Y-128745000D01*
X159008135Y-128745000D01*
X159013262Y-128744735D01*
X159107525Y-128734953D01*
X159118054Y-128732680D01*
X159269600Y-128682121D01*
X159279947Y-128677274D01*
X159415512Y-128593384D01*
X159424463Y-128586289D01*
X159537095Y-128473461D01*
X159544174Y-128464497D01*
X159619008Y-128343092D01*
X159665638Y-128303477D01*
X159726647Y-128298836D01*
X159773288Y-128325036D01*
X159808780Y-128360528D01*
X159815717Y-128364063D01*
X159815719Y-128364064D01*
X159898153Y-128406066D01*
X159928874Y-128421719D01*
X159936568Y-128422938D01*
X159936569Y-128422938D01*
X160024666Y-128436891D01*
X160024668Y-128436891D01*
X160028512Y-128437500D01*
X160545488Y-128437500D01*
X160549332Y-128436891D01*
X160549334Y-128436891D01*
X160637431Y-128422938D01*
X160637432Y-128422938D01*
X160645126Y-128421719D01*
X160675847Y-128406066D01*
X160758281Y-128364064D01*
X160758283Y-128364063D01*
X160765220Y-128360528D01*
X160860528Y-128265220D01*
X160915402Y-128157525D01*
X160918183Y-128152066D01*
X160918183Y-128152065D01*
X160921719Y-128145126D01*
X160923320Y-128135022D01*
X160936891Y-128049334D01*
X160936891Y-128049332D01*
X160937500Y-128045488D01*
X160937500Y-127478512D01*
X160929406Y-127427407D01*
X160922938Y-127386569D01*
X160922938Y-127386568D01*
X160921719Y-127378874D01*
X160902178Y-127340523D01*
X160864064Y-127265719D01*
X160864063Y-127265717D01*
X160860528Y-127258780D01*
X160805292Y-127203544D01*
X160777515Y-127149027D01*
X160787086Y-127088595D01*
X160805292Y-127063537D01*
X160868150Y-127000678D01*
X160876178Y-126994519D01*
X160875819Y-126994091D01*
X160882450Y-126988527D01*
X160889955Y-126984194D01*
X160914926Y-126954435D01*
X160920760Y-126948067D01*
X160927798Y-126941029D01*
X160927808Y-126941018D01*
X161232497Y-126636330D01*
X161287013Y-126608553D01*
X161347445Y-126618124D01*
X161372504Y-126636330D01*
X162013231Y-127277057D01*
X162019065Y-127283424D01*
X162044045Y-127313194D01*
X162073752Y-127330345D01*
X162077705Y-127332627D01*
X162084989Y-127337268D01*
X162116816Y-127359554D01*
X162125184Y-127361796D01*
X162130471Y-127364262D01*
X162135956Y-127366258D01*
X162143455Y-127370588D01*
X162151981Y-127372091D01*
X162151983Y-127372092D01*
X162181716Y-127377334D01*
X162190150Y-127379204D01*
X162227693Y-127389264D01*
X162266408Y-127385877D01*
X162275037Y-127385500D01*
X162379286Y-127385500D01*
X162437477Y-127404407D01*
X162467495Y-127439554D01*
X162493912Y-127491400D01*
X162493915Y-127491404D01*
X162497450Y-127498342D01*
X162587158Y-127588050D01*
X162594095Y-127591585D01*
X162594097Y-127591586D01*
X162690232Y-127640569D01*
X162700196Y-127645646D01*
X162707890Y-127646865D01*
X162707891Y-127646865D01*
X162790135Y-127659891D01*
X162790137Y-127659891D01*
X162793981Y-127660500D01*
X162832710Y-127660500D01*
X163199665Y-127660499D01*
X163257856Y-127679406D01*
X163269669Y-127689495D01*
X163539231Y-127959057D01*
X163545065Y-127965424D01*
X163570045Y-127995194D01*
X163593380Y-128008666D01*
X163603705Y-128014627D01*
X163610989Y-128019268D01*
X163642816Y-128041554D01*
X163651184Y-128043796D01*
X163656471Y-128046262D01*
X163661956Y-128048258D01*
X163669455Y-128052588D01*
X163677981Y-128054091D01*
X163677983Y-128054092D01*
X163707716Y-128059334D01*
X163716150Y-128061204D01*
X163753693Y-128071264D01*
X163792408Y-128067877D01*
X163801037Y-128067500D01*
X169062193Y-128067500D01*
X169070822Y-128067877D01*
X169109534Y-128071264D01*
X169147077Y-128061204D01*
X169155511Y-128059334D01*
X169185244Y-128054092D01*
X169185246Y-128054091D01*
X169193772Y-128052588D01*
X169201271Y-128048258D01*
X169206756Y-128046262D01*
X169212043Y-128043796D01*
X169220411Y-128041554D01*
X169252238Y-128019268D01*
X169259522Y-128014627D01*
X169269847Y-128008666D01*
X169293182Y-127995194D01*
X169318158Y-127965429D01*
X169323992Y-127959061D01*
X170182557Y-127100496D01*
X170237074Y-127072719D01*
X170252561Y-127071500D01*
X174014911Y-127071500D01*
X174073102Y-127090407D01*
X174102055Y-127130260D01*
X174104281Y-127129126D01*
X174150644Y-127220118D01*
X174165472Y-127249220D01*
X174260780Y-127344528D01*
X174267717Y-127348063D01*
X174267719Y-127348064D01*
X174360017Y-127395092D01*
X174380874Y-127405719D01*
X174388568Y-127406938D01*
X174388569Y-127406938D01*
X174476666Y-127420891D01*
X174476668Y-127420891D01*
X174480512Y-127421500D01*
X174997488Y-127421500D01*
X175001332Y-127420891D01*
X175001334Y-127420891D01*
X175089431Y-127406938D01*
X175089432Y-127406938D01*
X175097126Y-127405719D01*
X175117983Y-127395092D01*
X175210281Y-127348064D01*
X175210283Y-127348063D01*
X175217220Y-127344528D01*
X175252631Y-127309117D01*
X175307148Y-127281340D01*
X175367580Y-127290911D01*
X175406820Y-127327026D01*
X175482617Y-127449512D01*
X175489711Y-127458463D01*
X175602539Y-127571095D01*
X175611503Y-127578174D01*
X175747218Y-127661830D01*
X175757568Y-127666656D01*
X175909217Y-127716956D01*
X175919723Y-127719208D01*
X176012771Y-127728741D01*
X176017829Y-127729000D01*
X176019320Y-127729000D01*
X176032005Y-127724878D01*
X176035000Y-127720757D01*
X176035000Y-127713320D01*
X176543000Y-127713320D01*
X176547122Y-127726005D01*
X176551243Y-127729000D01*
X176560135Y-127729000D01*
X176565262Y-127728735D01*
X176659525Y-127718953D01*
X176670054Y-127716680D01*
X176821600Y-127666121D01*
X176831947Y-127661274D01*
X176967512Y-127577384D01*
X176976463Y-127570289D01*
X177089095Y-127457461D01*
X177096174Y-127448497D01*
X177179830Y-127312782D01*
X177184656Y-127302432D01*
X177234956Y-127150783D01*
X177237208Y-127140277D01*
X177246741Y-127047229D01*
X177247000Y-127042171D01*
X177247000Y-127015680D01*
X177242878Y-127002995D01*
X177238757Y-127000000D01*
X176558680Y-127000000D01*
X176545995Y-127004122D01*
X176543000Y-127008243D01*
X176543000Y-127713320D01*
X176035000Y-127713320D01*
X176035000Y-126476320D01*
X176543000Y-126476320D01*
X176547122Y-126489005D01*
X176551243Y-126492000D01*
X177231320Y-126492000D01*
X177244005Y-126487878D01*
X177247000Y-126483757D01*
X177247000Y-126449865D01*
X177246735Y-126444738D01*
X177236953Y-126350475D01*
X177234680Y-126339946D01*
X177184121Y-126188400D01*
X177179274Y-126178053D01*
X177113487Y-126071743D01*
X177098944Y-126012311D01*
X177122112Y-125955682D01*
X177127668Y-125949644D01*
X177128024Y-125949288D01*
X177135333Y-125939965D01*
X177217921Y-125803597D01*
X177222798Y-125792797D01*
X177270687Y-125639979D01*
X177272737Y-125629743D01*
X177278062Y-125571794D01*
X177274878Y-125561995D01*
X177270757Y-125559000D01*
X176565680Y-125559000D01*
X176552995Y-125563122D01*
X176550000Y-125567243D01*
X176550000Y-126219441D01*
X176544133Y-126237498D01*
X176546626Y-126237893D01*
X176543000Y-126260789D01*
X176543000Y-126476320D01*
X176035000Y-126476320D01*
X176035000Y-125756559D01*
X176040867Y-125738502D01*
X176038374Y-125738107D01*
X176042000Y-125715211D01*
X176042000Y-125150000D01*
X176060907Y-125091809D01*
X176110407Y-125055845D01*
X176141000Y-125051000D01*
X177263319Y-125051000D01*
X177276004Y-125046878D01*
X177278538Y-125043391D01*
X177272737Y-124980256D01*
X177270688Y-124970022D01*
X177222798Y-124817203D01*
X177217921Y-124806403D01*
X177135333Y-124670035D01*
X177128024Y-124660712D01*
X177015288Y-124547976D01*
X177005965Y-124540667D01*
X176869597Y-124458079D01*
X176858797Y-124453202D01*
X176731377Y-124413272D01*
X176681503Y-124377829D01*
X176661987Y-124319839D01*
X176680284Y-124261454D01*
X176716036Y-124230593D01*
X176802400Y-124186588D01*
X176802404Y-124186585D01*
X176809342Y-124183050D01*
X176899050Y-124093342D01*
X176907284Y-124077183D01*
X176953110Y-123987244D01*
X176953110Y-123987243D01*
X176956646Y-123980304D01*
X176959381Y-123963040D01*
X176970891Y-123890365D01*
X176970891Y-123890363D01*
X176971500Y-123886519D01*
X176971499Y-123423482D01*
X176967911Y-123400822D01*
X176962888Y-123369109D01*
X176956646Y-123329696D01*
X176905595Y-123229503D01*
X176902586Y-123223597D01*
X176902585Y-123223595D01*
X176899050Y-123216658D01*
X176809342Y-123126950D01*
X176802405Y-123123415D01*
X176802403Y-123123414D01*
X176703244Y-123072890D01*
X176703243Y-123072890D01*
X176696304Y-123069354D01*
X176688610Y-123068135D01*
X176681200Y-123065728D01*
X176681798Y-123063886D01*
X176636310Y-123040704D01*
X176608538Y-122986185D01*
X176618114Y-122925753D01*
X176661382Y-122882493D01*
X176671092Y-122878471D01*
X176676304Y-122877646D01*
X176747158Y-122841544D01*
X176782403Y-122823586D01*
X176782405Y-122823585D01*
X176789342Y-122820050D01*
X176794848Y-122814544D01*
X176801156Y-122809961D01*
X176802818Y-122812249D01*
X176845765Y-122790367D01*
X176906197Y-122799938D01*
X176945438Y-122836054D01*
X176968619Y-122873515D01*
X176975711Y-122882463D01*
X177088539Y-122995095D01*
X177097503Y-123002174D01*
X177233218Y-123085830D01*
X177243568Y-123090656D01*
X177395217Y-123140956D01*
X177405723Y-123143208D01*
X177498771Y-123152741D01*
X177503829Y-123153000D01*
X177530320Y-123153000D01*
X177543005Y-123148878D01*
X177546000Y-123144757D01*
X177546000Y-122040000D01*
X177564907Y-121981809D01*
X177614407Y-121945845D01*
X177645000Y-121941000D01*
X177955000Y-121941000D01*
X178013191Y-121959907D01*
X178049155Y-122009407D01*
X178054000Y-122040000D01*
X178054000Y-123137320D01*
X178058122Y-123150005D01*
X178062243Y-123153000D01*
X178096135Y-123153000D01*
X178101262Y-123152735D01*
X178195525Y-123142953D01*
X178206054Y-123140680D01*
X178357600Y-123090121D01*
X178367947Y-123085274D01*
X178503512Y-123001384D01*
X178512463Y-122994289D01*
X178625095Y-122881461D01*
X178632174Y-122872497D01*
X178686224Y-122784811D01*
X178732854Y-122745196D01*
X178793863Y-122740555D01*
X178845948Y-122772661D01*
X178869215Y-122829250D01*
X178869500Y-122836759D01*
X178869500Y-129240500D01*
X178850593Y-129298691D01*
X178801093Y-129334655D01*
X178770500Y-129339500D01*
X134919500Y-129339500D01*
X134861309Y-129320593D01*
X134825345Y-129271093D01*
X134820500Y-129240500D01*
X134820500Y-128312135D01*
X146349000Y-128312135D01*
X146349265Y-128317262D01*
X146359047Y-128411525D01*
X146361320Y-128422054D01*
X146411879Y-128573600D01*
X146416726Y-128583947D01*
X146500616Y-128719512D01*
X146507711Y-128728463D01*
X146620539Y-128841095D01*
X146629503Y-128848174D01*
X146765218Y-128931830D01*
X146775568Y-128936656D01*
X146927217Y-128986956D01*
X146937723Y-128989208D01*
X147030771Y-128998741D01*
X147035829Y-128999000D01*
X147037320Y-128999000D01*
X147050005Y-128994878D01*
X147053000Y-128990757D01*
X147053000Y-128285680D01*
X147048878Y-128272995D01*
X147044757Y-128270000D01*
X146364680Y-128270000D01*
X146351995Y-128274122D01*
X146349000Y-128278243D01*
X146349000Y-128312135D01*
X134820500Y-128312135D01*
X134820500Y-107221483D01*
X137157556Y-107221483D01*
X137157654Y-107222105D01*
X137162481Y-107227658D01*
X137208816Y-107260102D01*
X137216266Y-107264403D01*
X137407386Y-107353523D01*
X137415464Y-107356464D01*
X137619153Y-107411043D01*
X137627635Y-107412538D01*
X137837691Y-107430915D01*
X137846309Y-107430915D01*
X138056365Y-107412538D01*
X138064847Y-107411043D01*
X138268536Y-107356464D01*
X138276614Y-107353523D01*
X138467734Y-107264403D01*
X138475184Y-107260102D01*
X138518631Y-107229680D01*
X138526658Y-107219027D01*
X138526669Y-107218397D01*
X138522881Y-107212091D01*
X137853086Y-106542296D01*
X137841203Y-106536242D01*
X137836172Y-106537038D01*
X137163610Y-107209600D01*
X137157556Y-107221483D01*
X134820500Y-107221483D01*
X134820500Y-106176309D01*
X136583085Y-106176309D01*
X136601462Y-106386365D01*
X136602957Y-106394847D01*
X136657536Y-106598536D01*
X136660477Y-106606614D01*
X136749597Y-106797734D01*
X136753898Y-106805184D01*
X136784320Y-106848631D01*
X136794973Y-106856658D01*
X136795603Y-106856669D01*
X136801909Y-106852881D01*
X137471704Y-106183086D01*
X137476946Y-106172797D01*
X138206242Y-106172797D01*
X138207038Y-106177828D01*
X138879600Y-106850390D01*
X138891483Y-106856444D01*
X138892105Y-106856346D01*
X138897658Y-106851519D01*
X138930102Y-106805184D01*
X138934403Y-106797734D01*
X139023523Y-106606614D01*
X139026464Y-106598536D01*
X139081043Y-106394847D01*
X139082538Y-106386365D01*
X139100915Y-106176309D01*
X139100915Y-106167691D01*
X139082538Y-105957635D01*
X139081043Y-105949153D01*
X139026464Y-105745464D01*
X139023523Y-105737386D01*
X138934403Y-105546266D01*
X138930102Y-105538816D01*
X138899680Y-105495369D01*
X138889027Y-105487342D01*
X138888397Y-105487331D01*
X138882091Y-105491119D01*
X138212296Y-106160914D01*
X138206242Y-106172797D01*
X137476946Y-106172797D01*
X137477758Y-106171203D01*
X137476962Y-106166172D01*
X136804400Y-105493610D01*
X136792517Y-105487556D01*
X136791895Y-105487654D01*
X136786342Y-105492481D01*
X136753898Y-105538816D01*
X136749597Y-105546266D01*
X136660477Y-105737386D01*
X136657536Y-105745464D01*
X136602957Y-105949153D01*
X136601462Y-105957635D01*
X136583085Y-106167691D01*
X136583085Y-106176309D01*
X134820500Y-106176309D01*
X134820500Y-105125603D01*
X137157331Y-105125603D01*
X137161119Y-105131909D01*
X137830914Y-105801704D01*
X137842797Y-105807758D01*
X137847828Y-105806962D01*
X138520390Y-105134400D01*
X138526444Y-105122517D01*
X138526346Y-105121895D01*
X138521519Y-105116342D01*
X138475184Y-105083898D01*
X138467734Y-105079597D01*
X138276614Y-104990477D01*
X138268536Y-104987536D01*
X138064847Y-104932957D01*
X138056365Y-104931462D01*
X137846309Y-104913085D01*
X137837691Y-104913085D01*
X137627635Y-104931462D01*
X137619153Y-104932957D01*
X137415464Y-104987536D01*
X137407386Y-104990477D01*
X137216266Y-105079597D01*
X137208816Y-105083898D01*
X137165369Y-105114320D01*
X137157342Y-105124973D01*
X137157331Y-105125603D01*
X134820500Y-105125603D01*
X134820500Y-104438135D01*
X138475000Y-104438135D01*
X138475265Y-104443262D01*
X138485047Y-104537525D01*
X138487320Y-104548054D01*
X138537879Y-104699600D01*
X138542726Y-104709947D01*
X138626616Y-104845512D01*
X138633711Y-104854463D01*
X138746539Y-104967095D01*
X138755503Y-104974174D01*
X138891218Y-105057830D01*
X138901568Y-105062656D01*
X139053217Y-105112956D01*
X139063723Y-105115208D01*
X139156771Y-105124741D01*
X139161829Y-105125000D01*
X139163320Y-105125000D01*
X139176005Y-105120878D01*
X139179000Y-105116757D01*
X139179000Y-104411680D01*
X139174878Y-104398995D01*
X139170757Y-104396000D01*
X138490680Y-104396000D01*
X138477995Y-104400122D01*
X138475000Y-104404243D01*
X138475000Y-104438135D01*
X134820500Y-104438135D01*
X134820500Y-98515949D01*
X135176900Y-98515949D01*
X135178118Y-98537067D01*
X135190820Y-98757355D01*
X135243980Y-98993247D01*
X135245510Y-98997015D01*
X135272215Y-99062780D01*
X135334954Y-99217288D01*
X135337078Y-99220754D01*
X135337080Y-99220758D01*
X135387942Y-99303757D01*
X135461298Y-99423462D01*
X135463957Y-99426532D01*
X135463958Y-99426533D01*
X135569127Y-99547943D01*
X135619619Y-99606233D01*
X135805665Y-99760692D01*
X136014440Y-99882690D01*
X136240337Y-99968952D01*
X136244312Y-99969761D01*
X136244313Y-99969761D01*
X136473307Y-100016350D01*
X136473311Y-100016350D01*
X136477290Y-100017160D01*
X136481350Y-100017309D01*
X136481351Y-100017309D01*
X136524249Y-100018882D01*
X136718935Y-100026021D01*
X136722953Y-100025506D01*
X136722959Y-100025506D01*
X136954750Y-99995813D01*
X136954756Y-99995812D01*
X136958782Y-99995296D01*
X136962675Y-99994128D01*
X136962680Y-99994127D01*
X137128636Y-99944337D01*
X137190390Y-99925810D01*
X137346184Y-99849488D01*
X137403893Y-99821217D01*
X137403896Y-99821215D01*
X137407540Y-99819430D01*
X137604399Y-99679012D01*
X137775680Y-99508327D01*
X137778050Y-99505028D01*
X137778054Y-99505024D01*
X137914414Y-99315259D01*
X137914416Y-99315256D01*
X137916785Y-99311959D01*
X137918583Y-99308321D01*
X137918586Y-99308316D01*
X137924515Y-99296320D01*
X138475000Y-99296320D01*
X138479122Y-99309005D01*
X138483243Y-99312000D01*
X139163320Y-99312000D01*
X139176005Y-99307878D01*
X139179000Y-99303757D01*
X139179000Y-98315680D01*
X139174878Y-98302995D01*
X139170757Y-98300000D01*
X138490680Y-98300000D01*
X138477995Y-98304122D01*
X138475000Y-98308243D01*
X138475000Y-98342135D01*
X138475265Y-98347262D01*
X138485047Y-98441525D01*
X138487320Y-98452054D01*
X138537879Y-98603600D01*
X138542726Y-98613947D01*
X138629308Y-98753862D01*
X138643851Y-98813294D01*
X138626716Y-98857298D01*
X138628843Y-98858609D01*
X138542170Y-98999218D01*
X138537344Y-99009568D01*
X138487044Y-99161217D01*
X138484792Y-99171723D01*
X138475259Y-99264771D01*
X138475000Y-99269830D01*
X138475000Y-99296320D01*
X137924515Y-99296320D01*
X138022121Y-99098828D01*
X138022123Y-99098823D01*
X138023922Y-99095183D01*
X138054133Y-98995748D01*
X138093035Y-98867707D01*
X138093036Y-98867701D01*
X138094216Y-98863818D01*
X138095075Y-98857298D01*
X138110772Y-98738065D01*
X138125778Y-98624080D01*
X138127540Y-98552000D01*
X138127324Y-98549371D01*
X138108060Y-98315052D01*
X138108059Y-98315048D01*
X138107727Y-98311006D01*
X138104963Y-98300000D01*
X138049810Y-98080430D01*
X138048819Y-98076484D01*
X137952398Y-97854732D01*
X137901671Y-97776320D01*
X138475000Y-97776320D01*
X138479122Y-97789005D01*
X138483243Y-97792000D01*
X139163320Y-97792000D01*
X139176005Y-97787878D01*
X139179000Y-97783757D01*
X139179000Y-97078680D01*
X139174878Y-97065995D01*
X139170757Y-97063000D01*
X139161865Y-97063000D01*
X139156738Y-97063265D01*
X139062475Y-97073047D01*
X139051946Y-97075320D01*
X138900400Y-97125879D01*
X138890053Y-97130726D01*
X138754488Y-97214616D01*
X138745537Y-97221711D01*
X138632905Y-97334539D01*
X138625826Y-97343503D01*
X138542170Y-97479218D01*
X138537344Y-97489568D01*
X138487044Y-97641217D01*
X138484792Y-97651723D01*
X138475259Y-97744771D01*
X138475000Y-97749830D01*
X138475000Y-97776320D01*
X137901671Y-97776320D01*
X137821055Y-97651706D01*
X137658316Y-97472858D01*
X137655130Y-97470342D01*
X137655127Y-97470339D01*
X137471739Y-97325508D01*
X137471733Y-97325504D01*
X137468551Y-97322991D01*
X137283623Y-97220905D01*
X137260416Y-97208094D01*
X137260415Y-97208093D01*
X137256858Y-97206130D01*
X137253035Y-97204776D01*
X137253030Y-97204774D01*
X137032744Y-97126767D01*
X137032742Y-97126767D01*
X137028920Y-97125413D01*
X136790861Y-97083008D01*
X136786800Y-97082958D01*
X136786796Y-97082958D01*
X136675994Y-97081605D01*
X136549072Y-97080054D01*
X136310047Y-97116630D01*
X136186278Y-97157084D01*
X136084062Y-97190493D01*
X136084058Y-97190495D01*
X136080205Y-97191754D01*
X136076605Y-97193628D01*
X135869325Y-97301531D01*
X135869322Y-97301533D01*
X135865720Y-97303408D01*
X135862477Y-97305843D01*
X135862472Y-97305846D01*
X135756967Y-97385062D01*
X135672350Y-97448594D01*
X135669545Y-97451529D01*
X135669543Y-97451531D01*
X135622185Y-97501089D01*
X135505290Y-97623413D01*
X135502998Y-97626773D01*
X135374523Y-97815110D01*
X135369025Y-97823169D01*
X135367317Y-97826849D01*
X135367314Y-97826854D01*
X135319910Y-97928978D01*
X135267216Y-98042499D01*
X135266130Y-98046415D01*
X135242762Y-98130679D01*
X135202596Y-98275511D01*
X135202163Y-98279559D01*
X135202163Y-98279561D01*
X135198370Y-98315052D01*
X135176900Y-98515949D01*
X134820500Y-98515949D01*
X134820500Y-96819500D01*
X134839407Y-96761309D01*
X134888907Y-96725345D01*
X134919500Y-96720500D01*
X178770500Y-96720500D01*
X178828691Y-96739407D01*
G37*
%TD.AperFunction*%
%TA.AperFunction,Conductor*%
G36*
X170986445Y-120400623D02*
G01*
X171029710Y-120443888D01*
X171040500Y-120488833D01*
X171040500Y-120939246D01*
X171041109Y-120943090D01*
X171041109Y-120943092D01*
X171054121Y-121025244D01*
X171056049Y-121037420D01*
X171059585Y-121044359D01*
X171059585Y-121044360D01*
X171100368Y-121124400D01*
X171116342Y-121155751D01*
X171210249Y-121249658D01*
X171217186Y-121253193D01*
X171217188Y-121253194D01*
X171321640Y-121306415D01*
X171328580Y-121309951D01*
X171336273Y-121311170D01*
X171336275Y-121311170D01*
X171422908Y-121324891D01*
X171422910Y-121324891D01*
X171426754Y-121325500D01*
X171533500Y-121325500D01*
X171591691Y-121344407D01*
X171627655Y-121393907D01*
X171632500Y-121424500D01*
X171632500Y-122738236D01*
X171613593Y-122796427D01*
X171564093Y-122832391D01*
X171502907Y-122832391D01*
X171454279Y-122797608D01*
X171446137Y-122786744D01*
X171436256Y-122776863D01*
X171331105Y-122698057D01*
X171330955Y-122697975D01*
X171330858Y-122697872D01*
X171325462Y-122693828D01*
X171326164Y-122692891D01*
X171288995Y-122653445D01*
X171279500Y-122611139D01*
X171279500Y-122174252D01*
X171271674Y-122134908D01*
X171269770Y-122125334D01*
X171269769Y-122125332D01*
X171267867Y-122115769D01*
X171223552Y-122049448D01*
X171157231Y-122005133D01*
X171147668Y-122003231D01*
X171147666Y-122003230D01*
X171124498Y-121998622D01*
X171098748Y-121993500D01*
X169809252Y-121993500D01*
X169783502Y-121998622D01*
X169760334Y-122003230D01*
X169760332Y-122003231D01*
X169750769Y-122005133D01*
X169684448Y-122049448D01*
X169640133Y-122115769D01*
X169638231Y-122125332D01*
X169638230Y-122125334D01*
X169636326Y-122134908D01*
X169628500Y-122174252D01*
X169628500Y-122224166D01*
X169609593Y-122282357D01*
X169599504Y-122294170D01*
X168946943Y-122946731D01*
X168940576Y-122952565D01*
X168910806Y-122977545D01*
X168893512Y-123007500D01*
X168891373Y-123011205D01*
X168886732Y-123018489D01*
X168864446Y-123050316D01*
X168862204Y-123058684D01*
X168859738Y-123063971D01*
X168857742Y-123069456D01*
X168853412Y-123076955D01*
X168851909Y-123085481D01*
X168851908Y-123085483D01*
X168846666Y-123115216D01*
X168844796Y-123123650D01*
X168834736Y-123161193D01*
X168835491Y-123169822D01*
X168838123Y-123199905D01*
X168838500Y-123208534D01*
X168838500Y-124695466D01*
X168838123Y-124704095D01*
X168834736Y-124742807D01*
X168836978Y-124751174D01*
X168844796Y-124780349D01*
X168846666Y-124788784D01*
X168851677Y-124817203D01*
X168853412Y-124827045D01*
X168857742Y-124834544D01*
X168859738Y-124840029D01*
X168862204Y-124845316D01*
X168864446Y-124853684D01*
X168881086Y-124877448D01*
X168886732Y-124885511D01*
X168891371Y-124892792D01*
X168910806Y-124926455D01*
X168921701Y-124935597D01*
X168940571Y-124951431D01*
X168946939Y-124957265D01*
X169225731Y-125236057D01*
X169231565Y-125242424D01*
X169256545Y-125272194D01*
X169290205Y-125291627D01*
X169297489Y-125296268D01*
X169329316Y-125318554D01*
X169337681Y-125320796D01*
X169342961Y-125323258D01*
X169348452Y-125325257D01*
X169355955Y-125329588D01*
X169394211Y-125336334D01*
X169394228Y-125336337D01*
X169402656Y-125338206D01*
X169431827Y-125346022D01*
X169431830Y-125346022D01*
X169440193Y-125348263D01*
X169478896Y-125344877D01*
X169487525Y-125344500D01*
X172310466Y-125344500D01*
X172319095Y-125344877D01*
X172357807Y-125348264D01*
X172395350Y-125338204D01*
X172403784Y-125336334D01*
X172433517Y-125331092D01*
X172433519Y-125331091D01*
X172442045Y-125329588D01*
X172449544Y-125325258D01*
X172455029Y-125323262D01*
X172460316Y-125320796D01*
X172468684Y-125318554D01*
X172500511Y-125296268D01*
X172507795Y-125291627D01*
X172541455Y-125272194D01*
X172566436Y-125242423D01*
X172572270Y-125236056D01*
X172884831Y-124923496D01*
X172939347Y-124895719D01*
X172954834Y-124894500D01*
X173598748Y-124894500D01*
X173634161Y-124887456D01*
X173647666Y-124884770D01*
X173647668Y-124884769D01*
X173657231Y-124882867D01*
X173723552Y-124838552D01*
X173724781Y-124840391D01*
X173767568Y-124818595D01*
X173827999Y-124828173D01*
X173853048Y-124846374D01*
X174067504Y-125060830D01*
X174095281Y-125115347D01*
X174096500Y-125130834D01*
X174096501Y-125336334D01*
X174096501Y-125536518D01*
X174097110Y-125540361D01*
X174097110Y-125540366D01*
X174101367Y-125567243D01*
X174111354Y-125630304D01*
X174130747Y-125668365D01*
X174165079Y-125735744D01*
X174168950Y-125743342D01*
X174258658Y-125833050D01*
X174265598Y-125836586D01*
X174265602Y-125836589D01*
X174359445Y-125884405D01*
X174402710Y-125927669D01*
X174413500Y-125972614D01*
X174413500Y-126008990D01*
X174394593Y-126067181D01*
X174359446Y-126097199D01*
X174345930Y-126104086D01*
X174267719Y-126143936D01*
X174267717Y-126143937D01*
X174260780Y-126147472D01*
X174165472Y-126242780D01*
X174161937Y-126249717D01*
X174161936Y-126249719D01*
X174126039Y-126320171D01*
X174104281Y-126362874D01*
X174102055Y-126361740D01*
X174073108Y-126401588D01*
X174014911Y-126420500D01*
X170095261Y-126420500D01*
X170086632Y-126420123D01*
X170056549Y-126417491D01*
X170047920Y-126416736D01*
X170039553Y-126418978D01*
X170010378Y-126426796D01*
X170001943Y-126428666D01*
X169972210Y-126433908D01*
X169972208Y-126433909D01*
X169963682Y-126435412D01*
X169956183Y-126439742D01*
X169950698Y-126441738D01*
X169945411Y-126444204D01*
X169937043Y-126446446D01*
X169909051Y-126466047D01*
X169905216Y-126468732D01*
X169897935Y-126473371D01*
X169864272Y-126492806D01*
X169857489Y-126500890D01*
X169839296Y-126522571D01*
X169833462Y-126528939D01*
X168974897Y-127387504D01*
X168920380Y-127415281D01*
X168904893Y-127416500D01*
X168770882Y-127416500D01*
X168712691Y-127397593D01*
X168676727Y-127348093D01*
X168672297Y-127308440D01*
X168674562Y-127283794D01*
X168671378Y-127273995D01*
X168667257Y-127271000D01*
X167537500Y-127271000D01*
X167479309Y-127252093D01*
X167443345Y-127202593D01*
X167438500Y-127172000D01*
X167438500Y-126862000D01*
X167457407Y-126803809D01*
X167506907Y-126767845D01*
X167537500Y-126763000D01*
X168659819Y-126763000D01*
X168672504Y-126758878D01*
X168675038Y-126755391D01*
X168669237Y-126692256D01*
X168667188Y-126682022D01*
X168619298Y-126529203D01*
X168614421Y-126518403D01*
X168531833Y-126382035D01*
X168524524Y-126372712D01*
X168411788Y-126259976D01*
X168402465Y-126252667D01*
X168266097Y-126170079D01*
X168255297Y-126165202D01*
X168127877Y-126125272D01*
X168078003Y-126089829D01*
X168058487Y-126031839D01*
X168076784Y-125973454D01*
X168112536Y-125942593D01*
X168198900Y-125898588D01*
X168198904Y-125898585D01*
X168205842Y-125895050D01*
X168295550Y-125805342D01*
X168307705Y-125781488D01*
X168349610Y-125699244D01*
X168349610Y-125699243D01*
X168353146Y-125692304D01*
X168354901Y-125681227D01*
X168367391Y-125602365D01*
X168367391Y-125602363D01*
X168368000Y-125598519D01*
X168367999Y-125135482D01*
X168367172Y-125130256D01*
X168356176Y-125060830D01*
X168353146Y-125041696D01*
X168321555Y-124979696D01*
X168299086Y-124935597D01*
X168299085Y-124935595D01*
X168295550Y-124928658D01*
X168205842Y-124838950D01*
X168198905Y-124835415D01*
X168198903Y-124835414D01*
X168107386Y-124788784D01*
X168092804Y-124781354D01*
X168086027Y-124780281D01*
X168036909Y-124744596D01*
X168018000Y-124686403D01*
X168018000Y-124615978D01*
X168036907Y-124557787D01*
X168072055Y-124527769D01*
X168171307Y-124477197D01*
X168171311Y-124477194D01*
X168178251Y-124473658D01*
X168272158Y-124379751D01*
X168275975Y-124372261D01*
X168328915Y-124268360D01*
X168328915Y-124268359D01*
X168332451Y-124261420D01*
X168334265Y-124249971D01*
X168347391Y-124167092D01*
X168347391Y-124167090D01*
X168348000Y-124163246D01*
X168348000Y-123659754D01*
X168346836Y-123652405D01*
X168333670Y-123569275D01*
X168333670Y-123569273D01*
X168332451Y-123561580D01*
X168322441Y-123541934D01*
X168275694Y-123450188D01*
X168275693Y-123450186D01*
X168272158Y-123443249D01*
X168178251Y-123349342D01*
X168171314Y-123345807D01*
X168171312Y-123345806D01*
X168066860Y-123292585D01*
X168066859Y-123292585D01*
X168059920Y-123289049D01*
X168052227Y-123287830D01*
X168052225Y-123287830D01*
X167965592Y-123274109D01*
X167965590Y-123274109D01*
X167961746Y-123273500D01*
X167383254Y-123273500D01*
X167379410Y-123274109D01*
X167379408Y-123274109D01*
X167292775Y-123287830D01*
X167292773Y-123287830D01*
X167285080Y-123289049D01*
X167278141Y-123292585D01*
X167278140Y-123292585D01*
X167205306Y-123329696D01*
X167166749Y-123349342D01*
X167165723Y-123347328D01*
X167118154Y-123362787D01*
X167059962Y-123343882D01*
X167033965Y-123315883D01*
X166979881Y-123228485D01*
X166972786Y-123219534D01*
X166859961Y-123106905D01*
X166850997Y-123099826D01*
X166729592Y-123024992D01*
X166689977Y-122978362D01*
X166685336Y-122917353D01*
X166711536Y-122870712D01*
X166747028Y-122835220D01*
X166753081Y-122823342D01*
X166794753Y-122741555D01*
X166838018Y-122698290D01*
X166882963Y-122687500D01*
X166952433Y-122687500D01*
X167010624Y-122706407D01*
X167040640Y-122741551D01*
X167072842Y-122804751D01*
X167166749Y-122898658D01*
X167173686Y-122902193D01*
X167173688Y-122902194D01*
X167272549Y-122952566D01*
X167285080Y-122958951D01*
X167292773Y-122960170D01*
X167292775Y-122960170D01*
X167379408Y-122973891D01*
X167379410Y-122973891D01*
X167383254Y-122974500D01*
X167961746Y-122974500D01*
X167965590Y-122973891D01*
X167965592Y-122973891D01*
X168052225Y-122960170D01*
X168052227Y-122960170D01*
X168059920Y-122958951D01*
X168072451Y-122952566D01*
X168171312Y-122902194D01*
X168171314Y-122902193D01*
X168178251Y-122898658D01*
X168272158Y-122804751D01*
X168276400Y-122796427D01*
X168317351Y-122716055D01*
X168360616Y-122672790D01*
X168405561Y-122662000D01*
X168474965Y-122662000D01*
X168483594Y-122662377D01*
X168522306Y-122665764D01*
X168559849Y-122655704D01*
X168568283Y-122653834D01*
X168570490Y-122653445D01*
X168582667Y-122651298D01*
X168598016Y-122648592D01*
X168598018Y-122648591D01*
X168606544Y-122647088D01*
X168614043Y-122642758D01*
X168619528Y-122640762D01*
X168624815Y-122638296D01*
X168633183Y-122636054D01*
X168665010Y-122613768D01*
X168672294Y-122609127D01*
X168676609Y-122606636D01*
X168705954Y-122589694D01*
X168730930Y-122559929D01*
X168736764Y-122553561D01*
X170871496Y-120418829D01*
X170926013Y-120391052D01*
X170986445Y-120400623D01*
G37*
%TD.AperFunction*%
%TA.AperFunction,Conductor*%
G36*
X157216628Y-121257200D02*
G01*
X157242251Y-121301583D01*
X157243546Y-121306415D01*
X157243798Y-121307356D01*
X157245666Y-121315784D01*
X157250713Y-121344407D01*
X157252412Y-121354045D01*
X157256742Y-121361544D01*
X157258738Y-121367029D01*
X157261204Y-121372316D01*
X157263446Y-121380684D01*
X157278847Y-121402678D01*
X157285732Y-121412511D01*
X157290371Y-121419792D01*
X157309806Y-121453455D01*
X157318854Y-121461047D01*
X157339576Y-121478435D01*
X157345944Y-121484270D01*
X157508736Y-121647063D01*
X157514570Y-121653430D01*
X157533429Y-121675905D01*
X157539545Y-121683194D01*
X157573219Y-121702636D01*
X157580475Y-121707259D01*
X157612316Y-121729554D01*
X157620678Y-121731795D01*
X157625960Y-121734258D01*
X157631454Y-121736257D01*
X157638955Y-121740588D01*
X157676196Y-121747155D01*
X157677228Y-121747337D01*
X157685656Y-121749206D01*
X157714827Y-121757022D01*
X157714830Y-121757022D01*
X157723193Y-121759263D01*
X157761896Y-121755877D01*
X157770525Y-121755500D01*
X159354622Y-121755500D01*
X159412813Y-121774407D01*
X159448777Y-121823907D01*
X159448777Y-121885093D01*
X159442832Y-121899445D01*
X159420261Y-121943743D01*
X159404549Y-121974580D01*
X159403330Y-121982273D01*
X159403330Y-121982275D01*
X159393294Y-122045640D01*
X159389000Y-122072754D01*
X159389000Y-122651246D01*
X159389609Y-122655090D01*
X159389609Y-122655092D01*
X159402778Y-122738236D01*
X159404549Y-122749420D01*
X159408085Y-122756359D01*
X159408085Y-122756360D01*
X159451489Y-122841544D01*
X159464842Y-122867751D01*
X159558749Y-122961658D01*
X159565686Y-122965193D01*
X159565688Y-122965194D01*
X159647523Y-123006891D01*
X159677080Y-123021951D01*
X159684773Y-123023170D01*
X159684775Y-123023170D01*
X159771408Y-123036891D01*
X159771410Y-123036891D01*
X159775254Y-123037500D01*
X159882000Y-123037500D01*
X159940191Y-123056407D01*
X159976155Y-123105907D01*
X159981000Y-123136500D01*
X159981000Y-124450236D01*
X159962093Y-124508427D01*
X159912593Y-124544391D01*
X159851407Y-124544391D01*
X159802779Y-124509608D01*
X159794637Y-124498744D01*
X159784756Y-124488863D01*
X159679605Y-124410057D01*
X159679455Y-124409975D01*
X159679358Y-124409872D01*
X159673962Y-124405828D01*
X159674664Y-124404891D01*
X159637495Y-124365445D01*
X159628000Y-124323139D01*
X159628000Y-123886252D01*
X159620292Y-123847500D01*
X159618270Y-123837334D01*
X159618269Y-123837332D01*
X159616367Y-123827769D01*
X159572052Y-123761448D01*
X159505731Y-123717133D01*
X159496168Y-123715231D01*
X159496166Y-123715230D01*
X159471907Y-123710405D01*
X159447248Y-123705500D01*
X158157752Y-123705500D01*
X158133093Y-123710405D01*
X158108834Y-123715230D01*
X158108832Y-123715231D01*
X158099269Y-123717133D01*
X158032948Y-123761448D01*
X157988633Y-123827769D01*
X157986731Y-123837332D01*
X157986730Y-123837334D01*
X157984708Y-123847500D01*
X157977000Y-123886252D01*
X157977000Y-123936166D01*
X157958093Y-123994357D01*
X157948004Y-124006170D01*
X157635443Y-124318731D01*
X157629076Y-124324565D01*
X157599306Y-124349545D01*
X157589087Y-124367246D01*
X157579873Y-124383205D01*
X157575232Y-124390489D01*
X157552946Y-124422316D01*
X157550704Y-124430684D01*
X157548238Y-124435971D01*
X157546242Y-124441456D01*
X157541912Y-124448955D01*
X157540409Y-124457481D01*
X157540408Y-124457483D01*
X157535166Y-124487216D01*
X157533296Y-124495650D01*
X157523236Y-124533193D01*
X157523991Y-124541822D01*
X157526623Y-124571905D01*
X157527000Y-124580534D01*
X157527000Y-126429750D01*
X157508093Y-126487941D01*
X157458593Y-126523905D01*
X157397407Y-126523905D01*
X157347907Y-126487941D01*
X157343319Y-126481034D01*
X157323336Y-126448038D01*
X157316024Y-126438712D01*
X157203288Y-126325976D01*
X157193965Y-126318667D01*
X157057597Y-126236079D01*
X157046797Y-126231202D01*
X156919377Y-126191272D01*
X156869503Y-126155829D01*
X156849987Y-126097839D01*
X156868284Y-126039454D01*
X156904036Y-126008593D01*
X156990400Y-125964588D01*
X156990404Y-125964585D01*
X156997342Y-125961050D01*
X157087050Y-125871342D01*
X157097607Y-125850624D01*
X157141110Y-125765244D01*
X157141110Y-125765243D01*
X157144646Y-125758304D01*
X157147783Y-125738502D01*
X157158891Y-125668365D01*
X157158891Y-125668363D01*
X157159500Y-125664519D01*
X157159499Y-125201482D01*
X157155857Y-125178482D01*
X157151346Y-125150000D01*
X157144646Y-125107696D01*
X157087050Y-124994658D01*
X156997342Y-124904950D01*
X156990405Y-124901415D01*
X156990403Y-124901414D01*
X156896460Y-124853548D01*
X156884304Y-124847354D01*
X156877527Y-124846281D01*
X156828409Y-124810596D01*
X156809500Y-124752403D01*
X156809500Y-124681978D01*
X156828407Y-124623787D01*
X156863555Y-124593769D01*
X156962807Y-124543197D01*
X156962811Y-124543194D01*
X156969751Y-124539658D01*
X157063658Y-124445751D01*
X157067393Y-124438422D01*
X157120415Y-124334360D01*
X157120415Y-124334359D01*
X157123951Y-124327420D01*
X157129116Y-124294813D01*
X157138891Y-124233092D01*
X157138891Y-124233090D01*
X157139500Y-124229246D01*
X157139500Y-123725754D01*
X157137833Y-123715230D01*
X157125170Y-123635275D01*
X157125170Y-123635273D01*
X157123951Y-123627580D01*
X157109230Y-123598688D01*
X157067194Y-123516188D01*
X157067193Y-123516186D01*
X157063658Y-123509249D01*
X156969751Y-123415342D01*
X156962814Y-123411807D01*
X156962812Y-123411806D01*
X156858360Y-123358585D01*
X156858359Y-123358585D01*
X156851420Y-123355049D01*
X156843727Y-123353830D01*
X156843725Y-123353830D01*
X156757092Y-123340109D01*
X156757090Y-123340109D01*
X156753246Y-123339500D01*
X156174754Y-123339500D01*
X156170910Y-123340109D01*
X156170908Y-123340109D01*
X156084275Y-123353830D01*
X156084273Y-123353830D01*
X156076580Y-123355049D01*
X156069641Y-123358585D01*
X156069640Y-123358585D01*
X155970592Y-123409053D01*
X155958249Y-123415342D01*
X155957223Y-123413328D01*
X155909654Y-123428787D01*
X155851462Y-123409882D01*
X155825465Y-123381883D01*
X155771381Y-123294485D01*
X155764289Y-123285537D01*
X155651461Y-123172905D01*
X155642497Y-123165826D01*
X155521092Y-123090992D01*
X155481477Y-123044362D01*
X155476836Y-122983353D01*
X155503036Y-122936712D01*
X155538528Y-122901220D01*
X155542605Y-122893220D01*
X155586253Y-122807555D01*
X155629518Y-122764290D01*
X155674463Y-122753500D01*
X155743933Y-122753500D01*
X155802124Y-122772407D01*
X155832140Y-122807551D01*
X155864342Y-122870751D01*
X155958249Y-122964658D01*
X155965186Y-122968193D01*
X155965188Y-122968194D01*
X156069640Y-123021415D01*
X156076580Y-123024951D01*
X156084273Y-123026170D01*
X156084275Y-123026170D01*
X156170908Y-123039891D01*
X156170910Y-123039891D01*
X156174754Y-123040500D01*
X156753246Y-123040500D01*
X156757090Y-123039891D01*
X156757092Y-123039891D01*
X156843725Y-123026170D01*
X156843727Y-123026170D01*
X156851420Y-123024951D01*
X156858360Y-123021415D01*
X156962812Y-122968194D01*
X156962814Y-122968193D01*
X156969751Y-122964658D01*
X157063658Y-122870751D01*
X157068723Y-122860812D01*
X157120415Y-122759360D01*
X157120415Y-122759359D01*
X157123951Y-122752420D01*
X157125629Y-122741829D01*
X157138891Y-122658092D01*
X157138891Y-122658090D01*
X157139500Y-122654246D01*
X157139500Y-122150754D01*
X157138216Y-122142647D01*
X157125170Y-122060275D01*
X157125170Y-122060273D01*
X157123951Y-122052580D01*
X157117837Y-122040580D01*
X157067194Y-121941188D01*
X157067193Y-121941186D01*
X157063658Y-121934249D01*
X156969751Y-121840342D01*
X156962814Y-121836807D01*
X156962812Y-121836806D01*
X156858360Y-121783585D01*
X156858359Y-121783585D01*
X156851420Y-121780049D01*
X156851913Y-121779081D01*
X156808411Y-121747479D01*
X156789500Y-121689284D01*
X156789500Y-121404499D01*
X156808407Y-121346308D01*
X156857907Y-121310344D01*
X156888500Y-121305499D01*
X156906518Y-121305499D01*
X156910361Y-121304890D01*
X156910366Y-121304890D01*
X156947217Y-121299053D01*
X157000304Y-121290646D01*
X157065945Y-121257200D01*
X157101679Y-121238993D01*
X157162111Y-121229422D01*
X157216628Y-121257200D01*
G37*
%TD.AperFunction*%
%TA.AperFunction,Conductor*%
G36*
X155153191Y-123737907D02*
G01*
X155189155Y-123787407D01*
X155194000Y-123818000D01*
X155194000Y-124919548D01*
X155175093Y-124977739D01*
X155174000Y-124979243D01*
X155174000Y-125548000D01*
X155155093Y-125606191D01*
X155105593Y-125642155D01*
X155075000Y-125647000D01*
X154765000Y-125647000D01*
X154706809Y-125628093D01*
X154670845Y-125578593D01*
X154666000Y-125548000D01*
X154666000Y-124496452D01*
X154684907Y-124438261D01*
X154686000Y-124436757D01*
X154686000Y-123818000D01*
X154704907Y-123759809D01*
X154754407Y-123723845D01*
X154785000Y-123719000D01*
X155095000Y-123719000D01*
X155153191Y-123737907D01*
G37*
%TD.AperFunction*%
%TA.AperFunction,Conductor*%
G36*
X166361691Y-123671907D02*
G01*
X166397655Y-123721407D01*
X166402500Y-123752000D01*
X166402500Y-124853548D01*
X166383593Y-124911739D01*
X166382500Y-124913243D01*
X166382500Y-125482000D01*
X166363593Y-125540191D01*
X166314093Y-125576155D01*
X166283500Y-125581000D01*
X165973500Y-125581000D01*
X165915309Y-125562093D01*
X165879345Y-125512593D01*
X165874500Y-125482000D01*
X165874500Y-124430452D01*
X165893407Y-124372261D01*
X165894500Y-124370757D01*
X165894500Y-123752000D01*
X165913407Y-123693809D01*
X165962907Y-123657845D01*
X165993500Y-123653000D01*
X166303500Y-123653000D01*
X166361691Y-123671907D01*
G37*
%TD.AperFunction*%
%TA.AperFunction,Conductor*%
G36*
X170480571Y-118381335D02*
G01*
X170494736Y-118392067D01*
X170518944Y-118414094D01*
X170537733Y-118431191D01*
X170542979Y-118434039D01*
X170542980Y-118434040D01*
X170575499Y-118451696D01*
X170686735Y-118512092D01*
X170746180Y-118527687D01*
X170844964Y-118553603D01*
X170844968Y-118553604D01*
X170850733Y-118555116D01*
X170856694Y-118555210D01*
X170856697Y-118555210D01*
X170885479Y-118555662D01*
X170901546Y-118555914D01*
X170959431Y-118575733D01*
X170983580Y-118609526D01*
X170995243Y-118618000D01*
X172100000Y-118618000D01*
X172158191Y-118636907D01*
X172194155Y-118686407D01*
X172199000Y-118717000D01*
X172199000Y-119027000D01*
X172180093Y-119085191D01*
X172130593Y-119121155D01*
X172100000Y-119126000D01*
X171002680Y-119126000D01*
X170989995Y-119130122D01*
X170987000Y-119134243D01*
X170987000Y-119168135D01*
X170987265Y-119173262D01*
X170997047Y-119267525D01*
X170999320Y-119278055D01*
X171037405Y-119392211D01*
X171037885Y-119453395D01*
X171002310Y-119503176D01*
X170955013Y-119521070D01*
X170951192Y-119520736D01*
X170942825Y-119522978D01*
X170913650Y-119530796D01*
X170905215Y-119532666D01*
X170875482Y-119537908D01*
X170875480Y-119537909D01*
X170866954Y-119539412D01*
X170859455Y-119543742D01*
X170853970Y-119545738D01*
X170848683Y-119548204D01*
X170840315Y-119550446D01*
X170823865Y-119561965D01*
X170808488Y-119572732D01*
X170801207Y-119577371D01*
X170767544Y-119596806D01*
X170761977Y-119603441D01*
X170742568Y-119626571D01*
X170736734Y-119632939D01*
X168445897Y-121923776D01*
X168391380Y-121951553D01*
X168330948Y-121941982D01*
X168287684Y-121898719D01*
X168275694Y-121875189D01*
X168272158Y-121868249D01*
X168178251Y-121774342D01*
X168171314Y-121770807D01*
X168171312Y-121770806D01*
X168066860Y-121717585D01*
X168066859Y-121717585D01*
X168059920Y-121714049D01*
X168052227Y-121712830D01*
X168052225Y-121712830D01*
X167965592Y-121699109D01*
X167965590Y-121699109D01*
X167961746Y-121698500D01*
X167383254Y-121698500D01*
X167379410Y-121699109D01*
X167379408Y-121699109D01*
X167290395Y-121713207D01*
X167229963Y-121703635D01*
X167186698Y-121660371D01*
X167177127Y-121599939D01*
X167204904Y-121545422D01*
X170339057Y-118411269D01*
X170345426Y-118405434D01*
X170364473Y-118389452D01*
X170421203Y-118366532D01*
X170480571Y-118381335D01*
G37*
%TD.AperFunction*%
%TA.AperFunction,Conductor*%
G36*
X167514445Y-111172625D02*
G01*
X167557710Y-111215890D01*
X167568500Y-111260835D01*
X167568500Y-112857351D01*
X167549593Y-112915542D01*
X167514905Y-112945324D01*
X167497369Y-112954375D01*
X167369604Y-113065831D01*
X167366173Y-113070713D01*
X167366172Y-113070714D01*
X167276251Y-113198659D01*
X167272113Y-113204547D01*
X167260095Y-113235372D01*
X167216476Y-113347248D01*
X167210524Y-113362513D01*
X167188394Y-113530611D01*
X167189049Y-113536544D01*
X167189049Y-113536548D01*
X167206344Y-113693204D01*
X167206999Y-113699135D01*
X167265266Y-113858356D01*
X167268591Y-113863305D01*
X167268592Y-113863306D01*
X167279655Y-113879769D01*
X167359830Y-113999083D01*
X167485233Y-114113191D01*
X167634235Y-114194092D01*
X167683952Y-114207135D01*
X167792464Y-114235603D01*
X167792468Y-114235604D01*
X167798233Y-114237116D01*
X167804194Y-114237210D01*
X167804197Y-114237210D01*
X167882996Y-114238447D01*
X167967760Y-114239779D01*
X167973575Y-114238447D01*
X167973577Y-114238447D01*
X168127206Y-114203262D01*
X168127209Y-114203261D01*
X168133029Y-114201928D01*
X168148610Y-114194092D01*
X168279165Y-114128429D01*
X168284498Y-114125747D01*
X168289035Y-114121872D01*
X168289038Y-114121870D01*
X168408888Y-114019508D01*
X168408891Y-114019505D01*
X168413423Y-114015634D01*
X168416904Y-114010790D01*
X168508877Y-113882796D01*
X168508878Y-113882794D01*
X168512361Y-113877947D01*
X168515350Y-113870513D01*
X168573377Y-113726167D01*
X168573378Y-113726165D01*
X168575601Y-113720634D01*
X168595009Y-113584267D01*
X168599034Y-113555985D01*
X168599034Y-113555979D01*
X168599490Y-113552778D01*
X168599645Y-113538000D01*
X168579276Y-113369680D01*
X168519345Y-113211077D01*
X168510811Y-113198659D01*
X168426692Y-113076267D01*
X168423312Y-113071349D01*
X168296721Y-112958560D01*
X168291455Y-112955772D01*
X168291448Y-112955767D01*
X168272176Y-112945564D01*
X168229596Y-112901626D01*
X168219500Y-112858071D01*
X168219500Y-112513942D01*
X168238407Y-112455751D01*
X168287907Y-112419787D01*
X168349093Y-112419787D01*
X168360338Y-112424217D01*
X168365568Y-112426656D01*
X168517217Y-112476956D01*
X168527723Y-112479208D01*
X168620771Y-112488741D01*
X168625829Y-112489000D01*
X168627320Y-112489000D01*
X168640005Y-112484878D01*
X168643000Y-112480757D01*
X168643000Y-111351000D01*
X168661907Y-111292809D01*
X168711407Y-111256845D01*
X168742000Y-111252000D01*
X169052000Y-111252000D01*
X169110191Y-111270907D01*
X169146155Y-111320407D01*
X169151000Y-111351000D01*
X169151000Y-112473320D01*
X169155122Y-112486005D01*
X169159243Y-112489000D01*
X169168135Y-112489000D01*
X169173265Y-112488734D01*
X169237283Y-112482092D01*
X169297114Y-112494892D01*
X169337995Y-112540417D01*
X169346500Y-112580563D01*
X169346500Y-117738495D01*
X169327593Y-117796686D01*
X169317504Y-117808499D01*
X168567494Y-118558509D01*
X168512977Y-118586286D01*
X168452545Y-118576715D01*
X168409280Y-118533450D01*
X168401864Y-118514129D01*
X168383467Y-118445474D01*
X168380523Y-118437386D01*
X168291403Y-118246266D01*
X168287102Y-118238816D01*
X168256680Y-118195369D01*
X168246027Y-118187342D01*
X168245397Y-118187331D01*
X168239091Y-118191119D01*
X166520610Y-119909600D01*
X166514556Y-119921483D01*
X166514654Y-119922105D01*
X166519481Y-119927658D01*
X166565816Y-119960102D01*
X166573266Y-119964403D01*
X166764386Y-120053523D01*
X166772464Y-120056464D01*
X166841130Y-120074863D01*
X166892444Y-120108188D01*
X166914370Y-120165309D01*
X166898534Y-120224410D01*
X166885510Y-120240494D01*
X166850500Y-120275504D01*
X166795983Y-120303281D01*
X166780496Y-120304500D01*
X159005597Y-120304500D01*
X158947406Y-120285593D01*
X158911719Y-120236473D01*
X158910646Y-120229696D01*
X158882124Y-120173719D01*
X158856586Y-120123597D01*
X158856585Y-120123595D01*
X158853050Y-120116658D01*
X158763342Y-120026950D01*
X158756404Y-120023415D01*
X158756400Y-120023412D01*
X158704554Y-119996995D01*
X158661290Y-119953730D01*
X158650500Y-119908786D01*
X158650500Y-117760554D01*
X158669407Y-117702363D01*
X158718907Y-117666399D01*
X158730188Y-117663456D01*
X158738665Y-117661770D01*
X158738666Y-117661770D01*
X158748231Y-117659867D01*
X158790339Y-117631731D01*
X158799998Y-117625277D01*
X158858886Y-117608668D01*
X158910002Y-117625277D01*
X158919661Y-117631731D01*
X158961769Y-117659867D01*
X158971332Y-117661769D01*
X158971334Y-117661770D01*
X158994005Y-117666279D01*
X159020252Y-117671500D01*
X159298500Y-117671500D01*
X159356691Y-117690407D01*
X159392655Y-117739907D01*
X159397500Y-117770500D01*
X159397500Y-118130786D01*
X159378593Y-118188977D01*
X159343446Y-118218995D01*
X159291600Y-118245412D01*
X159291596Y-118245415D01*
X159284658Y-118248950D01*
X159194950Y-118338658D01*
X159191415Y-118345595D01*
X159191414Y-118345597D01*
X159149848Y-118427175D01*
X159137354Y-118451696D01*
X159136135Y-118459390D01*
X159136135Y-118459391D01*
X159124042Y-118535743D01*
X159122500Y-118545481D01*
X159122501Y-119158518D01*
X159123110Y-119162361D01*
X159123110Y-119162366D01*
X159127857Y-119192337D01*
X159137354Y-119252304D01*
X159162193Y-119301053D01*
X159191413Y-119358400D01*
X159194950Y-119365342D01*
X159284658Y-119455050D01*
X159291595Y-119458585D01*
X159291597Y-119458586D01*
X159390756Y-119509110D01*
X159397696Y-119512646D01*
X159405390Y-119513865D01*
X159405391Y-119513865D01*
X159487635Y-119526891D01*
X159487637Y-119526891D01*
X159491481Y-119527500D01*
X159722970Y-119527500D01*
X159954518Y-119527499D01*
X159958361Y-119526890D01*
X159958366Y-119526890D01*
X159997221Y-119520736D01*
X160048304Y-119512646D01*
X160143033Y-119464379D01*
X160154403Y-119458586D01*
X160154405Y-119458585D01*
X160161342Y-119455050D01*
X160251050Y-119365342D01*
X160254586Y-119358403D01*
X160254588Y-119358400D01*
X160298593Y-119272036D01*
X160341857Y-119228772D01*
X160402290Y-119219201D01*
X160456806Y-119246979D01*
X160481272Y-119287377D01*
X160521202Y-119414797D01*
X160526079Y-119425597D01*
X160608667Y-119561965D01*
X160615976Y-119571288D01*
X160728712Y-119684024D01*
X160738035Y-119691333D01*
X160874403Y-119773921D01*
X160885203Y-119778798D01*
X161038021Y-119826687D01*
X161048257Y-119828737D01*
X161106206Y-119834062D01*
X161116005Y-119830878D01*
X161119000Y-119826757D01*
X161119000Y-119819319D01*
X161627000Y-119819319D01*
X161631122Y-119832004D01*
X161634609Y-119834538D01*
X161697744Y-119828737D01*
X161707978Y-119826688D01*
X161860797Y-119778798D01*
X161871597Y-119773921D01*
X162007965Y-119691333D01*
X162017288Y-119684024D01*
X162130024Y-119571288D01*
X162137333Y-119561965D01*
X162219921Y-119425597D01*
X162224798Y-119414797D01*
X162272687Y-119261979D01*
X162274737Y-119251743D01*
X162280793Y-119185837D01*
X162281000Y-119181328D01*
X162281000Y-119121680D01*
X162276878Y-119108995D01*
X162272757Y-119106000D01*
X161642680Y-119106000D01*
X161629995Y-119110122D01*
X161627000Y-119114243D01*
X161627000Y-119819319D01*
X161119000Y-119819319D01*
X161119000Y-118582320D01*
X161627000Y-118582320D01*
X161631122Y-118595005D01*
X161635243Y-118598000D01*
X162265319Y-118598000D01*
X162278004Y-118593878D01*
X162280999Y-118589757D01*
X162280999Y-118522673D01*
X162280792Y-118518163D01*
X162274737Y-118452256D01*
X162272688Y-118442022D01*
X162224798Y-118289203D01*
X162219921Y-118278403D01*
X162137333Y-118142035D01*
X162130024Y-118132712D01*
X162017288Y-118019976D01*
X162007965Y-118012667D01*
X161871597Y-117930079D01*
X161860797Y-117925202D01*
X161707979Y-117877313D01*
X161697743Y-117875263D01*
X161639794Y-117869938D01*
X161629995Y-117873122D01*
X161627000Y-117877243D01*
X161627000Y-118582320D01*
X161119000Y-118582320D01*
X161119000Y-117884681D01*
X161114878Y-117871996D01*
X161111391Y-117869462D01*
X161048256Y-117875263D01*
X161038022Y-117877312D01*
X160885203Y-117925202D01*
X160874403Y-117930079D01*
X160738035Y-118012667D01*
X160728712Y-118019976D01*
X160615976Y-118132712D01*
X160608667Y-118142035D01*
X160526079Y-118278403D01*
X160521202Y-118289203D01*
X160481272Y-118416623D01*
X160445829Y-118466497D01*
X160387839Y-118486013D01*
X160329454Y-118467716D01*
X160298593Y-118431964D01*
X160254588Y-118345600D01*
X160254585Y-118345596D01*
X160251050Y-118338658D01*
X160161342Y-118248950D01*
X160154404Y-118245415D01*
X160154400Y-118245412D01*
X160102554Y-118218995D01*
X160059290Y-118175730D01*
X160048500Y-118130786D01*
X160048500Y-117689922D01*
X160067407Y-117631731D01*
X160076804Y-117620729D01*
X160084552Y-117615552D01*
X160128867Y-117549231D01*
X160140500Y-117490748D01*
X160140500Y-115596737D01*
X160159407Y-115538546D01*
X160208907Y-115502582D01*
X160270093Y-115502582D01*
X160321816Y-115541735D01*
X160360448Y-115599552D01*
X160426769Y-115643867D01*
X160436332Y-115645769D01*
X160436334Y-115645770D01*
X160459005Y-115650279D01*
X160485252Y-115655500D01*
X162684748Y-115655500D01*
X162710995Y-115650279D01*
X162733666Y-115645770D01*
X162733668Y-115645769D01*
X162743231Y-115643867D01*
X162809552Y-115599552D01*
X162853867Y-115533231D01*
X162865500Y-115474748D01*
X162865500Y-115429500D01*
X162884407Y-115371309D01*
X162933907Y-115335345D01*
X162964500Y-115330500D01*
X163308501Y-115330500D01*
X163366692Y-115349407D01*
X163402656Y-115398907D01*
X163407501Y-115429500D01*
X163407501Y-115622518D01*
X163422354Y-115716304D01*
X163451152Y-115772823D01*
X163467020Y-115803965D01*
X163479950Y-115829342D01*
X163569658Y-115919050D01*
X163576595Y-115922585D01*
X163576597Y-115922586D01*
X163678445Y-115974480D01*
X163721710Y-116017745D01*
X163732500Y-116062690D01*
X163732500Y-116102990D01*
X163713593Y-116161181D01*
X163678446Y-116191199D01*
X163640097Y-116210739D01*
X163586719Y-116237936D01*
X163586717Y-116237937D01*
X163579780Y-116241472D01*
X163484472Y-116336780D01*
X163480937Y-116343717D01*
X163480936Y-116343719D01*
X163426817Y-116449934D01*
X163423281Y-116456874D01*
X163407500Y-116556512D01*
X163407500Y-117123488D01*
X163408109Y-117127332D01*
X163408109Y-117127334D01*
X163419199Y-117197351D01*
X163423281Y-117223126D01*
X163426817Y-117230065D01*
X163426817Y-117230066D01*
X163468512Y-117311896D01*
X163484472Y-117343220D01*
X163579780Y-117438528D01*
X163586717Y-117442063D01*
X163586719Y-117442064D01*
X163691505Y-117495455D01*
X163699874Y-117499719D01*
X163707568Y-117500938D01*
X163707569Y-117500938D01*
X163795666Y-117514891D01*
X163795668Y-117514891D01*
X163799512Y-117515500D01*
X164174500Y-117515500D01*
X164232691Y-117534407D01*
X164268655Y-117583907D01*
X164273500Y-117614500D01*
X164273500Y-117826000D01*
X164254593Y-117884191D01*
X164205093Y-117920155D01*
X164174500Y-117925000D01*
X163832752Y-117925000D01*
X163807218Y-117930079D01*
X163783834Y-117934730D01*
X163783832Y-117934731D01*
X163774269Y-117936633D01*
X163707948Y-117980948D01*
X163663633Y-118047269D01*
X163661731Y-118056832D01*
X163661730Y-118056834D01*
X163660487Y-118063083D01*
X163652000Y-118105752D01*
X163652000Y-119638248D01*
X163652948Y-119643012D01*
X163658047Y-119668646D01*
X163663633Y-119696731D01*
X163707948Y-119763052D01*
X163774269Y-119807367D01*
X163783832Y-119809269D01*
X163783834Y-119809270D01*
X163806454Y-119813769D01*
X163832752Y-119819000D01*
X165365248Y-119819000D01*
X165391546Y-119813769D01*
X165414166Y-119809270D01*
X165414168Y-119809269D01*
X165423731Y-119807367D01*
X165490052Y-119763052D01*
X165534367Y-119696731D01*
X165539954Y-119668646D01*
X165545052Y-119643012D01*
X165546000Y-119638248D01*
X165546000Y-118876309D01*
X165940085Y-118876309D01*
X165958462Y-119086365D01*
X165959957Y-119094847D01*
X166014536Y-119298536D01*
X166017477Y-119306614D01*
X166106597Y-119497734D01*
X166110898Y-119505184D01*
X166141320Y-119548631D01*
X166151973Y-119556658D01*
X166152603Y-119556669D01*
X166158909Y-119552881D01*
X166828704Y-118883086D01*
X166834758Y-118871203D01*
X166833962Y-118866172D01*
X166161400Y-118193610D01*
X166149517Y-118187556D01*
X166148895Y-118187654D01*
X166143342Y-118192481D01*
X166110898Y-118238816D01*
X166106597Y-118246266D01*
X166017477Y-118437386D01*
X166014536Y-118445464D01*
X165959957Y-118649153D01*
X165958462Y-118657635D01*
X165940085Y-118867691D01*
X165940085Y-118876309D01*
X165546000Y-118876309D01*
X165546000Y-118105752D01*
X165537513Y-118063083D01*
X165536270Y-118056834D01*
X165536269Y-118056832D01*
X165534367Y-118047269D01*
X165490052Y-117980948D01*
X165423731Y-117936633D01*
X165414166Y-117934730D01*
X165412043Y-117933851D01*
X165365518Y-117894113D01*
X165351235Y-117834618D01*
X165352148Y-117826903D01*
X165352354Y-117825603D01*
X166514331Y-117825603D01*
X166518119Y-117831909D01*
X167187914Y-118501704D01*
X167199797Y-118507758D01*
X167204828Y-118506962D01*
X167877390Y-117834400D01*
X167883444Y-117822517D01*
X167883346Y-117821895D01*
X167878519Y-117816342D01*
X167832184Y-117783898D01*
X167824734Y-117779597D01*
X167633614Y-117690477D01*
X167625536Y-117687536D01*
X167421847Y-117632957D01*
X167413365Y-117631462D01*
X167203309Y-117613085D01*
X167194691Y-117613085D01*
X166984635Y-117631462D01*
X166976153Y-117632957D01*
X166772464Y-117687536D01*
X166764386Y-117690477D01*
X166573266Y-117779597D01*
X166565816Y-117783898D01*
X166522369Y-117814320D01*
X166514342Y-117824973D01*
X166514331Y-117825603D01*
X165352354Y-117825603D01*
X165354000Y-117815208D01*
X165354000Y-117807320D01*
X165862000Y-117807320D01*
X165866122Y-117820005D01*
X165870243Y-117823000D01*
X165879135Y-117823000D01*
X165884262Y-117822735D01*
X165978525Y-117812953D01*
X165989054Y-117810680D01*
X166140600Y-117760121D01*
X166150947Y-117755274D01*
X166286512Y-117671384D01*
X166295463Y-117664289D01*
X166408095Y-117551461D01*
X166415174Y-117542497D01*
X166498830Y-117406782D01*
X166503656Y-117396432D01*
X166553956Y-117244783D01*
X166556208Y-117234277D01*
X166565741Y-117141229D01*
X166566000Y-117136171D01*
X166566000Y-117109680D01*
X166561878Y-117096995D01*
X166557757Y-117094000D01*
X165877680Y-117094000D01*
X165864995Y-117098122D01*
X165862000Y-117102243D01*
X165862000Y-117807320D01*
X165354000Y-117807320D01*
X165354000Y-116685000D01*
X165372907Y-116626809D01*
X165422407Y-116590845D01*
X165453000Y-116586000D01*
X166550320Y-116586000D01*
X166563005Y-116581878D01*
X166566000Y-116577757D01*
X166566000Y-116543865D01*
X166565735Y-116538738D01*
X166555953Y-116444475D01*
X166553680Y-116433946D01*
X166503121Y-116282400D01*
X166498274Y-116272053D01*
X166414384Y-116136488D01*
X166407289Y-116127537D01*
X166294461Y-116014905D01*
X166285497Y-116007826D01*
X166217136Y-115965688D01*
X166177521Y-115919058D01*
X166172880Y-115858049D01*
X166186138Y-115829387D01*
X166186050Y-115829342D01*
X166187232Y-115827022D01*
X166243646Y-115716304D01*
X166248957Y-115682775D01*
X166257891Y-115626365D01*
X166257891Y-115626363D01*
X166258500Y-115622519D01*
X166258499Y-115009482D01*
X166243646Y-114915696D01*
X166186050Y-114802658D01*
X166096342Y-114712950D01*
X166092856Y-114711174D01*
X166058045Y-114663262D01*
X166058044Y-114602077D01*
X166087903Y-114557388D01*
X166122887Y-114527508D01*
X166127423Y-114523634D01*
X166130904Y-114518790D01*
X166222877Y-114390796D01*
X166222878Y-114390794D01*
X166226361Y-114385947D01*
X166285159Y-114239685D01*
X166287377Y-114234167D01*
X166287378Y-114234165D01*
X166289601Y-114228634D01*
X166291863Y-114212739D01*
X166313034Y-114063985D01*
X166313034Y-114063979D01*
X166313490Y-114060778D01*
X166313645Y-114046000D01*
X166293276Y-113877680D01*
X166233345Y-113719077D01*
X166219640Y-113699135D01*
X166140692Y-113584267D01*
X166137312Y-113579349D01*
X166010721Y-113466560D01*
X165860881Y-113387224D01*
X165740365Y-113356952D01*
X165702231Y-113347373D01*
X165702228Y-113347373D01*
X165696441Y-113345919D01*
X165610841Y-113345471D01*
X165532861Y-113345062D01*
X165532859Y-113345062D01*
X165526895Y-113345031D01*
X165521095Y-113346424D01*
X165521091Y-113346424D01*
X165497660Y-113352049D01*
X165436664Y-113347248D01*
X165390138Y-113307511D01*
X165375855Y-113248016D01*
X165399270Y-113191488D01*
X165404546Y-113185780D01*
X166104322Y-112486005D01*
X167399496Y-111190831D01*
X167454013Y-111163054D01*
X167514445Y-111172625D01*
G37*
%TD.AperFunction*%
%TA.AperFunction,Conductor*%
G36*
X175836357Y-111274407D02*
G01*
X175848170Y-111284496D01*
X176937504Y-112373830D01*
X176965281Y-112428347D01*
X176966500Y-112443834D01*
X176966500Y-117934166D01*
X176947593Y-117992357D01*
X176937504Y-118004170D01*
X175446170Y-119495504D01*
X175391653Y-119523281D01*
X175376166Y-119524500D01*
X174152862Y-119524500D01*
X174094671Y-119505593D01*
X174058707Y-119456093D01*
X174058707Y-119394907D01*
X174068695Y-119375305D01*
X174068528Y-119375220D01*
X174126183Y-119262066D01*
X174126183Y-119262065D01*
X174129719Y-119255126D01*
X174131010Y-119246979D01*
X174144891Y-119159334D01*
X174144891Y-119159332D01*
X174145500Y-119155488D01*
X174145500Y-118588512D01*
X174141115Y-118560826D01*
X174130938Y-118496569D01*
X174130938Y-118496568D01*
X174129719Y-118488874D01*
X174125850Y-118481281D01*
X174072064Y-118375719D01*
X174072063Y-118375717D01*
X174068528Y-118368780D01*
X173973220Y-118273472D01*
X173966283Y-118269937D01*
X173966281Y-118269936D01*
X173905204Y-118238816D01*
X173874554Y-118223199D01*
X173831290Y-118179935D01*
X173820500Y-118134990D01*
X173820500Y-118094690D01*
X173839407Y-118036499D01*
X173874555Y-118006480D01*
X173976403Y-117954586D01*
X173976405Y-117954585D01*
X173983342Y-117951050D01*
X173988141Y-117946251D01*
X174045850Y-117927500D01*
X174327973Y-117927500D01*
X174386164Y-117946407D01*
X174410143Y-117971282D01*
X174471830Y-118063083D01*
X174476244Y-118067099D01*
X174476247Y-118067103D01*
X174592815Y-118173171D01*
X174597233Y-118177191D01*
X174746235Y-118258092D01*
X174779409Y-118266795D01*
X174904464Y-118299603D01*
X174904468Y-118299604D01*
X174910233Y-118301116D01*
X174916194Y-118301210D01*
X174916197Y-118301210D01*
X174994996Y-118302447D01*
X175079760Y-118303779D01*
X175085575Y-118302447D01*
X175085577Y-118302447D01*
X175239206Y-118267262D01*
X175239209Y-118267261D01*
X175245029Y-118265928D01*
X175250744Y-118263054D01*
X175338345Y-118218995D01*
X175396498Y-118189747D01*
X175401035Y-118185872D01*
X175401038Y-118185870D01*
X175520888Y-118083508D01*
X175520891Y-118083505D01*
X175525423Y-118079634D01*
X175529625Y-118073786D01*
X175620877Y-117946796D01*
X175620878Y-117946794D01*
X175624361Y-117941947D01*
X175627263Y-117934730D01*
X175685377Y-117790167D01*
X175685378Y-117790165D01*
X175687601Y-117784634D01*
X175691090Y-117760121D01*
X175711034Y-117619985D01*
X175711034Y-117619979D01*
X175711490Y-117616778D01*
X175711645Y-117602000D01*
X175693797Y-117454511D01*
X175691993Y-117439602D01*
X175691992Y-117439599D01*
X175691276Y-117433680D01*
X175631345Y-117275077D01*
X175627022Y-117268786D01*
X175538692Y-117140267D01*
X175535312Y-117135349D01*
X175408721Y-117022560D01*
X175258881Y-116943224D01*
X175161786Y-116918835D01*
X175100231Y-116903373D01*
X175100228Y-116903373D01*
X175094441Y-116901919D01*
X175008841Y-116901471D01*
X174930861Y-116901062D01*
X174930859Y-116901062D01*
X174924895Y-116901031D01*
X174919099Y-116902423D01*
X174919095Y-116902423D01*
X174811703Y-116928207D01*
X174760032Y-116940612D01*
X174697495Y-116972890D01*
X174614675Y-117015636D01*
X174614673Y-117015638D01*
X174609369Y-117018375D01*
X174481604Y-117129831D01*
X174408094Y-117234426D01*
X174359165Y-117271162D01*
X174327097Y-117276500D01*
X174244499Y-117276500D01*
X174186308Y-117257593D01*
X174150344Y-117208093D01*
X174145499Y-117177500D01*
X174145499Y-117041482D01*
X174144668Y-117036231D01*
X174134636Y-116972890D01*
X174130646Y-116947696D01*
X174093040Y-116873890D01*
X174076586Y-116841597D01*
X174076585Y-116841595D01*
X174073050Y-116834658D01*
X173983342Y-116744950D01*
X173976405Y-116741415D01*
X173976403Y-116741414D01*
X173877244Y-116690890D01*
X173877243Y-116690890D01*
X173870304Y-116687354D01*
X173862610Y-116686135D01*
X173862609Y-116686135D01*
X173780365Y-116673109D01*
X173780363Y-116673109D01*
X173776519Y-116672500D01*
X173545030Y-116672500D01*
X173313482Y-116672501D01*
X173309639Y-116673110D01*
X173309634Y-116673110D01*
X173272783Y-116678947D01*
X173219696Y-116687354D01*
X173163177Y-116716152D01*
X173113597Y-116741414D01*
X173113595Y-116741415D01*
X173106658Y-116744950D01*
X173016950Y-116834658D01*
X173013415Y-116841595D01*
X173013414Y-116841597D01*
X172982422Y-116902423D01*
X172959354Y-116947696D01*
X172958135Y-116955390D01*
X172958135Y-116955391D01*
X172945109Y-117037634D01*
X172944500Y-117041481D01*
X172944501Y-117654518D01*
X172945110Y-117658361D01*
X172945110Y-117658366D01*
X172947958Y-117676345D01*
X172959354Y-117748304D01*
X172975251Y-117779503D01*
X172997168Y-117822517D01*
X173016950Y-117861342D01*
X173106658Y-117951050D01*
X173113602Y-117954588D01*
X173113603Y-117954589D01*
X173115447Y-117955529D01*
X173116910Y-117956992D01*
X173119901Y-117959165D01*
X173119557Y-117959639D01*
X173158711Y-117998794D01*
X173169500Y-118043737D01*
X173169500Y-118134990D01*
X173150593Y-118193181D01*
X173115446Y-118223199D01*
X173084796Y-118238816D01*
X173023719Y-118269936D01*
X173023717Y-118269937D01*
X173016780Y-118273472D01*
X172981369Y-118308883D01*
X172926852Y-118336660D01*
X172866420Y-118327089D01*
X172827180Y-118290974D01*
X172751383Y-118168488D01*
X172744289Y-118159537D01*
X172631461Y-118046905D01*
X172622497Y-118039826D01*
X172481888Y-117953154D01*
X172482928Y-117951467D01*
X172444413Y-117915558D01*
X172432733Y-117855498D01*
X172442786Y-117822609D01*
X172477110Y-117755244D01*
X172477110Y-117755243D01*
X172480646Y-117748304D01*
X172483183Y-117732290D01*
X172494891Y-117658365D01*
X172494891Y-117658363D01*
X172495500Y-117654519D01*
X172495499Y-117041482D01*
X172494668Y-117036231D01*
X172484636Y-116972890D01*
X172480646Y-116947696D01*
X172443040Y-116873890D01*
X172426586Y-116841597D01*
X172426585Y-116841595D01*
X172423050Y-116834658D01*
X172333342Y-116744950D01*
X172326405Y-116741415D01*
X172326403Y-116741414D01*
X172227244Y-116690890D01*
X172227243Y-116690890D01*
X172220304Y-116687354D01*
X172212610Y-116686135D01*
X172212609Y-116686135D01*
X172130365Y-116673109D01*
X172130363Y-116673109D01*
X172126519Y-116672500D01*
X171895030Y-116672500D01*
X171663482Y-116672501D01*
X171659639Y-116673110D01*
X171659634Y-116673110D01*
X171622783Y-116678947D01*
X171569696Y-116687354D01*
X171513177Y-116716152D01*
X171463597Y-116741414D01*
X171463595Y-116741415D01*
X171456658Y-116744950D01*
X171366950Y-116834658D01*
X171363415Y-116841595D01*
X171363414Y-116841597D01*
X171332422Y-116902423D01*
X171309354Y-116947696D01*
X171308135Y-116955390D01*
X171308135Y-116955391D01*
X171295109Y-117037634D01*
X171294500Y-117041481D01*
X171294500Y-117094174D01*
X171275593Y-117152365D01*
X171226093Y-117188329D01*
X171171382Y-117190191D01*
X171040731Y-117157373D01*
X171040728Y-117157373D01*
X171034941Y-117155919D01*
X170949341Y-117155471D01*
X170871361Y-117155062D01*
X170871359Y-117155062D01*
X170865395Y-117155031D01*
X170859599Y-117156423D01*
X170859595Y-117156423D01*
X170773177Y-117177171D01*
X170700532Y-117194612D01*
X170623394Y-117234426D01*
X170591906Y-117250678D01*
X170531525Y-117260566D01*
X170476864Y-117233074D01*
X170448801Y-117178704D01*
X170447500Y-117162705D01*
X170447500Y-113493834D01*
X170466407Y-113435643D01*
X170476496Y-113423830D01*
X171673127Y-112227200D01*
X171727644Y-112199423D01*
X171788076Y-112208994D01*
X171831341Y-112252259D01*
X171835831Y-112262451D01*
X171857352Y-112319857D01*
X171864059Y-112332108D01*
X171942863Y-112437256D01*
X171952744Y-112447137D01*
X172057895Y-112525943D01*
X172059406Y-112526770D01*
X172060385Y-112527809D01*
X172063538Y-112530172D01*
X172063128Y-112530719D01*
X172101369Y-112571299D01*
X172109252Y-112599797D01*
X172109500Y-112599748D01*
X172110449Y-112604517D01*
X172110449Y-112604521D01*
X172116211Y-112633488D01*
X172121133Y-112658231D01*
X172165448Y-112724552D01*
X172231769Y-112768867D01*
X172241332Y-112770769D01*
X172241334Y-112770770D01*
X172264005Y-112775279D01*
X172290252Y-112780500D01*
X172810500Y-112780500D01*
X172868691Y-112799407D01*
X172904655Y-112848907D01*
X172909500Y-112879500D01*
X172909500Y-115549748D01*
X172910448Y-115554512D01*
X172918847Y-115596737D01*
X172921133Y-115608231D01*
X172965448Y-115674552D01*
X173031769Y-115718867D01*
X173041332Y-115720769D01*
X173041334Y-115720770D01*
X173064005Y-115725279D01*
X173090252Y-115730500D01*
X175429748Y-115730500D01*
X175455995Y-115725279D01*
X175478666Y-115720770D01*
X175478668Y-115720769D01*
X175488231Y-115718867D01*
X175554552Y-115674552D01*
X175598867Y-115608231D01*
X175601154Y-115596737D01*
X175609552Y-115554512D01*
X175610500Y-115549748D01*
X175610500Y-112860252D01*
X175598867Y-112801769D01*
X175554552Y-112735448D01*
X175488231Y-112691133D01*
X175478668Y-112689231D01*
X175478666Y-112689230D01*
X175455995Y-112684721D01*
X175429748Y-112679500D01*
X174054386Y-112679500D01*
X173996195Y-112660593D01*
X173960231Y-112611093D01*
X173960231Y-112549907D01*
X173995014Y-112501279D01*
X174067256Y-112447137D01*
X174077137Y-112437256D01*
X174155941Y-112332108D01*
X174162649Y-112319855D01*
X174209072Y-112196022D01*
X174211923Y-112184033D01*
X174217711Y-112130748D01*
X174218000Y-112125414D01*
X174218000Y-112095680D01*
X174213878Y-112082995D01*
X174209757Y-112080000D01*
X173734825Y-112080000D01*
X173731420Y-112079833D01*
X173729748Y-112079500D01*
X172959000Y-112079500D01*
X172900809Y-112060593D01*
X172864845Y-112011093D01*
X172860000Y-111980500D01*
X172860000Y-111879500D01*
X172878907Y-111821309D01*
X172928407Y-111785345D01*
X172959000Y-111780500D01*
X173729748Y-111780500D01*
X173731420Y-111780167D01*
X173734825Y-111780000D01*
X174202319Y-111780000D01*
X174215004Y-111775878D01*
X174217999Y-111771757D01*
X174217999Y-111734589D01*
X174217710Y-111729249D01*
X174211922Y-111675965D01*
X174209073Y-111663980D01*
X174162649Y-111540145D01*
X174155941Y-111527892D01*
X174072904Y-111417096D01*
X174074509Y-111415893D01*
X174051120Y-111369987D01*
X174060691Y-111309555D01*
X174103956Y-111266290D01*
X174148901Y-111255500D01*
X175778166Y-111255500D01*
X175836357Y-111274407D01*
G37*
%TD.AperFunction*%
%TA.AperFunction,Conductor*%
G36*
X167393288Y-107751036D02*
G01*
X167428780Y-107786528D01*
X167435717Y-107790063D01*
X167435719Y-107790064D01*
X167494376Y-107819951D01*
X167548874Y-107847719D01*
X167556568Y-107848938D01*
X167556569Y-107848938D01*
X167644666Y-107862891D01*
X167644668Y-107862891D01*
X167648512Y-107863500D01*
X168165488Y-107863500D01*
X168169332Y-107862891D01*
X168169334Y-107862891D01*
X168257431Y-107848938D01*
X168257432Y-107848938D01*
X168265126Y-107847719D01*
X168269827Y-107845324D01*
X168329740Y-107845325D01*
X168369149Y-107869475D01*
X168435170Y-107935496D01*
X168462947Y-107990013D01*
X168453376Y-108050445D01*
X168410111Y-108093710D01*
X168365166Y-108104500D01*
X168091250Y-108104500D01*
X168082621Y-108104123D01*
X168082611Y-108104122D01*
X168043920Y-108100737D01*
X168035557Y-108102978D01*
X168035554Y-108102978D01*
X168006383Y-108110794D01*
X167997956Y-108112663D01*
X167959682Y-108119412D01*
X167952181Y-108123743D01*
X167946687Y-108125742D01*
X167941405Y-108128205D01*
X167933043Y-108130446D01*
X167925950Y-108135413D01*
X167925949Y-108135413D01*
X167901205Y-108152739D01*
X167893946Y-108157364D01*
X167860272Y-108176806D01*
X167854702Y-108183444D01*
X167835301Y-108206565D01*
X167829467Y-108212933D01*
X167334433Y-108707968D01*
X167009121Y-109033280D01*
X166954604Y-109061057D01*
X166894172Y-109051486D01*
X166850907Y-109008221D01*
X166840532Y-108954218D01*
X166844062Y-108915795D01*
X166840878Y-108905995D01*
X166836757Y-108903000D01*
X164894681Y-108903000D01*
X164881996Y-108907122D01*
X164879462Y-108910609D01*
X164885263Y-108973744D01*
X164887312Y-108983978D01*
X164935202Y-109136797D01*
X164940079Y-109147597D01*
X165022667Y-109283965D01*
X165029976Y-109293288D01*
X165039946Y-109303258D01*
X165067723Y-109357775D01*
X165058152Y-109418207D01*
X165039949Y-109443262D01*
X164832502Y-109650709D01*
X164777987Y-109678485D01*
X164717555Y-109668914D01*
X164674290Y-109625649D01*
X164663500Y-109580704D01*
X164663500Y-108748976D01*
X164682407Y-108690785D01*
X164692496Y-108678972D01*
X164947472Y-108423996D01*
X165001989Y-108396219D01*
X165017476Y-108395000D01*
X166829319Y-108395000D01*
X166842004Y-108390878D01*
X166844538Y-108387391D01*
X166838737Y-108324256D01*
X166836688Y-108314022D01*
X166812346Y-108236347D01*
X166812987Y-108175165D01*
X166849467Y-108126044D01*
X166875485Y-108112831D01*
X166889592Y-108108124D01*
X166899947Y-108103274D01*
X167035512Y-108019384D01*
X167044463Y-108012289D01*
X167157095Y-107899461D01*
X167164174Y-107890497D01*
X167239008Y-107769092D01*
X167285638Y-107729477D01*
X167346647Y-107724836D01*
X167393288Y-107751036D01*
G37*
%TD.AperFunction*%
%TA.AperFunction,Conductor*%
G36*
X166570191Y-105428907D02*
G01*
X166606155Y-105478407D01*
X166611000Y-105509000D01*
X166611000Y-107343000D01*
X166592093Y-107401191D01*
X166542593Y-107437155D01*
X166512000Y-107442000D01*
X166202000Y-107442000D01*
X166143809Y-107423093D01*
X166107845Y-107373593D01*
X166103000Y-107343000D01*
X166103000Y-105509000D01*
X166121907Y-105450809D01*
X166171407Y-105414845D01*
X166202000Y-105410000D01*
X166512000Y-105410000D01*
X166570191Y-105428907D01*
G37*
%TD.AperFunction*%
%TD*%
M02*
