%TF.GenerationSoftware,KiCad,Pcbnew,6.0.11+dfsg-1*%
%TF.CreationDate,2025-04-06T17:28:17-04:00*%
%TF.ProjectId,quad_direct,71756164-5f64-4697-9265-63742e6b6963,rev?*%
%TF.SameCoordinates,Original*%
%TF.FileFunction,Legend,Top*%
%TF.FilePolarity,Positive*%
%FSLAX46Y46*%
G04 Gerber Fmt 4.6, Leading zero omitted, Abs format (unit mm)*
G04 Created by KiCad (PCBNEW 6.0.11+dfsg-1) date 2025-04-06 17:28:17*
%MOMM*%
%LPD*%
G01*
G04 APERTURE LIST*
%ADD10C,0.254000*%
%ADD11C,0.200000*%
%ADD12C,0.006350*%
%ADD13C,0.060000*%
%ADD14C,0.150000*%
%ADD15C,0.120000*%
%ADD16C,0.100000*%
G04 APERTURE END LIST*
D10*
%TO.C,U1*%
X174292380Y-29149523D02*
X174292380Y-30177619D01*
X174352857Y-30298571D01*
X174413333Y-30359047D01*
X174534285Y-30419523D01*
X174776190Y-30419523D01*
X174897142Y-30359047D01*
X174957619Y-30298571D01*
X175018095Y-30177619D01*
X175018095Y-29149523D01*
X176288095Y-30419523D02*
X175562380Y-30419523D01*
X175925238Y-30419523D02*
X175925238Y-29149523D01*
X175804285Y-29330952D01*
X175683333Y-29451904D01*
X175562380Y-29512380D01*
D11*
X173962380Y-34226666D02*
X173486190Y-34560000D01*
X173962380Y-34798095D02*
X172962380Y-34798095D01*
X172962380Y-34417142D01*
X173010000Y-34321904D01*
X173057619Y-34274285D01*
X173152857Y-34226666D01*
X173295714Y-34226666D01*
X173390952Y-34274285D01*
X173438571Y-34321904D01*
X173486190Y-34417142D01*
X173486190Y-34798095D01*
X172962380Y-33893333D02*
X173962380Y-33226666D01*
X172962380Y-33226666D02*
X173962380Y-33893333D01*
X172962380Y-32321904D02*
X172962380Y-31750476D01*
X173962380Y-32036190D02*
X172962380Y-32036190D01*
X172962380Y-31512380D02*
X173962380Y-30845714D01*
X172962380Y-30845714D02*
X173962380Y-31512380D01*
X173010000Y-37571904D02*
X172962380Y-37667142D01*
X172962380Y-37810000D01*
X173010000Y-37952857D01*
X173105238Y-38048095D01*
X173200476Y-38095714D01*
X173390952Y-38143333D01*
X173533809Y-38143333D01*
X173724285Y-38095714D01*
X173819523Y-38048095D01*
X173914761Y-37952857D01*
X173962380Y-37810000D01*
X173962380Y-37714761D01*
X173914761Y-37571904D01*
X173867142Y-37524285D01*
X173533809Y-37524285D01*
X173533809Y-37714761D01*
X173962380Y-37095714D02*
X172962380Y-37095714D01*
X173962380Y-36524285D01*
X172962380Y-36524285D01*
X173962380Y-36048095D02*
X172962380Y-36048095D01*
X172962380Y-35810000D01*
X173010000Y-35667142D01*
X173105238Y-35571904D01*
X173200476Y-35524285D01*
X173390952Y-35476666D01*
X173533809Y-35476666D01*
X173724285Y-35524285D01*
X173819523Y-35571904D01*
X173914761Y-35667142D01*
X173962380Y-35810000D01*
X173962380Y-36048095D01*
X172962380Y-39500476D02*
X172962380Y-39976666D01*
X173438571Y-40024285D01*
X173390952Y-39976666D01*
X173343333Y-39881428D01*
X173343333Y-39643333D01*
X173390952Y-39548095D01*
X173438571Y-39500476D01*
X173533809Y-39452857D01*
X173771904Y-39452857D01*
X173867142Y-39500476D01*
X173914761Y-39548095D01*
X173962380Y-39643333D01*
X173962380Y-39881428D01*
X173914761Y-39976666D01*
X173867142Y-40024285D01*
X172962380Y-39167142D02*
X173962380Y-38833809D01*
X172962380Y-38500476D01*
D12*
%TO.C,U2*%
X155880647Y-63221090D02*
X155880647Y-63241652D01*
X155881857Y-63244071D01*
X155883066Y-63245280D01*
X155885485Y-63246490D01*
X155890323Y-63246490D01*
X155892742Y-63245280D01*
X155893952Y-63244071D01*
X155895161Y-63241652D01*
X155895161Y-63221090D01*
X155906047Y-63223509D02*
X155907257Y-63222300D01*
X155909676Y-63221090D01*
X155915723Y-63221090D01*
X155918142Y-63222300D01*
X155919352Y-63223509D01*
X155920561Y-63225928D01*
X155920561Y-63228347D01*
X155919352Y-63231976D01*
X155904838Y-63246490D01*
X155920561Y-63246490D01*
D11*
X156114285Y-49282619D02*
X156161904Y-49235000D01*
X156257142Y-49187380D01*
X156495238Y-49187380D01*
X156590476Y-49235000D01*
X156638095Y-49282619D01*
X156685714Y-49377857D01*
X156685714Y-49473095D01*
X156638095Y-49615952D01*
X156066666Y-50187380D01*
X156685714Y-50187380D01*
X156638095Y-56687380D02*
X156161904Y-56687380D01*
X156114285Y-57163571D01*
X156161904Y-57115952D01*
X156257142Y-57068333D01*
X156495238Y-57068333D01*
X156590476Y-57115952D01*
X156638095Y-57163571D01*
X156685714Y-57258809D01*
X156685714Y-57496904D01*
X156638095Y-57592142D01*
X156590476Y-57639761D01*
X156495238Y-57687380D01*
X156257142Y-57687380D01*
X156161904Y-57639761D01*
X156114285Y-57592142D01*
X173554761Y-56865952D02*
X173459523Y-56818333D01*
X173411904Y-56770714D01*
X173364285Y-56675476D01*
X173364285Y-56627857D01*
X173411904Y-56532619D01*
X173459523Y-56485000D01*
X173554761Y-56437380D01*
X173745238Y-56437380D01*
X173840476Y-56485000D01*
X173888095Y-56532619D01*
X173935714Y-56627857D01*
X173935714Y-56675476D01*
X173888095Y-56770714D01*
X173840476Y-56818333D01*
X173745238Y-56865952D01*
X173554761Y-56865952D01*
X173459523Y-56913571D01*
X173411904Y-56961190D01*
X173364285Y-57056428D01*
X173364285Y-57246904D01*
X173411904Y-57342142D01*
X173459523Y-57389761D01*
X173554761Y-57437380D01*
X173745238Y-57437380D01*
X173840476Y-57389761D01*
X173888095Y-57342142D01*
X173935714Y-57246904D01*
X173935714Y-57056428D01*
X173888095Y-56961190D01*
X173840476Y-56913571D01*
X173745238Y-56865952D01*
X156590476Y-59187380D02*
X156400000Y-59187380D01*
X156304761Y-59235000D01*
X156257142Y-59282619D01*
X156161904Y-59425476D01*
X156114285Y-59615952D01*
X156114285Y-59996904D01*
X156161904Y-60092142D01*
X156209523Y-60139761D01*
X156304761Y-60187380D01*
X156495238Y-60187380D01*
X156590476Y-60139761D01*
X156638095Y-60092142D01*
X156685714Y-59996904D01*
X156685714Y-59758809D01*
X156638095Y-59663571D01*
X156590476Y-59615952D01*
X156495238Y-59568333D01*
X156304761Y-59568333D01*
X156209523Y-59615952D01*
X156161904Y-59663571D01*
X156114285Y-59758809D01*
X173459523Y-52437380D02*
X172888095Y-52437380D01*
X173173809Y-52437380D02*
X173173809Y-51437380D01*
X173078571Y-51580238D01*
X172983333Y-51675476D01*
X172888095Y-51723095D01*
X174078571Y-51437380D02*
X174173809Y-51437380D01*
X174269047Y-51485000D01*
X174316666Y-51532619D01*
X174364285Y-51627857D01*
X174411904Y-51818333D01*
X174411904Y-52056428D01*
X174364285Y-52246904D01*
X174316666Y-52342142D01*
X174269047Y-52389761D01*
X174173809Y-52437380D01*
X174078571Y-52437380D01*
X173983333Y-52389761D01*
X173935714Y-52342142D01*
X173888095Y-52246904D01*
X173840476Y-52056428D01*
X173840476Y-51818333D01*
X173888095Y-51627857D01*
X173935714Y-51532619D01*
X173983333Y-51485000D01*
X174078571Y-51437380D01*
X156447619Y-45032619D02*
X156352380Y-45032619D01*
X156257142Y-44985000D01*
X156209523Y-44937380D01*
X156161904Y-44842142D01*
X156114285Y-44651666D01*
X156114285Y-44413571D01*
X156161904Y-44223095D01*
X156209523Y-44127857D01*
X156257142Y-44080238D01*
X156352380Y-44032619D01*
X156447619Y-44032619D01*
X156542857Y-44080238D01*
X156590476Y-44127857D01*
X156638095Y-44223095D01*
X156685714Y-44413571D01*
X156685714Y-44651666D01*
X156638095Y-44842142D01*
X156590476Y-44937380D01*
X156542857Y-44985000D01*
X156447619Y-45032619D01*
X172519047Y-49937380D02*
X172519047Y-48937380D01*
X172757142Y-48937380D01*
X172900000Y-48985000D01*
X172995238Y-49080238D01*
X173042857Y-49175476D01*
X173090476Y-49365952D01*
X173090476Y-49508809D01*
X173042857Y-49699285D01*
X172995238Y-49794523D01*
X172900000Y-49889761D01*
X172757142Y-49937380D01*
X172519047Y-49937380D01*
X173519047Y-49556428D02*
X174280952Y-49556428D01*
X156066666Y-61687380D02*
X156733333Y-61687380D01*
X156304761Y-62687380D01*
X172519047Y-47437380D02*
X172519047Y-46437380D01*
X172757142Y-46437380D01*
X172900000Y-46485000D01*
X172995238Y-46580238D01*
X173042857Y-46675476D01*
X173090476Y-46865952D01*
X173090476Y-47008809D01*
X173042857Y-47199285D01*
X172995238Y-47294523D01*
X172900000Y-47389761D01*
X172757142Y-47437380D01*
X172519047Y-47437380D01*
X173519047Y-47056428D02*
X174280952Y-47056428D01*
X173900000Y-47437380D02*
X173900000Y-46675476D01*
X171709523Y-61687380D02*
X172328571Y-61687380D01*
X171995238Y-62068333D01*
X172138095Y-62068333D01*
X172233333Y-62115952D01*
X172280952Y-62163571D01*
X172328571Y-62258809D01*
X172328571Y-62496904D01*
X172280952Y-62592142D01*
X172233333Y-62639761D01*
X172138095Y-62687380D01*
X171852380Y-62687380D01*
X171757142Y-62639761D01*
X171709523Y-62592142D01*
X172661904Y-62020714D02*
X172900000Y-62687380D01*
X173138095Y-62020714D01*
X173423809Y-61687380D02*
X174042857Y-61687380D01*
X173709523Y-62068333D01*
X173852380Y-62068333D01*
X173947619Y-62115952D01*
X173995238Y-62163571D01*
X174042857Y-62258809D01*
X174042857Y-62496904D01*
X173995238Y-62592142D01*
X173947619Y-62639761D01*
X173852380Y-62687380D01*
X173566666Y-62687380D01*
X173471428Y-62639761D01*
X173423809Y-62592142D01*
X172138095Y-59235000D02*
X172042857Y-59187380D01*
X171900000Y-59187380D01*
X171757142Y-59235000D01*
X171661904Y-59330238D01*
X171614285Y-59425476D01*
X171566666Y-59615952D01*
X171566666Y-59758809D01*
X171614285Y-59949285D01*
X171661904Y-60044523D01*
X171757142Y-60139761D01*
X171900000Y-60187380D01*
X171995238Y-60187380D01*
X172138095Y-60139761D01*
X172185714Y-60092142D01*
X172185714Y-59758809D01*
X171995238Y-59758809D01*
X172614285Y-60187380D02*
X172614285Y-59187380D01*
X173185714Y-60187380D01*
X173185714Y-59187380D01*
X173661904Y-60187380D02*
X173661904Y-59187380D01*
X173900000Y-59187380D01*
X174042857Y-59235000D01*
X174138095Y-59330238D01*
X174185714Y-59425476D01*
X174233333Y-59615952D01*
X174233333Y-59758809D01*
X174185714Y-59949285D01*
X174138095Y-60044523D01*
X174042857Y-60139761D01*
X173900000Y-60187380D01*
X173661904Y-60187380D01*
X156066666Y-51687380D02*
X156685714Y-51687380D01*
X156352380Y-52068333D01*
X156495238Y-52068333D01*
X156590476Y-52115952D01*
X156638095Y-52163571D01*
X156685714Y-52258809D01*
X156685714Y-52496904D01*
X156638095Y-52592142D01*
X156590476Y-52639761D01*
X156495238Y-52687380D01*
X156209523Y-52687380D01*
X156114285Y-52639761D01*
X156066666Y-52592142D01*
X156590476Y-54520714D02*
X156590476Y-55187380D01*
X156352380Y-54139761D02*
X156114285Y-54854047D01*
X156733333Y-54854047D01*
X156685714Y-47437380D02*
X156114285Y-47437380D01*
X156400000Y-47437380D02*
X156400000Y-46437380D01*
X156304761Y-46580238D01*
X156209523Y-46675476D01*
X156114285Y-46723095D01*
X171685714Y-54937380D02*
X171876190Y-54937380D01*
X171971428Y-54889761D01*
X172019047Y-54842142D01*
X172114285Y-54699285D01*
X172161904Y-54508809D01*
X172161904Y-54127857D01*
X172114285Y-54032619D01*
X172066666Y-53985000D01*
X171971428Y-53937380D01*
X171780952Y-53937380D01*
X171685714Y-53985000D01*
X171638095Y-54032619D01*
X171590476Y-54127857D01*
X171590476Y-54365952D01*
X171638095Y-54461190D01*
X171685714Y-54508809D01*
X171780952Y-54556428D01*
X171971428Y-54556428D01*
X172066666Y-54508809D01*
X172114285Y-54461190D01*
X172161904Y-54365952D01*
X173304761Y-53889761D02*
X172447619Y-55175476D01*
X173971428Y-54413571D02*
X174114285Y-54461190D01*
X174161904Y-54508809D01*
X174209523Y-54604047D01*
X174209523Y-54746904D01*
X174161904Y-54842142D01*
X174114285Y-54889761D01*
X174019047Y-54937380D01*
X173638095Y-54937380D01*
X173638095Y-53937380D01*
X173971428Y-53937380D01*
X174066666Y-53985000D01*
X174114285Y-54032619D01*
X174161904Y-54127857D01*
X174161904Y-54223095D01*
X174114285Y-54318333D01*
X174066666Y-54365952D01*
X173971428Y-54413571D01*
X173638095Y-54413571D01*
X172602380Y-44937380D02*
X172269047Y-44461190D01*
X172030952Y-44937380D02*
X172030952Y-43937380D01*
X172411904Y-43937380D01*
X172507142Y-43985000D01*
X172554761Y-44032619D01*
X172602380Y-44127857D01*
X172602380Y-44270714D01*
X172554761Y-44365952D01*
X172507142Y-44413571D01*
X172411904Y-44461190D01*
X172030952Y-44461190D01*
X172983333Y-44889761D02*
X173126190Y-44937380D01*
X173364285Y-44937380D01*
X173459523Y-44889761D01*
X173507142Y-44842142D01*
X173554761Y-44746904D01*
X173554761Y-44651666D01*
X173507142Y-44556428D01*
X173459523Y-44508809D01*
X173364285Y-44461190D01*
X173173809Y-44413571D01*
X173078571Y-44365952D01*
X173030952Y-44318333D01*
X172983333Y-44223095D01*
X172983333Y-44127857D01*
X173030952Y-44032619D01*
X173078571Y-43985000D01*
X173173809Y-43937380D01*
X173411904Y-43937380D01*
X173554761Y-43985000D01*
X173840476Y-43937380D02*
X174411904Y-43937380D01*
X174126190Y-44937380D02*
X174126190Y-43937380D01*
D13*
%TO.C,R2*%
X168225000Y-53683214D02*
X168125000Y-53540357D01*
X168053571Y-53683214D02*
X168053571Y-53383214D01*
X168167857Y-53383214D01*
X168196428Y-53397500D01*
X168210714Y-53411785D01*
X168225000Y-53440357D01*
X168225000Y-53483214D01*
X168210714Y-53511785D01*
X168196428Y-53526071D01*
X168167857Y-53540357D01*
X168053571Y-53540357D01*
X168339285Y-53411785D02*
X168353571Y-53397500D01*
X168382142Y-53383214D01*
X168453571Y-53383214D01*
X168482142Y-53397500D01*
X168496428Y-53411785D01*
X168510714Y-53440357D01*
X168510714Y-53468928D01*
X168496428Y-53511785D01*
X168325000Y-53683214D01*
X168510714Y-53683214D01*
D11*
X170854761Y-53792380D02*
X170283333Y-53792380D01*
X170569047Y-53792380D02*
X170569047Y-52792380D01*
X170473809Y-52935238D01*
X170378571Y-53030476D01*
X170283333Y-53078095D01*
X171473809Y-52792380D02*
X171569047Y-52792380D01*
X171664285Y-52840000D01*
X171711904Y-52887619D01*
X171759523Y-52982857D01*
X171807142Y-53173333D01*
X171807142Y-53411428D01*
X171759523Y-53601904D01*
X171711904Y-53697142D01*
X171664285Y-53744761D01*
X171569047Y-53792380D01*
X171473809Y-53792380D01*
X171378571Y-53744761D01*
X171330952Y-53697142D01*
X171283333Y-53601904D01*
X171235714Y-53411428D01*
X171235714Y-53173333D01*
X171283333Y-52982857D01*
X171330952Y-52887619D01*
X171378571Y-52840000D01*
X171473809Y-52792380D01*
X172235714Y-53792380D02*
X172235714Y-52792380D01*
X172330952Y-53411428D02*
X172616666Y-53792380D01*
X172616666Y-53125714D02*
X172235714Y-53506666D01*
D13*
%TO.C,R3*%
X162700000Y-46585714D02*
X162600000Y-46442857D01*
X162528571Y-46585714D02*
X162528571Y-46285714D01*
X162642857Y-46285714D01*
X162671428Y-46300000D01*
X162685714Y-46314285D01*
X162700000Y-46342857D01*
X162700000Y-46385714D01*
X162685714Y-46414285D01*
X162671428Y-46428571D01*
X162642857Y-46442857D01*
X162528571Y-46442857D01*
X162800000Y-46285714D02*
X162985714Y-46285714D01*
X162885714Y-46400000D01*
X162928571Y-46400000D01*
X162957142Y-46414285D01*
X162971428Y-46428571D01*
X162985714Y-46457142D01*
X162985714Y-46528571D01*
X162971428Y-46557142D01*
X162957142Y-46571428D01*
X162928571Y-46585714D01*
X162842857Y-46585714D01*
X162814285Y-46571428D01*
X162800000Y-46557142D01*
D11*
X161710761Y-45410380D02*
X161139333Y-45410380D01*
X161425047Y-45410380D02*
X161425047Y-44410380D01*
X161329809Y-44553238D01*
X161234571Y-44648476D01*
X161139333Y-44696095D01*
X162329809Y-44410380D02*
X162425047Y-44410380D01*
X162520285Y-44458000D01*
X162567904Y-44505619D01*
X162615523Y-44600857D01*
X162663142Y-44791333D01*
X162663142Y-45029428D01*
X162615523Y-45219904D01*
X162567904Y-45315142D01*
X162520285Y-45362761D01*
X162425047Y-45410380D01*
X162329809Y-45410380D01*
X162234571Y-45362761D01*
X162186952Y-45315142D01*
X162139333Y-45219904D01*
X162091714Y-45029428D01*
X162091714Y-44791333D01*
X162139333Y-44600857D01*
X162186952Y-44505619D01*
X162234571Y-44458000D01*
X162329809Y-44410380D01*
X163091714Y-45410380D02*
X163091714Y-44410380D01*
X163186952Y-45029428D02*
X163472666Y-45410380D01*
X163472666Y-44743714D02*
X163091714Y-45124666D01*
D13*
%TO.C,C6*%
X160160000Y-54177142D02*
X160145714Y-54191428D01*
X160102857Y-54205714D01*
X160074285Y-54205714D01*
X160031428Y-54191428D01*
X160002857Y-54162857D01*
X159988571Y-54134285D01*
X159974285Y-54077142D01*
X159974285Y-54034285D01*
X159988571Y-53977142D01*
X160002857Y-53948571D01*
X160031428Y-53920000D01*
X160074285Y-53905714D01*
X160102857Y-53905714D01*
X160145714Y-53920000D01*
X160160000Y-53934285D01*
X160417142Y-53905714D02*
X160360000Y-53905714D01*
X160331428Y-53920000D01*
X160317142Y-53934285D01*
X160288571Y-53977142D01*
X160274285Y-54034285D01*
X160274285Y-54148571D01*
X160288571Y-54177142D01*
X160302857Y-54191428D01*
X160331428Y-54205714D01*
X160388571Y-54205714D01*
X160417142Y-54191428D01*
X160431428Y-54177142D01*
X160445714Y-54148571D01*
X160445714Y-54077142D01*
X160431428Y-54048571D01*
X160417142Y-54034285D01*
X160388571Y-54020000D01*
X160331428Y-54020000D01*
X160302857Y-54034285D01*
X160288571Y-54048571D01*
X160274285Y-54077142D01*
D11*
X159678761Y-56078380D02*
X159107333Y-56078380D01*
X159393047Y-56078380D02*
X159393047Y-55078380D01*
X159297809Y-55221238D01*
X159202571Y-55316476D01*
X159107333Y-55364095D01*
X160535904Y-55411714D02*
X160535904Y-56078380D01*
X160107333Y-55411714D02*
X160107333Y-55935523D01*
X160154952Y-56030761D01*
X160250190Y-56078380D01*
X160393047Y-56078380D01*
X160488285Y-56030761D01*
X160535904Y-55983142D01*
X161345428Y-55554571D02*
X161012095Y-55554571D01*
X161012095Y-56078380D02*
X161012095Y-55078380D01*
X161488285Y-55078380D01*
D10*
%TO.C,111*%
X164253333Y-35384523D02*
X163527619Y-35384523D01*
X163890476Y-35384523D02*
X163890476Y-34114523D01*
X163769523Y-34295952D01*
X163648571Y-34416904D01*
X163527619Y-34477380D01*
X165462857Y-35384523D02*
X164737142Y-35384523D01*
X165100000Y-35384523D02*
X165100000Y-34114523D01*
X164979047Y-34295952D01*
X164858095Y-34416904D01*
X164737142Y-34477380D01*
X166672380Y-35384523D02*
X165946666Y-35384523D01*
X166309523Y-35384523D02*
X166309523Y-34114523D01*
X166188571Y-34295952D01*
X166067619Y-34416904D01*
X165946666Y-34477380D01*
D13*
%TO.C,C3*%
X157318163Y-35602389D02*
X157332449Y-35616674D01*
X157346735Y-35659531D01*
X157346735Y-35688103D01*
X157332449Y-35730960D01*
X157303878Y-35759531D01*
X157275306Y-35773817D01*
X157218163Y-35788103D01*
X157175306Y-35788103D01*
X157118163Y-35773817D01*
X157089592Y-35759531D01*
X157061021Y-35730960D01*
X157046735Y-35688103D01*
X157046735Y-35659531D01*
X157061021Y-35616674D01*
X157075306Y-35602389D01*
X157046735Y-35502389D02*
X157046735Y-35316674D01*
X157161021Y-35416674D01*
X157161021Y-35373817D01*
X157175306Y-35345246D01*
X157189592Y-35330960D01*
X157218163Y-35316674D01*
X157289592Y-35316674D01*
X157318163Y-35330960D01*
X157332449Y-35345246D01*
X157346735Y-35373817D01*
X157346735Y-35459531D01*
X157332449Y-35488103D01*
X157318163Y-35502389D01*
D11*
X155106857Y-33631142D02*
X155154476Y-33678761D01*
X155106857Y-33726380D01*
X155059238Y-33678761D01*
X155106857Y-33631142D01*
X155106857Y-33726380D01*
X156106857Y-33726380D02*
X155535428Y-33726380D01*
X155821142Y-33726380D02*
X155821142Y-32726380D01*
X155725904Y-32869238D01*
X155630666Y-32964476D01*
X155535428Y-33012095D01*
X156964000Y-33059714D02*
X156964000Y-33726380D01*
X156535428Y-33059714D02*
X156535428Y-33583523D01*
X156583047Y-33678761D01*
X156678285Y-33726380D01*
X156821142Y-33726380D01*
X156916380Y-33678761D01*
X156964000Y-33631142D01*
X157773523Y-33202571D02*
X157440190Y-33202571D01*
X157440190Y-33726380D02*
X157440190Y-32726380D01*
X157916380Y-32726380D01*
D13*
%TO.C,R4*%
X166785000Y-46585714D02*
X166685000Y-46442857D01*
X166613571Y-46585714D02*
X166613571Y-46285714D01*
X166727857Y-46285714D01*
X166756428Y-46300000D01*
X166770714Y-46314285D01*
X166785000Y-46342857D01*
X166785000Y-46385714D01*
X166770714Y-46414285D01*
X166756428Y-46428571D01*
X166727857Y-46442857D01*
X166613571Y-46442857D01*
X167042142Y-46385714D02*
X167042142Y-46585714D01*
X166970714Y-46271428D02*
X166899285Y-46485714D01*
X167085000Y-46485714D01*
D11*
X165012761Y-45410380D02*
X164441333Y-45410380D01*
X164727047Y-45410380D02*
X164727047Y-44410380D01*
X164631809Y-44553238D01*
X164536571Y-44648476D01*
X164441333Y-44696095D01*
X165631809Y-44410380D02*
X165727047Y-44410380D01*
X165822285Y-44458000D01*
X165869904Y-44505619D01*
X165917523Y-44600857D01*
X165965142Y-44791333D01*
X165965142Y-45029428D01*
X165917523Y-45219904D01*
X165869904Y-45315142D01*
X165822285Y-45362761D01*
X165727047Y-45410380D01*
X165631809Y-45410380D01*
X165536571Y-45362761D01*
X165488952Y-45315142D01*
X165441333Y-45219904D01*
X165393714Y-45029428D01*
X165393714Y-44791333D01*
X165441333Y-44600857D01*
X165488952Y-44505619D01*
X165536571Y-44458000D01*
X165631809Y-44410380D01*
X166393714Y-45410380D02*
X166393714Y-44410380D01*
X166488952Y-45029428D02*
X166774666Y-45410380D01*
X166774666Y-44743714D02*
X166393714Y-45124666D01*
D13*
%TO.C,C4*%
X163475000Y-51637142D02*
X163460714Y-51651428D01*
X163417857Y-51665714D01*
X163389285Y-51665714D01*
X163346428Y-51651428D01*
X163317857Y-51622857D01*
X163303571Y-51594285D01*
X163289285Y-51537142D01*
X163289285Y-51494285D01*
X163303571Y-51437142D01*
X163317857Y-51408571D01*
X163346428Y-51380000D01*
X163389285Y-51365714D01*
X163417857Y-51365714D01*
X163460714Y-51380000D01*
X163475000Y-51394285D01*
X163732142Y-51465714D02*
X163732142Y-51665714D01*
X163660714Y-51351428D02*
X163589285Y-51565714D01*
X163775000Y-51565714D01*
D11*
X162218857Y-53189142D02*
X162266476Y-53236761D01*
X162218857Y-53284380D01*
X162171238Y-53236761D01*
X162218857Y-53189142D01*
X162218857Y-53284380D01*
X163218857Y-53284380D02*
X162647428Y-53284380D01*
X162933142Y-53284380D02*
X162933142Y-52284380D01*
X162837904Y-52427238D01*
X162742666Y-52522476D01*
X162647428Y-52570095D01*
X164076000Y-52617714D02*
X164076000Y-53284380D01*
X163647428Y-52617714D02*
X163647428Y-53141523D01*
X163695047Y-53236761D01*
X163790285Y-53284380D01*
X163933142Y-53284380D01*
X164028380Y-53236761D01*
X164076000Y-53189142D01*
X164885523Y-52760571D02*
X164552190Y-52760571D01*
X164552190Y-53284380D02*
X164552190Y-52284380D01*
X165028380Y-52284380D01*
D13*
%TO.C,C7*%
X168225000Y-55352142D02*
X168210714Y-55366428D01*
X168167857Y-55380714D01*
X168139285Y-55380714D01*
X168096428Y-55366428D01*
X168067857Y-55337857D01*
X168053571Y-55309285D01*
X168039285Y-55252142D01*
X168039285Y-55209285D01*
X168053571Y-55152142D01*
X168067857Y-55123571D01*
X168096428Y-55095000D01*
X168139285Y-55080714D01*
X168167857Y-55080714D01*
X168210714Y-55095000D01*
X168225000Y-55109285D01*
X168325000Y-55080714D02*
X168525000Y-55080714D01*
X168396428Y-55380714D01*
D11*
X168568857Y-56999142D02*
X168616476Y-57046761D01*
X168568857Y-57094380D01*
X168521238Y-57046761D01*
X168568857Y-56999142D01*
X168568857Y-57094380D01*
X169568857Y-57094380D02*
X168997428Y-57094380D01*
X169283142Y-57094380D02*
X169283142Y-56094380D01*
X169187904Y-56237238D01*
X169092666Y-56332476D01*
X168997428Y-56380095D01*
X170426000Y-56427714D02*
X170426000Y-57094380D01*
X169997428Y-56427714D02*
X169997428Y-56951523D01*
X170045047Y-57046761D01*
X170140285Y-57094380D01*
X170283142Y-57094380D01*
X170378380Y-57046761D01*
X170426000Y-56999142D01*
X171235523Y-56570571D02*
X170902190Y-56570571D01*
X170902190Y-57094380D02*
X170902190Y-56094380D01*
X171378380Y-56094380D01*
D13*
%TO.C,C1*%
X156390653Y-38207142D02*
X156376367Y-38221428D01*
X156333510Y-38235714D01*
X156304938Y-38235714D01*
X156262081Y-38221428D01*
X156233510Y-38192857D01*
X156219224Y-38164285D01*
X156204938Y-38107142D01*
X156204938Y-38064285D01*
X156219224Y-38007142D01*
X156233510Y-37978571D01*
X156262081Y-37950000D01*
X156304938Y-37935714D01*
X156333510Y-37935714D01*
X156376367Y-37950000D01*
X156390653Y-37964285D01*
X156676367Y-38235714D02*
X156504938Y-38235714D01*
X156590653Y-38235714D02*
X156590653Y-37935714D01*
X156562081Y-37978571D01*
X156533510Y-38007142D01*
X156504938Y-38021428D01*
D11*
X154619224Y-40076380D02*
X154047795Y-40076380D01*
X154333510Y-40076380D02*
X154333510Y-39076380D01*
X154238272Y-39219238D01*
X154143033Y-39314476D01*
X154047795Y-39362095D01*
X155238272Y-39076380D02*
X155333510Y-39076380D01*
X155428748Y-39124000D01*
X155476367Y-39171619D01*
X155523986Y-39266857D01*
X155571605Y-39457333D01*
X155571605Y-39695428D01*
X155523986Y-39885904D01*
X155476367Y-39981142D01*
X155428748Y-40028761D01*
X155333510Y-40076380D01*
X155238272Y-40076380D01*
X155143033Y-40028761D01*
X155095414Y-39981142D01*
X155047795Y-39885904D01*
X155000176Y-39695428D01*
X155000176Y-39457333D01*
X155047795Y-39266857D01*
X155095414Y-39171619D01*
X155143033Y-39124000D01*
X155238272Y-39076380D01*
X156428748Y-39409714D02*
X156428748Y-40076380D01*
X156000176Y-39409714D02*
X156000176Y-39933523D01*
X156047795Y-40028761D01*
X156143033Y-40076380D01*
X156285891Y-40076380D01*
X156381129Y-40028761D01*
X156428748Y-39981142D01*
X157238272Y-39552571D02*
X156904938Y-39552571D01*
X156904938Y-40076380D02*
X156904938Y-39076380D01*
X157381129Y-39076380D01*
D14*
%TO.C,SW2*%
X170250325Y-62368333D02*
X170297944Y-62225476D01*
X170297944Y-61987380D01*
X170250325Y-61892142D01*
X170202706Y-61844523D01*
X170107468Y-61796904D01*
X170012230Y-61796904D01*
X169916992Y-61844523D01*
X169869373Y-61892142D01*
X169821754Y-61987380D01*
X169774135Y-62177857D01*
X169726516Y-62273095D01*
X169678897Y-62320714D01*
X169583659Y-62368333D01*
X169488421Y-62368333D01*
X169393183Y-62320714D01*
X169345564Y-62273095D01*
X169297944Y-62177857D01*
X169297944Y-61939761D01*
X169345564Y-61796904D01*
X169297944Y-61463571D02*
X170297944Y-61225476D01*
X169583659Y-61035000D01*
X170297944Y-60844523D01*
X169297944Y-60606428D01*
X169393183Y-60273095D02*
X169345564Y-60225476D01*
X169297944Y-60130238D01*
X169297944Y-59892142D01*
X169345564Y-59796904D01*
X169393183Y-59749285D01*
X169488421Y-59701666D01*
X169583659Y-59701666D01*
X169726516Y-59749285D01*
X170297944Y-60320714D01*
X170297944Y-59701666D01*
D13*
%TO.C,C2*%
X155631322Y-35610000D02*
X155645608Y-35624285D01*
X155659894Y-35667142D01*
X155659894Y-35695714D01*
X155645608Y-35738571D01*
X155617037Y-35767142D01*
X155588465Y-35781428D01*
X155531322Y-35795714D01*
X155488465Y-35795714D01*
X155431322Y-35781428D01*
X155402751Y-35767142D01*
X155374180Y-35738571D01*
X155359894Y-35695714D01*
X155359894Y-35667142D01*
X155374180Y-35624285D01*
X155388465Y-35610000D01*
X155388465Y-35495714D02*
X155374180Y-35481428D01*
X155359894Y-35452857D01*
X155359894Y-35381428D01*
X155374180Y-35352857D01*
X155388465Y-35338571D01*
X155417037Y-35324285D01*
X155445608Y-35324285D01*
X155488465Y-35338571D01*
X155659894Y-35510000D01*
X155659894Y-35324285D01*
D11*
X154376380Y-35901238D02*
X154376380Y-36472666D01*
X154376380Y-36186952D02*
X153376380Y-36186952D01*
X153519238Y-36282190D01*
X153614476Y-36377428D01*
X153662095Y-36472666D01*
X153709714Y-35044095D02*
X154376380Y-35044095D01*
X153709714Y-35472666D02*
X154233523Y-35472666D01*
X154328761Y-35425047D01*
X154376380Y-35329809D01*
X154376380Y-35186952D01*
X154328761Y-35091714D01*
X154281142Y-35044095D01*
X153852571Y-34234571D02*
X153852571Y-34567904D01*
X154376380Y-34567904D02*
X153376380Y-34567904D01*
X153376380Y-34091714D01*
D10*
%TO.C,U4*%
X174292380Y-41849523D02*
X174292380Y-42877619D01*
X174352857Y-42998571D01*
X174413333Y-43059047D01*
X174534285Y-43119523D01*
X174776190Y-43119523D01*
X174897142Y-43059047D01*
X174957619Y-42998571D01*
X175018095Y-42877619D01*
X175018095Y-41849523D01*
X176167142Y-42272857D02*
X176167142Y-43119523D01*
X175864761Y-41789047D02*
X175562380Y-42696190D01*
X176348571Y-42696190D01*
D11*
X168735523Y-46950380D02*
X169354571Y-46950380D01*
X169021238Y-47331333D01*
X169164095Y-47331333D01*
X169259333Y-47378952D01*
X169306952Y-47426571D01*
X169354571Y-47521809D01*
X169354571Y-47759904D01*
X169306952Y-47855142D01*
X169259333Y-47902761D01*
X169164095Y-47950380D01*
X168878380Y-47950380D01*
X168783142Y-47902761D01*
X168735523Y-47855142D01*
X169687904Y-47283714D02*
X169926000Y-47950380D01*
X170164095Y-47283714D01*
X170449809Y-46950380D02*
X171068857Y-46950380D01*
X170735523Y-47331333D01*
X170878380Y-47331333D01*
X170973619Y-47378952D01*
X171021238Y-47426571D01*
X171068857Y-47521809D01*
X171068857Y-47759904D01*
X171021238Y-47855142D01*
X170973619Y-47902761D01*
X170878380Y-47950380D01*
X170592666Y-47950380D01*
X170497428Y-47902761D01*
X170449809Y-47855142D01*
X162425238Y-46950380D02*
X162758571Y-47950380D01*
X163091904Y-46950380D01*
X163187142Y-48045619D02*
X163949047Y-48045619D01*
X164187142Y-47950380D02*
X164187142Y-47283714D01*
X164187142Y-46950380D02*
X164139523Y-46998000D01*
X164187142Y-47045619D01*
X164234761Y-46998000D01*
X164187142Y-46950380D01*
X164187142Y-47045619D01*
X164663333Y-47283714D02*
X164663333Y-47950380D01*
X164663333Y-47378952D02*
X164710952Y-47331333D01*
X164806190Y-47283714D01*
X164949047Y-47283714D01*
X165044285Y-47331333D01*
X165091904Y-47426571D01*
X165091904Y-47950380D01*
X166116095Y-46998000D02*
X166020857Y-46950380D01*
X165878000Y-46950380D01*
X165735142Y-46998000D01*
X165639904Y-47093238D01*
X165592285Y-47188476D01*
X165544666Y-47378952D01*
X165544666Y-47521809D01*
X165592285Y-47712285D01*
X165639904Y-47807523D01*
X165735142Y-47902761D01*
X165878000Y-47950380D01*
X165973238Y-47950380D01*
X166116095Y-47902761D01*
X166163714Y-47855142D01*
X166163714Y-47521809D01*
X165973238Y-47521809D01*
X166592285Y-47950380D02*
X166592285Y-46950380D01*
X167163714Y-47950380D01*
X167163714Y-46950380D01*
X167639904Y-47950380D02*
X167639904Y-46950380D01*
X167878000Y-46950380D01*
X168020857Y-46998000D01*
X168116095Y-47093238D01*
X168163714Y-47188476D01*
X168211333Y-47378952D01*
X168211333Y-47521809D01*
X168163714Y-47712285D01*
X168116095Y-47807523D01*
X168020857Y-47902761D01*
X167878000Y-47950380D01*
X167639904Y-47950380D01*
D14*
%TO.C,SW1*%
X160904761Y-62368333D02*
X160952380Y-62225476D01*
X160952380Y-61987380D01*
X160904761Y-61892142D01*
X160857142Y-61844523D01*
X160761904Y-61796904D01*
X160666666Y-61796904D01*
X160571428Y-61844523D01*
X160523809Y-61892142D01*
X160476190Y-61987380D01*
X160428571Y-62177857D01*
X160380952Y-62273095D01*
X160333333Y-62320714D01*
X160238095Y-62368333D01*
X160142857Y-62368333D01*
X160047619Y-62320714D01*
X160000000Y-62273095D01*
X159952380Y-62177857D01*
X159952380Y-61939761D01*
X160000000Y-61796904D01*
X159952380Y-61463571D02*
X160952380Y-61225476D01*
X160238095Y-61035000D01*
X160952380Y-60844523D01*
X159952380Y-60606428D01*
X160952380Y-59701666D02*
X160952380Y-60273095D01*
X160952380Y-59987380D02*
X159952380Y-59987380D01*
X160095238Y-60082619D01*
X160190476Y-60177857D01*
X160238095Y-60273095D01*
D13*
%TO.C,R1*%
X163475000Y-54205714D02*
X163375000Y-54062857D01*
X163303571Y-54205714D02*
X163303571Y-53905714D01*
X163417857Y-53905714D01*
X163446428Y-53920000D01*
X163460714Y-53934285D01*
X163475000Y-53962857D01*
X163475000Y-54005714D01*
X163460714Y-54034285D01*
X163446428Y-54048571D01*
X163417857Y-54062857D01*
X163303571Y-54062857D01*
X163760714Y-54205714D02*
X163589285Y-54205714D01*
X163675000Y-54205714D02*
X163675000Y-53905714D01*
X163646428Y-53948571D01*
X163617857Y-53977142D01*
X163589285Y-53991428D01*
D11*
X162929761Y-56078380D02*
X162358333Y-56078380D01*
X162644047Y-56078380D02*
X162644047Y-55078380D01*
X162548809Y-55221238D01*
X162453571Y-55316476D01*
X162358333Y-55364095D01*
X163548809Y-55078380D02*
X163644047Y-55078380D01*
X163739285Y-55126000D01*
X163786904Y-55173619D01*
X163834523Y-55268857D01*
X163882142Y-55459333D01*
X163882142Y-55697428D01*
X163834523Y-55887904D01*
X163786904Y-55983142D01*
X163739285Y-56030761D01*
X163644047Y-56078380D01*
X163548809Y-56078380D01*
X163453571Y-56030761D01*
X163405952Y-55983142D01*
X163358333Y-55887904D01*
X163310714Y-55697428D01*
X163310714Y-55459333D01*
X163358333Y-55268857D01*
X163405952Y-55173619D01*
X163453571Y-55126000D01*
X163548809Y-55078380D01*
X164310714Y-56078380D02*
X164310714Y-55078380D01*
X164405952Y-55697428D02*
X164691666Y-56078380D01*
X164691666Y-55411714D02*
X164310714Y-55792666D01*
D14*
%TO.C,D1*%
X160312380Y-49633095D02*
X159312380Y-49633095D01*
X159312380Y-49395000D01*
X159360000Y-49252142D01*
X159455238Y-49156904D01*
X159550476Y-49109285D01*
X159740952Y-49061666D01*
X159883809Y-49061666D01*
X160074285Y-49109285D01*
X160169523Y-49156904D01*
X160264761Y-49252142D01*
X160312380Y-49395000D01*
X160312380Y-49633095D01*
X160312380Y-48109285D02*
X160312380Y-48680714D01*
X160312380Y-48395000D02*
X159312380Y-48395000D01*
X159455238Y-48490238D01*
X159550476Y-48585476D01*
X159598095Y-48680714D01*
D13*
%TO.C,C5*%
X168555000Y-51637142D02*
X168540714Y-51651428D01*
X168497857Y-51665714D01*
X168469285Y-51665714D01*
X168426428Y-51651428D01*
X168397857Y-51622857D01*
X168383571Y-51594285D01*
X168369285Y-51537142D01*
X168369285Y-51494285D01*
X168383571Y-51437142D01*
X168397857Y-51408571D01*
X168426428Y-51380000D01*
X168469285Y-51365714D01*
X168497857Y-51365714D01*
X168540714Y-51380000D01*
X168555000Y-51394285D01*
X168826428Y-51365714D02*
X168683571Y-51365714D01*
X168669285Y-51508571D01*
X168683571Y-51494285D01*
X168712142Y-51480000D01*
X168783571Y-51480000D01*
X168812142Y-51494285D01*
X168826428Y-51508571D01*
X168840714Y-51537142D01*
X168840714Y-51608571D01*
X168826428Y-51637142D01*
X168812142Y-51651428D01*
X168783571Y-51665714D01*
X168712142Y-51665714D01*
X168683571Y-51651428D01*
X168669285Y-51637142D01*
D11*
X166727142Y-53173142D02*
X166774761Y-53125523D01*
X166822380Y-53173142D01*
X166774761Y-53220761D01*
X166727142Y-53173142D01*
X166822380Y-53173142D01*
X166822380Y-52173142D02*
X166822380Y-52744571D01*
X166822380Y-52458857D02*
X165822380Y-52458857D01*
X165965238Y-52554095D01*
X166060476Y-52649333D01*
X166108095Y-52744571D01*
X166155714Y-51316000D02*
X166822380Y-51316000D01*
X166155714Y-51744571D02*
X166679523Y-51744571D01*
X166774761Y-51696952D01*
X166822380Y-51601714D01*
X166822380Y-51458857D01*
X166774761Y-51363619D01*
X166727142Y-51316000D01*
X166298571Y-50506476D02*
X166298571Y-50839809D01*
X166822380Y-50839809D02*
X165822380Y-50839809D01*
X165822380Y-50363619D01*
D15*
%TO.C,R2*%
X168037742Y-54070000D02*
X168512258Y-54070000D01*
X168037742Y-53025000D02*
X168512258Y-53025000D01*
%TO.C,R3*%
X162512742Y-45927500D02*
X162987258Y-45927500D01*
X162512742Y-46972500D02*
X162987258Y-46972500D01*
%TO.C,C6*%
X160350580Y-53560000D02*
X160069420Y-53560000D01*
X160350580Y-54580000D02*
X160069420Y-54580000D01*
D16*
%TO.C,111*%
X160350000Y-34560000D02*
X160350000Y-34560000D01*
D11*
X158500000Y-27260000D02*
X171700000Y-27260000D01*
X158500000Y-32660000D02*
X158500000Y-27260000D01*
D16*
X160250000Y-34560000D02*
X160250000Y-34560000D01*
D11*
X171700000Y-27260000D02*
X171700000Y-32660000D01*
D16*
X160350000Y-34560000D02*
G75*
G03*
X160250000Y-34560000I-50000J0D01*
G01*
X160250000Y-34560000D02*
G75*
G03*
X160350000Y-34560000I50000J0D01*
G01*
D15*
%TO.C,C3*%
X157747444Y-35692969D02*
X157747444Y-35411809D01*
X156727444Y-35692969D02*
X156727444Y-35411809D01*
%TO.C,R4*%
X166597742Y-46972500D02*
X167072258Y-46972500D01*
X166597742Y-45927500D02*
X167072258Y-45927500D01*
%TO.C,C4*%
X163384420Y-52040000D02*
X163665580Y-52040000D01*
X163384420Y-51020000D02*
X163665580Y-51020000D01*
%TO.C,C7*%
X168134420Y-54735000D02*
X168415580Y-54735000D01*
X168134420Y-55755000D02*
X168415580Y-55755000D01*
%TO.C,C1*%
X156300073Y-37590000D02*
X156581233Y-37590000D01*
X156300073Y-38610000D02*
X156581233Y-38610000D01*
%TO.C,SW2*%
X170595564Y-57535000D02*
X169095564Y-57535000D01*
X166595564Y-58785000D02*
X166595564Y-63285000D01*
X173095564Y-63285000D02*
X173095564Y-58785000D01*
X169095564Y-64535000D02*
X170595564Y-64535000D01*
%TO.C,C2*%
X156007444Y-35700580D02*
X156007444Y-35419420D01*
X154987444Y-35700580D02*
X154987444Y-35419420D01*
%TO.C,SW1*%
X163750000Y-63285000D02*
X163750000Y-58785000D01*
X161250000Y-57535000D02*
X159750000Y-57535000D01*
X159750000Y-64535000D02*
X161250000Y-64535000D01*
X157250000Y-58785000D02*
X157250000Y-63285000D01*
%TO.C,R1*%
X163762258Y-53547500D02*
X163287742Y-53547500D01*
X163762258Y-54592500D02*
X163287742Y-54592500D01*
%TO.C,D1*%
X162025000Y-50555000D02*
X162025000Y-48095000D01*
X160555000Y-50555000D02*
X162025000Y-50555000D01*
X160555000Y-48095000D02*
X160555000Y-50555000D01*
%TO.C,C5*%
X168464420Y-52040000D02*
X168745580Y-52040000D01*
X168464420Y-51020000D02*
X168745580Y-51020000D01*
%TD*%
M02*
