%TF.GenerationSoftware,KiCad,Pcbnew,6.0.11+dfsg-1*%
%TF.CreationDate,2025-04-04T17:36:26-04:00*%
%TF.ProjectId,quad_direct,71756164-5f64-4697-9265-63742e6b6963,rev?*%
%TF.SameCoordinates,Original*%
%TF.FileFunction,Copper,L2,Bot*%
%TF.FilePolarity,Positive*%
%FSLAX46Y46*%
G04 Gerber Fmt 4.6, Leading zero omitted, Abs format (unit mm)*
G04 Created by KiCad (PCBNEW 6.0.11+dfsg-1) date 2025-04-04 17:36:26*
%MOMM*%
%LPD*%
G01*
G04 APERTURE LIST*
%TA.AperFunction,ComponentPad*%
%ADD10R,1.493000X1.493000*%
%TD*%
%TA.AperFunction,ComponentPad*%
%ADD11C,1.493000*%
%TD*%
%TA.AperFunction,ComponentPad*%
%ADD12C,1.524000*%
%TD*%
%TA.AperFunction,ComponentPad*%
%ADD13C,2.000000*%
%TD*%
%TA.AperFunction,ViaPad*%
%ADD14C,0.800000*%
%TD*%
%TA.AperFunction,Conductor*%
%ADD15C,0.250000*%
%TD*%
G04 APERTURE END LIST*
D10*
%TO.P,U2,1,io0*%
%TO.N,IO0*%
X154940000Y-44450000D03*
D11*
%TO.P,U2,2,io1*%
%TO.N,IO1*%
X154940000Y-47050000D03*
%TO.P,U2,3,io2*%
%TO.N,IO2*%
X154940000Y-49650000D03*
%TO.P,U2,4,io3*%
%TO.N,IO3*%
X154940000Y-52070000D03*
%TO.P,U2,5,io4*%
%TO.N,IO4*%
X154940000Y-54610000D03*
D12*
%TO.P,U2,6,io5*%
%TO.N,IO5*%
X154940000Y-57150000D03*
%TO.P,U2,7,io6*%
%TO.N,IO6*%
X154940000Y-59690000D03*
%TO.P,U2,8,io7*%
%TO.N,IO7*%
X154940000Y-62230000D03*
%TO.P,U2,9,reset*%
%TO.N,RESET*%
X175260000Y-44450000D03*
%TO.P,U2,10,io19_d+*%
%TO.N,IO19_USB_D+*%
X175260000Y-46990000D03*
%TO.P,U2,11,io18_d-*%
%TO.N,IO18_USB_D-*%
X175260000Y-49530000D03*
D11*
%TO.P,U2,12,io10*%
%TO.N,IO10*%
X175260000Y-52070000D03*
%TO.P,U2,13,boot*%
%TO.N,IO9_BOOT*%
X175260000Y-54610000D03*
%TO.P,U2,14,io8*%
%TO.N,IO8*%
X175260000Y-57030000D03*
%TO.P,U2,15,gnd*%
%TO.N,GND*%
X175260000Y-59630000D03*
D10*
%TO.P,U2,16,+3V3*%
%TO.N,+3V3*%
X175260000Y-62230000D03*
%TD*%
%TO.P,U1,1*%
%TO.N,+5V*%
X175260000Y-39310000D03*
D11*
%TO.P,U1,2*%
%TO.N,GND*%
X175260000Y-36710000D03*
%TO.P,U1,3*%
%TO.N,UART_RX*%
X175260000Y-34110000D03*
%TO.P,U1,4*%
%TO.N,UART_TX*%
X175260000Y-31690000D03*
%TD*%
D13*
%TO.P,SW2,1,1*%
%TO.N,IO9_BOOT*%
X172095564Y-57785000D03*
X172095564Y-64285000D03*
%TO.P,SW2,2,2*%
%TO.N,GND*%
X167595564Y-57785000D03*
X167595564Y-64285000D03*
%TD*%
D10*
%TO.P,U4,1*%
%TO.N,+5V*%
X164040000Y-48990000D03*
D12*
%TO.P,U4,2*%
%TO.N,GND*%
X166580000Y-48990000D03*
%TO.P,U4,3*%
%TO.N,+3V3*%
X169120000Y-48990000D03*
%TD*%
D13*
%TO.P,SW1,1,1*%
%TO.N,RESET*%
X162750000Y-64285000D03*
X162750000Y-57785000D03*
%TO.P,SW1,2,2*%
%TO.N,GND*%
X158250000Y-64285000D03*
X158250000Y-57785000D03*
%TD*%
D14*
%TO.N,GND*%
X160528000Y-59436000D03*
X157226000Y-43180000D03*
%TO.N,RESET*%
X160274000Y-40640000D03*
X160782000Y-51562000D03*
%TO.N,+3V3*%
X160038269Y-36050949D03*
X167386000Y-44958000D03*
%TO.N,IO10*%
X168148000Y-47498000D03*
%TO.N,IO9_BOOT*%
X169164000Y-45720000D03*
X170688000Y-51816000D03*
%TO.N,IO10*%
X164592000Y-46374500D03*
X163576000Y-42418000D03*
%TO.N,GND*%
X172720000Y-33274000D03*
X164084000Y-37338000D03*
X166116000Y-37338000D03*
X171196000Y-45466000D03*
X170180000Y-59182000D03*
%TD*%
D15*
%TO.N,+5V*%
X164040000Y-48990000D02*
X167591000Y-52541000D01*
X167591000Y-52541000D02*
X170988305Y-52541000D01*
X170988305Y-52541000D02*
X172503000Y-51026305D01*
X172503000Y-51026305D02*
X172503000Y-42067000D01*
X172503000Y-42067000D02*
X175260000Y-39310000D01*
%TO.N,RESET*%
X160274000Y-51054000D02*
X160274000Y-40640000D01*
X160782000Y-51562000D02*
X160274000Y-51054000D01*
%TO.N,+3V3*%
X167386000Y-43398680D02*
X160038269Y-36050949D01*
X167386000Y-44958000D02*
X167386000Y-43398680D01*
%TO.N,IO10*%
X168148000Y-47498000D02*
X165715500Y-47498000D01*
X165715500Y-47498000D02*
X164592000Y-46374500D01*
%TO.N,IO9_BOOT*%
X170217000Y-51345000D02*
X170217000Y-46773000D01*
X170688000Y-51816000D02*
X170217000Y-51345000D01*
X170217000Y-46773000D02*
X169164000Y-45720000D01*
%TO.N,IO10*%
X164592000Y-46374500D02*
X163576000Y-45358500D01*
X163576000Y-45358500D02*
X163576000Y-42418000D01*
%TD*%
%TA.AperFunction,Conductor*%
%TO.N,GND*%
G36*
X174637176Y-32403907D02*
G01*
X174643149Y-32408608D01*
X174713231Y-32468253D01*
X174713236Y-32468256D01*
X174716919Y-32471391D01*
X174721141Y-32473751D01*
X174721146Y-32473754D01*
X174824825Y-32531697D01*
X174879035Y-32561994D01*
X174925782Y-32577183D01*
X175051057Y-32617888D01*
X175051060Y-32617889D01*
X175055662Y-32619384D01*
X175240072Y-32641373D01*
X175244894Y-32641002D01*
X175244897Y-32641002D01*
X175420412Y-32627497D01*
X175420417Y-32627496D01*
X175425240Y-32627125D01*
X175604115Y-32577183D01*
X175608433Y-32575002D01*
X175765562Y-32495630D01*
X175765564Y-32495629D01*
X175769883Y-32493447D01*
X175802130Y-32468253D01*
X175881828Y-32405987D01*
X175942778Y-32385000D01*
X177066000Y-32385000D01*
X177124191Y-32403907D01*
X177160155Y-32453407D01*
X177165000Y-32484000D01*
X177165000Y-66502500D01*
X177146093Y-66560691D01*
X177096593Y-66596655D01*
X177066000Y-66601500D01*
X153134000Y-66601500D01*
X153075809Y-66582593D01*
X153039845Y-66533093D01*
X153035000Y-66502500D01*
X153035000Y-65294890D01*
X157605150Y-65294890D01*
X157605157Y-65294935D01*
X157610680Y-65301151D01*
X157671179Y-65341575D01*
X157679133Y-65345893D01*
X157873412Y-65429362D01*
X157882024Y-65432160D01*
X158088272Y-65478829D01*
X158097232Y-65480009D01*
X158308544Y-65488311D01*
X158317556Y-65487839D01*
X158526848Y-65457494D01*
X158535630Y-65455385D01*
X158735878Y-65387410D01*
X158744136Y-65383733D01*
X158887750Y-65303305D01*
X158895952Y-65294432D01*
X158891050Y-65285261D01*
X158261086Y-64655296D01*
X158249203Y-64649242D01*
X158244172Y-64650038D01*
X157611204Y-65283007D01*
X157605150Y-65294890D01*
X153035000Y-65294890D01*
X153035000Y-64257981D01*
X157045569Y-64257981D01*
X157059399Y-64469000D01*
X157060812Y-64477921D01*
X157112866Y-64682882D01*
X157115886Y-64691410D01*
X157204417Y-64883449D01*
X157208935Y-64891274D01*
X157231182Y-64922754D01*
X157241867Y-64930733D01*
X157242618Y-64930743D01*
X157248747Y-64927042D01*
X157879704Y-64296086D01*
X157884946Y-64285797D01*
X158614242Y-64285797D01*
X158615038Y-64290828D01*
X159249557Y-64925346D01*
X159260319Y-64930829D01*
X159267819Y-64923619D01*
X159348733Y-64779136D01*
X159352410Y-64770878D01*
X159420385Y-64570630D01*
X159422494Y-64561848D01*
X159453072Y-64350949D01*
X159453565Y-64345161D01*
X159455065Y-64287913D01*
X159454875Y-64282101D01*
X159452241Y-64253440D01*
X161544770Y-64253440D01*
X161559200Y-64473604D01*
X161560316Y-64477997D01*
X161560316Y-64477999D01*
X161583842Y-64570630D01*
X161613511Y-64687452D01*
X161705883Y-64887821D01*
X161833222Y-65068002D01*
X161991264Y-65221961D01*
X162174717Y-65344540D01*
X162377436Y-65431635D01*
X162455165Y-65449223D01*
X162588206Y-65479328D01*
X162588211Y-65479329D01*
X162592632Y-65480329D01*
X162702865Y-65484660D01*
X162808565Y-65488813D01*
X162808566Y-65488813D01*
X162813098Y-65488991D01*
X163031452Y-65457331D01*
X163035751Y-65455872D01*
X163035754Y-65455871D01*
X163236078Y-65387870D01*
X163240379Y-65386410D01*
X163245160Y-65383733D01*
X163403800Y-65294890D01*
X166950714Y-65294890D01*
X166950721Y-65294935D01*
X166956244Y-65301151D01*
X167016743Y-65341575D01*
X167024697Y-65345893D01*
X167218976Y-65429362D01*
X167227588Y-65432160D01*
X167433836Y-65478829D01*
X167442796Y-65480009D01*
X167654108Y-65488311D01*
X167663120Y-65487839D01*
X167872412Y-65457494D01*
X167881194Y-65455385D01*
X168081442Y-65387410D01*
X168089700Y-65383733D01*
X168233314Y-65303305D01*
X168241516Y-65294432D01*
X168236614Y-65285261D01*
X167606650Y-64655296D01*
X167594767Y-64649242D01*
X167589736Y-64650038D01*
X166956768Y-65283007D01*
X166950714Y-65294890D01*
X163403800Y-65294890D01*
X163432884Y-65278602D01*
X163602518Y-65137518D01*
X163743602Y-64967884D01*
X163851410Y-64775379D01*
X163882749Y-64683058D01*
X163920871Y-64570754D01*
X163920872Y-64570751D01*
X163922331Y-64566452D01*
X163935156Y-64477999D01*
X163953571Y-64350997D01*
X163953571Y-64350991D01*
X163953991Y-64348098D01*
X163955491Y-64290828D01*
X163955567Y-64287914D01*
X163955567Y-64287909D01*
X163955643Y-64285000D01*
X163955108Y-64279172D01*
X163953161Y-64257981D01*
X166391133Y-64257981D01*
X166404963Y-64469000D01*
X166406376Y-64477921D01*
X166458430Y-64682882D01*
X166461450Y-64691410D01*
X166549981Y-64883449D01*
X166554499Y-64891274D01*
X166576746Y-64922754D01*
X166587431Y-64930733D01*
X166588182Y-64930743D01*
X166594311Y-64927042D01*
X167225268Y-64296086D01*
X167230510Y-64285797D01*
X167959806Y-64285797D01*
X167960602Y-64290828D01*
X168595121Y-64925346D01*
X168605883Y-64930829D01*
X168613383Y-64923619D01*
X168694297Y-64779136D01*
X168697974Y-64770878D01*
X168765949Y-64570630D01*
X168768058Y-64561848D01*
X168798636Y-64350949D01*
X168799129Y-64345161D01*
X168800629Y-64287913D01*
X168800439Y-64282101D01*
X168797805Y-64253440D01*
X170890334Y-64253440D01*
X170904764Y-64473604D01*
X170905880Y-64477997D01*
X170905880Y-64477999D01*
X170929406Y-64570630D01*
X170959075Y-64687452D01*
X171051447Y-64887821D01*
X171178786Y-65068002D01*
X171336828Y-65221961D01*
X171520281Y-65344540D01*
X171723000Y-65431635D01*
X171800729Y-65449223D01*
X171933770Y-65479328D01*
X171933775Y-65479329D01*
X171938196Y-65480329D01*
X172048429Y-65484660D01*
X172154129Y-65488813D01*
X172154130Y-65488813D01*
X172158662Y-65488991D01*
X172377016Y-65457331D01*
X172381315Y-65455872D01*
X172381318Y-65455871D01*
X172581642Y-65387870D01*
X172585943Y-65386410D01*
X172590724Y-65383733D01*
X172749364Y-65294890D01*
X172778448Y-65278602D01*
X172948082Y-65137518D01*
X173089166Y-64967884D01*
X173196974Y-64775379D01*
X173228313Y-64683058D01*
X173266435Y-64570754D01*
X173266436Y-64570751D01*
X173267895Y-64566452D01*
X173280720Y-64477999D01*
X173299135Y-64350997D01*
X173299135Y-64350991D01*
X173299555Y-64348098D01*
X173301055Y-64290828D01*
X173301131Y-64287914D01*
X173301131Y-64287909D01*
X173301207Y-64285000D01*
X173300672Y-64279172D01*
X173290539Y-64168899D01*
X173281018Y-64065289D01*
X173221129Y-63852936D01*
X173219121Y-63848864D01*
X173219119Y-63848859D01*
X173125552Y-63659125D01*
X173123544Y-63655053D01*
X172991531Y-63478267D01*
X172829513Y-63328499D01*
X172642914Y-63210764D01*
X172437985Y-63129006D01*
X172221588Y-63085962D01*
X172112911Y-63084539D01*
X172005510Y-63083133D01*
X172005505Y-63083133D01*
X172000970Y-63083074D01*
X171996497Y-63083843D01*
X171996492Y-63083843D01*
X171787999Y-63119668D01*
X171787993Y-63119670D01*
X171783521Y-63120438D01*
X171680021Y-63158621D01*
X171580784Y-63195231D01*
X171580781Y-63195232D01*
X171576521Y-63196804D01*
X171572618Y-63199126D01*
X171572616Y-63199127D01*
X171507654Y-63237776D01*
X171386905Y-63309614D01*
X171383490Y-63312609D01*
X171383487Y-63312611D01*
X171275600Y-63407225D01*
X171221021Y-63455090D01*
X171084427Y-63628360D01*
X170981695Y-63823620D01*
X170916267Y-64034333D01*
X170915733Y-64038843D01*
X170915733Y-64038844D01*
X170913109Y-64061012D01*
X170890334Y-64253440D01*
X168797805Y-64253440D01*
X168780940Y-64069898D01*
X168779293Y-64061012D01*
X168721892Y-63857486D01*
X168718651Y-63849042D01*
X168625124Y-63659388D01*
X168620399Y-63651678D01*
X168615972Y-63645749D01*
X168605080Y-63638051D01*
X168603630Y-63638070D01*
X168598539Y-63641236D01*
X167965860Y-64273914D01*
X167959806Y-64285797D01*
X167230510Y-64285797D01*
X167231322Y-64284203D01*
X167230526Y-64279172D01*
X166594258Y-63642905D01*
X166583901Y-63637628D01*
X166576026Y-63645401D01*
X166484269Y-63819802D01*
X166480815Y-63828142D01*
X166418105Y-64030098D01*
X166416224Y-64038948D01*
X166391369Y-64248948D01*
X166391133Y-64257981D01*
X163953161Y-64257981D01*
X163944975Y-64168899D01*
X163935454Y-64065289D01*
X163875565Y-63852936D01*
X163873557Y-63848864D01*
X163873555Y-63848859D01*
X163779988Y-63659125D01*
X163777980Y-63655053D01*
X163645967Y-63478267D01*
X163483949Y-63328499D01*
X163402138Y-63276880D01*
X166950474Y-63276880D01*
X166955169Y-63285395D01*
X167584478Y-63914704D01*
X167596361Y-63920758D01*
X167601392Y-63919962D01*
X168234274Y-63287079D01*
X168240152Y-63275542D01*
X168234058Y-63268862D01*
X168146528Y-63213635D01*
X168138470Y-63209530D01*
X167942055Y-63131168D01*
X167933397Y-63128603D01*
X167725990Y-63087347D01*
X167716997Y-63086402D01*
X167505549Y-63083633D01*
X167496534Y-63084343D01*
X167288120Y-63120155D01*
X167279396Y-63122493D01*
X167081000Y-63195684D01*
X167072832Y-63199580D01*
X166958733Y-63267463D01*
X166950474Y-63276880D01*
X163402138Y-63276880D01*
X163297350Y-63210764D01*
X163092421Y-63129006D01*
X162876024Y-63085962D01*
X162767347Y-63084539D01*
X162659946Y-63083133D01*
X162659941Y-63083133D01*
X162655406Y-63083074D01*
X162650933Y-63083843D01*
X162650928Y-63083843D01*
X162442435Y-63119668D01*
X162442429Y-63119670D01*
X162437957Y-63120438D01*
X162334457Y-63158621D01*
X162235220Y-63195231D01*
X162235217Y-63195232D01*
X162230957Y-63196804D01*
X162227054Y-63199126D01*
X162227052Y-63199127D01*
X162162090Y-63237776D01*
X162041341Y-63309614D01*
X162037926Y-63312609D01*
X162037923Y-63312611D01*
X161930036Y-63407225D01*
X161875457Y-63455090D01*
X161738863Y-63628360D01*
X161636131Y-63823620D01*
X161570703Y-64034333D01*
X161570169Y-64038843D01*
X161570169Y-64038844D01*
X161567545Y-64061012D01*
X161544770Y-64253440D01*
X159452241Y-64253440D01*
X159435376Y-64069898D01*
X159433729Y-64061012D01*
X159376328Y-63857486D01*
X159373087Y-63849042D01*
X159279560Y-63659388D01*
X159274835Y-63651678D01*
X159270408Y-63645749D01*
X159259516Y-63638051D01*
X159258066Y-63638070D01*
X159252975Y-63641236D01*
X158620296Y-64273914D01*
X158614242Y-64285797D01*
X157884946Y-64285797D01*
X157885758Y-64284203D01*
X157884962Y-64279172D01*
X157248694Y-63642905D01*
X157238337Y-63637628D01*
X157230462Y-63645401D01*
X157138705Y-63819802D01*
X157135251Y-63828142D01*
X157072541Y-64030098D01*
X157070660Y-64038948D01*
X157045805Y-64248948D01*
X157045569Y-64257981D01*
X153035000Y-64257981D01*
X153035000Y-63276880D01*
X157604910Y-63276880D01*
X157609605Y-63285395D01*
X158238914Y-63914704D01*
X158250797Y-63920758D01*
X158255828Y-63919962D01*
X158888710Y-63287079D01*
X158894588Y-63275542D01*
X158888494Y-63268862D01*
X158800964Y-63213635D01*
X158792906Y-63209530D01*
X158596491Y-63131168D01*
X158587833Y-63128603D01*
X158380426Y-63087347D01*
X158371433Y-63086402D01*
X158159985Y-63083633D01*
X158150970Y-63084343D01*
X157942556Y-63120155D01*
X157933832Y-63122493D01*
X157735436Y-63195684D01*
X157727268Y-63199580D01*
X157613169Y-63267463D01*
X157604910Y-63276880D01*
X153035000Y-63276880D01*
X153035000Y-62216496D01*
X153972937Y-62216496D01*
X153988732Y-62404590D01*
X153990065Y-62409238D01*
X153990065Y-62409239D01*
X154000111Y-62444272D01*
X154040760Y-62586034D01*
X154042975Y-62590344D01*
X154124827Y-62749612D01*
X154124830Y-62749616D01*
X154127040Y-62753917D01*
X154244285Y-62901844D01*
X154247972Y-62904982D01*
X154247974Y-62904984D01*
X154384342Y-63021042D01*
X154384347Y-63021045D01*
X154388030Y-63024180D01*
X154392253Y-63026540D01*
X154392257Y-63026543D01*
X154493408Y-63083074D01*
X154552800Y-63116267D01*
X154590767Y-63128603D01*
X154727718Y-63173101D01*
X154727721Y-63173102D01*
X154732317Y-63174595D01*
X154737113Y-63175167D01*
X154737118Y-63175168D01*
X154826031Y-63185770D01*
X154919745Y-63196945D01*
X154924567Y-63196574D01*
X154924570Y-63196574D01*
X154986278Y-63191826D01*
X155107945Y-63182464D01*
X155289748Y-63131703D01*
X155458229Y-63046598D01*
X155522674Y-62996248D01*
X174313000Y-62996248D01*
X174324633Y-63054731D01*
X174368948Y-63121052D01*
X174435269Y-63165367D01*
X174444832Y-63167269D01*
X174444834Y-63167270D01*
X174467505Y-63171779D01*
X174493752Y-63177000D01*
X176026248Y-63177000D01*
X176052495Y-63171779D01*
X176075166Y-63167270D01*
X176075168Y-63167269D01*
X176084731Y-63165367D01*
X176151052Y-63121052D01*
X176195367Y-63054731D01*
X176207000Y-62996248D01*
X176207000Y-61463752D01*
X176200540Y-61431274D01*
X176197270Y-61414834D01*
X176197269Y-61414832D01*
X176195367Y-61405269D01*
X176151052Y-61338948D01*
X176084731Y-61294633D01*
X176075168Y-61292731D01*
X176075166Y-61292730D01*
X176052495Y-61288221D01*
X176026248Y-61283000D01*
X174493752Y-61283000D01*
X174467505Y-61288221D01*
X174444834Y-61292730D01*
X174444832Y-61292731D01*
X174435269Y-61294633D01*
X174368948Y-61338948D01*
X174324633Y-61405269D01*
X174322731Y-61414832D01*
X174322730Y-61414834D01*
X174319460Y-61431274D01*
X174313000Y-61463752D01*
X174313000Y-62996248D01*
X155522674Y-62996248D01*
X155606970Y-62930388D01*
X155610132Y-62926725D01*
X155610137Y-62926720D01*
X155727143Y-62791166D01*
X155730307Y-62787501D01*
X155749386Y-62753917D01*
X155821153Y-62627584D01*
X155821154Y-62627581D01*
X155823542Y-62623378D01*
X155837515Y-62581376D01*
X155881596Y-62448863D01*
X155881596Y-62448861D01*
X155883123Y-62444272D01*
X155906780Y-62257005D01*
X155907157Y-62230000D01*
X155888738Y-62042145D01*
X155834181Y-61861445D01*
X155745566Y-61694783D01*
X155626266Y-61548508D01*
X155611098Y-61535960D01*
X155484554Y-61431274D01*
X155484553Y-61431273D01*
X155480827Y-61428191D01*
X155314788Y-61338414D01*
X155134474Y-61282597D01*
X155122524Y-61281341D01*
X154951568Y-61263373D01*
X154951566Y-61263373D01*
X154946752Y-61262867D01*
X154891883Y-61267860D01*
X154763592Y-61279535D01*
X154763588Y-61279536D01*
X154758773Y-61279974D01*
X154690554Y-61300052D01*
X154582344Y-61331900D01*
X154582341Y-61331901D01*
X154577697Y-61333268D01*
X154551319Y-61347058D01*
X154414717Y-61418471D01*
X154414713Y-61418474D01*
X154410420Y-61420718D01*
X154406644Y-61423754D01*
X154406641Y-61423756D01*
X154267088Y-61535960D01*
X154263316Y-61538993D01*
X154260207Y-61542698D01*
X154260204Y-61542701D01*
X154145103Y-61679873D01*
X154141986Y-61683588D01*
X154051052Y-61848996D01*
X153993978Y-62028917D01*
X153972937Y-62216496D01*
X153035000Y-62216496D01*
X153035000Y-59676496D01*
X153972937Y-59676496D01*
X153988732Y-59864590D01*
X153990065Y-59869238D01*
X153990065Y-59869239D01*
X154031073Y-60012250D01*
X154040760Y-60046034D01*
X154042975Y-60050344D01*
X154124827Y-60209612D01*
X154124830Y-60209616D01*
X154127040Y-60213917D01*
X154244285Y-60361844D01*
X154247972Y-60364982D01*
X154247974Y-60364984D01*
X154384342Y-60481042D01*
X154384347Y-60481045D01*
X154388030Y-60484180D01*
X154392253Y-60486540D01*
X154392257Y-60486543D01*
X154448572Y-60518016D01*
X154552800Y-60576267D01*
X154593592Y-60589521D01*
X154727718Y-60633101D01*
X154727721Y-60633102D01*
X154732317Y-60634595D01*
X154737113Y-60635167D01*
X154737118Y-60635168D01*
X154826031Y-60645770D01*
X154919745Y-60656945D01*
X154924567Y-60656574D01*
X154924570Y-60656574D01*
X154986278Y-60651826D01*
X155107945Y-60642464D01*
X155289748Y-60591703D01*
X155458229Y-60506598D01*
X155525511Y-60454031D01*
X174800451Y-60454031D01*
X174807680Y-60461543D01*
X174875012Y-60499173D01*
X174883834Y-60503028D01*
X175051165Y-60557397D01*
X175060578Y-60559466D01*
X175235280Y-60580298D01*
X175244907Y-60580500D01*
X175420325Y-60567002D01*
X175429816Y-60565329D01*
X175599273Y-60518016D01*
X175608252Y-60514534D01*
X175711902Y-60462176D01*
X175719941Y-60454194D01*
X175714748Y-60443958D01*
X175271086Y-60000296D01*
X175259203Y-59994242D01*
X175254172Y-59995038D01*
X174805928Y-60443282D01*
X174800451Y-60454031D01*
X155525511Y-60454031D01*
X155606970Y-60390388D01*
X155610132Y-60386725D01*
X155610137Y-60386720D01*
X155727143Y-60251166D01*
X155730307Y-60247501D01*
X155749386Y-60213917D01*
X155821153Y-60087584D01*
X155821154Y-60087581D01*
X155823542Y-60083378D01*
X155837515Y-60041376D01*
X155881596Y-59908863D01*
X155881596Y-59908861D01*
X155883123Y-59904272D01*
X155906780Y-59717005D01*
X155907157Y-59690000D01*
X155900445Y-59621541D01*
X174309418Y-59621541D01*
X174324140Y-59796869D01*
X174325878Y-59806337D01*
X174374373Y-59975459D01*
X174377924Y-59984427D01*
X174427934Y-60081738D01*
X174436065Y-60089812D01*
X174446127Y-60084663D01*
X174889704Y-59641086D01*
X174894946Y-59630797D01*
X175624242Y-59630797D01*
X175625038Y-59635828D01*
X176073279Y-60084069D01*
X176084135Y-60089600D01*
X176091542Y-60082522D01*
X176126467Y-60021043D01*
X176130381Y-60012250D01*
X176185918Y-59845301D01*
X176188052Y-59835907D01*
X176210361Y-59659309D01*
X176210748Y-59653782D01*
X176211041Y-59632759D01*
X176210811Y-59627261D01*
X176193439Y-59450078D01*
X176191570Y-59440640D01*
X176140715Y-59272203D01*
X176137045Y-59263298D01*
X176091943Y-59178473D01*
X176083526Y-59170344D01*
X176073807Y-59175403D01*
X175630296Y-59618914D01*
X175624242Y-59630797D01*
X174894946Y-59630797D01*
X174895758Y-59629203D01*
X174894962Y-59624172D01*
X174446681Y-59175891D01*
X174436039Y-59170469D01*
X174428425Y-59177848D01*
X174388162Y-59251086D01*
X174384364Y-59259947D01*
X174331167Y-59427644D01*
X174329163Y-59437072D01*
X174309552Y-59611913D01*
X174309418Y-59621541D01*
X155900445Y-59621541D01*
X155888738Y-59502145D01*
X155834181Y-59321445D01*
X155745566Y-59154783D01*
X155626266Y-59008508D01*
X155601852Y-58988311D01*
X155484554Y-58891274D01*
X155484553Y-58891273D01*
X155480827Y-58888191D01*
X155314788Y-58798414D01*
X155303404Y-58794890D01*
X157605150Y-58794890D01*
X157605157Y-58794935D01*
X157610680Y-58801151D01*
X157671179Y-58841575D01*
X157679133Y-58845893D01*
X157873412Y-58929362D01*
X157882024Y-58932160D01*
X158088272Y-58978829D01*
X158097232Y-58980009D01*
X158308544Y-58988311D01*
X158317556Y-58987839D01*
X158526848Y-58957494D01*
X158535630Y-58955385D01*
X158735878Y-58887410D01*
X158744136Y-58883733D01*
X158887750Y-58803305D01*
X158895952Y-58794432D01*
X158891050Y-58785261D01*
X158261086Y-58155296D01*
X158249203Y-58149242D01*
X158244172Y-58150038D01*
X157611204Y-58783007D01*
X157605150Y-58794890D01*
X155303404Y-58794890D01*
X155134474Y-58742597D01*
X155122524Y-58741341D01*
X154951568Y-58723373D01*
X154951566Y-58723373D01*
X154946752Y-58722867D01*
X154891883Y-58727860D01*
X154763592Y-58739535D01*
X154763588Y-58739536D01*
X154758773Y-58739974D01*
X154718575Y-58751805D01*
X154582344Y-58791900D01*
X154582341Y-58791901D01*
X154577697Y-58793268D01*
X154552794Y-58806287D01*
X154414717Y-58878471D01*
X154414713Y-58878474D01*
X154410420Y-58880718D01*
X154406644Y-58883754D01*
X154406641Y-58883756D01*
X154276567Y-58988339D01*
X154263316Y-58998993D01*
X154260207Y-59002698D01*
X154260204Y-59002701D01*
X154145103Y-59139873D01*
X154141986Y-59143588D01*
X154139650Y-59147836D01*
X154139650Y-59147837D01*
X154124227Y-59175891D01*
X154051052Y-59308996D01*
X153993978Y-59488917D01*
X153972937Y-59676496D01*
X153035000Y-59676496D01*
X153035000Y-57136496D01*
X153972937Y-57136496D01*
X153979740Y-57217510D01*
X153988314Y-57319609D01*
X153988732Y-57324590D01*
X153990065Y-57329238D01*
X153990065Y-57329239D01*
X154016308Y-57420758D01*
X154040760Y-57506034D01*
X154042975Y-57510344D01*
X154124827Y-57669612D01*
X154124830Y-57669616D01*
X154127040Y-57673917D01*
X154244285Y-57821844D01*
X154247972Y-57824982D01*
X154247974Y-57824984D01*
X154384342Y-57941042D01*
X154384347Y-57941045D01*
X154388030Y-57944180D01*
X154392253Y-57946540D01*
X154392257Y-57946543D01*
X154515203Y-58015255D01*
X154552800Y-58036267D01*
X154593592Y-58049521D01*
X154727718Y-58093101D01*
X154727721Y-58093102D01*
X154732317Y-58094595D01*
X154737113Y-58095167D01*
X154737118Y-58095168D01*
X154826031Y-58105770D01*
X154919745Y-58116945D01*
X154924567Y-58116574D01*
X154924570Y-58116574D01*
X154986278Y-58111826D01*
X155107945Y-58102464D01*
X155289748Y-58051703D01*
X155458229Y-57966598D01*
X155606970Y-57850388D01*
X155610132Y-57846725D01*
X155610137Y-57846720D01*
X155686734Y-57757981D01*
X157045569Y-57757981D01*
X157059399Y-57969000D01*
X157060812Y-57977921D01*
X157112866Y-58182882D01*
X157115886Y-58191410D01*
X157204417Y-58383449D01*
X157208935Y-58391274D01*
X157231182Y-58422754D01*
X157241867Y-58430733D01*
X157242618Y-58430743D01*
X157248747Y-58427042D01*
X157879704Y-57796086D01*
X157884946Y-57785797D01*
X158614242Y-57785797D01*
X158615038Y-57790828D01*
X159249557Y-58425346D01*
X159260319Y-58430829D01*
X159267819Y-58423619D01*
X159348733Y-58279136D01*
X159352410Y-58270878D01*
X159420385Y-58070630D01*
X159422494Y-58061848D01*
X159453072Y-57850949D01*
X159453565Y-57845161D01*
X159455065Y-57787913D01*
X159454875Y-57782101D01*
X159452241Y-57753440D01*
X161544770Y-57753440D01*
X161549253Y-57821844D01*
X161558884Y-57968780D01*
X161559200Y-57973604D01*
X161560316Y-57977997D01*
X161560316Y-57977999D01*
X161592021Y-58102835D01*
X161613511Y-58187452D01*
X161705883Y-58387821D01*
X161833222Y-58568002D01*
X161991264Y-58721961D01*
X162174717Y-58844540D01*
X162377436Y-58931635D01*
X162455165Y-58949223D01*
X162588206Y-58979328D01*
X162588211Y-58979329D01*
X162592632Y-58980329D01*
X162702865Y-58984660D01*
X162808565Y-58988813D01*
X162808566Y-58988813D01*
X162813098Y-58988991D01*
X163031452Y-58957331D01*
X163035751Y-58955872D01*
X163035754Y-58955871D01*
X163236078Y-58887870D01*
X163240379Y-58886410D01*
X163245119Y-58883756D01*
X163403800Y-58794890D01*
X166950714Y-58794890D01*
X166950721Y-58794935D01*
X166956244Y-58801151D01*
X167016743Y-58841575D01*
X167024697Y-58845893D01*
X167218976Y-58929362D01*
X167227588Y-58932160D01*
X167433836Y-58978829D01*
X167442796Y-58980009D01*
X167654108Y-58988311D01*
X167663120Y-58987839D01*
X167872412Y-58957494D01*
X167881194Y-58955385D01*
X168081442Y-58887410D01*
X168089700Y-58883733D01*
X168233314Y-58803305D01*
X168241516Y-58794432D01*
X168236614Y-58785261D01*
X167606650Y-58155296D01*
X167594767Y-58149242D01*
X167589736Y-58150038D01*
X166956768Y-58783007D01*
X166950714Y-58794890D01*
X163403800Y-58794890D01*
X163432884Y-58778602D01*
X163602518Y-58637518D01*
X163743602Y-58467884D01*
X163851410Y-58275379D01*
X163882749Y-58183058D01*
X163920871Y-58070754D01*
X163920872Y-58070751D01*
X163922331Y-58066452D01*
X163935156Y-57977999D01*
X163953571Y-57850997D01*
X163953571Y-57850991D01*
X163953991Y-57848098D01*
X163954318Y-57835630D01*
X163955567Y-57787914D01*
X163955567Y-57787909D01*
X163955643Y-57785000D01*
X163955108Y-57779172D01*
X163953161Y-57757981D01*
X166391133Y-57757981D01*
X166404963Y-57969000D01*
X166406376Y-57977921D01*
X166458430Y-58182882D01*
X166461450Y-58191410D01*
X166549981Y-58383449D01*
X166554499Y-58391274D01*
X166576746Y-58422754D01*
X166587431Y-58430733D01*
X166588182Y-58430743D01*
X166594311Y-58427042D01*
X167225268Y-57796086D01*
X167230510Y-57785797D01*
X167959806Y-57785797D01*
X167960602Y-57790828D01*
X168595121Y-58425346D01*
X168605883Y-58430829D01*
X168613383Y-58423619D01*
X168694297Y-58279136D01*
X168697974Y-58270878D01*
X168765949Y-58070630D01*
X168768058Y-58061848D01*
X168798636Y-57850949D01*
X168799129Y-57845161D01*
X168800629Y-57787913D01*
X168800439Y-57782101D01*
X168797805Y-57753440D01*
X170890334Y-57753440D01*
X170894817Y-57821844D01*
X170904448Y-57968780D01*
X170904764Y-57973604D01*
X170905880Y-57977997D01*
X170905880Y-57977999D01*
X170937585Y-58102835D01*
X170959075Y-58187452D01*
X171051447Y-58387821D01*
X171178786Y-58568002D01*
X171336828Y-58721961D01*
X171520281Y-58844540D01*
X171723000Y-58931635D01*
X171800729Y-58949223D01*
X171933770Y-58979328D01*
X171933775Y-58979329D01*
X171938196Y-58980329D01*
X172048429Y-58984660D01*
X172154129Y-58988813D01*
X172154130Y-58988813D01*
X172158662Y-58988991D01*
X172377016Y-58957331D01*
X172381315Y-58955872D01*
X172381318Y-58955871D01*
X172581642Y-58887870D01*
X172585943Y-58886410D01*
X172590683Y-58883756D01*
X172729013Y-58806287D01*
X174800282Y-58806287D01*
X174805386Y-58816176D01*
X175248914Y-59259704D01*
X175260797Y-59265758D01*
X175265828Y-59264962D01*
X175714180Y-58816610D01*
X175719547Y-58806076D01*
X175712019Y-58798362D01*
X175632812Y-58755534D01*
X175623941Y-58751805D01*
X175455863Y-58699777D01*
X175446429Y-58697840D01*
X175271456Y-58679449D01*
X175261818Y-58679382D01*
X175086605Y-58695327D01*
X175077139Y-58697133D01*
X174908366Y-58746806D01*
X174899425Y-58750419D01*
X174808386Y-58798013D01*
X174800282Y-58806287D01*
X172729013Y-58806287D01*
X172749364Y-58794890D01*
X172778448Y-58778602D01*
X172948082Y-58637518D01*
X173089166Y-58467884D01*
X173196974Y-58275379D01*
X173228313Y-58183058D01*
X173266435Y-58070754D01*
X173266436Y-58070751D01*
X173267895Y-58066452D01*
X173280720Y-57977999D01*
X173299135Y-57850997D01*
X173299135Y-57850991D01*
X173299555Y-57848098D01*
X173299882Y-57835630D01*
X173301131Y-57787914D01*
X173301131Y-57787909D01*
X173301207Y-57785000D01*
X173300672Y-57779172D01*
X173281847Y-57574312D01*
X173281018Y-57565289D01*
X173224326Y-57364272D01*
X173222363Y-57357311D01*
X173222362Y-57357310D01*
X173221129Y-57352936D01*
X173219121Y-57348864D01*
X173219119Y-57348859D01*
X173135727Y-57179758D01*
X173123544Y-57155053D01*
X173020241Y-57016714D01*
X174308511Y-57016714D01*
X174308916Y-57021534D01*
X174321971Y-57177005D01*
X174324051Y-57201779D01*
X174325384Y-57206427D01*
X174325384Y-57206428D01*
X174370645Y-57364272D01*
X174375241Y-57380301D01*
X174460132Y-57545480D01*
X174575489Y-57691024D01*
X174579169Y-57694156D01*
X174579171Y-57694158D01*
X174654163Y-57757981D01*
X174716919Y-57811391D01*
X174721141Y-57813751D01*
X174721146Y-57813754D01*
X174786696Y-57850388D01*
X174879035Y-57901994D01*
X174925782Y-57917183D01*
X175051057Y-57957888D01*
X175051060Y-57957889D01*
X175055662Y-57959384D01*
X175240072Y-57981373D01*
X175244894Y-57981002D01*
X175244897Y-57981002D01*
X175420412Y-57967497D01*
X175420417Y-57967496D01*
X175425240Y-57967125D01*
X175604115Y-57917183D01*
X175608433Y-57915002D01*
X175765562Y-57835630D01*
X175765564Y-57835629D01*
X175769883Y-57833447D01*
X175780715Y-57824984D01*
X175912414Y-57722091D01*
X175912418Y-57722087D01*
X175916230Y-57719109D01*
X175923087Y-57711166D01*
X176034416Y-57582189D01*
X176034418Y-57582187D01*
X176037580Y-57578523D01*
X176129313Y-57417043D01*
X176187935Y-57240822D01*
X176211211Y-57056570D01*
X176211582Y-57030000D01*
X176210280Y-57016714D01*
X176193931Y-56849987D01*
X176193459Y-56845170D01*
X176139781Y-56667380D01*
X176052593Y-56503403D01*
X176043610Y-56492388D01*
X175938276Y-56363236D01*
X175938275Y-56363235D01*
X175935215Y-56359483D01*
X175815827Y-56260717D01*
X175795845Y-56244186D01*
X175795843Y-56244185D01*
X175792118Y-56241103D01*
X175628753Y-56152772D01*
X175451342Y-56097854D01*
X175446532Y-56097348D01*
X175446530Y-56097348D01*
X175271459Y-56078947D01*
X175271457Y-56078947D01*
X175266643Y-56078441D01*
X175205654Y-56083991D01*
X175086511Y-56094834D01*
X175086508Y-56094835D01*
X175081691Y-56095273D01*
X175077049Y-56096639D01*
X175077045Y-56096640D01*
X174908178Y-56146341D01*
X174908175Y-56146342D01*
X174903531Y-56147709D01*
X174889447Y-56155072D01*
X174743246Y-56231503D01*
X174743241Y-56231506D01*
X174738949Y-56233750D01*
X174735173Y-56236786D01*
X174735170Y-56236788D01*
X174605908Y-56340718D01*
X174594213Y-56350121D01*
X174591104Y-56353826D01*
X174591101Y-56353829D01*
X174491726Y-56472260D01*
X174474837Y-56492388D01*
X174472501Y-56496636D01*
X174472501Y-56496637D01*
X174399952Y-56628603D01*
X174385367Y-56655132D01*
X174383904Y-56659745D01*
X174383902Y-56659749D01*
X174349290Y-56768862D01*
X174329212Y-56832155D01*
X174328672Y-56836966D01*
X174328672Y-56836968D01*
X174314632Y-56962145D01*
X174308511Y-57016714D01*
X173020241Y-57016714D01*
X172991531Y-56978267D01*
X172959780Y-56948917D01*
X172832843Y-56831577D01*
X172832842Y-56831576D01*
X172829513Y-56828499D01*
X172762277Y-56786076D01*
X172646751Y-56713185D01*
X172642914Y-56710764D01*
X172437985Y-56629006D01*
X172221588Y-56585962D01*
X172112911Y-56584539D01*
X172005510Y-56583133D01*
X172005505Y-56583133D01*
X172000970Y-56583074D01*
X171996497Y-56583843D01*
X171996492Y-56583843D01*
X171787999Y-56619668D01*
X171787993Y-56619670D01*
X171783521Y-56620438D01*
X171700988Y-56650886D01*
X171580784Y-56695231D01*
X171580781Y-56695232D01*
X171576521Y-56696804D01*
X171572618Y-56699126D01*
X171572616Y-56699127D01*
X171507654Y-56737776D01*
X171386905Y-56809614D01*
X171383490Y-56812609D01*
X171383487Y-56812611D01*
X171346361Y-56845170D01*
X171221021Y-56955090D01*
X171084427Y-57128360D01*
X171082313Y-57132378D01*
X171027787Y-57236015D01*
X170981695Y-57323620D01*
X170916267Y-57534333D01*
X170915733Y-57538843D01*
X170915733Y-57538844D01*
X170895771Y-57707501D01*
X170890334Y-57753440D01*
X168797805Y-57753440D01*
X168780940Y-57569898D01*
X168779293Y-57561012D01*
X168721892Y-57357486D01*
X168718651Y-57349042D01*
X168625124Y-57159388D01*
X168620399Y-57151678D01*
X168615972Y-57145749D01*
X168605080Y-57138051D01*
X168603630Y-57138070D01*
X168598539Y-57141236D01*
X167965860Y-57773914D01*
X167959806Y-57785797D01*
X167230510Y-57785797D01*
X167231322Y-57784203D01*
X167230526Y-57779172D01*
X166594258Y-57142905D01*
X166583901Y-57137628D01*
X166576026Y-57145401D01*
X166484269Y-57319802D01*
X166480815Y-57328142D01*
X166418105Y-57530098D01*
X166416224Y-57538948D01*
X166391369Y-57748948D01*
X166391133Y-57757981D01*
X163953161Y-57757981D01*
X163936283Y-57574312D01*
X163935454Y-57565289D01*
X163878762Y-57364272D01*
X163876799Y-57357311D01*
X163876798Y-57357310D01*
X163875565Y-57352936D01*
X163873557Y-57348864D01*
X163873555Y-57348859D01*
X163790163Y-57179758D01*
X163777980Y-57155053D01*
X163645967Y-56978267D01*
X163614216Y-56948917D01*
X163487279Y-56831577D01*
X163487278Y-56831576D01*
X163483949Y-56828499D01*
X163416713Y-56786076D01*
X163402138Y-56776880D01*
X166950474Y-56776880D01*
X166955169Y-56785395D01*
X167584478Y-57414704D01*
X167596361Y-57420758D01*
X167601392Y-57419962D01*
X168234274Y-56787079D01*
X168240152Y-56775542D01*
X168234058Y-56768862D01*
X168146528Y-56713635D01*
X168138470Y-56709530D01*
X167942055Y-56631168D01*
X167933397Y-56628603D01*
X167725990Y-56587347D01*
X167716997Y-56586402D01*
X167505549Y-56583633D01*
X167496534Y-56584343D01*
X167288120Y-56620155D01*
X167279396Y-56622493D01*
X167081000Y-56695684D01*
X167072832Y-56699580D01*
X166958733Y-56767463D01*
X166950474Y-56776880D01*
X163402138Y-56776880D01*
X163301187Y-56713185D01*
X163297350Y-56710764D01*
X163092421Y-56629006D01*
X162876024Y-56585962D01*
X162767347Y-56584539D01*
X162659946Y-56583133D01*
X162659941Y-56583133D01*
X162655406Y-56583074D01*
X162650933Y-56583843D01*
X162650928Y-56583843D01*
X162442435Y-56619668D01*
X162442429Y-56619670D01*
X162437957Y-56620438D01*
X162355424Y-56650886D01*
X162235220Y-56695231D01*
X162235217Y-56695232D01*
X162230957Y-56696804D01*
X162227054Y-56699126D01*
X162227052Y-56699127D01*
X162162090Y-56737776D01*
X162041341Y-56809614D01*
X162037926Y-56812609D01*
X162037923Y-56812611D01*
X162000797Y-56845170D01*
X161875457Y-56955090D01*
X161738863Y-57128360D01*
X161736749Y-57132378D01*
X161682223Y-57236015D01*
X161636131Y-57323620D01*
X161570703Y-57534333D01*
X161570169Y-57538843D01*
X161570169Y-57538844D01*
X161550207Y-57707501D01*
X161544770Y-57753440D01*
X159452241Y-57753440D01*
X159435376Y-57569898D01*
X159433729Y-57561012D01*
X159376328Y-57357486D01*
X159373087Y-57349042D01*
X159279560Y-57159388D01*
X159274835Y-57151678D01*
X159270408Y-57145749D01*
X159259516Y-57138051D01*
X159258066Y-57138070D01*
X159252975Y-57141236D01*
X158620296Y-57773914D01*
X158614242Y-57785797D01*
X157884946Y-57785797D01*
X157885758Y-57784203D01*
X157884962Y-57779172D01*
X157248694Y-57142905D01*
X157238337Y-57137628D01*
X157230462Y-57145401D01*
X157138705Y-57319802D01*
X157135251Y-57328142D01*
X157072541Y-57530098D01*
X157070660Y-57538948D01*
X157045805Y-57748948D01*
X157045569Y-57757981D01*
X155686734Y-57757981D01*
X155720287Y-57719109D01*
X155730307Y-57707501D01*
X155739668Y-57691024D01*
X155821153Y-57547584D01*
X155821154Y-57547581D01*
X155823542Y-57543378D01*
X155827995Y-57529994D01*
X155881596Y-57368863D01*
X155881596Y-57368861D01*
X155883123Y-57364272D01*
X155883981Y-57357486D01*
X155906432Y-57179758D01*
X155906780Y-57177005D01*
X155907157Y-57150000D01*
X155906741Y-57145749D01*
X155889210Y-56966955D01*
X155889209Y-56966951D01*
X155888738Y-56962145D01*
X155834181Y-56781445D01*
X155831754Y-56776880D01*
X157604910Y-56776880D01*
X157609605Y-56785395D01*
X158238914Y-57414704D01*
X158250797Y-57420758D01*
X158255828Y-57419962D01*
X158888710Y-56787079D01*
X158894588Y-56775542D01*
X158888494Y-56768862D01*
X158800964Y-56713635D01*
X158792906Y-56709530D01*
X158596491Y-56631168D01*
X158587833Y-56628603D01*
X158380426Y-56587347D01*
X158371433Y-56586402D01*
X158159985Y-56583633D01*
X158150970Y-56584343D01*
X157942556Y-56620155D01*
X157933832Y-56622493D01*
X157735436Y-56695684D01*
X157727268Y-56699580D01*
X157613169Y-56767463D01*
X157604910Y-56776880D01*
X155831754Y-56776880D01*
X155745566Y-56614783D01*
X155626266Y-56468508D01*
X155611098Y-56455960D01*
X155484554Y-56351274D01*
X155484553Y-56351273D01*
X155480827Y-56348191D01*
X155314788Y-56258414D01*
X155134474Y-56202597D01*
X155122524Y-56201341D01*
X154951568Y-56183373D01*
X154951566Y-56183373D01*
X154946752Y-56182867D01*
X154891883Y-56187860D01*
X154763592Y-56199535D01*
X154763588Y-56199536D01*
X154758773Y-56199974D01*
X154688851Y-56220553D01*
X154582344Y-56251900D01*
X154582341Y-56251901D01*
X154577697Y-56253268D01*
X154539769Y-56273096D01*
X154414717Y-56338471D01*
X154414713Y-56338474D01*
X154410420Y-56340718D01*
X154406644Y-56343754D01*
X154406641Y-56343756D01*
X154387081Y-56359483D01*
X154263316Y-56458993D01*
X154260207Y-56462698D01*
X154260204Y-56462701D01*
X154155614Y-56587347D01*
X154141986Y-56603588D01*
X154139650Y-56607836D01*
X154139650Y-56607837D01*
X154091605Y-56695231D01*
X154051052Y-56768996D01*
X153993978Y-56948917D01*
X153985192Y-57027242D01*
X153973850Y-57128360D01*
X153972937Y-57136496D01*
X153035000Y-57136496D01*
X153035000Y-54596714D01*
X153988511Y-54596714D01*
X154004051Y-54781779D01*
X154005384Y-54786427D01*
X154005384Y-54786428D01*
X154016564Y-54825416D01*
X154055241Y-54960301D01*
X154140132Y-55125480D01*
X154255489Y-55271024D01*
X154259169Y-55274156D01*
X154259171Y-55274158D01*
X154291992Y-55302091D01*
X154396919Y-55391391D01*
X154401141Y-55393751D01*
X154401146Y-55393754D01*
X154504825Y-55451697D01*
X154559035Y-55481994D01*
X154605782Y-55497183D01*
X154731057Y-55537888D01*
X154731060Y-55537889D01*
X154735662Y-55539384D01*
X154920072Y-55561373D01*
X154924894Y-55561002D01*
X154924897Y-55561002D01*
X155100412Y-55547497D01*
X155100417Y-55547496D01*
X155105240Y-55547125D01*
X155284115Y-55497183D01*
X155288433Y-55495002D01*
X155445562Y-55415630D01*
X155445564Y-55415629D01*
X155449883Y-55413447D01*
X155482130Y-55388253D01*
X155592414Y-55302091D01*
X155592418Y-55302087D01*
X155596230Y-55299109D01*
X155620473Y-55271024D01*
X155714416Y-55162189D01*
X155714418Y-55162187D01*
X155717580Y-55158523D01*
X155809313Y-54997043D01*
X155867935Y-54820822D01*
X155891211Y-54636570D01*
X155891582Y-54610000D01*
X155890280Y-54596714D01*
X174308511Y-54596714D01*
X174324051Y-54781779D01*
X174325384Y-54786427D01*
X174325384Y-54786428D01*
X174336564Y-54825416D01*
X174375241Y-54960301D01*
X174460132Y-55125480D01*
X174575489Y-55271024D01*
X174579169Y-55274156D01*
X174579171Y-55274158D01*
X174611992Y-55302091D01*
X174716919Y-55391391D01*
X174721141Y-55393751D01*
X174721146Y-55393754D01*
X174824825Y-55451697D01*
X174879035Y-55481994D01*
X174925782Y-55497183D01*
X175051057Y-55537888D01*
X175051060Y-55537889D01*
X175055662Y-55539384D01*
X175240072Y-55561373D01*
X175244894Y-55561002D01*
X175244897Y-55561002D01*
X175420412Y-55547497D01*
X175420417Y-55547496D01*
X175425240Y-55547125D01*
X175604115Y-55497183D01*
X175608433Y-55495002D01*
X175765562Y-55415630D01*
X175765564Y-55415629D01*
X175769883Y-55413447D01*
X175802130Y-55388253D01*
X175912414Y-55302091D01*
X175912418Y-55302087D01*
X175916230Y-55299109D01*
X175940473Y-55271024D01*
X176034416Y-55162189D01*
X176034418Y-55162187D01*
X176037580Y-55158523D01*
X176129313Y-54997043D01*
X176187935Y-54820822D01*
X176211211Y-54636570D01*
X176211582Y-54610000D01*
X176210280Y-54596714D01*
X176193931Y-54429987D01*
X176193459Y-54425170D01*
X176139781Y-54247380D01*
X176052593Y-54083403D01*
X176043610Y-54072388D01*
X175938276Y-53943236D01*
X175938275Y-53943235D01*
X175935215Y-53939483D01*
X175792118Y-53821103D01*
X175628753Y-53732772D01*
X175451342Y-53677854D01*
X175446532Y-53677348D01*
X175446530Y-53677348D01*
X175271459Y-53658947D01*
X175271457Y-53658947D01*
X175266643Y-53658441D01*
X175205654Y-53663991D01*
X175086511Y-53674834D01*
X175086508Y-53674835D01*
X175081691Y-53675273D01*
X175077049Y-53676639D01*
X175077045Y-53676640D01*
X174908178Y-53726341D01*
X174908175Y-53726342D01*
X174903531Y-53727709D01*
X174889447Y-53735072D01*
X174743246Y-53811503D01*
X174743241Y-53811506D01*
X174738949Y-53813750D01*
X174735173Y-53816786D01*
X174735170Y-53816788D01*
X174725969Y-53824186D01*
X174594213Y-53930121D01*
X174591104Y-53933826D01*
X174591101Y-53933829D01*
X174588948Y-53936395D01*
X174474837Y-54072388D01*
X174472501Y-54076636D01*
X174472501Y-54076637D01*
X174470844Y-54079652D01*
X174385367Y-54235132D01*
X174383904Y-54239745D01*
X174383902Y-54239749D01*
X174380012Y-54252012D01*
X174329212Y-54412155D01*
X174308511Y-54596714D01*
X155890280Y-54596714D01*
X155873931Y-54429987D01*
X155873459Y-54425170D01*
X155819781Y-54247380D01*
X155732593Y-54083403D01*
X155723610Y-54072388D01*
X155618276Y-53943236D01*
X155618275Y-53943235D01*
X155615215Y-53939483D01*
X155472118Y-53821103D01*
X155308753Y-53732772D01*
X155131342Y-53677854D01*
X155126532Y-53677348D01*
X155126530Y-53677348D01*
X154951459Y-53658947D01*
X154951457Y-53658947D01*
X154946643Y-53658441D01*
X154885654Y-53663991D01*
X154766511Y-53674834D01*
X154766508Y-53674835D01*
X154761691Y-53675273D01*
X154757049Y-53676639D01*
X154757045Y-53676640D01*
X154588178Y-53726341D01*
X154588175Y-53726342D01*
X154583531Y-53727709D01*
X154569447Y-53735072D01*
X154423246Y-53811503D01*
X154423241Y-53811506D01*
X154418949Y-53813750D01*
X154415173Y-53816786D01*
X154415170Y-53816788D01*
X154405969Y-53824186D01*
X154274213Y-53930121D01*
X154271104Y-53933826D01*
X154271101Y-53933829D01*
X154268948Y-53936395D01*
X154154837Y-54072388D01*
X154152501Y-54076636D01*
X154152501Y-54076637D01*
X154150844Y-54079652D01*
X154065367Y-54235132D01*
X154063904Y-54239745D01*
X154063902Y-54239749D01*
X154060012Y-54252012D01*
X154009212Y-54412155D01*
X153988511Y-54596714D01*
X153035000Y-54596714D01*
X153035000Y-52056714D01*
X153988511Y-52056714D01*
X153991015Y-52086536D01*
X154001819Y-52215195D01*
X154004051Y-52241779D01*
X154005384Y-52246427D01*
X154005384Y-52246428D01*
X154016564Y-52285416D01*
X154055241Y-52420301D01*
X154140132Y-52585480D01*
X154255489Y-52731024D01*
X154259169Y-52734156D01*
X154259171Y-52734158D01*
X154294749Y-52764437D01*
X154396919Y-52851391D01*
X154401141Y-52853751D01*
X154401146Y-52853754D01*
X154504825Y-52911697D01*
X154559035Y-52941994D01*
X154605782Y-52957183D01*
X154731057Y-52997888D01*
X154731060Y-52997889D01*
X154735662Y-52999384D01*
X154920072Y-53021373D01*
X154924894Y-53021002D01*
X154924897Y-53021002D01*
X155100412Y-53007497D01*
X155100417Y-53007496D01*
X155105240Y-53007125D01*
X155284115Y-52957183D01*
X155288433Y-52955002D01*
X155445562Y-52875630D01*
X155445564Y-52875629D01*
X155449883Y-52873447D01*
X155453957Y-52870264D01*
X155592414Y-52762091D01*
X155592418Y-52762087D01*
X155596230Y-52759109D01*
X155620473Y-52731024D01*
X155714416Y-52622189D01*
X155714418Y-52622187D01*
X155717580Y-52618523D01*
X155809313Y-52457043D01*
X155867935Y-52280822D01*
X155891211Y-52096570D01*
X155891317Y-52089019D01*
X155891543Y-52072770D01*
X155891582Y-52070000D01*
X155890280Y-52056714D01*
X155873931Y-51889987D01*
X155873459Y-51885170D01*
X155819781Y-51707380D01*
X155756447Y-51588265D01*
X155734866Y-51547677D01*
X155734864Y-51547673D01*
X155732593Y-51543403D01*
X155723610Y-51532388D01*
X155618276Y-51403236D01*
X155618275Y-51403235D01*
X155615215Y-51399483D01*
X155537383Y-51335095D01*
X155475845Y-51284186D01*
X155475843Y-51284185D01*
X155472118Y-51281103D01*
X155308753Y-51192772D01*
X155131342Y-51137854D01*
X155126532Y-51137348D01*
X155126530Y-51137348D01*
X154951459Y-51118947D01*
X154951457Y-51118947D01*
X154946643Y-51118441D01*
X154885654Y-51123991D01*
X154766511Y-51134834D01*
X154766508Y-51134835D01*
X154761691Y-51135273D01*
X154757049Y-51136639D01*
X154757045Y-51136640D01*
X154588178Y-51186341D01*
X154588175Y-51186342D01*
X154583531Y-51187709D01*
X154572102Y-51193684D01*
X154423246Y-51271503D01*
X154423241Y-51271506D01*
X154418949Y-51273750D01*
X154415173Y-51276786D01*
X154415170Y-51276788D01*
X154294503Y-51373807D01*
X154274213Y-51390121D01*
X154271104Y-51393826D01*
X154271101Y-51393829D01*
X154165186Y-51520054D01*
X154154837Y-51532388D01*
X154152501Y-51536636D01*
X154152501Y-51536637D01*
X154138558Y-51562000D01*
X154065367Y-51695132D01*
X154063904Y-51699745D01*
X154063902Y-51699749D01*
X154038435Y-51780032D01*
X154009212Y-51872155D01*
X153988511Y-52056714D01*
X153035000Y-52056714D01*
X153035000Y-49636714D01*
X153988511Y-49636714D01*
X153990621Y-49661844D01*
X154003205Y-49811701D01*
X154004051Y-49821779D01*
X154005384Y-49826427D01*
X154005384Y-49826428D01*
X154042703Y-49956574D01*
X154055241Y-50000301D01*
X154140132Y-50165480D01*
X154255489Y-50311024D01*
X154259169Y-50314156D01*
X154259171Y-50314158D01*
X154297288Y-50346598D01*
X154396919Y-50431391D01*
X154401141Y-50433751D01*
X154401146Y-50433754D01*
X154474224Y-50474595D01*
X154559035Y-50521994D01*
X154605782Y-50537183D01*
X154731057Y-50577888D01*
X154731060Y-50577889D01*
X154735662Y-50579384D01*
X154920072Y-50601373D01*
X154924894Y-50601002D01*
X154924897Y-50601002D01*
X155100412Y-50587497D01*
X155100417Y-50587496D01*
X155105240Y-50587125D01*
X155284115Y-50537183D01*
X155288433Y-50535002D01*
X155445562Y-50455630D01*
X155445564Y-50455629D01*
X155449883Y-50453447D01*
X155476049Y-50433004D01*
X155592414Y-50342091D01*
X155592418Y-50342087D01*
X155596230Y-50339109D01*
X155609117Y-50324180D01*
X155714416Y-50202189D01*
X155714418Y-50202187D01*
X155717580Y-50198523D01*
X155797572Y-50057711D01*
X155806920Y-50041256D01*
X155806921Y-50041254D01*
X155809313Y-50037043D01*
X155841374Y-49940667D01*
X155866407Y-49865416D01*
X155866408Y-49865414D01*
X155867935Y-49860822D01*
X155891211Y-49676570D01*
X155891582Y-49650000D01*
X155890280Y-49636714D01*
X155878020Y-49511688D01*
X155873459Y-49465170D01*
X155819781Y-49287380D01*
X155772979Y-49199358D01*
X155734866Y-49127677D01*
X155734864Y-49127673D01*
X155732593Y-49123403D01*
X155723610Y-49112388D01*
X155618276Y-48983236D01*
X155618275Y-48983235D01*
X155615215Y-48979483D01*
X155472118Y-48861103D01*
X155347714Y-48793838D01*
X155313007Y-48775072D01*
X155313006Y-48775072D01*
X155308753Y-48772772D01*
X155131342Y-48717854D01*
X155126532Y-48717348D01*
X155126530Y-48717348D01*
X154951459Y-48698947D01*
X154951457Y-48698947D01*
X154946643Y-48698441D01*
X154885654Y-48703991D01*
X154766511Y-48714834D01*
X154766508Y-48714835D01*
X154761691Y-48715273D01*
X154757049Y-48716639D01*
X154757045Y-48716640D01*
X154588178Y-48766341D01*
X154588175Y-48766342D01*
X154583531Y-48767709D01*
X154569447Y-48775072D01*
X154423246Y-48851503D01*
X154423241Y-48851506D01*
X154418949Y-48853750D01*
X154415173Y-48856786D01*
X154415170Y-48856788D01*
X154405969Y-48864186D01*
X154274213Y-48970121D01*
X154271104Y-48973826D01*
X154271101Y-48973829D01*
X154256669Y-48991029D01*
X154154837Y-49112388D01*
X154152501Y-49116636D01*
X154152501Y-49116637D01*
X154125322Y-49166076D01*
X154065367Y-49275132D01*
X154063904Y-49279745D01*
X154063902Y-49279749D01*
X154042583Y-49346955D01*
X154009212Y-49452155D01*
X154008672Y-49456966D01*
X154008672Y-49456968D01*
X153996074Y-49569289D01*
X153988511Y-49636714D01*
X153035000Y-49636714D01*
X153035000Y-47036714D01*
X153988511Y-47036714D01*
X153991625Y-47073795D01*
X154002178Y-47199469D01*
X154004051Y-47221779D01*
X154005384Y-47226427D01*
X154005384Y-47226428D01*
X154049073Y-47378789D01*
X154055241Y-47400301D01*
X154140132Y-47565480D01*
X154255489Y-47711024D01*
X154259169Y-47714156D01*
X154259171Y-47714158D01*
X154344223Y-47786543D01*
X154396919Y-47831391D01*
X154401141Y-47833751D01*
X154401146Y-47833754D01*
X154500931Y-47889521D01*
X154559035Y-47921994D01*
X154605782Y-47937183D01*
X154731057Y-47977888D01*
X154731060Y-47977889D01*
X154735662Y-47979384D01*
X154920072Y-48001373D01*
X154924894Y-48001002D01*
X154924897Y-48001002D01*
X155100412Y-47987497D01*
X155100417Y-47987496D01*
X155105240Y-47987125D01*
X155284115Y-47937183D01*
X155288433Y-47935002D01*
X155445562Y-47855630D01*
X155445564Y-47855629D01*
X155449883Y-47853447D01*
X155483396Y-47827264D01*
X155592414Y-47742091D01*
X155592418Y-47742087D01*
X155596230Y-47739109D01*
X155611495Y-47721425D01*
X155714416Y-47602189D01*
X155714418Y-47602187D01*
X155717580Y-47598523D01*
X155809313Y-47437043D01*
X155867935Y-47260822D01*
X155891211Y-47076570D01*
X155891582Y-47050000D01*
X155890280Y-47036714D01*
X155878388Y-46915440D01*
X155873459Y-46865170D01*
X155819781Y-46687380D01*
X155740071Y-46537467D01*
X155734866Y-46527677D01*
X155734864Y-46527673D01*
X155732593Y-46523403D01*
X155723610Y-46512388D01*
X155618276Y-46383236D01*
X155618275Y-46383235D01*
X155615215Y-46379483D01*
X155529421Y-46308508D01*
X155475845Y-46264186D01*
X155475843Y-46264185D01*
X155472118Y-46261103D01*
X155308753Y-46172772D01*
X155131342Y-46117854D01*
X155126532Y-46117348D01*
X155126530Y-46117348D01*
X154951459Y-46098947D01*
X154951457Y-46098947D01*
X154946643Y-46098441D01*
X154885654Y-46103991D01*
X154766511Y-46114834D01*
X154766508Y-46114835D01*
X154761691Y-46115273D01*
X154757049Y-46116639D01*
X154757045Y-46116640D01*
X154588178Y-46166341D01*
X154588175Y-46166342D01*
X154583531Y-46167709D01*
X154569447Y-46175072D01*
X154423246Y-46251503D01*
X154423241Y-46251506D01*
X154418949Y-46253750D01*
X154415173Y-46256786D01*
X154415170Y-46256788D01*
X154307580Y-46343293D01*
X154274213Y-46370121D01*
X154271104Y-46373826D01*
X154271101Y-46373829D01*
X154206323Y-46451029D01*
X154154837Y-46512388D01*
X154152501Y-46516636D01*
X154152501Y-46516637D01*
X154073711Y-46659955D01*
X154065367Y-46675132D01*
X154063904Y-46679745D01*
X154063902Y-46679749D01*
X154040722Y-46752822D01*
X154009212Y-46852155D01*
X154008672Y-46856966D01*
X154008672Y-46856968D01*
X153990722Y-47017005D01*
X153988511Y-47036714D01*
X153035000Y-47036714D01*
X153035000Y-45216248D01*
X153993000Y-45216248D01*
X153993948Y-45221012D01*
X154000678Y-45254846D01*
X154004633Y-45274731D01*
X154048948Y-45341052D01*
X154115269Y-45385367D01*
X154124832Y-45387269D01*
X154124834Y-45387270D01*
X154147505Y-45391779D01*
X154173752Y-45397000D01*
X155706248Y-45397000D01*
X155732495Y-45391779D01*
X155755166Y-45387270D01*
X155755168Y-45387269D01*
X155764731Y-45385367D01*
X155831052Y-45341052D01*
X155875367Y-45274731D01*
X155879323Y-45254846D01*
X155886052Y-45221012D01*
X155887000Y-45216248D01*
X155887000Y-43683752D01*
X155880540Y-43651274D01*
X155877270Y-43634834D01*
X155877269Y-43634832D01*
X155875367Y-43625269D01*
X155831052Y-43558948D01*
X155764731Y-43514633D01*
X155755168Y-43512731D01*
X155755166Y-43512730D01*
X155732495Y-43508221D01*
X155706248Y-43503000D01*
X154173752Y-43503000D01*
X154147505Y-43508221D01*
X154124834Y-43512730D01*
X154124832Y-43512731D01*
X154115269Y-43514633D01*
X154048948Y-43558948D01*
X154004633Y-43625269D01*
X154002731Y-43634832D01*
X154002730Y-43634834D01*
X153999460Y-43651274D01*
X153993000Y-43683752D01*
X153993000Y-45216248D01*
X153035000Y-45216248D01*
X153035000Y-40640000D01*
X159668318Y-40640000D01*
X159688956Y-40796762D01*
X159749464Y-40942841D01*
X159845718Y-41068282D01*
X159850871Y-41072236D01*
X159909767Y-41117428D01*
X159944423Y-41167852D01*
X159948500Y-41195970D01*
X159948500Y-51035466D01*
X159948123Y-51044095D01*
X159944736Y-51082807D01*
X159946978Y-51091174D01*
X159954796Y-51120349D01*
X159956666Y-51128783D01*
X159963412Y-51167045D01*
X159967742Y-51174544D01*
X159969738Y-51180029D01*
X159972204Y-51185316D01*
X159974446Y-51193684D01*
X159995013Y-51223056D01*
X159996732Y-51225511D01*
X160001371Y-51232792D01*
X160020806Y-51266455D01*
X160035521Y-51278802D01*
X160050570Y-51291430D01*
X160056938Y-51297264D01*
X160158707Y-51399033D01*
X160186484Y-51453550D01*
X160186856Y-51481955D01*
X160176318Y-51562000D01*
X160196956Y-51718762D01*
X160257464Y-51864841D01*
X160353718Y-51990282D01*
X160479159Y-52086536D01*
X160625238Y-52147044D01*
X160782000Y-52167682D01*
X160938762Y-52147044D01*
X161084841Y-52086536D01*
X161210282Y-51990282D01*
X161306536Y-51864841D01*
X161367044Y-51718762D01*
X161387682Y-51562000D01*
X161367044Y-51405238D01*
X161306536Y-51259159D01*
X161210282Y-51133718D01*
X161084841Y-51037464D01*
X160938762Y-50976956D01*
X160782000Y-50956318D01*
X160711421Y-50965610D01*
X160651262Y-50954460D01*
X160609144Y-50910078D01*
X160599500Y-50867457D01*
X160599500Y-49756248D01*
X163093000Y-49756248D01*
X163104633Y-49814731D01*
X163148948Y-49881052D01*
X163215269Y-49925367D01*
X163224832Y-49927269D01*
X163224834Y-49927270D01*
X163247505Y-49931779D01*
X163273752Y-49937000D01*
X164485666Y-49937000D01*
X164543857Y-49955907D01*
X164555670Y-49965996D01*
X167347742Y-52758069D01*
X167353565Y-52764424D01*
X167378545Y-52794194D01*
X167412219Y-52813636D01*
X167419475Y-52818259D01*
X167451316Y-52840554D01*
X167459678Y-52842795D01*
X167464960Y-52845258D01*
X167470454Y-52847257D01*
X167477955Y-52851588D01*
X167516211Y-52858334D01*
X167516228Y-52858337D01*
X167524656Y-52860206D01*
X167553827Y-52868022D01*
X167553830Y-52868022D01*
X167562193Y-52870263D01*
X167600896Y-52866877D01*
X167609525Y-52866500D01*
X170969771Y-52866500D01*
X170978400Y-52866877D01*
X171017112Y-52870264D01*
X171054655Y-52860204D01*
X171063089Y-52858334D01*
X171092822Y-52853092D01*
X171092824Y-52853091D01*
X171101350Y-52851588D01*
X171108849Y-52847258D01*
X171114334Y-52845262D01*
X171119621Y-52842796D01*
X171127989Y-52840554D01*
X171159816Y-52818268D01*
X171167100Y-52813627D01*
X171167112Y-52813620D01*
X171200760Y-52794194D01*
X171225736Y-52764429D01*
X171231570Y-52758061D01*
X171932917Y-52056714D01*
X174308511Y-52056714D01*
X174311015Y-52086536D01*
X174321819Y-52215195D01*
X174324051Y-52241779D01*
X174325384Y-52246427D01*
X174325384Y-52246428D01*
X174336564Y-52285416D01*
X174375241Y-52420301D01*
X174460132Y-52585480D01*
X174575489Y-52731024D01*
X174579169Y-52734156D01*
X174579171Y-52734158D01*
X174614749Y-52764437D01*
X174716919Y-52851391D01*
X174721141Y-52853751D01*
X174721146Y-52853754D01*
X174824825Y-52911697D01*
X174879035Y-52941994D01*
X174925782Y-52957183D01*
X175051057Y-52997888D01*
X175051060Y-52997889D01*
X175055662Y-52999384D01*
X175240072Y-53021373D01*
X175244894Y-53021002D01*
X175244897Y-53021002D01*
X175420412Y-53007497D01*
X175420417Y-53007496D01*
X175425240Y-53007125D01*
X175604115Y-52957183D01*
X175608433Y-52955002D01*
X175765562Y-52875630D01*
X175765564Y-52875629D01*
X175769883Y-52873447D01*
X175773957Y-52870264D01*
X175912414Y-52762091D01*
X175912418Y-52762087D01*
X175916230Y-52759109D01*
X175940473Y-52731024D01*
X176034416Y-52622189D01*
X176034418Y-52622187D01*
X176037580Y-52618523D01*
X176129313Y-52457043D01*
X176187935Y-52280822D01*
X176211211Y-52096570D01*
X176211317Y-52089019D01*
X176211543Y-52072770D01*
X176211582Y-52070000D01*
X176210280Y-52056714D01*
X176193931Y-51889987D01*
X176193459Y-51885170D01*
X176139781Y-51707380D01*
X176076447Y-51588265D01*
X176054866Y-51547677D01*
X176054864Y-51547673D01*
X176052593Y-51543403D01*
X176043610Y-51532388D01*
X175938276Y-51403236D01*
X175938275Y-51403235D01*
X175935215Y-51399483D01*
X175857383Y-51335095D01*
X175795845Y-51284186D01*
X175795843Y-51284185D01*
X175792118Y-51281103D01*
X175628753Y-51192772D01*
X175451342Y-51137854D01*
X175446532Y-51137348D01*
X175446530Y-51137348D01*
X175271459Y-51118947D01*
X175271457Y-51118947D01*
X175266643Y-51118441D01*
X175205654Y-51123991D01*
X175086511Y-51134834D01*
X175086508Y-51134835D01*
X175081691Y-51135273D01*
X175077049Y-51136639D01*
X175077045Y-51136640D01*
X174908178Y-51186341D01*
X174908175Y-51186342D01*
X174903531Y-51187709D01*
X174892102Y-51193684D01*
X174743246Y-51271503D01*
X174743241Y-51271506D01*
X174738949Y-51273750D01*
X174735173Y-51276786D01*
X174735170Y-51276788D01*
X174614503Y-51373807D01*
X174594213Y-51390121D01*
X174591104Y-51393826D01*
X174591101Y-51393829D01*
X174485186Y-51520054D01*
X174474837Y-51532388D01*
X174472501Y-51536636D01*
X174472501Y-51536637D01*
X174458558Y-51562000D01*
X174385367Y-51695132D01*
X174383904Y-51699745D01*
X174383902Y-51699749D01*
X174358435Y-51780032D01*
X174329212Y-51872155D01*
X174308511Y-52056714D01*
X171932917Y-52056714D01*
X172720069Y-51269563D01*
X172726424Y-51263740D01*
X172756194Y-51238760D01*
X172775636Y-51205086D01*
X172780261Y-51197827D01*
X172797587Y-51173083D01*
X172797587Y-51173082D01*
X172802554Y-51165989D01*
X172804795Y-51157627D01*
X172807258Y-51152345D01*
X172809257Y-51146851D01*
X172813588Y-51139350D01*
X172820337Y-51101076D01*
X172822206Y-51092649D01*
X172830022Y-51063478D01*
X172830022Y-51063475D01*
X172832263Y-51055112D01*
X172828877Y-51016408D01*
X172828500Y-51007780D01*
X172828500Y-49516496D01*
X174292937Y-49516496D01*
X174293342Y-49521316D01*
X174304824Y-49658047D01*
X174308732Y-49704590D01*
X174310065Y-49709238D01*
X174310065Y-49709239D01*
X174353531Y-49860822D01*
X174360760Y-49886034D01*
X174362975Y-49890344D01*
X174444827Y-50049612D01*
X174444830Y-50049616D01*
X174447040Y-50053917D01*
X174564285Y-50201844D01*
X174567972Y-50204982D01*
X174567974Y-50204984D01*
X174704342Y-50321042D01*
X174704347Y-50321045D01*
X174708030Y-50324180D01*
X174712253Y-50326540D01*
X174712257Y-50326543D01*
X174752046Y-50348780D01*
X174872800Y-50416267D01*
X174920308Y-50431703D01*
X175047718Y-50473101D01*
X175047721Y-50473102D01*
X175052317Y-50474595D01*
X175057113Y-50475167D01*
X175057118Y-50475168D01*
X175146031Y-50485770D01*
X175239745Y-50496945D01*
X175244567Y-50496574D01*
X175244570Y-50496574D01*
X175306278Y-50491826D01*
X175427945Y-50482464D01*
X175609748Y-50431703D01*
X175778229Y-50346598D01*
X175926970Y-50230388D01*
X175930132Y-50226725D01*
X175930137Y-50226720D01*
X176047143Y-50091166D01*
X176050307Y-50087501D01*
X176069386Y-50053917D01*
X176141153Y-49927584D01*
X176141154Y-49927581D01*
X176143542Y-49923378D01*
X176153647Y-49893004D01*
X176201596Y-49748863D01*
X176201596Y-49748861D01*
X176203123Y-49744272D01*
X176226780Y-49557005D01*
X176227157Y-49530000D01*
X176208738Y-49342145D01*
X176154181Y-49161445D01*
X176065566Y-48994783D01*
X175946266Y-48848508D01*
X175896154Y-48807052D01*
X175804554Y-48731274D01*
X175804553Y-48731273D01*
X175800827Y-48728191D01*
X175634788Y-48638414D01*
X175454474Y-48582597D01*
X175442524Y-48581341D01*
X175271568Y-48563373D01*
X175271566Y-48563373D01*
X175266752Y-48562867D01*
X175211883Y-48567860D01*
X175083592Y-48579535D01*
X175083588Y-48579536D01*
X175078773Y-48579974D01*
X175008851Y-48600553D01*
X174902344Y-48631900D01*
X174902341Y-48631901D01*
X174897697Y-48633268D01*
X174859769Y-48653096D01*
X174734717Y-48718471D01*
X174734713Y-48718474D01*
X174730420Y-48720718D01*
X174726644Y-48723754D01*
X174726641Y-48723756D01*
X174639477Y-48793838D01*
X174583316Y-48838993D01*
X174580207Y-48842698D01*
X174580204Y-48842701D01*
X174465103Y-48979873D01*
X174461986Y-48983588D01*
X174459650Y-48987836D01*
X174459650Y-48987837D01*
X174442109Y-49019744D01*
X174371052Y-49148996D01*
X174313978Y-49328917D01*
X174311048Y-49355038D01*
X174299166Y-49460969D01*
X174292937Y-49516496D01*
X172828500Y-49516496D01*
X172828500Y-46976496D01*
X174292937Y-46976496D01*
X174298878Y-47047242D01*
X174307809Y-47153593D01*
X174308732Y-47164590D01*
X174310065Y-47169238D01*
X174310065Y-47169239D01*
X174359385Y-47341238D01*
X174360760Y-47346034D01*
X174362975Y-47350344D01*
X174444827Y-47509612D01*
X174444830Y-47509616D01*
X174447040Y-47513917D01*
X174564285Y-47661844D01*
X174567972Y-47664982D01*
X174567974Y-47664984D01*
X174704342Y-47781042D01*
X174704347Y-47781045D01*
X174708030Y-47784180D01*
X174712253Y-47786540D01*
X174712257Y-47786543D01*
X174786889Y-47828253D01*
X174872800Y-47876267D01*
X174913592Y-47889521D01*
X175047718Y-47933101D01*
X175047721Y-47933102D01*
X175052317Y-47934595D01*
X175057113Y-47935167D01*
X175057118Y-47935168D01*
X175146031Y-47945770D01*
X175239745Y-47956945D01*
X175244567Y-47956574D01*
X175244570Y-47956574D01*
X175306278Y-47951826D01*
X175427945Y-47942464D01*
X175609748Y-47891703D01*
X175778229Y-47806598D01*
X175926970Y-47690388D01*
X175930132Y-47686725D01*
X175930137Y-47686720D01*
X176047143Y-47551166D01*
X176050307Y-47547501D01*
X176069386Y-47513917D01*
X176141153Y-47387584D01*
X176141154Y-47387581D01*
X176143542Y-47383378D01*
X176155420Y-47347674D01*
X176201596Y-47208863D01*
X176201596Y-47208861D01*
X176203123Y-47204272D01*
X176226780Y-47017005D01*
X176227157Y-46990000D01*
X176214113Y-46856968D01*
X176209210Y-46806955D01*
X176209209Y-46806951D01*
X176208738Y-46802145D01*
X176154181Y-46621445D01*
X176065566Y-46454783D01*
X175946266Y-46308508D01*
X175888963Y-46261103D01*
X175804554Y-46191274D01*
X175804553Y-46191273D01*
X175800827Y-46188191D01*
X175634788Y-46098414D01*
X175454474Y-46042597D01*
X175442524Y-46041341D01*
X175271568Y-46023373D01*
X175271566Y-46023373D01*
X175266752Y-46022867D01*
X175211883Y-46027860D01*
X175083592Y-46039535D01*
X175083588Y-46039536D01*
X175078773Y-46039974D01*
X175008851Y-46060553D01*
X174902344Y-46091900D01*
X174902341Y-46091901D01*
X174897697Y-46093268D01*
X174859769Y-46113096D01*
X174734717Y-46178471D01*
X174734713Y-46178474D01*
X174730420Y-46180718D01*
X174726644Y-46183754D01*
X174726641Y-46183756D01*
X174588954Y-46294460D01*
X174583316Y-46298993D01*
X174580207Y-46302698D01*
X174580204Y-46302701D01*
X174465103Y-46439873D01*
X174461986Y-46443588D01*
X174459650Y-46447836D01*
X174459650Y-46447837D01*
X174429354Y-46502946D01*
X174371052Y-46608996D01*
X174313978Y-46788917D01*
X174313001Y-46797629D01*
X174293556Y-46970981D01*
X174292937Y-46976496D01*
X172828500Y-46976496D01*
X172828500Y-44436496D01*
X174292937Y-44436496D01*
X174308732Y-44624590D01*
X174310065Y-44629238D01*
X174310065Y-44629239D01*
X174359385Y-44801238D01*
X174360760Y-44806034D01*
X174362975Y-44810344D01*
X174444827Y-44969612D01*
X174444830Y-44969616D01*
X174447040Y-44973917D01*
X174564285Y-45121844D01*
X174567972Y-45124982D01*
X174567974Y-45124984D01*
X174704342Y-45241042D01*
X174704347Y-45241045D01*
X174708030Y-45244180D01*
X174712253Y-45246540D01*
X174712257Y-45246543D01*
X174786014Y-45287764D01*
X174872800Y-45336267D01*
X174913592Y-45349521D01*
X175047718Y-45393101D01*
X175047721Y-45393102D01*
X175052317Y-45394595D01*
X175057113Y-45395167D01*
X175057118Y-45395168D01*
X175146031Y-45405770D01*
X175239745Y-45416945D01*
X175244567Y-45416574D01*
X175244570Y-45416574D01*
X175306278Y-45411826D01*
X175427945Y-45402464D01*
X175609748Y-45351703D01*
X175778229Y-45266598D01*
X175926970Y-45150388D01*
X175930132Y-45146725D01*
X175930137Y-45146720D01*
X176047143Y-45011166D01*
X176050307Y-45007501D01*
X176069386Y-44973917D01*
X176141153Y-44847584D01*
X176141154Y-44847581D01*
X176143542Y-44843378D01*
X176155420Y-44807674D01*
X176201596Y-44668863D01*
X176201596Y-44668861D01*
X176203123Y-44664272D01*
X176226780Y-44477005D01*
X176227157Y-44450000D01*
X176208738Y-44262145D01*
X176154181Y-44081445D01*
X176065566Y-43914783D01*
X175946266Y-43768508D01*
X175931098Y-43755960D01*
X175804554Y-43651274D01*
X175804553Y-43651273D01*
X175800827Y-43648191D01*
X175634788Y-43558414D01*
X175454474Y-43502597D01*
X175442524Y-43501341D01*
X175271568Y-43483373D01*
X175271566Y-43483373D01*
X175266752Y-43482867D01*
X175211883Y-43487860D01*
X175083592Y-43499535D01*
X175083588Y-43499536D01*
X175078773Y-43499974D01*
X175010554Y-43520052D01*
X174902344Y-43551900D01*
X174902341Y-43551901D01*
X174897697Y-43553268D01*
X174871319Y-43567058D01*
X174734717Y-43638471D01*
X174734713Y-43638474D01*
X174730420Y-43640718D01*
X174726644Y-43643754D01*
X174726641Y-43643756D01*
X174587088Y-43755960D01*
X174583316Y-43758993D01*
X174580207Y-43762698D01*
X174580204Y-43762701D01*
X174465103Y-43899873D01*
X174461986Y-43903588D01*
X174371052Y-44068996D01*
X174313978Y-44248917D01*
X174292937Y-44436496D01*
X172828500Y-44436496D01*
X172828500Y-42242834D01*
X172847407Y-42184643D01*
X172857496Y-42172830D01*
X174744330Y-40285996D01*
X174798847Y-40258219D01*
X174814334Y-40257000D01*
X176026248Y-40257000D01*
X176052495Y-40251779D01*
X176075166Y-40247270D01*
X176075168Y-40247269D01*
X176084731Y-40245367D01*
X176151052Y-40201052D01*
X176195367Y-40134731D01*
X176199200Y-40115464D01*
X176206052Y-40081012D01*
X176207000Y-40076248D01*
X176207000Y-38543752D01*
X176195367Y-38485269D01*
X176151052Y-38418948D01*
X176084731Y-38374633D01*
X176075168Y-38372731D01*
X176075166Y-38372730D01*
X176052495Y-38368221D01*
X176026248Y-38363000D01*
X174493752Y-38363000D01*
X174467505Y-38368221D01*
X174444834Y-38372730D01*
X174444832Y-38372731D01*
X174435269Y-38374633D01*
X174368948Y-38418948D01*
X174324633Y-38485269D01*
X174313000Y-38543752D01*
X174313000Y-39755666D01*
X174294093Y-39813857D01*
X174284004Y-39825670D01*
X172285943Y-41823731D01*
X172279576Y-41829565D01*
X172249806Y-41854545D01*
X172245477Y-41862044D01*
X172230373Y-41888205D01*
X172225732Y-41895489D01*
X172203446Y-41927316D01*
X172201204Y-41935684D01*
X172198738Y-41940971D01*
X172196742Y-41946456D01*
X172192412Y-41953955D01*
X172190909Y-41962481D01*
X172190908Y-41962483D01*
X172185666Y-41992216D01*
X172183796Y-42000650D01*
X172173736Y-42038193D01*
X172174491Y-42046822D01*
X172177123Y-42076905D01*
X172177500Y-42085534D01*
X172177500Y-50850470D01*
X172158593Y-50908661D01*
X172148504Y-50920474D01*
X171733884Y-51335095D01*
X171417850Y-51651129D01*
X171363333Y-51678906D01*
X171302901Y-51669335D01*
X171259636Y-51626070D01*
X171256382Y-51619011D01*
X171218962Y-51528673D01*
X171212536Y-51513159D01*
X171116282Y-51387718D01*
X170990841Y-51291464D01*
X170873046Y-51242671D01*
X170850759Y-51233440D01*
X170844762Y-51230956D01*
X170688000Y-51210318D01*
X170654421Y-51214739D01*
X170594262Y-51203589D01*
X170552145Y-51159208D01*
X170542500Y-51116586D01*
X170542500Y-46791534D01*
X170542877Y-46782905D01*
X170545509Y-46752822D01*
X170546264Y-46744193D01*
X170536204Y-46706650D01*
X170534334Y-46698216D01*
X170529092Y-46668483D01*
X170529091Y-46668481D01*
X170527588Y-46659955D01*
X170523258Y-46652456D01*
X170521262Y-46646971D01*
X170518796Y-46641684D01*
X170516554Y-46633316D01*
X170494268Y-46601489D01*
X170489627Y-46594205D01*
X170474523Y-46568044D01*
X170470194Y-46560545D01*
X170440429Y-46535569D01*
X170434061Y-46529735D01*
X169787293Y-45882967D01*
X169759516Y-45828450D01*
X169759144Y-45800045D01*
X169769682Y-45720000D01*
X169749044Y-45563238D01*
X169688536Y-45417159D01*
X169592282Y-45291718D01*
X169466841Y-45195464D01*
X169320762Y-45134956D01*
X169164000Y-45114318D01*
X169007238Y-45134956D01*
X168861159Y-45195464D01*
X168735718Y-45291718D01*
X168639464Y-45417159D01*
X168578956Y-45563238D01*
X168558318Y-45720000D01*
X168578956Y-45876762D01*
X168639464Y-46022841D01*
X168735718Y-46148282D01*
X168861159Y-46244536D01*
X169007238Y-46305044D01*
X169164000Y-46325682D01*
X169244042Y-46315144D01*
X169304201Y-46326294D01*
X169326967Y-46343293D01*
X169862504Y-46878830D01*
X169890281Y-46933347D01*
X169891500Y-46948834D01*
X169891500Y-48168634D01*
X169872593Y-48226825D01*
X169823093Y-48262789D01*
X169761907Y-48262789D01*
X169729395Y-48244915D01*
X169664554Y-48191274D01*
X169664553Y-48191273D01*
X169660827Y-48188191D01*
X169494788Y-48098414D01*
X169314474Y-48042597D01*
X169309660Y-48042091D01*
X169131568Y-48023373D01*
X169131566Y-48023373D01*
X169126752Y-48022867D01*
X169071883Y-48027860D01*
X168943592Y-48039535D01*
X168943588Y-48039536D01*
X168938773Y-48039974D01*
X168870554Y-48060052D01*
X168762344Y-48091900D01*
X168762341Y-48091901D01*
X168757697Y-48093268D01*
X168739397Y-48102835D01*
X168594717Y-48178471D01*
X168594713Y-48178474D01*
X168590420Y-48180718D01*
X168586644Y-48183754D01*
X168586641Y-48183756D01*
X168447088Y-48295960D01*
X168443316Y-48298993D01*
X168440207Y-48302698D01*
X168440204Y-48302701D01*
X168325103Y-48439873D01*
X168321986Y-48443588D01*
X168231052Y-48608996D01*
X168173978Y-48788917D01*
X168152937Y-48976496D01*
X168154832Y-48999060D01*
X168168320Y-49159681D01*
X168168732Y-49164590D01*
X168170065Y-49169238D01*
X168170065Y-49169239D01*
X168215852Y-49328917D01*
X168220760Y-49346034D01*
X168222975Y-49350344D01*
X168304827Y-49509612D01*
X168304830Y-49509616D01*
X168307040Y-49513917D01*
X168424285Y-49661844D01*
X168427972Y-49664982D01*
X168427974Y-49664984D01*
X168564342Y-49781042D01*
X168564347Y-49781045D01*
X168568030Y-49784180D01*
X168572253Y-49786540D01*
X168572257Y-49786543D01*
X168655265Y-49832934D01*
X168732800Y-49876267D01*
X168773592Y-49889521D01*
X168907718Y-49933101D01*
X168907721Y-49933102D01*
X168912317Y-49934595D01*
X168917113Y-49935167D01*
X168917118Y-49935168D01*
X169006031Y-49945770D01*
X169099745Y-49956945D01*
X169104567Y-49956574D01*
X169104570Y-49956574D01*
X169166278Y-49951826D01*
X169287945Y-49942464D01*
X169469748Y-49891703D01*
X169638229Y-49806598D01*
X169731549Y-49733688D01*
X169789045Y-49712761D01*
X169847860Y-49729626D01*
X169885529Y-49777841D01*
X169891500Y-49811701D01*
X169891500Y-51326466D01*
X169891123Y-51335095D01*
X169887736Y-51373807D01*
X169889978Y-51382174D01*
X169897796Y-51411349D01*
X169899666Y-51419783D01*
X169906412Y-51458045D01*
X169910742Y-51465544D01*
X169912738Y-51471029D01*
X169915204Y-51476316D01*
X169917446Y-51484684D01*
X169937385Y-51513159D01*
X169939732Y-51516511D01*
X169944371Y-51523792D01*
X169963806Y-51557455D01*
X169993571Y-51582431D01*
X169999939Y-51588265D01*
X170064707Y-51653033D01*
X170092484Y-51707550D01*
X170092856Y-51735955D01*
X170082318Y-51816000D01*
X170102956Y-51972762D01*
X170105440Y-51978760D01*
X170105441Y-51978762D01*
X170146801Y-52078615D01*
X170151602Y-52139611D01*
X170119632Y-52191780D01*
X170063104Y-52215195D01*
X170055337Y-52215500D01*
X167766835Y-52215500D01*
X167708644Y-52196593D01*
X167696831Y-52186504D01*
X165335748Y-49825422D01*
X166109060Y-49825422D01*
X166116289Y-49832934D01*
X166188775Y-49873445D01*
X166197603Y-49877302D01*
X166367826Y-49932611D01*
X166377226Y-49934678D01*
X166554954Y-49955870D01*
X166564581Y-49956072D01*
X166743030Y-49942341D01*
X166752521Y-49940667D01*
X166924897Y-49892539D01*
X166933894Y-49889049D01*
X167043439Y-49833715D01*
X167051479Y-49825731D01*
X167046287Y-49815497D01*
X166591086Y-49360296D01*
X166579203Y-49354242D01*
X166574172Y-49355038D01*
X166114537Y-49814673D01*
X166109060Y-49825422D01*
X165335748Y-49825422D01*
X165015996Y-49505670D01*
X164988219Y-49451153D01*
X164987000Y-49435666D01*
X164987000Y-48981323D01*
X165613844Y-48981323D01*
X165628821Y-49159681D01*
X165630559Y-49169149D01*
X165679891Y-49341191D01*
X165683442Y-49350159D01*
X165736425Y-49453253D01*
X165744552Y-49461324D01*
X165754616Y-49456174D01*
X166209704Y-49001086D01*
X166214946Y-48990797D01*
X166944242Y-48990797D01*
X166945038Y-48995828D01*
X167404648Y-49455438D01*
X167415503Y-49460969D01*
X167422911Y-49453890D01*
X167460694Y-49387380D01*
X167464610Y-49378585D01*
X167521106Y-49208752D01*
X167523240Y-49199358D01*
X167545930Y-49019744D01*
X167546317Y-49014217D01*
X167546616Y-48992759D01*
X167546386Y-48987261D01*
X167528717Y-48807052D01*
X167526848Y-48797614D01*
X167475115Y-48626268D01*
X167471445Y-48617364D01*
X167423404Y-48527011D01*
X167414987Y-48518883D01*
X167405269Y-48523941D01*
X166950296Y-48978914D01*
X166944242Y-48990797D01*
X166214946Y-48990797D01*
X166215758Y-48989203D01*
X166214962Y-48984172D01*
X165755267Y-48524477D01*
X165744625Y-48519055D01*
X165737011Y-48526434D01*
X165693844Y-48604954D01*
X165690050Y-48613806D01*
X165635935Y-48784401D01*
X165633929Y-48793838D01*
X165613978Y-48971695D01*
X165613844Y-48981323D01*
X164987000Y-48981323D01*
X164987000Y-48223752D01*
X164980540Y-48191274D01*
X164977270Y-48174834D01*
X164977269Y-48174832D01*
X164975367Y-48165269D01*
X164968372Y-48154801D01*
X166108796Y-48154801D01*
X166113900Y-48164690D01*
X166568914Y-48619704D01*
X166580797Y-48625758D01*
X166585828Y-48624962D01*
X167045617Y-48165173D01*
X167050984Y-48154639D01*
X167043456Y-48146924D01*
X166958848Y-48101176D01*
X166949977Y-48097447D01*
X166778994Y-48044519D01*
X166769562Y-48042583D01*
X166591564Y-48023875D01*
X166581926Y-48023808D01*
X166403686Y-48040028D01*
X166394223Y-48041834D01*
X166222532Y-48092365D01*
X166213591Y-48095978D01*
X166116900Y-48146527D01*
X166108796Y-48154801D01*
X164968372Y-48154801D01*
X164931052Y-48098948D01*
X164864731Y-48054633D01*
X164855168Y-48052731D01*
X164855166Y-48052730D01*
X164832495Y-48048221D01*
X164806248Y-48043000D01*
X163273752Y-48043000D01*
X163247505Y-48048221D01*
X163224834Y-48052730D01*
X163224832Y-48052731D01*
X163215269Y-48054633D01*
X163148948Y-48098948D01*
X163104633Y-48165269D01*
X163102731Y-48174832D01*
X163102730Y-48174834D01*
X163099460Y-48191274D01*
X163093000Y-48223752D01*
X163093000Y-49756248D01*
X160599500Y-49756248D01*
X160599500Y-42418000D01*
X162970318Y-42418000D01*
X162990956Y-42574762D01*
X163051464Y-42720841D01*
X163147718Y-42846282D01*
X163152871Y-42850236D01*
X163211767Y-42895428D01*
X163246423Y-42945852D01*
X163250500Y-42973970D01*
X163250500Y-45339966D01*
X163250123Y-45348595D01*
X163246736Y-45387307D01*
X163248978Y-45395674D01*
X163256796Y-45424849D01*
X163258666Y-45433283D01*
X163265412Y-45471545D01*
X163269742Y-45479044D01*
X163271738Y-45484529D01*
X163274204Y-45489816D01*
X163276446Y-45498184D01*
X163297013Y-45527556D01*
X163298732Y-45530011D01*
X163303371Y-45537292D01*
X163322806Y-45570955D01*
X163352571Y-45595931D01*
X163358939Y-45601765D01*
X163968707Y-46211533D01*
X163996484Y-46266050D01*
X163996856Y-46294455D01*
X163986318Y-46374500D01*
X164006956Y-46531262D01*
X164009440Y-46537259D01*
X164018671Y-46559546D01*
X164067464Y-46677341D01*
X164163718Y-46802782D01*
X164289159Y-46899036D01*
X164435238Y-46959544D01*
X164592000Y-46980182D01*
X164672042Y-46969644D01*
X164732201Y-46980794D01*
X164754967Y-46997793D01*
X165472231Y-47715057D01*
X165478065Y-47721424D01*
X165503045Y-47751194D01*
X165536705Y-47770627D01*
X165543989Y-47775268D01*
X165575816Y-47797554D01*
X165584184Y-47799796D01*
X165589471Y-47802262D01*
X165594956Y-47804258D01*
X165602455Y-47808588D01*
X165610981Y-47810091D01*
X165610983Y-47810092D01*
X165640716Y-47815334D01*
X165649150Y-47817204D01*
X165686693Y-47827264D01*
X165695322Y-47826509D01*
X165725405Y-47823877D01*
X165734034Y-47823500D01*
X167592030Y-47823500D01*
X167650221Y-47842407D01*
X167670571Y-47862232D01*
X167719718Y-47926282D01*
X167845159Y-48022536D01*
X167991238Y-48083044D01*
X168148000Y-48103682D01*
X168304762Y-48083044D01*
X168450841Y-48022536D01*
X168576282Y-47926282D01*
X168672536Y-47800841D01*
X168733044Y-47654762D01*
X168751087Y-47517711D01*
X168752835Y-47504434D01*
X168753682Y-47498000D01*
X168733044Y-47341238D01*
X168672536Y-47195159D01*
X168576282Y-47069718D01*
X168450841Y-46973464D01*
X168304762Y-46912956D01*
X168148000Y-46892318D01*
X167991238Y-46912956D01*
X167845159Y-46973464D01*
X167719718Y-47069718D01*
X167715764Y-47074871D01*
X167670572Y-47133767D01*
X167620148Y-47168423D01*
X167592030Y-47172500D01*
X165891334Y-47172500D01*
X165833143Y-47153593D01*
X165821330Y-47143504D01*
X165215293Y-46537467D01*
X165187516Y-46482950D01*
X165187144Y-46454545D01*
X165197682Y-46374500D01*
X165177044Y-46217738D01*
X165116536Y-46071659D01*
X165020282Y-45946218D01*
X164894841Y-45849964D01*
X164748762Y-45789456D01*
X164592000Y-45768818D01*
X164511958Y-45779356D01*
X164451799Y-45768206D01*
X164429033Y-45751207D01*
X163930496Y-45252670D01*
X163902719Y-45198153D01*
X163901500Y-45182666D01*
X163901500Y-42973970D01*
X163920407Y-42915779D01*
X163940233Y-42895428D01*
X163999129Y-42850236D01*
X164004282Y-42846282D01*
X164100536Y-42720841D01*
X164161044Y-42574762D01*
X164181682Y-42418000D01*
X164161044Y-42261238D01*
X164100536Y-42115159D01*
X164004282Y-41989718D01*
X163878841Y-41893464D01*
X163732762Y-41832956D01*
X163576000Y-41812318D01*
X163419238Y-41832956D01*
X163273159Y-41893464D01*
X163147718Y-41989718D01*
X163051464Y-42115159D01*
X162990956Y-42261238D01*
X162970318Y-42418000D01*
X160599500Y-42418000D01*
X160599500Y-41195970D01*
X160618407Y-41137779D01*
X160638233Y-41117428D01*
X160697129Y-41072236D01*
X160702282Y-41068282D01*
X160798536Y-40942841D01*
X160859044Y-40796762D01*
X160879682Y-40640000D01*
X160859044Y-40483238D01*
X160798536Y-40337159D01*
X160702282Y-40211718D01*
X160576841Y-40115464D01*
X160430762Y-40054956D01*
X160274000Y-40034318D01*
X160117238Y-40054956D01*
X159971159Y-40115464D01*
X159845718Y-40211718D01*
X159749464Y-40337159D01*
X159688956Y-40483238D01*
X159668318Y-40640000D01*
X153035000Y-40640000D01*
X153035000Y-36050949D01*
X159432587Y-36050949D01*
X159453225Y-36207711D01*
X159513733Y-36353790D01*
X159609987Y-36479231D01*
X159735428Y-36575485D01*
X159881507Y-36635993D01*
X160038269Y-36656631D01*
X160118311Y-36646093D01*
X160178470Y-36657243D01*
X160201236Y-36674242D01*
X167031504Y-43504510D01*
X167059281Y-43559027D01*
X167060500Y-43574514D01*
X167060500Y-44402030D01*
X167041593Y-44460221D01*
X167021768Y-44480571D01*
X166957718Y-44529718D01*
X166861464Y-44655159D01*
X166800956Y-44801238D01*
X166780318Y-44958000D01*
X166781165Y-44964434D01*
X166782913Y-44977711D01*
X166800956Y-45114762D01*
X166861464Y-45260841D01*
X166957718Y-45386282D01*
X167083159Y-45482536D01*
X167229238Y-45543044D01*
X167386000Y-45563682D01*
X167542762Y-45543044D01*
X167688841Y-45482536D01*
X167814282Y-45386282D01*
X167910536Y-45260841D01*
X167971044Y-45114762D01*
X167989087Y-44977711D01*
X167990835Y-44964434D01*
X167991682Y-44958000D01*
X167971044Y-44801238D01*
X167910536Y-44655159D01*
X167814282Y-44529718D01*
X167750233Y-44480571D01*
X167715577Y-44430148D01*
X167711500Y-44402030D01*
X167711500Y-43417214D01*
X167711877Y-43408585D01*
X167714509Y-43378502D01*
X167715264Y-43369873D01*
X167705204Y-43332330D01*
X167703334Y-43323896D01*
X167698092Y-43294163D01*
X167698091Y-43294161D01*
X167696588Y-43285635D01*
X167692258Y-43278136D01*
X167690262Y-43272651D01*
X167687796Y-43267364D01*
X167685554Y-43258996D01*
X167663268Y-43227169D01*
X167658627Y-43219885D01*
X167643523Y-43193724D01*
X167639194Y-43186225D01*
X167609429Y-43161249D01*
X167603061Y-43155415D01*
X161981677Y-37534031D01*
X174800451Y-37534031D01*
X174807680Y-37541543D01*
X174875012Y-37579173D01*
X174883834Y-37583028D01*
X175051165Y-37637397D01*
X175060578Y-37639466D01*
X175235280Y-37660298D01*
X175244907Y-37660500D01*
X175420325Y-37647002D01*
X175429816Y-37645329D01*
X175599273Y-37598016D01*
X175608252Y-37594534D01*
X175711902Y-37542176D01*
X175719941Y-37534194D01*
X175714748Y-37523958D01*
X175271086Y-37080296D01*
X175259203Y-37074242D01*
X175254172Y-37075038D01*
X174805928Y-37523282D01*
X174800451Y-37534031D01*
X161981677Y-37534031D01*
X161149187Y-36701541D01*
X174309418Y-36701541D01*
X174324140Y-36876869D01*
X174325878Y-36886337D01*
X174374373Y-37055459D01*
X174377924Y-37064427D01*
X174427934Y-37161738D01*
X174436065Y-37169812D01*
X174446127Y-37164663D01*
X174889704Y-36721086D01*
X174894946Y-36710797D01*
X175624242Y-36710797D01*
X175625038Y-36715828D01*
X176073279Y-37164069D01*
X176084135Y-37169600D01*
X176091542Y-37162522D01*
X176126467Y-37101043D01*
X176130381Y-37092250D01*
X176185918Y-36925301D01*
X176188052Y-36915907D01*
X176210361Y-36739309D01*
X176210748Y-36733782D01*
X176211041Y-36712759D01*
X176210811Y-36707261D01*
X176193439Y-36530078D01*
X176191570Y-36520640D01*
X176140715Y-36352203D01*
X176137045Y-36343298D01*
X176091943Y-36258473D01*
X176083526Y-36250344D01*
X176073807Y-36255403D01*
X175630296Y-36698914D01*
X175624242Y-36710797D01*
X174894946Y-36710797D01*
X174895758Y-36709203D01*
X174894962Y-36704172D01*
X174446681Y-36255891D01*
X174436039Y-36250469D01*
X174428425Y-36257848D01*
X174388162Y-36331086D01*
X174384364Y-36339947D01*
X174331167Y-36507644D01*
X174329163Y-36517072D01*
X174309552Y-36691913D01*
X174309418Y-36701541D01*
X161149187Y-36701541D01*
X160661562Y-36213916D01*
X160633785Y-36159399D01*
X160633413Y-36130994D01*
X160643951Y-36050949D01*
X160623313Y-35894187D01*
X160620041Y-35886287D01*
X174800282Y-35886287D01*
X174805386Y-35896176D01*
X175248914Y-36339704D01*
X175260797Y-36345758D01*
X175265828Y-36344962D01*
X175714180Y-35896610D01*
X175719547Y-35886076D01*
X175712019Y-35878362D01*
X175632812Y-35835534D01*
X175623941Y-35831805D01*
X175455863Y-35779777D01*
X175446429Y-35777840D01*
X175271456Y-35759449D01*
X175261818Y-35759382D01*
X175086605Y-35775327D01*
X175077139Y-35777133D01*
X174908366Y-35826806D01*
X174899425Y-35830419D01*
X174808386Y-35878013D01*
X174800282Y-35886287D01*
X160620041Y-35886287D01*
X160616614Y-35878013D01*
X160575120Y-35777840D01*
X160562805Y-35748108D01*
X160466551Y-35622667D01*
X160341110Y-35526413D01*
X160195031Y-35465905D01*
X160038269Y-35445267D01*
X159881507Y-35465905D01*
X159735428Y-35526413D01*
X159609987Y-35622667D01*
X159513733Y-35748108D01*
X159501418Y-35777840D01*
X159459925Y-35878013D01*
X159453225Y-35894187D01*
X159432587Y-36050949D01*
X153035000Y-36050949D01*
X153035000Y-34096714D01*
X174308511Y-34096714D01*
X174324051Y-34281779D01*
X174325384Y-34286427D01*
X174325384Y-34286428D01*
X174336564Y-34325416D01*
X174375241Y-34460301D01*
X174460132Y-34625480D01*
X174575489Y-34771024D01*
X174579169Y-34774156D01*
X174579171Y-34774158D01*
X174611992Y-34802091D01*
X174716919Y-34891391D01*
X174721141Y-34893751D01*
X174721146Y-34893754D01*
X174824825Y-34951697D01*
X174879035Y-34981994D01*
X174925782Y-34997183D01*
X175051057Y-35037888D01*
X175051060Y-35037889D01*
X175055662Y-35039384D01*
X175240072Y-35061373D01*
X175244894Y-35061002D01*
X175244897Y-35061002D01*
X175420412Y-35047497D01*
X175420417Y-35047496D01*
X175425240Y-35047125D01*
X175604115Y-34997183D01*
X175608433Y-34995002D01*
X175765562Y-34915630D01*
X175765564Y-34915629D01*
X175769883Y-34913447D01*
X175802130Y-34888253D01*
X175912414Y-34802091D01*
X175912418Y-34802087D01*
X175916230Y-34799109D01*
X175940473Y-34771024D01*
X176034416Y-34662189D01*
X176034418Y-34662187D01*
X176037580Y-34658523D01*
X176129313Y-34497043D01*
X176187935Y-34320822D01*
X176211211Y-34136570D01*
X176211582Y-34110000D01*
X176210280Y-34096714D01*
X176193931Y-33929987D01*
X176193459Y-33925170D01*
X176139781Y-33747380D01*
X176052593Y-33583403D01*
X176043610Y-33572388D01*
X175938276Y-33443236D01*
X175938275Y-33443235D01*
X175935215Y-33439483D01*
X175792118Y-33321103D01*
X175628753Y-33232772D01*
X175451342Y-33177854D01*
X175446532Y-33177348D01*
X175446530Y-33177348D01*
X175271459Y-33158947D01*
X175271457Y-33158947D01*
X175266643Y-33158441D01*
X175205654Y-33163991D01*
X175086511Y-33174834D01*
X175086508Y-33174835D01*
X175081691Y-33175273D01*
X175077049Y-33176639D01*
X175077045Y-33176640D01*
X174908178Y-33226341D01*
X174908175Y-33226342D01*
X174903531Y-33227709D01*
X174889447Y-33235072D01*
X174743246Y-33311503D01*
X174743241Y-33311506D01*
X174738949Y-33313750D01*
X174735173Y-33316786D01*
X174735170Y-33316788D01*
X174725969Y-33324186D01*
X174594213Y-33430121D01*
X174591104Y-33433826D01*
X174591101Y-33433829D01*
X174588948Y-33436395D01*
X174474837Y-33572388D01*
X174472501Y-33576636D01*
X174472501Y-33576637D01*
X174470844Y-33579652D01*
X174385367Y-33735132D01*
X174383904Y-33739745D01*
X174383902Y-33739749D01*
X174380012Y-33752012D01*
X174329212Y-33912155D01*
X174308511Y-34096714D01*
X153035000Y-34096714D01*
X153035000Y-32484000D01*
X153053907Y-32425809D01*
X153103407Y-32389845D01*
X153134000Y-32385000D01*
X174578985Y-32385000D01*
X174637176Y-32403907D01*
G37*
%TD.AperFunction*%
%TD*%
M02*
