%TF.GenerationSoftware,KiCad,Pcbnew,6.0.11+dfsg-1*%
%TF.CreationDate,2025-03-15T16:23:49-04:00*%
%TF.ProjectId,quad_direct,71756164-5f64-4697-9265-63742e6b6963,rev?*%
%TF.SameCoordinates,Original*%
%TF.FileFunction,Paste,Top*%
%TF.FilePolarity,Positive*%
%FSLAX46Y46*%
G04 Gerber Fmt 4.6, Leading zero omitted, Abs format (unit mm)*
G04 Created by KiCad (PCBNEW 6.0.11+dfsg-1) date 2025-03-15 16:23:49*
%MOMM*%
%LPD*%
G01*
G04 APERTURE LIST*
G04 Aperture macros list*
%AMRoundRect*
0 Rectangle with rounded corners*
0 $1 Rounding radius*
0 $2 $3 $4 $5 $6 $7 $8 $9 X,Y pos of 4 corners*
0 Add a 4 corners polygon primitive as box body*
4,1,4,$2,$3,$4,$5,$6,$7,$8,$9,$2,$3,0*
0 Add four circle primitives for the rounded corners*
1,1,$1+$1,$2,$3*
1,1,$1+$1,$4,$5*
1,1,$1+$1,$6,$7*
1,1,$1+$1,$8,$9*
0 Add four rect primitives between the rounded corners*
20,1,$1+$1,$2,$3,$4,$5,0*
20,1,$1+$1,$4,$5,$6,$7,0*
20,1,$1+$1,$6,$7,$8,$9,0*
20,1,$1+$1,$8,$9,$2,$3,0*%
G04 Aperture macros list end*
%ADD10RoundRect,0.200000X-0.275000X0.200000X-0.275000X-0.200000X0.275000X-0.200000X0.275000X0.200000X0*%
%ADD11RoundRect,0.200000X0.275000X-0.200000X0.275000X0.200000X-0.275000X0.200000X-0.275000X-0.200000X0*%
%ADD12RoundRect,0.225000X0.250000X-0.225000X0.250000X0.225000X-0.250000X0.225000X-0.250000X-0.225000X0*%
%ADD13RoundRect,0.225000X-0.225000X-0.250000X0.225000X-0.250000X0.225000X0.250000X-0.225000X0.250000X0*%
%ADD14RoundRect,0.225000X-0.250000X0.225000X-0.250000X-0.225000X0.250000X-0.225000X0.250000X0.225000X0*%
%ADD15R,0.800000X0.400000*%
%ADD16R,0.400000X0.800000*%
%ADD17R,1.450000X1.450000*%
%ADD18R,0.700000X0.700000*%
G04 APERTURE END LIST*
D10*
%TO.C,R2*%
X160020000Y-76975000D03*
X160020000Y-78625000D03*
%TD*%
D11*
%TO.C,R1*%
X149860000Y-82100484D03*
X149860000Y-80450484D03*
%TD*%
D12*
%TO.C,C6*%
X148190000Y-80785000D03*
X148190000Y-79235000D03*
%TD*%
D13*
%TO.C,C5*%
X151752000Y-54610000D03*
X153302000Y-54610000D03*
%TD*%
%TO.C,C4*%
X148755000Y-54610000D03*
X150305000Y-54610000D03*
%TD*%
D14*
%TO.C,C3*%
X151130000Y-67932000D03*
X151130000Y-69482000D03*
%TD*%
D12*
%TO.C,C2*%
X151130000Y-66180000D03*
X151130000Y-64630000D03*
%TD*%
%TO.C,C1*%
X151130000Y-63132000D03*
X151130000Y-61582000D03*
%TD*%
D15*
%TO.C,11*%
X154120000Y-64740000D03*
X154120000Y-65540000D03*
X154120000Y-66340000D03*
X154120000Y-67140000D03*
X154120000Y-67940000D03*
X154120000Y-68740000D03*
X154120000Y-69540000D03*
X154120000Y-70340000D03*
X154120000Y-71140000D03*
X154120000Y-71940000D03*
X154120000Y-72740000D03*
D16*
X155220000Y-73640000D03*
X156020000Y-73640000D03*
X156820000Y-73640000D03*
X157620000Y-73640000D03*
X158420000Y-73640000D03*
X159220000Y-73640000D03*
X160020000Y-73640000D03*
X160820000Y-73640000D03*
X161620000Y-73640000D03*
X162420000Y-73640000D03*
X163220000Y-73640000D03*
X164020000Y-73640000D03*
X164820000Y-73640000D03*
D15*
X165920000Y-72740000D03*
X165920000Y-71940000D03*
X165920000Y-71140000D03*
X165920000Y-70340000D03*
X165920000Y-69540000D03*
X165920000Y-68740000D03*
X165920000Y-67940000D03*
X165920000Y-67140000D03*
X165920000Y-66340000D03*
X165920000Y-65540000D03*
X165920000Y-64740000D03*
D16*
X164820000Y-63840000D03*
X164020000Y-63840000D03*
X163220000Y-63840000D03*
X162420000Y-63840000D03*
X161620000Y-63840000D03*
X160820000Y-63840000D03*
X160020000Y-63840000D03*
X159220000Y-63840000D03*
X158420000Y-63840000D03*
X157620000Y-63840000D03*
X156820000Y-63840000D03*
X156020000Y-63840000D03*
X155220000Y-63840000D03*
D17*
X160020000Y-68740000D03*
D18*
X165920000Y-63840000D03*
X165920000Y-73640000D03*
X154120000Y-73640000D03*
X154120000Y-63840000D03*
D17*
X158045000Y-68740000D03*
X158045000Y-70715000D03*
X160020000Y-70715000D03*
X161995000Y-70715000D03*
X161995000Y-68740000D03*
X161995000Y-66765000D03*
X160020000Y-66765000D03*
X158045000Y-66765000D03*
%TD*%
M02*
