M48
; DRILL file {KiCad 6.0.11+dfsg-1} date Sun 16 Mar 2025 05:52:12 PM EDT
; FORMAT={-:-/ absolute / inch / decimal}
; #@! TF.CreationDate,2025-03-16T17:52:12-04:00
; #@! TF.GenerationSoftware,Kicad,Pcbnew,6.0.11+dfsg-1
; #@! TF.FileFunction,Plated,1,2,PTH
FMAT,2
INCH
; #@! TA.AperFunction,Plated,PTH,ViaDrill
T1C0.0157
; #@! TA.AperFunction,Plated,PTH,ComponentDrill
T2C0.0300
; #@! TA.AperFunction,Plated,PTH,ComponentDrill
T3C0.0378
; #@! TA.AperFunction,Plated,PTH,ComponentDrill
T4C0.0433
%
G90
G05
T1
X5.835Y-3.07
X5.895Y-2.11
X5.935Y-3.115
X5.95Y-2.2
X5.95Y-2.79
X5.955Y-2.955
X5.995Y-2.11
X6.01Y-2.78
X6.0182Y-2.6518
X6.05Y-3.3
X6.055Y-3.205
X6.07Y-2.905
X6.11Y-2.96
X6.1109Y-2.7041
X6.145Y-2.855
X6.1589Y-2.5689
X6.165Y-3.3
X6.17Y-2.96
X6.17Y-3.205
X6.2Y-2.1
X6.22Y-2.52
X6.26Y-2.665
X6.26Y-2.745
X6.26Y-3.165
X6.34Y-2.665
X6.34Y-2.745
X6.35Y-2.52
X6.3543Y-2.9893
X6.39Y-2.8599
X6.435Y-2.86
X6.455Y-3.04
X6.455Y-3.205
X6.455Y-3.3
X6.46Y-2.68
X6.465Y-2.745
X6.465Y-2.955
X6.4885Y-2.56
X6.505Y-2.965
X6.545Y-3.04
X6.55Y-3.205
X6.55Y-3.3
X6.555Y-2.955
X6.5713Y-2.5957
X6.58Y-2.79
T2
X5.85Y-2.8006
X5.85Y-2.9006
X5.85Y-3.0006
X5.95Y-2.05
X6.05Y-2.05
X6.6516Y-2.2994
X6.6516Y-2.3994
X6.6516Y-2.4994
T3
X5.85Y-2.05
X5.85Y-2.3006
X5.85Y-2.403
X5.85Y-2.5053
X5.85Y-2.6006
X5.85Y-2.7006
X6.3524Y-2.05
X6.4547Y-2.05
X6.5571Y-2.05
X6.6516Y-2.5994
X6.6516Y-2.6994
X6.6516Y-2.7947
X6.6516Y-2.897
X6.6516Y-2.9994
X6.6524Y-2.05
T4
X6.0114Y-3.122
X6.0114Y-3.378
X6.1886Y-3.122
X6.1886Y-3.378
X6.4114Y-3.122
X6.4114Y-3.378
X6.5886Y-3.122
X6.5886Y-3.378
T0
M30
