%TF.GenerationSoftware,KiCad,Pcbnew,6.0.11+dfsg-1*%
%TF.CreationDate,2025-03-25T22:52:58-04:00*%
%TF.ProjectId,quad_direct,71756164-5f64-4697-9265-63742e6b6963,rev?*%
%TF.SameCoordinates,Original*%
%TF.FileFunction,Legend,Top*%
%TF.FilePolarity,Positive*%
%FSLAX46Y46*%
G04 Gerber Fmt 4.6, Leading zero omitted, Abs format (unit mm)*
G04 Created by KiCad (PCBNEW 6.0.11+dfsg-1) date 2025-03-25 22:52:58*
%MOMM*%
%LPD*%
G01*
G04 APERTURE LIST*
%ADD10C,0.060000*%
%ADD11C,0.006350*%
%ADD12C,0.100000*%
%ADD13C,0.254000*%
%ADD14C,0.150000*%
%ADD15C,0.125000*%
%ADD16C,0.120000*%
%ADD17C,0.200000*%
G04 APERTURE END LIST*
D10*
%TO.C,R2*%
X168225000Y-52683214D02*
X168125000Y-52540357D01*
X168053571Y-52683214D02*
X168053571Y-52383214D01*
X168167857Y-52383214D01*
X168196428Y-52397500D01*
X168210714Y-52411785D01*
X168225000Y-52440357D01*
X168225000Y-52483214D01*
X168210714Y-52511785D01*
X168196428Y-52526071D01*
X168167857Y-52540357D01*
X168053571Y-52540357D01*
X168339285Y-52411785D02*
X168353571Y-52397500D01*
X168382142Y-52383214D01*
X168453571Y-52383214D01*
X168482142Y-52397500D01*
X168496428Y-52411785D01*
X168510714Y-52440357D01*
X168510714Y-52468928D01*
X168496428Y-52511785D01*
X168325000Y-52683214D01*
X168510714Y-52683214D01*
X168096428Y-53683214D02*
X167925000Y-53683214D01*
X168010714Y-53683214D02*
X168010714Y-53383214D01*
X167982142Y-53426071D01*
X167953571Y-53454642D01*
X167925000Y-53468928D01*
X168282142Y-53383214D02*
X168310714Y-53383214D01*
X168339285Y-53397500D01*
X168353571Y-53411785D01*
X168367857Y-53440357D01*
X168382142Y-53497500D01*
X168382142Y-53568928D01*
X168367857Y-53626071D01*
X168353571Y-53654642D01*
X168339285Y-53668928D01*
X168310714Y-53683214D01*
X168282142Y-53683214D01*
X168253571Y-53668928D01*
X168239285Y-53654642D01*
X168225000Y-53626071D01*
X168210714Y-53568928D01*
X168210714Y-53497500D01*
X168225000Y-53440357D01*
X168239285Y-53411785D01*
X168253571Y-53397500D01*
X168282142Y-53383214D01*
X168510714Y-53683214D02*
X168510714Y-53383214D01*
X168539285Y-53568928D02*
X168625000Y-53683214D01*
X168625000Y-53483214D02*
X168510714Y-53597500D01*
D11*
%TO.C,U2*%
X155880647Y-63221090D02*
X155880647Y-63241652D01*
X155881857Y-63244071D01*
X155883066Y-63245280D01*
X155885485Y-63246490D01*
X155890323Y-63246490D01*
X155892742Y-63245280D01*
X155893952Y-63244071D01*
X155895161Y-63241652D01*
X155895161Y-63221090D01*
X155906047Y-63223509D02*
X155907257Y-63222300D01*
X155909676Y-63221090D01*
X155915723Y-63221090D01*
X155918142Y-63222300D01*
X155919352Y-63223509D01*
X155920561Y-63225928D01*
X155920561Y-63228347D01*
X155919352Y-63231976D01*
X155904838Y-63246490D01*
X155920561Y-63246490D01*
D12*
X156626190Y-49592142D02*
X156650000Y-49615952D01*
X156673809Y-49663571D01*
X156673809Y-49782619D01*
X156650000Y-49830238D01*
X156626190Y-49854047D01*
X156578571Y-49877857D01*
X156530952Y-49877857D01*
X156459523Y-49854047D01*
X156173809Y-49568333D01*
X156173809Y-49877857D01*
X156673809Y-57104047D02*
X156673809Y-56865952D01*
X156435714Y-56842142D01*
X156459523Y-56865952D01*
X156483333Y-56913571D01*
X156483333Y-57032619D01*
X156459523Y-57080238D01*
X156435714Y-57104047D01*
X156388095Y-57127857D01*
X156269047Y-57127857D01*
X156221428Y-57104047D01*
X156197619Y-57080238D01*
X156173809Y-57032619D01*
X156173809Y-56913571D01*
X156197619Y-56865952D01*
X156221428Y-56842142D01*
X173590476Y-57032619D02*
X173566666Y-57080238D01*
X173542857Y-57104047D01*
X173495238Y-57127857D01*
X173471428Y-57127857D01*
X173423809Y-57104047D01*
X173400000Y-57080238D01*
X173376190Y-57032619D01*
X173376190Y-56937380D01*
X173400000Y-56889761D01*
X173423809Y-56865952D01*
X173471428Y-56842142D01*
X173495238Y-56842142D01*
X173542857Y-56865952D01*
X173566666Y-56889761D01*
X173590476Y-56937380D01*
X173590476Y-57032619D01*
X173614285Y-57080238D01*
X173638095Y-57104047D01*
X173685714Y-57127857D01*
X173780952Y-57127857D01*
X173828571Y-57104047D01*
X173852380Y-57080238D01*
X173876190Y-57032619D01*
X173876190Y-56937380D01*
X173852380Y-56889761D01*
X173828571Y-56865952D01*
X173780952Y-56842142D01*
X173685714Y-56842142D01*
X173638095Y-56865952D01*
X173614285Y-56889761D01*
X173590476Y-56937380D01*
X156673809Y-59830238D02*
X156673809Y-59735000D01*
X156650000Y-59687380D01*
X156626190Y-59663571D01*
X156554761Y-59615952D01*
X156459523Y-59592142D01*
X156269047Y-59592142D01*
X156221428Y-59615952D01*
X156197619Y-59639761D01*
X156173809Y-59687380D01*
X156173809Y-59782619D01*
X156197619Y-59830238D01*
X156221428Y-59854047D01*
X156269047Y-59877857D01*
X156388095Y-59877857D01*
X156435714Y-59854047D01*
X156459523Y-59830238D01*
X156483333Y-59782619D01*
X156483333Y-59687380D01*
X156459523Y-59639761D01*
X156435714Y-59615952D01*
X156388095Y-59592142D01*
X173876190Y-52080238D02*
X173876190Y-52365952D01*
X173876190Y-52223095D02*
X173376190Y-52223095D01*
X173447619Y-52270714D01*
X173495238Y-52318333D01*
X173519047Y-52365952D01*
X173376190Y-51770714D02*
X173376190Y-51723095D01*
X173400000Y-51675476D01*
X173423809Y-51651666D01*
X173471428Y-51627857D01*
X173566666Y-51604047D01*
X173685714Y-51604047D01*
X173780952Y-51627857D01*
X173828571Y-51651666D01*
X173852380Y-51675476D01*
X173876190Y-51723095D01*
X173876190Y-51770714D01*
X173852380Y-51818333D01*
X173828571Y-51842142D01*
X173780952Y-51865952D01*
X173685714Y-51889761D01*
X173566666Y-51889761D01*
X173471428Y-51865952D01*
X173423809Y-51842142D01*
X173400000Y-51818333D01*
X173376190Y-51770714D01*
X156673809Y-44461190D02*
X156673809Y-44508809D01*
X156650000Y-44556428D01*
X156626190Y-44580238D01*
X156578571Y-44604047D01*
X156483333Y-44627857D01*
X156364285Y-44627857D01*
X156269047Y-44604047D01*
X156221428Y-44580238D01*
X156197619Y-44556428D01*
X156173809Y-44508809D01*
X156173809Y-44461190D01*
X156197619Y-44413571D01*
X156221428Y-44389761D01*
X156269047Y-44365952D01*
X156364285Y-44342142D01*
X156483333Y-44342142D01*
X156578571Y-44365952D01*
X156626190Y-44389761D01*
X156650000Y-44413571D01*
X156673809Y-44461190D01*
X173876190Y-49925476D02*
X173376190Y-49925476D01*
X173376190Y-49806428D01*
X173400000Y-49735000D01*
X173447619Y-49687380D01*
X173495238Y-49663571D01*
X173590476Y-49639761D01*
X173661904Y-49639761D01*
X173757142Y-49663571D01*
X173804761Y-49687380D01*
X173852380Y-49735000D01*
X173876190Y-49806428D01*
X173876190Y-49925476D01*
X173685714Y-49425476D02*
X173685714Y-49044523D01*
X156673809Y-62068333D02*
X156673809Y-62401666D01*
X156173809Y-62187380D01*
X173876190Y-47425476D02*
X173376190Y-47425476D01*
X173376190Y-47306428D01*
X173400000Y-47235000D01*
X173447619Y-47187380D01*
X173495238Y-47163571D01*
X173590476Y-47139761D01*
X173661904Y-47139761D01*
X173757142Y-47163571D01*
X173804761Y-47187380D01*
X173852380Y-47235000D01*
X173876190Y-47306428D01*
X173876190Y-47425476D01*
X173685714Y-46925476D02*
X173685714Y-46544523D01*
X173876190Y-46735000D02*
X173495238Y-46735000D01*
X173685714Y-63235000D02*
X173685714Y-62854047D01*
X173876190Y-63044523D02*
X173495238Y-63044523D01*
X173376190Y-62663571D02*
X173376190Y-62354047D01*
X173566666Y-62520714D01*
X173566666Y-62449285D01*
X173590476Y-62401666D01*
X173614285Y-62377857D01*
X173661904Y-62354047D01*
X173780952Y-62354047D01*
X173828571Y-62377857D01*
X173852380Y-62401666D01*
X173876190Y-62449285D01*
X173876190Y-62592142D01*
X173852380Y-62639761D01*
X173828571Y-62663571D01*
X173828571Y-62139761D02*
X173852380Y-62115952D01*
X173876190Y-62139761D01*
X173852380Y-62163571D01*
X173828571Y-62139761D01*
X173876190Y-62139761D01*
X173376190Y-61949285D02*
X173376190Y-61639761D01*
X173566666Y-61806428D01*
X173566666Y-61735000D01*
X173590476Y-61687380D01*
X173614285Y-61663571D01*
X173661904Y-61639761D01*
X173780952Y-61639761D01*
X173828571Y-61663571D01*
X173852380Y-61687380D01*
X173876190Y-61735000D01*
X173876190Y-61877857D01*
X173852380Y-61925476D01*
X173828571Y-61949285D01*
X173376190Y-61496904D02*
X173876190Y-61330238D01*
X173376190Y-61163571D01*
X173400000Y-60115952D02*
X173376190Y-60163571D01*
X173376190Y-60235000D01*
X173400000Y-60306428D01*
X173447619Y-60354047D01*
X173495238Y-60377857D01*
X173590476Y-60401666D01*
X173661904Y-60401666D01*
X173757142Y-60377857D01*
X173804761Y-60354047D01*
X173852380Y-60306428D01*
X173876190Y-60235000D01*
X173876190Y-60187380D01*
X173852380Y-60115952D01*
X173828571Y-60092142D01*
X173661904Y-60092142D01*
X173661904Y-60187380D01*
X173876190Y-59877857D02*
X173376190Y-59877857D01*
X173876190Y-59592142D01*
X173376190Y-59592142D01*
X173876190Y-59354047D02*
X173376190Y-59354047D01*
X173376190Y-59235000D01*
X173400000Y-59163571D01*
X173447619Y-59115952D01*
X173495238Y-59092142D01*
X173590476Y-59068333D01*
X173661904Y-59068333D01*
X173757142Y-59092142D01*
X173804761Y-59115952D01*
X173852380Y-59163571D01*
X173876190Y-59235000D01*
X173876190Y-59354047D01*
X156673809Y-51818333D02*
X156673809Y-52127857D01*
X156483333Y-51961190D01*
X156483333Y-52032619D01*
X156459523Y-52080238D01*
X156435714Y-52104047D01*
X156388095Y-52127857D01*
X156269047Y-52127857D01*
X156221428Y-52104047D01*
X156197619Y-52080238D01*
X156173809Y-52032619D01*
X156173809Y-51889761D01*
X156197619Y-51842142D01*
X156221428Y-51818333D01*
X156507142Y-54580238D02*
X156173809Y-54580238D01*
X156697619Y-54461190D02*
X156340476Y-54342142D01*
X156340476Y-54651666D01*
X156173809Y-47127857D02*
X156173809Y-46842142D01*
X156173809Y-46985000D02*
X156673809Y-46985000D01*
X156602380Y-46937380D01*
X156554761Y-46889761D01*
X156530952Y-46842142D01*
X173876190Y-55663571D02*
X173876190Y-55568333D01*
X173852380Y-55520714D01*
X173828571Y-55496904D01*
X173757142Y-55449285D01*
X173661904Y-55425476D01*
X173471428Y-55425476D01*
X173423809Y-55449285D01*
X173400000Y-55473095D01*
X173376190Y-55520714D01*
X173376190Y-55615952D01*
X173400000Y-55663571D01*
X173423809Y-55687380D01*
X173471428Y-55711190D01*
X173590476Y-55711190D01*
X173638095Y-55687380D01*
X173661904Y-55663571D01*
X173685714Y-55615952D01*
X173685714Y-55520714D01*
X173661904Y-55473095D01*
X173638095Y-55449285D01*
X173590476Y-55425476D01*
X173352380Y-54854047D02*
X173995238Y-55282619D01*
X173876190Y-54687380D02*
X173376190Y-54687380D01*
X173566666Y-54687380D02*
X173542857Y-54639761D01*
X173542857Y-54544523D01*
X173566666Y-54496904D01*
X173590476Y-54473095D01*
X173638095Y-54449285D01*
X173780952Y-54449285D01*
X173828571Y-54473095D01*
X173852380Y-54496904D01*
X173876190Y-54544523D01*
X173876190Y-54639761D01*
X173852380Y-54687380D01*
X173876190Y-54163571D02*
X173852380Y-54211190D01*
X173828571Y-54235000D01*
X173780952Y-54258809D01*
X173638095Y-54258809D01*
X173590476Y-54235000D01*
X173566666Y-54211190D01*
X173542857Y-54163571D01*
X173542857Y-54092142D01*
X173566666Y-54044523D01*
X173590476Y-54020714D01*
X173638095Y-53996904D01*
X173780952Y-53996904D01*
X173828571Y-54020714D01*
X173852380Y-54044523D01*
X173876190Y-54092142D01*
X173876190Y-54163571D01*
X173876190Y-53711190D02*
X173852380Y-53758809D01*
X173828571Y-53782619D01*
X173780952Y-53806428D01*
X173638095Y-53806428D01*
X173590476Y-53782619D01*
X173566666Y-53758809D01*
X173542857Y-53711190D01*
X173542857Y-53639761D01*
X173566666Y-53592142D01*
X173590476Y-53568333D01*
X173638095Y-53544523D01*
X173780952Y-53544523D01*
X173828571Y-53568333D01*
X173852380Y-53592142D01*
X173876190Y-53639761D01*
X173876190Y-53711190D01*
X173542857Y-53401666D02*
X173542857Y-53211190D01*
X173376190Y-53330238D02*
X173804761Y-53330238D01*
X173852380Y-53306428D01*
X173876190Y-53258809D01*
X173876190Y-53211190D01*
X173876190Y-45294523D02*
X173542857Y-45294523D01*
X173638095Y-45294523D02*
X173590476Y-45270714D01*
X173566666Y-45246904D01*
X173542857Y-45199285D01*
X173542857Y-45151666D01*
X173852380Y-44794523D02*
X173876190Y-44842142D01*
X173876190Y-44937380D01*
X173852380Y-44985000D01*
X173804761Y-45008809D01*
X173614285Y-45008809D01*
X173566666Y-44985000D01*
X173542857Y-44937380D01*
X173542857Y-44842142D01*
X173566666Y-44794523D01*
X173614285Y-44770714D01*
X173661904Y-44770714D01*
X173709523Y-45008809D01*
X173852380Y-44580238D02*
X173876190Y-44532619D01*
X173876190Y-44437380D01*
X173852380Y-44389761D01*
X173804761Y-44365952D01*
X173780952Y-44365952D01*
X173733333Y-44389761D01*
X173709523Y-44437380D01*
X173709523Y-44508809D01*
X173685714Y-44556428D01*
X173638095Y-44580238D01*
X173614285Y-44580238D01*
X173566666Y-44556428D01*
X173542857Y-44508809D01*
X173542857Y-44437380D01*
X173566666Y-44389761D01*
X173852380Y-43961190D02*
X173876190Y-44008809D01*
X173876190Y-44104047D01*
X173852380Y-44151666D01*
X173804761Y-44175476D01*
X173614285Y-44175476D01*
X173566666Y-44151666D01*
X173542857Y-44104047D01*
X173542857Y-44008809D01*
X173566666Y-43961190D01*
X173614285Y-43937380D01*
X173661904Y-43937380D01*
X173709523Y-44175476D01*
X173542857Y-43794523D02*
X173542857Y-43604047D01*
X173376190Y-43723095D02*
X173804761Y-43723095D01*
X173852380Y-43699285D01*
X173876190Y-43651666D01*
X173876190Y-43604047D01*
D10*
%TO.C,R3*%
X162700000Y-45585714D02*
X162600000Y-45442857D01*
X162528571Y-45585714D02*
X162528571Y-45285714D01*
X162642857Y-45285714D01*
X162671428Y-45300000D01*
X162685714Y-45314285D01*
X162700000Y-45342857D01*
X162700000Y-45385714D01*
X162685714Y-45414285D01*
X162671428Y-45428571D01*
X162642857Y-45442857D01*
X162528571Y-45442857D01*
X162800000Y-45285714D02*
X162985714Y-45285714D01*
X162885714Y-45400000D01*
X162928571Y-45400000D01*
X162957142Y-45414285D01*
X162971428Y-45428571D01*
X162985714Y-45457142D01*
X162985714Y-45528571D01*
X162971428Y-45557142D01*
X162957142Y-45571428D01*
X162928571Y-45585714D01*
X162842857Y-45585714D01*
X162814285Y-45571428D01*
X162800000Y-45557142D01*
X162571428Y-46585714D02*
X162400000Y-46585714D01*
X162485714Y-46585714D02*
X162485714Y-46285714D01*
X162457142Y-46328571D01*
X162428571Y-46357142D01*
X162400000Y-46371428D01*
X162757142Y-46285714D02*
X162785714Y-46285714D01*
X162814285Y-46300000D01*
X162828571Y-46314285D01*
X162842857Y-46342857D01*
X162857142Y-46400000D01*
X162857142Y-46471428D01*
X162842857Y-46528571D01*
X162828571Y-46557142D01*
X162814285Y-46571428D01*
X162785714Y-46585714D01*
X162757142Y-46585714D01*
X162728571Y-46571428D01*
X162714285Y-46557142D01*
X162700000Y-46528571D01*
X162685714Y-46471428D01*
X162685714Y-46400000D01*
X162700000Y-46342857D01*
X162714285Y-46314285D01*
X162728571Y-46300000D01*
X162757142Y-46285714D01*
X162985714Y-46585714D02*
X162985714Y-46285714D01*
X163014285Y-46471428D02*
X163100000Y-46585714D01*
X163100000Y-46385714D02*
X162985714Y-46500000D01*
%TO.C,C6*%
X159410000Y-54927142D02*
X159395714Y-54941428D01*
X159352857Y-54955714D01*
X159324285Y-54955714D01*
X159281428Y-54941428D01*
X159252857Y-54912857D01*
X159238571Y-54884285D01*
X159224285Y-54827142D01*
X159224285Y-54784285D01*
X159238571Y-54727142D01*
X159252857Y-54698571D01*
X159281428Y-54670000D01*
X159324285Y-54655714D01*
X159352857Y-54655714D01*
X159395714Y-54670000D01*
X159410000Y-54684285D01*
X159667142Y-54655714D02*
X159610000Y-54655714D01*
X159581428Y-54670000D01*
X159567142Y-54684285D01*
X159538571Y-54727142D01*
X159524285Y-54784285D01*
X159524285Y-54898571D01*
X159538571Y-54927142D01*
X159552857Y-54941428D01*
X159581428Y-54955714D01*
X159638571Y-54955714D01*
X159667142Y-54941428D01*
X159681428Y-54927142D01*
X159695714Y-54898571D01*
X159695714Y-54827142D01*
X159681428Y-54798571D01*
X159667142Y-54784285D01*
X159638571Y-54770000D01*
X159581428Y-54770000D01*
X159552857Y-54784285D01*
X159538571Y-54798571D01*
X159524285Y-54827142D01*
X160781428Y-54955714D02*
X160610000Y-54955714D01*
X160695714Y-54955714D02*
X160695714Y-54655714D01*
X160667142Y-54698571D01*
X160638571Y-54727142D01*
X160610000Y-54741428D01*
X161038571Y-54755714D02*
X161038571Y-54955714D01*
X160910000Y-54755714D02*
X160910000Y-54912857D01*
X160924285Y-54941428D01*
X160952857Y-54955714D01*
X160995714Y-54955714D01*
X161024285Y-54941428D01*
X161038571Y-54927142D01*
X161281428Y-54798571D02*
X161181428Y-54798571D01*
X161181428Y-54955714D02*
X161181428Y-54655714D01*
X161324285Y-54655714D01*
D13*
%TO.C,111*%
X164253333Y-35384523D02*
X163527619Y-35384523D01*
X163890476Y-35384523D02*
X163890476Y-34114523D01*
X163769523Y-34295952D01*
X163648571Y-34416904D01*
X163527619Y-34477380D01*
X165462857Y-35384523D02*
X164737142Y-35384523D01*
X165100000Y-35384523D02*
X165100000Y-34114523D01*
X164979047Y-34295952D01*
X164858095Y-34416904D01*
X164737142Y-34477380D01*
X166672380Y-35384523D02*
X165946666Y-35384523D01*
X166309523Y-35384523D02*
X166309523Y-34114523D01*
X166188571Y-34295952D01*
X166067619Y-34416904D01*
X165946666Y-34477380D01*
D10*
%TO.C,C3*%
X157318163Y-35602389D02*
X157332449Y-35616674D01*
X157346735Y-35659531D01*
X157346735Y-35688103D01*
X157332449Y-35730960D01*
X157303878Y-35759531D01*
X157275306Y-35773817D01*
X157218163Y-35788103D01*
X157175306Y-35788103D01*
X157118163Y-35773817D01*
X157089592Y-35759531D01*
X157061021Y-35730960D01*
X157046735Y-35688103D01*
X157046735Y-35659531D01*
X157061021Y-35616674D01*
X157075306Y-35602389D01*
X157046735Y-35502389D02*
X157046735Y-35316674D01*
X157161021Y-35416674D01*
X157161021Y-35373817D01*
X157175306Y-35345246D01*
X157189592Y-35330960D01*
X157218163Y-35316674D01*
X157289592Y-35316674D01*
X157318163Y-35330960D01*
X157332449Y-35345246D01*
X157346735Y-35373817D01*
X157346735Y-35459531D01*
X157332449Y-35488103D01*
X157318163Y-35502389D01*
X157072857Y-33762142D02*
X157087142Y-33776428D01*
X157072857Y-33790714D01*
X157058571Y-33776428D01*
X157072857Y-33762142D01*
X157072857Y-33790714D01*
X157372857Y-33790714D02*
X157201428Y-33790714D01*
X157287142Y-33790714D02*
X157287142Y-33490714D01*
X157258571Y-33533571D01*
X157230000Y-33562142D01*
X157201428Y-33576428D01*
X157630000Y-33590714D02*
X157630000Y-33790714D01*
X157501428Y-33590714D02*
X157501428Y-33747857D01*
X157515714Y-33776428D01*
X157544285Y-33790714D01*
X157587142Y-33790714D01*
X157615714Y-33776428D01*
X157630000Y-33762142D01*
X157872857Y-33633571D02*
X157772857Y-33633571D01*
X157772857Y-33790714D02*
X157772857Y-33490714D01*
X157915714Y-33490714D01*
%TO.C,R4*%
X166785000Y-45585714D02*
X166685000Y-45442857D01*
X166613571Y-45585714D02*
X166613571Y-45285714D01*
X166727857Y-45285714D01*
X166756428Y-45300000D01*
X166770714Y-45314285D01*
X166785000Y-45342857D01*
X166785000Y-45385714D01*
X166770714Y-45414285D01*
X166756428Y-45428571D01*
X166727857Y-45442857D01*
X166613571Y-45442857D01*
X167042142Y-45385714D02*
X167042142Y-45585714D01*
X166970714Y-45271428D02*
X166899285Y-45485714D01*
X167085000Y-45485714D01*
X166656428Y-46585714D02*
X166485000Y-46585714D01*
X166570714Y-46585714D02*
X166570714Y-46285714D01*
X166542142Y-46328571D01*
X166513571Y-46357142D01*
X166485000Y-46371428D01*
X166842142Y-46285714D02*
X166870714Y-46285714D01*
X166899285Y-46300000D01*
X166913571Y-46314285D01*
X166927857Y-46342857D01*
X166942142Y-46400000D01*
X166942142Y-46471428D01*
X166927857Y-46528571D01*
X166913571Y-46557142D01*
X166899285Y-46571428D01*
X166870714Y-46585714D01*
X166842142Y-46585714D01*
X166813571Y-46571428D01*
X166799285Y-46557142D01*
X166785000Y-46528571D01*
X166770714Y-46471428D01*
X166770714Y-46400000D01*
X166785000Y-46342857D01*
X166799285Y-46314285D01*
X166813571Y-46300000D01*
X166842142Y-46285714D01*
X167070714Y-46585714D02*
X167070714Y-46285714D01*
X167099285Y-46471428D02*
X167185000Y-46585714D01*
X167185000Y-46385714D02*
X167070714Y-46500000D01*
D13*
%TO.C,U1*%
X174292380Y-29149523D02*
X174292380Y-30177619D01*
X174352857Y-30298571D01*
X174413333Y-30359047D01*
X174534285Y-30419523D01*
X174776190Y-30419523D01*
X174897142Y-30359047D01*
X174957619Y-30298571D01*
X175018095Y-30177619D01*
X175018095Y-29149523D01*
X176288095Y-30419523D02*
X175562380Y-30419523D01*
X175925238Y-30419523D02*
X175925238Y-29149523D01*
X175804285Y-29330952D01*
X175683333Y-29451904D01*
X175562380Y-29512380D01*
D14*
X174076666Y-34176666D02*
X173743333Y-34410000D01*
X174076666Y-34576666D02*
X173376666Y-34576666D01*
X173376666Y-34310000D01*
X173410000Y-34243333D01*
X173443333Y-34210000D01*
X173510000Y-34176666D01*
X173610000Y-34176666D01*
X173676666Y-34210000D01*
X173710000Y-34243333D01*
X173743333Y-34310000D01*
X173743333Y-34576666D01*
X173376666Y-33943333D02*
X174076666Y-33476666D01*
X173376666Y-33476666D02*
X174076666Y-33943333D01*
X173376666Y-32093333D02*
X173376666Y-31693333D01*
X174076666Y-31893333D02*
X173376666Y-31893333D01*
X173376666Y-31526666D02*
X174076666Y-31060000D01*
X173376666Y-31060000D02*
X174076666Y-31526666D01*
X173410000Y-37343333D02*
X173376666Y-37410000D01*
X173376666Y-37510000D01*
X173410000Y-37610000D01*
X173476666Y-37676666D01*
X173543333Y-37710000D01*
X173676666Y-37743333D01*
X173776666Y-37743333D01*
X173910000Y-37710000D01*
X173976666Y-37676666D01*
X174043333Y-37610000D01*
X174076666Y-37510000D01*
X174076666Y-37443333D01*
X174043333Y-37343333D01*
X174010000Y-37310000D01*
X173776666Y-37310000D01*
X173776666Y-37443333D01*
X174076666Y-37010000D02*
X173376666Y-37010000D01*
X174076666Y-36610000D01*
X173376666Y-36610000D01*
X174076666Y-36276666D02*
X173376666Y-36276666D01*
X173376666Y-36110000D01*
X173410000Y-36010000D01*
X173476666Y-35943333D01*
X173543333Y-35910000D01*
X173676666Y-35876666D01*
X173776666Y-35876666D01*
X173910000Y-35910000D01*
X173976666Y-35943333D01*
X174043333Y-36010000D01*
X174076666Y-36110000D01*
X174076666Y-36276666D01*
X173376666Y-39443333D02*
X173376666Y-39776666D01*
X173710000Y-39810000D01*
X173676666Y-39776666D01*
X173643333Y-39710000D01*
X173643333Y-39543333D01*
X173676666Y-39476666D01*
X173710000Y-39443333D01*
X173776666Y-39410000D01*
X173943333Y-39410000D01*
X174010000Y-39443333D01*
X174043333Y-39476666D01*
X174076666Y-39543333D01*
X174076666Y-39710000D01*
X174043333Y-39776666D01*
X174010000Y-39810000D01*
X173376666Y-39210000D02*
X174076666Y-38976666D01*
X173376666Y-38743333D01*
D10*
%TO.C,C4*%
X164225000Y-50887142D02*
X164210714Y-50901428D01*
X164167857Y-50915714D01*
X164139285Y-50915714D01*
X164096428Y-50901428D01*
X164067857Y-50872857D01*
X164053571Y-50844285D01*
X164039285Y-50787142D01*
X164039285Y-50744285D01*
X164053571Y-50687142D01*
X164067857Y-50658571D01*
X164096428Y-50630000D01*
X164139285Y-50615714D01*
X164167857Y-50615714D01*
X164210714Y-50630000D01*
X164225000Y-50644285D01*
X164482142Y-50715714D02*
X164482142Y-50915714D01*
X164410714Y-50601428D02*
X164339285Y-50815714D01*
X164525000Y-50815714D01*
X162367857Y-50887142D02*
X162382142Y-50901428D01*
X162367857Y-50915714D01*
X162353571Y-50901428D01*
X162367857Y-50887142D01*
X162367857Y-50915714D01*
X162667857Y-50915714D02*
X162496428Y-50915714D01*
X162582142Y-50915714D02*
X162582142Y-50615714D01*
X162553571Y-50658571D01*
X162525000Y-50687142D01*
X162496428Y-50701428D01*
X162925000Y-50715714D02*
X162925000Y-50915714D01*
X162796428Y-50715714D02*
X162796428Y-50872857D01*
X162810714Y-50901428D01*
X162839285Y-50915714D01*
X162882142Y-50915714D01*
X162910714Y-50901428D01*
X162925000Y-50887142D01*
X163167857Y-50758571D02*
X163067857Y-50758571D01*
X163067857Y-50915714D02*
X163067857Y-50615714D01*
X163210714Y-50615714D01*
%TO.C,C7*%
X168975000Y-54602142D02*
X168960714Y-54616428D01*
X168917857Y-54630714D01*
X168889285Y-54630714D01*
X168846428Y-54616428D01*
X168817857Y-54587857D01*
X168803571Y-54559285D01*
X168789285Y-54502142D01*
X168789285Y-54459285D01*
X168803571Y-54402142D01*
X168817857Y-54373571D01*
X168846428Y-54345000D01*
X168889285Y-54330714D01*
X168917857Y-54330714D01*
X168960714Y-54345000D01*
X168975000Y-54359285D01*
X169075000Y-54330714D02*
X169275000Y-54330714D01*
X169146428Y-54630714D01*
X167117857Y-54602142D02*
X167132142Y-54616428D01*
X167117857Y-54630714D01*
X167103571Y-54616428D01*
X167117857Y-54602142D01*
X167117857Y-54630714D01*
X167417857Y-54630714D02*
X167246428Y-54630714D01*
X167332142Y-54630714D02*
X167332142Y-54330714D01*
X167303571Y-54373571D01*
X167275000Y-54402142D01*
X167246428Y-54416428D01*
X167675000Y-54430714D02*
X167675000Y-54630714D01*
X167546428Y-54430714D02*
X167546428Y-54587857D01*
X167560714Y-54616428D01*
X167589285Y-54630714D01*
X167632142Y-54630714D01*
X167660714Y-54616428D01*
X167675000Y-54602142D01*
X167917857Y-54473571D02*
X167817857Y-54473571D01*
X167817857Y-54630714D02*
X167817857Y-54330714D01*
X167960714Y-54330714D01*
%TO.C,C1*%
X156390653Y-38207142D02*
X156376367Y-38221428D01*
X156333510Y-38235714D01*
X156304938Y-38235714D01*
X156262081Y-38221428D01*
X156233510Y-38192857D01*
X156219224Y-38164285D01*
X156204938Y-38107142D01*
X156204938Y-38064285D01*
X156219224Y-38007142D01*
X156233510Y-37978571D01*
X156262081Y-37950000D01*
X156304938Y-37935714D01*
X156333510Y-37935714D01*
X156376367Y-37950000D01*
X156390653Y-37964285D01*
X156676367Y-38235714D02*
X156504938Y-38235714D01*
X156590653Y-38235714D02*
X156590653Y-37935714D01*
X156562081Y-37978571D01*
X156533510Y-38007142D01*
X156504938Y-38021428D01*
X155369224Y-39505714D02*
X155197795Y-39505714D01*
X155283510Y-39505714D02*
X155283510Y-39205714D01*
X155254938Y-39248571D01*
X155226367Y-39277142D01*
X155197795Y-39291428D01*
X155554938Y-39205714D02*
X155583510Y-39205714D01*
X155612081Y-39220000D01*
X155626367Y-39234285D01*
X155640653Y-39262857D01*
X155654938Y-39320000D01*
X155654938Y-39391428D01*
X155640653Y-39448571D01*
X155626367Y-39477142D01*
X155612081Y-39491428D01*
X155583510Y-39505714D01*
X155554938Y-39505714D01*
X155526367Y-39491428D01*
X155512081Y-39477142D01*
X155497795Y-39448571D01*
X155483510Y-39391428D01*
X155483510Y-39320000D01*
X155497795Y-39262857D01*
X155512081Y-39234285D01*
X155526367Y-39220000D01*
X155554938Y-39205714D01*
X155912081Y-39305714D02*
X155912081Y-39505714D01*
X155783510Y-39305714D02*
X155783510Y-39462857D01*
X155797795Y-39491428D01*
X155826367Y-39505714D01*
X155869224Y-39505714D01*
X155897795Y-39491428D01*
X155912081Y-39477142D01*
X156154938Y-39348571D02*
X156054938Y-39348571D01*
X156054938Y-39505714D02*
X156054938Y-39205714D01*
X156197795Y-39205714D01*
D14*
%TO.C,SW2*%
X170250325Y-62368333D02*
X170297944Y-62225476D01*
X170297944Y-61987380D01*
X170250325Y-61892142D01*
X170202706Y-61844523D01*
X170107468Y-61796904D01*
X170012230Y-61796904D01*
X169916992Y-61844523D01*
X169869373Y-61892142D01*
X169821754Y-61987380D01*
X169774135Y-62177857D01*
X169726516Y-62273095D01*
X169678897Y-62320714D01*
X169583659Y-62368333D01*
X169488421Y-62368333D01*
X169393183Y-62320714D01*
X169345564Y-62273095D01*
X169297944Y-62177857D01*
X169297944Y-61939761D01*
X169345564Y-61796904D01*
X169297944Y-61463571D02*
X170297944Y-61225476D01*
X169583659Y-61035000D01*
X170297944Y-60844523D01*
X169297944Y-60606428D01*
X169393183Y-60273095D02*
X169345564Y-60225476D01*
X169297944Y-60130238D01*
X169297944Y-59892142D01*
X169345564Y-59796904D01*
X169393183Y-59749285D01*
X169488421Y-59701666D01*
X169583659Y-59701666D01*
X169726516Y-59749285D01*
X170297944Y-60320714D01*
X170297944Y-59701666D01*
D10*
%TO.C,C2*%
X155631322Y-35610000D02*
X155645608Y-35624285D01*
X155659894Y-35667142D01*
X155659894Y-35695714D01*
X155645608Y-35738571D01*
X155617037Y-35767142D01*
X155588465Y-35781428D01*
X155531322Y-35795714D01*
X155488465Y-35795714D01*
X155431322Y-35781428D01*
X155402751Y-35767142D01*
X155374180Y-35738571D01*
X155359894Y-35695714D01*
X155359894Y-35667142D01*
X155374180Y-35624285D01*
X155388465Y-35610000D01*
X155388465Y-35495714D02*
X155374180Y-35481428D01*
X155359894Y-35452857D01*
X155359894Y-35381428D01*
X155374180Y-35352857D01*
X155388465Y-35338571D01*
X155417037Y-35324285D01*
X155445608Y-35324285D01*
X155488465Y-35338571D01*
X155659894Y-35510000D01*
X155659894Y-35324285D01*
X155396428Y-33790714D02*
X155225000Y-33790714D01*
X155310714Y-33790714D02*
X155310714Y-33490714D01*
X155282142Y-33533571D01*
X155253571Y-33562142D01*
X155225000Y-33576428D01*
X155653571Y-33590714D02*
X155653571Y-33790714D01*
X155525000Y-33590714D02*
X155525000Y-33747857D01*
X155539285Y-33776428D01*
X155567857Y-33790714D01*
X155610714Y-33790714D01*
X155639285Y-33776428D01*
X155653571Y-33762142D01*
X155896428Y-33633571D02*
X155796428Y-33633571D01*
X155796428Y-33790714D02*
X155796428Y-33490714D01*
X155939285Y-33490714D01*
D13*
%TO.C,U4*%
X174292380Y-41849523D02*
X174292380Y-42877619D01*
X174352857Y-42998571D01*
X174413333Y-43059047D01*
X174534285Y-43119523D01*
X174776190Y-43119523D01*
X174897142Y-43059047D01*
X174957619Y-42998571D01*
X175018095Y-42877619D01*
X175018095Y-41849523D01*
X176167142Y-42272857D02*
X176167142Y-43119523D01*
X175864761Y-41789047D02*
X175562380Y-42696190D01*
X176348571Y-42696190D01*
D15*
X168444761Y-47224190D02*
X168754285Y-47224190D01*
X168587619Y-47414666D01*
X168659047Y-47414666D01*
X168706666Y-47438476D01*
X168730476Y-47462285D01*
X168754285Y-47509904D01*
X168754285Y-47628952D01*
X168730476Y-47676571D01*
X168706666Y-47700380D01*
X168659047Y-47724190D01*
X168516190Y-47724190D01*
X168468571Y-47700380D01*
X168444761Y-47676571D01*
X168920952Y-47390857D02*
X169040000Y-47724190D01*
X169159047Y-47390857D01*
X169301904Y-47224190D02*
X169611428Y-47224190D01*
X169444761Y-47414666D01*
X169516190Y-47414666D01*
X169563809Y-47438476D01*
X169587619Y-47462285D01*
X169611428Y-47509904D01*
X169611428Y-47628952D01*
X169587619Y-47676571D01*
X169563809Y-47700380D01*
X169516190Y-47724190D01*
X169373333Y-47724190D01*
X169325714Y-47700380D01*
X169301904Y-47676571D01*
X163381619Y-47224190D02*
X163548285Y-47724190D01*
X163714952Y-47224190D01*
X163762571Y-47771809D02*
X164143523Y-47771809D01*
X164262571Y-47724190D02*
X164262571Y-47390857D01*
X164262571Y-47224190D02*
X164238761Y-47248000D01*
X164262571Y-47271809D01*
X164286380Y-47248000D01*
X164262571Y-47224190D01*
X164262571Y-47271809D01*
X164500666Y-47390857D02*
X164500666Y-47724190D01*
X164500666Y-47438476D02*
X164524476Y-47414666D01*
X164572095Y-47390857D01*
X164643523Y-47390857D01*
X164691142Y-47414666D01*
X164714952Y-47462285D01*
X164714952Y-47724190D01*
X166159047Y-47248000D02*
X166111428Y-47224190D01*
X166040000Y-47224190D01*
X165968571Y-47248000D01*
X165920952Y-47295619D01*
X165897142Y-47343238D01*
X165873333Y-47438476D01*
X165873333Y-47509904D01*
X165897142Y-47605142D01*
X165920952Y-47652761D01*
X165968571Y-47700380D01*
X166040000Y-47724190D01*
X166087619Y-47724190D01*
X166159047Y-47700380D01*
X166182857Y-47676571D01*
X166182857Y-47509904D01*
X166087619Y-47509904D01*
X166397142Y-47724190D02*
X166397142Y-47224190D01*
X166682857Y-47724190D01*
X166682857Y-47224190D01*
X166920952Y-47724190D02*
X166920952Y-47224190D01*
X167040000Y-47224190D01*
X167111428Y-47248000D01*
X167159047Y-47295619D01*
X167182857Y-47343238D01*
X167206666Y-47438476D01*
X167206666Y-47509904D01*
X167182857Y-47605142D01*
X167159047Y-47652761D01*
X167111428Y-47700380D01*
X167040000Y-47724190D01*
X166920952Y-47724190D01*
D14*
%TO.C,SW1*%
X160904761Y-62368333D02*
X160952380Y-62225476D01*
X160952380Y-61987380D01*
X160904761Y-61892142D01*
X160857142Y-61844523D01*
X160761904Y-61796904D01*
X160666666Y-61796904D01*
X160571428Y-61844523D01*
X160523809Y-61892142D01*
X160476190Y-61987380D01*
X160428571Y-62177857D01*
X160380952Y-62273095D01*
X160333333Y-62320714D01*
X160238095Y-62368333D01*
X160142857Y-62368333D01*
X160047619Y-62320714D01*
X160000000Y-62273095D01*
X159952380Y-62177857D01*
X159952380Y-61939761D01*
X160000000Y-61796904D01*
X159952380Y-61463571D02*
X160952380Y-61225476D01*
X160238095Y-61035000D01*
X160952380Y-60844523D01*
X159952380Y-60606428D01*
X160952380Y-59701666D02*
X160952380Y-60273095D01*
X160952380Y-59987380D02*
X159952380Y-59987380D01*
X160095238Y-60082619D01*
X160190476Y-60177857D01*
X160238095Y-60273095D01*
D10*
%TO.C,R1*%
X163475000Y-55205714D02*
X163375000Y-55062857D01*
X163303571Y-55205714D02*
X163303571Y-54905714D01*
X163417857Y-54905714D01*
X163446428Y-54920000D01*
X163460714Y-54934285D01*
X163475000Y-54962857D01*
X163475000Y-55005714D01*
X163460714Y-55034285D01*
X163446428Y-55048571D01*
X163417857Y-55062857D01*
X163303571Y-55062857D01*
X163760714Y-55205714D02*
X163589285Y-55205714D01*
X163675000Y-55205714D02*
X163675000Y-54905714D01*
X163646428Y-54948571D01*
X163617857Y-54977142D01*
X163589285Y-54991428D01*
X163346428Y-54205714D02*
X163175000Y-54205714D01*
X163260714Y-54205714D02*
X163260714Y-53905714D01*
X163232142Y-53948571D01*
X163203571Y-53977142D01*
X163175000Y-53991428D01*
X163532142Y-53905714D02*
X163560714Y-53905714D01*
X163589285Y-53920000D01*
X163603571Y-53934285D01*
X163617857Y-53962857D01*
X163632142Y-54020000D01*
X163632142Y-54091428D01*
X163617857Y-54148571D01*
X163603571Y-54177142D01*
X163589285Y-54191428D01*
X163560714Y-54205714D01*
X163532142Y-54205714D01*
X163503571Y-54191428D01*
X163489285Y-54177142D01*
X163475000Y-54148571D01*
X163460714Y-54091428D01*
X163460714Y-54020000D01*
X163475000Y-53962857D01*
X163489285Y-53934285D01*
X163503571Y-53920000D01*
X163532142Y-53905714D01*
X163760714Y-54205714D02*
X163760714Y-53905714D01*
X163789285Y-54091428D02*
X163875000Y-54205714D01*
X163875000Y-54005714D02*
X163760714Y-54120000D01*
D14*
%TO.C,D1*%
X160312380Y-49633095D02*
X159312380Y-49633095D01*
X159312380Y-49395000D01*
X159360000Y-49252142D01*
X159455238Y-49156904D01*
X159550476Y-49109285D01*
X159740952Y-49061666D01*
X159883809Y-49061666D01*
X160074285Y-49109285D01*
X160169523Y-49156904D01*
X160264761Y-49252142D01*
X160312380Y-49395000D01*
X160312380Y-49633095D01*
X160312380Y-48109285D02*
X160312380Y-48680714D01*
X160312380Y-48395000D02*
X159312380Y-48395000D01*
X159455238Y-48490238D01*
X159550476Y-48585476D01*
X159598095Y-48680714D01*
D10*
%TO.C,C5*%
X169495000Y-50907142D02*
X169480714Y-50921428D01*
X169437857Y-50935714D01*
X169409285Y-50935714D01*
X169366428Y-50921428D01*
X169337857Y-50892857D01*
X169323571Y-50864285D01*
X169309285Y-50807142D01*
X169309285Y-50764285D01*
X169323571Y-50707142D01*
X169337857Y-50678571D01*
X169366428Y-50650000D01*
X169409285Y-50635714D01*
X169437857Y-50635714D01*
X169480714Y-50650000D01*
X169495000Y-50664285D01*
X169766428Y-50635714D02*
X169623571Y-50635714D01*
X169609285Y-50778571D01*
X169623571Y-50764285D01*
X169652142Y-50750000D01*
X169723571Y-50750000D01*
X169752142Y-50764285D01*
X169766428Y-50778571D01*
X169780714Y-50807142D01*
X169780714Y-50878571D01*
X169766428Y-50907142D01*
X169752142Y-50921428D01*
X169723571Y-50935714D01*
X169652142Y-50935714D01*
X169623571Y-50921428D01*
X169609285Y-50907142D01*
X167197857Y-50907142D02*
X167212142Y-50921428D01*
X167197857Y-50935714D01*
X167183571Y-50921428D01*
X167197857Y-50907142D01*
X167197857Y-50935714D01*
X167497857Y-50935714D02*
X167326428Y-50935714D01*
X167412142Y-50935714D02*
X167412142Y-50635714D01*
X167383571Y-50678571D01*
X167355000Y-50707142D01*
X167326428Y-50721428D01*
X167755000Y-50735714D02*
X167755000Y-50935714D01*
X167626428Y-50735714D02*
X167626428Y-50892857D01*
X167640714Y-50921428D01*
X167669285Y-50935714D01*
X167712142Y-50935714D01*
X167740714Y-50921428D01*
X167755000Y-50907142D01*
X167997857Y-50778571D02*
X167897857Y-50778571D01*
X167897857Y-50935714D02*
X167897857Y-50635714D01*
X168040714Y-50635714D01*
D16*
%TO.C,R2*%
X168037742Y-54070000D02*
X168512258Y-54070000D01*
X168037742Y-53025000D02*
X168512258Y-53025000D01*
%TO.C,R3*%
X162512742Y-45927500D02*
X162987258Y-45927500D01*
X162512742Y-46972500D02*
X162987258Y-46972500D01*
%TO.C,C6*%
X160350580Y-53560000D02*
X160069420Y-53560000D01*
X160350580Y-54580000D02*
X160069420Y-54580000D01*
D12*
%TO.C,111*%
X160350000Y-34560000D02*
X160350000Y-34560000D01*
D17*
X158500000Y-27260000D02*
X171700000Y-27260000D01*
X158500000Y-32660000D02*
X158500000Y-27260000D01*
D12*
X160250000Y-34560000D02*
X160250000Y-34560000D01*
D17*
X171700000Y-27260000D02*
X171700000Y-32660000D01*
D12*
X160350000Y-34560000D02*
G75*
G03*
X160250000Y-34560000I-50000J0D01*
G01*
X160250000Y-34560000D02*
G75*
G03*
X160350000Y-34560000I50000J0D01*
G01*
D16*
%TO.C,C3*%
X157747444Y-35692969D02*
X157747444Y-35411809D01*
X156727444Y-35692969D02*
X156727444Y-35411809D01*
%TO.C,R4*%
X166597742Y-46972500D02*
X167072258Y-46972500D01*
X166597742Y-45927500D02*
X167072258Y-45927500D01*
%TO.C,C4*%
X163384420Y-52040000D02*
X163665580Y-52040000D01*
X163384420Y-51020000D02*
X163665580Y-51020000D01*
%TO.C,C7*%
X168134420Y-54735000D02*
X168415580Y-54735000D01*
X168134420Y-55755000D02*
X168415580Y-55755000D01*
%TO.C,C1*%
X156300073Y-37590000D02*
X156581233Y-37590000D01*
X156300073Y-38610000D02*
X156581233Y-38610000D01*
%TO.C,SW2*%
X170595564Y-57535000D02*
X169095564Y-57535000D01*
X166595564Y-58785000D02*
X166595564Y-63285000D01*
X173095564Y-63285000D02*
X173095564Y-58785000D01*
X169095564Y-64535000D02*
X170595564Y-64535000D01*
%TO.C,C2*%
X156007444Y-35700580D02*
X156007444Y-35419420D01*
X154987444Y-35700580D02*
X154987444Y-35419420D01*
%TO.C,SW1*%
X163750000Y-63285000D02*
X163750000Y-58785000D01*
X161250000Y-57535000D02*
X159750000Y-57535000D01*
X159750000Y-64535000D02*
X161250000Y-64535000D01*
X157250000Y-58785000D02*
X157250000Y-63285000D01*
%TO.C,R1*%
X163762258Y-53547500D02*
X163287742Y-53547500D01*
X163762258Y-54592500D02*
X163287742Y-54592500D01*
%TO.C,D1*%
X162025000Y-50555000D02*
X162025000Y-48095000D01*
X160555000Y-50555000D02*
X162025000Y-50555000D01*
X160555000Y-48095000D02*
X160555000Y-50555000D01*
%TO.C,C5*%
X168464420Y-52040000D02*
X168745580Y-52040000D01*
X168464420Y-51020000D02*
X168745580Y-51020000D01*
%TD*%
M02*
