%TF.GenerationSoftware,KiCad,Pcbnew,6.0.11+dfsg-1*%
%TF.CreationDate,2025-03-16T17:52:09-04:00*%
%TF.ProjectId,quad_direct,71756164-5f64-4697-9265-63742e6b6963,rev?*%
%TF.SameCoordinates,Original*%
%TF.FileFunction,Copper,L1,Top*%
%TF.FilePolarity,Positive*%
%FSLAX46Y46*%
G04 Gerber Fmt 4.6, Leading zero omitted, Abs format (unit mm)*
G04 Created by KiCad (PCBNEW 6.0.11+dfsg-1) date 2025-03-16 17:52:09*
%MOMM*%
%LPD*%
G01*
G04 APERTURE LIST*
G04 Aperture macros list*
%AMRoundRect*
0 Rectangle with rounded corners*
0 $1 Rounding radius*
0 $2 $3 $4 $5 $6 $7 $8 $9 X,Y pos of 4 corners*
0 Add a 4 corners polygon primitive as box body*
4,1,4,$2,$3,$4,$5,$6,$7,$8,$9,$2,$3,0*
0 Add four circle primitives for the rounded corners*
1,1,$1+$1,$2,$3*
1,1,$1+$1,$4,$5*
1,1,$1+$1,$6,$7*
1,1,$1+$1,$8,$9*
0 Add four rect primitives between the rounded corners*
20,1,$1+$1,$2,$3,$4,$5,0*
20,1,$1+$1,$4,$5,$6,$7,0*
20,1,$1+$1,$6,$7,$8,$9,0*
20,1,$1+$1,$8,$9,$2,$3,0*%
G04 Aperture macros list end*
%TA.AperFunction,ComponentPad*%
%ADD10R,1.493000X1.493000*%
%TD*%
%TA.AperFunction,ComponentPad*%
%ADD11C,1.493000*%
%TD*%
%TA.AperFunction,ComponentPad*%
%ADD12C,1.524000*%
%TD*%
%TA.AperFunction,SMDPad,CuDef*%
%ADD13RoundRect,0.225000X-0.225000X-0.250000X0.225000X-0.250000X0.225000X0.250000X-0.225000X0.250000X0*%
%TD*%
%TA.AperFunction,SMDPad,CuDef*%
%ADD14RoundRect,0.225000X0.250000X-0.225000X0.250000X0.225000X-0.250000X0.225000X-0.250000X-0.225000X0*%
%TD*%
%TA.AperFunction,ComponentPad*%
%ADD15C,2.000000*%
%TD*%
%TA.AperFunction,SMDPad,CuDef*%
%ADD16RoundRect,0.200000X-0.275000X0.200000X-0.275000X-0.200000X0.275000X-0.200000X0.275000X0.200000X0*%
%TD*%
%TA.AperFunction,SMDPad,CuDef*%
%ADD17R,0.800000X0.400000*%
%TD*%
%TA.AperFunction,SMDPad,CuDef*%
%ADD18R,0.400000X0.800000*%
%TD*%
%TA.AperFunction,SMDPad,CuDef*%
%ADD19R,1.450000X1.450000*%
%TD*%
%TA.AperFunction,SMDPad,CuDef*%
%ADD20R,0.700000X0.700000*%
%TD*%
%TA.AperFunction,SMDPad,CuDef*%
%ADD21RoundRect,0.200000X0.275000X-0.200000X0.275000X0.200000X-0.275000X0.200000X-0.275000X-0.200000X0*%
%TD*%
%TA.AperFunction,SMDPad,CuDef*%
%ADD22RoundRect,0.225000X-0.250000X0.225000X-0.250000X-0.225000X0.250000X-0.225000X0.250000X0.225000X0*%
%TD*%
%TA.AperFunction,ViaPad*%
%ADD23C,0.800000*%
%TD*%
%TA.AperFunction,Conductor*%
%ADD24C,0.250000*%
%TD*%
G04 APERTURE END LIST*
D10*
%TO.P,U2,1*%
%TO.N,+3V3*%
X168950000Y-76185000D03*
D11*
%TO.P,U2,2*%
%TO.N,GND*%
X168950000Y-73585000D03*
%TO.P,U2,3*%
%TO.N,IO8*%
X168950000Y-70985000D03*
%TO.P,U2,4*%
%TO.N,IO9_BOOT*%
X168950000Y-68565000D03*
%TO.P,U2,5*%
%TO.N,IO10*%
X168950000Y-66025000D03*
D12*
%TO.P,U2,6*%
%TO.N,IO18_USB_D-*%
X168950000Y-63485000D03*
%TO.P,U2,7*%
%TO.N,IO19_USB_D+*%
X168950000Y-60945000D03*
%TO.P,U2,8*%
%TO.N,RESET*%
X168950000Y-58405000D03*
%TD*%
D13*
%TO.P,C4,1*%
%TO.N,+5V*%
X148755000Y-54610000D03*
%TO.P,C4,2*%
%TO.N,GND*%
X150305000Y-54610000D03*
%TD*%
D14*
%TO.P,C1,1*%
%TO.N,+3V3*%
X151130000Y-63132000D03*
%TO.P,C1,2*%
%TO.N,GND*%
X151130000Y-61582000D03*
%TD*%
D10*
%TO.P,U3,1*%
%TO.N,IO0*%
X148590000Y-58435000D03*
D11*
%TO.P,U3,2*%
%TO.N,IO1*%
X148590000Y-61035000D03*
%TO.P,U3,3*%
%TO.N,IO2*%
X148590000Y-63635000D03*
%TO.P,U3,4*%
%TO.N,IO3*%
X148590000Y-66055000D03*
%TO.P,U3,5*%
%TO.N,IO4*%
X148590000Y-68595000D03*
D12*
%TO.P,U3,6*%
%TO.N,IO5*%
X148590000Y-71135000D03*
%TO.P,U3,7*%
%TO.N,IO6*%
X148590000Y-73675000D03*
%TO.P,U3,8*%
%TO.N,IO7*%
X148590000Y-76215000D03*
%TD*%
D14*
%TO.P,C2,1*%
%TO.N,+3V3*%
X151130000Y-66180000D03*
%TO.P,C2,2*%
%TO.N,GND*%
X151130000Y-64630000D03*
%TD*%
D15*
%TO.P,SW1,1,1*%
%TO.N,RESET*%
X152690000Y-85800000D03*
X152690000Y-79300000D03*
%TO.P,SW1,2,2*%
%TO.N,GND*%
X157190000Y-79300000D03*
X157190000Y-85800000D03*
%TD*%
D14*
%TO.P,C6,1*%
%TO.N,RESET*%
X148190000Y-80785000D03*
%TO.P,C6,2*%
%TO.N,GND*%
X148190000Y-79235000D03*
%TD*%
D16*
%TO.P,R2,1*%
%TO.N,+3V3*%
X160020000Y-76975000D03*
%TO.P,R2,2*%
%TO.N,IO9_BOOT*%
X160020000Y-78625000D03*
%TD*%
D13*
%TO.P,C5,1*%
%TO.N,GND*%
X151752000Y-54610000D03*
%TO.P,C5,2*%
%TO.N,+3V3*%
X153302000Y-54610000D03*
%TD*%
D10*
%TO.P,U1,1*%
%TO.N,+5V*%
X161350000Y-52070000D03*
D11*
%TO.P,U1,2*%
%TO.N,GND*%
X163950000Y-52070000D03*
%TO.P,U1,3*%
%TO.N,UART_RX*%
X166550000Y-52070000D03*
%TO.P,U1,4*%
%TO.N,UART_TX*%
X168970000Y-52070000D03*
%TD*%
D17*
%TO.P,11,1,GND_1*%
%TO.N,GND*%
X154120000Y-64740000D03*
%TO.P,11,2,GND_2*%
X154120000Y-65540000D03*
%TO.P,11,3,3V3*%
%TO.N,+3V3*%
X154120000Y-66340000D03*
%TO.P,11,4,NC_1*%
%TO.N,unconnected-(11-Pad4)*%
X154120000Y-67140000D03*
%TO.P,11,5,IO2*%
%TO.N,IO2*%
X154120000Y-67940000D03*
%TO.P,11,6,IO3*%
%TO.N,IO3*%
X154120000Y-68740000D03*
%TO.P,11,7,NC_2*%
%TO.N,unconnected-(11-Pad7)*%
X154120000Y-69540000D03*
%TO.P,11,8,EN*%
%TO.N,RESET*%
X154120000Y-70340000D03*
%TO.P,11,9,NC_3*%
%TO.N,unconnected-(11-Pad9)*%
X154120000Y-71140000D03*
%TO.P,11,10,NC_4*%
%TO.N,unconnected-(11-Pad10)*%
X154120000Y-71940000D03*
%TO.P,11,11,GND_3*%
%TO.N,GND*%
X154120000Y-72740000D03*
D18*
%TO.P,11,12,IO0*%
%TO.N,IO0*%
X155220000Y-73640000D03*
%TO.P,11,13,IO1*%
%TO.N,IO1*%
X156020000Y-73640000D03*
%TO.P,11,14,GND_4*%
%TO.N,GND*%
X156820000Y-73640000D03*
%TO.P,11,15,NC_5*%
%TO.N,unconnected-(11-Pad15)*%
X157620000Y-73640000D03*
%TO.P,11,16,IO10*%
%TO.N,IO10*%
X158420000Y-73640000D03*
%TO.P,11,17,NC_6*%
%TO.N,unconnected-(11-Pad17)*%
X159220000Y-73640000D03*
%TO.P,11,18,IO4*%
%TO.N,IO4*%
X160020000Y-73640000D03*
%TO.P,11,19,IO5*%
%TO.N,IO5*%
X160820000Y-73640000D03*
%TO.P,11,20,IO6*%
%TO.N,IO6*%
X161620000Y-73640000D03*
%TO.P,11,21,IO7*%
%TO.N,IO7*%
X162420000Y-73640000D03*
%TO.P,11,22,IO8*%
%TO.N,IO8*%
X163220000Y-73640000D03*
%TO.P,11,23,IO9*%
%TO.N,IO9_BOOT*%
X164020000Y-73640000D03*
%TO.P,11,24,NC_7*%
%TO.N,unconnected-(11-Pad24)*%
X164820000Y-73640000D03*
D17*
%TO.P,11,25,NC_8*%
%TO.N,unconnected-(11-Pad25)*%
X165920000Y-72740000D03*
%TO.P,11,26,IO18*%
%TO.N,IO18_USB_D-*%
X165920000Y-71940000D03*
%TO.P,11,27,IO19*%
%TO.N,IO19_USB_D+*%
X165920000Y-71140000D03*
%TO.P,11,28,NC_9*%
%TO.N,unconnected-(11-Pad28)*%
X165920000Y-70340000D03*
%TO.P,11,29,NC_10*%
%TO.N,unconnected-(11-Pad29)*%
X165920000Y-69540000D03*
%TO.P,11,30,RXD0*%
%TO.N,UART_RX*%
X165920000Y-68740000D03*
%TO.P,11,31,TXD0*%
%TO.N,UART_TX*%
X165920000Y-67940000D03*
%TO.P,11,32,NC_11*%
%TO.N,unconnected-(11-Pad32)*%
X165920000Y-67140000D03*
%TO.P,11,33,NC_12*%
%TO.N,unconnected-(11-Pad33)*%
X165920000Y-66340000D03*
%TO.P,11,34,NC_13*%
%TO.N,unconnected-(11-Pad34)*%
X165920000Y-65540000D03*
%TO.P,11,35,NC_14*%
%TO.N,unconnected-(11-Pad35)*%
X165920000Y-64740000D03*
D18*
%TO.P,11,36,GND_5*%
%TO.N,GND*%
X164820000Y-63840000D03*
%TO.P,11,37,GND_6*%
X164020000Y-63840000D03*
%TO.P,11,38,GND_7*%
X163220000Y-63840000D03*
%TO.P,11,39,GND_8*%
X162420000Y-63840000D03*
%TO.P,11,40,GND_9*%
X161620000Y-63840000D03*
%TO.P,11,41,GND_10*%
X160820000Y-63840000D03*
%TO.P,11,42,GND_11*%
X160020000Y-63840000D03*
%TO.P,11,43,GND_12*%
X159220000Y-63840000D03*
%TO.P,11,44,GND_13*%
X158420000Y-63840000D03*
%TO.P,11,45,GND_14*%
X157620000Y-63840000D03*
%TO.P,11,46,GND_15*%
X156820000Y-63840000D03*
%TO.P,11,47,GND_16*%
X156020000Y-63840000D03*
%TO.P,11,48,GND_17*%
X155220000Y-63840000D03*
D19*
%TO.P,11,49,GND_18*%
X160020000Y-68740000D03*
D20*
%TO.P,11,50,GND_19*%
X165920000Y-63840000D03*
%TO.P,11,51,GND_20*%
X165920000Y-73640000D03*
%TO.P,11,52,GND_21*%
X154120000Y-73640000D03*
%TO.P,11,53,GND_22*%
X154120000Y-63840000D03*
D19*
%TO.P,11,54,GND_23*%
X158045000Y-68740000D03*
%TO.P,11,55,GND_24*%
X158045000Y-70715000D03*
%TO.P,11,56,GND_25*%
X160020000Y-70715000D03*
%TO.P,11,57,GND_26*%
X161995000Y-70715000D03*
%TO.P,11,58,GND_27*%
X161995000Y-68740000D03*
%TO.P,11,59,GND_28*%
X161995000Y-66765000D03*
%TO.P,11,60,GND_29*%
X160020000Y-66765000D03*
%TO.P,11,61,GND_30*%
X158045000Y-66765000D03*
%TD*%
D15*
%TO.P,SW2,1,1*%
%TO.N,IO9_BOOT*%
X162850000Y-79300000D03*
X162850000Y-85800000D03*
%TO.P,SW2,2,2*%
%TO.N,GND*%
X167350000Y-79300000D03*
X167350000Y-85800000D03*
%TD*%
D21*
%TO.P,R1,1*%
%TO.N,+3V3*%
X149860000Y-82100484D03*
%TO.P,R1,2*%
%TO.N,RESET*%
X149860000Y-80450484D03*
%TD*%
D22*
%TO.P,C3,1*%
%TO.N,+3V3*%
X151130000Y-67932000D03*
%TO.P,C3,2*%
%TO.N,GND*%
X151130000Y-69482000D03*
%TD*%
D10*
%TO.P,U4,1*%
%TO.N,+5V*%
X148590000Y-52070000D03*
D12*
%TO.P,U4,2*%
%TO.N,GND*%
X151130000Y-52070000D03*
%TO.P,U4,3*%
%TO.N,+3V3*%
X153670000Y-52070000D03*
%TD*%
D23*
%TO.N,GND*%
X151130000Y-70866000D03*
X157988000Y-64008000D03*
X161290000Y-64008000D03*
%TO.N,UART_RX*%
X166910326Y-65931967D03*
%TO.N,RESET*%
X152654000Y-70612000D03*
X164808500Y-65024000D03*
%TO.N,+3V3*%
X161398201Y-75927201D03*
X156435701Y-65249701D03*
X159004000Y-80391000D03*
%TO.N,IO2*%
X155215700Y-68685300D03*
%TO.N,IO3*%
X152861901Y-67356099D03*
%TO.N,IO0*%
X155194000Y-75184000D03*
%TO.N,IO1*%
X156083000Y-72517000D03*
%TO.N,IO10*%
X162306000Y-72640498D03*
%TO.N,IO8*%
X167132000Y-70866000D03*
X163449000Y-72644000D03*
%TO.N,IO9_BOOT*%
X165227000Y-75311000D03*
%TO.N,IO19_USB_D+*%
X164211000Y-69723000D03*
%TO.N,UART_RX*%
X164084000Y-68072000D03*
%TO.N,+5V*%
X157480000Y-53340000D03*
X151130000Y-55880000D03*
%TO.N,GND*%
X161036000Y-67691000D03*
X166370000Y-83820000D03*
X151257000Y-75057000D03*
X163957000Y-81407000D03*
X164211000Y-75057000D03*
X154178000Y-73787000D03*
X156591000Y-83820000D03*
X150749000Y-79121000D03*
X152273000Y-53594000D03*
X159004000Y-67691000D03*
X156718000Y-75184000D03*
X153797000Y-81407000D03*
X148209000Y-77978000D03*
X161036000Y-69723000D03*
X166243000Y-77216000D03*
X166370000Y-81407000D03*
X163957000Y-77216000D03*
X163957000Y-83820000D03*
X149733000Y-53594000D03*
X153670000Y-83820000D03*
X156718000Y-81407000D03*
X166497000Y-75057000D03*
X159004000Y-69723000D03*
%TD*%
D24*
%TO.N,UART_RX*%
X167296500Y-65545793D02*
X166910326Y-65931967D01*
X167296500Y-52816500D02*
X167296500Y-65545793D01*
X166550000Y-52070000D02*
X167296500Y-52816500D01*
%TO.N,RESET*%
X156464000Y-66246000D02*
X157686000Y-65024000D01*
X156464000Y-68646000D02*
X156464000Y-66246000D01*
X157686000Y-65024000D02*
X163195000Y-65024000D01*
X154120000Y-70340000D02*
X154770000Y-70340000D01*
X149525484Y-80785000D02*
X149860000Y-80450484D01*
X163195000Y-65024000D02*
X164808500Y-65024000D01*
X151539516Y-80450484D02*
X152690000Y-79300000D01*
X153848000Y-70612000D02*
X154120000Y-70340000D01*
X152654000Y-70612000D02*
X153848000Y-70612000D01*
X148190000Y-80785000D02*
X148190000Y-81647946D01*
X154770000Y-70340000D02*
X156464000Y-68646000D01*
X148190000Y-80785000D02*
X149525484Y-80785000D01*
X152342054Y-85800000D02*
X152690000Y-85800000D01*
X148190000Y-81647946D02*
X152342054Y-85800000D01*
X149860000Y-80450484D02*
X151539516Y-80450484D01*
%TO.N,+3V3*%
X160020000Y-76975000D02*
X160350402Y-76975000D01*
X150330000Y-62332000D02*
X150330000Y-57950000D01*
X149891516Y-82132000D02*
X157263000Y-82132000D01*
X153175000Y-54610000D02*
X153670000Y-54115000D01*
X150330000Y-65380000D02*
X151130000Y-66180000D01*
X153670000Y-54115000D02*
X153670000Y-52070000D01*
X154120000Y-66340000D02*
X151290000Y-66340000D01*
X150330000Y-57950000D02*
X153175000Y-55105000D01*
X153175000Y-55105000D02*
X153175000Y-54610000D01*
X155345402Y-66340000D02*
X154120000Y-66340000D01*
X160350402Y-76975000D02*
X161398201Y-75927201D01*
X157263000Y-82132000D02*
X159004000Y-80391000D01*
X151130000Y-63132000D02*
X150330000Y-62332000D01*
X151130000Y-66180000D02*
X151130000Y-67932000D01*
X150330000Y-63932000D02*
X150330000Y-65380000D01*
X156435701Y-65249701D02*
X155345402Y-66340000D01*
X149860000Y-82100484D02*
X149891516Y-82132000D01*
X151290000Y-66340000D02*
X151130000Y-66180000D01*
X151130000Y-63132000D02*
X150330000Y-63932000D01*
%TO.N,IO2*%
X155215700Y-68685300D02*
X154470400Y-67940000D01*
X154470400Y-67940000D02*
X154120000Y-67940000D01*
%TO.N,IO3*%
X152861901Y-67931901D02*
X153670000Y-68740000D01*
X152861901Y-67356099D02*
X152861901Y-67931901D01*
X153670000Y-68740000D02*
X154120000Y-68740000D01*
%TO.N,IO0*%
X155194000Y-73666000D02*
X155220000Y-73640000D01*
X155194000Y-75184000D02*
X155194000Y-73666000D01*
%TO.N,IO1*%
X156083000Y-72517000D02*
X156083000Y-73577000D01*
X156083000Y-73577000D02*
X156020000Y-73640000D01*
%TO.N,IO10*%
X162306000Y-72640498D02*
X159007502Y-72640498D01*
X159007502Y-72640498D02*
X158369000Y-73279000D01*
%TO.N,IO4*%
X160020000Y-74090000D02*
X160020000Y-73640000D01*
X158201000Y-75909000D02*
X160020000Y-74090000D01*
X148590000Y-68595000D02*
X149677000Y-69682000D01*
X149677000Y-69682000D02*
X149677000Y-70692305D01*
X154893695Y-75909000D02*
X158201000Y-75909000D01*
X149677000Y-70692305D02*
X154893695Y-75909000D01*
%TO.N,IO5*%
X153814000Y-76359000D02*
X158551000Y-76359000D01*
X160820000Y-74090000D02*
X160820000Y-73640000D01*
X158551000Y-76359000D02*
X160820000Y-74090000D01*
X148590000Y-71135000D02*
X153814000Y-76359000D01*
%TO.N,IO6*%
X151724000Y-76809000D02*
X158901000Y-76809000D01*
X161620000Y-74090000D02*
X161620000Y-73640000D01*
X148590000Y-73675000D02*
X151724000Y-76809000D01*
X158901000Y-76809000D02*
X161620000Y-74090000D01*
%TO.N,IO7*%
X150275000Y-77900000D02*
X160450000Y-77900000D01*
X160450000Y-77900000D02*
X162420000Y-75930000D01*
X162420000Y-75930000D02*
X162420000Y-73640000D01*
X148590000Y-76215000D02*
X150275000Y-77900000D01*
%TO.N,IO8*%
X168831000Y-70866000D02*
X168950000Y-70985000D01*
X163220000Y-73640000D02*
X163220000Y-72873000D01*
X163220000Y-72873000D02*
X163449000Y-72644000D01*
X167132000Y-70866000D02*
X168831000Y-70866000D01*
%TO.N,IO9_BOOT*%
X164264213Y-79300000D02*
X165227000Y-78337213D01*
X162850000Y-79300000D02*
X162870000Y-79280000D01*
X162870000Y-79280000D02*
X162870000Y-75240000D01*
X165227000Y-78337213D02*
X165227000Y-75311000D01*
X164020000Y-74090000D02*
X164020000Y-73640000D01*
X160695000Y-79300000D02*
X162850000Y-79300000D01*
X162850000Y-79300000D02*
X164264213Y-79300000D01*
X162850000Y-85800000D02*
X162850000Y-79300000D01*
X162870000Y-75240000D02*
X164020000Y-74090000D01*
X160020000Y-78625000D02*
X160695000Y-79300000D01*
%TO.N,IO18_USB_D-*%
X166370000Y-72136000D02*
X166116000Y-72136000D01*
X168950000Y-63485000D02*
X170021500Y-64556500D01*
X166116000Y-72136000D02*
X165920000Y-71940000D01*
X166497000Y-72263000D02*
X166370000Y-72136000D01*
X169187330Y-72263000D02*
X166497000Y-72263000D01*
X170021500Y-64556500D02*
X170021500Y-71428830D01*
X170021500Y-71428830D02*
X169187330Y-72263000D01*
%TO.N,IO19_USB_D+*%
X165628000Y-71140000D02*
X164211000Y-69723000D01*
X165920000Y-71140000D02*
X165628000Y-71140000D01*
%TO.N,UART_RX*%
X164752000Y-68740000D02*
X164084000Y-68072000D01*
X165920000Y-68740000D02*
X164752000Y-68740000D01*
%TO.N,UART_TX*%
X166570000Y-67940000D02*
X167863000Y-66647000D01*
X167863000Y-63023000D02*
X168854000Y-62032000D01*
X167863000Y-66647000D02*
X167863000Y-63023000D01*
X170037000Y-61484000D02*
X170037000Y-53137000D01*
X169489000Y-62032000D02*
X170037000Y-61484000D01*
X170037000Y-53137000D02*
X168970000Y-52070000D01*
X168854000Y-62032000D02*
X169489000Y-62032000D01*
X165920000Y-67940000D02*
X166570000Y-67940000D01*
%TO.N,+5V*%
X150025000Y-55880000D02*
X151130000Y-55880000D01*
X157480000Y-53340000D02*
X158750000Y-52070000D01*
X148755000Y-54610000D02*
X150025000Y-55880000D01*
X148590000Y-54445000D02*
X148590000Y-52070000D01*
X148755000Y-54610000D02*
X148590000Y-54445000D01*
X158750000Y-52070000D02*
X161350000Y-52070000D01*
%TO.N,GND*%
X159037000Y-69723000D02*
X160020000Y-68740000D01*
X161036000Y-69723000D02*
X161036000Y-69699000D01*
X160020000Y-70715000D02*
X160044000Y-70715000D01*
X159094000Y-67691000D02*
X160020000Y-66765000D01*
X159004000Y-69723000D02*
X159004000Y-69756000D01*
X161036000Y-67691000D02*
X161069000Y-67691000D01*
X161036000Y-67691000D02*
X161036000Y-67781000D01*
X156820000Y-71857000D02*
X156820000Y-73640000D01*
X161036000Y-67691000D02*
X160946000Y-67691000D01*
X156996000Y-70715000D02*
X158045000Y-70715000D01*
X159004000Y-69723000D02*
X159004000Y-69699000D01*
X159004000Y-69699000D02*
X158045000Y-68740000D01*
X160020000Y-68740000D02*
X160020000Y-68707000D01*
X159004000Y-67691000D02*
X159094000Y-67691000D01*
X161036000Y-69756000D02*
X161995000Y-70715000D01*
X156337000Y-71374000D02*
X156820000Y-71857000D01*
X161036000Y-69699000D02*
X161995000Y-68740000D01*
X159004000Y-67691000D02*
X158971000Y-67691000D01*
X158971000Y-67691000D02*
X158045000Y-66765000D01*
X161036000Y-69723000D02*
X161003000Y-69723000D01*
X159004000Y-67691000D02*
X159004000Y-67781000D01*
X159004000Y-67781000D02*
X158045000Y-68740000D01*
X159004000Y-67691000D02*
X159004000Y-67724000D01*
X154570000Y-72740000D02*
X155936000Y-71374000D01*
X161036000Y-67781000D02*
X161995000Y-68740000D01*
X160946000Y-67691000D02*
X160020000Y-66765000D01*
X161036000Y-69723000D02*
X161036000Y-69756000D01*
X160020000Y-68707000D02*
X161036000Y-67691000D01*
X159004000Y-69723000D02*
X159037000Y-69723000D01*
X159004000Y-69723000D02*
X159028000Y-69723000D01*
X159004000Y-67724000D02*
X160020000Y-68740000D01*
X155936000Y-71374000D02*
X156337000Y-71374000D01*
X156337000Y-71374000D02*
X156996000Y-70715000D01*
X161003000Y-69723000D02*
X160020000Y-68740000D01*
X159028000Y-69723000D02*
X160020000Y-70715000D01*
X159004000Y-69756000D02*
X158045000Y-70715000D01*
X161069000Y-67691000D02*
X161995000Y-66765000D01*
X160044000Y-70715000D02*
X161036000Y-69723000D01*
X154120000Y-72740000D02*
X154570000Y-72740000D01*
X154120000Y-73640000D02*
X154120000Y-72740000D01*
%TD*%
%TA.AperFunction,Conductor*%
%TO.N,GND*%
G36*
X167757206Y-72916502D02*
G01*
X167803699Y-72970158D01*
X167813803Y-73040432D01*
X167803280Y-73075750D01*
X167768978Y-73149312D01*
X167765230Y-73159608D01*
X167711262Y-73361016D01*
X167709360Y-73371803D01*
X167691187Y-73579525D01*
X167691187Y-73590475D01*
X167709360Y-73798197D01*
X167711262Y-73808984D01*
X167765230Y-74010392D01*
X167768978Y-74020688D01*
X167857098Y-74209665D01*
X167862576Y-74219151D01*
X167890923Y-74259636D01*
X167901400Y-74268011D01*
X167914848Y-74260942D01*
X168860905Y-73314885D01*
X168923217Y-73280859D01*
X168994032Y-73285924D01*
X169039095Y-73314885D01*
X169220115Y-73495905D01*
X169254141Y-73558217D01*
X169249076Y-73629032D01*
X169220115Y-73674095D01*
X168273336Y-74620874D01*
X168266906Y-74632648D01*
X168276202Y-74644664D01*
X168315849Y-74672424D01*
X168325335Y-74677902D01*
X168350862Y-74689805D01*
X168404147Y-74736722D01*
X168423608Y-74804999D01*
X168403066Y-74872959D01*
X168349044Y-74919025D01*
X168297612Y-74930000D01*
X168155366Y-74930000D01*
X168093184Y-74936755D01*
X167956795Y-74987885D01*
X167840239Y-75075239D01*
X167752885Y-75191795D01*
X167701755Y-75328184D01*
X167695000Y-75390366D01*
X167695000Y-76979634D01*
X167701755Y-77041816D01*
X167752885Y-77178205D01*
X167840239Y-77294761D01*
X167956795Y-77382115D01*
X168093184Y-77433245D01*
X168155366Y-77440000D01*
X169545500Y-77440000D01*
X169613621Y-77460002D01*
X169660114Y-77513658D01*
X169671500Y-77566000D01*
X169671500Y-86995500D01*
X169651498Y-87063621D01*
X169597842Y-87110114D01*
X169545500Y-87121500D01*
X168339333Y-87121500D01*
X168271212Y-87101498D01*
X168223624Y-87045375D01*
X168214123Y-87023333D01*
X167362812Y-86172022D01*
X167348868Y-86164408D01*
X167347035Y-86164539D01*
X167340420Y-86168790D01*
X166488920Y-87020290D01*
X166469482Y-87055887D01*
X166419279Y-87106088D01*
X166358895Y-87121500D01*
X163967002Y-87121500D01*
X163898881Y-87101498D01*
X163852388Y-87047842D01*
X163842284Y-86977568D01*
X163871778Y-86912988D01*
X163885169Y-86899691D01*
X163919969Y-86869969D01*
X164074176Y-86689416D01*
X164076755Y-86685208D01*
X164076759Y-86685202D01*
X164195654Y-86491183D01*
X164198240Y-86486963D01*
X164200229Y-86482163D01*
X164287211Y-86272167D01*
X164287212Y-86272165D01*
X164289105Y-86267594D01*
X164344535Y-86036711D01*
X164362777Y-85804930D01*
X165837725Y-85804930D01*
X165855572Y-86031699D01*
X165857115Y-86041446D01*
X165910217Y-86262627D01*
X165913266Y-86272012D01*
X166000313Y-86482163D01*
X166004795Y-86490958D01*
X166107432Y-86658445D01*
X166117890Y-86667907D01*
X166126666Y-86664124D01*
X166977978Y-85812812D01*
X166984356Y-85801132D01*
X167714408Y-85801132D01*
X167714539Y-85802965D01*
X167718790Y-85809580D01*
X168570290Y-86661080D01*
X168582670Y-86667840D01*
X168590320Y-86662113D01*
X168695205Y-86490958D01*
X168699687Y-86482163D01*
X168786734Y-86272012D01*
X168789783Y-86262627D01*
X168842885Y-86041446D01*
X168844428Y-86031699D01*
X168862275Y-85804930D01*
X168862275Y-85795070D01*
X168844428Y-85568301D01*
X168842885Y-85558554D01*
X168789783Y-85337373D01*
X168786734Y-85327988D01*
X168699687Y-85117837D01*
X168695205Y-85109042D01*
X168592568Y-84941555D01*
X168582110Y-84932093D01*
X168573334Y-84935876D01*
X167722022Y-85787188D01*
X167714408Y-85801132D01*
X166984356Y-85801132D01*
X166985592Y-85798868D01*
X166985461Y-85797035D01*
X166981210Y-85790420D01*
X166129710Y-84938920D01*
X166117330Y-84932160D01*
X166109680Y-84937887D01*
X166004795Y-85109042D01*
X166000313Y-85117837D01*
X165913266Y-85327988D01*
X165910217Y-85337373D01*
X165857115Y-85558554D01*
X165855572Y-85568301D01*
X165837725Y-85795070D01*
X165837725Y-85804930D01*
X164362777Y-85804930D01*
X164363165Y-85800000D01*
X164344535Y-85563289D01*
X164289105Y-85332406D01*
X164287211Y-85327833D01*
X164200135Y-85117611D01*
X164200133Y-85117607D01*
X164198240Y-85113037D01*
X164195654Y-85108817D01*
X164076759Y-84914798D01*
X164076755Y-84914792D01*
X164074176Y-84910584D01*
X163919969Y-84730031D01*
X163739416Y-84575824D01*
X163735208Y-84573245D01*
X163735202Y-84573241D01*
X163726470Y-84567890D01*
X166482093Y-84567890D01*
X166485876Y-84576666D01*
X167337188Y-85427978D01*
X167351132Y-85435592D01*
X167352965Y-85435461D01*
X167359580Y-85431210D01*
X168211080Y-84579710D01*
X168217840Y-84567330D01*
X168212113Y-84559680D01*
X168040958Y-84454795D01*
X168032163Y-84450313D01*
X167822012Y-84363266D01*
X167812627Y-84360217D01*
X167591446Y-84307115D01*
X167581699Y-84305572D01*
X167354930Y-84287725D01*
X167345070Y-84287725D01*
X167118301Y-84305572D01*
X167108554Y-84307115D01*
X166887373Y-84360217D01*
X166877988Y-84363266D01*
X166667837Y-84450313D01*
X166659042Y-84454795D01*
X166491555Y-84557432D01*
X166482093Y-84567890D01*
X163726470Y-84567890D01*
X163543665Y-84455867D01*
X163496034Y-84403219D01*
X163483500Y-84348434D01*
X163483500Y-80751566D01*
X163503502Y-80683445D01*
X163543665Y-80644133D01*
X163725556Y-80532670D01*
X166482160Y-80532670D01*
X166487887Y-80540320D01*
X166659042Y-80645205D01*
X166667837Y-80649687D01*
X166877988Y-80736734D01*
X166887373Y-80739783D01*
X167108554Y-80792885D01*
X167118301Y-80794428D01*
X167345070Y-80812275D01*
X167354930Y-80812275D01*
X167581699Y-80794428D01*
X167591446Y-80792885D01*
X167812627Y-80739783D01*
X167822012Y-80736734D01*
X168032163Y-80649687D01*
X168040958Y-80645205D01*
X168208445Y-80542568D01*
X168217907Y-80532110D01*
X168214124Y-80523334D01*
X167362812Y-79672022D01*
X167348868Y-79664408D01*
X167347035Y-79664539D01*
X167340420Y-79668790D01*
X166488920Y-80520290D01*
X166482160Y-80532670D01*
X163725556Y-80532670D01*
X163735202Y-80526759D01*
X163735208Y-80526755D01*
X163739416Y-80524176D01*
X163919969Y-80369969D01*
X164074176Y-80189416D01*
X164076755Y-80185208D01*
X164076759Y-80185202D01*
X164194133Y-79993665D01*
X164246781Y-79946034D01*
X164296222Y-79934723D01*
X164296161Y-79933748D01*
X164300103Y-79933500D01*
X164304069Y-79933500D01*
X164308004Y-79933003D01*
X164308069Y-79932995D01*
X164319906Y-79932062D01*
X164352164Y-79931048D01*
X164356183Y-79930922D01*
X164364102Y-79930673D01*
X164383556Y-79925021D01*
X164402913Y-79921013D01*
X164415143Y-79919468D01*
X164415144Y-79919468D01*
X164423010Y-79918474D01*
X164430381Y-79915555D01*
X164430383Y-79915555D01*
X164464125Y-79902196D01*
X164475355Y-79898351D01*
X164510196Y-79888229D01*
X164510197Y-79888229D01*
X164517806Y-79886018D01*
X164524625Y-79881985D01*
X164524630Y-79881983D01*
X164535241Y-79875707D01*
X164552989Y-79867012D01*
X164571830Y-79859552D01*
X164592200Y-79844753D01*
X164607600Y-79833564D01*
X164617520Y-79827048D01*
X164648748Y-79808580D01*
X164648751Y-79808578D01*
X164655575Y-79804542D01*
X164669896Y-79790221D01*
X164684930Y-79777380D01*
X164686645Y-79776134D01*
X164701320Y-79765472D01*
X164729511Y-79731395D01*
X164737501Y-79722616D01*
X165619247Y-78840870D01*
X165627537Y-78833326D01*
X165634018Y-78829213D01*
X165680659Y-78779545D01*
X165683413Y-78776704D01*
X165685128Y-78774989D01*
X165747440Y-78740963D01*
X165818255Y-78746028D01*
X165875091Y-78788575D01*
X165899902Y-78855095D01*
X165896742Y-78893498D01*
X165857115Y-79058554D01*
X165855572Y-79068301D01*
X165837725Y-79295070D01*
X165837725Y-79304930D01*
X165855572Y-79531699D01*
X165857115Y-79541446D01*
X165910217Y-79762627D01*
X165913266Y-79772012D01*
X166000313Y-79982163D01*
X166004795Y-79990958D01*
X166107432Y-80158445D01*
X166117890Y-80167907D01*
X166126666Y-80164124D01*
X166977978Y-79312812D01*
X166984356Y-79301132D01*
X167714408Y-79301132D01*
X167714539Y-79302965D01*
X167718790Y-79309580D01*
X168570290Y-80161080D01*
X168582670Y-80167840D01*
X168590320Y-80162113D01*
X168695205Y-79990958D01*
X168699687Y-79982163D01*
X168786734Y-79772012D01*
X168789783Y-79762627D01*
X168842885Y-79541446D01*
X168844428Y-79531699D01*
X168862275Y-79304930D01*
X168862275Y-79295070D01*
X168844428Y-79068301D01*
X168842885Y-79058554D01*
X168789783Y-78837373D01*
X168786734Y-78827988D01*
X168699687Y-78617837D01*
X168695205Y-78609042D01*
X168592568Y-78441555D01*
X168582110Y-78432093D01*
X168573334Y-78435876D01*
X167722022Y-79287188D01*
X167714408Y-79301132D01*
X166984356Y-79301132D01*
X166985592Y-79298868D01*
X166985461Y-79297035D01*
X166981210Y-79290420D01*
X166129710Y-78438920D01*
X166117330Y-78432160D01*
X166109682Y-78437885D01*
X166093933Y-78463585D01*
X166041285Y-78511216D01*
X165971244Y-78522823D01*
X165906046Y-78494720D01*
X165866392Y-78435829D01*
X165860500Y-78397750D01*
X165860500Y-78396982D01*
X165862051Y-78377271D01*
X165863462Y-78368366D01*
X165865219Y-78357270D01*
X165861059Y-78313259D01*
X165860500Y-78301402D01*
X165860500Y-78067890D01*
X166482093Y-78067890D01*
X166485876Y-78076666D01*
X167337188Y-78927978D01*
X167351132Y-78935592D01*
X167352965Y-78935461D01*
X167359580Y-78931210D01*
X168211080Y-78079710D01*
X168217840Y-78067330D01*
X168212113Y-78059680D01*
X168040958Y-77954795D01*
X168032163Y-77950313D01*
X167822012Y-77863266D01*
X167812627Y-77860217D01*
X167591446Y-77807115D01*
X167581699Y-77805572D01*
X167354930Y-77787725D01*
X167345070Y-77787725D01*
X167118301Y-77805572D01*
X167108554Y-77807115D01*
X166887373Y-77860217D01*
X166877988Y-77863266D01*
X166667837Y-77950313D01*
X166659042Y-77954795D01*
X166491555Y-78057432D01*
X166482093Y-78067890D01*
X165860500Y-78067890D01*
X165860500Y-76013524D01*
X165880502Y-75945403D01*
X165892858Y-75929221D01*
X165966040Y-75847944D01*
X166061527Y-75682556D01*
X166120542Y-75500928D01*
X166132520Y-75386969D01*
X166139814Y-75317565D01*
X166140504Y-75311000D01*
X166120542Y-75121072D01*
X166061527Y-74939444D01*
X166056075Y-74930000D01*
X165983905Y-74804999D01*
X165966040Y-74774056D01*
X165932425Y-74736722D01*
X165842675Y-74637045D01*
X165842674Y-74637044D01*
X165838253Y-74632134D01*
X165769250Y-74582000D01*
X165717939Y-74544720D01*
X165674585Y-74488497D01*
X165672967Y-74479884D01*
X166174000Y-74479884D01*
X166178475Y-74495123D01*
X166179865Y-74496328D01*
X166187548Y-74497999D01*
X166314669Y-74497999D01*
X166321490Y-74497629D01*
X166372352Y-74492105D01*
X166387604Y-74488479D01*
X166508054Y-74443324D01*
X166523649Y-74434786D01*
X166625724Y-74358285D01*
X166638285Y-74345724D01*
X166714786Y-74243649D01*
X166723324Y-74228054D01*
X166768478Y-74107606D01*
X166772105Y-74092351D01*
X166777631Y-74041486D01*
X166778000Y-74034672D01*
X166778000Y-73912115D01*
X166773525Y-73896876D01*
X166772135Y-73895671D01*
X166764452Y-73894000D01*
X166192115Y-73894000D01*
X166176876Y-73898475D01*
X166175671Y-73899865D01*
X166174000Y-73907548D01*
X166174000Y-74479884D01*
X165672967Y-74479884D01*
X165666000Y-74442784D01*
X165666000Y-73574500D01*
X165686002Y-73506379D01*
X165739658Y-73459886D01*
X165792000Y-73448500D01*
X166368134Y-73448500D01*
X166430316Y-73441745D01*
X166437712Y-73438973D01*
X166437718Y-73438971D01*
X166557629Y-73394018D01*
X166601858Y-73386000D01*
X166759884Y-73386000D01*
X166775123Y-73381525D01*
X166776328Y-73380135D01*
X166777999Y-73372452D01*
X166777999Y-73245331D01*
X166777629Y-73238509D01*
X166774926Y-73213618D01*
X166782207Y-73155784D01*
X166818973Y-73057711D01*
X166818973Y-73057709D01*
X166821745Y-73050316D01*
X166826245Y-73008892D01*
X166853487Y-72943330D01*
X166911850Y-72902904D01*
X166951508Y-72896500D01*
X167689085Y-72896500D01*
X167757206Y-72916502D01*
G37*
%TD.AperFunction*%
%TA.AperFunction,Conductor*%
G36*
X160048525Y-79553501D02*
G01*
X160069500Y-79570404D01*
X160191343Y-79692247D01*
X160198887Y-79700537D01*
X160203000Y-79707018D01*
X160208777Y-79712443D01*
X160252667Y-79753658D01*
X160255509Y-79756413D01*
X160275230Y-79776134D01*
X160278425Y-79778612D01*
X160287447Y-79786318D01*
X160319679Y-79816586D01*
X160326628Y-79820406D01*
X160337432Y-79826346D01*
X160353956Y-79837199D01*
X160369959Y-79849613D01*
X160410543Y-79867176D01*
X160421173Y-79872383D01*
X160459940Y-79893695D01*
X160467617Y-79895666D01*
X160467622Y-79895668D01*
X160479558Y-79898732D01*
X160498266Y-79905137D01*
X160516855Y-79913181D01*
X160524683Y-79914421D01*
X160524690Y-79914423D01*
X160560524Y-79920099D01*
X160572144Y-79922505D01*
X160603959Y-79930673D01*
X160614970Y-79933500D01*
X160635224Y-79933500D01*
X160654934Y-79935051D01*
X160674943Y-79938220D01*
X160682835Y-79937474D01*
X160718961Y-79934059D01*
X160730819Y-79933500D01*
X161398434Y-79933500D01*
X161466555Y-79953502D01*
X161505867Y-79993665D01*
X161623241Y-80185202D01*
X161623245Y-80185208D01*
X161625824Y-80189416D01*
X161780031Y-80369969D01*
X161960584Y-80524176D01*
X161964792Y-80526755D01*
X161964798Y-80526759D01*
X162156335Y-80644133D01*
X162203966Y-80696781D01*
X162216500Y-80751566D01*
X162216500Y-84348434D01*
X162196498Y-84416555D01*
X162156335Y-84455867D01*
X161964798Y-84573241D01*
X161964792Y-84573245D01*
X161960584Y-84575824D01*
X161780031Y-84730031D01*
X161625824Y-84910584D01*
X161623245Y-84914792D01*
X161623241Y-84914798D01*
X161504346Y-85108817D01*
X161501760Y-85113037D01*
X161499867Y-85117607D01*
X161499865Y-85117611D01*
X161412789Y-85327833D01*
X161410895Y-85332406D01*
X161355465Y-85563289D01*
X161336835Y-85800000D01*
X161355465Y-86036711D01*
X161410895Y-86267594D01*
X161412788Y-86272165D01*
X161412789Y-86272167D01*
X161499772Y-86482163D01*
X161501760Y-86486963D01*
X161504346Y-86491183D01*
X161623241Y-86685202D01*
X161623245Y-86685208D01*
X161625824Y-86689416D01*
X161780031Y-86869969D01*
X161814829Y-86899689D01*
X161853637Y-86959139D01*
X161854145Y-87030134D01*
X161816189Y-87090132D01*
X161751820Y-87120086D01*
X161732998Y-87121500D01*
X158179333Y-87121500D01*
X158111212Y-87101498D01*
X158063624Y-87045375D01*
X158054123Y-87023333D01*
X157202812Y-86172022D01*
X157188868Y-86164408D01*
X157187035Y-86164539D01*
X157180420Y-86168790D01*
X156328920Y-87020290D01*
X156309482Y-87055887D01*
X156259279Y-87106088D01*
X156198895Y-87121500D01*
X153807002Y-87121500D01*
X153738881Y-87101498D01*
X153692388Y-87047842D01*
X153682284Y-86977568D01*
X153711778Y-86912988D01*
X153725169Y-86899691D01*
X153759969Y-86869969D01*
X153914176Y-86689416D01*
X153916755Y-86685208D01*
X153916759Y-86685202D01*
X154035654Y-86491183D01*
X154038240Y-86486963D01*
X154040229Y-86482163D01*
X154127211Y-86272167D01*
X154127212Y-86272165D01*
X154129105Y-86267594D01*
X154184535Y-86036711D01*
X154202777Y-85804930D01*
X155677725Y-85804930D01*
X155695572Y-86031699D01*
X155697115Y-86041446D01*
X155750217Y-86262627D01*
X155753266Y-86272012D01*
X155840313Y-86482163D01*
X155844795Y-86490958D01*
X155947432Y-86658445D01*
X155957890Y-86667907D01*
X155966666Y-86664124D01*
X156817978Y-85812812D01*
X156824356Y-85801132D01*
X157554408Y-85801132D01*
X157554539Y-85802965D01*
X157558790Y-85809580D01*
X158410290Y-86661080D01*
X158422670Y-86667840D01*
X158430320Y-86662113D01*
X158535205Y-86490958D01*
X158539687Y-86482163D01*
X158626734Y-86272012D01*
X158629783Y-86262627D01*
X158682885Y-86041446D01*
X158684428Y-86031699D01*
X158702275Y-85804930D01*
X158702275Y-85795070D01*
X158684428Y-85568301D01*
X158682885Y-85558554D01*
X158629783Y-85337373D01*
X158626734Y-85327988D01*
X158539687Y-85117837D01*
X158535205Y-85109042D01*
X158432568Y-84941555D01*
X158422110Y-84932093D01*
X158413334Y-84935876D01*
X157562022Y-85787188D01*
X157554408Y-85801132D01*
X156824356Y-85801132D01*
X156825592Y-85798868D01*
X156825461Y-85797035D01*
X156821210Y-85790420D01*
X155969710Y-84938920D01*
X155957330Y-84932160D01*
X155949680Y-84937887D01*
X155844795Y-85109042D01*
X155840313Y-85117837D01*
X155753266Y-85327988D01*
X155750217Y-85337373D01*
X155697115Y-85558554D01*
X155695572Y-85568301D01*
X155677725Y-85795070D01*
X155677725Y-85804930D01*
X154202777Y-85804930D01*
X154203165Y-85800000D01*
X154184535Y-85563289D01*
X154129105Y-85332406D01*
X154127211Y-85327833D01*
X154040135Y-85117611D01*
X154040133Y-85117607D01*
X154038240Y-85113037D01*
X154035654Y-85108817D01*
X153916759Y-84914798D01*
X153916755Y-84914792D01*
X153914176Y-84910584D01*
X153759969Y-84730031D01*
X153579416Y-84575824D01*
X153575208Y-84573245D01*
X153575202Y-84573241D01*
X153566470Y-84567890D01*
X156322093Y-84567890D01*
X156325876Y-84576666D01*
X157177188Y-85427978D01*
X157191132Y-85435592D01*
X157192965Y-85435461D01*
X157199580Y-85431210D01*
X158051080Y-84579710D01*
X158057840Y-84567330D01*
X158052113Y-84559680D01*
X157880958Y-84454795D01*
X157872163Y-84450313D01*
X157662012Y-84363266D01*
X157652627Y-84360217D01*
X157431446Y-84307115D01*
X157421699Y-84305572D01*
X157194930Y-84287725D01*
X157185070Y-84287725D01*
X156958301Y-84305572D01*
X156948554Y-84307115D01*
X156727373Y-84360217D01*
X156717988Y-84363266D01*
X156507837Y-84450313D01*
X156499042Y-84454795D01*
X156331555Y-84557432D01*
X156322093Y-84567890D01*
X153566470Y-84567890D01*
X153381183Y-84454346D01*
X153376963Y-84451760D01*
X153372393Y-84449867D01*
X153372389Y-84449865D01*
X153162167Y-84362789D01*
X153162165Y-84362788D01*
X153157594Y-84360895D01*
X153077391Y-84341640D01*
X152931524Y-84306620D01*
X152931518Y-84306619D01*
X152926711Y-84305465D01*
X152690000Y-84286835D01*
X152453289Y-84305465D01*
X152448482Y-84306619D01*
X152448476Y-84306620D01*
X152302609Y-84341640D01*
X152222406Y-84360895D01*
X152217835Y-84362788D01*
X152217833Y-84362789D01*
X152120226Y-84403219D01*
X152003037Y-84451760D01*
X152002363Y-84450134D01*
X151940071Y-84461846D01*
X151874281Y-84435158D01*
X151863525Y-84425567D01*
X150517548Y-83079590D01*
X150483522Y-83017278D01*
X150488587Y-82946463D01*
X150531134Y-82889627D01*
X150541361Y-82882726D01*
X150575381Y-82862123D01*
X150635099Y-82802405D01*
X150697411Y-82768379D01*
X150724194Y-82765500D01*
X157184233Y-82765500D01*
X157195416Y-82766027D01*
X157202909Y-82767702D01*
X157210835Y-82767453D01*
X157210836Y-82767453D01*
X157270986Y-82765562D01*
X157274945Y-82765500D01*
X157302856Y-82765500D01*
X157306791Y-82765003D01*
X157306856Y-82764995D01*
X157318693Y-82764062D01*
X157350951Y-82763048D01*
X157354970Y-82762922D01*
X157362889Y-82762673D01*
X157382343Y-82757021D01*
X157401700Y-82753013D01*
X157413930Y-82751468D01*
X157413931Y-82751468D01*
X157421797Y-82750474D01*
X157429168Y-82747555D01*
X157429170Y-82747555D01*
X157462912Y-82734196D01*
X157474142Y-82730351D01*
X157508983Y-82720229D01*
X157508984Y-82720229D01*
X157516593Y-82718018D01*
X157523412Y-82713985D01*
X157523417Y-82713983D01*
X157534028Y-82707707D01*
X157551776Y-82699012D01*
X157570617Y-82691552D01*
X157606387Y-82665564D01*
X157616307Y-82659048D01*
X157647535Y-82640580D01*
X157647538Y-82640578D01*
X157654362Y-82636542D01*
X157668683Y-82622221D01*
X157683717Y-82609380D01*
X157693694Y-82602131D01*
X157700107Y-82597472D01*
X157728298Y-82563395D01*
X157736288Y-82554616D01*
X158954500Y-81336405D01*
X159016812Y-81302379D01*
X159043595Y-81299500D01*
X159099487Y-81299500D01*
X159105939Y-81298128D01*
X159105944Y-81298128D01*
X159192888Y-81279647D01*
X159286288Y-81259794D01*
X159292319Y-81257109D01*
X159454722Y-81184803D01*
X159454724Y-81184802D01*
X159460752Y-81182118D01*
X159615253Y-81069866D01*
X159632696Y-81050494D01*
X159738621Y-80932852D01*
X159738622Y-80932851D01*
X159743040Y-80927944D01*
X159838527Y-80762556D01*
X159897542Y-80580928D01*
X159917504Y-80391000D01*
X159897542Y-80201072D01*
X159838527Y-80019444D01*
X159823644Y-79993665D01*
X159791632Y-79938220D01*
X159743040Y-79854056D01*
X159718229Y-79826500D01*
X159643774Y-79743810D01*
X159613057Y-79679803D01*
X159621821Y-79609349D01*
X159667284Y-79554818D01*
X159737409Y-79533500D01*
X159855130Y-79533500D01*
X159980405Y-79533499D01*
X160048525Y-79553501D01*
G37*
%TD.AperFunction*%
%TA.AperFunction,Conductor*%
G36*
X155754795Y-78553502D02*
G01*
X155801288Y-78607158D01*
X155811392Y-78677432D01*
X155803083Y-78707718D01*
X155753266Y-78827987D01*
X155750217Y-78837373D01*
X155697115Y-79058554D01*
X155695572Y-79068301D01*
X155677725Y-79295070D01*
X155677725Y-79304930D01*
X155695572Y-79531699D01*
X155697115Y-79541446D01*
X155750217Y-79762627D01*
X155753266Y-79772012D01*
X155840313Y-79982163D01*
X155844795Y-79990958D01*
X155947432Y-80158445D01*
X155957890Y-80167907D01*
X155966666Y-80164124D01*
X157100905Y-79029885D01*
X157163217Y-78995859D01*
X157234032Y-79000924D01*
X157279095Y-79029885D01*
X157460115Y-79210905D01*
X157494141Y-79273217D01*
X157489076Y-79344032D01*
X157460115Y-79389095D01*
X156328920Y-80520290D01*
X156322160Y-80532670D01*
X156327887Y-80540320D01*
X156499042Y-80645205D01*
X156507837Y-80649687D01*
X156717988Y-80736734D01*
X156727373Y-80739783D01*
X156948554Y-80792885D01*
X156958301Y-80794428D01*
X157185070Y-80812275D01*
X157194931Y-80812275D01*
X157388355Y-80797053D01*
X157457835Y-80811649D01*
X157508394Y-80861492D01*
X157523980Y-80930757D01*
X157499644Y-80997452D01*
X157487338Y-81011757D01*
X157037499Y-81461596D01*
X156975187Y-81495621D01*
X156948404Y-81498500D01*
X150786904Y-81498500D01*
X150718783Y-81478498D01*
X150697562Y-81459180D01*
X150696639Y-81460103D01*
X150601115Y-81364579D01*
X150567089Y-81302267D01*
X150572154Y-81231452D01*
X150601115Y-81186389D01*
X150666615Y-81120889D01*
X150728927Y-81086863D01*
X150755710Y-81083984D01*
X151460749Y-81083984D01*
X151471932Y-81084511D01*
X151479425Y-81086186D01*
X151487351Y-81085937D01*
X151487352Y-81085937D01*
X151547502Y-81084046D01*
X151551461Y-81083984D01*
X151579372Y-81083984D01*
X151583307Y-81083487D01*
X151583372Y-81083479D01*
X151595209Y-81082546D01*
X151627467Y-81081532D01*
X151631486Y-81081406D01*
X151639405Y-81081157D01*
X151658859Y-81075505D01*
X151678216Y-81071497D01*
X151690446Y-81069952D01*
X151690447Y-81069952D01*
X151698313Y-81068958D01*
X151705684Y-81066039D01*
X151705686Y-81066039D01*
X151739428Y-81052680D01*
X151750658Y-81048835D01*
X151785499Y-81038713D01*
X151785500Y-81038713D01*
X151793109Y-81036502D01*
X151799928Y-81032469D01*
X151799933Y-81032467D01*
X151810544Y-81026191D01*
X151828292Y-81017496D01*
X151847133Y-81010036D01*
X151882903Y-80984048D01*
X151892823Y-80977532D01*
X151924051Y-80959064D01*
X151924054Y-80959062D01*
X151930878Y-80955026D01*
X151945199Y-80940705D01*
X151960233Y-80927864D01*
X151970210Y-80920615D01*
X151976623Y-80915956D01*
X152004814Y-80881879D01*
X152012804Y-80873100D01*
X152111540Y-80774364D01*
X152173852Y-80740338D01*
X152230049Y-80740940D01*
X152448476Y-80793380D01*
X152448482Y-80793381D01*
X152453289Y-80794535D01*
X152690000Y-80813165D01*
X152926711Y-80794535D01*
X152931518Y-80793381D01*
X152931524Y-80793380D01*
X153105690Y-80751566D01*
X153157594Y-80739105D01*
X153162167Y-80737211D01*
X153372389Y-80650135D01*
X153372393Y-80650133D01*
X153376963Y-80648240D01*
X153486806Y-80580928D01*
X153575202Y-80526759D01*
X153575208Y-80526755D01*
X153579416Y-80524176D01*
X153759969Y-80369969D01*
X153914176Y-80189416D01*
X153916755Y-80185208D01*
X153916759Y-80185202D01*
X154035654Y-79991183D01*
X154038240Y-79986963D01*
X154040229Y-79982163D01*
X154127211Y-79772167D01*
X154127212Y-79772165D01*
X154129105Y-79767594D01*
X154169369Y-79599882D01*
X154183380Y-79541524D01*
X154183381Y-79541518D01*
X154184535Y-79536711D01*
X154203165Y-79300000D01*
X154184535Y-79063289D01*
X154176516Y-79029885D01*
X154141612Y-78884501D01*
X154129105Y-78832406D01*
X154077458Y-78707718D01*
X154069869Y-78637128D01*
X154101649Y-78573641D01*
X154162707Y-78537414D01*
X154193867Y-78533500D01*
X155686674Y-78533500D01*
X155754795Y-78553502D01*
G37*
%TD.AperFunction*%
%TA.AperFunction,Conductor*%
G36*
X148007750Y-77345334D02*
G01*
X148153804Y-77413440D01*
X148159112Y-77414862D01*
X148159114Y-77414863D01*
X148217364Y-77430471D01*
X148368537Y-77470978D01*
X148590000Y-77490353D01*
X148811463Y-77470978D01*
X148816777Y-77469554D01*
X148816783Y-77469553D01*
X148850514Y-77460515D01*
X148921490Y-77462204D01*
X148972221Y-77493126D01*
X149771348Y-78292253D01*
X149778888Y-78300539D01*
X149783000Y-78307018D01*
X149788777Y-78312443D01*
X149832651Y-78353643D01*
X149835493Y-78356398D01*
X149855230Y-78376135D01*
X149858427Y-78378615D01*
X149867447Y-78386318D01*
X149899679Y-78416586D01*
X149906625Y-78420405D01*
X149906628Y-78420407D01*
X149917434Y-78426348D01*
X149933953Y-78437199D01*
X149949959Y-78449614D01*
X149957228Y-78452759D01*
X149957232Y-78452762D01*
X149990537Y-78467174D01*
X150001187Y-78472391D01*
X150039940Y-78493695D01*
X150047615Y-78495666D01*
X150047616Y-78495666D01*
X150059562Y-78498733D01*
X150078267Y-78505137D01*
X150096855Y-78513181D01*
X150104678Y-78514420D01*
X150104688Y-78514423D01*
X150140524Y-78520099D01*
X150152144Y-78522505D01*
X150187289Y-78531528D01*
X150194970Y-78533500D01*
X150215224Y-78533500D01*
X150234934Y-78535051D01*
X150254943Y-78538220D01*
X150262835Y-78537474D01*
X150298961Y-78534059D01*
X150310819Y-78533500D01*
X151186133Y-78533500D01*
X151254254Y-78553502D01*
X151300747Y-78607158D01*
X151310851Y-78677432D01*
X151302542Y-78707718D01*
X151250895Y-78832406D01*
X151238388Y-78884501D01*
X151203485Y-79029885D01*
X151195465Y-79063289D01*
X151176835Y-79300000D01*
X151195465Y-79536711D01*
X151196619Y-79541518D01*
X151196620Y-79541524D01*
X151225441Y-79661570D01*
X151221894Y-79732478D01*
X151180574Y-79790212D01*
X151114601Y-79816442D01*
X151102922Y-79816984D01*
X150755710Y-79816984D01*
X150687589Y-79796982D01*
X150666615Y-79780079D01*
X150575381Y-79688845D01*
X150428699Y-79600012D01*
X150421452Y-79597741D01*
X150421450Y-79597740D01*
X150334220Y-79570404D01*
X150265062Y-79548731D01*
X150191635Y-79541984D01*
X150188737Y-79541984D01*
X149859140Y-79541985D01*
X149528366Y-79541985D01*
X149525508Y-79542248D01*
X149525499Y-79542248D01*
X149489996Y-79545510D01*
X149454938Y-79548731D01*
X149330374Y-79587767D01*
X149259392Y-79589052D01*
X149198981Y-79551755D01*
X149171801Y-79503032D01*
X149168525Y-79491876D01*
X149167135Y-79490671D01*
X149159452Y-79489000D01*
X148062000Y-79489000D01*
X147993879Y-79468998D01*
X147947386Y-79415342D01*
X147936000Y-79363000D01*
X147936000Y-78962885D01*
X148444000Y-78962885D01*
X148448475Y-78978124D01*
X148449865Y-78979329D01*
X148457548Y-78981000D01*
X149154885Y-78981000D01*
X149170124Y-78976525D01*
X149171329Y-78975135D01*
X149173000Y-78967452D01*
X149173000Y-78964562D01*
X149172663Y-78958047D01*
X149163106Y-78865943D01*
X149160212Y-78852544D01*
X149110619Y-78703893D01*
X149104445Y-78690714D01*
X149022212Y-78557827D01*
X149013176Y-78546426D01*
X148902571Y-78436014D01*
X148891160Y-78427002D01*
X148758120Y-78344996D01*
X148744939Y-78338849D01*
X148596186Y-78289509D01*
X148582810Y-78286642D01*
X148491903Y-78277328D01*
X148485486Y-78277000D01*
X148462115Y-78277000D01*
X148446876Y-78281475D01*
X148445671Y-78282865D01*
X148444000Y-78290548D01*
X148444000Y-78962885D01*
X147936000Y-78962885D01*
X147936000Y-78295115D01*
X147931525Y-78279876D01*
X147930133Y-78278670D01*
X147927716Y-78278144D01*
X147865404Y-78244119D01*
X147831379Y-78181807D01*
X147828500Y-78155024D01*
X147828500Y-77459529D01*
X147848502Y-77391408D01*
X147902158Y-77344915D01*
X147972432Y-77334811D01*
X148007750Y-77345334D01*
G37*
%TD.AperFunction*%
%TA.AperFunction,Conductor*%
G36*
X164311404Y-74798666D02*
G01*
X164368240Y-74841213D01*
X164393051Y-74907733D01*
X164387205Y-74955656D01*
X164333458Y-75121072D01*
X164313496Y-75311000D01*
X164314186Y-75317565D01*
X164321481Y-75386969D01*
X164333458Y-75500928D01*
X164392473Y-75682556D01*
X164487960Y-75847944D01*
X164561137Y-75929215D01*
X164591853Y-75993221D01*
X164593500Y-76013524D01*
X164593500Y-78022618D01*
X164573498Y-78090739D01*
X164556595Y-78111713D01*
X164255110Y-78413198D01*
X164192798Y-78447224D01*
X164121983Y-78442159D01*
X164070204Y-78405933D01*
X163923182Y-78233792D01*
X163923177Y-78233787D01*
X163919969Y-78230031D01*
X163739416Y-78075824D01*
X163735201Y-78073241D01*
X163735193Y-78073235D01*
X163563665Y-77968122D01*
X163516034Y-77915475D01*
X163503500Y-77860690D01*
X163503500Y-75554594D01*
X163523502Y-75486473D01*
X163540405Y-75465499D01*
X164178277Y-74827627D01*
X164240589Y-74793601D01*
X164311404Y-74798666D01*
G37*
%TD.AperFunction*%
%TA.AperFunction,Conductor*%
G36*
X150059591Y-73502733D02*
G01*
X150074787Y-73515691D01*
X152519501Y-75960405D01*
X152553527Y-76022717D01*
X152548462Y-76093532D01*
X152505915Y-76150368D01*
X152439395Y-76175179D01*
X152430406Y-76175500D01*
X152038595Y-76175500D01*
X151970474Y-76155498D01*
X151949500Y-76138595D01*
X149868126Y-74057221D01*
X149834100Y-73994909D01*
X149835515Y-73935514D01*
X149844553Y-73901783D01*
X149844554Y-73901777D01*
X149845978Y-73896463D01*
X149865353Y-73675000D01*
X149860171Y-73615767D01*
X149874161Y-73546162D01*
X149923560Y-73495170D01*
X149992686Y-73478980D01*
X150059591Y-73502733D01*
G37*
%TD.AperFunction*%
%TA.AperFunction,Conductor*%
G36*
X156880570Y-74136681D02*
G01*
X156930688Y-74186967D01*
X156937982Y-74202938D01*
X156969385Y-74286705D01*
X156974770Y-74293890D01*
X156974771Y-74293892D01*
X156994826Y-74320651D01*
X157019674Y-74387158D01*
X157020000Y-74396216D01*
X157020000Y-74529884D01*
X157024475Y-74545123D01*
X157025865Y-74546328D01*
X157033548Y-74547999D01*
X157064669Y-74547999D01*
X157071490Y-74547629D01*
X157122352Y-74542105D01*
X157137604Y-74538479D01*
X157175058Y-74524438D01*
X157245865Y-74519255D01*
X157263516Y-74524438D01*
X157309684Y-74541745D01*
X157371866Y-74548500D01*
X157868134Y-74548500D01*
X157872746Y-74547999D01*
X157922466Y-74542598D01*
X157922468Y-74542598D01*
X157930316Y-74541745D01*
X157937709Y-74538973D01*
X157937711Y-74538973D01*
X157975771Y-74524705D01*
X158046578Y-74519522D01*
X158064229Y-74524705D01*
X158102289Y-74538973D01*
X158102291Y-74538973D01*
X158109684Y-74541745D01*
X158117532Y-74542598D01*
X158117534Y-74542598D01*
X158167254Y-74547999D01*
X158171866Y-74548500D01*
X158361405Y-74548500D01*
X158429526Y-74568502D01*
X158476019Y-74622158D01*
X158486123Y-74692432D01*
X158456629Y-74757012D01*
X158450500Y-74763595D01*
X157975500Y-75238595D01*
X157913188Y-75272621D01*
X157886405Y-75275500D01*
X156230572Y-75275500D01*
X156162451Y-75255498D01*
X156115958Y-75201842D01*
X156105262Y-75162670D01*
X156088232Y-75000635D01*
X156088232Y-75000633D01*
X156087542Y-74994072D01*
X156028527Y-74812444D01*
X155985258Y-74737500D01*
X155968520Y-74668505D01*
X155991740Y-74601413D01*
X156047547Y-74557526D01*
X156094377Y-74548500D01*
X156268134Y-74548500D01*
X156330316Y-74541745D01*
X156376482Y-74524438D01*
X156447289Y-74519255D01*
X156464942Y-74524438D01*
X156502394Y-74538478D01*
X156517649Y-74542105D01*
X156568514Y-74547631D01*
X156575328Y-74548000D01*
X156601885Y-74548000D01*
X156617124Y-74543525D01*
X156618329Y-74542135D01*
X156620000Y-74534452D01*
X156620000Y-74396216D01*
X156640002Y-74328095D01*
X156645174Y-74320651D01*
X156665229Y-74293892D01*
X156665230Y-74293890D01*
X156670615Y-74286705D01*
X156702018Y-74202938D01*
X156744660Y-74146174D01*
X156811221Y-74121474D01*
X156880570Y-74136681D01*
G37*
%TD.AperFunction*%
%TA.AperFunction,Conductor*%
G36*
X152266737Y-68226595D02*
G01*
X152325024Y-68270728D01*
X152328333Y-68275282D01*
X152334853Y-68285208D01*
X152348344Y-68308019D01*
X152357359Y-68323263D01*
X152371680Y-68337584D01*
X152384520Y-68352617D01*
X152396429Y-68369008D01*
X152402535Y-68374059D01*
X152430506Y-68397199D01*
X152439285Y-68405189D01*
X153166343Y-69132247D01*
X153173887Y-69140537D01*
X153178000Y-69147018D01*
X153183777Y-69152443D01*
X153187743Y-69157237D01*
X153215754Y-69222475D01*
X153215922Y-69251160D01*
X153211500Y-69291866D01*
X153211500Y-69671715D01*
X153191498Y-69739836D01*
X153137842Y-69786329D01*
X153067568Y-69796433D01*
X153034253Y-69786823D01*
X152960707Y-69754078D01*
X152942319Y-69745891D01*
X152942318Y-69745891D01*
X152936288Y-69743206D01*
X152841227Y-69723000D01*
X152755944Y-69704872D01*
X152755939Y-69704872D01*
X152749487Y-69703500D01*
X152558513Y-69703500D01*
X152552061Y-69704872D01*
X152552056Y-69704872D01*
X152466773Y-69723000D01*
X152371712Y-69743206D01*
X152365685Y-69745889D01*
X152365677Y-69745892D01*
X152271647Y-69787757D01*
X152201280Y-69797191D01*
X152136983Y-69767084D01*
X152131955Y-69759178D01*
X152107135Y-69737671D01*
X152099452Y-69736000D01*
X151402115Y-69736000D01*
X151386876Y-69740475D01*
X151385671Y-69741865D01*
X151384000Y-69749548D01*
X151384000Y-70421885D01*
X151388475Y-70437124D01*
X151389865Y-70438329D01*
X151397548Y-70440000D01*
X151425438Y-70440000D01*
X151431953Y-70439663D01*
X151524057Y-70430106D01*
X151537456Y-70427212D01*
X151582360Y-70412231D01*
X151653309Y-70409647D01*
X151714393Y-70445831D01*
X151746218Y-70509295D01*
X151747546Y-70544924D01*
X151740496Y-70612000D01*
X151741186Y-70618565D01*
X151742546Y-70631500D01*
X151760458Y-70801928D01*
X151819473Y-70983556D01*
X151914960Y-71148944D01*
X152042747Y-71290866D01*
X152096500Y-71329920D01*
X152185691Y-71394721D01*
X152197248Y-71403118D01*
X152203276Y-71405802D01*
X152203278Y-71405803D01*
X152313036Y-71454670D01*
X152371712Y-71480794D01*
X152459716Y-71499500D01*
X152552056Y-71519128D01*
X152552061Y-71519128D01*
X152558513Y-71520500D01*
X152749487Y-71520500D01*
X152755939Y-71519128D01*
X152755944Y-71519128D01*
X152848284Y-71499500D01*
X152936288Y-71480794D01*
X152942315Y-71478111D01*
X152942323Y-71478108D01*
X153065462Y-71423283D01*
X153135829Y-71413849D01*
X153200126Y-71443956D01*
X153234704Y-71494195D01*
X153235309Y-71495807D01*
X153240470Y-71566615D01*
X153235295Y-71584229D01*
X153225682Y-71609872D01*
X153218255Y-71629684D01*
X153217402Y-71637532D01*
X153217402Y-71637534D01*
X153213051Y-71677587D01*
X153211500Y-71691866D01*
X153211500Y-72188134D01*
X153218255Y-72250316D01*
X153228907Y-72278729D01*
X153235562Y-72296482D01*
X153240745Y-72367289D01*
X153235562Y-72384942D01*
X153221522Y-72422394D01*
X153217895Y-72437649D01*
X153212369Y-72488514D01*
X153212000Y-72495328D01*
X153212000Y-72521885D01*
X153216475Y-72537124D01*
X153217865Y-72538329D01*
X153225548Y-72540000D01*
X153363784Y-72540000D01*
X153431905Y-72560002D01*
X153439349Y-72565174D01*
X153446472Y-72570512D01*
X153473295Y-72590615D01*
X153609684Y-72641745D01*
X153671866Y-72648500D01*
X154203543Y-72648500D01*
X154271664Y-72668502D01*
X154318157Y-72722158D01*
X154324439Y-72739003D01*
X154324474Y-72739123D01*
X154330512Y-72744355D01*
X154368896Y-72804081D01*
X154374000Y-72839580D01*
X154374000Y-73768000D01*
X154353998Y-73836121D01*
X154300342Y-73882614D01*
X154248000Y-73894000D01*
X153992000Y-73894000D01*
X153923879Y-73873998D01*
X153877386Y-73820342D01*
X153866000Y-73768000D01*
X153866000Y-72958115D01*
X153861525Y-72942876D01*
X153860135Y-72941671D01*
X153852452Y-72940000D01*
X153230116Y-72940000D01*
X153214877Y-72944475D01*
X153213672Y-72945865D01*
X153212001Y-72953548D01*
X153212001Y-72984669D01*
X153212371Y-72991491D01*
X153215200Y-73017542D01*
X153202671Y-73087424D01*
X153154349Y-73139439D01*
X153085577Y-73157072D01*
X153018189Y-73134724D01*
X153000842Y-73120242D01*
X150477931Y-70597331D01*
X150443905Y-70535019D01*
X150448970Y-70464204D01*
X150491517Y-70407368D01*
X150558037Y-70382557D01*
X150606694Y-70388643D01*
X150723814Y-70427491D01*
X150737190Y-70430358D01*
X150828097Y-70439672D01*
X150834513Y-70440000D01*
X150857885Y-70440000D01*
X150873124Y-70435525D01*
X150874329Y-70434135D01*
X150876000Y-70426452D01*
X150876000Y-69354000D01*
X150896002Y-69285879D01*
X150949658Y-69239386D01*
X151002000Y-69228000D01*
X152094885Y-69228000D01*
X152110124Y-69223525D01*
X152111329Y-69222135D01*
X152113000Y-69214452D01*
X152113000Y-69211562D01*
X152112663Y-69205047D01*
X152103106Y-69112943D01*
X152100212Y-69099544D01*
X152050619Y-68950893D01*
X152044445Y-68937714D01*
X151962212Y-68804827D01*
X151948629Y-68787689D01*
X151950559Y-68786159D01*
X151922097Y-68734120D01*
X151927113Y-68663301D01*
X151950799Y-68626383D01*
X151949843Y-68625628D01*
X151954381Y-68619882D01*
X151959552Y-68614702D01*
X151971697Y-68595000D01*
X152045462Y-68475331D01*
X152045463Y-68475329D01*
X152049302Y-68469101D01*
X152103149Y-68306757D01*
X152105734Y-68307614D01*
X152133704Y-68255991D01*
X152195905Y-68221762D01*
X152266737Y-68226595D01*
G37*
%TD.AperFunction*%
%TA.AperFunction,Conductor*%
G36*
X164168421Y-65677502D02*
G01*
X164187647Y-65693843D01*
X164187920Y-65693540D01*
X164192832Y-65697963D01*
X164197247Y-65702866D01*
X164351748Y-65815118D01*
X164357776Y-65817802D01*
X164357778Y-65817803D01*
X164520181Y-65890109D01*
X164526212Y-65892794D01*
X164619612Y-65912647D01*
X164706556Y-65931128D01*
X164706561Y-65931128D01*
X164713013Y-65932500D01*
X164888383Y-65932500D01*
X164956504Y-65952502D01*
X165002997Y-66006158D01*
X165013646Y-66072105D01*
X165011869Y-66088462D01*
X165011868Y-66088476D01*
X165011500Y-66091866D01*
X165011500Y-66588134D01*
X165018255Y-66650316D01*
X165021027Y-66657709D01*
X165021027Y-66657711D01*
X165035295Y-66695771D01*
X165040478Y-66766578D01*
X165035295Y-66784229D01*
X165021027Y-66822289D01*
X165018255Y-66829684D01*
X165011500Y-66891866D01*
X165011500Y-67388134D01*
X165013377Y-67405417D01*
X165000851Y-67475297D01*
X164952532Y-67527314D01*
X164883761Y-67544950D01*
X164816372Y-67522606D01*
X164794479Y-67503336D01*
X164792970Y-67501660D01*
X164695253Y-67393134D01*
X164561085Y-67295655D01*
X164546094Y-67284763D01*
X164546093Y-67284762D01*
X164540752Y-67280882D01*
X164534724Y-67278198D01*
X164534722Y-67278197D01*
X164372319Y-67205891D01*
X164372318Y-67205891D01*
X164366288Y-67203206D01*
X164260905Y-67180806D01*
X164185944Y-67164872D01*
X164185939Y-67164872D01*
X164179487Y-67163500D01*
X163988513Y-67163500D01*
X163982061Y-67164872D01*
X163982056Y-67164872D01*
X163907095Y-67180806D01*
X163801712Y-67203206D01*
X163795682Y-67205891D01*
X163795681Y-67205891D01*
X163633278Y-67278197D01*
X163633276Y-67278198D01*
X163627248Y-67280882D01*
X163621907Y-67284762D01*
X163621906Y-67284763D01*
X163606915Y-67295655D01*
X163472747Y-67393134D01*
X163447634Y-67421025D01*
X163387191Y-67458263D01*
X163316207Y-67456912D01*
X163257222Y-67417398D01*
X163228964Y-67352268D01*
X163228000Y-67336713D01*
X163228000Y-67037115D01*
X163223525Y-67021876D01*
X163222135Y-67020671D01*
X163214452Y-67019000D01*
X162267115Y-67019000D01*
X162251876Y-67023475D01*
X162250671Y-67024865D01*
X162249000Y-67032548D01*
X162249000Y-68467885D01*
X162253475Y-68483124D01*
X162254865Y-68484329D01*
X162262548Y-68486000D01*
X163201232Y-68486000D01*
X163269353Y-68506002D01*
X163310351Y-68549000D01*
X163341658Y-68603226D01*
X163341661Y-68603231D01*
X163344960Y-68608944D01*
X163349378Y-68613851D01*
X163349379Y-68613852D01*
X163457669Y-68734120D01*
X163472747Y-68750866D01*
X163597981Y-68841854D01*
X163641334Y-68898075D01*
X163647409Y-68968811D01*
X163614278Y-69031603D01*
X163608231Y-69037424D01*
X163605091Y-69040251D01*
X163599747Y-69044134D01*
X163595326Y-69049044D01*
X163595325Y-69049045D01*
X163514898Y-69138369D01*
X163471960Y-69186056D01*
X163468659Y-69191774D01*
X163463119Y-69201369D01*
X163411736Y-69250362D01*
X163342023Y-69263798D01*
X163276112Y-69237412D01*
X163234930Y-69179579D01*
X163228000Y-69138369D01*
X163228000Y-69012115D01*
X163223525Y-68996876D01*
X163222135Y-68995671D01*
X163214452Y-68994000D01*
X162267115Y-68994000D01*
X162251876Y-68998475D01*
X162250671Y-68999865D01*
X162249000Y-69007548D01*
X162249000Y-70442885D01*
X162253475Y-70458124D01*
X162254865Y-70459329D01*
X162262548Y-70461000D01*
X163209884Y-70461000D01*
X163225123Y-70456525D01*
X163226328Y-70455135D01*
X163227999Y-70447452D01*
X163227999Y-70307629D01*
X163248001Y-70239508D01*
X163301657Y-70193015D01*
X163371931Y-70182911D01*
X163436511Y-70212405D01*
X163463117Y-70244628D01*
X163471960Y-70259944D01*
X163599747Y-70401866D01*
X163673065Y-70455135D01*
X163747610Y-70509295D01*
X163754248Y-70514118D01*
X163760276Y-70516802D01*
X163760278Y-70516803D01*
X163823444Y-70544926D01*
X163928712Y-70591794D01*
X164022112Y-70611647D01*
X164109056Y-70630128D01*
X164109061Y-70630128D01*
X164115513Y-70631500D01*
X164171406Y-70631500D01*
X164239527Y-70651502D01*
X164260501Y-70668405D01*
X164986817Y-71394721D01*
X165017939Y-71450434D01*
X165018255Y-71450316D01*
X165021030Y-71457717D01*
X165035295Y-71495771D01*
X165040478Y-71566578D01*
X165035295Y-71584229D01*
X165025682Y-71609872D01*
X165018255Y-71629684D01*
X165017402Y-71637532D01*
X165017402Y-71637534D01*
X165013051Y-71677587D01*
X165011500Y-71691866D01*
X165011500Y-72188134D01*
X165011869Y-72191531D01*
X165017402Y-72242460D01*
X165018255Y-72250316D01*
X165021027Y-72257709D01*
X165021027Y-72257711D01*
X165035295Y-72295771D01*
X165040478Y-72366578D01*
X165035295Y-72384229D01*
X165022252Y-72419022D01*
X165018255Y-72429684D01*
X165017402Y-72437532D01*
X165017402Y-72437534D01*
X165014893Y-72460635D01*
X165011500Y-72491866D01*
X165011500Y-72605500D01*
X164991498Y-72673621D01*
X164937842Y-72720114D01*
X164885500Y-72731500D01*
X164571866Y-72731500D01*
X164509684Y-72738255D01*
X164509616Y-72737627D01*
X164444438Y-72734227D01*
X164386792Y-72692784D01*
X164360876Y-72628514D01*
X164358458Y-72605500D01*
X164342542Y-72454072D01*
X164283527Y-72272444D01*
X164188040Y-72107056D01*
X164174422Y-72091931D01*
X164064675Y-71970045D01*
X164064674Y-71970044D01*
X164060253Y-71965134D01*
X163949664Y-71884786D01*
X163911094Y-71856763D01*
X163911093Y-71856762D01*
X163905752Y-71852882D01*
X163899724Y-71850198D01*
X163899722Y-71850197D01*
X163737319Y-71777891D01*
X163737318Y-71777891D01*
X163731288Y-71775206D01*
X163637887Y-71755353D01*
X163550944Y-71736872D01*
X163550939Y-71736872D01*
X163544487Y-71735500D01*
X163353513Y-71735500D01*
X163347054Y-71736873D01*
X163345940Y-71736990D01*
X163276101Y-71724217D01*
X163224255Y-71675715D01*
X163206861Y-71606882D01*
X163214788Y-71567451D01*
X163218478Y-71557609D01*
X163222105Y-71542351D01*
X163227631Y-71491486D01*
X163228000Y-71484672D01*
X163228000Y-70987115D01*
X163223525Y-70971876D01*
X163222135Y-70970671D01*
X163214452Y-70969000D01*
X158317115Y-70969000D01*
X158301876Y-70973475D01*
X158300671Y-70974865D01*
X158299000Y-70982548D01*
X158299000Y-71929884D01*
X158303475Y-71945123D01*
X158304865Y-71946328D01*
X158312548Y-71947999D01*
X158495366Y-71947999D01*
X158563487Y-71968001D01*
X158609980Y-72021657D01*
X158620084Y-72091931D01*
X158590590Y-72156511D01*
X158581619Y-72165849D01*
X158576810Y-72170365D01*
X158570395Y-72175026D01*
X158556741Y-72191531D01*
X158542214Y-72209091D01*
X158534224Y-72217871D01*
X158046744Y-72705351D01*
X157984432Y-72739377D01*
X157931958Y-72738870D01*
X157930316Y-72738255D01*
X157868134Y-72731500D01*
X157371866Y-72731500D01*
X157309684Y-72738255D01*
X157263518Y-72755562D01*
X157192711Y-72760745D01*
X157175058Y-72755562D01*
X157137606Y-72741522D01*
X157122352Y-72737895D01*
X157099795Y-72735444D01*
X157034234Y-72708201D01*
X156993808Y-72649837D01*
X156988095Y-72597011D01*
X156995814Y-72523565D01*
X156996504Y-72517000D01*
X156986206Y-72419022D01*
X156977232Y-72333635D01*
X156977232Y-72333633D01*
X156976542Y-72327072D01*
X156917527Y-72145444D01*
X156846331Y-72022129D01*
X156829593Y-71953134D01*
X156852813Y-71886042D01*
X156908620Y-71842155D01*
X156979296Y-71835406D01*
X157031015Y-71858303D01*
X157066351Y-71884786D01*
X157081946Y-71893324D01*
X157202394Y-71938478D01*
X157217649Y-71942105D01*
X157268514Y-71947631D01*
X157275328Y-71948000D01*
X157772885Y-71948000D01*
X157788124Y-71943525D01*
X157789329Y-71942135D01*
X157791000Y-71934452D01*
X157791000Y-70987115D01*
X157786525Y-70971876D01*
X157785135Y-70970671D01*
X157777452Y-70969000D01*
X156830116Y-70969000D01*
X156814877Y-70973475D01*
X156813672Y-70974865D01*
X156812001Y-70982548D01*
X156812001Y-71484669D01*
X156812371Y-71491490D01*
X156817895Y-71542352D01*
X156821522Y-71557606D01*
X156866500Y-71677587D01*
X156871683Y-71748394D01*
X156837762Y-71810763D01*
X156775506Y-71844892D01*
X156704682Y-71839945D01*
X156674461Y-71823754D01*
X156555041Y-71736990D01*
X156545094Y-71729763D01*
X156545093Y-71729762D01*
X156539752Y-71725882D01*
X156533724Y-71723198D01*
X156533722Y-71723197D01*
X156371319Y-71650891D01*
X156371318Y-71650891D01*
X156365288Y-71648206D01*
X156271887Y-71628353D01*
X156184944Y-71609872D01*
X156184939Y-71609872D01*
X156178487Y-71608500D01*
X155987513Y-71608500D01*
X155981061Y-71609872D01*
X155981056Y-71609872D01*
X155894113Y-71628353D01*
X155800712Y-71648206D01*
X155794682Y-71650891D01*
X155794681Y-71650891D01*
X155632278Y-71723197D01*
X155632276Y-71723198D01*
X155626248Y-71725882D01*
X155620907Y-71729762D01*
X155620906Y-71729763D01*
X155610959Y-71736990D01*
X155471747Y-71838134D01*
X155467326Y-71843044D01*
X155467325Y-71843045D01*
X155368201Y-71953134D01*
X155343960Y-71980056D01*
X155328405Y-72006998D01*
X155263619Y-72119210D01*
X155212236Y-72168203D01*
X155142523Y-72181639D01*
X155076612Y-72155253D01*
X155035430Y-72097420D01*
X155028500Y-72056210D01*
X155028500Y-71691866D01*
X155026949Y-71677587D01*
X155022598Y-71637534D01*
X155022598Y-71637532D01*
X155021745Y-71629684D01*
X155014318Y-71609872D01*
X155004705Y-71584229D01*
X154999522Y-71513422D01*
X155004705Y-71495771D01*
X155018973Y-71457711D01*
X155018973Y-71457709D01*
X155021745Y-71450316D01*
X155028500Y-71388134D01*
X155028500Y-70999438D01*
X155048502Y-70931317D01*
X155080440Y-70897501D01*
X155113387Y-70873564D01*
X155123307Y-70867048D01*
X155154535Y-70848580D01*
X155154538Y-70848578D01*
X155161362Y-70844542D01*
X155175683Y-70830221D01*
X155190717Y-70817380D01*
X155200694Y-70810131D01*
X155207107Y-70805472D01*
X155235298Y-70771395D01*
X155243288Y-70762616D01*
X156596906Y-69408999D01*
X156659218Y-69374973D01*
X156730034Y-69380038D01*
X156786869Y-69422585D01*
X156811680Y-69489105D01*
X156812001Y-69498094D01*
X156812001Y-69509669D01*
X156812371Y-69516490D01*
X156817895Y-69567352D01*
X156821522Y-69582606D01*
X156859259Y-69683271D01*
X156864442Y-69754078D01*
X156859259Y-69771729D01*
X156821522Y-69872391D01*
X156817895Y-69887649D01*
X156812369Y-69938514D01*
X156812000Y-69945328D01*
X156812000Y-70442885D01*
X156816475Y-70458124D01*
X156817865Y-70459329D01*
X156825548Y-70461000D01*
X157772885Y-70461000D01*
X157788124Y-70456525D01*
X157789329Y-70455135D01*
X157791000Y-70447452D01*
X157791000Y-70442885D01*
X158299000Y-70442885D01*
X158303475Y-70458124D01*
X158304865Y-70459329D01*
X158312548Y-70461000D01*
X159747885Y-70461000D01*
X159763124Y-70456525D01*
X159764329Y-70455135D01*
X159766000Y-70447452D01*
X159766000Y-70442885D01*
X160274000Y-70442885D01*
X160278475Y-70458124D01*
X160279865Y-70459329D01*
X160287548Y-70461000D01*
X161722885Y-70461000D01*
X161738124Y-70456525D01*
X161739329Y-70455135D01*
X161741000Y-70447452D01*
X161741000Y-69012115D01*
X161736525Y-68996876D01*
X161735135Y-68995671D01*
X161727452Y-68994000D01*
X160292115Y-68994000D01*
X160276876Y-68998475D01*
X160275671Y-68999865D01*
X160274000Y-69007548D01*
X160274000Y-70442885D01*
X159766000Y-70442885D01*
X159766000Y-69012115D01*
X159761525Y-68996876D01*
X159760135Y-68995671D01*
X159752452Y-68994000D01*
X158317115Y-68994000D01*
X158301876Y-68998475D01*
X158300671Y-68999865D01*
X158299000Y-69007548D01*
X158299000Y-70442885D01*
X157791000Y-70442885D01*
X157791000Y-68467885D01*
X158299000Y-68467885D01*
X158303475Y-68483124D01*
X158304865Y-68484329D01*
X158312548Y-68486000D01*
X159747885Y-68486000D01*
X159763124Y-68481525D01*
X159764329Y-68480135D01*
X159766000Y-68472452D01*
X159766000Y-68467885D01*
X160274000Y-68467885D01*
X160278475Y-68483124D01*
X160279865Y-68484329D01*
X160287548Y-68486000D01*
X161722885Y-68486000D01*
X161738124Y-68481525D01*
X161739329Y-68480135D01*
X161741000Y-68472452D01*
X161741000Y-67037115D01*
X161736525Y-67021876D01*
X161735135Y-67020671D01*
X161727452Y-67019000D01*
X160292115Y-67019000D01*
X160276876Y-67023475D01*
X160275671Y-67024865D01*
X160274000Y-67032548D01*
X160274000Y-68467885D01*
X159766000Y-68467885D01*
X159766000Y-67037115D01*
X159761525Y-67021876D01*
X159760135Y-67020671D01*
X159752452Y-67019000D01*
X158317115Y-67019000D01*
X158301876Y-67023475D01*
X158300671Y-67024865D01*
X158299000Y-67032548D01*
X158299000Y-68467885D01*
X157791000Y-68467885D01*
X157791000Y-66637000D01*
X157811002Y-66568879D01*
X157864658Y-66522386D01*
X157917000Y-66511000D01*
X163209884Y-66511000D01*
X163225123Y-66506525D01*
X163226328Y-66505135D01*
X163227999Y-66497452D01*
X163227999Y-65995331D01*
X163227629Y-65988510D01*
X163222105Y-65937648D01*
X163218479Y-65922397D01*
X163182990Y-65827730D01*
X163177807Y-65756923D01*
X163211728Y-65694554D01*
X163273983Y-65660424D01*
X163300972Y-65657500D01*
X164100300Y-65657500D01*
X164168421Y-65677502D01*
G37*
%TD.AperFunction*%
%TA.AperFunction,Conductor*%
G36*
X158400671Y-51328502D02*
G01*
X158447164Y-51382158D01*
X158457268Y-51452432D01*
X158427774Y-51517012D01*
X158396689Y-51542953D01*
X158365463Y-51561420D01*
X158365457Y-51561425D01*
X158358637Y-51565458D01*
X158344313Y-51579782D01*
X158329281Y-51592621D01*
X158312893Y-51604528D01*
X158284712Y-51638593D01*
X158276722Y-51647373D01*
X157529500Y-52394595D01*
X157467188Y-52428621D01*
X157440405Y-52431500D01*
X157384513Y-52431500D01*
X157378061Y-52432872D01*
X157378056Y-52432872D01*
X157308463Y-52447665D01*
X157197712Y-52471206D01*
X157191682Y-52473891D01*
X157191681Y-52473891D01*
X157029278Y-52546197D01*
X157029276Y-52546198D01*
X157023248Y-52548882D01*
X156868747Y-52661134D01*
X156864326Y-52666044D01*
X156864325Y-52666045D01*
X156764279Y-52777158D01*
X156740960Y-52803056D01*
X156645473Y-52968444D01*
X156586458Y-53150072D01*
X156585768Y-53156633D01*
X156585768Y-53156635D01*
X156568693Y-53319098D01*
X156566496Y-53340000D01*
X156586458Y-53529928D01*
X156645473Y-53711556D01*
X156740960Y-53876944D01*
X156745378Y-53881851D01*
X156745379Y-53881852D01*
X156763789Y-53902298D01*
X156868747Y-54018866D01*
X157023248Y-54131118D01*
X157029276Y-54133802D01*
X157029278Y-54133803D01*
X157148988Y-54187101D01*
X157197712Y-54208794D01*
X157291112Y-54228647D01*
X157378056Y-54247128D01*
X157378061Y-54247128D01*
X157384513Y-54248500D01*
X157575487Y-54248500D01*
X157581939Y-54247128D01*
X157581944Y-54247128D01*
X157668888Y-54228647D01*
X157762288Y-54208794D01*
X157811012Y-54187101D01*
X157930722Y-54133803D01*
X157930724Y-54133802D01*
X157936752Y-54131118D01*
X158091253Y-54018866D01*
X158196211Y-53902298D01*
X158214621Y-53881852D01*
X158214622Y-53881851D01*
X158219040Y-53876944D01*
X158314527Y-53711556D01*
X158373542Y-53529928D01*
X158390907Y-53364706D01*
X158417920Y-53299050D01*
X158427122Y-53288782D01*
X158975499Y-52740405D01*
X159037811Y-52706379D01*
X159064594Y-52703500D01*
X159969000Y-52703500D01*
X160037121Y-52723502D01*
X160083614Y-52777158D01*
X160095000Y-52829500D01*
X160095000Y-52864634D01*
X160101755Y-52926816D01*
X160152885Y-53063205D01*
X160240239Y-53179761D01*
X160356795Y-53267115D01*
X160493184Y-53318245D01*
X160555366Y-53325000D01*
X162144634Y-53325000D01*
X162206816Y-53318245D01*
X162343205Y-53267115D01*
X162459761Y-53179761D01*
X162506312Y-53117648D01*
X163266906Y-53117648D01*
X163276202Y-53129664D01*
X163315849Y-53157424D01*
X163325335Y-53162902D01*
X163514312Y-53251022D01*
X163524608Y-53254770D01*
X163726016Y-53308738D01*
X163736803Y-53310640D01*
X163944525Y-53328813D01*
X163955475Y-53328813D01*
X164163197Y-53310640D01*
X164173984Y-53308738D01*
X164375392Y-53254770D01*
X164385688Y-53251022D01*
X164574665Y-53162902D01*
X164584151Y-53157424D01*
X164624636Y-53129077D01*
X164633011Y-53118600D01*
X164625942Y-53105152D01*
X163962812Y-52442022D01*
X163948868Y-52434408D01*
X163947035Y-52434539D01*
X163940420Y-52438790D01*
X163273336Y-53105874D01*
X163266906Y-53117648D01*
X162506312Y-53117648D01*
X162547115Y-53063205D01*
X162598245Y-52926816D01*
X162605000Y-52864634D01*
X162605000Y-52722388D01*
X162625002Y-52654267D01*
X162678658Y-52607774D01*
X162748932Y-52597670D01*
X162813512Y-52627164D01*
X162845195Y-52669138D01*
X162857098Y-52694665D01*
X162862576Y-52704151D01*
X162890923Y-52744636D01*
X162901400Y-52753011D01*
X162914848Y-52745942D01*
X163860905Y-51799885D01*
X163923217Y-51765859D01*
X163994032Y-51770924D01*
X164039095Y-51799885D01*
X164985874Y-52746664D01*
X164997648Y-52753094D01*
X165009664Y-52743798D01*
X165037424Y-52704151D01*
X165042902Y-52694665D01*
X165131023Y-52505688D01*
X165131333Y-52504835D01*
X165131571Y-52504512D01*
X165133347Y-52500703D01*
X165134113Y-52501060D01*
X165173430Y-52447665D01*
X165239752Y-52422330D01*
X165309243Y-52436873D01*
X165359840Y-52486677D01*
X165365979Y-52500121D01*
X165366181Y-52500875D01*
X165377099Y-52524289D01*
X165456660Y-52694910D01*
X165456663Y-52694915D01*
X165458986Y-52699897D01*
X165503970Y-52764140D01*
X165574337Y-52864634D01*
X165584942Y-52879780D01*
X165740220Y-53035058D01*
X165744728Y-53038215D01*
X165744731Y-53038217D01*
X165819413Y-53090510D01*
X165920103Y-53161014D01*
X165925085Y-53163337D01*
X165925090Y-53163340D01*
X166114143Y-53251496D01*
X166119125Y-53253819D01*
X166124433Y-53255241D01*
X166124435Y-53255242D01*
X166325924Y-53309231D01*
X166325926Y-53309231D01*
X166331239Y-53310655D01*
X166336715Y-53311134D01*
X166336720Y-53311135D01*
X166456954Y-53321654D01*
X166547982Y-53329617D01*
X166614100Y-53355480D01*
X166655739Y-53412984D01*
X166663000Y-53455138D01*
X166663000Y-57532000D01*
X166642998Y-57600121D01*
X166589342Y-57646614D01*
X166537000Y-57658000D01*
X153416000Y-57658000D01*
X153416000Y-63073240D01*
X153395998Y-63141361D01*
X153390826Y-63148805D01*
X153325214Y-63236351D01*
X153316676Y-63251946D01*
X153271522Y-63372394D01*
X153267895Y-63387649D01*
X153262369Y-63438514D01*
X153262000Y-63445328D01*
X153262000Y-63567885D01*
X153266475Y-63583124D01*
X153267865Y-63584329D01*
X153275548Y-63586000D01*
X154916479Y-63586000D01*
X154984600Y-63606002D01*
X154998992Y-63616776D01*
X155023865Y-63638329D01*
X155031548Y-63640000D01*
X165003885Y-63640000D01*
X165019124Y-63635526D01*
X165024355Y-63629488D01*
X165084081Y-63591104D01*
X165119580Y-63586000D01*
X166048000Y-63586000D01*
X166116121Y-63606002D01*
X166162614Y-63659658D01*
X166174000Y-63712000D01*
X166174000Y-63905500D01*
X166153998Y-63973621D01*
X166100342Y-64020114D01*
X166048000Y-64031500D01*
X165471866Y-64031500D01*
X165409684Y-64038255D01*
X165402288Y-64041027D01*
X165402282Y-64041029D01*
X165282371Y-64085982D01*
X165238142Y-64094000D01*
X165123521Y-64094000D01*
X165055400Y-64073998D01*
X165041008Y-64063224D01*
X165016135Y-64041671D01*
X165008452Y-64040000D01*
X155438115Y-64040000D01*
X155422876Y-64044475D01*
X155421671Y-64045865D01*
X155420000Y-64053548D01*
X155420000Y-64729884D01*
X155424475Y-64745123D01*
X155425865Y-64746328D01*
X155433548Y-64747999D01*
X155468088Y-64747999D01*
X155468088Y-64749208D01*
X155532386Y-64764379D01*
X155581701Y-64815453D01*
X155595574Y-64885081D01*
X155589906Y-64912824D01*
X155542159Y-65059773D01*
X155541469Y-65066334D01*
X155541469Y-65066336D01*
X155524794Y-65224993D01*
X155497781Y-65290650D01*
X155488579Y-65300919D01*
X155119901Y-65669596D01*
X155057589Y-65703621D01*
X155030806Y-65706500D01*
X154827550Y-65706500D01*
X154769842Y-65691736D01*
X154766705Y-65689385D01*
X154630316Y-65638255D01*
X154568134Y-65631500D01*
X153671866Y-65631500D01*
X153609684Y-65638255D01*
X153473295Y-65689385D01*
X153470158Y-65691736D01*
X153412450Y-65706500D01*
X152158276Y-65706500D01*
X152090155Y-65686498D01*
X152050199Y-65640839D01*
X152048756Y-65641732D01*
X151962606Y-65502515D01*
X151958752Y-65496287D01*
X151953570Y-65491114D01*
X151949023Y-65485377D01*
X151950830Y-65483945D01*
X151922098Y-65431425D01*
X151927108Y-65360605D01*
X151950499Y-65324147D01*
X151949448Y-65323317D01*
X151950579Y-65321885D01*
X153212000Y-65321885D01*
X153216475Y-65337124D01*
X153217865Y-65338329D01*
X153225548Y-65340000D01*
X153901885Y-65340000D01*
X153917124Y-65335525D01*
X153918329Y-65334135D01*
X153920000Y-65326452D01*
X153920000Y-65321885D01*
X154320000Y-65321885D01*
X154324475Y-65337124D01*
X154325865Y-65338329D01*
X154333548Y-65340000D01*
X155009884Y-65340000D01*
X155025123Y-65335525D01*
X155026328Y-65334135D01*
X155027999Y-65326452D01*
X155027999Y-65295331D01*
X155027629Y-65288510D01*
X155022105Y-65237648D01*
X155018479Y-65222397D01*
X155004171Y-65184230D01*
X154998988Y-65113423D01*
X155004171Y-65095770D01*
X155018478Y-65057606D01*
X155022105Y-65042351D01*
X155027631Y-64991486D01*
X155028000Y-64984672D01*
X155028000Y-64958115D01*
X155023525Y-64942876D01*
X155022135Y-64941671D01*
X155014452Y-64940000D01*
X154338115Y-64940000D01*
X154322876Y-64944475D01*
X154321671Y-64945865D01*
X154320000Y-64953548D01*
X154320000Y-65321885D01*
X153920000Y-65321885D01*
X153920000Y-64958115D01*
X153915525Y-64942876D01*
X153914135Y-64941671D01*
X153906452Y-64940000D01*
X153230116Y-64940000D01*
X153214877Y-64944475D01*
X153213672Y-64945865D01*
X153212001Y-64953548D01*
X153212001Y-64984669D01*
X153212371Y-64991490D01*
X153217895Y-65042352D01*
X153221521Y-65057603D01*
X153235829Y-65095770D01*
X153241012Y-65166577D01*
X153235829Y-65184230D01*
X153221522Y-65222394D01*
X153217895Y-65237649D01*
X153212369Y-65288514D01*
X153212000Y-65295328D01*
X153212000Y-65321885D01*
X151950579Y-65321885D01*
X151962998Y-65306160D01*
X152045004Y-65173120D01*
X152051151Y-65159939D01*
X152100491Y-65011186D01*
X152103358Y-64997810D01*
X152112672Y-64906903D01*
X152112929Y-64901874D01*
X152108525Y-64886876D01*
X152107135Y-64885671D01*
X152099452Y-64884000D01*
X151089500Y-64884000D01*
X151021379Y-64863998D01*
X150974886Y-64810342D01*
X150963500Y-64758000D01*
X150963500Y-64521885D01*
X153212000Y-64521885D01*
X153216475Y-64537124D01*
X153217865Y-64538329D01*
X153225548Y-64540000D01*
X153847885Y-64540000D01*
X153863124Y-64535525D01*
X153864329Y-64534135D01*
X153866000Y-64526452D01*
X153866000Y-64521885D01*
X154374000Y-64521885D01*
X154378475Y-64537124D01*
X154379865Y-64538329D01*
X154387548Y-64540000D01*
X155001885Y-64540000D01*
X155017124Y-64535525D01*
X155018329Y-64534135D01*
X155020000Y-64526452D01*
X155020000Y-64058115D01*
X155017230Y-64048682D01*
X155015645Y-64050512D01*
X154955919Y-64088896D01*
X154920420Y-64094000D01*
X154392115Y-64094000D01*
X154376876Y-64098475D01*
X154375671Y-64099865D01*
X154374000Y-64107548D01*
X154374000Y-64521885D01*
X153866000Y-64521885D01*
X153866000Y-64112115D01*
X153861525Y-64096876D01*
X153860135Y-64095671D01*
X153852452Y-64094000D01*
X153280116Y-64094000D01*
X153264877Y-64098475D01*
X153263672Y-64099865D01*
X153262001Y-64107548D01*
X153262001Y-64234669D01*
X153262371Y-64241490D01*
X153265194Y-64267486D01*
X153257913Y-64325321D01*
X153221522Y-64422394D01*
X153217895Y-64437649D01*
X153212369Y-64488514D01*
X153212000Y-64495328D01*
X153212000Y-64521885D01*
X150963500Y-64521885D01*
X150963500Y-64502000D01*
X150983502Y-64433879D01*
X151037158Y-64387386D01*
X151089500Y-64376000D01*
X152094885Y-64376000D01*
X152110124Y-64371525D01*
X152111329Y-64370135D01*
X152113000Y-64362452D01*
X152113000Y-64359562D01*
X152112663Y-64353047D01*
X152103106Y-64260943D01*
X152100212Y-64247544D01*
X152050619Y-64098893D01*
X152044445Y-64085714D01*
X151959115Y-63947822D01*
X151940277Y-63879370D01*
X151960321Y-63815176D01*
X151959552Y-63814702D01*
X151961411Y-63811686D01*
X152049302Y-63669101D01*
X152103149Y-63506757D01*
X152104756Y-63491079D01*
X152113172Y-63408930D01*
X152113500Y-63405732D01*
X152113500Y-62858268D01*
X152102887Y-62755981D01*
X152077602Y-62680192D01*
X152051073Y-62600676D01*
X152051072Y-62600674D01*
X152048756Y-62593732D01*
X152043720Y-62585593D01*
X151962606Y-62454515D01*
X151958752Y-62448287D01*
X151953570Y-62443114D01*
X151949023Y-62437377D01*
X151950830Y-62435945D01*
X151922098Y-62383425D01*
X151927108Y-62312605D01*
X151950499Y-62276147D01*
X151949448Y-62275317D01*
X151962998Y-62258160D01*
X152045004Y-62125120D01*
X152051151Y-62111939D01*
X152100491Y-61963186D01*
X152103358Y-61949810D01*
X152112672Y-61858903D01*
X152112929Y-61853874D01*
X152108525Y-61838876D01*
X152107135Y-61837671D01*
X152099452Y-61836000D01*
X151089500Y-61836000D01*
X151021379Y-61815998D01*
X150974886Y-61762342D01*
X150963500Y-61710000D01*
X150963500Y-61309885D01*
X151384000Y-61309885D01*
X151388475Y-61325124D01*
X151389865Y-61326329D01*
X151397548Y-61328000D01*
X152094885Y-61328000D01*
X152110124Y-61323525D01*
X152111329Y-61322135D01*
X152113000Y-61314452D01*
X152113000Y-61311562D01*
X152112663Y-61305047D01*
X152103106Y-61212943D01*
X152100212Y-61199544D01*
X152050619Y-61050893D01*
X152044445Y-61037714D01*
X151962212Y-60904827D01*
X151953176Y-60893426D01*
X151842571Y-60783014D01*
X151831160Y-60774002D01*
X151698120Y-60691996D01*
X151684939Y-60685849D01*
X151536186Y-60636509D01*
X151522810Y-60633642D01*
X151431903Y-60624328D01*
X151425486Y-60624000D01*
X151402115Y-60624000D01*
X151386876Y-60628475D01*
X151385671Y-60629865D01*
X151384000Y-60637548D01*
X151384000Y-61309885D01*
X150963500Y-61309885D01*
X150963500Y-58264594D01*
X150983502Y-58196473D01*
X151000405Y-58175499D01*
X153551559Y-55624345D01*
X153613871Y-55590319D01*
X153627646Y-55588114D01*
X153643266Y-55586493D01*
X153671162Y-55583599D01*
X153671166Y-55583598D01*
X153678019Y-55582887D01*
X153831726Y-55531606D01*
X153833324Y-55531073D01*
X153833326Y-55531072D01*
X153840268Y-55528756D01*
X153985713Y-55438752D01*
X154106552Y-55317702D01*
X154196302Y-55172101D01*
X154250149Y-55009757D01*
X154260500Y-54908732D01*
X154260500Y-54378419D01*
X154264458Y-54347087D01*
X154268734Y-54330433D01*
X154275137Y-54311734D01*
X154280033Y-54300420D01*
X154280033Y-54300419D01*
X154283181Y-54293145D01*
X154284420Y-54285322D01*
X154284423Y-54285312D01*
X154290099Y-54249476D01*
X154292505Y-54237856D01*
X154301528Y-54202711D01*
X154301528Y-54202710D01*
X154303500Y-54195030D01*
X154303500Y-54174776D01*
X154305051Y-54155065D01*
X154306980Y-54142886D01*
X154308220Y-54135057D01*
X154304059Y-54091038D01*
X154303500Y-54079181D01*
X154303500Y-53243004D01*
X154323502Y-53174883D01*
X154357229Y-53139791D01*
X154485270Y-53050136D01*
X154485273Y-53050134D01*
X154489781Y-53046977D01*
X154646977Y-52889781D01*
X154657139Y-52875269D01*
X154771331Y-52712185D01*
X154771332Y-52712183D01*
X154774488Y-52707676D01*
X154776811Y-52702694D01*
X154776814Y-52702689D01*
X154866117Y-52511178D01*
X154866118Y-52511177D01*
X154868440Y-52506196D01*
X154925978Y-52291463D01*
X154945353Y-52070000D01*
X154925978Y-51848537D01*
X154868440Y-51633804D01*
X154857637Y-51610637D01*
X154800334Y-51487750D01*
X154789673Y-51417558D01*
X154818653Y-51352746D01*
X154878073Y-51313889D01*
X154914529Y-51308500D01*
X158332550Y-51308500D01*
X158400671Y-51328502D01*
G37*
%TD.AperFunction*%
%TA.AperFunction,Conductor*%
G36*
X151174032Y-51770924D02*
G01*
X151219095Y-51799885D01*
X152177003Y-52757793D01*
X152188777Y-52764223D01*
X152200793Y-52754926D01*
X152230897Y-52711932D01*
X152236377Y-52702441D01*
X152285529Y-52597035D01*
X152332447Y-52543750D01*
X152400724Y-52524289D01*
X152468684Y-52544831D01*
X152513919Y-52597035D01*
X152563186Y-52702689D01*
X152563189Y-52702694D01*
X152565512Y-52707676D01*
X152568668Y-52712183D01*
X152568669Y-52712185D01*
X152682862Y-52875269D01*
X152693023Y-52889781D01*
X152850219Y-53046977D01*
X152854727Y-53050134D01*
X152854730Y-53050136D01*
X152982771Y-53139791D01*
X153027099Y-53195248D01*
X153036500Y-53243004D01*
X153036500Y-53512321D01*
X153016498Y-53580442D01*
X152962842Y-53626935D01*
X152937100Y-53635481D01*
X152932838Y-53636402D01*
X152925981Y-53637113D01*
X152917963Y-53639788D01*
X152770676Y-53688927D01*
X152770674Y-53688928D01*
X152763732Y-53691244D01*
X152757508Y-53695096D01*
X152757507Y-53695096D01*
X152730908Y-53711556D01*
X152618287Y-53781248D01*
X152613114Y-53786430D01*
X152607377Y-53790977D01*
X152605945Y-53789170D01*
X152553425Y-53817902D01*
X152482605Y-53812892D01*
X152446147Y-53789501D01*
X152445317Y-53790552D01*
X152428160Y-53777002D01*
X152295120Y-53694996D01*
X152281939Y-53688849D01*
X152133186Y-53639509D01*
X152119810Y-53636642D01*
X152028903Y-53627328D01*
X152023874Y-53627071D01*
X152008876Y-53631475D01*
X152007671Y-53632865D01*
X152006000Y-53640548D01*
X152006000Y-54738000D01*
X151985998Y-54806121D01*
X151932342Y-54852614D01*
X151880000Y-54864000D01*
X150177000Y-54864000D01*
X150108879Y-54843998D01*
X150062386Y-54790342D01*
X150051000Y-54738000D01*
X150051000Y-54337885D01*
X150559000Y-54337885D01*
X150563475Y-54353124D01*
X150564865Y-54354329D01*
X150572548Y-54356000D01*
X151479885Y-54356000D01*
X151495124Y-54351525D01*
X151496329Y-54350135D01*
X151498000Y-54342452D01*
X151498000Y-53645115D01*
X151493525Y-53629876D01*
X151492135Y-53628671D01*
X151484452Y-53627000D01*
X151481562Y-53627000D01*
X151475047Y-53627337D01*
X151382943Y-53636894D01*
X151369544Y-53639788D01*
X151220893Y-53689381D01*
X151207721Y-53695552D01*
X151094895Y-53765370D01*
X151026443Y-53784207D01*
X150962476Y-53765485D01*
X150848120Y-53694996D01*
X150834939Y-53688849D01*
X150686186Y-53639509D01*
X150672810Y-53636642D01*
X150581903Y-53627328D01*
X150576874Y-53627071D01*
X150561876Y-53631475D01*
X150560671Y-53632865D01*
X150559000Y-53640548D01*
X150559000Y-54337885D01*
X150051000Y-54337885D01*
X150051000Y-53645115D01*
X150046525Y-53629876D01*
X150045135Y-53628671D01*
X150037452Y-53627000D01*
X150034562Y-53627000D01*
X150028047Y-53627337D01*
X149935943Y-53636894D01*
X149922544Y-53639788D01*
X149773893Y-53689381D01*
X149760714Y-53695555D01*
X149627827Y-53777788D01*
X149610689Y-53791371D01*
X149609159Y-53789441D01*
X149557120Y-53817903D01*
X149486301Y-53812887D01*
X149449383Y-53789201D01*
X149448628Y-53790157D01*
X149442882Y-53785619D01*
X149437702Y-53780448D01*
X149295066Y-53692525D01*
X149295064Y-53692524D01*
X149292101Y-53690698D01*
X149292414Y-53690191D01*
X149242964Y-53646649D01*
X149223500Y-53579373D01*
X149223500Y-53451000D01*
X149243502Y-53382879D01*
X149297158Y-53336386D01*
X149349500Y-53325000D01*
X149384634Y-53325000D01*
X149446816Y-53318245D01*
X149583205Y-53267115D01*
X149699761Y-53179761D01*
X149737971Y-53128777D01*
X150435777Y-53128777D01*
X150445074Y-53140793D01*
X150488069Y-53170898D01*
X150497555Y-53176376D01*
X150688993Y-53265645D01*
X150699285Y-53269391D01*
X150903309Y-53324059D01*
X150914104Y-53325962D01*
X151124525Y-53344372D01*
X151135475Y-53344372D01*
X151345896Y-53325962D01*
X151356691Y-53324059D01*
X151560715Y-53269391D01*
X151571007Y-53265645D01*
X151762445Y-53176376D01*
X151771931Y-53170898D01*
X151815764Y-53140207D01*
X151824139Y-53129729D01*
X151817071Y-53116281D01*
X151142812Y-52442022D01*
X151128868Y-52434408D01*
X151127035Y-52434539D01*
X151120420Y-52438790D01*
X150442207Y-53117003D01*
X150435777Y-53128777D01*
X149737971Y-53128777D01*
X149787115Y-53063205D01*
X149838245Y-52926816D01*
X149845000Y-52864634D01*
X149845000Y-52846095D01*
X149865002Y-52777974D01*
X149918658Y-52731481D01*
X149988932Y-52721377D01*
X150049673Y-52747674D01*
X150070272Y-52764140D01*
X150083718Y-52757072D01*
X151040905Y-51799885D01*
X151103217Y-51765859D01*
X151174032Y-51770924D01*
G37*
%TD.AperFunction*%
%TD*%
M02*
