M48
; DRILL file {KiCad 6.0.11+dfsg-1} date Tue 25 Mar 2025 10:53:01 PM EDT
; FORMAT={-:-/ absolute / inch / decimal}
; #@! TF.CreationDate,2025-03-25T22:53:01-04:00
; #@! TF.GenerationSoftware,Kicad,Pcbnew,6.0.11+dfsg-1
; #@! TF.FileFunction,Plated,1,2,PTH
FMAT,2
INCH
; #@! TA.AperFunction,Plated,PTH,ViaDrill
T1C0.0157
; #@! TA.AperFunction,Plated,PTH,ComponentDrill
T2C0.0300
; #@! TA.AperFunction,Plated,PTH,ComponentDrill
T3C0.0378
; #@! TA.AperFunction,Plated,PTH,ComponentDrill
T4C0.0433
%
G90
G05
T1
X6.14Y-1.64
X6.17Y-1.48
X6.19Y-1.3
X6.19Y-1.65
X6.19Y-1.7
X6.23Y-1.86
X6.26Y-1.89
X6.29Y-1.41
X6.3Y-1.57
X6.3Y-1.86
X6.31Y-2.33
X6.31Y-2.45
X6.34Y-1.53
X6.34Y-1.65
X6.4Y-1.89
X6.4399Y-1.7144
X6.44Y-1.8108
X6.46Y-1.47
X6.52Y-1.8108
X6.54Y-1.47
X6.55Y-1.65
X6.62Y-1.83
X6.67Y-1.38
X6.67Y-1.87
X6.68Y-1.64
X6.7Y-2.33
X6.7Y-2.44
X6.72Y-2.12
X6.7256Y-1.8344
X6.73Y-1.92
X6.73Y-2.05
X6.74Y-1.79
X6.75Y-1.71
X6.8Y-1.31
X6.81Y-1.54
X6.81Y-2.19
X6.82Y-2.0
X6.83Y-1.71
X6.85Y-2.28
X6.91Y-1.62
X6.92Y-1.8
T2
X6.1Y-2.25
X6.1Y-2.35
X6.1Y-2.45
X6.5583Y-1.9287
X6.6583Y-1.9287
X6.9Y-1.75
X6.9Y-1.85
X6.9Y-1.95
T3
X6.1Y-1.75
X6.1Y-1.8524
X6.1Y-1.9547
X6.1Y-2.05
X6.1Y-2.15
X6.4583Y-1.9287
X6.9Y-1.2476
X6.9Y-1.3429
X6.9Y-1.4453
X6.9Y-1.5476
X6.9Y-2.05
X6.9Y-2.15
X6.9Y-2.2453
X6.9Y-2.3476
X6.9Y-2.45
T4
X6.2303Y-2.275
X6.2303Y-2.5309
X6.4075Y-2.275
X6.4075Y-2.5309
X6.5983Y-2.275
X6.5983Y-2.5309
X6.7754Y-2.275
X6.7754Y-2.5309
T0
M30
