M48
; DRILL file {KiCad 6.0.11+dfsg-1} date Sun 06 Apr 2025 05:12:15 PM EDT
; FORMAT={-:-/ absolute / inch / decimal}
; #@! TF.CreationDate,2025-04-06T17:12:15-04:00
; #@! TF.GenerationSoftware,Kicad,Pcbnew,6.0.11+dfsg-1
; #@! TF.FileFunction,Plated,1,2,PTH
FMAT,2
INCH
; #@! TA.AperFunction,Plated,PTH,ViaDrill
T1C0.0157
; #@! TA.AperFunction,Plated,PTH,ComponentDrill
T2C0.0300
; #@! TA.AperFunction,Plated,PTH,ComponentDrill
T3C0.0378
; #@! TA.AperFunction,Plated,PTH,ComponentDrill
T4C0.0433
%
G90
G05
T1
X6.19Y-1.7
X6.3007Y-1.4193
X6.31Y-1.6
X6.32Y-2.34
X6.33Y-2.03
X6.44Y-1.67
X6.46Y-1.47
X6.48Y-1.8258
X6.54Y-1.47
X6.59Y-1.77
X6.62Y-1.87
X6.66Y-1.8
X6.7Y-2.33
X6.72Y-2.04
X6.74Y-1.79
X6.8Y-1.31
T2
X6.1Y-2.25
X6.1Y-2.35
X6.1Y-2.45
X6.5583Y-1.9287
X6.6583Y-1.9287
X6.9Y-1.75
X6.9Y-1.85
X6.9Y-1.95
T3
X6.1Y-1.75
X6.1Y-1.8524
X6.1Y-1.9547
X6.1Y-2.05
X6.1Y-2.15
X6.4583Y-1.9287
X6.9Y-1.2476
X6.9Y-1.3429
X6.9Y-1.4453
X6.9Y-1.5476
X6.9Y-2.05
X6.9Y-2.15
X6.9Y-2.2453
X6.9Y-2.3476
X6.9Y-2.45
T4
X6.2303Y-2.275
X6.2303Y-2.5309
X6.4075Y-2.275
X6.4075Y-2.5309
X6.5983Y-2.275
X6.5983Y-2.5309
X6.7754Y-2.275
X6.7754Y-2.5309
T0
M30
