%TF.GenerationSoftware,KiCad,Pcbnew,6.0.11+dfsg-1*%
%TF.CreationDate,2025-04-06T17:28:17-04:00*%
%TF.ProjectId,quad_direct,71756164-5f64-4697-9265-63742e6b6963,rev?*%
%TF.SameCoordinates,Original*%
%TF.FileFunction,Paste,Top*%
%TF.FilePolarity,Positive*%
%FSLAX46Y46*%
G04 Gerber Fmt 4.6, Leading zero omitted, Abs format (unit mm)*
G04 Created by KiCad (PCBNEW 6.0.11+dfsg-1) date 2025-04-06 17:28:17*
%MOMM*%
%LPD*%
G01*
G04 APERTURE LIST*
G04 Aperture macros list*
%AMRoundRect*
0 Rectangle with rounded corners*
0 $1 Rounding radius*
0 $2 $3 $4 $5 $6 $7 $8 $9 X,Y pos of 4 corners*
0 Add a 4 corners polygon primitive as box body*
4,1,4,$2,$3,$4,$5,$6,$7,$8,$9,$2,$3,0*
0 Add four circle primitives for the rounded corners*
1,1,$1+$1,$2,$3*
1,1,$1+$1,$4,$5*
1,1,$1+$1,$6,$7*
1,1,$1+$1,$8,$9*
0 Add four rect primitives between the rounded corners*
20,1,$1+$1,$2,$3,$4,$5,0*
20,1,$1+$1,$4,$5,$6,$7,0*
20,1,$1+$1,$6,$7,$8,$9,0*
20,1,$1+$1,$8,$9,$2,$3,0*%
G04 Aperture macros list end*
%ADD10RoundRect,0.200000X-0.200000X-0.275000X0.200000X-0.275000X0.200000X0.275000X-0.200000X0.275000X0*%
%ADD11RoundRect,0.225000X0.225000X0.250000X-0.225000X0.250000X-0.225000X-0.250000X0.225000X-0.250000X0*%
%ADD12R,0.800000X0.400000*%
%ADD13R,0.400000X0.800000*%
%ADD14R,1.450000X1.450000*%
%ADD15R,0.700000X0.700000*%
%ADD16RoundRect,0.225000X0.250000X-0.225000X0.250000X0.225000X-0.250000X0.225000X-0.250000X-0.225000X0*%
%ADD17RoundRect,0.225000X-0.225000X-0.250000X0.225000X-0.250000X0.225000X0.250000X-0.225000X0.250000X0*%
%ADD18RoundRect,0.200000X0.200000X0.275000X-0.200000X0.275000X-0.200000X-0.275000X0.200000X-0.275000X0*%
%ADD19RoundRect,0.237500X0.237500X-0.287500X0.237500X0.287500X-0.237500X0.287500X-0.237500X-0.287500X0*%
G04 APERTURE END LIST*
D10*
%TO.C,R2*%
X167450000Y-53547500D03*
X169100000Y-53547500D03*
%TD*%
%TO.C,R3*%
X161925000Y-46450000D03*
X163575000Y-46450000D03*
%TD*%
D11*
%TO.C,C6*%
X160985000Y-54070000D03*
X159435000Y-54070000D03*
%TD*%
D12*
%TO.C,111*%
X159200000Y-34260000D03*
X159200000Y-35060000D03*
X159200000Y-35860000D03*
X159200000Y-36660000D03*
X159200000Y-37460000D03*
X159200000Y-38260000D03*
X159200000Y-39060000D03*
X159200000Y-39860000D03*
X159200000Y-40660000D03*
X159200000Y-41460000D03*
X159200000Y-42260000D03*
D13*
X160300000Y-43160000D03*
X161100000Y-43160000D03*
X161900000Y-43160000D03*
X162700000Y-43160000D03*
X163500000Y-43160000D03*
X164300000Y-43160000D03*
X165100000Y-43160000D03*
X165900000Y-43160000D03*
X166700000Y-43160000D03*
X167500000Y-43160000D03*
X168300000Y-43160000D03*
X169100000Y-43160000D03*
X169900000Y-43160000D03*
D12*
X171000000Y-42260000D03*
X171000000Y-41460000D03*
X171000000Y-40660000D03*
X171000000Y-39860000D03*
X171000000Y-39060000D03*
X171000000Y-38260000D03*
X171000000Y-37460000D03*
X171000000Y-36660000D03*
X171000000Y-35860000D03*
X171000000Y-35060000D03*
X171000000Y-34260000D03*
D13*
X169900000Y-33360000D03*
X169100000Y-33360000D03*
X168300000Y-33360000D03*
X167500000Y-33360000D03*
X166700000Y-33360000D03*
X165900000Y-33360000D03*
X165100000Y-33360000D03*
X164300000Y-33360000D03*
X163500000Y-33360000D03*
X162700000Y-33360000D03*
X161900000Y-33360000D03*
X161100000Y-33360000D03*
X160300000Y-33360000D03*
D14*
X165100000Y-38260000D03*
D15*
X171000000Y-33360000D03*
X171000000Y-43160000D03*
X159200000Y-43160000D03*
X159200000Y-33360000D03*
D14*
X163125000Y-38260000D03*
X163125000Y-40235000D03*
X165100000Y-40235000D03*
X167075000Y-40235000D03*
X167075000Y-38260000D03*
X167075000Y-36285000D03*
X165100000Y-36285000D03*
X163125000Y-36285000D03*
%TD*%
D16*
%TO.C,C3*%
X157237444Y-36327389D03*
X157237444Y-34777389D03*
%TD*%
D10*
%TO.C,R4*%
X166010000Y-46450000D03*
X167660000Y-46450000D03*
%TD*%
D17*
%TO.C,C4*%
X162750000Y-51530000D03*
X164300000Y-51530000D03*
%TD*%
%TO.C,C7*%
X167500000Y-55245000D03*
X169050000Y-55245000D03*
%TD*%
%TO.C,C1*%
X155665653Y-38100000D03*
X157215653Y-38100000D03*
%TD*%
D16*
%TO.C,C2*%
X155497444Y-36335000D03*
X155497444Y-34785000D03*
%TD*%
D18*
%TO.C,R1*%
X164350000Y-54070000D03*
X162700000Y-54070000D03*
%TD*%
D19*
%TO.C,D1*%
X161290000Y-49770000D03*
X161290000Y-48020000D03*
%TD*%
D17*
%TO.C,C5*%
X167830000Y-51530000D03*
X169380000Y-51530000D03*
%TD*%
M02*
