%TF.GenerationSoftware,KiCad,Pcbnew,6.0.11+dfsg-1*%
%TF.CreationDate,2025-03-25T22:52:58-04:00*%
%TF.ProjectId,quad_direct,71756164-5f64-4697-9265-63742e6b6963,rev?*%
%TF.SameCoordinates,Original*%
%TF.FileFunction,Copper,L2,Bot*%
%TF.FilePolarity,Positive*%
%FSLAX46Y46*%
G04 Gerber Fmt 4.6, Leading zero omitted, Abs format (unit mm)*
G04 Created by KiCad (PCBNEW 6.0.11+dfsg-1) date 2025-03-25 22:52:58*
%MOMM*%
%LPD*%
G01*
G04 APERTURE LIST*
%TA.AperFunction,ComponentPad*%
%ADD10R,1.493000X1.493000*%
%TD*%
%TA.AperFunction,ComponentPad*%
%ADD11C,1.493000*%
%TD*%
%TA.AperFunction,ComponentPad*%
%ADD12C,1.524000*%
%TD*%
%TA.AperFunction,ComponentPad*%
%ADD13C,2.000000*%
%TD*%
%TA.AperFunction,ViaPad*%
%ADD14C,0.800000*%
%TD*%
%TA.AperFunction,Conductor*%
%ADD15C,0.250000*%
%TD*%
G04 APERTURE END LIST*
D10*
%TO.P,U2,1,io0*%
%TO.N,IO0*%
X154940000Y-44450000D03*
D11*
%TO.P,U2,2,io1*%
%TO.N,IO1*%
X154940000Y-47050000D03*
%TO.P,U2,3,io2*%
%TO.N,IO2*%
X154940000Y-49650000D03*
%TO.P,U2,4,io3*%
%TO.N,IO3*%
X154940000Y-52070000D03*
%TO.P,U2,5,io4*%
%TO.N,IO4*%
X154940000Y-54610000D03*
D12*
%TO.P,U2,6,io5*%
%TO.N,IO5*%
X154940000Y-57150000D03*
%TO.P,U2,7,io6*%
%TO.N,IO6*%
X154940000Y-59690000D03*
%TO.P,U2,8,io7*%
%TO.N,IO7*%
X154940000Y-62230000D03*
%TO.P,U2,9,reset*%
%TO.N,RESET*%
X175260000Y-44450000D03*
%TO.P,U2,10,io19_d+*%
%TO.N,IO19_USB_D+*%
X175260000Y-46990000D03*
%TO.P,U2,11,io18_d-*%
%TO.N,IO18_USB_D-*%
X175260000Y-49530000D03*
D11*
%TO.P,U2,12,io10*%
%TO.N,IO10*%
X175260000Y-52070000D03*
%TO.P,U2,13,boot*%
%TO.N,IO9_BOOT*%
X175260000Y-54610000D03*
%TO.P,U2,14,io8*%
%TO.N,IO8*%
X175260000Y-57030000D03*
%TO.P,U2,15,gnd*%
%TO.N,GND*%
X175260000Y-59630000D03*
D10*
%TO.P,U2,16,+3V3*%
%TO.N,+3V3*%
X175260000Y-62230000D03*
%TD*%
%TO.P,U1,1*%
%TO.N,+5V*%
X175260000Y-39310000D03*
D11*
%TO.P,U1,2*%
%TO.N,GND*%
X175260000Y-36710000D03*
%TO.P,U1,3*%
%TO.N,UART_RX*%
X175260000Y-34110000D03*
%TO.P,U1,4*%
%TO.N,UART_TX*%
X175260000Y-31690000D03*
%TD*%
D13*
%TO.P,SW2,1,1*%
%TO.N,IO9_BOOT*%
X172095564Y-57785000D03*
X172095564Y-64285000D03*
%TO.P,SW2,2,2*%
%TO.N,GND*%
X167595564Y-57785000D03*
X167595564Y-64285000D03*
%TD*%
D10*
%TO.P,U4,1*%
%TO.N,+5V*%
X164040000Y-48990000D03*
D12*
%TO.P,U4,2*%
%TO.N,GND*%
X166580000Y-48990000D03*
%TO.P,U4,3*%
%TO.N,+3V3*%
X169120000Y-48990000D03*
%TD*%
D13*
%TO.P,SW1,1,1*%
%TO.N,RESET*%
X162750000Y-64285000D03*
X162750000Y-57785000D03*
%TO.P,SW1,2,2*%
%TO.N,GND*%
X158250000Y-64285000D03*
X158250000Y-57785000D03*
%TD*%
D14*
%TO.N,RESET*%
X166370000Y-41910000D03*
X160020000Y-47244000D03*
X160020000Y-39878000D03*
%TO.N,+3V3*%
X165608000Y-45995079D03*
X159766000Y-35814000D03*
%TO.N,IO3*%
X155956000Y-41656000D03*
%TO.N,IO10*%
X170942000Y-52070000D03*
X163573498Y-43544500D03*
X163576000Y-45995079D03*
X162560000Y-48006000D03*
%TO.N,IO8*%
X170831500Y-46592500D03*
X168148000Y-46482000D03*
%TO.N,+5V*%
X169418000Y-47498000D03*
%TO.N,GND*%
X161036000Y-41910000D03*
X157226000Y-33020000D03*
X169418000Y-35052000D03*
X172720000Y-33274000D03*
X173228000Y-50800000D03*
X157226000Y-43180000D03*
X171450000Y-43434000D03*
X175514000Y-41148000D03*
X160274000Y-59182000D03*
X157226000Y-41910000D03*
X161036000Y-38862000D03*
X172974000Y-55626000D03*
X170942000Y-48768000D03*
X164084000Y-37338000D03*
X160274000Y-62230000D03*
X166116000Y-37338000D03*
X173482000Y-43434000D03*
X173990000Y-57912000D03*
X170180000Y-61976000D03*
X171196000Y-45466000D03*
X170180000Y-59182000D03*
X158242000Y-47244000D03*
X170688000Y-53848000D03*
X169672000Y-41656000D03*
X159004000Y-48006000D03*
X156718000Y-37592000D03*
X175768000Y-45720000D03*
X172974000Y-39116000D03*
%TD*%
D15*
%TO.N,RESET*%
X170195000Y-44435000D02*
X170180000Y-44450000D01*
X170180000Y-44450000D02*
X167640000Y-41910000D01*
X167640000Y-41910000D02*
X166370000Y-41910000D01*
X160020000Y-47244000D02*
X160020000Y-39878000D01*
X175220000Y-44435000D02*
X170195000Y-44435000D01*
%TO.N,+3V3*%
X165608000Y-45995079D02*
X165608000Y-41656000D01*
X169120000Y-48990000D02*
X166125079Y-45995079D01*
X166125079Y-45995079D02*
X165608000Y-45995079D01*
X165608000Y-41656000D02*
X159766000Y-35814000D01*
%TO.N,IO3*%
X154940000Y-51930000D02*
X155956000Y-50914000D01*
X155956000Y-50914000D02*
X155956000Y-41656000D01*
%TO.N,IO10*%
X162560000Y-49507000D02*
X162560000Y-48006000D01*
X163576000Y-43547002D02*
X163573498Y-43544500D01*
X163576000Y-45995079D02*
X163576000Y-43547002D01*
X165123000Y-52070000D02*
X162560000Y-49507000D01*
X170942000Y-52070000D02*
X165123000Y-52070000D01*
%TO.N,IO8*%
X170831500Y-46592500D02*
X168258500Y-46592500D01*
X168258500Y-46592500D02*
X168148000Y-46482000D01*
%TO.N,+5V*%
X175768000Y-48260000D02*
X176530000Y-47498000D01*
X171610068Y-48260000D02*
X175768000Y-48260000D01*
X176530000Y-47498000D02*
X176530000Y-40580000D01*
X170848068Y-47498000D02*
X171610068Y-48260000D01*
X176530000Y-40580000D02*
X175260000Y-39310000D01*
X169418000Y-47498000D02*
X170848068Y-47498000D01*
%TD*%
%TA.AperFunction,Conductor*%
%TO.N,GND*%
G36*
X174756830Y-32405002D02*
G01*
X174762768Y-32409062D01*
X174820593Y-32451075D01*
X174826621Y-32453759D01*
X174826623Y-32453760D01*
X174955186Y-32511000D01*
X174988432Y-32525802D01*
X175078285Y-32544901D01*
X175161682Y-32562628D01*
X175161686Y-32562628D01*
X175168139Y-32564000D01*
X175351861Y-32564000D01*
X175358314Y-32562628D01*
X175358318Y-32562628D01*
X175441715Y-32544901D01*
X175531568Y-32525802D01*
X175564814Y-32511000D01*
X175693377Y-32453760D01*
X175693379Y-32453759D01*
X175699407Y-32451075D01*
X175757230Y-32409064D01*
X175824098Y-32385206D01*
X175831291Y-32385000D01*
X177038000Y-32385000D01*
X177106121Y-32405002D01*
X177152614Y-32458658D01*
X177164000Y-32511000D01*
X177164000Y-66298000D01*
X177143998Y-66366121D01*
X177090342Y-66412614D01*
X177038000Y-66424000D01*
X153162000Y-66424000D01*
X153093879Y-66403998D01*
X153047386Y-66350342D01*
X153036000Y-66298000D01*
X153036000Y-65517670D01*
X157382160Y-65517670D01*
X157387887Y-65525320D01*
X157559042Y-65630205D01*
X157567837Y-65634687D01*
X157777988Y-65721734D01*
X157787373Y-65724783D01*
X158008554Y-65777885D01*
X158018301Y-65779428D01*
X158245070Y-65797275D01*
X158254930Y-65797275D01*
X158481699Y-65779428D01*
X158491446Y-65777885D01*
X158712627Y-65724783D01*
X158722012Y-65721734D01*
X158932163Y-65634687D01*
X158940958Y-65630205D01*
X159108445Y-65527568D01*
X159117400Y-65517670D01*
X166727724Y-65517670D01*
X166733451Y-65525320D01*
X166904606Y-65630205D01*
X166913401Y-65634687D01*
X167123552Y-65721734D01*
X167132937Y-65724783D01*
X167354118Y-65777885D01*
X167363865Y-65779428D01*
X167590634Y-65797275D01*
X167600494Y-65797275D01*
X167827263Y-65779428D01*
X167837010Y-65777885D01*
X168058191Y-65724783D01*
X168067576Y-65721734D01*
X168277727Y-65634687D01*
X168286522Y-65630205D01*
X168454009Y-65527568D01*
X168463471Y-65517110D01*
X168459688Y-65508334D01*
X167608376Y-64657022D01*
X167594432Y-64649408D01*
X167592599Y-64649539D01*
X167585984Y-64653790D01*
X166734484Y-65505290D01*
X166727724Y-65517670D01*
X159117400Y-65517670D01*
X159117907Y-65517110D01*
X159114124Y-65508334D01*
X158262812Y-64657022D01*
X158248868Y-64649408D01*
X158247035Y-64649539D01*
X158240420Y-64653790D01*
X157388920Y-65505290D01*
X157382160Y-65517670D01*
X153036000Y-65517670D01*
X153036000Y-64289930D01*
X156737725Y-64289930D01*
X156755572Y-64516699D01*
X156757115Y-64526446D01*
X156810217Y-64747627D01*
X156813266Y-64757012D01*
X156900313Y-64967163D01*
X156904795Y-64975958D01*
X157007432Y-65143445D01*
X157017890Y-65152907D01*
X157026666Y-65149124D01*
X157877978Y-64297812D01*
X157884356Y-64286132D01*
X158614408Y-64286132D01*
X158614539Y-64287965D01*
X158618790Y-64294580D01*
X159470290Y-65146080D01*
X159482670Y-65152840D01*
X159490320Y-65147113D01*
X159595205Y-64975958D01*
X159599687Y-64967163D01*
X159686734Y-64757012D01*
X159689783Y-64747627D01*
X159742885Y-64526446D01*
X159744428Y-64516699D01*
X159762275Y-64289930D01*
X159762275Y-64280070D01*
X159760330Y-64255359D01*
X161618058Y-64255359D01*
X161631611Y-64462135D01*
X161682619Y-64662980D01*
X161769373Y-64851165D01*
X161772704Y-64855878D01*
X161772705Y-64855880D01*
X161851353Y-64967163D01*
X161888970Y-65020390D01*
X161893106Y-65024419D01*
X162025003Y-65152907D01*
X162037402Y-65164986D01*
X162042198Y-65168191D01*
X162042201Y-65168193D01*
X162111493Y-65214492D01*
X162209699Y-65280111D01*
X162215002Y-65282389D01*
X162215005Y-65282391D01*
X162394784Y-65359630D01*
X162400091Y-65361910D01*
X162602201Y-65407643D01*
X162607972Y-65407870D01*
X162607974Y-65407870D01*
X162677210Y-65410590D01*
X162809262Y-65415778D01*
X162897561Y-65402975D01*
X163008616Y-65386874D01*
X163008621Y-65386873D01*
X163014337Y-65386044D01*
X163019809Y-65384186D01*
X163019811Y-65384186D01*
X163205096Y-65321290D01*
X163205098Y-65321289D01*
X163210560Y-65319435D01*
X163391359Y-65218183D01*
X163550678Y-65085678D01*
X163641932Y-64975958D01*
X163679492Y-64930797D01*
X163683183Y-64926359D01*
X163784435Y-64745560D01*
X163817075Y-64649408D01*
X163849186Y-64554811D01*
X163849186Y-64554809D01*
X163851044Y-64549337D01*
X163851873Y-64543621D01*
X163851874Y-64543616D01*
X163880245Y-64347936D01*
X163880778Y-64344262D01*
X163882201Y-64289930D01*
X166083289Y-64289930D01*
X166101136Y-64516699D01*
X166102679Y-64526446D01*
X166155781Y-64747627D01*
X166158830Y-64757012D01*
X166245877Y-64967163D01*
X166250359Y-64975958D01*
X166352996Y-65143445D01*
X166363454Y-65152907D01*
X166372230Y-65149124D01*
X167223542Y-64297812D01*
X167229920Y-64286132D01*
X167959972Y-64286132D01*
X167960103Y-64287965D01*
X167964354Y-64294580D01*
X168815854Y-65146080D01*
X168828234Y-65152840D01*
X168835884Y-65147113D01*
X168940769Y-64975958D01*
X168945251Y-64967163D01*
X169032298Y-64757012D01*
X169035347Y-64747627D01*
X169088449Y-64526446D01*
X169089992Y-64516699D01*
X169107839Y-64289930D01*
X169107839Y-64280070D01*
X169105894Y-64255359D01*
X170963622Y-64255359D01*
X170977175Y-64462135D01*
X171028183Y-64662980D01*
X171114937Y-64851165D01*
X171118268Y-64855878D01*
X171118269Y-64855880D01*
X171196917Y-64967163D01*
X171234534Y-65020390D01*
X171238670Y-65024419D01*
X171370567Y-65152907D01*
X171382966Y-65164986D01*
X171387762Y-65168191D01*
X171387765Y-65168193D01*
X171457057Y-65214492D01*
X171555263Y-65280111D01*
X171560566Y-65282389D01*
X171560569Y-65282391D01*
X171740348Y-65359630D01*
X171745655Y-65361910D01*
X171947765Y-65407643D01*
X171953536Y-65407870D01*
X171953538Y-65407870D01*
X172022774Y-65410590D01*
X172154826Y-65415778D01*
X172243125Y-65402975D01*
X172354180Y-65386874D01*
X172354185Y-65386873D01*
X172359901Y-65386044D01*
X172365373Y-65384186D01*
X172365375Y-65384186D01*
X172550660Y-65321290D01*
X172550662Y-65321289D01*
X172556124Y-65319435D01*
X172736923Y-65218183D01*
X172896242Y-65085678D01*
X172987496Y-64975958D01*
X173025056Y-64930797D01*
X173028747Y-64926359D01*
X173129999Y-64745560D01*
X173162639Y-64649408D01*
X173194750Y-64554811D01*
X173194750Y-64554809D01*
X173196608Y-64549337D01*
X173197437Y-64543621D01*
X173197438Y-64543616D01*
X173225809Y-64347936D01*
X173226342Y-64344262D01*
X173227894Y-64285000D01*
X173208933Y-64078649D01*
X173202352Y-64055312D01*
X173154253Y-63884768D01*
X173154252Y-63884766D01*
X173152685Y-63879209D01*
X173141829Y-63857194D01*
X173063589Y-63698540D01*
X173061034Y-63693359D01*
X173038926Y-63663752D01*
X172940502Y-63531947D01*
X172940501Y-63531946D01*
X172937049Y-63527323D01*
X172828039Y-63426555D01*
X172789123Y-63390581D01*
X172789120Y-63390579D01*
X172784883Y-63386662D01*
X172738709Y-63357529D01*
X172614515Y-63279168D01*
X172614510Y-63279166D01*
X172609631Y-63276087D01*
X172417163Y-63199300D01*
X172213925Y-63158873D01*
X172208151Y-63158797D01*
X172208147Y-63158797D01*
X172102963Y-63157421D01*
X172006722Y-63156161D01*
X172001025Y-63157140D01*
X172001024Y-63157140D01*
X171808192Y-63190274D01*
X171808191Y-63190274D01*
X171802495Y-63191253D01*
X171608083Y-63262976D01*
X171429997Y-63368926D01*
X171274201Y-63505555D01*
X171145912Y-63668289D01*
X171049427Y-63851676D01*
X171029389Y-63916210D01*
X170989848Y-64043554D01*
X170987978Y-64049575D01*
X170963622Y-64255359D01*
X169105894Y-64255359D01*
X169089992Y-64053301D01*
X169088449Y-64043554D01*
X169035347Y-63822373D01*
X169032298Y-63812988D01*
X168945251Y-63602837D01*
X168940769Y-63594042D01*
X168838132Y-63426555D01*
X168827674Y-63417093D01*
X168818898Y-63420876D01*
X167967586Y-64272188D01*
X167959972Y-64286132D01*
X167229920Y-64286132D01*
X167231156Y-64283868D01*
X167231025Y-64282035D01*
X167226774Y-64275420D01*
X166375274Y-63423920D01*
X166362894Y-63417160D01*
X166355244Y-63422887D01*
X166250359Y-63594042D01*
X166245877Y-63602837D01*
X166158830Y-63812988D01*
X166155781Y-63822373D01*
X166102679Y-64043554D01*
X166101136Y-64053301D01*
X166083289Y-64280070D01*
X166083289Y-64289930D01*
X163882201Y-64289930D01*
X163882330Y-64285000D01*
X163863369Y-64078649D01*
X163856788Y-64055312D01*
X163808689Y-63884768D01*
X163808688Y-63884766D01*
X163807121Y-63879209D01*
X163796265Y-63857194D01*
X163718025Y-63698540D01*
X163715470Y-63693359D01*
X163693362Y-63663752D01*
X163594938Y-63531947D01*
X163594937Y-63531946D01*
X163591485Y-63527323D01*
X163482475Y-63426555D01*
X163443559Y-63390581D01*
X163443556Y-63390579D01*
X163439319Y-63386662D01*
X163393145Y-63357529D01*
X163268951Y-63279168D01*
X163268946Y-63279166D01*
X163264067Y-63276087D01*
X163071599Y-63199300D01*
X162868361Y-63158873D01*
X162862587Y-63158797D01*
X162862583Y-63158797D01*
X162757399Y-63157421D01*
X162661158Y-63156161D01*
X162655461Y-63157140D01*
X162655460Y-63157140D01*
X162462628Y-63190274D01*
X162462627Y-63190274D01*
X162456931Y-63191253D01*
X162262519Y-63262976D01*
X162084433Y-63368926D01*
X161928637Y-63505555D01*
X161800348Y-63668289D01*
X161703863Y-63851676D01*
X161683825Y-63916210D01*
X161644284Y-64043554D01*
X161642414Y-64049575D01*
X161618058Y-64255359D01*
X159760330Y-64255359D01*
X159744428Y-64053301D01*
X159742885Y-64043554D01*
X159689783Y-63822373D01*
X159686734Y-63812988D01*
X159599687Y-63602837D01*
X159595205Y-63594042D01*
X159492568Y-63426555D01*
X159482110Y-63417093D01*
X159473334Y-63420876D01*
X158622022Y-64272188D01*
X158614408Y-64286132D01*
X157884356Y-64286132D01*
X157885592Y-64283868D01*
X157885461Y-64282035D01*
X157881210Y-64275420D01*
X157029710Y-63423920D01*
X157017330Y-63417160D01*
X157009680Y-63422887D01*
X156904795Y-63594042D01*
X156900313Y-63602837D01*
X156813266Y-63812988D01*
X156810217Y-63822373D01*
X156757115Y-64043554D01*
X156755572Y-64053301D01*
X156737725Y-64280070D01*
X156737725Y-64289930D01*
X153036000Y-64289930D01*
X153036000Y-62230000D01*
X154045600Y-62230000D01*
X154065145Y-62415956D01*
X154122925Y-62593785D01*
X154216415Y-62755715D01*
X154341530Y-62894669D01*
X154492800Y-63004573D01*
X154498828Y-63007257D01*
X154498830Y-63007258D01*
X154657584Y-63077940D01*
X154663615Y-63080625D01*
X154738782Y-63096602D01*
X154840053Y-63118128D01*
X154840057Y-63118128D01*
X154846510Y-63119500D01*
X155033490Y-63119500D01*
X155039943Y-63118128D01*
X155039947Y-63118128D01*
X155141218Y-63096602D01*
X155216385Y-63080625D01*
X155222416Y-63077940D01*
X155278679Y-63052890D01*
X157382093Y-63052890D01*
X157385876Y-63061666D01*
X158237188Y-63912978D01*
X158251132Y-63920592D01*
X158252965Y-63920461D01*
X158259580Y-63916210D01*
X159111080Y-63064710D01*
X159117534Y-63052890D01*
X166727657Y-63052890D01*
X166731440Y-63061666D01*
X167582752Y-63912978D01*
X167596696Y-63920592D01*
X167598529Y-63920461D01*
X167605144Y-63916210D01*
X168456644Y-63064710D01*
X168463404Y-63052330D01*
X168457677Y-63044680D01*
X168366911Y-62989058D01*
X174386000Y-62989058D01*
X174393398Y-63026248D01*
X174400291Y-63036565D01*
X174400292Y-63036566D01*
X174411200Y-63052890D01*
X174421578Y-63068422D01*
X174431894Y-63075315D01*
X174435823Y-63077940D01*
X174463752Y-63096602D01*
X174475922Y-63099023D01*
X174494877Y-63102794D01*
X174494882Y-63102794D01*
X174500942Y-63104000D01*
X176019058Y-63104000D01*
X176025118Y-63102794D01*
X176025123Y-63102794D01*
X176044078Y-63099023D01*
X176056248Y-63096602D01*
X176084178Y-63077940D01*
X176088106Y-63075315D01*
X176098422Y-63068422D01*
X176108800Y-63052890D01*
X176119708Y-63036566D01*
X176119709Y-63036565D01*
X176126602Y-63026248D01*
X176134000Y-62989058D01*
X176134000Y-61470942D01*
X176126602Y-61433752D01*
X176098422Y-61391578D01*
X176088106Y-61384685D01*
X176066566Y-61370292D01*
X176066565Y-61370291D01*
X176056248Y-61363398D01*
X176044078Y-61360977D01*
X176025123Y-61357206D01*
X176025118Y-61357206D01*
X176019058Y-61356000D01*
X174500942Y-61356000D01*
X174494882Y-61357206D01*
X174494877Y-61357206D01*
X174475922Y-61360977D01*
X174463752Y-61363398D01*
X174453435Y-61370291D01*
X174453434Y-61370292D01*
X174431894Y-61384685D01*
X174421578Y-61391578D01*
X174393398Y-61433752D01*
X174386000Y-61470942D01*
X174386000Y-62989058D01*
X168366911Y-62989058D01*
X168286522Y-62939795D01*
X168277727Y-62935313D01*
X168067576Y-62848266D01*
X168058191Y-62845217D01*
X167837010Y-62792115D01*
X167827263Y-62790572D01*
X167600494Y-62772725D01*
X167590634Y-62772725D01*
X167363865Y-62790572D01*
X167354118Y-62792115D01*
X167132937Y-62845217D01*
X167123552Y-62848266D01*
X166913401Y-62935313D01*
X166904606Y-62939795D01*
X166737119Y-63042432D01*
X166727657Y-63052890D01*
X159117534Y-63052890D01*
X159117840Y-63052330D01*
X159112113Y-63044680D01*
X158940958Y-62939795D01*
X158932163Y-62935313D01*
X158722012Y-62848266D01*
X158712627Y-62845217D01*
X158491446Y-62792115D01*
X158481699Y-62790572D01*
X158254930Y-62772725D01*
X158245070Y-62772725D01*
X158018301Y-62790572D01*
X158008554Y-62792115D01*
X157787373Y-62845217D01*
X157777988Y-62848266D01*
X157567837Y-62935313D01*
X157559042Y-62939795D01*
X157391555Y-63042432D01*
X157382093Y-63052890D01*
X155278679Y-63052890D01*
X155381170Y-63007258D01*
X155381172Y-63007257D01*
X155387200Y-63004573D01*
X155538470Y-62894669D01*
X155663585Y-62755715D01*
X155757075Y-62593785D01*
X155814855Y-62415956D01*
X155834400Y-62230000D01*
X155814855Y-62044044D01*
X155757075Y-61866215D01*
X155663585Y-61704285D01*
X155538470Y-61565331D01*
X155387200Y-61455427D01*
X155381172Y-61452743D01*
X155381170Y-61452742D01*
X155222416Y-61382060D01*
X155222414Y-61382060D01*
X155216385Y-61379375D01*
X155106413Y-61356000D01*
X155039947Y-61341872D01*
X155039943Y-61341872D01*
X155033490Y-61340500D01*
X154846510Y-61340500D01*
X154840057Y-61341872D01*
X154840053Y-61341872D01*
X154773587Y-61356000D01*
X154663615Y-61379375D01*
X154657586Y-61382060D01*
X154657584Y-61382060D01*
X154498830Y-61452742D01*
X154498828Y-61452743D01*
X154492800Y-61455427D01*
X154341530Y-61565331D01*
X154216415Y-61704285D01*
X154122925Y-61866215D01*
X154065145Y-62044044D01*
X154045600Y-62230000D01*
X153036000Y-62230000D01*
X153036000Y-60677648D01*
X174576906Y-60677648D01*
X174586202Y-60689664D01*
X174625849Y-60717424D01*
X174635335Y-60722902D01*
X174824312Y-60811022D01*
X174834608Y-60814770D01*
X175036016Y-60868738D01*
X175046803Y-60870640D01*
X175254525Y-60888813D01*
X175265475Y-60888813D01*
X175473197Y-60870640D01*
X175483984Y-60868738D01*
X175685392Y-60814770D01*
X175695688Y-60811022D01*
X175884665Y-60722902D01*
X175894151Y-60717424D01*
X175934636Y-60689077D01*
X175943011Y-60678600D01*
X175935942Y-60665152D01*
X175272812Y-60002022D01*
X175258868Y-59994408D01*
X175257035Y-59994539D01*
X175250420Y-59998790D01*
X174583336Y-60665874D01*
X174576906Y-60677648D01*
X153036000Y-60677648D01*
X153036000Y-59690000D01*
X154045600Y-59690000D01*
X154065145Y-59875956D01*
X154122925Y-60053785D01*
X154216415Y-60215715D01*
X154220833Y-60220622D01*
X154220834Y-60220623D01*
X154304096Y-60313094D01*
X154341530Y-60354669D01*
X154492800Y-60464573D01*
X154498828Y-60467257D01*
X154498830Y-60467258D01*
X154657584Y-60537940D01*
X154663615Y-60540625D01*
X154755063Y-60560063D01*
X154840053Y-60578128D01*
X154840057Y-60578128D01*
X154846510Y-60579500D01*
X155033490Y-60579500D01*
X155039943Y-60578128D01*
X155039947Y-60578128D01*
X155124937Y-60560063D01*
X155216385Y-60540625D01*
X155222416Y-60537940D01*
X155381170Y-60467258D01*
X155381172Y-60467257D01*
X155387200Y-60464573D01*
X155538470Y-60354669D01*
X155575905Y-60313094D01*
X155659166Y-60220623D01*
X155659167Y-60220622D01*
X155663585Y-60215715D01*
X155757075Y-60053785D01*
X155814855Y-59875956D01*
X155834400Y-59690000D01*
X155828669Y-59635475D01*
X174001187Y-59635475D01*
X174019360Y-59843197D01*
X174021262Y-59853984D01*
X174075230Y-60055392D01*
X174078978Y-60065688D01*
X174167098Y-60254665D01*
X174172576Y-60264151D01*
X174200923Y-60304636D01*
X174211400Y-60313011D01*
X174224848Y-60305942D01*
X174887978Y-59642812D01*
X174894356Y-59631132D01*
X175624408Y-59631132D01*
X175624539Y-59632965D01*
X175628790Y-59639580D01*
X176295874Y-60306664D01*
X176307648Y-60313094D01*
X176319664Y-60303798D01*
X176347424Y-60264151D01*
X176352902Y-60254665D01*
X176441022Y-60065688D01*
X176444770Y-60055392D01*
X176498738Y-59853984D01*
X176500640Y-59843197D01*
X176518813Y-59635475D01*
X176518813Y-59624525D01*
X176500640Y-59416803D01*
X176498738Y-59406016D01*
X176444770Y-59204608D01*
X176441022Y-59194312D01*
X176352902Y-59005335D01*
X176347424Y-58995849D01*
X176319077Y-58955364D01*
X176308600Y-58946989D01*
X176295152Y-58954058D01*
X175632022Y-59617188D01*
X175624408Y-59631132D01*
X174894356Y-59631132D01*
X174895592Y-59628868D01*
X174895461Y-59627035D01*
X174891210Y-59620420D01*
X174224126Y-58953336D01*
X174212352Y-58946906D01*
X174200336Y-58956202D01*
X174172576Y-58995849D01*
X174167098Y-59005335D01*
X174078978Y-59194312D01*
X174075230Y-59204608D01*
X174021262Y-59406016D01*
X174019360Y-59416803D01*
X174001187Y-59624525D01*
X174001187Y-59635475D01*
X155828669Y-59635475D01*
X155814855Y-59504044D01*
X155757075Y-59326215D01*
X155722075Y-59265592D01*
X155666888Y-59170006D01*
X155663585Y-59164285D01*
X155538470Y-59025331D01*
X155527926Y-59017670D01*
X157382160Y-59017670D01*
X157387887Y-59025320D01*
X157559042Y-59130205D01*
X157567837Y-59134687D01*
X157777988Y-59221734D01*
X157787373Y-59224783D01*
X158008554Y-59277885D01*
X158018301Y-59279428D01*
X158245070Y-59297275D01*
X158254930Y-59297275D01*
X158481699Y-59279428D01*
X158491446Y-59277885D01*
X158712627Y-59224783D01*
X158722012Y-59221734D01*
X158932163Y-59134687D01*
X158940958Y-59130205D01*
X159108445Y-59027568D01*
X159117400Y-59017670D01*
X166727724Y-59017670D01*
X166733451Y-59025320D01*
X166904606Y-59130205D01*
X166913401Y-59134687D01*
X167123552Y-59221734D01*
X167132937Y-59224783D01*
X167354118Y-59277885D01*
X167363865Y-59279428D01*
X167590634Y-59297275D01*
X167600494Y-59297275D01*
X167827263Y-59279428D01*
X167837010Y-59277885D01*
X168058191Y-59224783D01*
X168067576Y-59221734D01*
X168277727Y-59134687D01*
X168286522Y-59130205D01*
X168454009Y-59027568D01*
X168463471Y-59017110D01*
X168459688Y-59008334D01*
X167608376Y-58157022D01*
X167594432Y-58149408D01*
X167592599Y-58149539D01*
X167585984Y-58153790D01*
X166734484Y-59005290D01*
X166727724Y-59017670D01*
X159117400Y-59017670D01*
X159117907Y-59017110D01*
X159114124Y-59008334D01*
X158262812Y-58157022D01*
X158248868Y-58149408D01*
X158247035Y-58149539D01*
X158240420Y-58153790D01*
X157388920Y-59005290D01*
X157382160Y-59017670D01*
X155527926Y-59017670D01*
X155510886Y-59005290D01*
X155392542Y-58919308D01*
X155392541Y-58919307D01*
X155387200Y-58915427D01*
X155381172Y-58912743D01*
X155381170Y-58912742D01*
X155222416Y-58842060D01*
X155222414Y-58842060D01*
X155216385Y-58839375D01*
X155109311Y-58816616D01*
X155039947Y-58801872D01*
X155039943Y-58801872D01*
X155033490Y-58800500D01*
X154846510Y-58800500D01*
X154840057Y-58801872D01*
X154840053Y-58801872D01*
X154770689Y-58816616D01*
X154663615Y-58839375D01*
X154657586Y-58842060D01*
X154657584Y-58842060D01*
X154498830Y-58912742D01*
X154498828Y-58912743D01*
X154492800Y-58915427D01*
X154487459Y-58919307D01*
X154487458Y-58919308D01*
X154369114Y-59005290D01*
X154341530Y-59025331D01*
X154216415Y-59164285D01*
X154213112Y-59170006D01*
X154157926Y-59265592D01*
X154122925Y-59326215D01*
X154065145Y-59504044D01*
X154045600Y-59690000D01*
X153036000Y-59690000D01*
X153036000Y-57150000D01*
X154045600Y-57150000D01*
X154065145Y-57335956D01*
X154067185Y-57342234D01*
X154067185Y-57342235D01*
X154077516Y-57374029D01*
X154122925Y-57513785D01*
X154126228Y-57519507D01*
X154126229Y-57519508D01*
X154157163Y-57573088D01*
X154216415Y-57675715D01*
X154220833Y-57680622D01*
X154220834Y-57680623D01*
X154323442Y-57794580D01*
X154341530Y-57814669D01*
X154346869Y-57818548D01*
X154464484Y-57904000D01*
X154492800Y-57924573D01*
X154498828Y-57927257D01*
X154498830Y-57927258D01*
X154657584Y-57997940D01*
X154663615Y-58000625D01*
X154755063Y-58020063D01*
X154840053Y-58038128D01*
X154840057Y-58038128D01*
X154846510Y-58039500D01*
X155033490Y-58039500D01*
X155039943Y-58038128D01*
X155039947Y-58038128D01*
X155124937Y-58020063D01*
X155216385Y-58000625D01*
X155222416Y-57997940D01*
X155381170Y-57927258D01*
X155381172Y-57927257D01*
X155387200Y-57924573D01*
X155415517Y-57904000D01*
X155533131Y-57818548D01*
X155538470Y-57814669D01*
X155556559Y-57794580D01*
X155560746Y-57789930D01*
X156737725Y-57789930D01*
X156755572Y-58016699D01*
X156757115Y-58026446D01*
X156810217Y-58247627D01*
X156813266Y-58257012D01*
X156900313Y-58467163D01*
X156904795Y-58475958D01*
X157007432Y-58643445D01*
X157017890Y-58652907D01*
X157026666Y-58649124D01*
X157877978Y-57797812D01*
X157884356Y-57786132D01*
X158614408Y-57786132D01*
X158614539Y-57787965D01*
X158618790Y-57794580D01*
X159470290Y-58646080D01*
X159482670Y-58652840D01*
X159490320Y-58647113D01*
X159595205Y-58475958D01*
X159599687Y-58467163D01*
X159686734Y-58257012D01*
X159689783Y-58247627D01*
X159742885Y-58026446D01*
X159744428Y-58016699D01*
X159762275Y-57789930D01*
X159762275Y-57780070D01*
X159760330Y-57755359D01*
X161618058Y-57755359D01*
X161631611Y-57962135D01*
X161682619Y-58162980D01*
X161769373Y-58351165D01*
X161772704Y-58355878D01*
X161772705Y-58355880D01*
X161851353Y-58467163D01*
X161888970Y-58520390D01*
X161893106Y-58524419D01*
X162025003Y-58652907D01*
X162037402Y-58664986D01*
X162042198Y-58668191D01*
X162042201Y-58668193D01*
X162111493Y-58714492D01*
X162209699Y-58780111D01*
X162215002Y-58782389D01*
X162215005Y-58782391D01*
X162344446Y-58838003D01*
X162400091Y-58861910D01*
X162602201Y-58907643D01*
X162607972Y-58907870D01*
X162607974Y-58907870D01*
X162677210Y-58910590D01*
X162809262Y-58915778D01*
X162897561Y-58902975D01*
X163008616Y-58886874D01*
X163008621Y-58886873D01*
X163014337Y-58886044D01*
X163019809Y-58884186D01*
X163019811Y-58884186D01*
X163205096Y-58821290D01*
X163205098Y-58821289D01*
X163210560Y-58819435D01*
X163391359Y-58718183D01*
X163550678Y-58585678D01*
X163641932Y-58475958D01*
X163679492Y-58430797D01*
X163683183Y-58426359D01*
X163784435Y-58245560D01*
X163817075Y-58149408D01*
X163849186Y-58054811D01*
X163849186Y-58054809D01*
X163851044Y-58049337D01*
X163851873Y-58043621D01*
X163851874Y-58043616D01*
X163869696Y-57920692D01*
X163880778Y-57844262D01*
X163882201Y-57789930D01*
X166083289Y-57789930D01*
X166101136Y-58016699D01*
X166102679Y-58026446D01*
X166155781Y-58247627D01*
X166158830Y-58257012D01*
X166245877Y-58467163D01*
X166250359Y-58475958D01*
X166352996Y-58643445D01*
X166363454Y-58652907D01*
X166372230Y-58649124D01*
X167223542Y-57797812D01*
X167229920Y-57786132D01*
X167959972Y-57786132D01*
X167960103Y-57787965D01*
X167964354Y-57794580D01*
X168815854Y-58646080D01*
X168828234Y-58652840D01*
X168835884Y-58647113D01*
X168940769Y-58475958D01*
X168945251Y-58467163D01*
X169032298Y-58257012D01*
X169035347Y-58247627D01*
X169088449Y-58026446D01*
X169089992Y-58016699D01*
X169107839Y-57789930D01*
X169107839Y-57780070D01*
X169105894Y-57755359D01*
X170963622Y-57755359D01*
X170977175Y-57962135D01*
X171028183Y-58162980D01*
X171114937Y-58351165D01*
X171118268Y-58355878D01*
X171118269Y-58355880D01*
X171196917Y-58467163D01*
X171234534Y-58520390D01*
X171238670Y-58524419D01*
X171370567Y-58652907D01*
X171382966Y-58664986D01*
X171387762Y-58668191D01*
X171387765Y-58668193D01*
X171457057Y-58714492D01*
X171555263Y-58780111D01*
X171560566Y-58782389D01*
X171560569Y-58782391D01*
X171690010Y-58838003D01*
X171745655Y-58861910D01*
X171947765Y-58907643D01*
X171953536Y-58907870D01*
X171953538Y-58907870D01*
X172022774Y-58910590D01*
X172154826Y-58915778D01*
X172243125Y-58902975D01*
X172354180Y-58886874D01*
X172354185Y-58886873D01*
X172359901Y-58886044D01*
X172365373Y-58884186D01*
X172365375Y-58884186D01*
X172550660Y-58821290D01*
X172550662Y-58821289D01*
X172556124Y-58819435D01*
X172736923Y-58718183D01*
X172896242Y-58585678D01*
X172899800Y-58581400D01*
X174576989Y-58581400D01*
X174584058Y-58594848D01*
X175247188Y-59257978D01*
X175261132Y-59265592D01*
X175262965Y-59265461D01*
X175269580Y-59261210D01*
X175936664Y-58594126D01*
X175943094Y-58582352D01*
X175933798Y-58570336D01*
X175894151Y-58542576D01*
X175884665Y-58537098D01*
X175695688Y-58448978D01*
X175685392Y-58445230D01*
X175483984Y-58391262D01*
X175473197Y-58389360D01*
X175265475Y-58371187D01*
X175254525Y-58371187D01*
X175046803Y-58389360D01*
X175036016Y-58391262D01*
X174834608Y-58445230D01*
X174824312Y-58448978D01*
X174635335Y-58537098D01*
X174625849Y-58542576D01*
X174585364Y-58570923D01*
X174576989Y-58581400D01*
X172899800Y-58581400D01*
X172987496Y-58475958D01*
X173025056Y-58430797D01*
X173028747Y-58426359D01*
X173129999Y-58245560D01*
X173162639Y-58149408D01*
X173194750Y-58054811D01*
X173194750Y-58054809D01*
X173196608Y-58049337D01*
X173197437Y-58043621D01*
X173197438Y-58043616D01*
X173215260Y-57920692D01*
X173226342Y-57844262D01*
X173227894Y-57785000D01*
X173208933Y-57578649D01*
X173202352Y-57555312D01*
X173154253Y-57384768D01*
X173154252Y-57384766D01*
X173152685Y-57379209D01*
X173141829Y-57357194D01*
X173063589Y-57198540D01*
X173061034Y-57193359D01*
X173038926Y-57163752D01*
X172940502Y-57031947D01*
X172940501Y-57031946D01*
X172939048Y-57030000D01*
X174381186Y-57030000D01*
X174381876Y-57036565D01*
X174398356Y-57193359D01*
X174400390Y-57212716D01*
X174457163Y-57387446D01*
X174460466Y-57393167D01*
X174460467Y-57393169D01*
X174545723Y-57540836D01*
X174545726Y-57540841D01*
X174549025Y-57546554D01*
X174671959Y-57683086D01*
X174677301Y-57686967D01*
X174677303Y-57686969D01*
X174815251Y-57787194D01*
X174820593Y-57791075D01*
X174826621Y-57793759D01*
X174826623Y-57793760D01*
X174948304Y-57847936D01*
X174988432Y-57865802D01*
X175078285Y-57884901D01*
X175161682Y-57902628D01*
X175161686Y-57902628D01*
X175168139Y-57904000D01*
X175351861Y-57904000D01*
X175358314Y-57902628D01*
X175358318Y-57902628D01*
X175441715Y-57884901D01*
X175531568Y-57865802D01*
X175571696Y-57847936D01*
X175693377Y-57793760D01*
X175693379Y-57793759D01*
X175699407Y-57791075D01*
X175704749Y-57787194D01*
X175842697Y-57686969D01*
X175842699Y-57686967D01*
X175848041Y-57683086D01*
X175970975Y-57546554D01*
X175974274Y-57540841D01*
X175974277Y-57540836D01*
X176059533Y-57393169D01*
X176059534Y-57393167D01*
X176062837Y-57387446D01*
X176119610Y-57212716D01*
X176121645Y-57193359D01*
X176138124Y-57036565D01*
X176138814Y-57030000D01*
X176119610Y-56847284D01*
X176062837Y-56672554D01*
X176054938Y-56658873D01*
X175974277Y-56519164D01*
X175974274Y-56519159D01*
X175970975Y-56513446D01*
X175942168Y-56481452D01*
X175852463Y-56381825D01*
X175852462Y-56381824D01*
X175848041Y-56376914D01*
X175808611Y-56348266D01*
X175704749Y-56272806D01*
X175704748Y-56272805D01*
X175699407Y-56268925D01*
X175693379Y-56266241D01*
X175693377Y-56266240D01*
X175537599Y-56196883D01*
X175537597Y-56196883D01*
X175531568Y-56194198D01*
X175441714Y-56175099D01*
X175358318Y-56157372D01*
X175358314Y-56157372D01*
X175351861Y-56156000D01*
X175168139Y-56156000D01*
X175161686Y-56157372D01*
X175161682Y-56157372D01*
X175078286Y-56175099D01*
X174988432Y-56194198D01*
X174982403Y-56196883D01*
X174982401Y-56196883D01*
X174826623Y-56266240D01*
X174826621Y-56266241D01*
X174820593Y-56268925D01*
X174815252Y-56272805D01*
X174815251Y-56272806D01*
X174711390Y-56348266D01*
X174671959Y-56376914D01*
X174667538Y-56381824D01*
X174667537Y-56381825D01*
X174577833Y-56481452D01*
X174549025Y-56513446D01*
X174545726Y-56519159D01*
X174545723Y-56519164D01*
X174465062Y-56658873D01*
X174457163Y-56672554D01*
X174400390Y-56847284D01*
X174381186Y-57030000D01*
X172939048Y-57030000D01*
X172937049Y-57027323D01*
X172828039Y-56926555D01*
X172789123Y-56890581D01*
X172789120Y-56890579D01*
X172784883Y-56886662D01*
X172712522Y-56841006D01*
X172614515Y-56779168D01*
X172614510Y-56779166D01*
X172609631Y-56776087D01*
X172417163Y-56699300D01*
X172213925Y-56658873D01*
X172208151Y-56658797D01*
X172208147Y-56658797D01*
X172102963Y-56657421D01*
X172006722Y-56656161D01*
X172001025Y-56657140D01*
X172001024Y-56657140D01*
X171808192Y-56690274D01*
X171808191Y-56690274D01*
X171802495Y-56691253D01*
X171608083Y-56762976D01*
X171603122Y-56765928D01*
X171603121Y-56765928D01*
X171455343Y-56853847D01*
X171429997Y-56868926D01*
X171274201Y-57005555D01*
X171145912Y-57168289D01*
X171143223Y-57173400D01*
X171143221Y-57173403D01*
X171094329Y-57266331D01*
X171049427Y-57351676D01*
X171029389Y-57416210D01*
X170989848Y-57543554D01*
X170987978Y-57549575D01*
X170963622Y-57755359D01*
X169105894Y-57755359D01*
X169089992Y-57553301D01*
X169088449Y-57543554D01*
X169035347Y-57322373D01*
X169032298Y-57312988D01*
X168945251Y-57102837D01*
X168940769Y-57094042D01*
X168838132Y-56926555D01*
X168827674Y-56917093D01*
X168818898Y-56920876D01*
X167967586Y-57772188D01*
X167959972Y-57786132D01*
X167229920Y-57786132D01*
X167231156Y-57783868D01*
X167231025Y-57782035D01*
X167226774Y-57775420D01*
X166375274Y-56923920D01*
X166362894Y-56917160D01*
X166355244Y-56922887D01*
X166250359Y-57094042D01*
X166245877Y-57102837D01*
X166158830Y-57312988D01*
X166155781Y-57322373D01*
X166102679Y-57543554D01*
X166101136Y-57553301D01*
X166083289Y-57780070D01*
X166083289Y-57789930D01*
X163882201Y-57789930D01*
X163882330Y-57785000D01*
X163863369Y-57578649D01*
X163856788Y-57555312D01*
X163808689Y-57384768D01*
X163808688Y-57384766D01*
X163807121Y-57379209D01*
X163796265Y-57357194D01*
X163718025Y-57198540D01*
X163715470Y-57193359D01*
X163693362Y-57163752D01*
X163594938Y-57031947D01*
X163594937Y-57031946D01*
X163591485Y-57027323D01*
X163482475Y-56926555D01*
X163443559Y-56890581D01*
X163443556Y-56890579D01*
X163439319Y-56886662D01*
X163366958Y-56841006D01*
X163268951Y-56779168D01*
X163268946Y-56779166D01*
X163264067Y-56776087D01*
X163071599Y-56699300D01*
X162868361Y-56658873D01*
X162862587Y-56658797D01*
X162862583Y-56658797D01*
X162757399Y-56657421D01*
X162661158Y-56656161D01*
X162655461Y-56657140D01*
X162655460Y-56657140D01*
X162462628Y-56690274D01*
X162462627Y-56690274D01*
X162456931Y-56691253D01*
X162262519Y-56762976D01*
X162257558Y-56765928D01*
X162257557Y-56765928D01*
X162109779Y-56853847D01*
X162084433Y-56868926D01*
X161928637Y-57005555D01*
X161800348Y-57168289D01*
X161797659Y-57173400D01*
X161797657Y-57173403D01*
X161748765Y-57266331D01*
X161703863Y-57351676D01*
X161683825Y-57416210D01*
X161644284Y-57543554D01*
X161642414Y-57549575D01*
X161618058Y-57755359D01*
X159760330Y-57755359D01*
X159744428Y-57553301D01*
X159742885Y-57543554D01*
X159689783Y-57322373D01*
X159686734Y-57312988D01*
X159599687Y-57102837D01*
X159595205Y-57094042D01*
X159492568Y-56926555D01*
X159482110Y-56917093D01*
X159473334Y-56920876D01*
X158622022Y-57772188D01*
X158614408Y-57786132D01*
X157884356Y-57786132D01*
X157885592Y-57783868D01*
X157885461Y-57782035D01*
X157881210Y-57775420D01*
X157029710Y-56923920D01*
X157017330Y-56917160D01*
X157009680Y-56922887D01*
X156904795Y-57094042D01*
X156900313Y-57102837D01*
X156813266Y-57312988D01*
X156810217Y-57322373D01*
X156757115Y-57543554D01*
X156755572Y-57553301D01*
X156737725Y-57780070D01*
X156737725Y-57789930D01*
X155560746Y-57789930D01*
X155659166Y-57680623D01*
X155659167Y-57680622D01*
X155663585Y-57675715D01*
X155722837Y-57573088D01*
X155753771Y-57519508D01*
X155753772Y-57519507D01*
X155757075Y-57513785D01*
X155802484Y-57374029D01*
X155812815Y-57342235D01*
X155812815Y-57342234D01*
X155814855Y-57335956D01*
X155834400Y-57150000D01*
X155814855Y-56964044D01*
X155790986Y-56890581D01*
X155759117Y-56792500D01*
X155757075Y-56786215D01*
X155753007Y-56779168D01*
X155666888Y-56630006D01*
X155663585Y-56624285D01*
X155659166Y-56619377D01*
X155599301Y-56552890D01*
X157382093Y-56552890D01*
X157385876Y-56561666D01*
X158237188Y-57412978D01*
X158251132Y-57420592D01*
X158252965Y-57420461D01*
X158259580Y-57416210D01*
X159111080Y-56564710D01*
X159117534Y-56552890D01*
X166727657Y-56552890D01*
X166731440Y-56561666D01*
X167582752Y-57412978D01*
X167596696Y-57420592D01*
X167598529Y-57420461D01*
X167605144Y-57416210D01*
X168456644Y-56564710D01*
X168463404Y-56552330D01*
X168457677Y-56544680D01*
X168286522Y-56439795D01*
X168277727Y-56435313D01*
X168067576Y-56348266D01*
X168058191Y-56345217D01*
X167837010Y-56292115D01*
X167827263Y-56290572D01*
X167600494Y-56272725D01*
X167590634Y-56272725D01*
X167363865Y-56290572D01*
X167354118Y-56292115D01*
X167132937Y-56345217D01*
X167123552Y-56348266D01*
X166913401Y-56435313D01*
X166904606Y-56439795D01*
X166737119Y-56542432D01*
X166727657Y-56552890D01*
X159117534Y-56552890D01*
X159117840Y-56552330D01*
X159112113Y-56544680D01*
X158940958Y-56439795D01*
X158932163Y-56435313D01*
X158722012Y-56348266D01*
X158712627Y-56345217D01*
X158491446Y-56292115D01*
X158481699Y-56290572D01*
X158254930Y-56272725D01*
X158245070Y-56272725D01*
X158018301Y-56290572D01*
X158008554Y-56292115D01*
X157787373Y-56345217D01*
X157777988Y-56348266D01*
X157567837Y-56435313D01*
X157559042Y-56439795D01*
X157391555Y-56542432D01*
X157382093Y-56552890D01*
X155599301Y-56552890D01*
X155542885Y-56490234D01*
X155542883Y-56490233D01*
X155538470Y-56485331D01*
X155387200Y-56375427D01*
X155381172Y-56372743D01*
X155381170Y-56372742D01*
X155222416Y-56302060D01*
X155222414Y-56302060D01*
X155216385Y-56299375D01*
X155124938Y-56279938D01*
X155039947Y-56261872D01*
X155039943Y-56261872D01*
X155033490Y-56260500D01*
X154846510Y-56260500D01*
X154840057Y-56261872D01*
X154840053Y-56261872D01*
X154755062Y-56279938D01*
X154663615Y-56299375D01*
X154657586Y-56302060D01*
X154657584Y-56302060D01*
X154498830Y-56372742D01*
X154498828Y-56372743D01*
X154492800Y-56375427D01*
X154341530Y-56485331D01*
X154337117Y-56490233D01*
X154337115Y-56490234D01*
X154220834Y-56619377D01*
X154216415Y-56624285D01*
X154213112Y-56630006D01*
X154126994Y-56779168D01*
X154122925Y-56786215D01*
X154120883Y-56792500D01*
X154089015Y-56890581D01*
X154065145Y-56964044D01*
X154045600Y-57150000D01*
X153036000Y-57150000D01*
X153036000Y-54610000D01*
X154061186Y-54610000D01*
X154080390Y-54792716D01*
X154137163Y-54967446D01*
X154140466Y-54973167D01*
X154140467Y-54973169D01*
X154225723Y-55120836D01*
X154225726Y-55120841D01*
X154229025Y-55126554D01*
X154351959Y-55263086D01*
X154500593Y-55371075D01*
X154506621Y-55373759D01*
X154506623Y-55373760D01*
X154662401Y-55443117D01*
X154668432Y-55445802D01*
X154758285Y-55464901D01*
X154841682Y-55482628D01*
X154841686Y-55482628D01*
X154848139Y-55484000D01*
X155031861Y-55484000D01*
X155038314Y-55482628D01*
X155038318Y-55482628D01*
X155121714Y-55464901D01*
X155211568Y-55445802D01*
X155217599Y-55443117D01*
X155373377Y-55373760D01*
X155373379Y-55373759D01*
X155379407Y-55371075D01*
X155528041Y-55263086D01*
X155650975Y-55126554D01*
X155654274Y-55120841D01*
X155654277Y-55120836D01*
X155739533Y-54973169D01*
X155739534Y-54973167D01*
X155742837Y-54967446D01*
X155799610Y-54792716D01*
X155818814Y-54610000D01*
X174381186Y-54610000D01*
X174400390Y-54792716D01*
X174457163Y-54967446D01*
X174460466Y-54973167D01*
X174460467Y-54973169D01*
X174545723Y-55120836D01*
X174545726Y-55120841D01*
X174549025Y-55126554D01*
X174671959Y-55263086D01*
X174820593Y-55371075D01*
X174826621Y-55373759D01*
X174826623Y-55373760D01*
X174982401Y-55443117D01*
X174988432Y-55445802D01*
X175078285Y-55464901D01*
X175161682Y-55482628D01*
X175161686Y-55482628D01*
X175168139Y-55484000D01*
X175351861Y-55484000D01*
X175358314Y-55482628D01*
X175358318Y-55482628D01*
X175441714Y-55464901D01*
X175531568Y-55445802D01*
X175537599Y-55443117D01*
X175693377Y-55373760D01*
X175693379Y-55373759D01*
X175699407Y-55371075D01*
X175848041Y-55263086D01*
X175970975Y-55126554D01*
X175974274Y-55120841D01*
X175974277Y-55120836D01*
X176059533Y-54973169D01*
X176059534Y-54973167D01*
X176062837Y-54967446D01*
X176119610Y-54792716D01*
X176138814Y-54610000D01*
X176119610Y-54427284D01*
X176062837Y-54252554D01*
X176059533Y-54246831D01*
X175974277Y-54099164D01*
X175974274Y-54099159D01*
X175970975Y-54093446D01*
X175848041Y-53956914D01*
X175699407Y-53848925D01*
X175693379Y-53846241D01*
X175693377Y-53846240D01*
X175537599Y-53776883D01*
X175537597Y-53776883D01*
X175531568Y-53774198D01*
X175441714Y-53755099D01*
X175358318Y-53737372D01*
X175358314Y-53737372D01*
X175351861Y-53736000D01*
X175168139Y-53736000D01*
X175161686Y-53737372D01*
X175161682Y-53737372D01*
X175078286Y-53755099D01*
X174988432Y-53774198D01*
X174982403Y-53776883D01*
X174982401Y-53776883D01*
X174826623Y-53846240D01*
X174826621Y-53846241D01*
X174820593Y-53848925D01*
X174671959Y-53956914D01*
X174549025Y-54093446D01*
X174545726Y-54099159D01*
X174545723Y-54099164D01*
X174460467Y-54246831D01*
X174457163Y-54252554D01*
X174400390Y-54427284D01*
X174381186Y-54610000D01*
X155818814Y-54610000D01*
X155799610Y-54427284D01*
X155742837Y-54252554D01*
X155739533Y-54246831D01*
X155654277Y-54099164D01*
X155654274Y-54099159D01*
X155650975Y-54093446D01*
X155528041Y-53956914D01*
X155379407Y-53848925D01*
X155373379Y-53846241D01*
X155373377Y-53846240D01*
X155217599Y-53776883D01*
X155217597Y-53776883D01*
X155211568Y-53774198D01*
X155121714Y-53755099D01*
X155038318Y-53737372D01*
X155038314Y-53737372D01*
X155031861Y-53736000D01*
X154848139Y-53736000D01*
X154841686Y-53737372D01*
X154841682Y-53737372D01*
X154758286Y-53755099D01*
X154668432Y-53774198D01*
X154662403Y-53776883D01*
X154662401Y-53776883D01*
X154506623Y-53846240D01*
X154506621Y-53846241D01*
X154500593Y-53848925D01*
X154351959Y-53956914D01*
X154229025Y-54093446D01*
X154225726Y-54099159D01*
X154225723Y-54099164D01*
X154140467Y-54246831D01*
X154137163Y-54252554D01*
X154080390Y-54427284D01*
X154061186Y-54610000D01*
X153036000Y-54610000D01*
X153036000Y-52070000D01*
X154061186Y-52070000D01*
X154061876Y-52076565D01*
X154074799Y-52199517D01*
X154080390Y-52252716D01*
X154137163Y-52427446D01*
X154140466Y-52433167D01*
X154140467Y-52433169D01*
X154225723Y-52580836D01*
X154225726Y-52580841D01*
X154229025Y-52586554D01*
X154351959Y-52723086D01*
X154500593Y-52831075D01*
X154506621Y-52833759D01*
X154506623Y-52833760D01*
X154662401Y-52903117D01*
X154668432Y-52905802D01*
X154758286Y-52924901D01*
X154841682Y-52942628D01*
X154841686Y-52942628D01*
X154848139Y-52944000D01*
X155031861Y-52944000D01*
X155038314Y-52942628D01*
X155038318Y-52942628D01*
X155121714Y-52924901D01*
X155211568Y-52905802D01*
X155217599Y-52903117D01*
X155373377Y-52833760D01*
X155373379Y-52833759D01*
X155379407Y-52831075D01*
X155528041Y-52723086D01*
X155650975Y-52586554D01*
X155654274Y-52580841D01*
X155654277Y-52580836D01*
X155739533Y-52433169D01*
X155739534Y-52433167D01*
X155742837Y-52427446D01*
X155799610Y-52252716D01*
X155805202Y-52199517D01*
X155818124Y-52076565D01*
X155818814Y-52070000D01*
X155817953Y-52061812D01*
X155800300Y-51893847D01*
X155800300Y-51893845D01*
X155799610Y-51887284D01*
X155742837Y-51712554D01*
X155707614Y-51651547D01*
X155690876Y-51582552D01*
X155714096Y-51515460D01*
X155727638Y-51499451D01*
X156108178Y-51118911D01*
X156127271Y-51103241D01*
X156127726Y-51102937D01*
X156127728Y-51102935D01*
X156138043Y-51096043D01*
X156193850Y-51012521D01*
X156196895Y-50997214D01*
X156213448Y-50914000D01*
X156210921Y-50901296D01*
X156208500Y-50876714D01*
X156208500Y-48006000D01*
X162027948Y-48006000D01*
X162046077Y-48143705D01*
X162049236Y-48151332D01*
X162049237Y-48151335D01*
X162061311Y-48180484D01*
X162099229Y-48272026D01*
X162183782Y-48382218D01*
X162190328Y-48387241D01*
X162258204Y-48439324D01*
X162300071Y-48496662D01*
X162307500Y-48539287D01*
X162307500Y-49469714D01*
X162305079Y-49494296D01*
X162302552Y-49507000D01*
X162304973Y-49519171D01*
X162305262Y-49520623D01*
X162319105Y-49590214D01*
X162322150Y-49605521D01*
X162329044Y-49615838D01*
X162329044Y-49615839D01*
X162354989Y-49654669D01*
X162377957Y-49689043D01*
X162388272Y-49695935D01*
X162388274Y-49695937D01*
X162388729Y-49696241D01*
X162407822Y-49711911D01*
X164918089Y-52222178D01*
X164933759Y-52241271D01*
X164934063Y-52241726D01*
X164934065Y-52241728D01*
X164940957Y-52252043D01*
X165024479Y-52307850D01*
X165036648Y-52310271D01*
X165036649Y-52310271D01*
X165110829Y-52325026D01*
X165123000Y-52327447D01*
X165135171Y-52325026D01*
X165135172Y-52325026D01*
X165135700Y-52324921D01*
X165160281Y-52322500D01*
X170408713Y-52322500D01*
X170476834Y-52342502D01*
X170508676Y-52371796D01*
X170565782Y-52446218D01*
X170675974Y-52530771D01*
X170740134Y-52557347D01*
X170796665Y-52580763D01*
X170796668Y-52580764D01*
X170804295Y-52583923D01*
X170812483Y-52585001D01*
X170861560Y-52591462D01*
X170942000Y-52602052D01*
X170950188Y-52600974D01*
X171071517Y-52585001D01*
X171079705Y-52583923D01*
X171087332Y-52580764D01*
X171087335Y-52580763D01*
X171143866Y-52557347D01*
X171208026Y-52530771D01*
X171318218Y-52446218D01*
X171402771Y-52336026D01*
X171437558Y-52252043D01*
X171452763Y-52215335D01*
X171452764Y-52215332D01*
X171455923Y-52207705D01*
X171474052Y-52070000D01*
X174381186Y-52070000D01*
X174381876Y-52076565D01*
X174394799Y-52199517D01*
X174400390Y-52252716D01*
X174457163Y-52427446D01*
X174460466Y-52433167D01*
X174460467Y-52433169D01*
X174545723Y-52580836D01*
X174545726Y-52580841D01*
X174549025Y-52586554D01*
X174671959Y-52723086D01*
X174820593Y-52831075D01*
X174826621Y-52833759D01*
X174826623Y-52833760D01*
X174982401Y-52903117D01*
X174988432Y-52905802D01*
X175078286Y-52924901D01*
X175161682Y-52942628D01*
X175161686Y-52942628D01*
X175168139Y-52944000D01*
X175351861Y-52944000D01*
X175358314Y-52942628D01*
X175358318Y-52942628D01*
X175441714Y-52924901D01*
X175531568Y-52905802D01*
X175537599Y-52903117D01*
X175693377Y-52833760D01*
X175693379Y-52833759D01*
X175699407Y-52831075D01*
X175848041Y-52723086D01*
X175970975Y-52586554D01*
X175974274Y-52580841D01*
X175974277Y-52580836D01*
X176059533Y-52433169D01*
X176059534Y-52433167D01*
X176062837Y-52427446D01*
X176119610Y-52252716D01*
X176125202Y-52199517D01*
X176138124Y-52076565D01*
X176138814Y-52070000D01*
X176137953Y-52061812D01*
X176120300Y-51893847D01*
X176120300Y-51893845D01*
X176119610Y-51887284D01*
X176062837Y-51712554D01*
X176049099Y-51688759D01*
X175974277Y-51559164D01*
X175974274Y-51559159D01*
X175970975Y-51553446D01*
X175848041Y-51416914D01*
X175699407Y-51308925D01*
X175693379Y-51306241D01*
X175693377Y-51306240D01*
X175537599Y-51236883D01*
X175537597Y-51236883D01*
X175531568Y-51234198D01*
X175441714Y-51215099D01*
X175358318Y-51197372D01*
X175358314Y-51197372D01*
X175351861Y-51196000D01*
X175168139Y-51196000D01*
X175161686Y-51197372D01*
X175161682Y-51197372D01*
X175078286Y-51215099D01*
X174988432Y-51234198D01*
X174982403Y-51236883D01*
X174982401Y-51236883D01*
X174826623Y-51306240D01*
X174826621Y-51306241D01*
X174820593Y-51308925D01*
X174671959Y-51416914D01*
X174549025Y-51553446D01*
X174545726Y-51559159D01*
X174545723Y-51559164D01*
X174470901Y-51688759D01*
X174457163Y-51712554D01*
X174400390Y-51887284D01*
X174399700Y-51893845D01*
X174399700Y-51893847D01*
X174382047Y-52061812D01*
X174381186Y-52070000D01*
X171474052Y-52070000D01*
X171455923Y-51932295D01*
X171439998Y-51893847D01*
X171429347Y-51868134D01*
X171402771Y-51803974D01*
X171332622Y-51712554D01*
X171323241Y-51700328D01*
X171318218Y-51693782D01*
X171208026Y-51609229D01*
X171143622Y-51582552D01*
X171087335Y-51559237D01*
X171087332Y-51559236D01*
X171079705Y-51556077D01*
X171059721Y-51553446D01*
X170950188Y-51539026D01*
X170942000Y-51537948D01*
X170933812Y-51539026D01*
X170824280Y-51553446D01*
X170804295Y-51556077D01*
X170796668Y-51559236D01*
X170796665Y-51559237D01*
X170740378Y-51582552D01*
X170675974Y-51609229D01*
X170565782Y-51693782D01*
X170560759Y-51700328D01*
X170508676Y-51768204D01*
X170451338Y-51810071D01*
X170408713Y-51817500D01*
X165279779Y-51817500D01*
X165211658Y-51797498D01*
X165190684Y-51780595D01*
X163489184Y-50079095D01*
X163472629Y-50048777D01*
X165885777Y-50048777D01*
X165895074Y-50060793D01*
X165938069Y-50090898D01*
X165947555Y-50096376D01*
X166138993Y-50185645D01*
X166149285Y-50189391D01*
X166353309Y-50244059D01*
X166364104Y-50245962D01*
X166574525Y-50264372D01*
X166585475Y-50264372D01*
X166795896Y-50245962D01*
X166806691Y-50244059D01*
X167010715Y-50189391D01*
X167021007Y-50185645D01*
X167212445Y-50096376D01*
X167221931Y-50090898D01*
X167265764Y-50060207D01*
X167274139Y-50049729D01*
X167267071Y-50036281D01*
X166592812Y-49362022D01*
X166578868Y-49354408D01*
X166577035Y-49354539D01*
X166570420Y-49358790D01*
X165892207Y-50037003D01*
X165885777Y-50048777D01*
X163472629Y-50048777D01*
X163455158Y-50016783D01*
X163460223Y-49945968D01*
X163502770Y-49889132D01*
X163569290Y-49864321D01*
X163578279Y-49864000D01*
X164799058Y-49864000D01*
X164805118Y-49862794D01*
X164805123Y-49862794D01*
X164824078Y-49859023D01*
X164836248Y-49856602D01*
X164864178Y-49837940D01*
X164868106Y-49835315D01*
X164878422Y-49828422D01*
X164906602Y-49786248D01*
X164911686Y-49760692D01*
X164912794Y-49755123D01*
X164912794Y-49755118D01*
X164914000Y-49749058D01*
X164914000Y-48995475D01*
X165305628Y-48995475D01*
X165324038Y-49205896D01*
X165325941Y-49216691D01*
X165380609Y-49420715D01*
X165384355Y-49431007D01*
X165473623Y-49622441D01*
X165479103Y-49631932D01*
X165509794Y-49675765D01*
X165520271Y-49684140D01*
X165533718Y-49677072D01*
X166207978Y-49002812D01*
X166214356Y-48991132D01*
X166944408Y-48991132D01*
X166944539Y-48992965D01*
X166948790Y-48999580D01*
X167627003Y-49677793D01*
X167638777Y-49684223D01*
X167650793Y-49674926D01*
X167680897Y-49631932D01*
X167686377Y-49622441D01*
X167775645Y-49431007D01*
X167779391Y-49420715D01*
X167834059Y-49216691D01*
X167835962Y-49205896D01*
X167854372Y-48995475D01*
X167854372Y-48984525D01*
X167835962Y-48774104D01*
X167834059Y-48763309D01*
X167779391Y-48559285D01*
X167775645Y-48548993D01*
X167686377Y-48357559D01*
X167680897Y-48348068D01*
X167650206Y-48304235D01*
X167639729Y-48295860D01*
X167626282Y-48302928D01*
X166952022Y-48977188D01*
X166944408Y-48991132D01*
X166214356Y-48991132D01*
X166215592Y-48988868D01*
X166215461Y-48987035D01*
X166211210Y-48980420D01*
X165532997Y-48302207D01*
X165521223Y-48295777D01*
X165509207Y-48305074D01*
X165479103Y-48348068D01*
X165473623Y-48357559D01*
X165384355Y-48548993D01*
X165380609Y-48559285D01*
X165325941Y-48763309D01*
X165324038Y-48774104D01*
X165305628Y-48984525D01*
X165305628Y-48995475D01*
X164914000Y-48995475D01*
X164914000Y-48230942D01*
X164906602Y-48193752D01*
X164878422Y-48151578D01*
X164858106Y-48138003D01*
X164846566Y-48130292D01*
X164846565Y-48130291D01*
X164836248Y-48123398D01*
X164824078Y-48120977D01*
X164805123Y-48117206D01*
X164805118Y-48117206D01*
X164799058Y-48116000D01*
X163280942Y-48116000D01*
X163274882Y-48117206D01*
X163274877Y-48117206D01*
X163243752Y-48123398D01*
X163242982Y-48119526D01*
X163194593Y-48124724D01*
X163131108Y-48092940D01*
X163094885Y-48031879D01*
X163091839Y-48007618D01*
X163092052Y-48006000D01*
X163082082Y-47930271D01*
X165885860Y-47930271D01*
X165892928Y-47943718D01*
X166567188Y-48617978D01*
X166581132Y-48625592D01*
X166582965Y-48625461D01*
X166589580Y-48621210D01*
X167267793Y-47942997D01*
X167274223Y-47931223D01*
X167264926Y-47919207D01*
X167221931Y-47889102D01*
X167212445Y-47883624D01*
X167021007Y-47794355D01*
X167010715Y-47790609D01*
X166806691Y-47735941D01*
X166795896Y-47734038D01*
X166585475Y-47715628D01*
X166574525Y-47715628D01*
X166364104Y-47734038D01*
X166353309Y-47735941D01*
X166149285Y-47790609D01*
X166138993Y-47794355D01*
X165947559Y-47883623D01*
X165938068Y-47889103D01*
X165894235Y-47919794D01*
X165885860Y-47930271D01*
X163082082Y-47930271D01*
X163073923Y-47868295D01*
X163020771Y-47739974D01*
X162936218Y-47629782D01*
X162826026Y-47545229D01*
X162740961Y-47509994D01*
X162705335Y-47495237D01*
X162705332Y-47495236D01*
X162697705Y-47492077D01*
X162680501Y-47489812D01*
X162568188Y-47475026D01*
X162560000Y-47473948D01*
X162551812Y-47475026D01*
X162439500Y-47489812D01*
X162422295Y-47492077D01*
X162414668Y-47495236D01*
X162414665Y-47495237D01*
X162379039Y-47509994D01*
X162293974Y-47545229D01*
X162183782Y-47629782D01*
X162099229Y-47739974D01*
X162046077Y-47868295D01*
X162027948Y-48006000D01*
X156208500Y-48006000D01*
X156208500Y-47244000D01*
X159487948Y-47244000D01*
X159506077Y-47381705D01*
X159509236Y-47389332D01*
X159509237Y-47389335D01*
X159532653Y-47445866D01*
X159559229Y-47510026D01*
X159643782Y-47620218D01*
X159753974Y-47704771D01*
X159793058Y-47720960D01*
X159874665Y-47754763D01*
X159874668Y-47754764D01*
X159882295Y-47757923D01*
X160020000Y-47776052D01*
X160028188Y-47774974D01*
X160149517Y-47759001D01*
X160157705Y-47757923D01*
X160165332Y-47754764D01*
X160165335Y-47754763D01*
X160246942Y-47720960D01*
X160286026Y-47704771D01*
X160396218Y-47620218D01*
X160480771Y-47510026D01*
X160507347Y-47445866D01*
X160530763Y-47389335D01*
X160530764Y-47389332D01*
X160533923Y-47381705D01*
X160552052Y-47244000D01*
X160533923Y-47106295D01*
X160480771Y-46977974D01*
X160396218Y-46867782D01*
X160321796Y-46810676D01*
X160279929Y-46753338D01*
X160272500Y-46710713D01*
X160272500Y-43544500D01*
X163041446Y-43544500D01*
X163059575Y-43682205D01*
X163062734Y-43689832D01*
X163062735Y-43689835D01*
X163086151Y-43746366D01*
X163112727Y-43810526D01*
X163197280Y-43920718D01*
X163203826Y-43925741D01*
X163203830Y-43925745D01*
X163274204Y-43979745D01*
X163316071Y-44037083D01*
X163323500Y-44079707D01*
X163323500Y-45461792D01*
X163303498Y-45529913D01*
X163274204Y-45561755D01*
X163199782Y-45618861D01*
X163115229Y-45729053D01*
X163104561Y-45754808D01*
X163068072Y-45842901D01*
X163062077Y-45857374D01*
X163043948Y-45995079D01*
X163062077Y-46132784D01*
X163065236Y-46140411D01*
X163065237Y-46140414D01*
X163080546Y-46177372D01*
X163115229Y-46261105D01*
X163199782Y-46371297D01*
X163309974Y-46455850D01*
X163373106Y-46482000D01*
X163430665Y-46505842D01*
X163430668Y-46505843D01*
X163438295Y-46509002D01*
X163576000Y-46527131D01*
X163584188Y-46526053D01*
X163705517Y-46510080D01*
X163713705Y-46509002D01*
X163721332Y-46505843D01*
X163721335Y-46505842D01*
X163778894Y-46482000D01*
X163842026Y-46455850D01*
X163952218Y-46371297D01*
X164036771Y-46261105D01*
X164071454Y-46177372D01*
X164086763Y-46140414D01*
X164086764Y-46140411D01*
X164089923Y-46132784D01*
X164108052Y-45995079D01*
X164089923Y-45857374D01*
X164083929Y-45842901D01*
X164047439Y-45754808D01*
X164036771Y-45729053D01*
X163952218Y-45618861D01*
X163877796Y-45561755D01*
X163835929Y-45504417D01*
X163828500Y-45461792D01*
X163828500Y-44075867D01*
X163848502Y-44007746D01*
X163877796Y-43975904D01*
X163943170Y-43925741D01*
X163949716Y-43920718D01*
X164034269Y-43810526D01*
X164060845Y-43746366D01*
X164084261Y-43689835D01*
X164084262Y-43689832D01*
X164087421Y-43682205D01*
X164105550Y-43544500D01*
X164087421Y-43406795D01*
X164034269Y-43278474D01*
X163949716Y-43168282D01*
X163839524Y-43083729D01*
X163775363Y-43057153D01*
X163718833Y-43033737D01*
X163718830Y-43033736D01*
X163711203Y-43030577D01*
X163573498Y-43012448D01*
X163435793Y-43030577D01*
X163428166Y-43033736D01*
X163428163Y-43033737D01*
X163371633Y-43057153D01*
X163307472Y-43083729D01*
X163197280Y-43168282D01*
X163112727Y-43278474D01*
X163059575Y-43406795D01*
X163041446Y-43544500D01*
X160272500Y-43544500D01*
X160272500Y-40411287D01*
X160292502Y-40343166D01*
X160321796Y-40311324D01*
X160389672Y-40259241D01*
X160396218Y-40254218D01*
X160480771Y-40144026D01*
X160511824Y-40069058D01*
X160530763Y-40023335D01*
X160530764Y-40023332D01*
X160533923Y-40015705D01*
X160552052Y-39878000D01*
X160533923Y-39740295D01*
X160480771Y-39611974D01*
X160396218Y-39501782D01*
X160286026Y-39417229D01*
X160221865Y-39390653D01*
X160165335Y-39367237D01*
X160165332Y-39367236D01*
X160157705Y-39364077D01*
X160020000Y-39345948D01*
X159882295Y-39364077D01*
X159874668Y-39367236D01*
X159874665Y-39367237D01*
X159818135Y-39390653D01*
X159753974Y-39417229D01*
X159643782Y-39501782D01*
X159559229Y-39611974D01*
X159506077Y-39740295D01*
X159487948Y-39878000D01*
X159506077Y-40015705D01*
X159509236Y-40023332D01*
X159509237Y-40023335D01*
X159528176Y-40069058D01*
X159559229Y-40144026D01*
X159643782Y-40254218D01*
X159650328Y-40259241D01*
X159718204Y-40311324D01*
X159760071Y-40368662D01*
X159767500Y-40411287D01*
X159767500Y-46710713D01*
X159747498Y-46778834D01*
X159718204Y-46810676D01*
X159643782Y-46867782D01*
X159559229Y-46977974D01*
X159506077Y-47106295D01*
X159487948Y-47244000D01*
X156208500Y-47244000D01*
X156208500Y-42189287D01*
X156228502Y-42121166D01*
X156257796Y-42089324D01*
X156325672Y-42037241D01*
X156332218Y-42032218D01*
X156416771Y-41922026D01*
X156469923Y-41793705D01*
X156488052Y-41656000D01*
X156469923Y-41518295D01*
X156464503Y-41505208D01*
X156440006Y-41446069D01*
X156416771Y-41389974D01*
X156332218Y-41279782D01*
X156222026Y-41195229D01*
X156157865Y-41168653D01*
X156101335Y-41145237D01*
X156101332Y-41145236D01*
X156093705Y-41142077D01*
X155956000Y-41123948D01*
X155818295Y-41142077D01*
X155810668Y-41145236D01*
X155810665Y-41145237D01*
X155754135Y-41168653D01*
X155689974Y-41195229D01*
X155579782Y-41279782D01*
X155495229Y-41389974D01*
X155471994Y-41446069D01*
X155447498Y-41505208D01*
X155442077Y-41518295D01*
X155423948Y-41656000D01*
X155442077Y-41793705D01*
X155495229Y-41922026D01*
X155579782Y-42032218D01*
X155586328Y-42037241D01*
X155654204Y-42089324D01*
X155696071Y-42146662D01*
X155703500Y-42189287D01*
X155703500Y-43450000D01*
X155683498Y-43518121D01*
X155629842Y-43564614D01*
X155577500Y-43576000D01*
X154180942Y-43576000D01*
X154174882Y-43577206D01*
X154174877Y-43577206D01*
X154155922Y-43580977D01*
X154143752Y-43583398D01*
X154133435Y-43590291D01*
X154133434Y-43590292D01*
X154111894Y-43604685D01*
X154101578Y-43611578D01*
X154073398Y-43653752D01*
X154066000Y-43690942D01*
X154066000Y-45209058D01*
X154073398Y-45246248D01*
X154101578Y-45288422D01*
X154111894Y-45295315D01*
X154115823Y-45297940D01*
X154143752Y-45316602D01*
X154155922Y-45319023D01*
X154174877Y-45322794D01*
X154174882Y-45322794D01*
X154180942Y-45324000D01*
X155577500Y-45324000D01*
X155645621Y-45344002D01*
X155692114Y-45397658D01*
X155703500Y-45450000D01*
X155703500Y-46277104D01*
X155683498Y-46345225D01*
X155629842Y-46391718D01*
X155559568Y-46401822D01*
X155503440Y-46379041D01*
X155379407Y-46288925D01*
X155373379Y-46286241D01*
X155373377Y-46286240D01*
X155217599Y-46216883D01*
X155217597Y-46216883D01*
X155211568Y-46214198D01*
X155121715Y-46195099D01*
X155038318Y-46177372D01*
X155038314Y-46177372D01*
X155031861Y-46176000D01*
X154848139Y-46176000D01*
X154841686Y-46177372D01*
X154841682Y-46177372D01*
X154758285Y-46195099D01*
X154668432Y-46214198D01*
X154662403Y-46216883D01*
X154662401Y-46216883D01*
X154506623Y-46286240D01*
X154506621Y-46286241D01*
X154500593Y-46288925D01*
X154495252Y-46292805D01*
X154495251Y-46292806D01*
X154359111Y-46391718D01*
X154351959Y-46396914D01*
X154229025Y-46533446D01*
X154225726Y-46539159D01*
X154225723Y-46539164D01*
X154140467Y-46686831D01*
X154137163Y-46692554D01*
X154080390Y-46867284D01*
X154079700Y-46873845D01*
X154079700Y-46873847D01*
X154078964Y-46880851D01*
X154061186Y-47050000D01*
X154061876Y-47056565D01*
X154077966Y-47209649D01*
X154080390Y-47232716D01*
X154137163Y-47407446D01*
X154140466Y-47413167D01*
X154140467Y-47413169D01*
X154225723Y-47560836D01*
X154225726Y-47560841D01*
X154229025Y-47566554D01*
X154233443Y-47571461D01*
X154233444Y-47571462D01*
X154256007Y-47596521D01*
X154351959Y-47703086D01*
X154357301Y-47706967D01*
X154357303Y-47706969D01*
X154444852Y-47770577D01*
X154500593Y-47811075D01*
X154506621Y-47813759D01*
X154506623Y-47813760D01*
X154660986Y-47882487D01*
X154668432Y-47885802D01*
X154758285Y-47904901D01*
X154841682Y-47922628D01*
X154841686Y-47922628D01*
X154848139Y-47924000D01*
X155031861Y-47924000D01*
X155038314Y-47922628D01*
X155038318Y-47922628D01*
X155121715Y-47904901D01*
X155211568Y-47885802D01*
X155219014Y-47882487D01*
X155373377Y-47813760D01*
X155373379Y-47813759D01*
X155379407Y-47811075D01*
X155503440Y-47720960D01*
X155570306Y-47697102D01*
X155639458Y-47713182D01*
X155688938Y-47764096D01*
X155703500Y-47822896D01*
X155703500Y-48877104D01*
X155683498Y-48945225D01*
X155629842Y-48991718D01*
X155559568Y-49001822D01*
X155503440Y-48979041D01*
X155379407Y-48888925D01*
X155373379Y-48886241D01*
X155373377Y-48886240D01*
X155217599Y-48816883D01*
X155217597Y-48816883D01*
X155211568Y-48814198D01*
X155121715Y-48795099D01*
X155038318Y-48777372D01*
X155038314Y-48777372D01*
X155031861Y-48776000D01*
X154848139Y-48776000D01*
X154841686Y-48777372D01*
X154841682Y-48777372D01*
X154758285Y-48795099D01*
X154668432Y-48814198D01*
X154662403Y-48816883D01*
X154662401Y-48816883D01*
X154506623Y-48886240D01*
X154506621Y-48886241D01*
X154500593Y-48888925D01*
X154495252Y-48892805D01*
X154495251Y-48892806D01*
X154359111Y-48991718D01*
X154351959Y-48996914D01*
X154229025Y-49133446D01*
X154225726Y-49139159D01*
X154225723Y-49139164D01*
X154180963Y-49216691D01*
X154137163Y-49292554D01*
X154080390Y-49467284D01*
X154079700Y-49473845D01*
X154079700Y-49473847D01*
X154072017Y-49546945D01*
X154061186Y-49650000D01*
X154061876Y-49656565D01*
X154076591Y-49796566D01*
X154080390Y-49832716D01*
X154137163Y-50007446D01*
X154140466Y-50013167D01*
X154140467Y-50013169D01*
X154225723Y-50160836D01*
X154225726Y-50160841D01*
X154229025Y-50166554D01*
X154233443Y-50171461D01*
X154233444Y-50171462D01*
X154298811Y-50244059D01*
X154351959Y-50303086D01*
X154357301Y-50306967D01*
X154357303Y-50306969D01*
X154495251Y-50407194D01*
X154500593Y-50411075D01*
X154506621Y-50413759D01*
X154506623Y-50413760D01*
X154527143Y-50422896D01*
X154668432Y-50485802D01*
X154758285Y-50504901D01*
X154841682Y-50522628D01*
X154841686Y-50522628D01*
X154848139Y-50524000D01*
X155031861Y-50524000D01*
X155038314Y-50522628D01*
X155038318Y-50522628D01*
X155121715Y-50504901D01*
X155211568Y-50485802D01*
X155352857Y-50422896D01*
X155373377Y-50413760D01*
X155373379Y-50413759D01*
X155379407Y-50411075D01*
X155503440Y-50320960D01*
X155570306Y-50297102D01*
X155639458Y-50313182D01*
X155688938Y-50364096D01*
X155703500Y-50422896D01*
X155703500Y-50757221D01*
X155683498Y-50825342D01*
X155666595Y-50846316D01*
X155315318Y-51197593D01*
X155253006Y-51231619D01*
X155200028Y-51231745D01*
X155133760Y-51217659D01*
X155038318Y-51197372D01*
X155038314Y-51197372D01*
X155031861Y-51196000D01*
X154848139Y-51196000D01*
X154841686Y-51197372D01*
X154841682Y-51197372D01*
X154758286Y-51215099D01*
X154668432Y-51234198D01*
X154662403Y-51236883D01*
X154662401Y-51236883D01*
X154506623Y-51306240D01*
X154506621Y-51306241D01*
X154500593Y-51308925D01*
X154351959Y-51416914D01*
X154229025Y-51553446D01*
X154225726Y-51559159D01*
X154225723Y-51559164D01*
X154150901Y-51688759D01*
X154137163Y-51712554D01*
X154080390Y-51887284D01*
X154079700Y-51893845D01*
X154079700Y-51893847D01*
X154062047Y-52061812D01*
X154061186Y-52070000D01*
X153036000Y-52070000D01*
X153036000Y-35814000D01*
X159233948Y-35814000D01*
X159252077Y-35951705D01*
X159255236Y-35959332D01*
X159255237Y-35959335D01*
X159277278Y-36012546D01*
X159305229Y-36080026D01*
X159389782Y-36190218D01*
X159499974Y-36274771D01*
X159523723Y-36284608D01*
X159620665Y-36324763D01*
X159620668Y-36324764D01*
X159628295Y-36327923D01*
X159636483Y-36329001D01*
X159697148Y-36336988D01*
X159766000Y-36346052D01*
X159774188Y-36344974D01*
X159859005Y-36333808D01*
X159929154Y-36344748D01*
X159964546Y-36369635D01*
X165318595Y-41723683D01*
X165352621Y-41785995D01*
X165355500Y-41812778D01*
X165355500Y-45461792D01*
X165335498Y-45529913D01*
X165306204Y-45561755D01*
X165231782Y-45618861D01*
X165147229Y-45729053D01*
X165136561Y-45754808D01*
X165100072Y-45842901D01*
X165094077Y-45857374D01*
X165075948Y-45995079D01*
X165094077Y-46132784D01*
X165097236Y-46140411D01*
X165097237Y-46140414D01*
X165112546Y-46177372D01*
X165147229Y-46261105D01*
X165231782Y-46371297D01*
X165341974Y-46455850D01*
X165405106Y-46482000D01*
X165462665Y-46505842D01*
X165462668Y-46505843D01*
X165470295Y-46509002D01*
X165608000Y-46527131D01*
X165616188Y-46526053D01*
X165737517Y-46510080D01*
X165745705Y-46509002D01*
X165753332Y-46505843D01*
X165753335Y-46505842D01*
X165810894Y-46482000D01*
X165874026Y-46455850D01*
X165984218Y-46371297D01*
X165985817Y-46373381D01*
X166036643Y-46345615D01*
X166107460Y-46350666D01*
X166152546Y-46379635D01*
X168271919Y-48499008D01*
X168305945Y-48561320D01*
X168302657Y-48627039D01*
X168254873Y-48774104D01*
X168245145Y-48804044D01*
X168244455Y-48810607D01*
X168244455Y-48810608D01*
X168235816Y-48892806D01*
X168225600Y-48990000D01*
X168245145Y-49175956D01*
X168247185Y-49182234D01*
X168247185Y-49182235D01*
X168260892Y-49224421D01*
X168302925Y-49353785D01*
X168306228Y-49359507D01*
X168306229Y-49359508D01*
X168316330Y-49377004D01*
X168396415Y-49515715D01*
X168400833Y-49520622D01*
X168400834Y-49520623D01*
X168492512Y-49622441D01*
X168521530Y-49654669D01*
X168526869Y-49658548D01*
X168578331Y-49695937D01*
X168672800Y-49764573D01*
X168678828Y-49767257D01*
X168678830Y-49767258D01*
X168837584Y-49837940D01*
X168843615Y-49840625D01*
X168918782Y-49856602D01*
X169020053Y-49878128D01*
X169020057Y-49878128D01*
X169026510Y-49879500D01*
X169213490Y-49879500D01*
X169219943Y-49878128D01*
X169219947Y-49878128D01*
X169321218Y-49856602D01*
X169396385Y-49840625D01*
X169402416Y-49837940D01*
X169561170Y-49767258D01*
X169561172Y-49767257D01*
X169567200Y-49764573D01*
X169661670Y-49695937D01*
X169713131Y-49658548D01*
X169718470Y-49654669D01*
X169747489Y-49622441D01*
X169839166Y-49520623D01*
X169839167Y-49520622D01*
X169843585Y-49515715D01*
X169923670Y-49377004D01*
X169933771Y-49359508D01*
X169933772Y-49359507D01*
X169937075Y-49353785D01*
X169979108Y-49224421D01*
X169992815Y-49182235D01*
X169992815Y-49182234D01*
X169994855Y-49175956D01*
X170014400Y-48990000D01*
X170004184Y-48892806D01*
X169995545Y-48810608D01*
X169995545Y-48810607D01*
X169994855Y-48804044D01*
X169981620Y-48763309D01*
X169939117Y-48632500D01*
X169937075Y-48626215D01*
X169932320Y-48617978D01*
X169846888Y-48470006D01*
X169843585Y-48464285D01*
X169774214Y-48387241D01*
X169722885Y-48330234D01*
X169722883Y-48330233D01*
X169718470Y-48325331D01*
X169567200Y-48215427D01*
X169568895Y-48213095D01*
X169528619Y-48170828D01*
X169515205Y-48101110D01*
X169541613Y-48035207D01*
X169592413Y-47996718D01*
X169684026Y-47958771D01*
X169794218Y-47874218D01*
X169851324Y-47799796D01*
X169908662Y-47757929D01*
X169951287Y-47750500D01*
X170691289Y-47750500D01*
X170759410Y-47770502D01*
X170780384Y-47787405D01*
X171405157Y-48412178D01*
X171420827Y-48431271D01*
X171421131Y-48431726D01*
X171421133Y-48431728D01*
X171428025Y-48442043D01*
X171511547Y-48497850D01*
X171526854Y-48500895D01*
X171610068Y-48517448D01*
X171622772Y-48514921D01*
X171647354Y-48512500D01*
X174765639Y-48512500D01*
X174833760Y-48532502D01*
X174880253Y-48586158D01*
X174890357Y-48656432D01*
X174860863Y-48721012D01*
X174823941Y-48748379D01*
X174824553Y-48749438D01*
X174818830Y-48752742D01*
X174812800Y-48755427D01*
X174807459Y-48759307D01*
X174807458Y-48759308D01*
X174728213Y-48816883D01*
X174661530Y-48865331D01*
X174657117Y-48870233D01*
X174657115Y-48870234D01*
X174543366Y-48996565D01*
X174536415Y-49004285D01*
X174442925Y-49166215D01*
X174385145Y-49344044D01*
X174365600Y-49530000D01*
X174366290Y-49536565D01*
X174380833Y-49674926D01*
X174385145Y-49715956D01*
X174387185Y-49722234D01*
X174387185Y-49722235D01*
X174401814Y-49767258D01*
X174442925Y-49893785D01*
X174536415Y-50055715D01*
X174540833Y-50060622D01*
X174540834Y-50060623D01*
X174656778Y-50189391D01*
X174661530Y-50194669D01*
X174666869Y-50198548D01*
X174729510Y-50244059D01*
X174812800Y-50304573D01*
X174818828Y-50307257D01*
X174818830Y-50307258D01*
X174946490Y-50364096D01*
X174983615Y-50380625D01*
X175075062Y-50400062D01*
X175160053Y-50418128D01*
X175160057Y-50418128D01*
X175166510Y-50419500D01*
X175353490Y-50419500D01*
X175359943Y-50418128D01*
X175359947Y-50418128D01*
X175444938Y-50400062D01*
X175536385Y-50380625D01*
X175573510Y-50364096D01*
X175701170Y-50307258D01*
X175701172Y-50307257D01*
X175707200Y-50304573D01*
X175790491Y-50244059D01*
X175853131Y-50198548D01*
X175858470Y-50194669D01*
X175863223Y-50189391D01*
X175979166Y-50060623D01*
X175979167Y-50060622D01*
X175983585Y-50055715D01*
X176077075Y-49893785D01*
X176118186Y-49767258D01*
X176132815Y-49722235D01*
X176132815Y-49722234D01*
X176134855Y-49715956D01*
X176139168Y-49674926D01*
X176153710Y-49536565D01*
X176154400Y-49530000D01*
X176134855Y-49344044D01*
X176077075Y-49166215D01*
X175983585Y-49004285D01*
X175976634Y-48996565D01*
X175862885Y-48870234D01*
X175862883Y-48870233D01*
X175858470Y-48865331D01*
X175707200Y-48755427D01*
X175701166Y-48752740D01*
X175696671Y-48750145D01*
X175647679Y-48698761D01*
X175634245Y-48629047D01*
X175660633Y-48563136D01*
X175718466Y-48521956D01*
X175757591Y-48515377D01*
X175768000Y-48517448D01*
X175851214Y-48500895D01*
X175866521Y-48497850D01*
X175950043Y-48442043D01*
X175956935Y-48431728D01*
X175956937Y-48431726D01*
X175957241Y-48431271D01*
X175972911Y-48412178D01*
X176682178Y-47702911D01*
X176701271Y-47687241D01*
X176701726Y-47686937D01*
X176701728Y-47686935D01*
X176712043Y-47680043D01*
X176741252Y-47636328D01*
X176760956Y-47606839D01*
X176760956Y-47606838D01*
X176767850Y-47596521D01*
X176775937Y-47555866D01*
X176787448Y-47498000D01*
X176784921Y-47485296D01*
X176782500Y-47460714D01*
X176782500Y-40617286D01*
X176784921Y-40592703D01*
X176785027Y-40592170D01*
X176787448Y-40580000D01*
X176767850Y-40481479D01*
X176712043Y-40397957D01*
X176701728Y-40391065D01*
X176701726Y-40391063D01*
X176701271Y-40390759D01*
X176682178Y-40375089D01*
X176170905Y-39863816D01*
X176136879Y-39801504D01*
X176134000Y-39774721D01*
X176134000Y-38550942D01*
X176126602Y-38513752D01*
X176098422Y-38471578D01*
X176056248Y-38443398D01*
X176044078Y-38440977D01*
X176025123Y-38437206D01*
X176025118Y-38437206D01*
X176019058Y-38436000D01*
X174500942Y-38436000D01*
X174494882Y-38437206D01*
X174494877Y-38437206D01*
X174475922Y-38440977D01*
X174463752Y-38443398D01*
X174421578Y-38471578D01*
X174393398Y-38513752D01*
X174386000Y-38550942D01*
X174386000Y-40069058D01*
X174393398Y-40106248D01*
X174421578Y-40148422D01*
X174463752Y-40176602D01*
X174475922Y-40179023D01*
X174494877Y-40182794D01*
X174494882Y-40182794D01*
X174500942Y-40184000D01*
X175724721Y-40184000D01*
X175792842Y-40204002D01*
X175813816Y-40220905D01*
X176240595Y-40647684D01*
X176274621Y-40709996D01*
X176277500Y-40736779D01*
X176277500Y-43963123D01*
X176257498Y-44031244D01*
X176203842Y-44077737D01*
X176133568Y-44087841D01*
X176068988Y-44058347D01*
X176042381Y-44026123D01*
X175986888Y-43930006D01*
X175983585Y-43924285D01*
X175974479Y-43914172D01*
X175862885Y-43790234D01*
X175862883Y-43790233D01*
X175858470Y-43785331D01*
X175707200Y-43675427D01*
X175701172Y-43672743D01*
X175701170Y-43672742D01*
X175542416Y-43602060D01*
X175542414Y-43602060D01*
X175536385Y-43599375D01*
X175426413Y-43576000D01*
X175359947Y-43561872D01*
X175359943Y-43561872D01*
X175353490Y-43560500D01*
X175166510Y-43560500D01*
X175160057Y-43561872D01*
X175160053Y-43561872D01*
X175093587Y-43576000D01*
X174983615Y-43599375D01*
X174977586Y-43602060D01*
X174977584Y-43602060D01*
X174818830Y-43672742D01*
X174818828Y-43672743D01*
X174812800Y-43675427D01*
X174661530Y-43785331D01*
X174657117Y-43790233D01*
X174657115Y-43790234D01*
X174545521Y-43914172D01*
X174536415Y-43924285D01*
X174533112Y-43930006D01*
X174459015Y-44058347D01*
X174442925Y-44086215D01*
X174440883Y-44092500D01*
X174440882Y-44092502D01*
X174439929Y-44095435D01*
X174438917Y-44096914D01*
X174438199Y-44098528D01*
X174437904Y-44098397D01*
X174399856Y-44154041D01*
X174334460Y-44181679D01*
X174320096Y-44182500D01*
X170321779Y-44182500D01*
X170253658Y-44162498D01*
X170232684Y-44145595D01*
X167844911Y-41757822D01*
X167829241Y-41738729D01*
X167828937Y-41738274D01*
X167828935Y-41738272D01*
X167822043Y-41727957D01*
X167738521Y-41672150D01*
X167723214Y-41669105D01*
X167640000Y-41652552D01*
X167627297Y-41655079D01*
X167602714Y-41657500D01*
X166903287Y-41657500D01*
X166835166Y-41637498D01*
X166803324Y-41608204D01*
X166751241Y-41540328D01*
X166746218Y-41533782D01*
X166636026Y-41449229D01*
X166571865Y-41422653D01*
X166515335Y-41399237D01*
X166515332Y-41399236D01*
X166507705Y-41396077D01*
X166370000Y-41377948D01*
X166232295Y-41396077D01*
X166224668Y-41399236D01*
X166224665Y-41399237D01*
X166168134Y-41422653D01*
X166103974Y-41449229D01*
X165993782Y-41533782D01*
X165991905Y-41531335D01*
X165942473Y-41558328D01*
X165871658Y-41553263D01*
X165810924Y-41505208D01*
X165796936Y-41484273D01*
X165790043Y-41473957D01*
X165779728Y-41467065D01*
X165779726Y-41467063D01*
X165779268Y-41466757D01*
X165760175Y-41451087D01*
X162066737Y-37757648D01*
X174576906Y-37757648D01*
X174586202Y-37769664D01*
X174625849Y-37797424D01*
X174635335Y-37802902D01*
X174824312Y-37891022D01*
X174834608Y-37894770D01*
X175036016Y-37948738D01*
X175046803Y-37950640D01*
X175254525Y-37968813D01*
X175265475Y-37968813D01*
X175473197Y-37950640D01*
X175483984Y-37948738D01*
X175685392Y-37894770D01*
X175695688Y-37891022D01*
X175884665Y-37802902D01*
X175894151Y-37797424D01*
X175934636Y-37769077D01*
X175943011Y-37758600D01*
X175935942Y-37745152D01*
X175272812Y-37082022D01*
X175258868Y-37074408D01*
X175257035Y-37074539D01*
X175250420Y-37078790D01*
X174583336Y-37745874D01*
X174576906Y-37757648D01*
X162066737Y-37757648D01*
X161024564Y-36715475D01*
X174001187Y-36715475D01*
X174019360Y-36923197D01*
X174021262Y-36933984D01*
X174075230Y-37135392D01*
X174078978Y-37145688D01*
X174167098Y-37334665D01*
X174172576Y-37344151D01*
X174200923Y-37384636D01*
X174211400Y-37393011D01*
X174224848Y-37385942D01*
X174887978Y-36722812D01*
X174894356Y-36711132D01*
X175624408Y-36711132D01*
X175624539Y-36712965D01*
X175628790Y-36719580D01*
X176295874Y-37386664D01*
X176307648Y-37393094D01*
X176319664Y-37383798D01*
X176347424Y-37344151D01*
X176352902Y-37334665D01*
X176441022Y-37145688D01*
X176444770Y-37135392D01*
X176498738Y-36933984D01*
X176500640Y-36923197D01*
X176518813Y-36715475D01*
X176518813Y-36704525D01*
X176500640Y-36496803D01*
X176498738Y-36486016D01*
X176444770Y-36284608D01*
X176441022Y-36274312D01*
X176352902Y-36085335D01*
X176347424Y-36075849D01*
X176319077Y-36035364D01*
X176308600Y-36026989D01*
X176295152Y-36034058D01*
X175632022Y-36697188D01*
X175624408Y-36711132D01*
X174894356Y-36711132D01*
X174895592Y-36708868D01*
X174895461Y-36707035D01*
X174891210Y-36700420D01*
X174224126Y-36033336D01*
X174212352Y-36026906D01*
X174200336Y-36036202D01*
X174172576Y-36075849D01*
X174167098Y-36085335D01*
X174078978Y-36274312D01*
X174075230Y-36284608D01*
X174021262Y-36486016D01*
X174019360Y-36496803D01*
X174001187Y-36704525D01*
X174001187Y-36715475D01*
X161024564Y-36715475D01*
X160321635Y-36012546D01*
X160287609Y-35950234D01*
X160285808Y-35907005D01*
X160296974Y-35822188D01*
X160298052Y-35814000D01*
X160279923Y-35676295D01*
X160273754Y-35661400D01*
X174576989Y-35661400D01*
X174584058Y-35674848D01*
X175247188Y-36337978D01*
X175261132Y-36345592D01*
X175262965Y-36345461D01*
X175269580Y-36341210D01*
X175936664Y-35674126D01*
X175943094Y-35662352D01*
X175933798Y-35650336D01*
X175894151Y-35622576D01*
X175884665Y-35617098D01*
X175695688Y-35528978D01*
X175685392Y-35525230D01*
X175483984Y-35471262D01*
X175473197Y-35469360D01*
X175265475Y-35451187D01*
X175254525Y-35451187D01*
X175046803Y-35469360D01*
X175036016Y-35471262D01*
X174834608Y-35525230D01*
X174824312Y-35528978D01*
X174635335Y-35617098D01*
X174625849Y-35622576D01*
X174585364Y-35650923D01*
X174576989Y-35661400D01*
X160273754Y-35661400D01*
X160229931Y-35555604D01*
X160226771Y-35547974D01*
X160142218Y-35437782D01*
X160032026Y-35353229D01*
X159967865Y-35326653D01*
X159911335Y-35303237D01*
X159911332Y-35303236D01*
X159903705Y-35300077D01*
X159766000Y-35281948D01*
X159628295Y-35300077D01*
X159620668Y-35303236D01*
X159620665Y-35303237D01*
X159564134Y-35326653D01*
X159499974Y-35353229D01*
X159389782Y-35437782D01*
X159305229Y-35547974D01*
X159302069Y-35555604D01*
X159258247Y-35661400D01*
X159252077Y-35676295D01*
X159233948Y-35814000D01*
X153036000Y-35814000D01*
X153036000Y-34110000D01*
X174381186Y-34110000D01*
X174400390Y-34292716D01*
X174457163Y-34467446D01*
X174460466Y-34473167D01*
X174460467Y-34473169D01*
X174545723Y-34620836D01*
X174545726Y-34620841D01*
X174549025Y-34626554D01*
X174671959Y-34763086D01*
X174820593Y-34871075D01*
X174826621Y-34873759D01*
X174826623Y-34873760D01*
X174982401Y-34943117D01*
X174988432Y-34945802D01*
X175078285Y-34964901D01*
X175161682Y-34982628D01*
X175161686Y-34982628D01*
X175168139Y-34984000D01*
X175351861Y-34984000D01*
X175358314Y-34982628D01*
X175358318Y-34982628D01*
X175441715Y-34964901D01*
X175531568Y-34945802D01*
X175537599Y-34943117D01*
X175693377Y-34873760D01*
X175693379Y-34873759D01*
X175699407Y-34871075D01*
X175848041Y-34763086D01*
X175970975Y-34626554D01*
X175974274Y-34620841D01*
X175974277Y-34620836D01*
X176059533Y-34473169D01*
X176059534Y-34473167D01*
X176062837Y-34467446D01*
X176119610Y-34292716D01*
X176138814Y-34110000D01*
X176119610Y-33927284D01*
X176062837Y-33752554D01*
X176059533Y-33746831D01*
X175974277Y-33599164D01*
X175974274Y-33599159D01*
X175970975Y-33593446D01*
X175848041Y-33456914D01*
X175699407Y-33348925D01*
X175693379Y-33346241D01*
X175693377Y-33346240D01*
X175537599Y-33276883D01*
X175537597Y-33276883D01*
X175531568Y-33274198D01*
X175441714Y-33255099D01*
X175358318Y-33237372D01*
X175358314Y-33237372D01*
X175351861Y-33236000D01*
X175168139Y-33236000D01*
X175161686Y-33237372D01*
X175161682Y-33237372D01*
X175078285Y-33255099D01*
X174988432Y-33274198D01*
X174982403Y-33276883D01*
X174982401Y-33276883D01*
X174826623Y-33346240D01*
X174826621Y-33346241D01*
X174820593Y-33348925D01*
X174671959Y-33456914D01*
X174549025Y-33593446D01*
X174545726Y-33599159D01*
X174545723Y-33599164D01*
X174460467Y-33746831D01*
X174457163Y-33752554D01*
X174400390Y-33927284D01*
X174381186Y-34110000D01*
X153036000Y-34110000D01*
X153036000Y-32511000D01*
X153056002Y-32442879D01*
X153109658Y-32396386D01*
X153162000Y-32385000D01*
X174688709Y-32385000D01*
X174756830Y-32405002D01*
G37*
%TD.AperFunction*%
%TA.AperFunction,Conductor*%
G36*
X167551342Y-42182502D02*
G01*
X167572316Y-42199405D01*
X169975089Y-44602178D01*
X169990759Y-44621271D01*
X169991063Y-44621726D01*
X169991065Y-44621728D01*
X169997957Y-44632043D01*
X170008272Y-44638935D01*
X170008274Y-44638937D01*
X170036287Y-44657654D01*
X170036289Y-44657655D01*
X170081479Y-44687850D01*
X170097825Y-44691102D01*
X170180000Y-44707448D01*
X170192170Y-44705027D01*
X170268109Y-44689921D01*
X170292692Y-44687500D01*
X174310348Y-44687500D01*
X174378469Y-44707502D01*
X174424962Y-44761158D01*
X174430181Y-44774563D01*
X174442925Y-44813785D01*
X174536415Y-44975715D01*
X174661530Y-45114669D01*
X174812800Y-45224573D01*
X174818828Y-45227257D01*
X174818830Y-45227258D01*
X174977584Y-45297940D01*
X174983615Y-45300625D01*
X175058782Y-45316602D01*
X175160053Y-45338128D01*
X175160057Y-45338128D01*
X175166510Y-45339500D01*
X175353490Y-45339500D01*
X175359943Y-45338128D01*
X175359947Y-45338128D01*
X175461218Y-45316602D01*
X175536385Y-45300625D01*
X175542416Y-45297940D01*
X175701170Y-45227258D01*
X175701172Y-45227257D01*
X175707200Y-45224573D01*
X175858470Y-45114669D01*
X175983585Y-44975715D01*
X176042381Y-44873877D01*
X176093763Y-44824884D01*
X176163477Y-44811448D01*
X176229388Y-44837834D01*
X176270570Y-44895666D01*
X176277500Y-44936877D01*
X176277500Y-46503123D01*
X176257498Y-46571244D01*
X176203842Y-46617737D01*
X176133568Y-46627841D01*
X176068988Y-46598347D01*
X176042381Y-46566123D01*
X175986888Y-46470006D01*
X175983585Y-46464285D01*
X175979166Y-46459377D01*
X175862885Y-46330234D01*
X175862883Y-46330233D01*
X175858470Y-46325331D01*
X175771602Y-46262218D01*
X175712542Y-46219308D01*
X175712541Y-46219307D01*
X175707200Y-46215427D01*
X175701172Y-46212743D01*
X175701170Y-46212742D01*
X175542416Y-46142060D01*
X175542414Y-46142060D01*
X175536385Y-46139375D01*
X175444938Y-46119938D01*
X175359947Y-46101872D01*
X175359943Y-46101872D01*
X175353490Y-46100500D01*
X175166510Y-46100500D01*
X175160057Y-46101872D01*
X175160053Y-46101872D01*
X175075062Y-46119938D01*
X174983615Y-46139375D01*
X174977586Y-46142060D01*
X174977584Y-46142060D01*
X174818830Y-46212742D01*
X174818828Y-46212743D01*
X174812800Y-46215427D01*
X174807459Y-46219307D01*
X174807458Y-46219308D01*
X174748398Y-46262218D01*
X174661530Y-46325331D01*
X174657117Y-46330233D01*
X174657115Y-46330234D01*
X174540834Y-46459377D01*
X174536415Y-46464285D01*
X174533112Y-46470006D01*
X174446684Y-46619705D01*
X174442925Y-46626215D01*
X174440883Y-46632500D01*
X174406658Y-46737835D01*
X174385145Y-46804044D01*
X174365600Y-46990000D01*
X174366290Y-46996565D01*
X174368705Y-47019537D01*
X174385145Y-47175956D01*
X174442925Y-47353785D01*
X174446228Y-47359507D01*
X174446229Y-47359508D01*
X174463450Y-47389335D01*
X174536415Y-47515715D01*
X174540833Y-47520622D01*
X174540834Y-47520623D01*
X174651325Y-47643335D01*
X174661530Y-47654669D01*
X174666869Y-47658548D01*
X174799298Y-47754763D01*
X174812800Y-47764573D01*
X174818830Y-47767258D01*
X174824553Y-47770562D01*
X174823644Y-47772136D01*
X174870982Y-47812371D01*
X174891633Y-47880298D01*
X174872282Y-47948607D01*
X174819072Y-47995609D01*
X174765639Y-48007500D01*
X171766847Y-48007500D01*
X171698726Y-47987498D01*
X171677752Y-47970595D01*
X171052979Y-47345822D01*
X171037309Y-47326729D01*
X171037005Y-47326274D01*
X171037003Y-47326272D01*
X171030111Y-47315957D01*
X171009222Y-47301999D01*
X170963694Y-47247524D01*
X170954845Y-47177082D01*
X170985485Y-47113037D01*
X171031005Y-47080825D01*
X171054813Y-47070963D01*
X171097526Y-47053271D01*
X171207718Y-46968718D01*
X171292271Y-46858526D01*
X171335841Y-46753338D01*
X171342263Y-46737835D01*
X171342264Y-46737832D01*
X171345423Y-46730205D01*
X171363552Y-46592500D01*
X171345423Y-46454795D01*
X171292271Y-46326474D01*
X171207718Y-46216282D01*
X171097526Y-46131729D01*
X171033366Y-46105153D01*
X170976835Y-46081737D01*
X170976832Y-46081736D01*
X170969205Y-46078577D01*
X170831500Y-46060448D01*
X170693795Y-46078577D01*
X170686168Y-46081736D01*
X170686165Y-46081737D01*
X170629635Y-46105153D01*
X170565474Y-46131729D01*
X170455282Y-46216282D01*
X170450259Y-46222828D01*
X170398176Y-46290704D01*
X170340838Y-46332571D01*
X170298213Y-46340000D01*
X168744335Y-46340000D01*
X168676214Y-46319998D01*
X168627926Y-46262218D01*
X168611931Y-46223604D01*
X168608771Y-46215974D01*
X168524218Y-46105782D01*
X168414026Y-46021229D01*
X168349866Y-45994653D01*
X168293335Y-45971237D01*
X168293332Y-45971236D01*
X168285705Y-45968077D01*
X168148000Y-45949948D01*
X168010295Y-45968077D01*
X168002668Y-45971236D01*
X168002665Y-45971237D01*
X167946134Y-45994653D01*
X167881974Y-46021229D01*
X167771782Y-46105782D01*
X167687229Y-46215974D01*
X167684069Y-46223604D01*
X167641459Y-46326474D01*
X167634077Y-46344295D01*
X167615948Y-46482000D01*
X167634077Y-46619705D01*
X167637236Y-46627332D01*
X167637237Y-46627335D01*
X167660653Y-46683865D01*
X167687229Y-46748026D01*
X167692256Y-46754577D01*
X167763612Y-46847570D01*
X167771782Y-46858218D01*
X167881974Y-46942771D01*
X167937929Y-46965948D01*
X168002665Y-46992763D01*
X168002668Y-46992764D01*
X168010295Y-46995923D01*
X168148000Y-47014052D01*
X168156188Y-47012974D01*
X168277517Y-46997001D01*
X168285705Y-46995923D01*
X168293332Y-46992764D01*
X168293335Y-46992763D01*
X168358071Y-46965948D01*
X168414026Y-46942771D01*
X168507512Y-46871037D01*
X168573733Y-46845437D01*
X168584216Y-46845000D01*
X169031307Y-46845000D01*
X169099428Y-46865002D01*
X169145921Y-46918658D01*
X169156025Y-46988932D01*
X169126531Y-47053512D01*
X169108012Y-47070962D01*
X169041782Y-47121782D01*
X168957229Y-47231974D01*
X168945558Y-47260150D01*
X168909377Y-47347500D01*
X168904077Y-47360295D01*
X168885948Y-47498000D01*
X168904077Y-47635705D01*
X168957229Y-47764026D01*
X169041782Y-47874218D01*
X169048328Y-47879241D01*
X169048329Y-47879242D01*
X169052558Y-47882487D01*
X169094427Y-47939825D01*
X169098649Y-48010696D01*
X169063886Y-48072599D01*
X169002053Y-48105698D01*
X168953587Y-48116000D01*
X168843615Y-48139375D01*
X168837588Y-48142058D01*
X168837580Y-48142061D01*
X168772470Y-48171050D01*
X168702103Y-48180484D01*
X168637806Y-48150377D01*
X168632127Y-48145038D01*
X166329990Y-45842901D01*
X166314320Y-45823808D01*
X166314016Y-45823353D01*
X166314014Y-45823351D01*
X166307122Y-45813036D01*
X166223600Y-45757229D01*
X166208293Y-45754184D01*
X166125079Y-45737631D01*
X166125411Y-45735960D01*
X166071227Y-45720050D01*
X166039385Y-45690756D01*
X165989241Y-45625407D01*
X165984218Y-45618861D01*
X165909796Y-45561755D01*
X165867929Y-45504417D01*
X165860500Y-45461792D01*
X165860500Y-42439450D01*
X165880502Y-42371329D01*
X165934158Y-42324836D01*
X166004432Y-42314732D01*
X166063204Y-42339488D01*
X166097418Y-42365741D01*
X166097421Y-42365743D01*
X166103974Y-42370771D01*
X166168134Y-42397347D01*
X166224665Y-42420763D01*
X166224668Y-42420764D01*
X166232295Y-42423923D01*
X166370000Y-42442052D01*
X166378188Y-42440974D01*
X166499517Y-42425001D01*
X166507705Y-42423923D01*
X166515332Y-42420764D01*
X166515335Y-42420763D01*
X166571866Y-42397347D01*
X166636026Y-42370771D01*
X166746218Y-42286218D01*
X166803324Y-42211796D01*
X166860662Y-42169929D01*
X166903287Y-42162500D01*
X167483221Y-42162500D01*
X167551342Y-42182502D01*
G37*
%TD.AperFunction*%
%TD*%
M02*
