%TF.GenerationSoftware,KiCad,Pcbnew,6.0.11+dfsg-1*%
%TF.CreationDate,2025-04-15T14:26:39-04:00*%
%TF.ProjectId,quad_direct,71756164-5f64-4697-9265-63742e6b6963,rev?*%
%TF.SameCoordinates,Original*%
%TF.FileFunction,Soldermask,Top*%
%TF.FilePolarity,Negative*%
%FSLAX46Y46*%
G04 Gerber Fmt 4.6, Leading zero omitted, Abs format (unit mm)*
G04 Created by KiCad (PCBNEW 6.0.11+dfsg-1) date 2025-04-15 14:26:39*
%MOMM*%
%LPD*%
G01*
G04 APERTURE LIST*
G04 Aperture macros list*
%AMRoundRect*
0 Rectangle with rounded corners*
0 $1 Rounding radius*
0 $2 $3 $4 $5 $6 $7 $8 $9 X,Y pos of 4 corners*
0 Add a 4 corners polygon primitive as box body*
4,1,4,$2,$3,$4,$5,$6,$7,$8,$9,$2,$3,0*
0 Add four circle primitives for the rounded corners*
1,1,$1+$1,$2,$3*
1,1,$1+$1,$4,$5*
1,1,$1+$1,$6,$7*
1,1,$1+$1,$8,$9*
0 Add four rect primitives between the rounded corners*
20,1,$1+$1,$2,$3,$4,$5,0*
20,1,$1+$1,$4,$5,$6,$7,0*
20,1,$1+$1,$6,$7,$8,$9,0*
20,1,$1+$1,$8,$9,$2,$3,0*%
G04 Aperture macros list end*
%ADD10RoundRect,0.200000X-0.200000X-0.275000X0.200000X-0.275000X0.200000X0.275000X-0.200000X0.275000X0*%
%ADD11R,0.600000X1.250000*%
%ADD12RoundRect,0.225000X0.250000X-0.225000X0.250000X0.225000X-0.250000X0.225000X-0.250000X-0.225000X0*%
%ADD13R,1.493000X1.493000*%
%ADD14C,1.493000*%
%ADD15C,1.524000*%
%ADD16R,1.075000X0.500000*%
%ADD17RoundRect,0.225000X-0.250000X0.225000X-0.250000X-0.225000X0.250000X-0.225000X0.250000X0.225000X0*%
%ADD18R,0.500000X1.075000*%
%ADD19RoundRect,0.225000X-0.225000X-0.250000X0.225000X-0.250000X0.225000X0.250000X-0.225000X0.250000X0*%
%ADD20RoundRect,0.200000X0.200000X0.275000X-0.200000X0.275000X-0.200000X-0.275000X0.200000X-0.275000X0*%
%ADD21RoundRect,0.237500X0.237500X-0.287500X0.237500X0.287500X-0.237500X0.287500X-0.237500X-0.287500X0*%
%ADD22RoundRect,0.200000X0.275000X-0.200000X0.275000X0.200000X-0.275000X0.200000X-0.275000X-0.200000X0*%
%ADD23RoundRect,0.300000X2.200000X-0.300000X2.200000X0.300000X-2.200000X0.300000X-2.200000X-0.300000X0*%
%ADD24R,1.880000X1.100000*%
%ADD25RoundRect,0.218750X0.256250X-0.218750X0.256250X0.218750X-0.256250X0.218750X-0.256250X-0.218750X0*%
%ADD26RoundRect,0.218750X0.218750X0.256250X-0.218750X0.256250X-0.218750X-0.256250X0.218750X-0.256250X0*%
%ADD27R,0.800000X0.400000*%
%ADD28R,0.400000X0.800000*%
%ADD29R,1.450000X1.450000*%
%ADD30R,0.700000X0.700000*%
%ADD31R,1.300000X1.550000*%
%ADD32RoundRect,0.200000X-0.275000X0.200000X-0.275000X-0.200000X0.275000X-0.200000X0.275000X0.200000X0*%
%ADD33R,1.400000X0.400000*%
%ADD34R,2.000000X1.900000*%
%ADD35C,1.993000*%
G04 APERTURE END LIST*
D10*
%TO.C,R10*%
X55013000Y-41041500D03*
X56663000Y-41041500D03*
%TD*%
D11*
%TO.C,U1*%
X53626500Y-51749500D03*
X54576500Y-51749500D03*
X55526500Y-51749500D03*
X55526500Y-49249500D03*
X54576500Y-49249500D03*
X53626500Y-49249500D03*
%TD*%
D12*
%TO.C,C1*%
X45466000Y-23889000D03*
X45466000Y-22339000D03*
%TD*%
D13*
%TO.C,U2*%
X47481000Y-42061500D03*
D14*
X47481000Y-44661500D03*
X47481000Y-47261500D03*
X47481000Y-49681500D03*
X47481000Y-52221500D03*
D15*
X47481000Y-54761500D03*
X47481000Y-57301500D03*
X47481000Y-59841500D03*
X67801000Y-42061500D03*
X67801000Y-44601500D03*
X67801000Y-47141500D03*
D14*
X67801000Y-49681500D03*
X67801000Y-52221500D03*
X67801000Y-54641500D03*
X67801000Y-57241500D03*
D13*
X67801000Y-59841500D03*
%TD*%
D16*
%TO.C,U10*%
X61576000Y-39878000D03*
X63900000Y-39878000D03*
%TD*%
D17*
%TO.C,C4*%
X57088000Y-49196500D03*
X57088000Y-50746500D03*
%TD*%
D18*
%TO.C,U3*%
X60960000Y-45574000D03*
X60960000Y-47898000D03*
%TD*%
D19*
%TO.C,C5*%
X51995000Y-47177500D03*
X53545000Y-47177500D03*
%TD*%
D20*
%TO.C,R9*%
X56623000Y-42605500D03*
X54973000Y-42605500D03*
%TD*%
D19*
%TO.C,C6*%
X53506000Y-54543500D03*
X55056000Y-54543500D03*
%TD*%
D20*
%TO.C,R5*%
X64305000Y-55138000D03*
X62655000Y-55138000D03*
%TD*%
D10*
%TO.C,R2*%
X55742000Y-56067500D03*
X57392000Y-56067500D03*
%TD*%
D12*
%TO.C,C7*%
X59944000Y-40653000D03*
X59944000Y-39103000D03*
%TD*%
D21*
%TO.C,D1*%
X48006000Y-64121000D03*
X48006000Y-62371000D03*
%TD*%
D12*
%TO.C,C3*%
X45466000Y-29985000D03*
X45466000Y-28435000D03*
%TD*%
D18*
%TO.C,U5*%
X63500000Y-20682000D03*
X63500000Y-23006000D03*
%TD*%
D22*
%TO.C,R3*%
X49530000Y-62293000D03*
X49530000Y-60643000D03*
%TD*%
D19*
%TO.C,C8*%
X51995000Y-42605500D03*
X53545000Y-42605500D03*
%TD*%
D18*
%TO.C,U6*%
X62992000Y-37738000D03*
X62992000Y-35414000D03*
%TD*%
D23*
%TO.C,U9*%
X68453000Y-27178000D03*
X68453000Y-24638000D03*
X68453000Y-22098000D03*
X68453000Y-19558000D03*
%TD*%
D10*
%TO.C,R8*%
X55013000Y-45633500D03*
X56663000Y-45633500D03*
%TD*%
D24*
%TO.C,D3*%
X63500000Y-52113000D03*
X63500000Y-47963000D03*
%TD*%
D18*
%TO.C,U8*%
X63500000Y-27324000D03*
X63500000Y-25000000D03*
%TD*%
D25*
%TO.C,L1*%
X51816000Y-52537000D03*
X51816000Y-50962000D03*
%TD*%
D10*
%TO.C,R7*%
X51965000Y-45633500D03*
X53615000Y-45633500D03*
%TD*%
D20*
%TO.C,R6*%
X53575000Y-44149500D03*
X51925000Y-44149500D03*
%TD*%
D26*
%TO.C,D4*%
X53557500Y-41081500D03*
X51982500Y-41081500D03*
%TD*%
D12*
%TO.C,C2*%
X45466000Y-26937000D03*
X45466000Y-25387000D03*
%TD*%
D27*
%TO.C,1111*%
X47948000Y-27656000D03*
X47948000Y-28456000D03*
X47948000Y-29256000D03*
X47948000Y-30056000D03*
X47948000Y-30856000D03*
X47948000Y-31656000D03*
X47948000Y-32456000D03*
X47948000Y-33256000D03*
X47948000Y-34056000D03*
X47948000Y-34856000D03*
X47948000Y-35656000D03*
D28*
X49048000Y-36556000D03*
X49848000Y-36556000D03*
X50648000Y-36556000D03*
X51448000Y-36556000D03*
X52248000Y-36556000D03*
X53048000Y-36556000D03*
X53848000Y-36556000D03*
X54648000Y-36556000D03*
X55448000Y-36556000D03*
X56248000Y-36556000D03*
X57048000Y-36556000D03*
X57848000Y-36556000D03*
X58648000Y-36556000D03*
D27*
X59748000Y-35656000D03*
X59748000Y-34856000D03*
X59748000Y-34056000D03*
X59748000Y-33256000D03*
X59748000Y-32456000D03*
X59748000Y-31656000D03*
X59748000Y-30856000D03*
X59748000Y-30056000D03*
X59748000Y-29256000D03*
X59748000Y-28456000D03*
X59748000Y-27656000D03*
D28*
X58648000Y-26756000D03*
X57848000Y-26756000D03*
X57048000Y-26756000D03*
X56248000Y-26756000D03*
X55448000Y-26756000D03*
X54648000Y-26756000D03*
X53848000Y-26756000D03*
X53048000Y-26756000D03*
X52248000Y-26756000D03*
X51448000Y-26756000D03*
X50648000Y-26756000D03*
X49848000Y-26756000D03*
X49048000Y-26756000D03*
D29*
X53848000Y-31656000D03*
D30*
X59748000Y-26756000D03*
X59748000Y-36556000D03*
X47948000Y-36556000D03*
X47948000Y-26756000D03*
D29*
X51873000Y-31656000D03*
X51873000Y-33631000D03*
X53848000Y-33631000D03*
X55823000Y-33631000D03*
X55823000Y-31656000D03*
X55823000Y-29681000D03*
X53848000Y-29681000D03*
X51873000Y-29681000D03*
%TD*%
D31*
%TO.C,SW1*%
X51598000Y-58001000D03*
X51598000Y-65951000D03*
X56098000Y-65951000D03*
X56098000Y-58001000D03*
%TD*%
D32*
%TO.C,R1*%
X51995000Y-54480500D03*
X51995000Y-56130500D03*
%TD*%
D24*
%TO.C,D5*%
X63500000Y-46017000D03*
X63500000Y-41867000D03*
%TD*%
D31*
%TO.C,SW2*%
X58710000Y-65951000D03*
X58710000Y-58001000D03*
X63210000Y-65951000D03*
X63210000Y-58001000D03*
%TD*%
D33*
%TO.C,U4*%
X66538000Y-35590000D03*
X66538000Y-34940000D03*
X66538000Y-34290000D03*
X66538000Y-33640000D03*
X66538000Y-32990000D03*
D34*
X69088000Y-35490000D03*
X69088000Y-33090000D03*
D35*
X69088000Y-37865000D03*
X69088000Y-30715000D03*
%TD*%
D18*
%TO.C,U7*%
X62992000Y-31350000D03*
X62992000Y-33674000D03*
%TD*%
D10*
%TO.C,R4*%
X55309000Y-39370000D03*
X56959000Y-39370000D03*
%TD*%
D26*
%TO.C,D2*%
X64287500Y-53594000D03*
X62712500Y-53594000D03*
%TD*%
M02*
